M48
; DRILL file {KiCad 9.99.0-unknown-5ab735eb93~182~ubuntu22.04.1} date 2025-07-05T18:58:27+0200
; FORMAT={-:-/ absolute / inch / decimal}
; #@! TF.CreationDate,2025-07-05T18:58:27+02:00
; #@! TF.GenerationSoftware,Kicad,Pcbnew,9.99.0-unknown-5ab735eb93~182~ubuntu22.04.1
; #@! TF.FileFunction,Plated,1,2,PTH
FMAT,2
INCH
; #@! TA.AperFunction,Plated,PTH,ViaDrill
T1C0.0118
; #@! TA.AperFunction,Plated,PTH,ComponentDrill
T2C0.0197
; #@! TA.AperFunction,Plated,PTH,ViaDrill
T3C0.0236
; #@! TA.AperFunction,Plated,PTH,ComponentDrill
T4C0.0315
; #@! TA.AperFunction,Plated,PTH,ComponentDrill
T5C0.0394
; #@! TA.AperFunction,Plated,PTH,ComponentDrill
T6C0.0433
; #@! TA.AperFunction,Plated,PTH,ComponentDrill
T7C0.1260
%
G90
G05
T1
X6.365Y-2.1458
X6.445Y-2.145
X10.7677Y-2.2108
X10.768Y-2.388
X10.8445Y-2.2108
T2
X2.0709Y-2.1654
X2.0709Y-3.3465
X2.0985Y-2.0985
X2.0985Y-2.2322
X2.0985Y-3.2796
X2.0985Y-3.4133
X2.1654Y-2.0709
X2.1654Y-2.2598
X2.1654Y-3.252
X2.1654Y-3.4409
X2.2322Y-2.0985
X2.2322Y-2.2322
X2.2322Y-3.2796
X2.2322Y-3.4133
X2.2598Y-2.1654
X2.2598Y-3.3465
X15.063Y-2.1654
X15.063Y-3.3465
X15.0907Y-2.0985
X15.0907Y-2.2322
X15.0907Y-3.2796
X15.0907Y-3.4133
X15.1575Y-2.0709
X15.1575Y-2.2598
X15.1575Y-3.252
X15.1575Y-3.4409
X15.2243Y-2.0985
X15.2243Y-2.2322
X15.2243Y-3.2796
X15.2243Y-3.4133
X15.252Y-2.1654
X15.252Y-3.3465
T3
X7.2197Y-2.195
X7.782Y-2.85
X8.54Y-2.822
X9.5122Y-2.84
X9.904Y-2.722
X9.9659Y-2.7447
X10.0596Y-2.7451
X10.08Y-2.125
X10.08Y-2.43
X10.6188Y-2.7921
X10.8206Y-2.8043
X11.896Y-2.788
X11.9784Y-2.8084
X12.135Y-2.785
X12.254Y-2.786
X12.8937Y-2.79
X12.9921Y-2.7603
X13.692Y-2.944
X13.7795Y-2.924
T4
X2.7538Y-2.807
X2.7538Y-2.8857
X3.5412Y-2.807
X3.5412Y-2.8857
X3.925Y-2.3266
X3.925Y-2.5234
X4.3286Y-2.807
X4.3286Y-2.8857
X5.116Y-2.807
X5.116Y-2.8857
X5.4736Y-3.016
X5.5524Y-3.016
X6.2606Y-3.018
X6.3394Y-3.018
X7.0276Y-2.4409
X7.0466Y-3.016
X7.1254Y-3.016
X7.2244Y-2.4409
X7.8346Y-3.018
X7.9134Y-3.018
X8.6226Y-3.018
X8.7014Y-3.018
X9.4106Y-3.018
X9.4894Y-3.018
X9.9966Y-2.43
X10.1934Y-2.43
X10.1966Y-3.018
X10.2754Y-3.018
X10.9846Y-3.018
X11.0634Y-3.018
X11.7726Y-3.018
X11.8514Y-3.018
X12.5586Y-3.018
X12.6374Y-3.018
X13.3466Y-3.018
X13.3858Y-2.3425
X13.3858Y-2.5394
X13.4254Y-3.018
X14.1346Y-3.018
X14.2134Y-3.018
T5
X2.6575Y-3.2717
X2.7559Y-3.2717
X2.8543Y-3.2717
X3.4449Y-3.2717
X3.5433Y-3.2717
X3.6417Y-3.2717
X4.2323Y-3.2717
X4.3307Y-3.2717
X4.4291Y-3.2717
X4.5618Y-2.3903
X4.5618Y-2.4903
X4.6618Y-2.3903
X4.6618Y-2.4903
X4.7618Y-2.3903
X4.7618Y-2.4903
X4.8618Y-2.3903
X4.8618Y-2.4903
X4.9618Y-2.3903
X4.9618Y-2.4903
X5.0197Y-3.2717
X5.0618Y-2.3903
X5.0618Y-2.4903
X5.1181Y-3.2717
X5.1618Y-2.3903
X5.1618Y-2.4903
X5.2165Y-3.2717
X5.2618Y-2.3903
X5.2618Y-2.4903
X5.3618Y-2.3903
X5.3618Y-2.4903
X5.4618Y-2.3903
X5.4618Y-2.4903
X5.5618Y-2.3903
X5.5618Y-2.4903
X5.6618Y-2.3903
X5.6618Y-2.4903
X5.7618Y-2.3903
X5.7618Y-2.4903
X5.8071Y-3.2717
X5.8618Y-2.3903
X5.8618Y-2.4903
X5.9055Y-3.2717
X5.9618Y-2.3903
X5.9618Y-2.4903
X6.0039Y-3.2717
X6.0618Y-2.3903
X6.0618Y-2.4903
X6.1618Y-2.3903
X6.1618Y-2.4903
X6.2618Y-2.3903
X6.2618Y-2.4903
X6.3618Y-2.3903
X6.3618Y-2.4903
X6.4618Y-2.3903
X6.4618Y-2.4903
X6.5945Y-3.2717
X6.6929Y-3.2717
X6.7913Y-3.2717
X7.3819Y-3.2717
X7.4803Y-3.2717
X7.5787Y-3.2717
X8.1693Y-3.2717
X8.2677Y-3.2717
X8.3661Y-3.2717
X8.9567Y-3.2717
X9.0551Y-3.2717
X9.1535Y-3.2717
X9.7441Y-3.2717
X9.8425Y-3.2717
X9.9409Y-3.2717
X10.5315Y-3.2717
X10.6299Y-3.2717
X10.7283Y-3.2717
X10.861Y-2.3903
X10.861Y-2.4903
X10.961Y-2.3903
X10.961Y-2.4903
X11.061Y-2.3903
X11.061Y-2.4903
X11.161Y-2.3903
X11.161Y-2.4903
X11.261Y-2.3903
X11.261Y-2.4903
X11.3189Y-3.2717
X11.361Y-2.3903
X11.361Y-2.4903
X11.4173Y-3.2717
X11.461Y-2.3903
X11.461Y-2.4903
X11.5157Y-3.2717
X11.561Y-2.3903
X11.561Y-2.4903
X11.661Y-2.3903
X11.661Y-2.4903
X11.761Y-2.3903
X11.761Y-2.4903
X11.861Y-2.3903
X11.861Y-2.4903
X11.961Y-2.3903
X11.961Y-2.4903
X12.061Y-2.3903
X12.061Y-2.4903
X12.1063Y-3.2717
X12.161Y-2.3903
X12.161Y-2.4903
X12.2047Y-3.2717
X12.261Y-2.3903
X12.261Y-2.4903
X12.3031Y-3.2717
X12.361Y-2.3903
X12.361Y-2.4903
X12.461Y-2.3903
X12.461Y-2.4903
X12.561Y-2.3903
X12.561Y-2.4903
X12.661Y-2.3903
X12.661Y-2.4903
X12.761Y-2.3903
X12.761Y-2.4903
X12.8937Y-3.2717
X12.9921Y-3.2717
X13.0906Y-3.2717
X13.6811Y-3.2717
X13.7795Y-3.2717
X13.878Y-3.2717
X14.4685Y-3.2717
X14.5669Y-3.2717
X14.6654Y-3.2717
T7
X2.1654Y-2.1654
X2.1654Y-3.3465
X15.1575Y-2.1654
X15.1575Y-3.3465
T6
G00X2.5551Y-3.1102
M15
G01X2.5827Y-3.1102
M16
G05
G00X2.9291Y-3.1102
M15
G01X2.9567Y-3.1102
M16
G05
G00X3.3425Y-3.1102
M15
G01X3.3701Y-3.1102
M16
G05
G00X3.7165Y-3.1102
M15
G01X3.7441Y-3.1102
M16
G05
G00X4.1299Y-3.1102
M15
G01X4.1575Y-3.1102
M16
G05
G00X4.5039Y-3.1102
M15
G01X4.5315Y-3.1102
M16
G05
G00X4.9173Y-3.1102
M15
G01X4.9449Y-3.1102
M16
G05
G00X5.2913Y-3.1102
M15
G01X5.3189Y-3.1102
M16
G05
G00X5.7047Y-3.1102
M15
G01X5.7323Y-3.1102
M16
G05
G00X6.0787Y-3.1102
M15
G01X6.1063Y-3.1102
M16
G05
G00X6.4921Y-3.1102
M15
G01X6.5197Y-3.1102
M16
G05
G00X6.8661Y-3.1102
M15
G01X6.8937Y-3.1102
M16
G05
G00X7.2795Y-3.1102
M15
G01X7.3071Y-3.1102
M16
G05
G00X7.6535Y-3.1102
M15
G01X7.6811Y-3.1102
M16
G05
G00X8.0669Y-3.1102
M15
G01X8.0945Y-3.1102
M16
G05
G00X8.4409Y-3.1102
M15
G01X8.4685Y-3.1102
M16
G05
G00X8.8543Y-3.1102
M15
G01X8.8819Y-3.1102
M16
G05
G00X9.2283Y-3.1102
M15
G01X9.2559Y-3.1102
M16
G05
G00X9.6417Y-3.1102
M15
G01X9.6693Y-3.1102
M16
G05
G00X10.0157Y-3.1102
M15
G01X10.0433Y-3.1102
M16
G05
G00X10.4291Y-3.1102
M15
G01X10.4567Y-3.1102
M16
G05
G00X10.8031Y-3.1102
M15
G01X10.8307Y-3.1102
M16
G05
G00X11.2165Y-3.1102
M15
G01X11.2441Y-3.1102
M16
G05
G00X11.5906Y-3.1102
M15
G01X11.6181Y-3.1102
M16
G05
G00X12.0039Y-3.1102
M15
G01X12.0315Y-3.1102
M16
G05
G00X12.378Y-3.1102
M15
G01X12.4055Y-3.1102
M16
G05
G00X12.7913Y-3.1102
M15
G01X12.8189Y-3.1102
M16
G05
G00X13.1654Y-3.1102
M15
G01X13.1929Y-3.1102
M16
G05
G00X13.5787Y-3.1102
M15
G01X13.6063Y-3.1102
M16
G05
G00X13.9528Y-3.1102
M15
G01X13.9803Y-3.1102
M16
G05
G00X14.3661Y-3.1102
M15
G01X14.3937Y-3.1102
M16
G05
G00X14.7402Y-3.1102
M15
G01X14.7677Y-3.1102
M16
G05
M30
