%TF.GenerationSoftware,KiCad,Pcbnew,9.99.0-unknown-5ab735eb93~182~ubuntu22.04.1*%
%TF.CreationDate,2025-07-05T18:58:22+02:00*%
%TF.ProjectId,CP70_potmeters,43503730-5f70-46f7-946d-65746572732e,rev?*%
%TF.SameCoordinates,Original*%
%TF.FileFunction,Copper,L2,Bot*%
%TF.FilePolarity,Positive*%
%FSLAX46Y46*%
G04 Gerber Fmt 4.6, Leading zero omitted, Abs format (unit mm)*
G04 Created by KiCad (PCBNEW 9.99.0-unknown-5ab735eb93~182~ubuntu22.04.1) date 2025-07-05 18:58:22*
%MOMM*%
%LPD*%
G01*
G04 APERTURE LIST*
G04 Aperture macros list*
%AMRoundRect*
0 Rectangle with rounded corners*
0 $1 Rounding radius*
0 $2 $3 $4 $5 $6 $7 $8 $9 X,Y pos of 4 corners*
0 Add a 4 corners polygon primitive as box body*
4,1,4,$2,$3,$4,$5,$6,$7,$8,$9,$2,$3,0*
0 Add four circle primitives for the rounded corners*
1,1,$1+$1,$2,$3*
1,1,$1+$1,$4,$5*
1,1,$1+$1,$6,$7*
1,1,$1+$1,$8,$9*
0 Add four rect primitives between the rounded corners*
20,1,$1+$1,$2,$3,$4,$5,0*
20,1,$1+$1,$4,$5,$6,$7,0*
20,1,$1+$1,$6,$7,$8,$9,0*
20,1,$1+$1,$8,$9,$2,$3,0*%
G04 Aperture macros list end*
%TA.AperFunction,ComponentPad*%
%ADD10C,1.600000*%
%TD*%
%TA.AperFunction,ComponentPad*%
%ADD11C,0.800000*%
%TD*%
%TA.AperFunction,ComponentPad*%
%ADD12C,6.400000*%
%TD*%
%TA.AperFunction,ComponentPad*%
%ADD13R,1.800000X1.800000*%
%TD*%
%TA.AperFunction,ComponentPad*%
%ADD14C,1.800000*%
%TD*%
%TA.AperFunction,ComponentPad*%
%ADD15RoundRect,0.500000X-1.000000X-0.500000X1.000000X-0.500000X1.000000X0.500000X-1.000000X0.500000X0*%
%TD*%
%TA.AperFunction,ComponentPad*%
%ADD16RoundRect,0.250000X0.600000X-0.600000X0.600000X0.600000X-0.600000X0.600000X-0.600000X-0.600000X0*%
%TD*%
%TA.AperFunction,ComponentPad*%
%ADD17C,1.700000*%
%TD*%
%TA.AperFunction,ViaPad*%
%ADD18C,1.000000*%
%TD*%
%TA.AperFunction,ViaPad*%
%ADD19C,0.600000*%
%TD*%
%TA.AperFunction,Conductor*%
%ADD20C,1.000000*%
%TD*%
%TA.AperFunction,Conductor*%
%ADD21C,0.600000*%
%TD*%
%TA.AperFunction,Conductor*%
%ADD22C,0.400000*%
%TD*%
G04 APERTURE END LIST*
D10*
%TO.P,C120,1*%
%TO.N,VCC*%
X258913000Y-61722000D03*
%TO.P,C120,2*%
%TO.N,VEE*%
X253913000Y-61722000D03*
%TD*%
%TO.P,C119,1*%
%TO.N,VCC*%
X340000000Y-59500000D03*
%TO.P,C119,2*%
%TO.N,VEE*%
X340000000Y-64500000D03*
%TD*%
%TO.P,C118,1*%
%TO.N,VCC*%
X183500000Y-62000000D03*
%TO.P,C118,2*%
%TO.N,VEE*%
X178500000Y-62000000D03*
%TD*%
%TO.P,C117,1*%
%TO.N,VCC*%
X99695000Y-64095000D03*
%TO.P,C117,2*%
%TO.N,VEE*%
X99695000Y-59095000D03*
%TD*%
%TO.P,C116,1*%
%TO.N,LINE16*%
X359019600Y-76657200D03*
%TO.P,C116,2*%
%TO.N,Net-(C116-Pad2)*%
X361019600Y-76657200D03*
%TD*%
%TO.P,C115,1*%
%TO.N,LINE15*%
X339004400Y-76657200D03*
%TO.P,C115,2*%
%TO.N,Net-(C115-Pad2)*%
X341004400Y-76657200D03*
%TD*%
%TO.P,C114,1*%
%TO.N,LINE14*%
X318989200Y-76657200D03*
%TO.P,C114,2*%
%TO.N,Net-(C114-Pad2)*%
X320989200Y-76657200D03*
%TD*%
%TO.P,C112,1*%
%TO.N,LINE11*%
X258994400Y-76657200D03*
%TO.P,C112,2*%
%TO.N,Net-(C112-Pad2)*%
X260994400Y-76657200D03*
%TD*%
%TO.P,C111,1*%
%TO.N,LINE10*%
X239030000Y-76657200D03*
%TO.P,C111,2*%
%TO.N,Net-(C111-Pad2)*%
X241030000Y-76657200D03*
%TD*%
%TO.P,C109,1*%
%TO.N,LINE12*%
X279009600Y-76657200D03*
%TO.P,C109,2*%
%TO.N,Net-(C109-Pad2)*%
X281009600Y-76657200D03*
%TD*%
%TO.P,C108,1*%
%TO.N,LINE07*%
X178984400Y-76606400D03*
%TO.P,C108,2*%
%TO.N,Net-(C108-Pad2)*%
X180984400Y-76606400D03*
%TD*%
%TO.P,C107,1*%
%TO.N,LINE06*%
X159020000Y-76657200D03*
%TO.P,C107,2*%
%TO.N,Net-(C107-Pad2)*%
X161020000Y-76657200D03*
%TD*%
%TO.P,C105,1*%
%TO.N,LINE08*%
X198999600Y-76657200D03*
%TO.P,C105,2*%
%TO.N,Net-(C105-Pad2)*%
X200999600Y-76657200D03*
%TD*%
%TO.P,C104,1*%
%TO.N,LINE03*%
X109946200Y-71297800D03*
%TO.P,C104,2*%
%TO.N,Net-(C104-Pad2)*%
X109946200Y-73297800D03*
%TD*%
%TO.P,C103,1*%
%TO.N,LINE02*%
X89946200Y-71297800D03*
%TO.P,C103,2*%
%TO.N,Net-(C103-Pad2)*%
X89946200Y-73297800D03*
%TD*%
%TO.P,C101,1*%
%TO.N,LINE04*%
X129946200Y-71297800D03*
%TO.P,C101,2*%
%TO.N,Net-(C101-Pad2)*%
X129946200Y-73297800D03*
%TD*%
%TO.P,C113,1*%
%TO.N,LINE13*%
X299024800Y-76657200D03*
%TO.P,C113,2*%
%TO.N,Net-(C113-Pad2)*%
X301024800Y-76657200D03*
%TD*%
%TO.P,C110,1*%
%TO.N,LINE09*%
X219014800Y-76657200D03*
%TO.P,C110,2*%
%TO.N,Net-(C110-Pad2)*%
X221014800Y-76657200D03*
%TD*%
%TO.P,C106,1*%
%TO.N,LINE05*%
X139030200Y-76606400D03*
%TO.P,C106,2*%
%TO.N,Net-(C106-Pad2)*%
X141030200Y-76606400D03*
%TD*%
%TO.P,C102,1*%
%TO.N,LINE01*%
X69946200Y-71297800D03*
%TO.P,C102,2*%
%TO.N,Net-(C102-Pad2)*%
X69946200Y-73297800D03*
%TD*%
D11*
%TO.P,H104,1,1*%
%TO.N,GNDREF*%
X52600000Y-85000000D03*
X53302944Y-83302944D03*
X53302944Y-86697056D03*
X55000000Y-82600000D03*
D12*
X55000000Y-85000000D03*
D11*
X55000000Y-87400000D03*
X56697056Y-83302944D03*
X56697056Y-86697056D03*
X57400000Y-85000000D03*
%TD*%
%TO.P,H103,1,1*%
%TO.N,GNDREF*%
X382600000Y-85000000D03*
X383302944Y-83302944D03*
X383302944Y-86697056D03*
X385000000Y-82600000D03*
D12*
X385000000Y-85000000D03*
D11*
X385000000Y-87400000D03*
X386697056Y-83302944D03*
X386697056Y-86697056D03*
X387400000Y-85000000D03*
%TD*%
%TO.P,H102,1*%
%TO.N,N/C*%
X382600000Y-55000000D03*
X383302944Y-53302944D03*
X383302944Y-56697056D03*
X385000000Y-52600000D03*
D12*
X385000000Y-55000000D03*
D11*
X385000000Y-57400000D03*
X386697056Y-53302944D03*
X386697056Y-56697056D03*
X387400000Y-55000000D03*
%TD*%
%TO.P,H101,1*%
%TO.N,N/C*%
X52600000Y-55000000D03*
X53302944Y-53302944D03*
X53302944Y-56697056D03*
X55000000Y-52600000D03*
D12*
X55000000Y-55000000D03*
D11*
X55000000Y-57400000D03*
X56697056Y-53302944D03*
X56697056Y-56697056D03*
X57400000Y-55000000D03*
%TD*%
D13*
%TO.P,RV112,1,1*%
%TO.N,GNDA*%
X267500000Y-83100000D03*
D14*
%TO.P,RV112,2,2*%
%TO.N,AMP11*%
X270000000Y-83100000D03*
%TO.P,RV112,3,3*%
%TO.N,Net-(C112-Pad2)*%
X272500000Y-83100000D03*
D15*
%TO.P,RV112,MP,MountPin*%
%TO.N,GNDREF*%
X265250000Y-79000000D03*
X274750000Y-79000000D03*
%TD*%
D13*
%TO.P,RV101,1,1*%
%TO.N,GNDA*%
X127500000Y-83100000D03*
D14*
%TO.P,RV101,2,2*%
%TO.N,AMP04*%
X130000000Y-83100000D03*
%TO.P,RV101,3,3*%
%TO.N,Net-(C101-Pad2)*%
X132500000Y-83100000D03*
D15*
%TO.P,RV101,MP,MountPin*%
%TO.N,GNDREF*%
X125250000Y-79000000D03*
X134750000Y-79000000D03*
%TD*%
D13*
%TO.P,RV113,1,1*%
%TO.N,GNDA*%
X307500000Y-83100000D03*
D14*
%TO.P,RV113,2,2*%
%TO.N,AMP13*%
X310000000Y-83100000D03*
%TO.P,RV113,3,3*%
%TO.N,Net-(C113-Pad2)*%
X312500000Y-83100000D03*
D15*
%TO.P,RV113,MP,MountPin*%
%TO.N,GNDREF*%
X305250000Y-79000000D03*
X314750000Y-79000000D03*
%TD*%
D13*
%TO.P,RV111,1,1*%
%TO.N,GNDA*%
X247500000Y-83100000D03*
D14*
%TO.P,RV111,2,2*%
%TO.N,AMP10*%
X250000000Y-83100000D03*
%TO.P,RV111,3,3*%
%TO.N,Net-(C111-Pad2)*%
X252500000Y-83100000D03*
D15*
%TO.P,RV111,MP,MountPin*%
%TO.N,GNDREF*%
X245250000Y-79000000D03*
X254750000Y-79000000D03*
%TD*%
D13*
%TO.P,RV109,1,1*%
%TO.N,GNDA*%
X287500000Y-83100000D03*
D14*
%TO.P,RV109,2,2*%
%TO.N,AMP12*%
X290000000Y-83100000D03*
%TO.P,RV109,3,3*%
%TO.N,Net-(C109-Pad2)*%
X292500000Y-83100000D03*
D15*
%TO.P,RV109,MP,MountPin*%
%TO.N,GNDREF*%
X285250000Y-79000000D03*
X294750000Y-79000000D03*
%TD*%
D13*
%TO.P,RV116,1,1*%
%TO.N,GNDA*%
X367500000Y-83100000D03*
D14*
%TO.P,RV116,2,2*%
%TO.N,AMP16*%
X370000000Y-83100000D03*
%TO.P,RV116,3,3*%
%TO.N,Net-(C116-Pad2)*%
X372500000Y-83100000D03*
D15*
%TO.P,RV116,MP,MountPin*%
%TO.N,GNDREF*%
X365250000Y-79000000D03*
X374750000Y-79000000D03*
%TD*%
D13*
%TO.P,RV110,1,1*%
%TO.N,GNDA*%
X227500000Y-83100000D03*
D14*
%TO.P,RV110,2,2*%
%TO.N,AMP09*%
X230000000Y-83100000D03*
%TO.P,RV110,3,3*%
%TO.N,Net-(C110-Pad2)*%
X232500000Y-83100000D03*
D15*
%TO.P,RV110,MP,MountPin*%
%TO.N,GNDREF*%
X225250000Y-79000000D03*
X234750000Y-79000000D03*
%TD*%
D13*
%TO.P,RV102,1,1*%
%TO.N,GNDA*%
X67500000Y-83100000D03*
D14*
%TO.P,RV102,2,2*%
%TO.N,AMP01*%
X70000000Y-83100000D03*
%TO.P,RV102,3,3*%
%TO.N,Net-(C102-Pad2)*%
X72500000Y-83100000D03*
D15*
%TO.P,RV102,MP,MountPin*%
%TO.N,GNDREF*%
X65250000Y-79000000D03*
X74750000Y-79000000D03*
%TD*%
D16*
%TO.P,J102,1,Pin_1*%
%TO.N,VCC*%
X275870000Y-63252500D03*
D17*
%TO.P,J102,2,Pin_2*%
X275870000Y-60712500D03*
%TO.P,J102,3,Pin_3*%
X278410000Y-63252500D03*
%TO.P,J102,4,Pin_4*%
X278410000Y-60712500D03*
%TO.P,J102,5,Pin_5*%
%TO.N,AMP01*%
X280950000Y-63252500D03*
%TO.P,J102,6,Pin_6*%
%TO.N,GNDA*%
X280950000Y-60712500D03*
%TO.P,J102,7,Pin_7*%
%TO.N,AMP02*%
X283490000Y-63252500D03*
%TO.P,J102,8,Pin_8*%
%TO.N,GNDA*%
X283490000Y-60712500D03*
%TO.P,J102,9,Pin_9*%
%TO.N,AMP03*%
X286030000Y-63252500D03*
%TO.P,J102,10,Pin_10*%
%TO.N,GNDA*%
X286030000Y-60712500D03*
%TO.P,J102,11,Pin_11*%
%TO.N,AMP04*%
X288570000Y-63252500D03*
%TO.P,J102,12,Pin_12*%
%TO.N,GNDA*%
X288570000Y-60712500D03*
%TO.P,J102,13,Pin_13*%
%TO.N,AMP05*%
X291110000Y-63252500D03*
%TO.P,J102,14,Pin_14*%
%TO.N,GNDA*%
X291110000Y-60712500D03*
%TO.P,J102,15,Pin_15*%
%TO.N,AMP06*%
X293650000Y-63252500D03*
%TO.P,J102,16,Pin_16*%
%TO.N,GNDA*%
X293650000Y-60712500D03*
%TO.P,J102,17,Pin_17*%
%TO.N,AMP07*%
X296190000Y-63252500D03*
%TO.P,J102,18,Pin_18*%
%TO.N,GNDA*%
X296190000Y-60712500D03*
%TO.P,J102,19,Pin_19*%
%TO.N,AMP08*%
X298730000Y-63252500D03*
%TO.P,J102,20,Pin_20*%
%TO.N,GNDA*%
X298730000Y-60712500D03*
%TO.P,J102,21,Pin_21*%
%TO.N,AMP09*%
X301270000Y-63252500D03*
%TO.P,J102,22,Pin_22*%
%TO.N,GNDA*%
X301270000Y-60712500D03*
%TO.P,J102,23,Pin_23*%
%TO.N,AMP10*%
X303810000Y-63252500D03*
%TO.P,J102,24,Pin_24*%
%TO.N,GNDA*%
X303810000Y-60712500D03*
%TO.P,J102,25,Pin_25*%
%TO.N,AMP11*%
X306350000Y-63252500D03*
%TO.P,J102,26,Pin_26*%
%TO.N,GNDA*%
X306350000Y-60712500D03*
%TO.P,J102,27,Pin_27*%
%TO.N,AMP12*%
X308890000Y-63252500D03*
%TO.P,J102,28,Pin_28*%
%TO.N,GNDA*%
X308890000Y-60712500D03*
%TO.P,J102,29,Pin_29*%
%TO.N,AMP13*%
X311430000Y-63252500D03*
%TO.P,J102,30,Pin_30*%
%TO.N,GNDA*%
X311430000Y-60712500D03*
%TO.P,J102,31,Pin_31*%
%TO.N,AMP14*%
X313970000Y-63252500D03*
%TO.P,J102,32,Pin_32*%
%TO.N,GNDA*%
X313970000Y-60712500D03*
%TO.P,J102,33,Pin_33*%
%TO.N,AMP15*%
X316510000Y-63252500D03*
%TO.P,J102,34,Pin_34*%
%TO.N,GNDA*%
X316510000Y-60712500D03*
%TO.P,J102,35,Pin_35*%
%TO.N,AMP16*%
X319050000Y-63252500D03*
%TO.P,J102,36,Pin_36*%
%TO.N,GNDA*%
X319050000Y-60712500D03*
%TO.P,J102,37,Pin_37*%
%TO.N,VEE*%
X321590000Y-63252500D03*
%TO.P,J102,38,Pin_38*%
X321590000Y-60712500D03*
%TO.P,J102,39,Pin_39*%
X324130000Y-63252500D03*
%TO.P,J102,40,Pin_40*%
X324130000Y-60712500D03*
%TD*%
D13*
%TO.P,RV114,1,1*%
%TO.N,GNDA*%
X327500000Y-83100000D03*
D14*
%TO.P,RV114,2,2*%
%TO.N,AMP14*%
X330000000Y-83100000D03*
%TO.P,RV114,3,3*%
%TO.N,Net-(C114-Pad2)*%
X332500000Y-83100000D03*
D15*
%TO.P,RV114,MP,MountPin*%
%TO.N,GNDREF*%
X325250000Y-79000000D03*
X334750000Y-79000000D03*
%TD*%
D13*
%TO.P,RV108,1,1*%
%TO.N,GNDA*%
X187500000Y-83100000D03*
D14*
%TO.P,RV108,2,2*%
%TO.N,AMP07*%
X190000000Y-83100000D03*
%TO.P,RV108,3,3*%
%TO.N,Net-(C108-Pad2)*%
X192500000Y-83100000D03*
D15*
%TO.P,RV108,MP,MountPin*%
%TO.N,GNDREF*%
X185250000Y-79000000D03*
X194750000Y-79000000D03*
%TD*%
D13*
%TO.P,RV103,1,1*%
%TO.N,GNDA*%
X87500000Y-83100000D03*
D14*
%TO.P,RV103,2,2*%
%TO.N,AMP02*%
X90000000Y-83100000D03*
%TO.P,RV103,3,3*%
%TO.N,Net-(C103-Pad2)*%
X92500000Y-83100000D03*
D15*
%TO.P,RV103,MP,MountPin*%
%TO.N,GNDREF*%
X85250000Y-79000000D03*
X94750000Y-79000000D03*
%TD*%
D13*
%TO.P,RV115,1,1*%
%TO.N,GNDA*%
X347500000Y-83100000D03*
D14*
%TO.P,RV115,2,2*%
%TO.N,AMP15*%
X350000000Y-83100000D03*
%TO.P,RV115,3,3*%
%TO.N,Net-(C115-Pad2)*%
X352500000Y-83100000D03*
D15*
%TO.P,RV115,MP,MountPin*%
%TO.N,GNDREF*%
X345250000Y-79000000D03*
X354750000Y-79000000D03*
%TD*%
D13*
%TO.P,RV106,1,1*%
%TO.N,GNDA*%
X147500000Y-83100000D03*
D14*
%TO.P,RV106,2,2*%
%TO.N,AMP05*%
X150000000Y-83100000D03*
%TO.P,RV106,3,3*%
%TO.N,Net-(C106-Pad2)*%
X152500000Y-83100000D03*
D15*
%TO.P,RV106,MP,MountPin*%
%TO.N,GNDREF*%
X145250000Y-79000000D03*
X154750000Y-79000000D03*
%TD*%
D13*
%TO.P,RV107,1,1*%
%TO.N,GNDA*%
X167500000Y-83100000D03*
D14*
%TO.P,RV107,2,2*%
%TO.N,AMP06*%
X170000000Y-83100000D03*
%TO.P,RV107,3,3*%
%TO.N,Net-(C107-Pad2)*%
X172500000Y-83100000D03*
D15*
%TO.P,RV107,MP,MountPin*%
%TO.N,GNDREF*%
X165250000Y-79000000D03*
X174750000Y-79000000D03*
%TD*%
D13*
%TO.P,RV105,1,1*%
%TO.N,GNDA*%
X207500000Y-83100000D03*
D14*
%TO.P,RV105,2,2*%
%TO.N,AMP08*%
X210000000Y-83100000D03*
%TO.P,RV105,3,3*%
%TO.N,Net-(C105-Pad2)*%
X212500000Y-83100000D03*
D15*
%TO.P,RV105,MP,MountPin*%
%TO.N,GNDREF*%
X205250000Y-79000000D03*
X214750000Y-79000000D03*
%TD*%
D13*
%TO.P,RV104,1,1*%
%TO.N,GNDA*%
X107500000Y-83100000D03*
D14*
%TO.P,RV104,2,2*%
%TO.N,AMP03*%
X110000000Y-83100000D03*
%TO.P,RV104,3,3*%
%TO.N,Net-(C104-Pad2)*%
X112500000Y-83100000D03*
D15*
%TO.P,RV104,MP,MountPin*%
%TO.N,GNDREF*%
X105250000Y-79000000D03*
X114750000Y-79000000D03*
%TD*%
D16*
%TO.P,J101,1,Pin_1*%
%TO.N,VCC*%
X115870000Y-63252500D03*
D17*
%TO.P,J101,2,Pin_2*%
X115870000Y-60712500D03*
%TO.P,J101,3,Pin_3*%
X118410000Y-63252500D03*
%TO.P,J101,4,Pin_4*%
X118410000Y-60712500D03*
%TO.P,J101,5,Pin_5*%
%TO.N,LINE01*%
X120950000Y-63252500D03*
%TO.P,J101,6,Pin_6*%
%TO.N,GNDA*%
X120950000Y-60712500D03*
%TO.P,J101,7,Pin_7*%
%TO.N,LINE02*%
X123490000Y-63252500D03*
%TO.P,J101,8,Pin_8*%
%TO.N,GNDA*%
X123490000Y-60712500D03*
%TO.P,J101,9,Pin_9*%
%TO.N,LINE03*%
X126030000Y-63252500D03*
%TO.P,J101,10,Pin_10*%
%TO.N,GNDA*%
X126030000Y-60712500D03*
%TO.P,J101,11,Pin_11*%
%TO.N,LINE04*%
X128570000Y-63252500D03*
%TO.P,J101,12,Pin_12*%
%TO.N,GNDA*%
X128570000Y-60712500D03*
%TO.P,J101,13,Pin_13*%
%TO.N,LINE05*%
X131110000Y-63252500D03*
%TO.P,J101,14,Pin_14*%
%TO.N,GNDA*%
X131110000Y-60712500D03*
%TO.P,J101,15,Pin_15*%
%TO.N,LINE06*%
X133650000Y-63252500D03*
%TO.P,J101,16,Pin_16*%
%TO.N,GNDA*%
X133650000Y-60712500D03*
%TO.P,J101,17,Pin_17*%
%TO.N,LINE07*%
X136190000Y-63252500D03*
%TO.P,J101,18,Pin_18*%
%TO.N,GNDA*%
X136190000Y-60712500D03*
%TO.P,J101,19,Pin_19*%
%TO.N,LINE08*%
X138730000Y-63252500D03*
%TO.P,J101,20,Pin_20*%
%TO.N,GNDA*%
X138730000Y-60712500D03*
%TO.P,J101,21,Pin_21*%
%TO.N,LINE09*%
X141270000Y-63252500D03*
%TO.P,J101,22,Pin_22*%
%TO.N,GNDA*%
X141270000Y-60712500D03*
%TO.P,J101,23,Pin_23*%
%TO.N,LINE10*%
X143810000Y-63252500D03*
%TO.P,J101,24,Pin_24*%
%TO.N,GNDA*%
X143810000Y-60712500D03*
%TO.P,J101,25,Pin_25*%
%TO.N,LINE11*%
X146350000Y-63252500D03*
%TO.P,J101,26,Pin_26*%
%TO.N,GNDA*%
X146350000Y-60712500D03*
%TO.P,J101,27,Pin_27*%
%TO.N,LINE12*%
X148890000Y-63252500D03*
%TO.P,J101,28,Pin_28*%
%TO.N,GNDA*%
X148890000Y-60712500D03*
%TO.P,J101,29,Pin_29*%
%TO.N,LINE13*%
X151430000Y-63252500D03*
%TO.P,J101,30,Pin_30*%
%TO.N,GNDA*%
X151430000Y-60712500D03*
%TO.P,J101,31,Pin_31*%
%TO.N,LINE14*%
X153970000Y-63252500D03*
%TO.P,J101,32,Pin_32*%
%TO.N,GNDA*%
X153970000Y-60712500D03*
%TO.P,J101,33,Pin_33*%
%TO.N,LINE15*%
X156510000Y-63252500D03*
%TO.P,J101,34,Pin_34*%
%TO.N,GNDA*%
X156510000Y-60712500D03*
%TO.P,J101,35,Pin_35*%
%TO.N,LINE16*%
X159050000Y-63252500D03*
%TO.P,J101,36,Pin_36*%
%TO.N,GNDA*%
X159050000Y-60712500D03*
%TO.P,J101,37,Pin_37*%
%TO.N,VEE*%
X161590000Y-63252500D03*
%TO.P,J101,38,Pin_38*%
X161590000Y-60712500D03*
%TO.P,J101,39,Pin_39*%
X164130000Y-63252500D03*
%TO.P,J101,40,Pin_40*%
X164130000Y-60712500D03*
%TD*%
D18*
%TO.N,VCC*%
X183380000Y-55753000D03*
%TO.N,VEE*%
X256032000Y-61722000D03*
X256032000Y-53975000D03*
D19*
X161671000Y-54503000D03*
X163703000Y-54483000D03*
%TO.N,VCC*%
X273499616Y-56154000D03*
X273507200Y-60655200D03*
X275450208Y-56153999D03*
D18*
%TO.N,GNDA*%
X216916000Y-71678800D03*
%TO.N,LINE08*%
X197662800Y-72390000D03*
%TO.N,GNDA*%
X241609444Y-72136000D03*
%TO.N,AMP08*%
X251561600Y-69138800D03*
%TO.N,AMP09*%
X253133600Y-69716006D03*
%TO.N,AMP10*%
X255514252Y-69725127D03*
%TO.N,GNDA*%
X269717491Y-70919600D03*
%TO.N,AMP11*%
X274844102Y-71228558D03*
%TO.N,GNDA*%
X302158400Y-70815200D03*
%TO.N,AMP12*%
X304252552Y-71334552D03*
%TO.N,AMP13*%
X311251600Y-70764400D03*
%TO.N,GNDA*%
X308229000Y-70739000D03*
X327500000Y-70866000D03*
%TO.N,AMP14*%
X330000000Y-70110800D03*
%TO.N,AMP15*%
X350000000Y-74269600D03*
%TO.N,GNDA*%
X347776800Y-74777600D03*
%TD*%
%TO.N,VCC*%
D20*
X152654000Y-55753000D02*
X183380000Y-55753000D01*
%TO.N,VEE*%
D21*
X99695000Y-59095000D02*
X104050000Y-54740000D01*
X161484000Y-54740000D02*
X161671000Y-54553000D01*
X104050000Y-54740000D02*
X161484000Y-54740000D01*
%TO.N,VCC*%
D20*
X118410000Y-60712500D02*
X123369500Y-55753000D01*
X123369500Y-55753000D02*
X152654000Y-55753000D01*
X115870000Y-60712500D02*
X120410500Y-56172000D01*
X120410500Y-56172000D02*
X122555000Y-56172000D01*
%TO.N,GNDREF*%
D21*
X55000000Y-85000000D02*
X61304000Y-85000000D01*
X62484000Y-83820000D02*
X62484000Y-81766000D01*
X61304000Y-85000000D02*
X62484000Y-83820000D01*
X62484000Y-81766000D02*
X65250000Y-79000000D01*
X385000000Y-85000000D02*
X378624000Y-85000000D01*
X378624000Y-85000000D02*
X378460000Y-84836000D01*
X378460000Y-84836000D02*
X378460000Y-82710000D01*
X378460000Y-82710000D02*
X374750000Y-79000000D01*
%TO.N,VCC*%
X99695000Y-64095000D02*
X115027500Y-64095000D01*
X115027500Y-64095000D02*
X115870000Y-63252500D01*
X152567000Y-55666000D02*
X152654000Y-55753000D01*
%TO.N,VEE*%
X256032000Y-61722000D02*
X253913000Y-61722000D01*
D20*
X314852500Y-53975000D02*
X256032000Y-53975000D01*
%TO.N,VCC*%
D21*
X258913000Y-61722000D02*
X272440400Y-61722000D01*
X272440400Y-61722000D02*
X273507200Y-60655200D01*
D20*
X183380000Y-55753000D02*
X273050616Y-55753000D01*
X273050616Y-55753000D02*
X273499616Y-56202000D01*
%TO.N,GNDA*%
X280950000Y-60712500D02*
X279165500Y-58928000D01*
X279165500Y-58928000D02*
X160834500Y-58928000D01*
X160834500Y-58928000D02*
X159050000Y-60712500D01*
%TO.N,VCC*%
X273499616Y-56204000D02*
X275450208Y-56204000D01*
X273499616Y-56154000D02*
X273499616Y-56204000D01*
X275450208Y-56204000D02*
X275450208Y-56153999D01*
%TO.N,GNDA*%
X156510000Y-60712500D02*
X159818500Y-57404000D01*
X159818500Y-57404000D02*
X280181500Y-57404000D01*
X280181500Y-57404000D02*
X283490000Y-60712500D01*
%TO.N,VEE*%
X163633000Y-54553000D02*
X161671000Y-54553000D01*
X163195000Y-53086000D02*
X161778000Y-54503000D01*
X161671000Y-54553000D02*
X161671000Y-54503000D01*
X161778000Y-54503000D02*
X161671000Y-54503000D01*
X163703000Y-54483000D02*
X163633000Y-54553000D01*
X163703000Y-53086000D02*
X163195000Y-53086000D01*
X163703000Y-52451000D02*
X163703000Y-53086000D01*
X324130000Y-60712500D02*
X315614500Y-52197000D01*
X163957000Y-52197000D02*
X163703000Y-52451000D01*
X315614500Y-52197000D02*
X163957000Y-52197000D01*
X163703000Y-53086000D02*
X163703000Y-54483000D01*
X321590000Y-60712500D02*
X314852500Y-53975000D01*
X256032000Y-53975000D02*
X164211000Y-53975000D01*
X164211000Y-53975000D02*
X163703000Y-54483000D01*
X321590000Y-60712500D02*
X324130000Y-60712500D01*
X324130000Y-60712500D02*
X324130000Y-63252500D01*
X321590000Y-63252500D02*
X324130000Y-63252500D01*
%TO.N,AMP15*%
D22*
X341945744Y-68560800D02*
X346841744Y-73456800D01*
X318552944Y-68560800D02*
X341945744Y-68560800D01*
X316510000Y-66517856D02*
X318552944Y-68560800D01*
X316510000Y-63252500D02*
X316510000Y-66517856D01*
X349187200Y-73456800D02*
X350000000Y-74269600D01*
X346841744Y-73456800D02*
X349187200Y-73456800D01*
%TO.N,GNDA*%
X315221000Y-66077384D02*
X318304416Y-69160800D01*
X315221000Y-62001500D02*
X315221000Y-66077384D01*
X316510000Y-60712500D02*
X315221000Y-62001500D01*
X347314016Y-74777600D02*
X347776800Y-74777600D01*
X318304416Y-69160800D02*
X341697216Y-69160800D01*
X341697216Y-69160800D02*
X347314016Y-74777600D01*
X367500000Y-76873200D02*
X360264000Y-69637200D01*
X317799000Y-61963500D02*
X319050000Y-60712500D01*
%TO.N,AMP16*%
X319050000Y-67360800D02*
X319050000Y-63252500D01*
X370000000Y-76782400D02*
X362254800Y-69037200D01*
X362254800Y-69037200D02*
X344119200Y-69037200D01*
X370000000Y-83100000D02*
X370000000Y-76782400D01*
%TO.N,GNDA*%
X317799000Y-66958328D02*
X317799000Y-61963500D01*
X367500000Y-83100000D02*
X367500000Y-76873200D01*
%TO.N,AMP16*%
X342442800Y-67360800D02*
X319050000Y-67360800D01*
%TO.N,GNDA*%
X342194272Y-67960800D02*
X318801472Y-67960800D01*
X360264000Y-69637200D02*
X343870672Y-69637200D01*
X318801472Y-67960800D02*
X317799000Y-66958328D01*
X343870672Y-69637200D02*
X342194272Y-67960800D01*
%TO.N,AMP16*%
X344119200Y-69037200D02*
X342442800Y-67360800D01*
%TO.N,AMP14*%
X329650000Y-69760800D02*
X330000000Y-70110800D01*
X318055888Y-69760800D02*
X329650000Y-69760800D01*
X313970000Y-65674912D02*
X318055888Y-69760800D01*
X313970000Y-63252500D02*
X313970000Y-65674912D01*
%TO.N,VCC*%
D20*
X275870000Y-60712500D02*
X273564500Y-60712500D01*
X273564500Y-60712500D02*
X273507200Y-60655200D01*
X278410000Y-60712500D02*
X275870000Y-60712500D01*
X278410000Y-63252500D02*
X275870000Y-63252500D01*
%TO.N,GNDA*%
D22*
X280950000Y-60712500D02*
X319050000Y-60712500D01*
%TO.N,LINE09*%
X219014800Y-76657200D02*
X220208400Y-75463600D01*
X220208400Y-70782897D02*
X219021503Y-69596000D01*
X152409472Y-67482200D02*
X146336987Y-67482200D01*
X220208400Y-75463600D02*
X220208400Y-70782897D01*
X144884243Y-67478200D02*
X144293619Y-67478200D01*
X144293619Y-67478200D02*
X141270000Y-64454581D01*
X141270000Y-64454581D02*
X141270000Y-63252500D01*
X154232772Y-69305500D02*
X152409472Y-67482200D01*
X219021503Y-69596000D02*
X154543014Y-69596000D01*
%TO.N,GNDA*%
X196313690Y-70960000D02*
X216197200Y-70960000D01*
%TO.N,LINE09*%
X146334986Y-67480200D02*
X144886244Y-67480200D01*
X144886244Y-67480200D02*
X144884243Y-67478200D01*
X154543014Y-69596000D02*
X154252514Y-69305500D01*
%TO.N,GNDA*%
X216197200Y-70960000D02*
X216916000Y-71678800D01*
%TO.N,LINE09*%
X154252514Y-69305500D02*
X154232772Y-69305500D01*
X146336987Y-67482200D02*
X146334986Y-67480200D01*
%TO.N,GNDA*%
X145588575Y-69282201D02*
X144139832Y-69282201D01*
X143467400Y-68080200D02*
X139981000Y-64593800D01*
X176301288Y-74056800D02*
X174404488Y-72160000D01*
X151663060Y-69284200D02*
X145590575Y-69284201D01*
%TO.N,LINE07*%
X143891304Y-69882201D02*
X143889303Y-69880200D01*
%TO.N,LINE08*%
X153734888Y-70507500D02*
X153754629Y-70507500D01*
%TO.N,LINE07*%
X153257573Y-71707500D02*
X153237832Y-71707500D01*
%TO.N,GNDA*%
X144139832Y-69282201D02*
X144137831Y-69280200D01*
X139981000Y-64593800D02*
X139981000Y-60714100D01*
X174404488Y-72160000D02*
X154558602Y-72160000D01*
%TO.N,LINE08*%
X138730000Y-63252500D02*
X138730000Y-64597728D01*
%TO.N,LINE07*%
X178984400Y-76606400D02*
X176885600Y-76606400D01*
%TO.N,LINE08*%
X154807130Y-71560000D02*
X196832800Y-71560000D01*
X145839103Y-68684201D02*
X151911588Y-68684200D01*
%TO.N,GNDA*%
X146087631Y-68084200D02*
X146085631Y-68082201D01*
X154003158Y-69907500D02*
X153983416Y-69907500D01*
X153983416Y-69907500D02*
X152160116Y-68084200D01*
X146085631Y-68082201D02*
X144636888Y-68082200D01*
X144636888Y-68082200D02*
X144634887Y-68080200D01*
X139981000Y-60714100D02*
X139979400Y-60712500D01*
X145590575Y-69284201D02*
X145588575Y-69282201D01*
X153506101Y-71107500D02*
X153486360Y-71107500D01*
%TO.N,LINE07*%
X143889303Y-69880200D02*
X141615619Y-69880200D01*
%TO.N,LINE08*%
X138730000Y-64597728D02*
X142812472Y-68680200D01*
%TO.N,GNDA*%
X144137831Y-69280200D02*
X142076600Y-69280200D01*
%TO.N,LINE07*%
X153237832Y-71707500D02*
X151414532Y-69884200D01*
%TO.N,LINE08*%
X151911588Y-68684200D02*
X153734888Y-70507500D01*
%TO.N,LINE07*%
X141615619Y-69880200D02*
X136190000Y-64454581D01*
%TO.N,LINE08*%
X153754629Y-70507500D02*
X154807130Y-71560000D01*
X145837103Y-68682201D02*
X145839103Y-68684201D01*
%TO.N,GNDA*%
X137441000Y-60736300D02*
X137464800Y-60712500D01*
X155055658Y-70960000D02*
X154003158Y-69907500D01*
X144634887Y-68080200D02*
X143467400Y-68080200D01*
X153486360Y-71107500D02*
X151663060Y-69284200D01*
%TO.N,LINE08*%
X144386359Y-68680200D02*
X144388360Y-68682201D01*
X196832800Y-71560000D02*
X197662800Y-72390000D01*
%TO.N,LINE07*%
X173039200Y-72760000D02*
X154310074Y-72760000D01*
%TO.N,LINE08*%
X142812472Y-68680200D02*
X144386359Y-68680200D01*
%TO.N,LINE07*%
X151414532Y-69884200D02*
X145342047Y-69884201D01*
%TO.N,GNDA*%
X154558602Y-72160000D02*
X153506101Y-71107500D01*
%TO.N,LINE07*%
X145340047Y-69882201D02*
X143891304Y-69882201D01*
X154310074Y-72760000D02*
X153257573Y-71707500D01*
%TO.N,LINE08*%
X144388360Y-68682201D02*
X145837103Y-68682201D01*
%TO.N,GNDA*%
X152160116Y-68084200D02*
X146087631Y-68084200D01*
%TO.N,LINE07*%
X176885600Y-76606400D02*
X173039200Y-72760000D01*
X145342047Y-69884201D02*
X145340047Y-69882201D01*
%TO.N,GNDA*%
X137441000Y-64644600D02*
X137441000Y-60736300D01*
X142076600Y-69280200D02*
X137441000Y-64644600D01*
%TO.N,LINE07*%
X136190000Y-64454581D02*
X136190000Y-63252500D01*
%TO.N,GNDA*%
X196313690Y-70960000D02*
X155055658Y-70960000D01*
X145135600Y-66878200D02*
X142544800Y-64287400D01*
X142544800Y-64287400D02*
X142544800Y-60712500D01*
X146586343Y-66880200D02*
X146584344Y-66878200D01*
X146584344Y-66878200D02*
X145135600Y-66878200D01*
X152678572Y-66880200D02*
X146586343Y-66880200D01*
X241609444Y-68705500D02*
X154503871Y-68705500D01*
X154503871Y-68705500D02*
X152678572Y-66880200D01*
X167500000Y-83100000D02*
X161757376Y-83100000D01*
X161757376Y-83100000D02*
X150339576Y-71682200D01*
X150339576Y-71682200D02*
X139792300Y-71682200D01*
X139792300Y-71682200D02*
X132361000Y-64250900D01*
X132361000Y-64250900D02*
X132361000Y-60841100D01*
X132361000Y-60841100D02*
X132232400Y-60712500D01*
%TO.N,LINE06*%
X159020000Y-76657200D02*
X156487647Y-76657200D01*
X156487647Y-76657200D02*
X150912648Y-71082200D01*
X141287800Y-71082200D02*
X133650000Y-63444400D01*
X150912648Y-71082200D02*
X141287800Y-71082200D01*
X133650000Y-63444400D02*
X133650000Y-63252500D01*
%TO.N,GNDA*%
X120950000Y-60712500D02*
X119661000Y-62001500D01*
X119661000Y-62001500D02*
X119661000Y-63770682D01*
X119661000Y-63770682D02*
X117391682Y-66040000D01*
X117391682Y-66040000D02*
X70306200Y-66040000D01*
X70306200Y-66040000D02*
X67500000Y-68846200D01*
X67500000Y-68846200D02*
X67500000Y-83100000D01*
%TO.N,Net-(C110-Pad2)*%
X221014800Y-76657200D02*
X221014800Y-84801200D01*
X232410000Y-83190000D02*
X232500000Y-83100000D01*
X221014800Y-84801200D02*
X221049600Y-84836000D01*
X221049600Y-84836000D02*
X231800400Y-84836000D01*
X231800400Y-84836000D02*
X232410000Y-84226400D01*
X232410000Y-84226400D02*
X232410000Y-83190000D01*
%TO.N,Net-(C105-Pad2)*%
X212500000Y-83100000D02*
X210764000Y-84836000D01*
X210764000Y-84836000D02*
X202895200Y-84836000D01*
X202895200Y-84836000D02*
X200999600Y-82940400D01*
X200999600Y-82940400D02*
X200999600Y-76657200D01*
%TO.N,Net-(C112-Pad2)*%
X260994400Y-76657200D02*
X260994400Y-82026000D01*
X260994400Y-82026000D02*
X263906000Y-84937600D01*
X263906000Y-84937600D02*
X270662400Y-84937600D01*
X270662400Y-84937600D02*
X272500000Y-83100000D01*
%TO.N,GNDA*%
X298077984Y-70938800D02*
X275897847Y-70938800D01*
%TO.N,AMP11*%
X275154344Y-71538800D02*
X274844102Y-71228558D01*
%TO.N,AMP09*%
X256871428Y-69738800D02*
X255907755Y-68775127D01*
%TO.N,AMP10*%
X256127925Y-70338800D02*
X255514252Y-69725127D01*
X303810000Y-63252500D02*
X299930000Y-67132500D01*
%TO.N,GNDA*%
X305061000Y-62001500D02*
X305061000Y-64900328D01*
%TO.N,AMP09*%
X297580928Y-69738800D02*
X276394903Y-69738800D01*
%TO.N,AMP11*%
X301245456Y-69564400D02*
X300300912Y-69564400D01*
%TO.N,AMP09*%
X301270000Y-63252500D02*
X299330000Y-65192500D01*
%TO.N,AMP10*%
X275486133Y-69678558D02*
X269615030Y-69678558D01*
%TO.N,AMP09*%
X276394903Y-69738800D02*
X275734661Y-69078558D01*
X299330000Y-65192500D02*
X299330000Y-67989728D01*
X275734661Y-69078558D02*
X269366502Y-69078558D01*
%TO.N,AMP10*%
X276146375Y-70338800D02*
X275486133Y-69678558D01*
%TO.N,GNDA*%
X305061000Y-64900328D02*
X300996928Y-68964400D01*
%TO.N,AMP11*%
X298326512Y-71538800D02*
X275154344Y-71538800D01*
X300300912Y-69564400D02*
X298326512Y-71538800D01*
%TO.N,AMP09*%
X269366502Y-69078558D02*
X268706260Y-69738800D01*
%TO.N,AMP11*%
X306350000Y-64459856D02*
X301245456Y-69564400D01*
X306350000Y-63252500D02*
X306350000Y-64459856D01*
%TO.N,AMP08*%
X268457732Y-69138800D02*
X257119956Y-69138800D01*
%TO.N,AMP10*%
X269615030Y-69678558D02*
X268954788Y-70338800D01*
%TO.N,GNDA*%
X275897847Y-70938800D02*
X275237605Y-70278558D01*
%TO.N,AMP10*%
X299930000Y-67132500D02*
X299930000Y-68238256D01*
%TO.N,GNDA*%
X300996928Y-68964400D02*
X300052384Y-68964400D01*
X300052384Y-68964400D02*
X298077984Y-70938800D01*
%TO.N,AMP09*%
X255907755Y-68775127D02*
X254074479Y-68775127D01*
%TO.N,AMP08*%
X298730000Y-63252500D02*
X298730000Y-67741200D01*
%TO.N,AMP09*%
X299330000Y-67989728D02*
X297580928Y-69738800D01*
%TO.N,GNDA*%
X275237605Y-70278558D02*
X270358533Y-70278558D01*
%TO.N,AMP09*%
X268706260Y-69738800D02*
X256871428Y-69738800D01*
%TO.N,AMP10*%
X299930000Y-68238256D02*
X297829456Y-70338800D01*
%TO.N,AMP09*%
X254074479Y-68775127D02*
X253133600Y-69716006D01*
%TO.N,GNDA*%
X270358533Y-70278558D02*
X269717491Y-70919600D01*
%TO.N,AMP08*%
X276643431Y-69138800D02*
X275983189Y-68478558D01*
%TO.N,GNDA*%
X306350000Y-60712500D02*
X305061000Y-62001500D01*
%TO.N,AMP10*%
X268954788Y-70338800D02*
X256127925Y-70338800D01*
X297829456Y-70338800D02*
X276146375Y-70338800D01*
%TO.N,AMP08*%
X298730000Y-67741200D02*
X297332400Y-69138800D01*
X297332400Y-69138800D02*
X276643431Y-69138800D01*
X252525273Y-68175127D02*
X251561600Y-69138800D01*
X275983189Y-68478558D02*
X269117974Y-68478558D01*
X269117974Y-68478558D02*
X268457732Y-69138800D01*
X257119956Y-69138800D02*
X256156283Y-68175127D01*
X256156283Y-68175127D02*
X252525273Y-68175127D01*
%TO.N,GNDA*%
X307639000Y-66604600D02*
X303428400Y-70815200D01*
X307639000Y-61963500D02*
X307639000Y-66604600D01*
%TO.N,AMP12*%
X308890000Y-63252500D02*
X308890000Y-66697104D01*
%TO.N,GNDA*%
X308890000Y-60712500D02*
X307639000Y-61963500D01*
%TO.N,AMP12*%
X308890000Y-66697104D02*
X304252552Y-71334552D01*
%TO.N,GNDA*%
X303428400Y-70815200D02*
X302158400Y-70815200D01*
X310141000Y-62001500D02*
X310141000Y-68827000D01*
X311430000Y-60712500D02*
X310141000Y-62001500D01*
X310141000Y-68827000D02*
X308229000Y-70739000D01*
X317093600Y-70866000D02*
X327500000Y-70866000D01*
X312681000Y-62001500D02*
X312681000Y-66453400D01*
X313970000Y-60712500D02*
X312681000Y-62001500D01*
X312681000Y-66453400D02*
X317093600Y-70866000D01*
X123490000Y-60712500D02*
X122239000Y-61963500D01*
X122239000Y-61963500D02*
X122239000Y-65517800D01*
X119659400Y-68097400D02*
X90195400Y-68097400D01*
X122239000Y-65517800D02*
X119659400Y-68097400D01*
X90195400Y-68097400D02*
X87500000Y-70792800D01*
X87500000Y-70792800D02*
X87500000Y-83100000D01*
X107500000Y-83100000D02*
X107500000Y-71697000D01*
X107500000Y-71697000D02*
X109753400Y-69443600D01*
X109753400Y-69443600D02*
X122212100Y-69443600D01*
X124779000Y-60749100D02*
X124815600Y-60712500D01*
X122212100Y-69443600D02*
X124779000Y-66876700D01*
X124779000Y-66876700D02*
X124779000Y-60749100D01*
%TO.N,LINE02*%
X89946200Y-71297800D02*
X92537000Y-68707000D01*
X92537000Y-68707000D02*
X120929400Y-68707000D01*
X120929400Y-68707000D02*
X123490000Y-66146400D01*
X123490000Y-66146400D02*
X123490000Y-63252500D01*
%TO.N,LINE01*%
X69946200Y-71297800D02*
X73934000Y-67310000D01*
X73934000Y-67310000D02*
X118618000Y-67310000D01*
X118618000Y-67310000D02*
X120950000Y-64978000D01*
X120950000Y-64978000D02*
X120950000Y-63252500D01*
%TO.N,LINE11*%
X153201756Y-65703500D02*
X153277956Y-65703500D01*
%TO.N,LINE15*%
X256310784Y-72460000D02*
X255101184Y-71250400D01*
%TO.N,LINE16*%
X245742828Y-64503500D02*
X160301000Y-64503500D01*
%TO.N,LINE10*%
X242297442Y-68103500D02*
X243179600Y-68985658D01*
%TO.N,LINE13*%
X254604128Y-72450400D02*
X250453600Y-72450400D01*
%TO.N,LINE10*%
X241899939Y-73787261D02*
X239030000Y-76657200D01*
X152927928Y-66278200D02*
X154754228Y-68104500D01*
%TO.N,LINE14*%
X256062256Y-73060000D02*
X254852656Y-71850400D01*
X296682528Y-73466400D02*
X296631728Y-73415600D01*
%TO.N,LINE13*%
X277267328Y-74066400D02*
X277175328Y-73974400D01*
%TO.N,LINE16*%
X297128784Y-72215600D02*
X277962112Y-72215600D01*
%TO.N,LINE13*%
X207872180Y-66304500D02*
X155576012Y-66304500D01*
%TO.N,LINE14*%
X254852656Y-71850400D02*
X250702128Y-71850400D01*
%TO.N,LINE13*%
X250453600Y-72450400D02*
X244306700Y-66303500D01*
%TO.N,LINE15*%
X335186800Y-72839600D02*
X296904256Y-72839600D01*
%TO.N,LINE13*%
X152655700Y-64478200D02*
X151430000Y-63252500D01*
%TO.N,LINE10*%
X146835700Y-66278200D02*
X152927928Y-66278200D01*
%TO.N,LINE11*%
X208369236Y-67504500D02*
X208370236Y-67503500D01*
%TO.N,LINE12*%
X208121708Y-66903500D02*
X242905684Y-66903500D01*
%TO.N,LINE13*%
X153775012Y-64503500D02*
X153698812Y-64503500D01*
%TO.N,LINE16*%
X255349712Y-70650400D02*
X251729697Y-70650400D01*
%TO.N,LINE15*%
X339004400Y-76657200D02*
X335186800Y-72839600D01*
X296880256Y-72815600D02*
X277713584Y-72815600D01*
%TO.N,LINE16*%
X160301000Y-64503500D02*
X159050000Y-63252500D01*
%TO.N,LINE15*%
X296904256Y-72839600D02*
X296880256Y-72815600D01*
X277672384Y-72774400D02*
X272779584Y-72774400D01*
%TO.N,LINE14*%
X277423856Y-73374400D02*
X272531056Y-73374400D01*
%TO.N,LINE11*%
X153277956Y-65703500D02*
X155078956Y-67504500D01*
X242655742Y-67503500D02*
X251809442Y-76657200D01*
X155078956Y-67504500D02*
X208369236Y-67504500D01*
%TO.N,LINE12*%
X153424984Y-65078200D02*
X153450284Y-65103500D01*
%TO.N,LINE10*%
X208617764Y-68104500D02*
X208618764Y-68103500D01*
%TO.N,LINE13*%
X244306700Y-66303500D02*
X207873180Y-66303500D01*
%TO.N,LINE15*%
X251481169Y-71250400D02*
X250011600Y-69780831D01*
%TO.N,LINE11*%
X153176456Y-65678200D02*
X153201756Y-65703500D01*
%TO.N,LINE15*%
X250011600Y-69623628D02*
X245491472Y-65103500D01*
%TO.N,LINE10*%
X208618764Y-68103500D02*
X242297442Y-68103500D01*
%TO.N,LINE14*%
X250702128Y-71850400D02*
X244555228Y-65703500D01*
%TO.N,LINE13*%
X299024800Y-76657200D02*
X296434000Y-74066400D01*
X255813728Y-73660000D02*
X254604128Y-72450400D01*
%TO.N,LINE15*%
X255101184Y-71250400D02*
X251481169Y-71250400D01*
%TO.N,LINE11*%
X208370236Y-67503500D02*
X242655742Y-67503500D01*
%TO.N,LINE10*%
X154754228Y-68104500D02*
X208617764Y-68104500D01*
%TO.N,LINE12*%
X242905684Y-66903500D02*
X249052584Y-73050400D01*
%TO.N,LINE11*%
X148775700Y-65678200D02*
X153176456Y-65678200D01*
%TO.N,LINE12*%
X155327484Y-66904500D02*
X208120708Y-66904500D01*
%TO.N,LINE13*%
X153673512Y-64478200D02*
X152655700Y-64478200D01*
%TO.N,LINE14*%
X244555228Y-65703500D02*
X156421000Y-65703500D01*
%TO.N,LINE10*%
X243179600Y-72082897D02*
X242818739Y-72443758D01*
%TO.N,LINE11*%
X251809442Y-76657200D02*
X258994400Y-76657200D01*
%TO.N,LINE13*%
X271968128Y-73660000D02*
X255813728Y-73660000D01*
%TO.N,LINE12*%
X150715700Y-65078200D02*
X153424984Y-65078200D01*
%TO.N,LINE14*%
X272531056Y-73374400D02*
X272216656Y-73060000D01*
%TO.N,LINE16*%
X348234000Y-76657200D02*
X343814400Y-72237600D01*
%TO.N,LINE10*%
X242818739Y-72443758D02*
X242818739Y-73230764D01*
%TO.N,LINE13*%
X272282528Y-73974400D02*
X271968128Y-73660000D01*
%TO.N,LINE10*%
X242818739Y-73230764D02*
X242262242Y-73787261D01*
%TO.N,LINE12*%
X249052584Y-73050400D02*
X254355600Y-73050400D01*
%TO.N,LINE15*%
X277713584Y-72815600D02*
X277672384Y-72774400D01*
%TO.N,LINE14*%
X272216656Y-73060000D02*
X256062256Y-73060000D01*
%TO.N,LINE15*%
X250011600Y-69780831D02*
X250011600Y-69623628D01*
%TO.N,LINE11*%
X146350000Y-63252500D02*
X148775700Y-65678200D01*
%TO.N,LINE12*%
X276926800Y-74574400D02*
X279009600Y-76657200D01*
%TO.N,LINE10*%
X143810000Y-63252500D02*
X146835700Y-66278200D01*
%TO.N,LINE14*%
X296631728Y-73415600D02*
X277465056Y-73415600D01*
X156421000Y-65703500D02*
X153970000Y-63252500D01*
%TO.N,GNDA*%
X241609444Y-68705500D02*
X241609444Y-72136000D01*
%TO.N,LINE16*%
X277920912Y-72174400D02*
X273028112Y-72174400D01*
%TO.N,LINE12*%
X255879600Y-74574400D02*
X276926800Y-74574400D01*
%TO.N,LINE10*%
X242262242Y-73787261D02*
X241899939Y-73787261D01*
%TO.N,LINE12*%
X254355600Y-73050400D02*
X255879600Y-74574400D01*
%TO.N,LINE13*%
X277175328Y-73974400D02*
X272282528Y-73974400D01*
%TO.N,LINE12*%
X148890000Y-63252500D02*
X150715700Y-65078200D01*
%TO.N,LINE13*%
X296434000Y-74066400D02*
X277267328Y-74066400D01*
%TO.N,LINE15*%
X272779584Y-72774400D02*
X272465184Y-72460000D01*
%TO.N,LINE14*%
X277465056Y-73415600D02*
X277423856Y-73374400D01*
%TO.N,LINE10*%
X243179600Y-68985658D02*
X243179600Y-72082897D01*
%TO.N,LINE12*%
X208120708Y-66904500D02*
X208121708Y-66903500D01*
%TO.N,LINE13*%
X155576012Y-66304500D02*
X153775012Y-64503500D01*
%TO.N,LINE16*%
X256559312Y-71860000D02*
X255349712Y-70650400D01*
%TO.N,LINE15*%
X272465184Y-72460000D02*
X256310784Y-72460000D01*
%TO.N,LINE13*%
X207873180Y-66303500D02*
X207872180Y-66304500D01*
%TO.N,LINE14*%
X315798400Y-73466400D02*
X296682528Y-73466400D01*
%TO.N,LINE15*%
X158361000Y-65103500D02*
X156510000Y-63252500D01*
X245491472Y-65103500D02*
X158361000Y-65103500D01*
%TO.N,LINE12*%
X153450284Y-65103500D02*
X153526484Y-65103500D01*
%TO.N,LINE14*%
X318989200Y-76657200D02*
X315798400Y-73466400D01*
%TO.N,LINE13*%
X153698812Y-64503500D02*
X153673512Y-64478200D01*
%TO.N,LINE16*%
X251729697Y-70650400D02*
X250611600Y-69532303D01*
%TO.N,LINE12*%
X153526484Y-65103500D02*
X155327484Y-66904500D01*
%TO.N,LINE16*%
X359019600Y-76657200D02*
X348234000Y-76657200D01*
X343814400Y-72237600D02*
X297150784Y-72237600D01*
X297150784Y-72237600D02*
X297128784Y-72215600D01*
X277962112Y-72215600D02*
X277920912Y-72174400D01*
X273028112Y-72174400D02*
X272713712Y-71860000D01*
X272713712Y-71860000D02*
X256559312Y-71860000D01*
X250611600Y-69532303D02*
X250611600Y-69372272D01*
X250611600Y-69372272D02*
X245742828Y-64503500D01*
%TO.N,GNDA*%
X134901000Y-60837900D02*
X135026400Y-60712500D01*
%TO.N,Net-(C107-Pad2)*%
X161020000Y-76657200D02*
X170281600Y-76657200D01*
X170281600Y-76657200D02*
X170332400Y-76606400D01*
X170332400Y-76606400D02*
X172500000Y-78774000D01*
X172500000Y-78774000D02*
X172500000Y-83100000D01*
%TO.N,GNDA*%
X207500000Y-83100000D02*
X207500000Y-77350400D01*
X207500000Y-77350400D02*
X204206400Y-74056800D01*
X204206400Y-74056800D02*
X176301288Y-74056800D01*
X176301288Y-74056800D02*
X187442400Y-74056800D01*
X187442400Y-74056800D02*
X187500000Y-74114400D01*
X187500000Y-74114400D02*
X187500000Y-83100000D01*
%TO.N,Net-(C106-Pad2)*%
X141030200Y-76606400D02*
X141030200Y-79359000D01*
X141030200Y-79359000D02*
X142849600Y-81178400D01*
X142849600Y-81178400D02*
X151536400Y-81178400D01*
X152500000Y-82142000D02*
X152500000Y-83100000D01*
X151536400Y-81178400D02*
X152500000Y-82142000D01*
%TO.N,GNDA*%
X138477672Y-77807400D02*
X129821000Y-69150728D01*
X138477672Y-77822472D02*
X138477672Y-77807400D01*
X143755200Y-83100000D02*
X138477672Y-77822472D01*
X129821000Y-69150728D02*
X129821000Y-60812500D01*
X147500000Y-83100000D02*
X143755200Y-83100000D01*
X129821000Y-60812500D02*
X129921000Y-60712500D01*
%TO.N,LINE05*%
X131110000Y-68686200D02*
X139030200Y-76606400D01*
X131110000Y-63252500D02*
X131110000Y-68686200D01*
X131110000Y-64117200D02*
X131110000Y-63252500D01*
X131090827Y-64117200D02*
X131110000Y-64117200D01*
X131069229Y-64095602D02*
X131090827Y-64117200D01*
%TO.N,Net-(C108-Pad2)*%
X192500000Y-83100000D02*
X190306800Y-85293200D01*
X182829200Y-85293200D02*
X180984400Y-83448400D01*
X190306800Y-85293200D02*
X182829200Y-85293200D01*
X180984400Y-83448400D02*
X180984400Y-76606400D01*
%TO.N,Net-(C111-Pad2)*%
X252500000Y-83100000D02*
X252500000Y-84761200D01*
X250952000Y-86309200D02*
X241909600Y-86309200D01*
X252500000Y-84761200D02*
X250952000Y-86309200D01*
X241909600Y-86309200D02*
X241030000Y-85429600D01*
X241030000Y-85429600D02*
X241030000Y-76657200D01*
%TO.N,Net-(C109-Pad2)*%
X292500000Y-83100000D02*
X291170400Y-84429600D01*
X291170400Y-84429600D02*
X282143200Y-84429600D01*
X282143200Y-84429600D02*
X281009600Y-83296000D01*
X281009600Y-83296000D02*
X281009600Y-76657200D01*
%TO.N,AMP13*%
X311251600Y-70764400D02*
X311430000Y-70586000D01*
X311430000Y-70586000D02*
X311430000Y-63252500D01*
%TO.N,Net-(C113-Pad2)*%
X312500000Y-83100000D02*
X309087600Y-86512400D01*
X309087600Y-86512400D02*
X304241200Y-86512400D01*
X304241200Y-86512400D02*
X301024800Y-83296000D01*
X301024800Y-83296000D02*
X301024800Y-76657200D01*
%TO.N,Net-(C114-Pad2)*%
X332500000Y-83100000D02*
X332500000Y-84466400D01*
X332500000Y-84466400D02*
X330301600Y-86664800D01*
X330301600Y-86664800D02*
X324205600Y-86664800D01*
X324205600Y-86664800D02*
X323951600Y-86918800D01*
X323951600Y-86918800D02*
X320989200Y-83956400D01*
X320989200Y-83956400D02*
X320989200Y-76657200D01*
%TO.N,AMP15*%
X316510000Y-63252500D02*
X316510000Y-63914500D01*
%TO.N,Net-(C115-Pad2)*%
X352500000Y-83100000D02*
X350662400Y-84937600D01*
X350662400Y-84937600D02*
X345033600Y-84937600D01*
X341004400Y-80908400D02*
X341004400Y-76657200D01*
X345033600Y-84937600D02*
X341004400Y-80908400D01*
%TO.N,GNDA*%
X142544800Y-60712500D02*
X159050000Y-60712500D01*
X135026400Y-60712500D02*
X137464800Y-60712500D01*
X139979400Y-60712500D02*
X142544800Y-60712500D01*
X137464800Y-60712500D02*
X139979400Y-60712500D01*
X129921000Y-60712500D02*
X132232400Y-60712500D01*
X132232400Y-60712500D02*
X135026400Y-60712500D01*
X124815600Y-60712500D02*
X127228600Y-60712500D01*
X127500000Y-83100000D02*
X127319000Y-82919000D01*
X127319000Y-60802900D02*
X127228600Y-60712500D01*
X127319000Y-82919000D02*
X127319000Y-60802900D01*
%TO.N,LINE03*%
X126030000Y-67289400D02*
X126030000Y-63252500D01*
X109946200Y-71297800D02*
X122021600Y-71297800D01*
X122021600Y-71297800D02*
X126030000Y-67289400D01*
%TO.N,GNDA*%
X120950000Y-60712500D02*
X124815600Y-60712500D01*
X127228600Y-60712500D02*
X129921000Y-60712500D01*
%TO.N,Net-(C104-Pad2)*%
X109946200Y-73297800D02*
X109946200Y-80546200D01*
X109946200Y-80546200D02*
X112500000Y-83100000D01*
%TO.N,Net-(C103-Pad2)*%
X89946200Y-73297800D02*
X89946200Y-80546200D01*
X89946200Y-80546200D02*
X92500000Y-83100000D01*
%TO.N,Net-(C102-Pad2)*%
X69946200Y-73297800D02*
X69946200Y-80546200D01*
X69946200Y-80546200D02*
X72500000Y-83100000D01*
%TO.N,LINE04*%
X129946200Y-71297800D02*
X128651000Y-70002600D01*
X128651000Y-70002600D02*
X128651000Y-63333500D01*
X128651000Y-63333500D02*
X128570000Y-63252500D01*
%TO.N,Net-(C101-Pad2)*%
X129946200Y-73297800D02*
X129971800Y-73323400D01*
X129971800Y-73323400D02*
X129971800Y-80571800D01*
X129971800Y-80571800D02*
X132500000Y-83100000D01*
%TO.N,LINE04*%
X128498600Y-63323900D02*
X128570000Y-63252500D01*
%TO.N,Net-(C101-Pad2)*%
X132500000Y-83100000D02*
X132384800Y-82984800D01*
%TO.N,VEE*%
X164130000Y-63252500D02*
X164130000Y-60712500D01*
X164130000Y-63252500D02*
X161590000Y-63252500D01*
X164130000Y-60712500D02*
X161590000Y-60712500D01*
X161590000Y-63252500D02*
X161590000Y-60712500D01*
%TO.N,VCC*%
X118410000Y-60712500D02*
X115870000Y-60712500D01*
X115870000Y-63252500D02*
X118410000Y-63252500D01*
X118410000Y-60712500D02*
X118410000Y-63252500D01*
X115870000Y-63252500D02*
X115870000Y-60712500D01*
%TD*%
%TA.AperFunction,Conductor*%
%TO.N,GNDREF*%
G36*
X66742539Y-75711685D02*
G01*
X66788294Y-75764489D01*
X66799500Y-75816000D01*
X66799500Y-77454155D01*
X66779815Y-77521194D01*
X66727011Y-77566949D01*
X66657853Y-77576893D01*
X66629186Y-77567658D01*
X66628695Y-77568888D01*
X66622860Y-77566557D01*
X66427328Y-77510609D01*
X66427325Y-77510608D01*
X66308000Y-77500000D01*
X65500000Y-77500000D01*
X65500000Y-78450000D01*
X65000000Y-78450000D01*
X65000000Y-77500000D01*
X64191999Y-77500000D01*
X64072674Y-77510608D01*
X64072671Y-77510609D01*
X63877138Y-77566557D01*
X63696870Y-77660721D01*
X63539246Y-77789246D01*
X63410721Y-77946870D01*
X63316557Y-78127138D01*
X63260609Y-78322671D01*
X63260608Y-78322674D01*
X63250000Y-78441999D01*
X63250000Y-78750000D01*
X64409252Y-78750000D01*
X64387482Y-78787708D01*
X64350000Y-78927591D01*
X64350000Y-79072409D01*
X64387482Y-79212292D01*
X64409252Y-79250000D01*
X63250000Y-79250000D01*
X63250000Y-79558000D01*
X63260608Y-79677325D01*
X63260609Y-79677328D01*
X63316557Y-79872861D01*
X63410721Y-80053129D01*
X63539246Y-80210753D01*
X63696870Y-80339278D01*
X63877138Y-80433442D01*
X64072671Y-80489390D01*
X64072674Y-80489391D01*
X64191999Y-80499999D01*
X64192002Y-80500000D01*
X65000000Y-80500000D01*
X65000000Y-79550000D01*
X65500000Y-79550000D01*
X65500000Y-80500000D01*
X66307998Y-80500000D01*
X66308000Y-80499999D01*
X66427325Y-80489391D01*
X66427328Y-80489390D01*
X66622867Y-80433440D01*
X66628700Y-80431111D01*
X66629712Y-80433644D01*
X66686546Y-80422337D01*
X66751566Y-80447915D01*
X66792435Y-80504585D01*
X66799500Y-80545844D01*
X66799500Y-81575500D01*
X66779815Y-81642539D01*
X66727011Y-81688294D01*
X66675501Y-81699500D01*
X66552130Y-81699500D01*
X66552123Y-81699501D01*
X66492516Y-81705908D01*
X66357671Y-81756202D01*
X66357664Y-81756206D01*
X66242455Y-81842452D01*
X66242452Y-81842455D01*
X66156206Y-81957664D01*
X66156202Y-81957671D01*
X66105908Y-82092517D01*
X66099501Y-82152116D01*
X66099500Y-82152135D01*
X66099500Y-84047870D01*
X66099501Y-84047876D01*
X66105908Y-84107483D01*
X66156202Y-84242328D01*
X66156206Y-84242335D01*
X66242452Y-84357544D01*
X66242455Y-84357547D01*
X66357664Y-84443793D01*
X66357671Y-84443797D01*
X66492517Y-84494091D01*
X66492516Y-84494091D01*
X66499444Y-84494835D01*
X66552127Y-84500500D01*
X68447872Y-84500499D01*
X68507483Y-84494091D01*
X68642331Y-84443796D01*
X68757546Y-84357546D01*
X68843796Y-84242331D01*
X68853089Y-84217415D01*
X68862735Y-84191554D01*
X68904606Y-84135620D01*
X68970070Y-84111202D01*
X69038343Y-84126053D01*
X69066598Y-84147205D01*
X69087636Y-84168243D01*
X69087641Y-84168247D01*
X69119721Y-84191554D01*
X69265978Y-84297815D01*
X69392271Y-84362165D01*
X69462393Y-84397895D01*
X69462396Y-84397896D01*
X69563445Y-84430728D01*
X69672049Y-84466015D01*
X69889778Y-84500500D01*
X69889779Y-84500500D01*
X70110221Y-84500500D01*
X70110222Y-84500500D01*
X70327951Y-84466015D01*
X70537606Y-84397895D01*
X70734022Y-84297815D01*
X70912365Y-84168242D01*
X71068242Y-84012365D01*
X71149682Y-83900270D01*
X71205011Y-83857606D01*
X71274624Y-83851627D01*
X71336420Y-83884232D01*
X71350313Y-83900265D01*
X71431130Y-84011500D01*
X71431758Y-84012365D01*
X71587636Y-84168243D01*
X71587641Y-84168247D01*
X71619721Y-84191554D01*
X71765978Y-84297815D01*
X71892271Y-84362165D01*
X71962393Y-84397895D01*
X71962396Y-84397896D01*
X72063445Y-84430728D01*
X72172049Y-84466015D01*
X72389778Y-84500500D01*
X72389779Y-84500500D01*
X72610221Y-84500500D01*
X72610222Y-84500500D01*
X72827951Y-84466015D01*
X73037606Y-84397895D01*
X73234022Y-84297815D01*
X73412365Y-84168242D01*
X73568242Y-84012365D01*
X73697815Y-83834022D01*
X73797895Y-83637606D01*
X73866015Y-83427951D01*
X73900500Y-83210222D01*
X73900500Y-82989778D01*
X73866015Y-82772049D01*
X73797895Y-82562394D01*
X73797895Y-82562393D01*
X73752113Y-82472543D01*
X73697815Y-82365978D01*
X73649681Y-82299727D01*
X73568247Y-82187641D01*
X73568243Y-82187636D01*
X73412363Y-82031756D01*
X73412358Y-82031752D01*
X73234025Y-81902187D01*
X73234024Y-81902186D01*
X73234022Y-81902185D01*
X73150516Y-81859636D01*
X73037606Y-81802104D01*
X73037603Y-81802103D01*
X72827952Y-81733985D01*
X72681813Y-81710839D01*
X72610222Y-81699500D01*
X72389778Y-81699500D01*
X72318187Y-81710839D01*
X72193527Y-81730583D01*
X72124233Y-81721628D01*
X72086448Y-81695791D01*
X70683019Y-80292362D01*
X70649534Y-80231039D01*
X70646700Y-80204681D01*
X70646700Y-78441999D01*
X72750000Y-78441999D01*
X72750000Y-78750000D01*
X73909252Y-78750000D01*
X73887482Y-78787708D01*
X73850000Y-78927591D01*
X73850000Y-79072409D01*
X73887482Y-79212292D01*
X73909252Y-79250000D01*
X72750000Y-79250000D01*
X72750000Y-79558000D01*
X72760608Y-79677325D01*
X72760609Y-79677328D01*
X72816557Y-79872861D01*
X72910721Y-80053129D01*
X73039246Y-80210753D01*
X73196870Y-80339278D01*
X73377138Y-80433442D01*
X73572671Y-80489390D01*
X73572674Y-80489391D01*
X73691999Y-80499999D01*
X73692002Y-80500000D01*
X74500000Y-80500000D01*
X74500000Y-79550000D01*
X75000000Y-79550000D01*
X75000000Y-80500000D01*
X75807998Y-80500000D01*
X75808000Y-80499999D01*
X75927325Y-80489391D01*
X75927328Y-80489390D01*
X76122861Y-80433442D01*
X76303129Y-80339278D01*
X76460753Y-80210753D01*
X76589278Y-80053129D01*
X76683442Y-79872861D01*
X76739390Y-79677328D01*
X76739391Y-79677325D01*
X76749999Y-79558000D01*
X76750000Y-79557998D01*
X76750000Y-79250000D01*
X75590748Y-79250000D01*
X75612518Y-79212292D01*
X75650000Y-79072409D01*
X75650000Y-78927591D01*
X75612518Y-78787708D01*
X75590748Y-78750000D01*
X76750000Y-78750000D01*
X76750000Y-78442002D01*
X76749999Y-78441999D01*
X76739391Y-78322674D01*
X76739390Y-78322671D01*
X76683442Y-78127138D01*
X76589278Y-77946870D01*
X76460753Y-77789246D01*
X76303129Y-77660721D01*
X76122861Y-77566557D01*
X75927328Y-77510609D01*
X75927325Y-77510608D01*
X75808000Y-77500000D01*
X75000000Y-77500000D01*
X75000000Y-78450000D01*
X74500000Y-78450000D01*
X74500000Y-77500000D01*
X73691999Y-77500000D01*
X73572674Y-77510608D01*
X73572671Y-77510609D01*
X73377138Y-77566557D01*
X73196870Y-77660721D01*
X73039246Y-77789246D01*
X72910721Y-77946870D01*
X72816557Y-78127138D01*
X72760609Y-78322671D01*
X72760608Y-78322674D01*
X72750000Y-78441999D01*
X70646700Y-78441999D01*
X70646700Y-75816000D01*
X70666385Y-75748961D01*
X70719189Y-75703206D01*
X70770700Y-75692000D01*
X86675500Y-75692000D01*
X86742539Y-75711685D01*
X86788294Y-75764489D01*
X86799500Y-75816000D01*
X86799500Y-77454155D01*
X86779815Y-77521194D01*
X86727011Y-77566949D01*
X86657853Y-77576893D01*
X86629186Y-77567658D01*
X86628695Y-77568888D01*
X86622860Y-77566557D01*
X86427328Y-77510609D01*
X86427325Y-77510608D01*
X86308000Y-77500000D01*
X85500000Y-77500000D01*
X85500000Y-78450000D01*
X85000000Y-78450000D01*
X85000000Y-77500000D01*
X84191999Y-77500000D01*
X84072674Y-77510608D01*
X84072671Y-77510609D01*
X83877138Y-77566557D01*
X83696870Y-77660721D01*
X83539246Y-77789246D01*
X83410721Y-77946870D01*
X83316557Y-78127138D01*
X83260609Y-78322671D01*
X83260608Y-78322674D01*
X83250000Y-78441999D01*
X83250000Y-78750000D01*
X84409252Y-78750000D01*
X84387482Y-78787708D01*
X84350000Y-78927591D01*
X84350000Y-79072409D01*
X84387482Y-79212292D01*
X84409252Y-79250000D01*
X83250000Y-79250000D01*
X83250000Y-79558000D01*
X83260608Y-79677325D01*
X83260609Y-79677328D01*
X83316557Y-79872861D01*
X83410721Y-80053129D01*
X83539246Y-80210753D01*
X83696870Y-80339278D01*
X83877138Y-80433442D01*
X84072671Y-80489390D01*
X84072674Y-80489391D01*
X84191999Y-80499999D01*
X84192002Y-80500000D01*
X85000000Y-80500000D01*
X85000000Y-79550000D01*
X85500000Y-79550000D01*
X85500000Y-80500000D01*
X86307998Y-80500000D01*
X86308000Y-80499999D01*
X86427325Y-80489391D01*
X86427328Y-80489390D01*
X86622867Y-80433440D01*
X86628700Y-80431111D01*
X86629712Y-80433644D01*
X86686546Y-80422337D01*
X86751566Y-80447915D01*
X86792435Y-80504585D01*
X86799500Y-80545844D01*
X86799500Y-81575500D01*
X86779815Y-81642539D01*
X86727011Y-81688294D01*
X86675501Y-81699500D01*
X86552130Y-81699500D01*
X86552123Y-81699501D01*
X86492516Y-81705908D01*
X86357671Y-81756202D01*
X86357664Y-81756206D01*
X86242455Y-81842452D01*
X86242452Y-81842455D01*
X86156206Y-81957664D01*
X86156202Y-81957671D01*
X86105908Y-82092517D01*
X86099501Y-82152116D01*
X86099500Y-82152135D01*
X86099500Y-84047870D01*
X86099501Y-84047876D01*
X86105908Y-84107483D01*
X86156202Y-84242328D01*
X86156206Y-84242335D01*
X86242452Y-84357544D01*
X86242455Y-84357547D01*
X86357664Y-84443793D01*
X86357671Y-84443797D01*
X86492517Y-84494091D01*
X86492516Y-84494091D01*
X86499444Y-84494835D01*
X86552127Y-84500500D01*
X88447872Y-84500499D01*
X88507483Y-84494091D01*
X88642331Y-84443796D01*
X88757546Y-84357546D01*
X88843796Y-84242331D01*
X88853089Y-84217415D01*
X88862735Y-84191554D01*
X88904606Y-84135620D01*
X88970070Y-84111202D01*
X89038343Y-84126053D01*
X89066598Y-84147205D01*
X89087636Y-84168243D01*
X89087641Y-84168247D01*
X89119721Y-84191554D01*
X89265978Y-84297815D01*
X89392271Y-84362165D01*
X89462393Y-84397895D01*
X89462396Y-84397896D01*
X89563445Y-84430728D01*
X89672049Y-84466015D01*
X89889778Y-84500500D01*
X89889779Y-84500500D01*
X90110221Y-84500500D01*
X90110222Y-84500500D01*
X90327951Y-84466015D01*
X90537606Y-84397895D01*
X90734022Y-84297815D01*
X90912365Y-84168242D01*
X91068242Y-84012365D01*
X91149682Y-83900270D01*
X91205011Y-83857606D01*
X91274624Y-83851627D01*
X91336420Y-83884232D01*
X91350313Y-83900265D01*
X91431130Y-84011500D01*
X91431758Y-84012365D01*
X91587636Y-84168243D01*
X91587641Y-84168247D01*
X91619721Y-84191554D01*
X91765978Y-84297815D01*
X91892271Y-84362165D01*
X91962393Y-84397895D01*
X91962396Y-84397896D01*
X92063445Y-84430728D01*
X92172049Y-84466015D01*
X92389778Y-84500500D01*
X92389779Y-84500500D01*
X92610221Y-84500500D01*
X92610222Y-84500500D01*
X92827951Y-84466015D01*
X93037606Y-84397895D01*
X93234022Y-84297815D01*
X93412365Y-84168242D01*
X93568242Y-84012365D01*
X93697815Y-83834022D01*
X93797895Y-83637606D01*
X93866015Y-83427951D01*
X93900500Y-83210222D01*
X93900500Y-82989778D01*
X93866015Y-82772049D01*
X93797895Y-82562394D01*
X93797895Y-82562393D01*
X93752113Y-82472543D01*
X93697815Y-82365978D01*
X93649681Y-82299727D01*
X93568247Y-82187641D01*
X93568243Y-82187636D01*
X93412363Y-82031756D01*
X93412358Y-82031752D01*
X93234025Y-81902187D01*
X93234024Y-81902186D01*
X93234022Y-81902185D01*
X93150516Y-81859636D01*
X93037606Y-81802104D01*
X93037603Y-81802103D01*
X92827952Y-81733985D01*
X92681813Y-81710839D01*
X92610222Y-81699500D01*
X92389778Y-81699500D01*
X92318187Y-81710839D01*
X92193527Y-81730583D01*
X92124233Y-81721628D01*
X92086448Y-81695791D01*
X90683019Y-80292362D01*
X90649534Y-80231039D01*
X90646700Y-80204681D01*
X90646700Y-78441999D01*
X92750000Y-78441999D01*
X92750000Y-78750000D01*
X93909252Y-78750000D01*
X93887482Y-78787708D01*
X93850000Y-78927591D01*
X93850000Y-79072409D01*
X93887482Y-79212292D01*
X93909252Y-79250000D01*
X92750000Y-79250000D01*
X92750000Y-79558000D01*
X92760608Y-79677325D01*
X92760609Y-79677328D01*
X92816557Y-79872861D01*
X92910721Y-80053129D01*
X93039246Y-80210753D01*
X93196870Y-80339278D01*
X93377138Y-80433442D01*
X93572671Y-80489390D01*
X93572674Y-80489391D01*
X93691999Y-80499999D01*
X93692002Y-80500000D01*
X94500000Y-80500000D01*
X94500000Y-79550000D01*
X95000000Y-79550000D01*
X95000000Y-80500000D01*
X95807998Y-80500000D01*
X95808000Y-80499999D01*
X95927325Y-80489391D01*
X95927328Y-80489390D01*
X96122861Y-80433442D01*
X96303129Y-80339278D01*
X96460753Y-80210753D01*
X96589278Y-80053129D01*
X96683442Y-79872861D01*
X96739390Y-79677328D01*
X96739391Y-79677325D01*
X96749999Y-79558000D01*
X96750000Y-79557998D01*
X96750000Y-79250000D01*
X95590748Y-79250000D01*
X95612518Y-79212292D01*
X95650000Y-79072409D01*
X95650000Y-78927591D01*
X95612518Y-78787708D01*
X95590748Y-78750000D01*
X96750000Y-78750000D01*
X96750000Y-78442002D01*
X96749999Y-78441999D01*
X96739391Y-78322674D01*
X96739390Y-78322671D01*
X96683442Y-78127138D01*
X96589278Y-77946870D01*
X96460753Y-77789246D01*
X96303129Y-77660721D01*
X96122861Y-77566557D01*
X95927328Y-77510609D01*
X95927325Y-77510608D01*
X95808000Y-77500000D01*
X95000000Y-77500000D01*
X95000000Y-78450000D01*
X94500000Y-78450000D01*
X94500000Y-77500000D01*
X93691999Y-77500000D01*
X93572674Y-77510608D01*
X93572671Y-77510609D01*
X93377138Y-77566557D01*
X93196870Y-77660721D01*
X93039246Y-77789246D01*
X92910721Y-77946870D01*
X92816557Y-78127138D01*
X92760609Y-78322671D01*
X92760608Y-78322674D01*
X92750000Y-78441999D01*
X90646700Y-78441999D01*
X90646700Y-75816000D01*
X90666385Y-75748961D01*
X90719189Y-75703206D01*
X90770700Y-75692000D01*
X106675500Y-75692000D01*
X106742539Y-75711685D01*
X106788294Y-75764489D01*
X106799500Y-75816000D01*
X106799500Y-77454155D01*
X106779815Y-77521194D01*
X106727011Y-77566949D01*
X106657853Y-77576893D01*
X106629186Y-77567658D01*
X106628695Y-77568888D01*
X106622860Y-77566557D01*
X106427328Y-77510609D01*
X106427325Y-77510608D01*
X106308000Y-77500000D01*
X105500000Y-77500000D01*
X105500000Y-78450000D01*
X105000000Y-78450000D01*
X105000000Y-77500000D01*
X104191999Y-77500000D01*
X104072674Y-77510608D01*
X104072671Y-77510609D01*
X103877138Y-77566557D01*
X103696870Y-77660721D01*
X103539246Y-77789246D01*
X103410721Y-77946870D01*
X103316557Y-78127138D01*
X103260609Y-78322671D01*
X103260608Y-78322674D01*
X103250000Y-78441999D01*
X103250000Y-78750000D01*
X104409252Y-78750000D01*
X104387482Y-78787708D01*
X104350000Y-78927591D01*
X104350000Y-79072409D01*
X104387482Y-79212292D01*
X104409252Y-79250000D01*
X103250000Y-79250000D01*
X103250000Y-79558000D01*
X103260608Y-79677325D01*
X103260609Y-79677328D01*
X103316557Y-79872861D01*
X103410721Y-80053129D01*
X103539246Y-80210753D01*
X103696870Y-80339278D01*
X103877138Y-80433442D01*
X104072671Y-80489390D01*
X104072674Y-80489391D01*
X104191999Y-80499999D01*
X104192002Y-80500000D01*
X105000000Y-80500000D01*
X105000000Y-79550000D01*
X105500000Y-79550000D01*
X105500000Y-80500000D01*
X106307998Y-80500000D01*
X106308000Y-80499999D01*
X106427325Y-80489391D01*
X106427328Y-80489390D01*
X106622867Y-80433440D01*
X106628700Y-80431111D01*
X106629712Y-80433644D01*
X106686546Y-80422337D01*
X106751566Y-80447915D01*
X106792435Y-80504585D01*
X106799500Y-80545844D01*
X106799500Y-81575500D01*
X106779815Y-81642539D01*
X106727011Y-81688294D01*
X106675501Y-81699500D01*
X106552130Y-81699500D01*
X106552123Y-81699501D01*
X106492516Y-81705908D01*
X106357671Y-81756202D01*
X106357664Y-81756206D01*
X106242455Y-81842452D01*
X106242452Y-81842455D01*
X106156206Y-81957664D01*
X106156202Y-81957671D01*
X106105908Y-82092517D01*
X106099501Y-82152116D01*
X106099500Y-82152135D01*
X106099500Y-84047870D01*
X106099501Y-84047876D01*
X106105908Y-84107483D01*
X106156202Y-84242328D01*
X106156206Y-84242335D01*
X106242452Y-84357544D01*
X106242455Y-84357547D01*
X106357664Y-84443793D01*
X106357671Y-84443797D01*
X106492517Y-84494091D01*
X106492516Y-84494091D01*
X106499444Y-84494835D01*
X106552127Y-84500500D01*
X108447872Y-84500499D01*
X108507483Y-84494091D01*
X108642331Y-84443796D01*
X108757546Y-84357546D01*
X108843796Y-84242331D01*
X108853089Y-84217415D01*
X108862735Y-84191554D01*
X108904606Y-84135620D01*
X108970070Y-84111202D01*
X109038343Y-84126053D01*
X109066598Y-84147205D01*
X109087636Y-84168243D01*
X109087641Y-84168247D01*
X109119721Y-84191554D01*
X109265978Y-84297815D01*
X109392271Y-84362165D01*
X109462393Y-84397895D01*
X109462396Y-84397896D01*
X109563445Y-84430728D01*
X109672049Y-84466015D01*
X109889778Y-84500500D01*
X109889779Y-84500500D01*
X110110221Y-84500500D01*
X110110222Y-84500500D01*
X110327951Y-84466015D01*
X110537606Y-84397895D01*
X110734022Y-84297815D01*
X110912365Y-84168242D01*
X111068242Y-84012365D01*
X111149682Y-83900270D01*
X111205011Y-83857606D01*
X111274624Y-83851627D01*
X111336420Y-83884232D01*
X111350313Y-83900265D01*
X111431130Y-84011500D01*
X111431758Y-84012365D01*
X111587636Y-84168243D01*
X111587641Y-84168247D01*
X111619721Y-84191554D01*
X111765978Y-84297815D01*
X111892271Y-84362165D01*
X111962393Y-84397895D01*
X111962396Y-84397896D01*
X112063445Y-84430728D01*
X112172049Y-84466015D01*
X112389778Y-84500500D01*
X112389779Y-84500500D01*
X112610221Y-84500500D01*
X112610222Y-84500500D01*
X112827951Y-84466015D01*
X113037606Y-84397895D01*
X113234022Y-84297815D01*
X113412365Y-84168242D01*
X113568242Y-84012365D01*
X113697815Y-83834022D01*
X113797895Y-83637606D01*
X113866015Y-83427951D01*
X113900500Y-83210222D01*
X113900500Y-82989778D01*
X113866015Y-82772049D01*
X113797895Y-82562394D01*
X113797895Y-82562393D01*
X113752113Y-82472543D01*
X113697815Y-82365978D01*
X113649681Y-82299727D01*
X113568247Y-82187641D01*
X113568243Y-82187636D01*
X113412363Y-82031756D01*
X113412358Y-82031752D01*
X113234025Y-81902187D01*
X113234024Y-81902186D01*
X113234022Y-81902185D01*
X113150516Y-81859636D01*
X113037606Y-81802104D01*
X113037603Y-81802103D01*
X112827952Y-81733985D01*
X112681813Y-81710839D01*
X112610222Y-81699500D01*
X112389778Y-81699500D01*
X112318187Y-81710839D01*
X112193527Y-81730583D01*
X112124233Y-81721628D01*
X112086448Y-81695791D01*
X110683019Y-80292362D01*
X110649534Y-80231039D01*
X110646700Y-80204681D01*
X110646700Y-78441999D01*
X112750000Y-78441999D01*
X112750000Y-78750000D01*
X113909252Y-78750000D01*
X113887482Y-78787708D01*
X113850000Y-78927591D01*
X113850000Y-79072409D01*
X113887482Y-79212292D01*
X113909252Y-79250000D01*
X112750000Y-79250000D01*
X112750000Y-79558000D01*
X112760608Y-79677325D01*
X112760609Y-79677328D01*
X112816557Y-79872861D01*
X112910721Y-80053129D01*
X113039246Y-80210753D01*
X113196870Y-80339278D01*
X113377138Y-80433442D01*
X113572671Y-80489390D01*
X113572674Y-80489391D01*
X113691999Y-80499999D01*
X113692002Y-80500000D01*
X114500000Y-80500000D01*
X114500000Y-79550000D01*
X115000000Y-79550000D01*
X115000000Y-80500000D01*
X115807998Y-80500000D01*
X115808000Y-80499999D01*
X115927325Y-80489391D01*
X115927328Y-80489390D01*
X116122861Y-80433442D01*
X116303129Y-80339278D01*
X116460753Y-80210753D01*
X116589278Y-80053129D01*
X116683442Y-79872861D01*
X116739390Y-79677328D01*
X116739391Y-79677325D01*
X116749999Y-79558000D01*
X116750000Y-79557998D01*
X116750000Y-79250000D01*
X115590748Y-79250000D01*
X115612518Y-79212292D01*
X115650000Y-79072409D01*
X115650000Y-78927591D01*
X115612518Y-78787708D01*
X115590748Y-78750000D01*
X116750000Y-78750000D01*
X116750000Y-78442002D01*
X116749999Y-78441999D01*
X116739391Y-78322674D01*
X116739390Y-78322671D01*
X116683442Y-78127138D01*
X116589278Y-77946870D01*
X116460753Y-77789246D01*
X116303129Y-77660721D01*
X116122861Y-77566557D01*
X115927328Y-77510609D01*
X115927325Y-77510608D01*
X115808000Y-77500000D01*
X115000000Y-77500000D01*
X115000000Y-78450000D01*
X114500000Y-78450000D01*
X114500000Y-77500000D01*
X113691999Y-77500000D01*
X113572674Y-77510608D01*
X113572671Y-77510609D01*
X113377138Y-77566557D01*
X113196870Y-77660721D01*
X113039246Y-77789246D01*
X112910721Y-77946870D01*
X112816557Y-78127138D01*
X112760609Y-78322671D01*
X112760608Y-78322674D01*
X112750000Y-78441999D01*
X110646700Y-78441999D01*
X110646700Y-75816000D01*
X110666385Y-75748961D01*
X110719189Y-75703206D01*
X110770700Y-75692000D01*
X126494500Y-75692000D01*
X126561539Y-75711685D01*
X126607294Y-75764489D01*
X126618500Y-75816000D01*
X126618500Y-77400852D01*
X126598815Y-77467891D01*
X126546011Y-77513646D01*
X126476853Y-77523590D01*
X126460391Y-77520068D01*
X126427335Y-77510610D01*
X126427325Y-77510608D01*
X126308000Y-77500000D01*
X125500000Y-77500000D01*
X125500000Y-78450000D01*
X125000000Y-78450000D01*
X125000000Y-77500000D01*
X124191999Y-77500000D01*
X124072674Y-77510608D01*
X124072671Y-77510609D01*
X123877138Y-77566557D01*
X123696870Y-77660721D01*
X123539246Y-77789246D01*
X123410721Y-77946870D01*
X123316557Y-78127138D01*
X123260609Y-78322671D01*
X123260608Y-78322674D01*
X123250000Y-78441999D01*
X123250000Y-78750000D01*
X124409252Y-78750000D01*
X124387482Y-78787708D01*
X124350000Y-78927591D01*
X124350000Y-79072409D01*
X124387482Y-79212292D01*
X124409252Y-79250000D01*
X123250000Y-79250000D01*
X123250000Y-79558000D01*
X123260608Y-79677325D01*
X123260609Y-79677328D01*
X123316557Y-79872861D01*
X123410721Y-80053129D01*
X123539246Y-80210753D01*
X123696870Y-80339278D01*
X123877138Y-80433442D01*
X124072671Y-80489390D01*
X124072674Y-80489391D01*
X124191999Y-80499999D01*
X124192002Y-80500000D01*
X125000000Y-80500000D01*
X125000000Y-79550000D01*
X125500000Y-79550000D01*
X125500000Y-80500000D01*
X126307998Y-80500000D01*
X126308000Y-80499999D01*
X126427330Y-80489391D01*
X126427330Y-80489390D01*
X126460387Y-80479932D01*
X126530255Y-80480414D01*
X126588771Y-80518593D01*
X126617357Y-80582347D01*
X126618500Y-80599147D01*
X126618500Y-81580981D01*
X126598815Y-81648020D01*
X126546011Y-81693775D01*
X126507754Y-81704271D01*
X126492516Y-81705909D01*
X126357671Y-81756202D01*
X126357664Y-81756206D01*
X126242455Y-81842452D01*
X126242452Y-81842455D01*
X126156206Y-81957664D01*
X126156202Y-81957671D01*
X126105908Y-82092517D01*
X126099501Y-82152116D01*
X126099500Y-82152135D01*
X126099500Y-84047870D01*
X126099501Y-84047876D01*
X126105908Y-84107483D01*
X126156202Y-84242328D01*
X126156206Y-84242335D01*
X126242452Y-84357544D01*
X126242455Y-84357547D01*
X126357664Y-84443793D01*
X126357671Y-84443797D01*
X126492517Y-84494091D01*
X126492516Y-84494091D01*
X126499444Y-84494835D01*
X126552127Y-84500500D01*
X128447872Y-84500499D01*
X128507483Y-84494091D01*
X128642331Y-84443796D01*
X128757546Y-84357546D01*
X128843796Y-84242331D01*
X128853089Y-84217415D01*
X128862735Y-84191554D01*
X128904606Y-84135620D01*
X128970070Y-84111202D01*
X129038343Y-84126053D01*
X129066598Y-84147205D01*
X129087636Y-84168243D01*
X129087641Y-84168247D01*
X129119721Y-84191554D01*
X129265978Y-84297815D01*
X129392271Y-84362165D01*
X129462393Y-84397895D01*
X129462396Y-84397896D01*
X129563445Y-84430728D01*
X129672049Y-84466015D01*
X129889778Y-84500500D01*
X129889779Y-84500500D01*
X130110221Y-84500500D01*
X130110222Y-84500500D01*
X130327951Y-84466015D01*
X130537606Y-84397895D01*
X130734022Y-84297815D01*
X130912365Y-84168242D01*
X131068242Y-84012365D01*
X131149682Y-83900270D01*
X131205011Y-83857606D01*
X131274624Y-83851627D01*
X131336420Y-83884232D01*
X131350313Y-83900265D01*
X131431130Y-84011500D01*
X131431758Y-84012365D01*
X131587636Y-84168243D01*
X131587641Y-84168247D01*
X131619721Y-84191554D01*
X131765978Y-84297815D01*
X131892271Y-84362165D01*
X131962393Y-84397895D01*
X131962396Y-84397896D01*
X132063445Y-84430728D01*
X132172049Y-84466015D01*
X132389778Y-84500500D01*
X132389779Y-84500500D01*
X132610221Y-84500500D01*
X132610222Y-84500500D01*
X132827951Y-84466015D01*
X133037606Y-84397895D01*
X133234022Y-84297815D01*
X133412365Y-84168242D01*
X133568242Y-84012365D01*
X133697815Y-83834022D01*
X133797895Y-83637606D01*
X133866015Y-83427951D01*
X133900500Y-83210222D01*
X133900500Y-82989778D01*
X133866015Y-82772049D01*
X133797895Y-82562394D01*
X133797895Y-82562393D01*
X133752113Y-82472543D01*
X133697815Y-82365978D01*
X133649681Y-82299727D01*
X133568247Y-82187641D01*
X133568243Y-82187636D01*
X133412363Y-82031756D01*
X133412358Y-82031752D01*
X133234025Y-81902187D01*
X133234024Y-81902186D01*
X133234022Y-81902185D01*
X133150516Y-81859636D01*
X133037606Y-81802104D01*
X133037603Y-81802103D01*
X132827952Y-81733985D01*
X132681813Y-81710839D01*
X132610222Y-81699500D01*
X132389778Y-81699500D01*
X132318187Y-81710839D01*
X132193527Y-81730583D01*
X132124233Y-81721628D01*
X132086448Y-81695791D01*
X130708619Y-80317962D01*
X130675134Y-80256639D01*
X130672300Y-80230281D01*
X130672300Y-78441999D01*
X132750000Y-78441999D01*
X132750000Y-78750000D01*
X133909252Y-78750000D01*
X133887482Y-78787708D01*
X133850000Y-78927591D01*
X133850000Y-79072409D01*
X133887482Y-79212292D01*
X133909252Y-79250000D01*
X132750000Y-79250000D01*
X132750000Y-79558000D01*
X132760608Y-79677325D01*
X132760609Y-79677328D01*
X132816557Y-79872861D01*
X132910721Y-80053129D01*
X133039246Y-80210753D01*
X133196870Y-80339278D01*
X133377138Y-80433442D01*
X133572671Y-80489390D01*
X133572674Y-80489391D01*
X133691999Y-80499999D01*
X133692002Y-80500000D01*
X134500000Y-80500000D01*
X134500000Y-79550000D01*
X135000000Y-79550000D01*
X135000000Y-80500000D01*
X135807998Y-80500000D01*
X135808000Y-80499999D01*
X135927325Y-80489391D01*
X135927328Y-80489390D01*
X136122861Y-80433442D01*
X136303129Y-80339278D01*
X136460753Y-80210753D01*
X136589278Y-80053129D01*
X136683442Y-79872861D01*
X136739390Y-79677328D01*
X136739391Y-79677325D01*
X136749999Y-79558000D01*
X136750000Y-79557998D01*
X136750000Y-79250000D01*
X135590748Y-79250000D01*
X135612518Y-79212292D01*
X135650000Y-79072409D01*
X135650000Y-78927591D01*
X135612518Y-78787708D01*
X135590748Y-78750000D01*
X136750000Y-78750000D01*
X136750000Y-78442002D01*
X136749999Y-78441999D01*
X136739391Y-78322674D01*
X136739390Y-78322671D01*
X136683442Y-78127138D01*
X136589278Y-77946870D01*
X136460753Y-77789246D01*
X136303129Y-77660721D01*
X136122861Y-77566557D01*
X135927328Y-77510609D01*
X135927325Y-77510608D01*
X135808000Y-77500000D01*
X135000000Y-77500000D01*
X135000000Y-78450000D01*
X134500000Y-78450000D01*
X134500000Y-77500000D01*
X133691999Y-77500000D01*
X133572674Y-77510608D01*
X133572671Y-77510609D01*
X133377138Y-77566557D01*
X133196870Y-77660721D01*
X133039246Y-77789246D01*
X132910721Y-77946870D01*
X132816557Y-78127138D01*
X132760609Y-78322671D01*
X132760608Y-78322674D01*
X132750000Y-78441999D01*
X130672300Y-78441999D01*
X130672300Y-75816000D01*
X130691985Y-75748961D01*
X130744789Y-75703206D01*
X130796300Y-75692000D01*
X135320253Y-75692000D01*
X135387292Y-75711685D01*
X135407934Y-75728319D01*
X137894570Y-78214955D01*
X137909991Y-78233745D01*
X137933557Y-78269014D01*
X137933560Y-78269018D01*
X143308654Y-83644112D01*
X143423392Y-83720777D01*
X143550867Y-83773578D01*
X143550872Y-83773580D01*
X143550876Y-83773580D01*
X143550877Y-83773581D01*
X143686203Y-83800500D01*
X143686206Y-83800500D01*
X143686207Y-83800500D01*
X145975501Y-83800500D01*
X146042540Y-83820185D01*
X146088295Y-83872989D01*
X146099501Y-83924500D01*
X146099501Y-84047876D01*
X146105908Y-84107483D01*
X146156202Y-84242328D01*
X146156206Y-84242335D01*
X146242452Y-84357544D01*
X146242455Y-84357547D01*
X146357664Y-84443793D01*
X146357671Y-84443797D01*
X146492517Y-84494091D01*
X146492516Y-84494091D01*
X146499444Y-84494835D01*
X146552127Y-84500500D01*
X148447872Y-84500499D01*
X148507483Y-84494091D01*
X148642331Y-84443796D01*
X148757546Y-84357546D01*
X148843796Y-84242331D01*
X148853089Y-84217415D01*
X148862735Y-84191554D01*
X148904606Y-84135620D01*
X148970070Y-84111202D01*
X149038343Y-84126053D01*
X149066598Y-84147205D01*
X149087636Y-84168243D01*
X149087641Y-84168247D01*
X149119721Y-84191554D01*
X149265978Y-84297815D01*
X149392271Y-84362165D01*
X149462393Y-84397895D01*
X149462396Y-84397896D01*
X149563445Y-84430728D01*
X149672049Y-84466015D01*
X149889778Y-84500500D01*
X149889779Y-84500500D01*
X150110221Y-84500500D01*
X150110222Y-84500500D01*
X150327951Y-84466015D01*
X150537606Y-84397895D01*
X150734022Y-84297815D01*
X150912365Y-84168242D01*
X151068242Y-84012365D01*
X151149682Y-83900270D01*
X151205011Y-83857606D01*
X151274624Y-83851627D01*
X151336420Y-83884232D01*
X151350313Y-83900265D01*
X151431130Y-84011500D01*
X151431758Y-84012365D01*
X151587636Y-84168243D01*
X151587641Y-84168247D01*
X151619721Y-84191554D01*
X151765978Y-84297815D01*
X151892271Y-84362165D01*
X151962393Y-84397895D01*
X151962396Y-84397896D01*
X152063445Y-84430728D01*
X152172049Y-84466015D01*
X152389778Y-84500500D01*
X152389779Y-84500500D01*
X152610221Y-84500500D01*
X152610222Y-84500500D01*
X152827951Y-84466015D01*
X153037606Y-84397895D01*
X153234022Y-84297815D01*
X153412365Y-84168242D01*
X153568242Y-84012365D01*
X153697815Y-83834022D01*
X153797895Y-83637606D01*
X153866015Y-83427951D01*
X153900500Y-83210222D01*
X153900500Y-82989778D01*
X153866015Y-82772049D01*
X153797895Y-82562394D01*
X153797895Y-82562393D01*
X153752113Y-82472543D01*
X153697815Y-82365978D01*
X153649681Y-82299727D01*
X153568247Y-82187641D01*
X153568243Y-82187636D01*
X153412363Y-82031756D01*
X153412358Y-82031752D01*
X153234023Y-81902185D01*
X153179538Y-81874423D01*
X153128743Y-81826448D01*
X153121269Y-81811382D01*
X153120775Y-81810190D01*
X153120775Y-81810189D01*
X153115372Y-81802103D01*
X153113417Y-81799176D01*
X153044114Y-81695456D01*
X151982945Y-80634287D01*
X151868207Y-80557622D01*
X151740732Y-80504821D01*
X151740722Y-80504818D01*
X151605396Y-80477900D01*
X151605394Y-80477900D01*
X151605393Y-80477900D01*
X146981418Y-80477900D01*
X146914379Y-80458215D01*
X146868624Y-80405411D01*
X146858680Y-80336253D01*
X146887705Y-80272697D01*
X146903057Y-80257798D01*
X146960753Y-80210753D01*
X147089278Y-80053129D01*
X147183442Y-79872861D01*
X147239390Y-79677328D01*
X147239391Y-79677325D01*
X147249999Y-79558000D01*
X147250000Y-79557998D01*
X147250000Y-79250000D01*
X146090748Y-79250000D01*
X146112518Y-79212292D01*
X146150000Y-79072409D01*
X146150000Y-78927591D01*
X146112518Y-78787708D01*
X146090748Y-78750000D01*
X147250000Y-78750000D01*
X147250000Y-78442002D01*
X147249999Y-78441999D01*
X147239391Y-78322674D01*
X147239390Y-78322671D01*
X147183442Y-78127138D01*
X147089278Y-77946870D01*
X146960753Y-77789246D01*
X146803129Y-77660721D01*
X146622861Y-77566557D01*
X146427328Y-77510609D01*
X146427325Y-77510608D01*
X146308000Y-77500000D01*
X145500000Y-77500000D01*
X145500000Y-78450000D01*
X145000000Y-78450000D01*
X145000000Y-77500000D01*
X144191999Y-77500000D01*
X144072674Y-77510608D01*
X144072671Y-77510609D01*
X143877138Y-77566557D01*
X143696870Y-77660721D01*
X143539246Y-77789246D01*
X143410721Y-77946870D01*
X143316557Y-78127138D01*
X143260609Y-78322671D01*
X143260608Y-78322674D01*
X143250000Y-78441999D01*
X143250000Y-78750000D01*
X144409252Y-78750000D01*
X144387482Y-78787708D01*
X144350000Y-78927591D01*
X144350000Y-79072409D01*
X144387482Y-79212292D01*
X144409252Y-79250000D01*
X143250000Y-79250000D01*
X143250000Y-79558000D01*
X143260608Y-79677325D01*
X143260609Y-79677328D01*
X143316557Y-79872861D01*
X143410721Y-80053129D01*
X143539246Y-80210753D01*
X143596943Y-80257798D01*
X143636460Y-80315419D01*
X143638552Y-80385257D01*
X143602554Y-80445140D01*
X143539896Y-80476055D01*
X143518582Y-80477900D01*
X143191119Y-80477900D01*
X143124080Y-80458215D01*
X143103438Y-80441581D01*
X141767019Y-79105162D01*
X141733534Y-79043839D01*
X141730700Y-79017481D01*
X141730700Y-77768144D01*
X141750385Y-77701105D01*
X141781815Y-77667826D01*
X141877415Y-77598369D01*
X141877415Y-77598368D01*
X141877419Y-77598366D01*
X142022166Y-77453619D01*
X142022168Y-77453615D01*
X142022171Y-77453613D01*
X142091625Y-77358016D01*
X142142487Y-77288010D01*
X142235420Y-77105619D01*
X142298677Y-76910934D01*
X142330700Y-76708752D01*
X142330700Y-76504048D01*
X142310376Y-76375727D01*
X142298677Y-76301865D01*
X142235418Y-76107176D01*
X142173484Y-75985625D01*
X142142487Y-75924790D01*
X142116400Y-75888884D01*
X142092921Y-75823079D01*
X142108746Y-75755025D01*
X142158852Y-75706330D01*
X142216719Y-75692000D01*
X153307357Y-75692000D01*
X153374396Y-75711685D01*
X153395038Y-75728319D01*
X154995678Y-77328959D01*
X155029163Y-77390282D01*
X155024179Y-77459974D01*
X155000000Y-77497597D01*
X155000000Y-78450000D01*
X154500000Y-78450000D01*
X154500000Y-77500000D01*
X153691999Y-77500000D01*
X153572674Y-77510608D01*
X153572671Y-77510609D01*
X153377138Y-77566557D01*
X153196870Y-77660721D01*
X153039246Y-77789246D01*
X152910721Y-77946870D01*
X152816557Y-78127138D01*
X152760609Y-78322671D01*
X152760608Y-78322674D01*
X152750000Y-78441999D01*
X152750000Y-78750000D01*
X153909252Y-78750000D01*
X153887482Y-78787708D01*
X153850000Y-78927591D01*
X153850000Y-79072409D01*
X153887482Y-79212292D01*
X153909252Y-79250000D01*
X152750000Y-79250000D01*
X152750000Y-79558000D01*
X152760608Y-79677325D01*
X152760609Y-79677328D01*
X152816557Y-79872861D01*
X152910721Y-80053129D01*
X153039246Y-80210753D01*
X153196870Y-80339278D01*
X153377138Y-80433442D01*
X153572671Y-80489390D01*
X153572674Y-80489391D01*
X153691999Y-80499999D01*
X153692002Y-80500000D01*
X154500000Y-80500000D01*
X154500000Y-79550000D01*
X155000000Y-79550000D01*
X155000000Y-80500000D01*
X155807998Y-80500000D01*
X155808000Y-80499999D01*
X155927325Y-80489391D01*
X155927328Y-80489390D01*
X156122861Y-80433442D01*
X156303129Y-80339278D01*
X156460753Y-80210753D01*
X156589278Y-80053129D01*
X156683442Y-79872861D01*
X156739390Y-79677328D01*
X156739391Y-79677325D01*
X156749999Y-79558000D01*
X156750000Y-79557998D01*
X156750000Y-79382643D01*
X156769685Y-79315604D01*
X156822489Y-79269849D01*
X156891647Y-79259905D01*
X156955203Y-79288930D01*
X156961681Y-79294962D01*
X161310829Y-83644111D01*
X161310830Y-83644112D01*
X161425568Y-83720777D01*
X161553043Y-83773578D01*
X161553048Y-83773580D01*
X161553052Y-83773580D01*
X161553053Y-83773581D01*
X161688379Y-83800500D01*
X161688382Y-83800500D01*
X161688383Y-83800500D01*
X165975501Y-83800500D01*
X166042540Y-83820185D01*
X166088295Y-83872989D01*
X166099501Y-83924500D01*
X166099501Y-84047876D01*
X166105908Y-84107483D01*
X166156202Y-84242328D01*
X166156206Y-84242335D01*
X166242452Y-84357544D01*
X166242455Y-84357547D01*
X166357664Y-84443793D01*
X166357671Y-84443797D01*
X166492517Y-84494091D01*
X166492516Y-84494091D01*
X166499444Y-84494835D01*
X166552127Y-84500500D01*
X168447872Y-84500499D01*
X168507483Y-84494091D01*
X168642331Y-84443796D01*
X168757546Y-84357546D01*
X168843796Y-84242331D01*
X168853089Y-84217415D01*
X168862735Y-84191554D01*
X168904606Y-84135620D01*
X168970070Y-84111202D01*
X169038343Y-84126053D01*
X169066598Y-84147205D01*
X169087636Y-84168243D01*
X169087641Y-84168247D01*
X169119721Y-84191554D01*
X169265978Y-84297815D01*
X169392271Y-84362165D01*
X169462393Y-84397895D01*
X169462396Y-84397896D01*
X169563445Y-84430728D01*
X169672049Y-84466015D01*
X169889778Y-84500500D01*
X169889779Y-84500500D01*
X170110221Y-84500500D01*
X170110222Y-84500500D01*
X170327951Y-84466015D01*
X170537606Y-84397895D01*
X170734022Y-84297815D01*
X170912365Y-84168242D01*
X171068242Y-84012365D01*
X171149682Y-83900270D01*
X171205011Y-83857606D01*
X171274624Y-83851627D01*
X171336420Y-83884232D01*
X171350313Y-83900265D01*
X171431130Y-84011500D01*
X171431758Y-84012365D01*
X171587636Y-84168243D01*
X171587641Y-84168247D01*
X171619721Y-84191554D01*
X171765978Y-84297815D01*
X171892271Y-84362165D01*
X171962393Y-84397895D01*
X171962396Y-84397896D01*
X172063445Y-84430728D01*
X172172049Y-84466015D01*
X172389778Y-84500500D01*
X172389779Y-84500500D01*
X172610221Y-84500500D01*
X172610222Y-84500500D01*
X172827951Y-84466015D01*
X173037606Y-84397895D01*
X173234022Y-84297815D01*
X173412365Y-84168242D01*
X173568242Y-84012365D01*
X173697815Y-83834022D01*
X173797895Y-83637606D01*
X173866015Y-83427951D01*
X173900500Y-83210222D01*
X173900500Y-82989778D01*
X173866015Y-82772049D01*
X173797895Y-82562394D01*
X173797895Y-82562393D01*
X173752113Y-82472543D01*
X173697815Y-82365978D01*
X173649681Y-82299727D01*
X173568247Y-82187641D01*
X173568243Y-82187636D01*
X173412363Y-82031756D01*
X173412358Y-82031752D01*
X173251615Y-81914966D01*
X173208949Y-81859636D01*
X173200500Y-81814648D01*
X173200500Y-80545844D01*
X173220185Y-80478805D01*
X173272989Y-80433050D01*
X173342147Y-80423106D01*
X173370800Y-80432360D01*
X173371300Y-80431111D01*
X173377132Y-80433440D01*
X173572671Y-80489390D01*
X173572674Y-80489391D01*
X173691999Y-80499999D01*
X173692002Y-80500000D01*
X174500000Y-80500000D01*
X174500000Y-79550000D01*
X175000000Y-79550000D01*
X175000000Y-80500000D01*
X175807998Y-80500000D01*
X175808000Y-80499999D01*
X175927325Y-80489391D01*
X175927328Y-80489390D01*
X176122861Y-80433442D01*
X176303129Y-80339278D01*
X176460753Y-80210753D01*
X176589278Y-80053129D01*
X176683442Y-79872861D01*
X176739390Y-79677328D01*
X176739391Y-79677325D01*
X176749999Y-79558000D01*
X176750000Y-79557998D01*
X176750000Y-79250000D01*
X175590748Y-79250000D01*
X175612518Y-79212292D01*
X175650000Y-79072409D01*
X175650000Y-78927591D01*
X175612518Y-78787708D01*
X175590748Y-78750000D01*
X176750000Y-78750000D01*
X176750000Y-78442002D01*
X176749999Y-78441999D01*
X176739391Y-78322674D01*
X176739390Y-78322671D01*
X176683442Y-78127138D01*
X176589278Y-77946870D01*
X176460753Y-77789246D01*
X176303129Y-77660721D01*
X176122861Y-77566557D01*
X175927328Y-77510609D01*
X175927325Y-77510608D01*
X175808000Y-77500000D01*
X175000000Y-77500000D01*
X175000000Y-78450000D01*
X174500000Y-78450000D01*
X174500000Y-77500000D01*
X173691999Y-77500000D01*
X173572674Y-77510608D01*
X173572671Y-77510609D01*
X173377138Y-77566557D01*
X173196870Y-77660721D01*
X173039246Y-77789246D01*
X172910721Y-77946868D01*
X172910719Y-77946872D01*
X172904082Y-77959577D01*
X172855593Y-78009881D01*
X172787604Y-78025985D01*
X172721702Y-78002774D01*
X172706496Y-77989840D01*
X170778946Y-76062288D01*
X170778945Y-76062287D01*
X170664207Y-75985622D01*
X170531275Y-75930561D01*
X170476871Y-75886720D01*
X170454806Y-75820426D01*
X170472085Y-75752727D01*
X170523222Y-75705116D01*
X170578727Y-75692000D01*
X174929181Y-75692000D01*
X174996220Y-75711685D01*
X175016862Y-75728319D01*
X176439053Y-77150511D01*
X176439054Y-77150512D01*
X176553792Y-77227177D01*
X176676431Y-77277975D01*
X176681272Y-77279980D01*
X176681276Y-77279980D01*
X176681277Y-77279981D01*
X176816603Y-77306900D01*
X176816606Y-77306900D01*
X176816607Y-77306900D01*
X177822656Y-77306900D01*
X177889695Y-77326585D01*
X177922975Y-77358016D01*
X177992430Y-77453615D01*
X178137186Y-77598371D01*
X178232785Y-77667826D01*
X178302790Y-77718687D01*
X178419007Y-77777903D01*
X178485176Y-77811618D01*
X178485178Y-77811618D01*
X178485181Y-77811620D01*
X178589537Y-77845527D01*
X178679865Y-77874877D01*
X178780957Y-77890888D01*
X178882048Y-77906900D01*
X178882049Y-77906900D01*
X179086751Y-77906900D01*
X179086752Y-77906900D01*
X179288934Y-77874877D01*
X179483619Y-77811620D01*
X179666010Y-77718687D01*
X179773548Y-77640557D01*
X179831613Y-77598371D01*
X179831615Y-77598368D01*
X179831619Y-77598366D01*
X179896719Y-77533266D01*
X179899831Y-77531566D01*
X179901701Y-77528552D01*
X179930273Y-77514944D01*
X179958042Y-77499781D01*
X179961579Y-77500033D01*
X179964781Y-77498509D01*
X179996166Y-77502507D01*
X180027734Y-77504765D01*
X180031610Y-77507022D01*
X180034091Y-77507339D01*
X180045386Y-77515047D01*
X180064085Y-77525940D01*
X180068239Y-77529424D01*
X180137181Y-77598366D01*
X180236276Y-77670361D01*
X180239585Y-77673137D01*
X180256648Y-77698771D01*
X180275451Y-77723155D01*
X180276462Y-77728538D01*
X180278300Y-77731300D01*
X180278423Y-77738983D01*
X180283900Y-77768144D01*
X180283900Y-83379406D01*
X180283900Y-83517394D01*
X180283900Y-83517396D01*
X180283899Y-83517396D01*
X180310818Y-83652722D01*
X180310821Y-83652732D01*
X180363622Y-83780207D01*
X180440287Y-83894945D01*
X182382654Y-85837312D01*
X182497390Y-85913976D01*
X182565358Y-85942129D01*
X182624871Y-85966780D01*
X182624872Y-85966780D01*
X182624877Y-85966782D01*
X182651745Y-85972125D01*
X182651751Y-85972126D01*
X182651791Y-85972134D01*
X182736554Y-85988995D01*
X182760206Y-85993700D01*
X182760207Y-85993700D01*
X190375796Y-85993700D01*
X190484257Y-85972125D01*
X190511128Y-85966780D01*
X190574869Y-85940377D01*
X190638607Y-85913977D01*
X190638608Y-85913976D01*
X190638611Y-85913975D01*
X190753343Y-85837314D01*
X192086449Y-84504206D01*
X192147770Y-84470723D01*
X192193522Y-84469416D01*
X192389778Y-84500500D01*
X192389779Y-84500500D01*
X192610221Y-84500500D01*
X192610222Y-84500500D01*
X192827951Y-84466015D01*
X193037606Y-84397895D01*
X193234022Y-84297815D01*
X193412365Y-84168242D01*
X193568242Y-84012365D01*
X193697815Y-83834022D01*
X193797895Y-83637606D01*
X193866015Y-83427951D01*
X193900500Y-83210222D01*
X193900500Y-82989778D01*
X193866015Y-82772049D01*
X193797895Y-82562394D01*
X193797895Y-82562393D01*
X193752113Y-82472543D01*
X193697815Y-82365978D01*
X193649681Y-82299727D01*
X193568247Y-82187641D01*
X193568243Y-82187636D01*
X193412363Y-82031756D01*
X193412358Y-82031752D01*
X193234025Y-81902187D01*
X193234024Y-81902186D01*
X193234022Y-81902185D01*
X193150516Y-81859636D01*
X193037606Y-81802104D01*
X193037603Y-81802103D01*
X192827952Y-81733985D01*
X192681813Y-81710839D01*
X192610222Y-81699500D01*
X192389778Y-81699500D01*
X192318187Y-81710839D01*
X192172047Y-81733985D01*
X191962396Y-81802103D01*
X191962393Y-81802104D01*
X191765974Y-81902187D01*
X191587641Y-82031752D01*
X191587636Y-82031756D01*
X191431756Y-82187636D01*
X191431752Y-82187641D01*
X191350318Y-82299727D01*
X191294989Y-82342393D01*
X191225375Y-82348372D01*
X191163580Y-82315767D01*
X191149682Y-82299727D01*
X191068247Y-82187641D01*
X191068243Y-82187636D01*
X190912363Y-82031756D01*
X190912358Y-82031752D01*
X190734025Y-81902187D01*
X190734024Y-81902186D01*
X190734022Y-81902185D01*
X190650516Y-81859636D01*
X190537606Y-81802104D01*
X190537603Y-81802103D01*
X190327952Y-81733985D01*
X190181813Y-81710839D01*
X190110222Y-81699500D01*
X189889778Y-81699500D01*
X189818187Y-81710839D01*
X189672047Y-81733985D01*
X189462396Y-81802103D01*
X189462393Y-81802104D01*
X189265974Y-81902187D01*
X189087641Y-82031752D01*
X189087635Y-82031757D01*
X189066596Y-82052796D01*
X189005273Y-82086280D01*
X188935581Y-82081294D01*
X188879648Y-82039421D01*
X188862735Y-82008446D01*
X188843797Y-81957671D01*
X188843793Y-81957664D01*
X188757547Y-81842455D01*
X188757544Y-81842452D01*
X188642335Y-81756206D01*
X188642328Y-81756202D01*
X188507482Y-81705908D01*
X188507483Y-81705908D01*
X188447883Y-81699501D01*
X188447881Y-81699500D01*
X188447873Y-81699500D01*
X188447865Y-81699500D01*
X188324500Y-81699500D01*
X188257461Y-81679815D01*
X188211706Y-81627011D01*
X188200500Y-81575500D01*
X188200500Y-78441999D01*
X192750000Y-78441999D01*
X192750000Y-78750000D01*
X193909252Y-78750000D01*
X193887482Y-78787708D01*
X193850000Y-78927591D01*
X193850000Y-79072409D01*
X193887482Y-79212292D01*
X193909252Y-79250000D01*
X192750000Y-79250000D01*
X192750000Y-79558000D01*
X192760608Y-79677325D01*
X192760609Y-79677328D01*
X192816557Y-79872861D01*
X192910721Y-80053129D01*
X193039246Y-80210753D01*
X193196870Y-80339278D01*
X193377138Y-80433442D01*
X193572671Y-80489390D01*
X193572674Y-80489391D01*
X193691999Y-80499999D01*
X193692002Y-80500000D01*
X194500000Y-80500000D01*
X194500000Y-79550000D01*
X195000000Y-79550000D01*
X195000000Y-80500000D01*
X195807998Y-80500000D01*
X195808000Y-80499999D01*
X195927325Y-80489391D01*
X195927328Y-80489390D01*
X196122861Y-80433442D01*
X196303129Y-80339278D01*
X196460753Y-80210753D01*
X196589278Y-80053129D01*
X196683442Y-79872861D01*
X196739390Y-79677328D01*
X196739391Y-79677325D01*
X196749999Y-79558000D01*
X196750000Y-79557998D01*
X196750000Y-79250000D01*
X195590748Y-79250000D01*
X195612518Y-79212292D01*
X195650000Y-79072409D01*
X195650000Y-78927591D01*
X195612518Y-78787708D01*
X195590748Y-78750000D01*
X196750000Y-78750000D01*
X196750000Y-78442002D01*
X196749999Y-78441999D01*
X196739391Y-78322674D01*
X196739390Y-78322671D01*
X196683442Y-78127138D01*
X196589278Y-77946870D01*
X196460753Y-77789246D01*
X196303129Y-77660721D01*
X196122861Y-77566557D01*
X195927328Y-77510609D01*
X195927325Y-77510608D01*
X195808000Y-77500000D01*
X195000000Y-77500000D01*
X195000000Y-78450000D01*
X194500000Y-78450000D01*
X194500000Y-77500000D01*
X193691999Y-77500000D01*
X193572674Y-77510608D01*
X193572671Y-77510609D01*
X193377138Y-77566557D01*
X193196870Y-77660721D01*
X193039246Y-77789246D01*
X192910721Y-77946870D01*
X192816557Y-78127138D01*
X192760609Y-78322671D01*
X192760608Y-78322674D01*
X192750000Y-78441999D01*
X188200500Y-78441999D01*
X188200500Y-75816000D01*
X188220185Y-75748961D01*
X188272989Y-75703206D01*
X188324500Y-75692000D01*
X197849988Y-75692000D01*
X197917027Y-75711685D01*
X197962782Y-75764489D01*
X197972726Y-75833647D01*
X197950307Y-75888885D01*
X197887312Y-75975590D01*
X197794381Y-76157976D01*
X197731122Y-76352665D01*
X197699100Y-76554848D01*
X197699100Y-76759551D01*
X197731122Y-76961734D01*
X197794381Y-77156423D01*
X197830432Y-77227175D01*
X197883220Y-77330778D01*
X197887315Y-77338813D01*
X198007628Y-77504413D01*
X198152386Y-77649171D01*
X198290578Y-77749571D01*
X198317990Y-77769487D01*
X198400677Y-77811618D01*
X198500376Y-77862418D01*
X198500378Y-77862418D01*
X198500381Y-77862420D01*
X198538720Y-77874877D01*
X198695065Y-77925677D01*
X198796157Y-77941688D01*
X198897248Y-77957700D01*
X198897249Y-77957700D01*
X199101951Y-77957700D01*
X199101952Y-77957700D01*
X199304134Y-77925677D01*
X199498819Y-77862420D01*
X199681210Y-77769487D01*
X199778543Y-77698771D01*
X199846813Y-77649171D01*
X199846815Y-77649168D01*
X199846819Y-77649166D01*
X199911919Y-77584066D01*
X199915031Y-77582366D01*
X199916901Y-77579352D01*
X199945473Y-77565744D01*
X199973242Y-77550581D01*
X199976779Y-77550833D01*
X199979981Y-77549309D01*
X200011366Y-77553307D01*
X200042934Y-77555565D01*
X200046810Y-77557822D01*
X200049291Y-77558139D01*
X200060586Y-77565847D01*
X200079285Y-77576740D01*
X200083439Y-77580224D01*
X200152381Y-77649166D01*
X200251476Y-77721161D01*
X200254785Y-77723937D01*
X200271848Y-77749571D01*
X200290651Y-77773955D01*
X200291662Y-77779338D01*
X200293500Y-77782100D01*
X200293623Y-77789783D01*
X200299100Y-77818944D01*
X200299100Y-82871406D01*
X200299100Y-83009394D01*
X200299100Y-83009396D01*
X200299099Y-83009396D01*
X200326018Y-83144722D01*
X200326021Y-83144732D01*
X200378822Y-83272207D01*
X200455487Y-83386945D01*
X202448654Y-85380112D01*
X202563390Y-85456776D01*
X202623604Y-85481717D01*
X202690871Y-85509580D01*
X202690872Y-85509580D01*
X202690877Y-85509582D01*
X202717745Y-85514925D01*
X202717751Y-85514926D01*
X202717791Y-85514934D01*
X202808137Y-85532905D01*
X202826206Y-85536500D01*
X202826207Y-85536500D01*
X210832996Y-85536500D01*
X210941457Y-85514925D01*
X210968328Y-85509580D01*
X211032069Y-85483177D01*
X211095807Y-85456777D01*
X211095808Y-85456776D01*
X211095811Y-85456775D01*
X211210543Y-85380114D01*
X212086449Y-84504206D01*
X212147770Y-84470723D01*
X212193522Y-84469416D01*
X212389778Y-84500500D01*
X212389779Y-84500500D01*
X212610221Y-84500500D01*
X212610222Y-84500500D01*
X212827951Y-84466015D01*
X213037606Y-84397895D01*
X213234022Y-84297815D01*
X213412365Y-84168242D01*
X213568242Y-84012365D01*
X213697815Y-83834022D01*
X213797895Y-83637606D01*
X213866015Y-83427951D01*
X213900500Y-83210222D01*
X213900500Y-82989778D01*
X213866015Y-82772049D01*
X213797895Y-82562394D01*
X213797895Y-82562393D01*
X213752113Y-82472543D01*
X213697815Y-82365978D01*
X213649681Y-82299727D01*
X213568247Y-82187641D01*
X213568243Y-82187636D01*
X213412363Y-82031756D01*
X213412358Y-82031752D01*
X213234025Y-81902187D01*
X213234024Y-81902186D01*
X213234022Y-81902185D01*
X213150516Y-81859636D01*
X213037606Y-81802104D01*
X213037603Y-81802103D01*
X212827952Y-81733985D01*
X212681813Y-81710839D01*
X212610222Y-81699500D01*
X212389778Y-81699500D01*
X212318187Y-81710839D01*
X212172047Y-81733985D01*
X211962396Y-81802103D01*
X211962393Y-81802104D01*
X211765974Y-81902187D01*
X211587641Y-82031752D01*
X211587636Y-82031756D01*
X211431756Y-82187636D01*
X211431752Y-82187641D01*
X211350318Y-82299727D01*
X211294989Y-82342393D01*
X211225375Y-82348372D01*
X211163580Y-82315767D01*
X211149682Y-82299727D01*
X211068247Y-82187641D01*
X211068243Y-82187636D01*
X210912363Y-82031756D01*
X210912358Y-82031752D01*
X210734025Y-81902187D01*
X210734024Y-81902186D01*
X210734022Y-81902185D01*
X210650516Y-81859636D01*
X210537606Y-81802104D01*
X210537603Y-81802103D01*
X210327952Y-81733985D01*
X210181813Y-81710839D01*
X210110222Y-81699500D01*
X209889778Y-81699500D01*
X209818187Y-81710839D01*
X209672047Y-81733985D01*
X209462396Y-81802103D01*
X209462393Y-81802104D01*
X209265974Y-81902187D01*
X209087641Y-82031752D01*
X209087635Y-82031757D01*
X209066596Y-82052796D01*
X209005273Y-82086280D01*
X208935581Y-82081294D01*
X208879648Y-82039421D01*
X208862735Y-82008446D01*
X208843797Y-81957671D01*
X208843793Y-81957664D01*
X208757547Y-81842455D01*
X208757544Y-81842452D01*
X208642335Y-81756206D01*
X208642328Y-81756202D01*
X208507482Y-81705908D01*
X208507483Y-81705908D01*
X208447883Y-81699501D01*
X208447881Y-81699500D01*
X208447873Y-81699500D01*
X208447865Y-81699500D01*
X208324500Y-81699500D01*
X208257461Y-81679815D01*
X208211706Y-81627011D01*
X208200500Y-81575500D01*
X208200500Y-78441999D01*
X212750000Y-78441999D01*
X212750000Y-78750000D01*
X213909252Y-78750000D01*
X213887482Y-78787708D01*
X213850000Y-78927591D01*
X213850000Y-79072409D01*
X213887482Y-79212292D01*
X213909252Y-79250000D01*
X212750000Y-79250000D01*
X212750000Y-79558000D01*
X212760608Y-79677325D01*
X212760609Y-79677328D01*
X212816557Y-79872861D01*
X212910721Y-80053129D01*
X213039246Y-80210753D01*
X213196870Y-80339278D01*
X213377138Y-80433442D01*
X213572671Y-80489390D01*
X213572674Y-80489391D01*
X213691999Y-80499999D01*
X213692002Y-80500000D01*
X214500000Y-80500000D01*
X214500000Y-79550000D01*
X215000000Y-79550000D01*
X215000000Y-80500000D01*
X215807998Y-80500000D01*
X215808000Y-80499999D01*
X215927325Y-80489391D01*
X215927328Y-80489390D01*
X216122861Y-80433442D01*
X216303129Y-80339278D01*
X216460753Y-80210753D01*
X216589278Y-80053129D01*
X216683442Y-79872861D01*
X216739390Y-79677328D01*
X216739391Y-79677325D01*
X216749999Y-79558000D01*
X216750000Y-79557998D01*
X216750000Y-79250000D01*
X215590748Y-79250000D01*
X215612518Y-79212292D01*
X215650000Y-79072409D01*
X215650000Y-78927591D01*
X215612518Y-78787708D01*
X215590748Y-78750000D01*
X216750000Y-78750000D01*
X216750000Y-78442002D01*
X216749999Y-78441999D01*
X216739391Y-78322674D01*
X216739390Y-78322671D01*
X216683442Y-78127138D01*
X216589278Y-77946870D01*
X216460753Y-77789246D01*
X216303129Y-77660721D01*
X216122861Y-77566557D01*
X215927328Y-77510609D01*
X215927325Y-77510608D01*
X215808000Y-77500000D01*
X215000000Y-77500000D01*
X215000000Y-78450000D01*
X214500000Y-78450000D01*
X214500000Y-77500000D01*
X213691999Y-77500000D01*
X213572674Y-77510608D01*
X213572671Y-77510609D01*
X213377138Y-77566557D01*
X213196870Y-77660721D01*
X213039246Y-77789246D01*
X212910721Y-77946870D01*
X212816557Y-78127138D01*
X212760609Y-78322671D01*
X212760608Y-78322674D01*
X212750000Y-78441999D01*
X208200500Y-78441999D01*
X208200500Y-77281409D01*
X208200499Y-77281401D01*
X208199818Y-77277979D01*
X208199815Y-77277963D01*
X208184568Y-77201311D01*
X208173580Y-77146072D01*
X208173578Y-77146067D01*
X208120777Y-77018592D01*
X208044112Y-76903854D01*
X208044111Y-76903853D01*
X207043938Y-75903681D01*
X207010453Y-75842358D01*
X207015437Y-75772666D01*
X207057309Y-75716733D01*
X207122773Y-75692316D01*
X207131619Y-75692000D01*
X217865188Y-75692000D01*
X217932227Y-75711685D01*
X217977982Y-75764489D01*
X217987926Y-75833647D01*
X217965507Y-75888885D01*
X217902512Y-75975590D01*
X217809581Y-76157976D01*
X217746322Y-76352665D01*
X217714300Y-76554848D01*
X217714300Y-76759551D01*
X217746322Y-76961734D01*
X217809581Y-77156423D01*
X217845632Y-77227175D01*
X217898420Y-77330778D01*
X217902515Y-77338813D01*
X218022828Y-77504413D01*
X218167586Y-77649171D01*
X218305778Y-77749571D01*
X218333190Y-77769487D01*
X218415877Y-77811618D01*
X218515576Y-77862418D01*
X218515578Y-77862418D01*
X218515581Y-77862420D01*
X218553920Y-77874877D01*
X218710265Y-77925677D01*
X218811357Y-77941688D01*
X218912448Y-77957700D01*
X218912449Y-77957700D01*
X219117151Y-77957700D01*
X219117152Y-77957700D01*
X219319334Y-77925677D01*
X219514019Y-77862420D01*
X219696410Y-77769487D01*
X219793743Y-77698771D01*
X219862013Y-77649171D01*
X219862015Y-77649168D01*
X219862019Y-77649166D01*
X219927119Y-77584066D01*
X219930231Y-77582366D01*
X219932101Y-77579352D01*
X219960673Y-77565744D01*
X219988442Y-77550581D01*
X219991979Y-77550833D01*
X219995181Y-77549309D01*
X220026566Y-77553307D01*
X220058134Y-77555565D01*
X220062010Y-77557822D01*
X220064491Y-77558139D01*
X220075786Y-77565847D01*
X220094485Y-77576740D01*
X220098639Y-77580224D01*
X220167581Y-77649166D01*
X220266676Y-77721161D01*
X220269985Y-77723937D01*
X220287048Y-77749571D01*
X220305851Y-77773955D01*
X220306862Y-77779338D01*
X220308700Y-77782100D01*
X220308823Y-77789783D01*
X220314300Y-77818944D01*
X220314300Y-84732206D01*
X220314300Y-84870194D01*
X220314300Y-84870196D01*
X220314299Y-84870196D01*
X220341218Y-85005522D01*
X220341221Y-85005532D01*
X220394022Y-85133007D01*
X220470687Y-85247745D01*
X220603054Y-85380112D01*
X220717792Y-85456777D01*
X220818225Y-85498377D01*
X220845272Y-85509580D01*
X220845276Y-85509580D01*
X220845277Y-85509581D01*
X220980603Y-85536500D01*
X220980606Y-85536500D01*
X231869396Y-85536500D01*
X231977857Y-85514925D01*
X232004728Y-85509580D01*
X232068469Y-85483177D01*
X232132207Y-85456777D01*
X232132208Y-85456776D01*
X232132211Y-85456775D01*
X232246943Y-85380114D01*
X232954114Y-84672943D01*
X233030775Y-84558211D01*
X233083580Y-84430728D01*
X233084298Y-84427116D01*
X233085195Y-84425401D01*
X233085349Y-84424895D01*
X233085444Y-84424924D01*
X233116679Y-84365206D01*
X233149618Y-84340820D01*
X233234022Y-84297815D01*
X233412365Y-84168242D01*
X233568242Y-84012365D01*
X233697815Y-83834022D01*
X233797895Y-83637606D01*
X233866015Y-83427951D01*
X233900500Y-83210222D01*
X233900500Y-82989778D01*
X233866015Y-82772049D01*
X233797895Y-82562394D01*
X233797895Y-82562393D01*
X233752113Y-82472543D01*
X233697815Y-82365978D01*
X233649681Y-82299727D01*
X233568247Y-82187641D01*
X233568243Y-82187636D01*
X233412363Y-82031756D01*
X233412358Y-82031752D01*
X233234025Y-81902187D01*
X233234024Y-81902186D01*
X233234022Y-81902185D01*
X233150516Y-81859636D01*
X233037606Y-81802104D01*
X233037603Y-81802103D01*
X232827952Y-81733985D01*
X232681813Y-81710839D01*
X232610222Y-81699500D01*
X232389778Y-81699500D01*
X232318187Y-81710839D01*
X232172047Y-81733985D01*
X231962396Y-81802103D01*
X231962393Y-81802104D01*
X231765974Y-81902187D01*
X231587641Y-82031752D01*
X231587636Y-82031756D01*
X231431756Y-82187636D01*
X231431752Y-82187641D01*
X231350318Y-82299727D01*
X231294989Y-82342393D01*
X231225375Y-82348372D01*
X231163580Y-82315767D01*
X231149682Y-82299727D01*
X231068247Y-82187641D01*
X231068243Y-82187636D01*
X230912363Y-82031756D01*
X230912358Y-82031752D01*
X230734025Y-81902187D01*
X230734024Y-81902186D01*
X230734022Y-81902185D01*
X230650516Y-81859636D01*
X230537606Y-81802104D01*
X230537603Y-81802103D01*
X230327952Y-81733985D01*
X230181813Y-81710839D01*
X230110222Y-81699500D01*
X229889778Y-81699500D01*
X229818187Y-81710839D01*
X229672047Y-81733985D01*
X229462396Y-81802103D01*
X229462393Y-81802104D01*
X229265974Y-81902187D01*
X229087641Y-82031752D01*
X229087635Y-82031757D01*
X229066596Y-82052796D01*
X229005273Y-82086280D01*
X228935581Y-82081294D01*
X228879648Y-82039421D01*
X228862735Y-82008446D01*
X228843797Y-81957671D01*
X228843793Y-81957664D01*
X228757547Y-81842455D01*
X228757544Y-81842452D01*
X228642335Y-81756206D01*
X228642328Y-81756202D01*
X228507482Y-81705908D01*
X228507483Y-81705908D01*
X228447883Y-81699501D01*
X228447881Y-81699500D01*
X228447873Y-81699500D01*
X228447864Y-81699500D01*
X226552129Y-81699500D01*
X226552123Y-81699501D01*
X226492516Y-81705908D01*
X226357671Y-81756202D01*
X226357664Y-81756206D01*
X226242455Y-81842452D01*
X226242452Y-81842455D01*
X226156206Y-81957664D01*
X226156202Y-81957671D01*
X226105908Y-82092517D01*
X226099501Y-82152116D01*
X226099500Y-82152135D01*
X226099501Y-84011500D01*
X226079816Y-84078539D01*
X226027013Y-84124294D01*
X225975501Y-84135500D01*
X221839300Y-84135500D01*
X221772261Y-84115815D01*
X221726506Y-84063011D01*
X221715300Y-84011500D01*
X221715300Y-78441999D01*
X223250000Y-78441999D01*
X223250000Y-78750000D01*
X224409252Y-78750000D01*
X224387482Y-78787708D01*
X224350000Y-78927591D01*
X224350000Y-79072409D01*
X224387482Y-79212292D01*
X224409252Y-79250000D01*
X223250000Y-79250000D01*
X223250000Y-79558000D01*
X223260608Y-79677325D01*
X223260609Y-79677328D01*
X223316557Y-79872861D01*
X223410721Y-80053129D01*
X223539246Y-80210753D01*
X223696870Y-80339278D01*
X223877138Y-80433442D01*
X224072671Y-80489390D01*
X224072674Y-80489391D01*
X224191999Y-80499999D01*
X224192002Y-80500000D01*
X225000000Y-80500000D01*
X225000000Y-79550000D01*
X225500000Y-79550000D01*
X225500000Y-80500000D01*
X226307998Y-80500000D01*
X226308000Y-80499999D01*
X226427325Y-80489391D01*
X226427328Y-80489390D01*
X226622861Y-80433442D01*
X226803129Y-80339278D01*
X226960753Y-80210753D01*
X227089278Y-80053129D01*
X227183442Y-79872861D01*
X227239390Y-79677328D01*
X227239391Y-79677325D01*
X227249999Y-79558000D01*
X227250000Y-79557998D01*
X227250000Y-79250000D01*
X226090748Y-79250000D01*
X226112518Y-79212292D01*
X226150000Y-79072409D01*
X226150000Y-78927591D01*
X226112518Y-78787708D01*
X226090748Y-78750000D01*
X227250000Y-78750000D01*
X227250000Y-78442002D01*
X227249999Y-78441999D01*
X232750000Y-78441999D01*
X232750000Y-78750000D01*
X233909252Y-78750000D01*
X233887482Y-78787708D01*
X233850000Y-78927591D01*
X233850000Y-79072409D01*
X233887482Y-79212292D01*
X233909252Y-79250000D01*
X232750000Y-79250000D01*
X232750000Y-79558000D01*
X232760608Y-79677325D01*
X232760609Y-79677328D01*
X232816557Y-79872861D01*
X232910721Y-80053129D01*
X233039246Y-80210753D01*
X233196870Y-80339278D01*
X233377138Y-80433442D01*
X233572671Y-80489390D01*
X233572674Y-80489391D01*
X233691999Y-80499999D01*
X233692002Y-80500000D01*
X234500000Y-80500000D01*
X234500000Y-79550000D01*
X235000000Y-79550000D01*
X235000000Y-80500000D01*
X235807998Y-80500000D01*
X235808000Y-80499999D01*
X235927325Y-80489391D01*
X235927328Y-80489390D01*
X236122861Y-80433442D01*
X236303129Y-80339278D01*
X236460753Y-80210753D01*
X236589278Y-80053129D01*
X236683442Y-79872861D01*
X236739390Y-79677328D01*
X236739391Y-79677325D01*
X236749999Y-79558000D01*
X236750000Y-79557998D01*
X236750000Y-79250000D01*
X235590748Y-79250000D01*
X235612518Y-79212292D01*
X235650000Y-79072409D01*
X235650000Y-78927591D01*
X235612518Y-78787708D01*
X235590748Y-78750000D01*
X236750000Y-78750000D01*
X236750000Y-78442002D01*
X236749999Y-78441999D01*
X236739391Y-78322674D01*
X236739390Y-78322671D01*
X236683442Y-78127138D01*
X236589278Y-77946870D01*
X236460753Y-77789246D01*
X236303129Y-77660721D01*
X236122861Y-77566557D01*
X235927328Y-77510609D01*
X235927325Y-77510608D01*
X235808000Y-77500000D01*
X235000000Y-77500000D01*
X235000000Y-78450000D01*
X234500000Y-78450000D01*
X234500000Y-77500000D01*
X233691999Y-77500000D01*
X233572674Y-77510608D01*
X233572671Y-77510609D01*
X233377138Y-77566557D01*
X233196870Y-77660721D01*
X233039246Y-77789246D01*
X232910721Y-77946870D01*
X232816557Y-78127138D01*
X232760609Y-78322671D01*
X232760608Y-78322674D01*
X232750000Y-78441999D01*
X227249999Y-78441999D01*
X227239391Y-78322674D01*
X227239390Y-78322671D01*
X227183442Y-78127138D01*
X227089278Y-77946870D01*
X226960753Y-77789246D01*
X226803129Y-77660721D01*
X226622861Y-77566557D01*
X226427328Y-77510609D01*
X226427325Y-77510608D01*
X226308000Y-77500000D01*
X225500000Y-77500000D01*
X225500000Y-78450000D01*
X225000000Y-78450000D01*
X225000000Y-77500000D01*
X224191999Y-77500000D01*
X224072674Y-77510608D01*
X224072671Y-77510609D01*
X223877138Y-77566557D01*
X223696870Y-77660721D01*
X223539246Y-77789246D01*
X223410721Y-77946870D01*
X223316557Y-78127138D01*
X223260609Y-78322671D01*
X223260608Y-78322674D01*
X223250000Y-78441999D01*
X221715300Y-78441999D01*
X221715300Y-77818944D01*
X221734985Y-77751905D01*
X221766415Y-77718626D01*
X221862015Y-77649169D01*
X221862015Y-77649168D01*
X221862019Y-77649166D01*
X222006766Y-77504419D01*
X222006768Y-77504415D01*
X222006771Y-77504413D01*
X222065317Y-77423830D01*
X222127087Y-77338810D01*
X222220020Y-77156419D01*
X222283277Y-76961734D01*
X222315300Y-76759552D01*
X222315300Y-76554848D01*
X222286930Y-76375727D01*
X222283277Y-76352665D01*
X222220018Y-76157976D01*
X222127087Y-75975590D01*
X222064093Y-75888885D01*
X222040614Y-75823078D01*
X222056440Y-75755024D01*
X222106546Y-75706330D01*
X222164412Y-75692000D01*
X237880388Y-75692000D01*
X237947427Y-75711685D01*
X237993182Y-75764489D01*
X238003126Y-75833647D01*
X237980707Y-75888885D01*
X237917712Y-75975590D01*
X237824781Y-76157976D01*
X237761522Y-76352665D01*
X237729500Y-76554848D01*
X237729500Y-76759551D01*
X237761522Y-76961734D01*
X237824781Y-77156423D01*
X237860832Y-77227175D01*
X237913620Y-77330778D01*
X237917715Y-77338813D01*
X238038028Y-77504413D01*
X238182786Y-77649171D01*
X238320978Y-77749571D01*
X238348390Y-77769487D01*
X238431077Y-77811618D01*
X238530776Y-77862418D01*
X238530778Y-77862418D01*
X238530781Y-77862420D01*
X238569120Y-77874877D01*
X238725465Y-77925677D01*
X238826557Y-77941688D01*
X238927648Y-77957700D01*
X238927649Y-77957700D01*
X239132351Y-77957700D01*
X239132352Y-77957700D01*
X239334534Y-77925677D01*
X239529219Y-77862420D01*
X239711610Y-77769487D01*
X239808943Y-77698771D01*
X239877213Y-77649171D01*
X239877215Y-77649168D01*
X239877219Y-77649166D01*
X239942319Y-77584066D01*
X239945431Y-77582366D01*
X239947301Y-77579352D01*
X239975873Y-77565744D01*
X240003642Y-77550581D01*
X240007179Y-77550833D01*
X240010381Y-77549309D01*
X240041766Y-77553307D01*
X240073334Y-77555565D01*
X240077210Y-77557822D01*
X240079691Y-77558139D01*
X240090986Y-77565847D01*
X240109685Y-77576740D01*
X240113839Y-77580224D01*
X240182781Y-77649166D01*
X240281876Y-77721161D01*
X240285185Y-77723937D01*
X240302248Y-77749571D01*
X240321051Y-77773955D01*
X240322062Y-77779338D01*
X240323900Y-77782100D01*
X240324023Y-77789783D01*
X240329500Y-77818944D01*
X240329500Y-85360606D01*
X240329500Y-85498594D01*
X240329500Y-85498596D01*
X240329499Y-85498596D01*
X240356418Y-85633922D01*
X240356421Y-85633932D01*
X240409222Y-85761407D01*
X240485887Y-85876145D01*
X241463054Y-86853312D01*
X241463057Y-86853314D01*
X241577789Y-86929975D01*
X241705271Y-86982780D01*
X241730479Y-86987794D01*
X241785543Y-86998747D01*
X241840605Y-87009700D01*
X241840607Y-87009700D01*
X251020996Y-87009700D01*
X251131156Y-86987787D01*
X251156328Y-86982780D01*
X251220069Y-86956377D01*
X251283807Y-86929977D01*
X251283808Y-86929976D01*
X251283811Y-86929975D01*
X251398543Y-86853314D01*
X253044114Y-85207743D01*
X253120775Y-85093011D01*
X253126326Y-85079611D01*
X253157010Y-85005532D01*
X253173580Y-84965528D01*
X253192543Y-84870196D01*
X253200500Y-84830196D01*
X253200500Y-84385351D01*
X253220185Y-84318312D01*
X253251611Y-84285035D01*
X253412365Y-84168242D01*
X253568242Y-84012365D01*
X253697815Y-83834022D01*
X253797895Y-83637606D01*
X253866015Y-83427951D01*
X253900500Y-83210222D01*
X253900500Y-82989778D01*
X253866015Y-82772049D01*
X253797895Y-82562394D01*
X253797895Y-82562393D01*
X253752113Y-82472543D01*
X253697815Y-82365978D01*
X253649681Y-82299727D01*
X253568247Y-82187641D01*
X253568243Y-82187636D01*
X253412363Y-82031756D01*
X253412358Y-82031752D01*
X253234025Y-81902187D01*
X253234024Y-81902186D01*
X253234022Y-81902185D01*
X253150516Y-81859636D01*
X253037606Y-81802104D01*
X253037603Y-81802103D01*
X252827952Y-81733985D01*
X252681813Y-81710839D01*
X252610222Y-81699500D01*
X252389778Y-81699500D01*
X252318187Y-81710839D01*
X252172047Y-81733985D01*
X251962396Y-81802103D01*
X251962393Y-81802104D01*
X251765974Y-81902187D01*
X251587641Y-82031752D01*
X251587636Y-82031756D01*
X251431756Y-82187636D01*
X251431752Y-82187641D01*
X251350318Y-82299727D01*
X251294989Y-82342393D01*
X251225375Y-82348372D01*
X251163580Y-82315767D01*
X251149682Y-82299727D01*
X251068247Y-82187641D01*
X251068243Y-82187636D01*
X250912363Y-82031756D01*
X250912358Y-82031752D01*
X250734025Y-81902187D01*
X250734024Y-81902186D01*
X250734022Y-81902185D01*
X250650516Y-81859636D01*
X250537606Y-81802104D01*
X250537603Y-81802103D01*
X250327952Y-81733985D01*
X250181813Y-81710839D01*
X250110222Y-81699500D01*
X249889778Y-81699500D01*
X249818187Y-81710839D01*
X249672047Y-81733985D01*
X249462396Y-81802103D01*
X249462393Y-81802104D01*
X249265974Y-81902187D01*
X249087641Y-82031752D01*
X249087635Y-82031757D01*
X249066596Y-82052796D01*
X249005273Y-82086280D01*
X248935581Y-82081294D01*
X248879648Y-82039421D01*
X248862735Y-82008446D01*
X248843797Y-81957671D01*
X248843793Y-81957664D01*
X248757547Y-81842455D01*
X248757544Y-81842452D01*
X248642335Y-81756206D01*
X248642328Y-81756202D01*
X248507482Y-81705908D01*
X248507483Y-81705908D01*
X248447883Y-81699501D01*
X248447881Y-81699500D01*
X248447873Y-81699500D01*
X248447864Y-81699500D01*
X246552129Y-81699500D01*
X246552123Y-81699501D01*
X246492516Y-81705908D01*
X246357671Y-81756202D01*
X246357664Y-81756206D01*
X246242455Y-81842452D01*
X246242452Y-81842455D01*
X246156206Y-81957664D01*
X246156202Y-81957671D01*
X246105908Y-82092517D01*
X246099501Y-82152116D01*
X246099500Y-82152135D01*
X246099500Y-84047870D01*
X246099501Y-84047876D01*
X246105908Y-84107483D01*
X246156202Y-84242328D01*
X246156206Y-84242335D01*
X246242452Y-84357544D01*
X246242455Y-84357547D01*
X246357664Y-84443793D01*
X246357671Y-84443797D01*
X246492517Y-84494091D01*
X246492516Y-84494091D01*
X246499444Y-84494835D01*
X246552127Y-84500500D01*
X248447872Y-84500499D01*
X248507483Y-84494091D01*
X248642331Y-84443796D01*
X248757546Y-84357546D01*
X248843796Y-84242331D01*
X248853089Y-84217415D01*
X248862735Y-84191554D01*
X248904606Y-84135620D01*
X248970070Y-84111202D01*
X249038343Y-84126053D01*
X249066598Y-84147205D01*
X249087636Y-84168243D01*
X249087641Y-84168247D01*
X249119721Y-84191554D01*
X249265978Y-84297815D01*
X249392271Y-84362165D01*
X249462393Y-84397895D01*
X249462396Y-84397896D01*
X249563445Y-84430728D01*
X249672049Y-84466015D01*
X249889778Y-84500500D01*
X249889779Y-84500500D01*
X250110221Y-84500500D01*
X250110222Y-84500500D01*
X250327951Y-84466015D01*
X250537606Y-84397895D01*
X250734022Y-84297815D01*
X250912365Y-84168242D01*
X251068242Y-84012365D01*
X251149682Y-83900270D01*
X251205011Y-83857606D01*
X251274624Y-83851627D01*
X251336420Y-83884232D01*
X251350313Y-83900265D01*
X251431758Y-84012365D01*
X251587635Y-84168242D01*
X251748386Y-84285034D01*
X251751726Y-84289365D01*
X251756703Y-84291638D01*
X251772831Y-84316734D01*
X251791051Y-84340362D01*
X251792304Y-84347035D01*
X251794477Y-84350416D01*
X251799500Y-84385351D01*
X251799500Y-84419681D01*
X251779815Y-84486720D01*
X251763181Y-84507362D01*
X250698162Y-85572381D01*
X250636839Y-85605866D01*
X250610481Y-85608700D01*
X242251119Y-85608700D01*
X242184080Y-85589015D01*
X242163438Y-85572381D01*
X241766819Y-85175762D01*
X241733334Y-85114439D01*
X241730500Y-85088081D01*
X241730500Y-78441999D01*
X243250000Y-78441999D01*
X243250000Y-78750000D01*
X244409252Y-78750000D01*
X244387482Y-78787708D01*
X244350000Y-78927591D01*
X244350000Y-79072409D01*
X244387482Y-79212292D01*
X244409252Y-79250000D01*
X243250000Y-79250000D01*
X243250000Y-79558000D01*
X243260608Y-79677325D01*
X243260609Y-79677328D01*
X243316557Y-79872861D01*
X243410721Y-80053129D01*
X243539246Y-80210753D01*
X243696870Y-80339278D01*
X243877138Y-80433442D01*
X244072671Y-80489390D01*
X244072674Y-80489391D01*
X244191999Y-80499999D01*
X244192002Y-80500000D01*
X245000000Y-80500000D01*
X245000000Y-79550000D01*
X245500000Y-79550000D01*
X245500000Y-80500000D01*
X246307998Y-80500000D01*
X246308000Y-80499999D01*
X246427325Y-80489391D01*
X246427328Y-80489390D01*
X246622861Y-80433442D01*
X246803129Y-80339278D01*
X246960753Y-80210753D01*
X247089278Y-80053129D01*
X247183442Y-79872861D01*
X247239390Y-79677328D01*
X247239391Y-79677325D01*
X247249999Y-79558000D01*
X247250000Y-79557998D01*
X247250000Y-79250000D01*
X246090748Y-79250000D01*
X246112518Y-79212292D01*
X246150000Y-79072409D01*
X246150000Y-78927591D01*
X246112518Y-78787708D01*
X246090748Y-78750000D01*
X247250000Y-78750000D01*
X247250000Y-78442002D01*
X247249999Y-78441999D01*
X247239391Y-78322674D01*
X247239390Y-78322671D01*
X247183442Y-78127138D01*
X247089278Y-77946870D01*
X246960753Y-77789246D01*
X246803129Y-77660721D01*
X246622861Y-77566557D01*
X246427328Y-77510609D01*
X246427325Y-77510608D01*
X246308000Y-77500000D01*
X245500000Y-77500000D01*
X245500000Y-78450000D01*
X245000000Y-78450000D01*
X245000000Y-77500000D01*
X244191999Y-77500000D01*
X244072674Y-77510608D01*
X244072671Y-77510609D01*
X243877138Y-77566557D01*
X243696870Y-77660721D01*
X243539246Y-77789246D01*
X243410721Y-77946870D01*
X243316557Y-78127138D01*
X243260609Y-78322671D01*
X243260608Y-78322674D01*
X243250000Y-78441999D01*
X241730500Y-78441999D01*
X241730500Y-77818944D01*
X241750185Y-77751905D01*
X241781615Y-77718626D01*
X241877215Y-77649169D01*
X241877215Y-77649168D01*
X241877219Y-77649166D01*
X242021966Y-77504419D01*
X242021968Y-77504415D01*
X242021971Y-77504413D01*
X242080517Y-77423830D01*
X242142287Y-77338810D01*
X242235220Y-77156419D01*
X242298477Y-76961734D01*
X242330500Y-76759552D01*
X242330500Y-76554848D01*
X242302130Y-76375727D01*
X242298477Y-76352665D01*
X242235218Y-76157976D01*
X242142287Y-75975590D01*
X242079293Y-75888885D01*
X242055814Y-75823078D01*
X242071640Y-75755024D01*
X242121746Y-75706330D01*
X242179612Y-75692000D01*
X249802223Y-75692000D01*
X249869262Y-75711685D01*
X249889904Y-75728319D01*
X251362895Y-77201311D01*
X251362896Y-77201312D01*
X251477634Y-77277977D01*
X251605109Y-77330778D01*
X251605114Y-77330780D01*
X251605118Y-77330780D01*
X251605119Y-77330781D01*
X251740445Y-77357700D01*
X251740448Y-77357700D01*
X251740449Y-77357700D01*
X253271768Y-77357700D01*
X253338807Y-77377385D01*
X253384562Y-77430189D01*
X253394506Y-77499347D01*
X253365481Y-77562903D01*
X253329179Y-77591609D01*
X253196870Y-77660721D01*
X253039246Y-77789246D01*
X252910721Y-77946870D01*
X252816557Y-78127138D01*
X252760609Y-78322671D01*
X252760608Y-78322674D01*
X252750000Y-78441999D01*
X252750000Y-78750000D01*
X253909252Y-78750000D01*
X253887482Y-78787708D01*
X253850000Y-78927591D01*
X253850000Y-79072409D01*
X253887482Y-79212292D01*
X253909252Y-79250000D01*
X252750000Y-79250000D01*
X252750000Y-79558000D01*
X252760608Y-79677325D01*
X252760609Y-79677328D01*
X252816557Y-79872861D01*
X252910721Y-80053129D01*
X253039246Y-80210753D01*
X253196870Y-80339278D01*
X253377138Y-80433442D01*
X253572671Y-80489390D01*
X253572674Y-80489391D01*
X253691999Y-80499999D01*
X253692002Y-80500000D01*
X254500000Y-80500000D01*
X254500000Y-79550000D01*
X255000000Y-79550000D01*
X255000000Y-80500000D01*
X255807998Y-80500000D01*
X255808000Y-80499999D01*
X255927325Y-80489391D01*
X255927328Y-80489390D01*
X256122861Y-80433442D01*
X256303129Y-80339278D01*
X256460753Y-80210753D01*
X256589278Y-80053129D01*
X256683442Y-79872861D01*
X256739390Y-79677328D01*
X256739391Y-79677325D01*
X256749999Y-79558000D01*
X256750000Y-79557998D01*
X256750000Y-79250000D01*
X255590748Y-79250000D01*
X255612518Y-79212292D01*
X255650000Y-79072409D01*
X255650000Y-78927591D01*
X255612518Y-78787708D01*
X255590748Y-78750000D01*
X256750000Y-78750000D01*
X256750000Y-78442002D01*
X256749999Y-78441999D01*
X256739391Y-78322674D01*
X256739390Y-78322671D01*
X256683442Y-78127138D01*
X256589278Y-77946870D01*
X256460753Y-77789246D01*
X256303129Y-77660721D01*
X256170821Y-77591609D01*
X256120513Y-77543122D01*
X256104406Y-77475134D01*
X256127612Y-77409231D01*
X256182765Y-77366336D01*
X256228232Y-77357700D01*
X257832656Y-77357700D01*
X257899695Y-77377385D01*
X257932974Y-77408815D01*
X257943883Y-77423830D01*
X258002430Y-77504415D01*
X258147186Y-77649171D01*
X258285378Y-77749571D01*
X258312790Y-77769487D01*
X258395477Y-77811618D01*
X258495176Y-77862418D01*
X258495178Y-77862418D01*
X258495181Y-77862420D01*
X258533520Y-77874877D01*
X258689865Y-77925677D01*
X258790957Y-77941688D01*
X258892048Y-77957700D01*
X258892049Y-77957700D01*
X259096751Y-77957700D01*
X259096752Y-77957700D01*
X259298934Y-77925677D01*
X259493619Y-77862420D01*
X259676010Y-77769487D01*
X259773343Y-77698771D01*
X259841613Y-77649171D01*
X259841615Y-77649168D01*
X259841619Y-77649166D01*
X259906719Y-77584066D01*
X259909831Y-77582366D01*
X259911701Y-77579352D01*
X259940273Y-77565744D01*
X259968042Y-77550581D01*
X259971579Y-77550833D01*
X259974781Y-77549309D01*
X260006166Y-77553307D01*
X260037734Y-77555565D01*
X260041610Y-77557822D01*
X260044091Y-77558139D01*
X260055386Y-77565847D01*
X260074085Y-77576740D01*
X260078239Y-77580224D01*
X260147181Y-77649166D01*
X260246276Y-77721161D01*
X260249585Y-77723937D01*
X260266648Y-77749571D01*
X260285451Y-77773955D01*
X260286462Y-77779338D01*
X260288300Y-77782100D01*
X260288423Y-77789783D01*
X260293900Y-77818944D01*
X260293900Y-81957006D01*
X260293900Y-82094994D01*
X260293900Y-82094996D01*
X260293899Y-82094996D01*
X260320818Y-82230322D01*
X260320821Y-82230332D01*
X260373622Y-82357807D01*
X260450287Y-82472545D01*
X263459454Y-85481712D01*
X263574190Y-85558376D01*
X263670084Y-85598096D01*
X263701671Y-85611180D01*
X263701672Y-85611180D01*
X263701677Y-85611182D01*
X263728545Y-85616525D01*
X263728551Y-85616526D01*
X263728591Y-85616534D01*
X263816034Y-85633928D01*
X263837006Y-85638100D01*
X263837007Y-85638100D01*
X270731396Y-85638100D01*
X270839857Y-85616525D01*
X270866728Y-85611180D01*
X270930469Y-85584777D01*
X270994207Y-85558377D01*
X270994208Y-85558376D01*
X270994211Y-85558375D01*
X271108943Y-85481714D01*
X272086449Y-84504206D01*
X272147770Y-84470723D01*
X272193522Y-84469416D01*
X272389778Y-84500500D01*
X272389779Y-84500500D01*
X272610221Y-84500500D01*
X272610222Y-84500500D01*
X272827951Y-84466015D01*
X273037606Y-84397895D01*
X273234022Y-84297815D01*
X273412365Y-84168242D01*
X273568242Y-84012365D01*
X273697815Y-83834022D01*
X273797895Y-83637606D01*
X273866015Y-83427951D01*
X273900500Y-83210222D01*
X273900500Y-82989778D01*
X273866015Y-82772049D01*
X273797895Y-82562394D01*
X273797895Y-82562393D01*
X273752113Y-82472543D01*
X273697815Y-82365978D01*
X273649681Y-82299727D01*
X273568247Y-82187641D01*
X273568243Y-82187636D01*
X273412363Y-82031756D01*
X273412358Y-82031752D01*
X273234025Y-81902187D01*
X273234024Y-81902186D01*
X273234022Y-81902185D01*
X273150516Y-81859636D01*
X273037606Y-81802104D01*
X273037603Y-81802103D01*
X272827952Y-81733985D01*
X272681813Y-81710839D01*
X272610222Y-81699500D01*
X272389778Y-81699500D01*
X272318187Y-81710839D01*
X272172047Y-81733985D01*
X271962396Y-81802103D01*
X271962393Y-81802104D01*
X271765974Y-81902187D01*
X271587641Y-82031752D01*
X271587636Y-82031756D01*
X271431756Y-82187636D01*
X271431752Y-82187641D01*
X271350318Y-82299727D01*
X271294989Y-82342393D01*
X271225375Y-82348372D01*
X271163580Y-82315767D01*
X271149682Y-82299727D01*
X271068247Y-82187641D01*
X271068243Y-82187636D01*
X270912363Y-82031756D01*
X270912358Y-82031752D01*
X270734025Y-81902187D01*
X270734024Y-81902186D01*
X270734022Y-81902185D01*
X270650516Y-81859636D01*
X270537606Y-81802104D01*
X270537603Y-81802103D01*
X270327952Y-81733985D01*
X270181813Y-81710839D01*
X270110222Y-81699500D01*
X269889778Y-81699500D01*
X269818187Y-81710839D01*
X269672047Y-81733985D01*
X269462396Y-81802103D01*
X269462393Y-81802104D01*
X269265974Y-81902187D01*
X269087641Y-82031752D01*
X269087635Y-82031757D01*
X269066596Y-82052796D01*
X269005273Y-82086280D01*
X268935581Y-82081294D01*
X268879648Y-82039421D01*
X268862735Y-82008446D01*
X268843797Y-81957671D01*
X268843793Y-81957664D01*
X268757547Y-81842455D01*
X268757544Y-81842452D01*
X268642335Y-81756206D01*
X268642328Y-81756202D01*
X268507482Y-81705908D01*
X268507483Y-81705908D01*
X268447883Y-81699501D01*
X268447881Y-81699500D01*
X268447873Y-81699500D01*
X268447864Y-81699500D01*
X266552129Y-81699500D01*
X266552123Y-81699501D01*
X266492516Y-81705908D01*
X266357671Y-81756202D01*
X266357664Y-81756206D01*
X266242455Y-81842452D01*
X266242452Y-81842455D01*
X266156206Y-81957664D01*
X266156202Y-81957671D01*
X266105908Y-82092517D01*
X266099501Y-82152116D01*
X266099500Y-82152135D01*
X266099500Y-84047870D01*
X266099501Y-84047876D01*
X266105088Y-84099847D01*
X266092681Y-84168606D01*
X266045070Y-84219743D01*
X265981798Y-84237100D01*
X264247519Y-84237100D01*
X264180480Y-84217415D01*
X264159838Y-84200781D01*
X261731219Y-81772162D01*
X261697734Y-81710839D01*
X261694900Y-81684481D01*
X261694900Y-78441999D01*
X263250000Y-78441999D01*
X263250000Y-78750000D01*
X264409252Y-78750000D01*
X264387482Y-78787708D01*
X264350000Y-78927591D01*
X264350000Y-79072409D01*
X264387482Y-79212292D01*
X264409252Y-79250000D01*
X263250000Y-79250000D01*
X263250000Y-79558000D01*
X263260608Y-79677325D01*
X263260609Y-79677328D01*
X263316557Y-79872861D01*
X263410721Y-80053129D01*
X263539246Y-80210753D01*
X263696870Y-80339278D01*
X263877138Y-80433442D01*
X264072671Y-80489390D01*
X264072674Y-80489391D01*
X264191999Y-80499999D01*
X264192002Y-80500000D01*
X265000000Y-80500000D01*
X265000000Y-79550000D01*
X265500000Y-79550000D01*
X265500000Y-80500000D01*
X266307998Y-80500000D01*
X266308000Y-80499999D01*
X266427325Y-80489391D01*
X266427328Y-80489390D01*
X266622861Y-80433442D01*
X266803129Y-80339278D01*
X266960753Y-80210753D01*
X267089278Y-80053129D01*
X267183442Y-79872861D01*
X267239390Y-79677328D01*
X267239391Y-79677325D01*
X267249999Y-79558000D01*
X267250000Y-79557998D01*
X267250000Y-79250000D01*
X266090748Y-79250000D01*
X266112518Y-79212292D01*
X266150000Y-79072409D01*
X266150000Y-78927591D01*
X266112518Y-78787708D01*
X266090748Y-78750000D01*
X267250000Y-78750000D01*
X267250000Y-78442002D01*
X267249999Y-78441999D01*
X272750000Y-78441999D01*
X272750000Y-78750000D01*
X273909252Y-78750000D01*
X273887482Y-78787708D01*
X273850000Y-78927591D01*
X273850000Y-79072409D01*
X273887482Y-79212292D01*
X273909252Y-79250000D01*
X272750000Y-79250000D01*
X272750000Y-79558000D01*
X272760608Y-79677325D01*
X272760609Y-79677328D01*
X272816557Y-79872861D01*
X272910721Y-80053129D01*
X273039246Y-80210753D01*
X273196870Y-80339278D01*
X273377138Y-80433442D01*
X273572671Y-80489390D01*
X273572674Y-80489391D01*
X273691999Y-80499999D01*
X273692002Y-80500000D01*
X274500000Y-80500000D01*
X274500000Y-79550000D01*
X275000000Y-79550000D01*
X275000000Y-80500000D01*
X275807998Y-80500000D01*
X275808000Y-80499999D01*
X275927325Y-80489391D01*
X275927328Y-80489390D01*
X276122861Y-80433442D01*
X276303129Y-80339278D01*
X276460753Y-80210753D01*
X276589278Y-80053129D01*
X276683442Y-79872861D01*
X276739390Y-79677328D01*
X276739391Y-79677325D01*
X276749999Y-79558000D01*
X276750000Y-79557998D01*
X276750000Y-79250000D01*
X275590748Y-79250000D01*
X275612518Y-79212292D01*
X275650000Y-79072409D01*
X275650000Y-78927591D01*
X275612518Y-78787708D01*
X275590748Y-78750000D01*
X276750000Y-78750000D01*
X276750000Y-78442002D01*
X276749999Y-78441999D01*
X276739391Y-78322674D01*
X276739390Y-78322671D01*
X276683442Y-78127138D01*
X276589278Y-77946870D01*
X276460753Y-77789246D01*
X276303129Y-77660721D01*
X276122861Y-77566557D01*
X275927328Y-77510609D01*
X275927325Y-77510608D01*
X275808000Y-77500000D01*
X275000000Y-77500000D01*
X275000000Y-78450000D01*
X274500000Y-78450000D01*
X274500000Y-77500000D01*
X273691999Y-77500000D01*
X273572674Y-77510608D01*
X273572671Y-77510609D01*
X273377138Y-77566557D01*
X273196870Y-77660721D01*
X273039246Y-77789246D01*
X272910721Y-77946870D01*
X272816557Y-78127138D01*
X272760609Y-78322671D01*
X272760608Y-78322674D01*
X272750000Y-78441999D01*
X267249999Y-78441999D01*
X267239391Y-78322674D01*
X267239390Y-78322671D01*
X267183442Y-78127138D01*
X267089278Y-77946870D01*
X266960753Y-77789246D01*
X266803129Y-77660721D01*
X266622861Y-77566557D01*
X266427328Y-77510609D01*
X266427325Y-77510608D01*
X266308000Y-77500000D01*
X265500000Y-77500000D01*
X265500000Y-78450000D01*
X265000000Y-78450000D01*
X265000000Y-77500000D01*
X264191999Y-77500000D01*
X264072674Y-77510608D01*
X264072671Y-77510609D01*
X263877138Y-77566557D01*
X263696870Y-77660721D01*
X263539246Y-77789246D01*
X263410721Y-77946870D01*
X263316557Y-78127138D01*
X263260609Y-78322671D01*
X263260608Y-78322674D01*
X263250000Y-78441999D01*
X261694900Y-78441999D01*
X261694900Y-77818944D01*
X261714585Y-77751905D01*
X261746015Y-77718626D01*
X261841615Y-77649169D01*
X261841615Y-77649168D01*
X261841619Y-77649166D01*
X261986366Y-77504419D01*
X261986368Y-77504415D01*
X261986371Y-77504413D01*
X262044917Y-77423830D01*
X262106687Y-77338810D01*
X262199620Y-77156419D01*
X262262877Y-76961734D01*
X262294900Y-76759552D01*
X262294900Y-76554848D01*
X262266530Y-76375727D01*
X262262877Y-76352665D01*
X262199618Y-76157976D01*
X262106687Y-75975590D01*
X262043693Y-75888885D01*
X262020214Y-75823078D01*
X262036040Y-75755024D01*
X262086146Y-75706330D01*
X262144012Y-75692000D01*
X277002381Y-75692000D01*
X277069420Y-75711685D01*
X277090062Y-75728319D01*
X277692794Y-76331051D01*
X277726279Y-76392374D01*
X277727586Y-76438129D01*
X277709100Y-76554847D01*
X277709100Y-76759551D01*
X277741122Y-76961734D01*
X277804381Y-77156423D01*
X277840432Y-77227175D01*
X277893220Y-77330778D01*
X277897315Y-77338813D01*
X278017628Y-77504413D01*
X278162386Y-77649171D01*
X278300578Y-77749571D01*
X278327990Y-77769487D01*
X278410677Y-77811618D01*
X278510376Y-77862418D01*
X278510378Y-77862418D01*
X278510381Y-77862420D01*
X278548720Y-77874877D01*
X278705065Y-77925677D01*
X278806157Y-77941688D01*
X278907248Y-77957700D01*
X278907249Y-77957700D01*
X279111951Y-77957700D01*
X279111952Y-77957700D01*
X279314134Y-77925677D01*
X279508819Y-77862420D01*
X279691210Y-77769487D01*
X279788543Y-77698771D01*
X279856813Y-77649171D01*
X279856815Y-77649168D01*
X279856819Y-77649166D01*
X279921919Y-77584066D01*
X279925031Y-77582366D01*
X279926901Y-77579352D01*
X279955473Y-77565744D01*
X279983242Y-77550581D01*
X279986779Y-77550833D01*
X279989981Y-77549309D01*
X280021366Y-77553307D01*
X280052934Y-77555565D01*
X280056810Y-77557822D01*
X280059291Y-77558139D01*
X280070586Y-77565847D01*
X280089285Y-77576740D01*
X280093439Y-77580224D01*
X280162381Y-77649166D01*
X280261476Y-77721161D01*
X280264785Y-77723937D01*
X280281848Y-77749571D01*
X280300651Y-77773955D01*
X280301662Y-77779338D01*
X280303500Y-77782100D01*
X280303623Y-77789783D01*
X280309100Y-77818944D01*
X280309100Y-83227006D01*
X280309100Y-83364994D01*
X280309100Y-83364996D01*
X280309099Y-83364996D01*
X280336018Y-83500322D01*
X280336021Y-83500332D01*
X280388822Y-83627807D01*
X280465487Y-83742545D01*
X280465488Y-83742546D01*
X281599086Y-84876142D01*
X281688466Y-84965522D01*
X281696659Y-84973715D01*
X281811382Y-85050371D01*
X281811386Y-85050373D01*
X281811389Y-85050375D01*
X281886066Y-85081307D01*
X281938871Y-85103180D01*
X281965791Y-85108534D01*
X282062830Y-85127837D01*
X282074206Y-85130100D01*
X282074207Y-85130100D01*
X291239396Y-85130100D01*
X291347812Y-85108534D01*
X291374728Y-85103180D01*
X291438469Y-85076777D01*
X291502207Y-85050377D01*
X291502208Y-85050376D01*
X291502211Y-85050375D01*
X291616943Y-84973714D01*
X292086450Y-84504205D01*
X292147770Y-84470723D01*
X292193522Y-84469416D01*
X292389778Y-84500500D01*
X292389779Y-84500500D01*
X292610221Y-84500500D01*
X292610222Y-84500500D01*
X292827951Y-84466015D01*
X293037606Y-84397895D01*
X293234022Y-84297815D01*
X293412365Y-84168242D01*
X293568242Y-84012365D01*
X293697815Y-83834022D01*
X293797895Y-83637606D01*
X293866015Y-83427951D01*
X293900500Y-83210222D01*
X293900500Y-82989778D01*
X293866015Y-82772049D01*
X293797895Y-82562394D01*
X293797895Y-82562393D01*
X293752113Y-82472543D01*
X293697815Y-82365978D01*
X293649681Y-82299727D01*
X293568247Y-82187641D01*
X293568243Y-82187636D01*
X293412363Y-82031756D01*
X293412358Y-82031752D01*
X293234025Y-81902187D01*
X293234024Y-81902186D01*
X293234022Y-81902185D01*
X293150516Y-81859636D01*
X293037606Y-81802104D01*
X293037603Y-81802103D01*
X292827952Y-81733985D01*
X292681813Y-81710839D01*
X292610222Y-81699500D01*
X292389778Y-81699500D01*
X292318187Y-81710839D01*
X292172047Y-81733985D01*
X291962396Y-81802103D01*
X291962393Y-81802104D01*
X291765974Y-81902187D01*
X291587641Y-82031752D01*
X291587636Y-82031756D01*
X291431756Y-82187636D01*
X291431752Y-82187641D01*
X291350318Y-82299727D01*
X291294989Y-82342393D01*
X291225375Y-82348372D01*
X291163580Y-82315767D01*
X291149682Y-82299727D01*
X291068247Y-82187641D01*
X291068243Y-82187636D01*
X290912363Y-82031756D01*
X290912358Y-82031752D01*
X290734025Y-81902187D01*
X290734024Y-81902186D01*
X290734022Y-81902185D01*
X290650516Y-81859636D01*
X290537606Y-81802104D01*
X290537603Y-81802103D01*
X290327952Y-81733985D01*
X290181813Y-81710839D01*
X290110222Y-81699500D01*
X289889778Y-81699500D01*
X289818187Y-81710839D01*
X289672047Y-81733985D01*
X289462396Y-81802103D01*
X289462393Y-81802104D01*
X289265974Y-81902187D01*
X289087641Y-82031752D01*
X289087635Y-82031757D01*
X289066596Y-82052796D01*
X289005273Y-82086280D01*
X288935581Y-82081294D01*
X288879648Y-82039421D01*
X288862735Y-82008446D01*
X288843797Y-81957671D01*
X288843793Y-81957664D01*
X288757547Y-81842455D01*
X288757544Y-81842452D01*
X288642335Y-81756206D01*
X288642328Y-81756202D01*
X288507482Y-81705908D01*
X288507483Y-81705908D01*
X288447883Y-81699501D01*
X288447881Y-81699500D01*
X288447873Y-81699500D01*
X288447864Y-81699500D01*
X286552129Y-81699500D01*
X286552123Y-81699501D01*
X286492516Y-81705908D01*
X286357671Y-81756202D01*
X286357664Y-81756206D01*
X286242455Y-81842452D01*
X286242452Y-81842455D01*
X286156206Y-81957664D01*
X286156202Y-81957671D01*
X286105908Y-82092517D01*
X286099501Y-82152116D01*
X286099500Y-82152135D01*
X286099501Y-83605100D01*
X286079816Y-83672139D01*
X286027013Y-83717894D01*
X285975501Y-83729100D01*
X282484718Y-83729100D01*
X282417679Y-83709415D01*
X282397037Y-83692781D01*
X281746419Y-83042162D01*
X281712934Y-82980839D01*
X281710100Y-82954481D01*
X281710100Y-78441999D01*
X283250000Y-78441999D01*
X283250000Y-78750000D01*
X284409252Y-78750000D01*
X284387482Y-78787708D01*
X284350000Y-78927591D01*
X284350000Y-79072409D01*
X284387482Y-79212292D01*
X284409252Y-79250000D01*
X283250000Y-79250000D01*
X283250000Y-79558000D01*
X283260608Y-79677325D01*
X283260609Y-79677328D01*
X283316557Y-79872861D01*
X283410721Y-80053129D01*
X283539246Y-80210753D01*
X283696870Y-80339278D01*
X283877138Y-80433442D01*
X284072671Y-80489390D01*
X284072674Y-80489391D01*
X284191999Y-80499999D01*
X284192002Y-80500000D01*
X285000000Y-80500000D01*
X285000000Y-79550000D01*
X285500000Y-79550000D01*
X285500000Y-80500000D01*
X286307998Y-80500000D01*
X286308000Y-80499999D01*
X286427325Y-80489391D01*
X286427328Y-80489390D01*
X286622861Y-80433442D01*
X286803129Y-80339278D01*
X286960753Y-80210753D01*
X287089278Y-80053129D01*
X287183442Y-79872861D01*
X287239390Y-79677328D01*
X287239391Y-79677325D01*
X287249999Y-79558000D01*
X287250000Y-79557998D01*
X287250000Y-79250000D01*
X286090748Y-79250000D01*
X286112518Y-79212292D01*
X286150000Y-79072409D01*
X286150000Y-78927591D01*
X286112518Y-78787708D01*
X286090748Y-78750000D01*
X287250000Y-78750000D01*
X287250000Y-78442002D01*
X287249999Y-78441999D01*
X292750000Y-78441999D01*
X292750000Y-78750000D01*
X293909252Y-78750000D01*
X293887482Y-78787708D01*
X293850000Y-78927591D01*
X293850000Y-79072409D01*
X293887482Y-79212292D01*
X293909252Y-79250000D01*
X292750000Y-79250000D01*
X292750000Y-79558000D01*
X292760608Y-79677325D01*
X292760609Y-79677328D01*
X292816557Y-79872861D01*
X292910721Y-80053129D01*
X293039246Y-80210753D01*
X293196870Y-80339278D01*
X293377138Y-80433442D01*
X293572671Y-80489390D01*
X293572674Y-80489391D01*
X293691999Y-80499999D01*
X293692002Y-80500000D01*
X294500000Y-80500000D01*
X294500000Y-79550000D01*
X295000000Y-79550000D01*
X295000000Y-80500000D01*
X295807998Y-80500000D01*
X295808000Y-80499999D01*
X295927325Y-80489391D01*
X295927328Y-80489390D01*
X296122861Y-80433442D01*
X296303129Y-80339278D01*
X296460753Y-80210753D01*
X296589278Y-80053129D01*
X296683442Y-79872861D01*
X296739390Y-79677328D01*
X296739391Y-79677325D01*
X296749999Y-79558000D01*
X296750000Y-79557998D01*
X296750000Y-79250000D01*
X295590748Y-79250000D01*
X295612518Y-79212292D01*
X295650000Y-79072409D01*
X295650000Y-78927591D01*
X295612518Y-78787708D01*
X295590748Y-78750000D01*
X296750000Y-78750000D01*
X296750000Y-78442002D01*
X296749999Y-78441999D01*
X296739391Y-78322674D01*
X296739390Y-78322671D01*
X296683442Y-78127138D01*
X296589278Y-77946870D01*
X296460753Y-77789246D01*
X296303129Y-77660721D01*
X296122861Y-77566557D01*
X295927328Y-77510609D01*
X295927325Y-77510608D01*
X295808000Y-77500000D01*
X295000000Y-77500000D01*
X295000000Y-78450000D01*
X294500000Y-78450000D01*
X294500000Y-77500000D01*
X293691999Y-77500000D01*
X293572674Y-77510608D01*
X293572671Y-77510609D01*
X293377138Y-77566557D01*
X293196870Y-77660721D01*
X293039246Y-77789246D01*
X292910721Y-77946870D01*
X292816557Y-78127138D01*
X292760609Y-78322671D01*
X292760608Y-78322674D01*
X292750000Y-78441999D01*
X287249999Y-78441999D01*
X287239391Y-78322674D01*
X287239390Y-78322671D01*
X287183442Y-78127138D01*
X287089278Y-77946870D01*
X286960753Y-77789246D01*
X286803129Y-77660721D01*
X286622861Y-77566557D01*
X286427328Y-77510609D01*
X286427325Y-77510608D01*
X286308000Y-77500000D01*
X285500000Y-77500000D01*
X285500000Y-78450000D01*
X285000000Y-78450000D01*
X285000000Y-77500000D01*
X284191999Y-77500000D01*
X284072674Y-77510608D01*
X284072671Y-77510609D01*
X283877138Y-77566557D01*
X283696870Y-77660721D01*
X283539246Y-77789246D01*
X283410721Y-77946870D01*
X283316557Y-78127138D01*
X283260609Y-78322671D01*
X283260608Y-78322674D01*
X283250000Y-78441999D01*
X281710100Y-78441999D01*
X281710100Y-77818944D01*
X281729785Y-77751905D01*
X281761215Y-77718626D01*
X281856815Y-77649169D01*
X281856815Y-77649168D01*
X281856819Y-77649166D01*
X282001566Y-77504419D01*
X282001568Y-77504415D01*
X282001571Y-77504413D01*
X282060117Y-77423830D01*
X282121887Y-77338810D01*
X282214820Y-77156419D01*
X282278077Y-76961734D01*
X282310100Y-76759552D01*
X282310100Y-76554848D01*
X282281730Y-76375727D01*
X282278077Y-76352665D01*
X282214818Y-76157976D01*
X282121887Y-75975590D01*
X282058893Y-75888885D01*
X282035414Y-75823078D01*
X282051240Y-75755024D01*
X282101346Y-75706330D01*
X282159212Y-75692000D01*
X297017582Y-75692000D01*
X297084621Y-75711685D01*
X297105263Y-75728319D01*
X297707994Y-76331050D01*
X297741479Y-76392373D01*
X297742786Y-76438129D01*
X297724300Y-76554842D01*
X297724300Y-76759551D01*
X297756322Y-76961734D01*
X297819581Y-77156423D01*
X297855632Y-77227175D01*
X297908420Y-77330778D01*
X297912515Y-77338813D01*
X298032828Y-77504413D01*
X298177586Y-77649171D01*
X298315778Y-77749571D01*
X298343190Y-77769487D01*
X298425877Y-77811618D01*
X298525576Y-77862418D01*
X298525578Y-77862418D01*
X298525581Y-77862420D01*
X298563920Y-77874877D01*
X298720265Y-77925677D01*
X298821357Y-77941688D01*
X298922448Y-77957700D01*
X298922449Y-77957700D01*
X299127151Y-77957700D01*
X299127152Y-77957700D01*
X299329334Y-77925677D01*
X299524019Y-77862420D01*
X299706410Y-77769487D01*
X299803743Y-77698771D01*
X299872013Y-77649171D01*
X299872015Y-77649168D01*
X299872019Y-77649166D01*
X299937119Y-77584066D01*
X299940231Y-77582366D01*
X299942101Y-77579352D01*
X299970673Y-77565744D01*
X299998442Y-77550581D01*
X300001979Y-77550833D01*
X300005181Y-77549309D01*
X300036566Y-77553307D01*
X300068134Y-77555565D01*
X300072010Y-77557822D01*
X300074491Y-77558139D01*
X300085786Y-77565847D01*
X300104485Y-77576740D01*
X300108639Y-77580224D01*
X300177581Y-77649166D01*
X300276676Y-77721161D01*
X300279985Y-77723937D01*
X300297048Y-77749571D01*
X300315851Y-77773955D01*
X300316862Y-77779338D01*
X300318700Y-77782100D01*
X300318823Y-77789783D01*
X300324300Y-77818944D01*
X300324300Y-83227006D01*
X300324300Y-83364994D01*
X300324300Y-83364996D01*
X300324299Y-83364996D01*
X300351218Y-83500322D01*
X300351221Y-83500332D01*
X300404022Y-83627807D01*
X300480687Y-83742545D01*
X303794654Y-87056512D01*
X303909392Y-87133177D01*
X304036867Y-87185978D01*
X304036872Y-87185980D01*
X304036876Y-87185980D01*
X304036877Y-87185981D01*
X304172204Y-87212900D01*
X304172207Y-87212900D01*
X309156596Y-87212900D01*
X309247640Y-87194789D01*
X309291928Y-87185980D01*
X309355669Y-87159577D01*
X309419407Y-87133177D01*
X309419408Y-87133176D01*
X309419411Y-87133175D01*
X309534143Y-87056514D01*
X312086448Y-84504206D01*
X312147769Y-84470723D01*
X312193522Y-84469416D01*
X312389778Y-84500500D01*
X312389779Y-84500500D01*
X312610221Y-84500500D01*
X312610222Y-84500500D01*
X312827951Y-84466015D01*
X313037606Y-84397895D01*
X313234022Y-84297815D01*
X313412365Y-84168242D01*
X313568242Y-84012365D01*
X313697815Y-83834022D01*
X313797895Y-83637606D01*
X313866015Y-83427951D01*
X313900500Y-83210222D01*
X313900500Y-82989778D01*
X313866015Y-82772049D01*
X313797895Y-82562394D01*
X313797895Y-82562393D01*
X313752113Y-82472543D01*
X313697815Y-82365978D01*
X313649681Y-82299727D01*
X313568247Y-82187641D01*
X313568243Y-82187636D01*
X313412363Y-82031756D01*
X313412358Y-82031752D01*
X313234025Y-81902187D01*
X313234024Y-81902186D01*
X313234022Y-81902185D01*
X313150516Y-81859636D01*
X313037606Y-81802104D01*
X313037603Y-81802103D01*
X312827952Y-81733985D01*
X312681813Y-81710839D01*
X312610222Y-81699500D01*
X312389778Y-81699500D01*
X312318187Y-81710839D01*
X312172047Y-81733985D01*
X311962396Y-81802103D01*
X311962393Y-81802104D01*
X311765974Y-81902187D01*
X311587641Y-82031752D01*
X311587636Y-82031756D01*
X311431756Y-82187636D01*
X311431752Y-82187641D01*
X311350318Y-82299727D01*
X311294989Y-82342393D01*
X311225375Y-82348372D01*
X311163580Y-82315767D01*
X311149682Y-82299727D01*
X311068247Y-82187641D01*
X311068243Y-82187636D01*
X310912363Y-82031756D01*
X310912358Y-82031752D01*
X310734025Y-81902187D01*
X310734024Y-81902186D01*
X310734022Y-81902185D01*
X310650516Y-81859636D01*
X310537606Y-81802104D01*
X310537603Y-81802103D01*
X310327952Y-81733985D01*
X310181813Y-81710839D01*
X310110222Y-81699500D01*
X309889778Y-81699500D01*
X309818187Y-81710839D01*
X309672047Y-81733985D01*
X309462396Y-81802103D01*
X309462393Y-81802104D01*
X309265974Y-81902187D01*
X309087641Y-82031752D01*
X309087635Y-82031757D01*
X309066596Y-82052796D01*
X309005273Y-82086280D01*
X308935581Y-82081294D01*
X308879648Y-82039421D01*
X308862735Y-82008446D01*
X308843797Y-81957671D01*
X308843793Y-81957664D01*
X308757547Y-81842455D01*
X308757544Y-81842452D01*
X308642335Y-81756206D01*
X308642328Y-81756202D01*
X308507482Y-81705908D01*
X308507483Y-81705908D01*
X308447883Y-81699501D01*
X308447881Y-81699500D01*
X308447873Y-81699500D01*
X308447864Y-81699500D01*
X306552129Y-81699500D01*
X306552123Y-81699501D01*
X306492516Y-81705908D01*
X306357671Y-81756202D01*
X306357664Y-81756206D01*
X306242455Y-81842452D01*
X306242452Y-81842455D01*
X306156206Y-81957664D01*
X306156202Y-81957671D01*
X306105908Y-82092517D01*
X306099501Y-82152116D01*
X306099500Y-82152135D01*
X306099500Y-84047870D01*
X306099501Y-84047876D01*
X306105908Y-84107483D01*
X306156202Y-84242328D01*
X306156206Y-84242335D01*
X306242452Y-84357544D01*
X306242455Y-84357547D01*
X306357664Y-84443793D01*
X306357671Y-84443797D01*
X306492517Y-84494091D01*
X306492516Y-84494091D01*
X306499444Y-84494835D01*
X306552127Y-84500500D01*
X308447872Y-84500499D01*
X308507483Y-84494091D01*
X308642331Y-84443796D01*
X308757546Y-84357546D01*
X308843796Y-84242331D01*
X308853089Y-84217415D01*
X308862735Y-84191554D01*
X308904606Y-84135620D01*
X308970070Y-84111202D01*
X309038343Y-84126053D01*
X309066598Y-84147205D01*
X309087636Y-84168243D01*
X309087641Y-84168247D01*
X309119721Y-84191554D01*
X309265978Y-84297815D01*
X309392271Y-84362165D01*
X309462393Y-84397895D01*
X309462396Y-84397896D01*
X309563445Y-84430728D01*
X309672049Y-84466015D01*
X309833473Y-84491582D01*
X309838523Y-84492382D01*
X309901658Y-84522311D01*
X309938589Y-84581623D01*
X309937591Y-84651485D01*
X309906806Y-84702536D01*
X308833762Y-85775581D01*
X308772439Y-85809066D01*
X308746081Y-85811900D01*
X304582719Y-85811900D01*
X304515680Y-85792215D01*
X304495038Y-85775581D01*
X301761619Y-83042162D01*
X301728134Y-82980839D01*
X301725300Y-82954481D01*
X301725300Y-78441999D01*
X303250000Y-78441999D01*
X303250000Y-78750000D01*
X304409252Y-78750000D01*
X304387482Y-78787708D01*
X304350000Y-78927591D01*
X304350000Y-79072409D01*
X304387482Y-79212292D01*
X304409252Y-79250000D01*
X303250000Y-79250000D01*
X303250000Y-79558000D01*
X303260608Y-79677325D01*
X303260609Y-79677328D01*
X303316557Y-79872861D01*
X303410721Y-80053129D01*
X303539246Y-80210753D01*
X303696870Y-80339278D01*
X303877138Y-80433442D01*
X304072671Y-80489390D01*
X304072674Y-80489391D01*
X304191999Y-80499999D01*
X304192002Y-80500000D01*
X305000000Y-80500000D01*
X305000000Y-79550000D01*
X305500000Y-79550000D01*
X305500000Y-80500000D01*
X306307998Y-80500000D01*
X306308000Y-80499999D01*
X306427325Y-80489391D01*
X306427328Y-80489390D01*
X306622861Y-80433442D01*
X306803129Y-80339278D01*
X306960753Y-80210753D01*
X307089278Y-80053129D01*
X307183442Y-79872861D01*
X307239390Y-79677328D01*
X307239391Y-79677325D01*
X307249999Y-79558000D01*
X307250000Y-79557998D01*
X307250000Y-79250000D01*
X306090748Y-79250000D01*
X306112518Y-79212292D01*
X306150000Y-79072409D01*
X306150000Y-78927591D01*
X306112518Y-78787708D01*
X306090748Y-78750000D01*
X307250000Y-78750000D01*
X307250000Y-78442002D01*
X307249999Y-78441999D01*
X312750000Y-78441999D01*
X312750000Y-78750000D01*
X313909252Y-78750000D01*
X313887482Y-78787708D01*
X313850000Y-78927591D01*
X313850000Y-79072409D01*
X313887482Y-79212292D01*
X313909252Y-79250000D01*
X312750000Y-79250000D01*
X312750000Y-79558000D01*
X312760608Y-79677325D01*
X312760609Y-79677328D01*
X312816557Y-79872861D01*
X312910721Y-80053129D01*
X313039246Y-80210753D01*
X313196870Y-80339278D01*
X313377138Y-80433442D01*
X313572671Y-80489390D01*
X313572674Y-80489391D01*
X313691999Y-80499999D01*
X313692002Y-80500000D01*
X314500000Y-80500000D01*
X314500000Y-79550000D01*
X315000000Y-79550000D01*
X315000000Y-80500000D01*
X315807998Y-80500000D01*
X315808000Y-80499999D01*
X315927325Y-80489391D01*
X315927328Y-80489390D01*
X316122861Y-80433442D01*
X316303129Y-80339278D01*
X316460753Y-80210753D01*
X316589278Y-80053129D01*
X316683442Y-79872861D01*
X316739390Y-79677328D01*
X316739391Y-79677325D01*
X316749999Y-79558000D01*
X316750000Y-79557998D01*
X316750000Y-79250000D01*
X315590748Y-79250000D01*
X315612518Y-79212292D01*
X315650000Y-79072409D01*
X315650000Y-78927591D01*
X315612518Y-78787708D01*
X315590748Y-78750000D01*
X316750000Y-78750000D01*
X316750000Y-78442002D01*
X316749999Y-78441999D01*
X316739391Y-78322674D01*
X316739390Y-78322671D01*
X316683442Y-78127138D01*
X316589278Y-77946870D01*
X316460753Y-77789246D01*
X316303129Y-77660721D01*
X316122861Y-77566557D01*
X315927328Y-77510609D01*
X315927325Y-77510608D01*
X315808000Y-77500000D01*
X315000000Y-77500000D01*
X315000000Y-78450000D01*
X314500000Y-78450000D01*
X314500000Y-77500000D01*
X313691999Y-77500000D01*
X313572674Y-77510608D01*
X313572671Y-77510609D01*
X313377138Y-77566557D01*
X313196870Y-77660721D01*
X313039246Y-77789246D01*
X312910721Y-77946870D01*
X312816557Y-78127138D01*
X312760609Y-78322671D01*
X312760608Y-78322674D01*
X312750000Y-78441999D01*
X307249999Y-78441999D01*
X307239391Y-78322674D01*
X307239390Y-78322671D01*
X307183442Y-78127138D01*
X307089278Y-77946870D01*
X306960753Y-77789246D01*
X306803129Y-77660721D01*
X306622861Y-77566557D01*
X306427328Y-77510609D01*
X306427325Y-77510608D01*
X306308000Y-77500000D01*
X305500000Y-77500000D01*
X305500000Y-78450000D01*
X305000000Y-78450000D01*
X305000000Y-77500000D01*
X304191999Y-77500000D01*
X304072674Y-77510608D01*
X304072671Y-77510609D01*
X303877138Y-77566557D01*
X303696870Y-77660721D01*
X303539246Y-77789246D01*
X303410721Y-77946870D01*
X303316557Y-78127138D01*
X303260609Y-78322671D01*
X303260608Y-78322674D01*
X303250000Y-78441999D01*
X301725300Y-78441999D01*
X301725300Y-77818944D01*
X301744985Y-77751905D01*
X301776415Y-77718626D01*
X301872015Y-77649169D01*
X301872015Y-77649168D01*
X301872019Y-77649166D01*
X302016766Y-77504419D01*
X302016768Y-77504415D01*
X302016771Y-77504413D01*
X302075317Y-77423830D01*
X302137087Y-77338810D01*
X302230020Y-77156419D01*
X302293277Y-76961734D01*
X302325300Y-76759552D01*
X302325300Y-76554848D01*
X302296930Y-76375727D01*
X302293277Y-76352665D01*
X302230018Y-76157976D01*
X302137087Y-75975590D01*
X302074093Y-75888885D01*
X302050614Y-75823078D01*
X302066440Y-75755024D01*
X302116546Y-75706330D01*
X302174412Y-75692000D01*
X316981981Y-75692000D01*
X317049020Y-75711685D01*
X317069662Y-75728319D01*
X317672394Y-76331051D01*
X317705879Y-76392374D01*
X317707186Y-76438129D01*
X317688700Y-76554847D01*
X317688700Y-76759551D01*
X317720722Y-76961734D01*
X317783981Y-77156423D01*
X317820032Y-77227175D01*
X317872820Y-77330778D01*
X317876915Y-77338813D01*
X317997228Y-77504413D01*
X318141986Y-77649171D01*
X318280178Y-77749571D01*
X318307590Y-77769487D01*
X318390277Y-77811618D01*
X318489976Y-77862418D01*
X318489978Y-77862418D01*
X318489981Y-77862420D01*
X318528320Y-77874877D01*
X318684665Y-77925677D01*
X318785757Y-77941688D01*
X318886848Y-77957700D01*
X318886849Y-77957700D01*
X319091551Y-77957700D01*
X319091552Y-77957700D01*
X319293734Y-77925677D01*
X319488419Y-77862420D01*
X319670810Y-77769487D01*
X319768143Y-77698771D01*
X319836413Y-77649171D01*
X319836415Y-77649168D01*
X319836419Y-77649166D01*
X319901519Y-77584066D01*
X319904631Y-77582366D01*
X319906501Y-77579352D01*
X319935073Y-77565744D01*
X319962842Y-77550581D01*
X319966379Y-77550833D01*
X319969581Y-77549309D01*
X320000966Y-77553307D01*
X320032534Y-77555565D01*
X320036410Y-77557822D01*
X320038891Y-77558139D01*
X320050186Y-77565847D01*
X320068885Y-77576740D01*
X320073039Y-77580224D01*
X320141981Y-77649166D01*
X320241076Y-77721161D01*
X320244385Y-77723937D01*
X320261448Y-77749571D01*
X320280251Y-77773955D01*
X320281262Y-77779338D01*
X320283100Y-77782100D01*
X320283223Y-77789783D01*
X320288700Y-77818944D01*
X320288700Y-83887406D01*
X320288700Y-84025394D01*
X320288700Y-84025396D01*
X320288699Y-84025396D01*
X320315618Y-84160722D01*
X320315621Y-84160732D01*
X320368422Y-84288207D01*
X320445087Y-84402945D01*
X323505054Y-87462912D01*
X323505057Y-87462914D01*
X323619789Y-87539575D01*
X323747271Y-87592380D01*
X323762574Y-87595423D01*
X323769697Y-87596841D01*
X323769710Y-87596843D01*
X323769724Y-87596846D01*
X323826165Y-87608073D01*
X323882604Y-87619300D01*
X323882606Y-87619300D01*
X324020596Y-87619300D01*
X324133501Y-87596841D01*
X324155928Y-87592380D01*
X324219669Y-87565977D01*
X324283407Y-87539577D01*
X324283408Y-87539576D01*
X324283411Y-87539575D01*
X324398143Y-87462914D01*
X324459439Y-87401617D01*
X324520760Y-87368134D01*
X324547119Y-87365300D01*
X330370596Y-87365300D01*
X330461640Y-87347189D01*
X330505928Y-87338380D01*
X330569669Y-87311977D01*
X330633407Y-87285577D01*
X330633408Y-87285576D01*
X330633411Y-87285575D01*
X330748143Y-87208914D01*
X333044114Y-84912943D01*
X333120775Y-84798211D01*
X333173580Y-84670728D01*
X333190912Y-84583597D01*
X333200500Y-84535396D01*
X333200500Y-84385351D01*
X333220185Y-84318312D01*
X333251611Y-84285035D01*
X333412365Y-84168242D01*
X333568242Y-84012365D01*
X333697815Y-83834022D01*
X333797895Y-83637606D01*
X333866015Y-83427951D01*
X333900500Y-83210222D01*
X333900500Y-82989778D01*
X333866015Y-82772049D01*
X333797895Y-82562394D01*
X333797895Y-82562393D01*
X333752113Y-82472543D01*
X333697815Y-82365978D01*
X333649681Y-82299727D01*
X333568247Y-82187641D01*
X333568243Y-82187636D01*
X333412363Y-82031756D01*
X333412358Y-82031752D01*
X333234025Y-81902187D01*
X333234024Y-81902186D01*
X333234022Y-81902185D01*
X333150516Y-81859636D01*
X333037606Y-81802104D01*
X333037603Y-81802103D01*
X332827952Y-81733985D01*
X332681813Y-81710839D01*
X332610222Y-81699500D01*
X332389778Y-81699500D01*
X332318187Y-81710839D01*
X332172047Y-81733985D01*
X331962396Y-81802103D01*
X331962393Y-81802104D01*
X331765974Y-81902187D01*
X331587641Y-82031752D01*
X331587636Y-82031756D01*
X331431756Y-82187636D01*
X331431752Y-82187641D01*
X331350318Y-82299727D01*
X331294989Y-82342393D01*
X331225375Y-82348372D01*
X331163580Y-82315767D01*
X331149682Y-82299727D01*
X331068247Y-82187641D01*
X331068243Y-82187636D01*
X330912363Y-82031756D01*
X330912358Y-82031752D01*
X330734025Y-81902187D01*
X330734024Y-81902186D01*
X330734022Y-81902185D01*
X330650516Y-81859636D01*
X330537606Y-81802104D01*
X330537603Y-81802103D01*
X330327952Y-81733985D01*
X330181813Y-81710839D01*
X330110222Y-81699500D01*
X329889778Y-81699500D01*
X329818187Y-81710839D01*
X329672047Y-81733985D01*
X329462396Y-81802103D01*
X329462393Y-81802104D01*
X329265974Y-81902187D01*
X329087641Y-82031752D01*
X329087635Y-82031757D01*
X329066596Y-82052796D01*
X329005273Y-82086280D01*
X328935581Y-82081294D01*
X328879648Y-82039421D01*
X328862735Y-82008446D01*
X328843797Y-81957671D01*
X328843793Y-81957664D01*
X328757547Y-81842455D01*
X328757544Y-81842452D01*
X328642335Y-81756206D01*
X328642328Y-81756202D01*
X328507482Y-81705908D01*
X328507483Y-81705908D01*
X328447883Y-81699501D01*
X328447881Y-81699500D01*
X328447873Y-81699500D01*
X328447864Y-81699500D01*
X326552129Y-81699500D01*
X326552123Y-81699501D01*
X326492516Y-81705908D01*
X326357671Y-81756202D01*
X326357664Y-81756206D01*
X326242455Y-81842452D01*
X326242452Y-81842455D01*
X326156206Y-81957664D01*
X326156202Y-81957671D01*
X326105908Y-82092517D01*
X326099501Y-82152116D01*
X326099500Y-82152135D01*
X326099500Y-84047870D01*
X326099501Y-84047876D01*
X326105908Y-84107483D01*
X326156202Y-84242328D01*
X326156206Y-84242335D01*
X326242452Y-84357544D01*
X326242455Y-84357547D01*
X326357664Y-84443793D01*
X326357671Y-84443797D01*
X326492517Y-84494091D01*
X326492516Y-84494091D01*
X326499444Y-84494835D01*
X326552127Y-84500500D01*
X328447872Y-84500499D01*
X328507483Y-84494091D01*
X328642331Y-84443796D01*
X328757546Y-84357546D01*
X328843796Y-84242331D01*
X328853089Y-84217415D01*
X328862735Y-84191554D01*
X328904606Y-84135620D01*
X328970070Y-84111202D01*
X329038343Y-84126053D01*
X329066598Y-84147205D01*
X329087636Y-84168243D01*
X329087641Y-84168247D01*
X329119721Y-84191554D01*
X329265978Y-84297815D01*
X329392271Y-84362165D01*
X329462393Y-84397895D01*
X329462396Y-84397896D01*
X329563445Y-84430728D01*
X329672049Y-84466015D01*
X329889778Y-84500500D01*
X329889779Y-84500500D01*
X330110221Y-84500500D01*
X330110222Y-84500500D01*
X330327951Y-84466015D01*
X330537606Y-84397895D01*
X330734022Y-84297815D01*
X330912365Y-84168242D01*
X331068242Y-84012365D01*
X331149682Y-83900270D01*
X331205011Y-83857606D01*
X331274624Y-83851627D01*
X331336420Y-83884232D01*
X331350313Y-83900265D01*
X331431130Y-84011500D01*
X331431758Y-84012365D01*
X331587635Y-84168242D01*
X331597523Y-84175426D01*
X331640188Y-84230757D01*
X331646166Y-84300370D01*
X331613559Y-84362165D01*
X331612317Y-84363424D01*
X330047762Y-85927981D01*
X329986439Y-85961466D01*
X329960081Y-85964300D01*
X324136603Y-85964300D01*
X324077458Y-85976065D01*
X324007867Y-85969838D01*
X323965586Y-85942129D01*
X321726019Y-83702562D01*
X321692534Y-83641239D01*
X321689700Y-83614881D01*
X321689700Y-78441999D01*
X323250000Y-78441999D01*
X323250000Y-78750000D01*
X324409252Y-78750000D01*
X324387482Y-78787708D01*
X324350000Y-78927591D01*
X324350000Y-79072409D01*
X324387482Y-79212292D01*
X324409252Y-79250000D01*
X323250000Y-79250000D01*
X323250000Y-79558000D01*
X323260608Y-79677325D01*
X323260609Y-79677328D01*
X323316557Y-79872861D01*
X323410721Y-80053129D01*
X323539246Y-80210753D01*
X323696870Y-80339278D01*
X323877138Y-80433442D01*
X324072671Y-80489390D01*
X324072674Y-80489391D01*
X324191999Y-80499999D01*
X324192002Y-80500000D01*
X325000000Y-80500000D01*
X325000000Y-79550000D01*
X325500000Y-79550000D01*
X325500000Y-80500000D01*
X326307998Y-80500000D01*
X326308000Y-80499999D01*
X326427325Y-80489391D01*
X326427328Y-80489390D01*
X326622861Y-80433442D01*
X326803129Y-80339278D01*
X326960753Y-80210753D01*
X327089278Y-80053129D01*
X327183442Y-79872861D01*
X327239390Y-79677328D01*
X327239391Y-79677325D01*
X327249999Y-79558000D01*
X327250000Y-79557998D01*
X327250000Y-79250000D01*
X326090748Y-79250000D01*
X326112518Y-79212292D01*
X326150000Y-79072409D01*
X326150000Y-78927591D01*
X326112518Y-78787708D01*
X326090748Y-78750000D01*
X327250000Y-78750000D01*
X327250000Y-78442002D01*
X327249999Y-78441999D01*
X332750000Y-78441999D01*
X332750000Y-78750000D01*
X333909252Y-78750000D01*
X333887482Y-78787708D01*
X333850000Y-78927591D01*
X333850000Y-79072409D01*
X333887482Y-79212292D01*
X333909252Y-79250000D01*
X332750000Y-79250000D01*
X332750000Y-79558000D01*
X332760608Y-79677325D01*
X332760609Y-79677328D01*
X332816557Y-79872861D01*
X332910721Y-80053129D01*
X333039246Y-80210753D01*
X333196870Y-80339278D01*
X333377138Y-80433442D01*
X333572671Y-80489390D01*
X333572674Y-80489391D01*
X333691999Y-80499999D01*
X333692002Y-80500000D01*
X334500000Y-80500000D01*
X334500000Y-79550000D01*
X335000000Y-79550000D01*
X335000000Y-80500000D01*
X335807998Y-80500000D01*
X335808000Y-80499999D01*
X335927325Y-80489391D01*
X335927328Y-80489390D01*
X336122861Y-80433442D01*
X336303129Y-80339278D01*
X336460753Y-80210753D01*
X336589278Y-80053129D01*
X336683442Y-79872861D01*
X336739390Y-79677328D01*
X336739391Y-79677325D01*
X336749999Y-79558000D01*
X336750000Y-79557998D01*
X336750000Y-79250000D01*
X335590748Y-79250000D01*
X335612518Y-79212292D01*
X335650000Y-79072409D01*
X335650000Y-78927591D01*
X335612518Y-78787708D01*
X335590748Y-78750000D01*
X336750000Y-78750000D01*
X336750000Y-78442002D01*
X336749999Y-78441999D01*
X336739391Y-78322674D01*
X336739390Y-78322671D01*
X336683442Y-78127138D01*
X336589278Y-77946870D01*
X336460753Y-77789246D01*
X336303129Y-77660721D01*
X336122861Y-77566557D01*
X335927328Y-77510609D01*
X335927325Y-77510608D01*
X335808000Y-77500000D01*
X335000000Y-77500000D01*
X335000000Y-78450000D01*
X334500000Y-78450000D01*
X334500000Y-77500000D01*
X333691999Y-77500000D01*
X333572674Y-77510608D01*
X333572671Y-77510609D01*
X333377138Y-77566557D01*
X333196870Y-77660721D01*
X333039246Y-77789246D01*
X332910721Y-77946870D01*
X332816557Y-78127138D01*
X332760609Y-78322671D01*
X332760608Y-78322674D01*
X332750000Y-78441999D01*
X327249999Y-78441999D01*
X327239391Y-78322674D01*
X327239390Y-78322671D01*
X327183442Y-78127138D01*
X327089278Y-77946870D01*
X326960753Y-77789246D01*
X326803129Y-77660721D01*
X326622861Y-77566557D01*
X326427328Y-77510609D01*
X326427325Y-77510608D01*
X326308000Y-77500000D01*
X325500000Y-77500000D01*
X325500000Y-78450000D01*
X325000000Y-78450000D01*
X325000000Y-77500000D01*
X324191999Y-77500000D01*
X324072674Y-77510608D01*
X324072671Y-77510609D01*
X323877138Y-77566557D01*
X323696870Y-77660721D01*
X323539246Y-77789246D01*
X323410721Y-77946870D01*
X323316557Y-78127138D01*
X323260609Y-78322671D01*
X323260608Y-78322674D01*
X323250000Y-78441999D01*
X321689700Y-78441999D01*
X321689700Y-77818944D01*
X321709385Y-77751905D01*
X321740815Y-77718626D01*
X321836415Y-77649169D01*
X321836415Y-77649168D01*
X321836419Y-77649166D01*
X321981166Y-77504419D01*
X321981168Y-77504415D01*
X321981171Y-77504413D01*
X322039717Y-77423830D01*
X322101487Y-77338810D01*
X322194420Y-77156419D01*
X322257677Y-76961734D01*
X322289700Y-76759552D01*
X322289700Y-76554848D01*
X322261330Y-76375727D01*
X322257677Y-76352665D01*
X322194418Y-76157976D01*
X322101487Y-75975590D01*
X322038493Y-75888885D01*
X322015014Y-75823078D01*
X322030840Y-75755024D01*
X322080946Y-75706330D01*
X322138812Y-75692000D01*
X336997181Y-75692000D01*
X337064220Y-75711685D01*
X337084862Y-75728319D01*
X337687594Y-76331051D01*
X337721079Y-76392374D01*
X337722386Y-76438129D01*
X337703900Y-76554847D01*
X337703900Y-76759551D01*
X337735922Y-76961734D01*
X337799181Y-77156423D01*
X337835232Y-77227175D01*
X337888020Y-77330778D01*
X337892115Y-77338813D01*
X338012428Y-77504413D01*
X338157186Y-77649171D01*
X338295378Y-77749571D01*
X338322790Y-77769487D01*
X338405477Y-77811618D01*
X338505176Y-77862418D01*
X338505178Y-77862418D01*
X338505181Y-77862420D01*
X338543520Y-77874877D01*
X338699865Y-77925677D01*
X338800957Y-77941688D01*
X338902048Y-77957700D01*
X338902049Y-77957700D01*
X339106751Y-77957700D01*
X339106752Y-77957700D01*
X339308934Y-77925677D01*
X339503619Y-77862420D01*
X339686010Y-77769487D01*
X339783343Y-77698771D01*
X339851613Y-77649171D01*
X339851615Y-77649168D01*
X339851619Y-77649166D01*
X339916719Y-77584066D01*
X339919831Y-77582366D01*
X339921701Y-77579352D01*
X339950273Y-77565744D01*
X339978042Y-77550581D01*
X339981579Y-77550833D01*
X339984781Y-77549309D01*
X340016166Y-77553307D01*
X340047734Y-77555565D01*
X340051610Y-77557822D01*
X340054091Y-77558139D01*
X340065386Y-77565847D01*
X340084085Y-77576740D01*
X340088239Y-77580224D01*
X340157181Y-77649166D01*
X340256276Y-77721161D01*
X340259585Y-77723937D01*
X340276648Y-77749571D01*
X340295451Y-77773955D01*
X340296462Y-77779338D01*
X340298300Y-77782100D01*
X340298423Y-77789783D01*
X340303900Y-77818944D01*
X340303900Y-80839406D01*
X340303900Y-80977394D01*
X340303900Y-80977396D01*
X340303899Y-80977396D01*
X340330818Y-81112722D01*
X340330821Y-81112732D01*
X340383622Y-81240207D01*
X340460287Y-81354945D01*
X340460288Y-81354946D01*
X344587057Y-85481714D01*
X344587060Y-85481717D01*
X344607141Y-85495133D01*
X344616969Y-85501700D01*
X344701789Y-85558375D01*
X344791932Y-85595713D01*
X344829271Y-85611180D01*
X344856191Y-85616534D01*
X344943634Y-85633928D01*
X344964606Y-85638100D01*
X344964607Y-85638100D01*
X350731396Y-85638100D01*
X350839857Y-85616525D01*
X350866728Y-85611180D01*
X350930469Y-85584777D01*
X350994207Y-85558377D01*
X350994208Y-85558376D01*
X350994211Y-85558375D01*
X351108943Y-85481714D01*
X352086449Y-84504206D01*
X352147770Y-84470723D01*
X352193522Y-84469416D01*
X352389778Y-84500500D01*
X352389779Y-84500500D01*
X352610221Y-84500500D01*
X352610222Y-84500500D01*
X352827951Y-84466015D01*
X353037606Y-84397895D01*
X353234022Y-84297815D01*
X353412365Y-84168242D01*
X353568242Y-84012365D01*
X353697815Y-83834022D01*
X353797895Y-83637606D01*
X353866015Y-83427951D01*
X353900500Y-83210222D01*
X353900500Y-82989778D01*
X353866015Y-82772049D01*
X353797895Y-82562394D01*
X353797895Y-82562393D01*
X353752113Y-82472543D01*
X353697815Y-82365978D01*
X353649681Y-82299727D01*
X353568247Y-82187641D01*
X353568243Y-82187636D01*
X353412363Y-82031756D01*
X353412358Y-82031752D01*
X353234025Y-81902187D01*
X353234024Y-81902186D01*
X353234022Y-81902185D01*
X353150516Y-81859636D01*
X353037606Y-81802104D01*
X353037603Y-81802103D01*
X352827952Y-81733985D01*
X352681813Y-81710839D01*
X352610222Y-81699500D01*
X352389778Y-81699500D01*
X352318187Y-81710839D01*
X352172047Y-81733985D01*
X351962396Y-81802103D01*
X351962393Y-81802104D01*
X351765974Y-81902187D01*
X351587641Y-82031752D01*
X351587636Y-82031756D01*
X351431756Y-82187636D01*
X351431752Y-82187641D01*
X351350318Y-82299727D01*
X351294989Y-82342393D01*
X351225375Y-82348372D01*
X351163580Y-82315767D01*
X351149682Y-82299727D01*
X351068247Y-82187641D01*
X351068243Y-82187636D01*
X350912363Y-82031756D01*
X350912358Y-82031752D01*
X350734025Y-81902187D01*
X350734024Y-81902186D01*
X350734022Y-81902185D01*
X350650516Y-81859636D01*
X350537606Y-81802104D01*
X350537603Y-81802103D01*
X350327952Y-81733985D01*
X350181813Y-81710839D01*
X350110222Y-81699500D01*
X349889778Y-81699500D01*
X349818187Y-81710839D01*
X349672047Y-81733985D01*
X349462396Y-81802103D01*
X349462393Y-81802104D01*
X349265974Y-81902187D01*
X349087641Y-82031752D01*
X349087635Y-82031757D01*
X349066596Y-82052796D01*
X349005273Y-82086280D01*
X348935581Y-82081294D01*
X348879648Y-82039421D01*
X348862735Y-82008446D01*
X348843797Y-81957671D01*
X348843793Y-81957664D01*
X348757547Y-81842455D01*
X348757544Y-81842452D01*
X348642335Y-81756206D01*
X348642328Y-81756202D01*
X348507482Y-81705908D01*
X348507483Y-81705908D01*
X348447883Y-81699501D01*
X348447881Y-81699500D01*
X348447873Y-81699500D01*
X348447864Y-81699500D01*
X346552129Y-81699500D01*
X346552123Y-81699501D01*
X346492516Y-81705908D01*
X346357671Y-81756202D01*
X346357664Y-81756206D01*
X346242455Y-81842452D01*
X346242452Y-81842455D01*
X346156206Y-81957664D01*
X346156202Y-81957671D01*
X346105908Y-82092517D01*
X346099501Y-82152116D01*
X346099500Y-82152135D01*
X346099500Y-84047870D01*
X346099501Y-84047876D01*
X346105088Y-84099847D01*
X346092681Y-84168606D01*
X346045070Y-84219743D01*
X345981798Y-84237100D01*
X345375119Y-84237100D01*
X345308080Y-84217415D01*
X345287438Y-84200781D01*
X341741219Y-80654562D01*
X341707734Y-80593239D01*
X341704900Y-80566881D01*
X341704900Y-78441999D01*
X343250000Y-78441999D01*
X343250000Y-78750000D01*
X344409252Y-78750000D01*
X344387482Y-78787708D01*
X344350000Y-78927591D01*
X344350000Y-79072409D01*
X344387482Y-79212292D01*
X344409252Y-79250000D01*
X343250000Y-79250000D01*
X343250000Y-79558000D01*
X343260608Y-79677325D01*
X343260609Y-79677328D01*
X343316557Y-79872861D01*
X343410721Y-80053129D01*
X343539246Y-80210753D01*
X343696870Y-80339278D01*
X343877138Y-80433442D01*
X344072671Y-80489390D01*
X344072674Y-80489391D01*
X344191999Y-80499999D01*
X344192002Y-80500000D01*
X345000000Y-80500000D01*
X345000000Y-79550000D01*
X345500000Y-79550000D01*
X345500000Y-80500000D01*
X346307998Y-80500000D01*
X346308000Y-80499999D01*
X346427325Y-80489391D01*
X346427328Y-80489390D01*
X346622861Y-80433442D01*
X346803129Y-80339278D01*
X346960753Y-80210753D01*
X347089278Y-80053129D01*
X347183442Y-79872861D01*
X347239390Y-79677328D01*
X347239391Y-79677325D01*
X347249999Y-79558000D01*
X347250000Y-79557998D01*
X347250000Y-79250000D01*
X346090748Y-79250000D01*
X346112518Y-79212292D01*
X346150000Y-79072409D01*
X346150000Y-78927591D01*
X346112518Y-78787708D01*
X346090748Y-78750000D01*
X347250000Y-78750000D01*
X347250000Y-78442002D01*
X347249999Y-78441999D01*
X347239391Y-78322674D01*
X347239390Y-78322671D01*
X347183442Y-78127138D01*
X347089278Y-77946870D01*
X346960753Y-77789246D01*
X346803129Y-77660721D01*
X346622861Y-77566557D01*
X346427328Y-77510609D01*
X346427325Y-77510608D01*
X346308000Y-77500000D01*
X345500000Y-77500000D01*
X345500000Y-78450000D01*
X345000000Y-78450000D01*
X345000000Y-77500000D01*
X344191999Y-77500000D01*
X344072674Y-77510608D01*
X344072671Y-77510609D01*
X343877138Y-77566557D01*
X343696870Y-77660721D01*
X343539246Y-77789246D01*
X343410721Y-77946870D01*
X343316557Y-78127138D01*
X343260609Y-78322671D01*
X343260608Y-78322674D01*
X343250000Y-78441999D01*
X341704900Y-78441999D01*
X341704900Y-77818944D01*
X341724585Y-77751905D01*
X341756015Y-77718626D01*
X341851615Y-77649169D01*
X341851615Y-77649168D01*
X341851619Y-77649166D01*
X341996366Y-77504419D01*
X341996368Y-77504415D01*
X341996371Y-77504413D01*
X342054917Y-77423830D01*
X342116687Y-77338810D01*
X342209620Y-77156419D01*
X342272877Y-76961734D01*
X342304900Y-76759552D01*
X342304900Y-76554848D01*
X342276530Y-76375727D01*
X342272877Y-76352665D01*
X342209618Y-76157976D01*
X342116687Y-75975590D01*
X342053693Y-75888885D01*
X342030214Y-75823078D01*
X342046040Y-75755024D01*
X342096146Y-75706330D01*
X342154012Y-75692000D01*
X346226781Y-75692000D01*
X346293820Y-75711685D01*
X346314462Y-75728319D01*
X347787453Y-77201311D01*
X347787454Y-77201312D01*
X347902190Y-77277976D01*
X348000790Y-77318817D01*
X348029671Y-77330780D01*
X348029672Y-77330780D01*
X348029677Y-77330782D01*
X348056545Y-77336125D01*
X348056551Y-77336126D01*
X348056591Y-77336134D01*
X348146937Y-77354105D01*
X348165006Y-77357700D01*
X348165007Y-77357700D01*
X353271768Y-77357700D01*
X353338807Y-77377385D01*
X353384562Y-77430189D01*
X353394506Y-77499347D01*
X353365481Y-77562903D01*
X353329179Y-77591609D01*
X353196870Y-77660721D01*
X353039246Y-77789246D01*
X352910721Y-77946870D01*
X352816557Y-78127138D01*
X352760609Y-78322671D01*
X352760608Y-78322674D01*
X352750000Y-78441999D01*
X352750000Y-78750000D01*
X353909252Y-78750000D01*
X353887482Y-78787708D01*
X353850000Y-78927591D01*
X353850000Y-79072409D01*
X353887482Y-79212292D01*
X353909252Y-79250000D01*
X352750000Y-79250000D01*
X352750000Y-79558000D01*
X352760608Y-79677325D01*
X352760609Y-79677328D01*
X352816557Y-79872861D01*
X352910721Y-80053129D01*
X353039246Y-80210753D01*
X353196870Y-80339278D01*
X353377138Y-80433442D01*
X353572671Y-80489390D01*
X353572674Y-80489391D01*
X353691999Y-80499999D01*
X353692002Y-80500000D01*
X354500000Y-80500000D01*
X354500000Y-79550000D01*
X355000000Y-79550000D01*
X355000000Y-80500000D01*
X355807998Y-80500000D01*
X355808000Y-80499999D01*
X355927325Y-80489391D01*
X355927328Y-80489390D01*
X356122861Y-80433442D01*
X356303129Y-80339278D01*
X356460753Y-80210753D01*
X356589278Y-80053129D01*
X356683442Y-79872861D01*
X356739390Y-79677328D01*
X356739391Y-79677325D01*
X356749999Y-79558000D01*
X356750000Y-79557998D01*
X356750000Y-79250000D01*
X355590748Y-79250000D01*
X355612518Y-79212292D01*
X355650000Y-79072409D01*
X355650000Y-78927591D01*
X355612518Y-78787708D01*
X355590748Y-78750000D01*
X356750000Y-78750000D01*
X356750000Y-78442002D01*
X356749999Y-78441999D01*
X356739391Y-78322674D01*
X356739390Y-78322671D01*
X356683442Y-78127138D01*
X356589278Y-77946870D01*
X356460753Y-77789246D01*
X356303129Y-77660721D01*
X356170821Y-77591609D01*
X356120513Y-77543122D01*
X356104406Y-77475134D01*
X356127612Y-77409231D01*
X356182765Y-77366336D01*
X356228232Y-77357700D01*
X357857856Y-77357700D01*
X357924895Y-77377385D01*
X357958174Y-77408815D01*
X357969083Y-77423830D01*
X358027630Y-77504415D01*
X358172386Y-77649171D01*
X358310578Y-77749571D01*
X358337990Y-77769487D01*
X358420677Y-77811618D01*
X358520376Y-77862418D01*
X358520378Y-77862418D01*
X358520381Y-77862420D01*
X358558720Y-77874877D01*
X358715065Y-77925677D01*
X358816157Y-77941688D01*
X358917248Y-77957700D01*
X358917249Y-77957700D01*
X359121951Y-77957700D01*
X359121952Y-77957700D01*
X359324134Y-77925677D01*
X359518819Y-77862420D01*
X359701210Y-77769487D01*
X359798543Y-77698771D01*
X359866813Y-77649171D01*
X359866815Y-77649168D01*
X359866819Y-77649166D01*
X359931919Y-77584066D01*
X359993242Y-77550581D01*
X360062934Y-77555565D01*
X360107281Y-77584066D01*
X360172386Y-77649171D01*
X360310578Y-77749571D01*
X360337990Y-77769487D01*
X360420677Y-77811618D01*
X360520376Y-77862418D01*
X360520378Y-77862418D01*
X360520381Y-77862420D01*
X360558720Y-77874877D01*
X360715065Y-77925677D01*
X360816157Y-77941688D01*
X360917248Y-77957700D01*
X360917249Y-77957700D01*
X361121951Y-77957700D01*
X361121952Y-77957700D01*
X361324134Y-77925677D01*
X361518819Y-77862420D01*
X361701210Y-77769487D01*
X361798543Y-77698771D01*
X361866813Y-77649171D01*
X361866815Y-77649168D01*
X361866819Y-77649166D01*
X362011566Y-77504419D01*
X362011568Y-77504415D01*
X362011571Y-77504413D01*
X362070117Y-77423830D01*
X362131887Y-77338810D01*
X362224820Y-77156419D01*
X362288077Y-76961734D01*
X362320100Y-76759552D01*
X362320100Y-76554848D01*
X362291730Y-76375727D01*
X362288077Y-76352665D01*
X362224818Y-76157976D01*
X362131887Y-75975590D01*
X362068893Y-75888885D01*
X362045414Y-75823078D01*
X362061240Y-75755024D01*
X362111346Y-75706330D01*
X362169212Y-75692000D01*
X365276782Y-75692000D01*
X365343821Y-75711685D01*
X365364463Y-75728319D01*
X366763181Y-77127037D01*
X366777884Y-77153964D01*
X366794477Y-77179783D01*
X366795368Y-77185983D01*
X366796666Y-77188360D01*
X366799500Y-77214718D01*
X366799500Y-77454155D01*
X366779815Y-77521194D01*
X366727011Y-77566949D01*
X366657853Y-77576893D01*
X366629186Y-77567658D01*
X366628695Y-77568888D01*
X366622860Y-77566557D01*
X366427328Y-77510609D01*
X366427325Y-77510608D01*
X366308000Y-77500000D01*
X365500000Y-77500000D01*
X365500000Y-78450000D01*
X365000000Y-78450000D01*
X365000000Y-77500000D01*
X364191999Y-77500000D01*
X364072674Y-77510608D01*
X364072671Y-77510609D01*
X363877138Y-77566557D01*
X363696870Y-77660721D01*
X363539246Y-77789246D01*
X363410721Y-77946870D01*
X363316557Y-78127138D01*
X363260609Y-78322671D01*
X363260608Y-78322674D01*
X363250000Y-78441999D01*
X363250000Y-78750000D01*
X364409252Y-78750000D01*
X364387482Y-78787708D01*
X364350000Y-78927591D01*
X364350000Y-79072409D01*
X364387482Y-79212292D01*
X364409252Y-79250000D01*
X363250000Y-79250000D01*
X363250000Y-79558000D01*
X363260608Y-79677325D01*
X363260609Y-79677328D01*
X363316557Y-79872861D01*
X363410721Y-80053129D01*
X363539246Y-80210753D01*
X363696870Y-80339278D01*
X363877138Y-80433442D01*
X364072671Y-80489390D01*
X364072674Y-80489391D01*
X364191999Y-80499999D01*
X364192002Y-80500000D01*
X365000000Y-80500000D01*
X365000000Y-79550000D01*
X365500000Y-79550000D01*
X365500000Y-80500000D01*
X366307998Y-80500000D01*
X366308000Y-80499999D01*
X366427325Y-80489391D01*
X366427328Y-80489390D01*
X366622867Y-80433440D01*
X366628700Y-80431111D01*
X366629712Y-80433644D01*
X366686546Y-80422337D01*
X366751566Y-80447915D01*
X366792435Y-80504585D01*
X366799500Y-80545844D01*
X366799500Y-81575500D01*
X366779815Y-81642539D01*
X366727011Y-81688294D01*
X366675501Y-81699500D01*
X366552130Y-81699500D01*
X366552123Y-81699501D01*
X366492516Y-81705908D01*
X366357671Y-81756202D01*
X366357664Y-81756206D01*
X366242455Y-81842452D01*
X366242452Y-81842455D01*
X366156206Y-81957664D01*
X366156202Y-81957671D01*
X366105908Y-82092517D01*
X366099501Y-82152116D01*
X366099500Y-82152135D01*
X366099500Y-84047870D01*
X366099501Y-84047876D01*
X366105908Y-84107483D01*
X366156202Y-84242328D01*
X366156206Y-84242335D01*
X366242452Y-84357544D01*
X366242455Y-84357547D01*
X366357664Y-84443793D01*
X366357671Y-84443797D01*
X366492517Y-84494091D01*
X366492516Y-84494091D01*
X366499444Y-84494835D01*
X366552127Y-84500500D01*
X368447872Y-84500499D01*
X368507483Y-84494091D01*
X368642331Y-84443796D01*
X368757546Y-84357546D01*
X368843796Y-84242331D01*
X368853089Y-84217415D01*
X368862735Y-84191554D01*
X368904606Y-84135620D01*
X368970070Y-84111202D01*
X369038343Y-84126053D01*
X369066598Y-84147205D01*
X369087636Y-84168243D01*
X369087641Y-84168247D01*
X369119721Y-84191554D01*
X369265978Y-84297815D01*
X369392271Y-84362165D01*
X369462393Y-84397895D01*
X369462396Y-84397896D01*
X369563445Y-84430728D01*
X369672049Y-84466015D01*
X369889778Y-84500500D01*
X369889779Y-84500500D01*
X370110221Y-84500500D01*
X370110222Y-84500500D01*
X370327951Y-84466015D01*
X370537606Y-84397895D01*
X370734022Y-84297815D01*
X370912365Y-84168242D01*
X371068242Y-84012365D01*
X371149682Y-83900270D01*
X371205011Y-83857606D01*
X371274624Y-83851627D01*
X371336420Y-83884232D01*
X371350313Y-83900265D01*
X371431130Y-84011500D01*
X371431758Y-84012365D01*
X371587636Y-84168243D01*
X371587641Y-84168247D01*
X371619721Y-84191554D01*
X371765978Y-84297815D01*
X371892271Y-84362165D01*
X371962393Y-84397895D01*
X371962396Y-84397896D01*
X372063445Y-84430728D01*
X372172049Y-84466015D01*
X372389778Y-84500500D01*
X372389779Y-84500500D01*
X372610221Y-84500500D01*
X372610222Y-84500500D01*
X372827951Y-84466015D01*
X373037606Y-84397895D01*
X373234022Y-84297815D01*
X373412365Y-84168242D01*
X373568242Y-84012365D01*
X373697815Y-83834022D01*
X373797895Y-83637606D01*
X373866015Y-83427951D01*
X373900500Y-83210222D01*
X373900500Y-82989778D01*
X373866015Y-82772049D01*
X373797895Y-82562394D01*
X373797895Y-82562393D01*
X373752113Y-82472543D01*
X373697815Y-82365978D01*
X373649681Y-82299727D01*
X373568247Y-82187641D01*
X373568243Y-82187636D01*
X373412363Y-82031756D01*
X373412358Y-82031752D01*
X373234025Y-81902187D01*
X373234024Y-81902186D01*
X373234022Y-81902185D01*
X373150516Y-81859636D01*
X373037606Y-81802104D01*
X373037603Y-81802103D01*
X372827952Y-81733985D01*
X372681813Y-81710839D01*
X372610222Y-81699500D01*
X372389778Y-81699500D01*
X372318187Y-81710839D01*
X372172047Y-81733985D01*
X371962396Y-81802103D01*
X371962393Y-81802104D01*
X371765974Y-81902187D01*
X371587641Y-82031752D01*
X371587636Y-82031756D01*
X371431756Y-82187636D01*
X371431752Y-82187641D01*
X371350318Y-82299727D01*
X371294989Y-82342393D01*
X371225375Y-82348372D01*
X371163580Y-82315767D01*
X371149682Y-82299727D01*
X371068247Y-82187641D01*
X371068243Y-82187636D01*
X370912363Y-82031756D01*
X370912358Y-82031752D01*
X370751615Y-81914966D01*
X370708949Y-81859636D01*
X370700500Y-81814648D01*
X370700500Y-78441999D01*
X372750000Y-78441999D01*
X372750000Y-78750000D01*
X373909252Y-78750000D01*
X373887482Y-78787708D01*
X373850000Y-78927591D01*
X373850000Y-79072409D01*
X373887482Y-79212292D01*
X373909252Y-79250000D01*
X372750000Y-79250000D01*
X372750000Y-79558000D01*
X372760608Y-79677325D01*
X372760609Y-79677328D01*
X372816557Y-79872861D01*
X372910721Y-80053129D01*
X373039246Y-80210753D01*
X373196870Y-80339278D01*
X373377138Y-80433442D01*
X373572671Y-80489390D01*
X373572674Y-80489391D01*
X373691999Y-80499999D01*
X373692002Y-80500000D01*
X374500000Y-80500000D01*
X374500000Y-79550000D01*
X375000000Y-79550000D01*
X375000000Y-80500000D01*
X375807998Y-80500000D01*
X375808000Y-80499999D01*
X375927325Y-80489391D01*
X375927328Y-80489390D01*
X376122861Y-80433442D01*
X376303129Y-80339278D01*
X376460753Y-80210753D01*
X376589278Y-80053129D01*
X376683442Y-79872861D01*
X376739390Y-79677328D01*
X376739391Y-79677325D01*
X376749999Y-79558000D01*
X376750000Y-79557998D01*
X376750000Y-79250000D01*
X375590748Y-79250000D01*
X375612518Y-79212292D01*
X375650000Y-79072409D01*
X375650000Y-78927591D01*
X375612518Y-78787708D01*
X375590748Y-78750000D01*
X376750000Y-78750000D01*
X376750000Y-78442002D01*
X376749999Y-78441999D01*
X376739391Y-78322674D01*
X376739390Y-78322671D01*
X376683442Y-78127138D01*
X376589278Y-77946870D01*
X376460753Y-77789246D01*
X376303129Y-77660721D01*
X376122861Y-77566557D01*
X375927328Y-77510609D01*
X375927325Y-77510608D01*
X375808000Y-77500000D01*
X375000000Y-77500000D01*
X375000000Y-78450000D01*
X374500000Y-78450000D01*
X374500000Y-77500000D01*
X373691999Y-77500000D01*
X373572674Y-77510608D01*
X373572671Y-77510609D01*
X373377138Y-77566557D01*
X373196870Y-77660721D01*
X373039246Y-77789246D01*
X372910721Y-77946870D01*
X372816557Y-78127138D01*
X372760609Y-78322671D01*
X372760608Y-78322674D01*
X372750000Y-78441999D01*
X370700500Y-78441999D01*
X370700500Y-76713406D01*
X370692938Y-76675394D01*
X370692938Y-76675391D01*
X370673581Y-76578079D01*
X370673580Y-76578072D01*
X370673578Y-76578067D01*
X370620777Y-76450592D01*
X370544112Y-76335854D01*
X370544111Y-76335853D01*
X370111938Y-75903681D01*
X370078453Y-75842358D01*
X370083437Y-75772667D01*
X370125308Y-75716733D01*
X370190773Y-75692316D01*
X370199619Y-75692000D01*
X381384000Y-75692000D01*
X381451039Y-75711685D01*
X381496794Y-75764489D01*
X381508000Y-75816000D01*
X381508000Y-88776000D01*
X381488315Y-88843039D01*
X381435511Y-88888794D01*
X381384000Y-88900000D01*
X59052000Y-88900000D01*
X58984961Y-88880315D01*
X58939206Y-88827511D01*
X58928000Y-88776000D01*
X58928000Y-75816000D01*
X58947685Y-75748961D01*
X59000489Y-75703206D01*
X59052000Y-75692000D01*
X66675500Y-75692000D01*
X66742539Y-75711685D01*
G37*
%TD.AperFunction*%
%TA.AperFunction,Conductor*%
G36*
X186742539Y-75711685D02*
G01*
X186788294Y-75764489D01*
X186799500Y-75816000D01*
X186799500Y-77454155D01*
X186779815Y-77521194D01*
X186727011Y-77566949D01*
X186657853Y-77576893D01*
X186629186Y-77567658D01*
X186628695Y-77568888D01*
X186622860Y-77566557D01*
X186427328Y-77510609D01*
X186427325Y-77510608D01*
X186308000Y-77500000D01*
X185500000Y-77500000D01*
X185500000Y-78450000D01*
X185000000Y-78450000D01*
X185000000Y-77500000D01*
X184191999Y-77500000D01*
X184072674Y-77510608D01*
X184072671Y-77510609D01*
X183877138Y-77566557D01*
X183696870Y-77660721D01*
X183539246Y-77789246D01*
X183410721Y-77946870D01*
X183316557Y-78127138D01*
X183260609Y-78322671D01*
X183260608Y-78322674D01*
X183250000Y-78441999D01*
X183250000Y-78750000D01*
X184409252Y-78750000D01*
X184387482Y-78787708D01*
X184350000Y-78927591D01*
X184350000Y-79072409D01*
X184387482Y-79212292D01*
X184409252Y-79250000D01*
X183250000Y-79250000D01*
X183250000Y-79558000D01*
X183260608Y-79677325D01*
X183260609Y-79677328D01*
X183316557Y-79872861D01*
X183410721Y-80053129D01*
X183539246Y-80210753D01*
X183696870Y-80339278D01*
X183877138Y-80433442D01*
X184072671Y-80489390D01*
X184072674Y-80489391D01*
X184191999Y-80499999D01*
X184192002Y-80500000D01*
X185000000Y-80500000D01*
X185000000Y-79550000D01*
X185500000Y-79550000D01*
X185500000Y-80500000D01*
X186307998Y-80500000D01*
X186308000Y-80499999D01*
X186427325Y-80489391D01*
X186427328Y-80489390D01*
X186622867Y-80433440D01*
X186628700Y-80431111D01*
X186629712Y-80433644D01*
X186686546Y-80422337D01*
X186751566Y-80447915D01*
X186792435Y-80504585D01*
X186799500Y-80545844D01*
X186799500Y-81575500D01*
X186779815Y-81642539D01*
X186727011Y-81688294D01*
X186675501Y-81699500D01*
X186552130Y-81699500D01*
X186552123Y-81699501D01*
X186492516Y-81705908D01*
X186357671Y-81756202D01*
X186357664Y-81756206D01*
X186242455Y-81842452D01*
X186242452Y-81842455D01*
X186156206Y-81957664D01*
X186156202Y-81957671D01*
X186105908Y-82092517D01*
X186099501Y-82152116D01*
X186099500Y-82152135D01*
X186099500Y-84047870D01*
X186099501Y-84047876D01*
X186105908Y-84107483D01*
X186156202Y-84242328D01*
X186156206Y-84242335D01*
X186242451Y-84357543D01*
X186242452Y-84357544D01*
X186242454Y-84357546D01*
X186258335Y-84369434D01*
X186300205Y-84425367D01*
X186305189Y-84495059D01*
X186271704Y-84556382D01*
X186210381Y-84589866D01*
X186184023Y-84592700D01*
X183170719Y-84592700D01*
X183103680Y-84573015D01*
X183083038Y-84556381D01*
X181721219Y-83194562D01*
X181687734Y-83133239D01*
X181684900Y-83106881D01*
X181684900Y-77768144D01*
X181704585Y-77701105D01*
X181736015Y-77667826D01*
X181831615Y-77598369D01*
X181831615Y-77598368D01*
X181831619Y-77598366D01*
X181976366Y-77453619D01*
X181976368Y-77453615D01*
X181976371Y-77453613D01*
X182045825Y-77358016D01*
X182096687Y-77288010D01*
X182189620Y-77105619D01*
X182252877Y-76910934D01*
X182284900Y-76708752D01*
X182284900Y-76504048D01*
X182264576Y-76375727D01*
X182252877Y-76301865D01*
X182189618Y-76107176D01*
X182127684Y-75985625D01*
X182096687Y-75924790D01*
X182070600Y-75888884D01*
X182047121Y-75823079D01*
X182062946Y-75755025D01*
X182113052Y-75706330D01*
X182170919Y-75692000D01*
X186675500Y-75692000D01*
X186742539Y-75711685D01*
G37*
%TD.AperFunction*%
%TA.AperFunction,Conductor*%
G36*
X204866620Y-75711685D02*
G01*
X204887262Y-75728319D01*
X206451758Y-77292815D01*
X206485243Y-77354138D01*
X206480259Y-77423830D01*
X206438387Y-77479763D01*
X206372923Y-77504180D01*
X206353097Y-77504009D01*
X206308002Y-77500000D01*
X205500000Y-77500000D01*
X205500000Y-78450000D01*
X205000000Y-78450000D01*
X205000000Y-77500000D01*
X204191999Y-77500000D01*
X204072674Y-77510608D01*
X204072671Y-77510609D01*
X203877138Y-77566557D01*
X203696870Y-77660721D01*
X203539246Y-77789246D01*
X203410721Y-77946870D01*
X203316557Y-78127138D01*
X203260609Y-78322671D01*
X203260608Y-78322674D01*
X203250000Y-78441999D01*
X203250000Y-78750000D01*
X204409252Y-78750000D01*
X204387482Y-78787708D01*
X204350000Y-78927591D01*
X204350000Y-79072409D01*
X204387482Y-79212292D01*
X204409252Y-79250000D01*
X203250000Y-79250000D01*
X203250000Y-79558000D01*
X203260608Y-79677325D01*
X203260609Y-79677328D01*
X203316557Y-79872861D01*
X203410721Y-80053129D01*
X203539246Y-80210753D01*
X203696870Y-80339278D01*
X203877138Y-80433442D01*
X204072671Y-80489390D01*
X204072674Y-80489391D01*
X204191999Y-80499999D01*
X204192002Y-80500000D01*
X205000000Y-80500000D01*
X205000000Y-79550000D01*
X205500000Y-79550000D01*
X205500000Y-80500000D01*
X206307998Y-80500000D01*
X206308000Y-80499999D01*
X206427325Y-80489391D01*
X206427328Y-80489390D01*
X206622867Y-80433440D01*
X206628700Y-80431111D01*
X206629712Y-80433644D01*
X206686546Y-80422337D01*
X206751566Y-80447915D01*
X206792435Y-80504585D01*
X206799500Y-80545844D01*
X206799500Y-81575500D01*
X206779815Y-81642539D01*
X206727011Y-81688294D01*
X206675501Y-81699500D01*
X206552130Y-81699500D01*
X206552123Y-81699501D01*
X206492516Y-81705908D01*
X206357671Y-81756202D01*
X206357664Y-81756206D01*
X206242455Y-81842452D01*
X206242452Y-81842455D01*
X206156206Y-81957664D01*
X206156202Y-81957671D01*
X206105908Y-82092517D01*
X206099501Y-82152116D01*
X206099500Y-82152135D01*
X206099501Y-84011500D01*
X206079816Y-84078539D01*
X206027013Y-84124294D01*
X205975501Y-84135500D01*
X203236719Y-84135500D01*
X203169680Y-84115815D01*
X203149038Y-84099181D01*
X201736419Y-82686562D01*
X201702934Y-82625239D01*
X201700100Y-82598881D01*
X201700100Y-77818944D01*
X201719785Y-77751905D01*
X201751215Y-77718626D01*
X201846815Y-77649169D01*
X201846815Y-77649168D01*
X201846819Y-77649166D01*
X201991566Y-77504419D01*
X201991568Y-77504415D01*
X201991571Y-77504413D01*
X202050117Y-77423830D01*
X202111887Y-77338810D01*
X202204820Y-77156419D01*
X202268077Y-76961734D01*
X202300100Y-76759552D01*
X202300100Y-76554848D01*
X202271730Y-76375727D01*
X202268077Y-76352665D01*
X202204818Y-76157976D01*
X202111887Y-75975590D01*
X202048893Y-75888885D01*
X202025414Y-75823078D01*
X202041240Y-75755024D01*
X202091346Y-75706330D01*
X202149212Y-75692000D01*
X204799581Y-75692000D01*
X204866620Y-75711685D01*
G37*
%TD.AperFunction*%
%TA.AperFunction,Conductor*%
G36*
X157863505Y-77359241D02*
G01*
X157868868Y-77358155D01*
X157896670Y-77368979D01*
X157925295Y-77377385D01*
X157930230Y-77382046D01*
X157933977Y-77383505D01*
X157958573Y-77408814D01*
X157969483Y-77423830D01*
X158028030Y-77504415D01*
X158172786Y-77649171D01*
X158310978Y-77749571D01*
X158338390Y-77769487D01*
X158421077Y-77811618D01*
X158520776Y-77862418D01*
X158520778Y-77862418D01*
X158520781Y-77862420D01*
X158559120Y-77874877D01*
X158715465Y-77925677D01*
X158816557Y-77941688D01*
X158917648Y-77957700D01*
X158917649Y-77957700D01*
X159122351Y-77957700D01*
X159122352Y-77957700D01*
X159324534Y-77925677D01*
X159519219Y-77862420D01*
X159701610Y-77769487D01*
X159798943Y-77698771D01*
X159867213Y-77649171D01*
X159867215Y-77649168D01*
X159867219Y-77649166D01*
X159932319Y-77584066D01*
X159993642Y-77550581D01*
X160063334Y-77555565D01*
X160107681Y-77584066D01*
X160172786Y-77649171D01*
X160310978Y-77749571D01*
X160338390Y-77769487D01*
X160421077Y-77811618D01*
X160520776Y-77862418D01*
X160520778Y-77862418D01*
X160520781Y-77862420D01*
X160559120Y-77874877D01*
X160715465Y-77925677D01*
X160816557Y-77941688D01*
X160917648Y-77957700D01*
X160917649Y-77957700D01*
X161122351Y-77957700D01*
X161122352Y-77957700D01*
X161324534Y-77925677D01*
X161519219Y-77862420D01*
X161701610Y-77769487D01*
X161798943Y-77698771D01*
X161867213Y-77649171D01*
X161867215Y-77649168D01*
X161867219Y-77649166D01*
X162011966Y-77504419D01*
X162016923Y-77497597D01*
X162048877Y-77453615D01*
X162081425Y-77408815D01*
X162136755Y-77366149D01*
X162181744Y-77357700D01*
X163771768Y-77357700D01*
X163838807Y-77377385D01*
X163884562Y-77430189D01*
X163894506Y-77499347D01*
X163865481Y-77562903D01*
X163829179Y-77591609D01*
X163696870Y-77660721D01*
X163539246Y-77789246D01*
X163410721Y-77946870D01*
X163316557Y-78127138D01*
X163260609Y-78322671D01*
X163260608Y-78322674D01*
X163250000Y-78441999D01*
X163250000Y-78750000D01*
X164409252Y-78750000D01*
X164387482Y-78787708D01*
X164350000Y-78927591D01*
X164350000Y-79072409D01*
X164387482Y-79212292D01*
X164409252Y-79250000D01*
X163250000Y-79250000D01*
X163250000Y-79558000D01*
X163260608Y-79677325D01*
X163260609Y-79677328D01*
X163316557Y-79872861D01*
X163410721Y-80053129D01*
X163539246Y-80210753D01*
X163696870Y-80339278D01*
X163877138Y-80433442D01*
X164072671Y-80489390D01*
X164072674Y-80489391D01*
X164191999Y-80499999D01*
X164192002Y-80500000D01*
X165000000Y-80500000D01*
X165000000Y-79550000D01*
X165500000Y-79550000D01*
X165500000Y-80500000D01*
X166307998Y-80500000D01*
X166308000Y-80499999D01*
X166427325Y-80489391D01*
X166427328Y-80489390D01*
X166622861Y-80433442D01*
X166803129Y-80339278D01*
X166960753Y-80210753D01*
X167089278Y-80053129D01*
X167183442Y-79872861D01*
X167239390Y-79677328D01*
X167239391Y-79677325D01*
X167249999Y-79558000D01*
X167250000Y-79557998D01*
X167250000Y-79250000D01*
X166090748Y-79250000D01*
X166112518Y-79212292D01*
X166150000Y-79072409D01*
X166150000Y-78927591D01*
X166112518Y-78787708D01*
X166090748Y-78750000D01*
X167250000Y-78750000D01*
X167250000Y-78442002D01*
X167249999Y-78441999D01*
X167239391Y-78322674D01*
X167239390Y-78322671D01*
X167183442Y-78127138D01*
X167089278Y-77946870D01*
X166960753Y-77789246D01*
X166803129Y-77660721D01*
X166670821Y-77591609D01*
X166620513Y-77543122D01*
X166604406Y-77475134D01*
X166627612Y-77409231D01*
X166682765Y-77366336D01*
X166728232Y-77357700D01*
X170041681Y-77357700D01*
X170108720Y-77377385D01*
X170129362Y-77394019D01*
X171763181Y-79027837D01*
X171796666Y-79089160D01*
X171799500Y-79115518D01*
X171799500Y-81814648D01*
X171779815Y-81881687D01*
X171748385Y-81914966D01*
X171587641Y-82031752D01*
X171587636Y-82031756D01*
X171431756Y-82187636D01*
X171431752Y-82187641D01*
X171350318Y-82299727D01*
X171294989Y-82342393D01*
X171225375Y-82348372D01*
X171163580Y-82315767D01*
X171149682Y-82299727D01*
X171068247Y-82187641D01*
X171068243Y-82187636D01*
X170912363Y-82031756D01*
X170912358Y-82031752D01*
X170734025Y-81902187D01*
X170734024Y-81902186D01*
X170734022Y-81902185D01*
X170650516Y-81859636D01*
X170537606Y-81802104D01*
X170537603Y-81802103D01*
X170327952Y-81733985D01*
X170181813Y-81710839D01*
X170110222Y-81699500D01*
X169889778Y-81699500D01*
X169818187Y-81710839D01*
X169672047Y-81733985D01*
X169462396Y-81802103D01*
X169462393Y-81802104D01*
X169265974Y-81902187D01*
X169087641Y-82031752D01*
X169087635Y-82031757D01*
X169066596Y-82052796D01*
X169005273Y-82086280D01*
X168935581Y-82081294D01*
X168879648Y-82039421D01*
X168862735Y-82008446D01*
X168843797Y-81957671D01*
X168843793Y-81957664D01*
X168757547Y-81842455D01*
X168757544Y-81842452D01*
X168642335Y-81756206D01*
X168642328Y-81756202D01*
X168507482Y-81705908D01*
X168507483Y-81705908D01*
X168447883Y-81699501D01*
X168447881Y-81699500D01*
X168447873Y-81699500D01*
X168447864Y-81699500D01*
X166552129Y-81699500D01*
X166552123Y-81699501D01*
X166492516Y-81705908D01*
X166357671Y-81756202D01*
X166357664Y-81756206D01*
X166242455Y-81842452D01*
X166242452Y-81842455D01*
X166156206Y-81957664D01*
X166156202Y-81957671D01*
X166105908Y-82092517D01*
X166099501Y-82152116D01*
X166099500Y-82152135D01*
X166099500Y-82275500D01*
X166079815Y-82342539D01*
X166027011Y-82388294D01*
X165975500Y-82399500D01*
X162098895Y-82399500D01*
X162031856Y-82379815D01*
X162011214Y-82363181D01*
X157217414Y-77569381D01*
X157183929Y-77508058D01*
X157188913Y-77438366D01*
X157230785Y-77382433D01*
X157296249Y-77358016D01*
X157305095Y-77357700D01*
X157858256Y-77357700D01*
X157863505Y-77359241D01*
G37*
%TD.AperFunction*%
%TD*%
M02*
