%TF.GenerationSoftware,KiCad,Pcbnew,9.99.0-unknown-5ab735eb93~182~ubuntu22.04.1*%
%TF.CreationDate,2025-07-05T18:58:22+02:00*%
%TF.ProjectId,CP70_potmeters,43503730-5f70-46f7-946d-65746572732e,rev?*%
%TF.SameCoordinates,Original*%
%TF.FileFunction,Copper,L1,Top*%
%TF.FilePolarity,Positive*%
%FSLAX46Y46*%
G04 Gerber Fmt 4.6, Leading zero omitted, Abs format (unit mm)*
G04 Created by KiCad (PCBNEW 9.99.0-unknown-5ab735eb93~182~ubuntu22.04.1) date 2025-07-05 18:58:22*
%MOMM*%
%LPD*%
G01*
G04 APERTURE LIST*
G04 Aperture macros list*
%AMRoundRect*
0 Rectangle with rounded corners*
0 $1 Rounding radius*
0 $2 $3 $4 $5 $6 $7 $8 $9 X,Y pos of 4 corners*
0 Add a 4 corners polygon primitive as box body*
4,1,4,$2,$3,$4,$5,$6,$7,$8,$9,$2,$3,0*
0 Add four circle primitives for the rounded corners*
1,1,$1+$1,$2,$3*
1,1,$1+$1,$4,$5*
1,1,$1+$1,$6,$7*
1,1,$1+$1,$8,$9*
0 Add four rect primitives between the rounded corners*
20,1,$1+$1,$2,$3,$4,$5,0*
20,1,$1+$1,$4,$5,$6,$7,0*
20,1,$1+$1,$6,$7,$8,$9,0*
20,1,$1+$1,$8,$9,$2,$3,0*%
G04 Aperture macros list end*
%TA.AperFunction,ComponentPad*%
%ADD10C,1.600000*%
%TD*%
%TA.AperFunction,ComponentPad*%
%ADD11C,0.800000*%
%TD*%
%TA.AperFunction,ComponentPad*%
%ADD12C,6.400000*%
%TD*%
%TA.AperFunction,ComponentPad*%
%ADD13R,1.800000X1.800000*%
%TD*%
%TA.AperFunction,ComponentPad*%
%ADD14C,1.800000*%
%TD*%
%TA.AperFunction,ComponentPad*%
%ADD15RoundRect,0.500000X-1.000000X-0.500000X1.000000X-0.500000X1.000000X0.500000X-1.000000X0.500000X0*%
%TD*%
%TA.AperFunction,ComponentPad*%
%ADD16RoundRect,0.250000X0.600000X-0.600000X0.600000X0.600000X-0.600000X0.600000X-0.600000X-0.600000X0*%
%TD*%
%TA.AperFunction,ComponentPad*%
%ADD17C,1.700000*%
%TD*%
%TA.AperFunction,ViaPad*%
%ADD18C,1.000000*%
%TD*%
%TA.AperFunction,ViaPad*%
%ADD19C,0.600000*%
%TD*%
%TA.AperFunction,Conductor*%
%ADD20C,0.600000*%
%TD*%
%TA.AperFunction,Conductor*%
%ADD21C,1.000000*%
%TD*%
%TA.AperFunction,Conductor*%
%ADD22C,0.400000*%
%TD*%
G04 APERTURE END LIST*
D10*
%TO.P,C120,1*%
%TO.N,VCC*%
X258913000Y-61722000D03*
%TO.P,C120,2*%
%TO.N,VEE*%
X253913000Y-61722000D03*
%TD*%
%TO.P,C119,1*%
%TO.N,VCC*%
X340000000Y-59500000D03*
%TO.P,C119,2*%
%TO.N,VEE*%
X340000000Y-64500000D03*
%TD*%
%TO.P,C118,1*%
%TO.N,VCC*%
X183500000Y-62000000D03*
%TO.P,C118,2*%
%TO.N,VEE*%
X178500000Y-62000000D03*
%TD*%
%TO.P,C117,1*%
%TO.N,VCC*%
X99695000Y-64095000D03*
%TO.P,C117,2*%
%TO.N,VEE*%
X99695000Y-59095000D03*
%TD*%
%TO.P,C116,1*%
%TO.N,LINE16*%
X359019600Y-76657200D03*
%TO.P,C116,2*%
%TO.N,Net-(C116-Pad2)*%
X361019600Y-76657200D03*
%TD*%
%TO.P,C115,1*%
%TO.N,LINE15*%
X339004400Y-76657200D03*
%TO.P,C115,2*%
%TO.N,Net-(C115-Pad2)*%
X341004400Y-76657200D03*
%TD*%
%TO.P,C114,1*%
%TO.N,LINE14*%
X318989200Y-76657200D03*
%TO.P,C114,2*%
%TO.N,Net-(C114-Pad2)*%
X320989200Y-76657200D03*
%TD*%
%TO.P,C112,1*%
%TO.N,LINE11*%
X258994400Y-76657200D03*
%TO.P,C112,2*%
%TO.N,Net-(C112-Pad2)*%
X260994400Y-76657200D03*
%TD*%
%TO.P,C111,1*%
%TO.N,LINE10*%
X239030000Y-76657200D03*
%TO.P,C111,2*%
%TO.N,Net-(C111-Pad2)*%
X241030000Y-76657200D03*
%TD*%
%TO.P,C109,1*%
%TO.N,LINE12*%
X279009600Y-76657200D03*
%TO.P,C109,2*%
%TO.N,Net-(C109-Pad2)*%
X281009600Y-76657200D03*
%TD*%
%TO.P,C108,1*%
%TO.N,LINE07*%
X178984400Y-76606400D03*
%TO.P,C108,2*%
%TO.N,Net-(C108-Pad2)*%
X180984400Y-76606400D03*
%TD*%
%TO.P,C107,1*%
%TO.N,LINE06*%
X159020000Y-76657200D03*
%TO.P,C107,2*%
%TO.N,Net-(C107-Pad2)*%
X161020000Y-76657200D03*
%TD*%
%TO.P,C105,1*%
%TO.N,LINE08*%
X198999600Y-76657200D03*
%TO.P,C105,2*%
%TO.N,Net-(C105-Pad2)*%
X200999600Y-76657200D03*
%TD*%
%TO.P,C104,1*%
%TO.N,LINE03*%
X109946200Y-71297800D03*
%TO.P,C104,2*%
%TO.N,Net-(C104-Pad2)*%
X109946200Y-73297800D03*
%TD*%
%TO.P,C103,1*%
%TO.N,LINE02*%
X89946200Y-71297800D03*
%TO.P,C103,2*%
%TO.N,Net-(C103-Pad2)*%
X89946200Y-73297800D03*
%TD*%
%TO.P,C101,1*%
%TO.N,LINE04*%
X129946200Y-71297800D03*
%TO.P,C101,2*%
%TO.N,Net-(C101-Pad2)*%
X129946200Y-73297800D03*
%TD*%
%TO.P,C113,1*%
%TO.N,LINE13*%
X299024800Y-76657200D03*
%TO.P,C113,2*%
%TO.N,Net-(C113-Pad2)*%
X301024800Y-76657200D03*
%TD*%
%TO.P,C110,1*%
%TO.N,LINE09*%
X219014800Y-76657200D03*
%TO.P,C110,2*%
%TO.N,Net-(C110-Pad2)*%
X221014800Y-76657200D03*
%TD*%
%TO.P,C106,1*%
%TO.N,LINE05*%
X139030200Y-76606400D03*
%TO.P,C106,2*%
%TO.N,Net-(C106-Pad2)*%
X141030200Y-76606400D03*
%TD*%
%TO.P,C102,1*%
%TO.N,LINE01*%
X69946200Y-71297800D03*
%TO.P,C102,2*%
%TO.N,Net-(C102-Pad2)*%
X69946200Y-73297800D03*
%TD*%
D11*
%TO.P,H104,1,1*%
%TO.N,GNDREF*%
X52600000Y-85000000D03*
X53302944Y-83302944D03*
X53302944Y-86697056D03*
X55000000Y-82600000D03*
D12*
X55000000Y-85000000D03*
D11*
X55000000Y-87400000D03*
X56697056Y-83302944D03*
X56697056Y-86697056D03*
X57400000Y-85000000D03*
%TD*%
%TO.P,H103,1,1*%
%TO.N,GNDREF*%
X382600000Y-85000000D03*
X383302944Y-83302944D03*
X383302944Y-86697056D03*
X385000000Y-82600000D03*
D12*
X385000000Y-85000000D03*
D11*
X385000000Y-87400000D03*
X386697056Y-83302944D03*
X386697056Y-86697056D03*
X387400000Y-85000000D03*
%TD*%
%TO.P,H102,1*%
%TO.N,N/C*%
X382600000Y-55000000D03*
X383302944Y-53302944D03*
X383302944Y-56697056D03*
X385000000Y-52600000D03*
D12*
X385000000Y-55000000D03*
D11*
X385000000Y-57400000D03*
X386697056Y-53302944D03*
X386697056Y-56697056D03*
X387400000Y-55000000D03*
%TD*%
%TO.P,H101,1*%
%TO.N,N/C*%
X52600000Y-55000000D03*
X53302944Y-53302944D03*
X53302944Y-56697056D03*
X55000000Y-52600000D03*
D12*
X55000000Y-55000000D03*
D11*
X55000000Y-57400000D03*
X56697056Y-53302944D03*
X56697056Y-56697056D03*
X57400000Y-55000000D03*
%TD*%
D13*
%TO.P,RV112,1,1*%
%TO.N,GNDA*%
X267500000Y-83100000D03*
D14*
%TO.P,RV112,2,2*%
%TO.N,AMP11*%
X270000000Y-83100000D03*
%TO.P,RV112,3,3*%
%TO.N,Net-(C112-Pad2)*%
X272500000Y-83100000D03*
D15*
%TO.P,RV112,MP,MountPin*%
%TO.N,GNDREF*%
X265250000Y-79000000D03*
X274750000Y-79000000D03*
%TD*%
D13*
%TO.P,RV101,1,1*%
%TO.N,GNDA*%
X127500000Y-83100000D03*
D14*
%TO.P,RV101,2,2*%
%TO.N,AMP04*%
X130000000Y-83100000D03*
%TO.P,RV101,3,3*%
%TO.N,Net-(C101-Pad2)*%
X132500000Y-83100000D03*
D15*
%TO.P,RV101,MP,MountPin*%
%TO.N,GNDREF*%
X125250000Y-79000000D03*
X134750000Y-79000000D03*
%TD*%
D13*
%TO.P,RV113,1,1*%
%TO.N,GNDA*%
X307500000Y-83100000D03*
D14*
%TO.P,RV113,2,2*%
%TO.N,AMP13*%
X310000000Y-83100000D03*
%TO.P,RV113,3,3*%
%TO.N,Net-(C113-Pad2)*%
X312500000Y-83100000D03*
D15*
%TO.P,RV113,MP,MountPin*%
%TO.N,GNDREF*%
X305250000Y-79000000D03*
X314750000Y-79000000D03*
%TD*%
D13*
%TO.P,RV111,1,1*%
%TO.N,GNDA*%
X247500000Y-83100000D03*
D14*
%TO.P,RV111,2,2*%
%TO.N,AMP10*%
X250000000Y-83100000D03*
%TO.P,RV111,3,3*%
%TO.N,Net-(C111-Pad2)*%
X252500000Y-83100000D03*
D15*
%TO.P,RV111,MP,MountPin*%
%TO.N,GNDREF*%
X245250000Y-79000000D03*
X254750000Y-79000000D03*
%TD*%
D13*
%TO.P,RV109,1,1*%
%TO.N,GNDA*%
X287500000Y-83100000D03*
D14*
%TO.P,RV109,2,2*%
%TO.N,AMP12*%
X290000000Y-83100000D03*
%TO.P,RV109,3,3*%
%TO.N,Net-(C109-Pad2)*%
X292500000Y-83100000D03*
D15*
%TO.P,RV109,MP,MountPin*%
%TO.N,GNDREF*%
X285250000Y-79000000D03*
X294750000Y-79000000D03*
%TD*%
D13*
%TO.P,RV116,1,1*%
%TO.N,GNDA*%
X367500000Y-83100000D03*
D14*
%TO.P,RV116,2,2*%
%TO.N,AMP16*%
X370000000Y-83100000D03*
%TO.P,RV116,3,3*%
%TO.N,Net-(C116-Pad2)*%
X372500000Y-83100000D03*
D15*
%TO.P,RV116,MP,MountPin*%
%TO.N,GNDREF*%
X365250000Y-79000000D03*
X374750000Y-79000000D03*
%TD*%
D13*
%TO.P,RV110,1,1*%
%TO.N,GNDA*%
X227500000Y-83100000D03*
D14*
%TO.P,RV110,2,2*%
%TO.N,AMP09*%
X230000000Y-83100000D03*
%TO.P,RV110,3,3*%
%TO.N,Net-(C110-Pad2)*%
X232500000Y-83100000D03*
D15*
%TO.P,RV110,MP,MountPin*%
%TO.N,GNDREF*%
X225250000Y-79000000D03*
X234750000Y-79000000D03*
%TD*%
D13*
%TO.P,RV102,1,1*%
%TO.N,GNDA*%
X67500000Y-83100000D03*
D14*
%TO.P,RV102,2,2*%
%TO.N,AMP01*%
X70000000Y-83100000D03*
%TO.P,RV102,3,3*%
%TO.N,Net-(C102-Pad2)*%
X72500000Y-83100000D03*
D15*
%TO.P,RV102,MP,MountPin*%
%TO.N,GNDREF*%
X65250000Y-79000000D03*
X74750000Y-79000000D03*
%TD*%
D16*
%TO.P,J102,1,Pin_1*%
%TO.N,VCC*%
X275870000Y-63252500D03*
D17*
%TO.P,J102,2,Pin_2*%
X275870000Y-60712500D03*
%TO.P,J102,3,Pin_3*%
X278410000Y-63252500D03*
%TO.P,J102,4,Pin_4*%
X278410000Y-60712500D03*
%TO.P,J102,5,Pin_5*%
%TO.N,AMP01*%
X280950000Y-63252500D03*
%TO.P,J102,6,Pin_6*%
%TO.N,GNDA*%
X280950000Y-60712500D03*
%TO.P,J102,7,Pin_7*%
%TO.N,AMP02*%
X283490000Y-63252500D03*
%TO.P,J102,8,Pin_8*%
%TO.N,GNDA*%
X283490000Y-60712500D03*
%TO.P,J102,9,Pin_9*%
%TO.N,AMP03*%
X286030000Y-63252500D03*
%TO.P,J102,10,Pin_10*%
%TO.N,GNDA*%
X286030000Y-60712500D03*
%TO.P,J102,11,Pin_11*%
%TO.N,AMP04*%
X288570000Y-63252500D03*
%TO.P,J102,12,Pin_12*%
%TO.N,GNDA*%
X288570000Y-60712500D03*
%TO.P,J102,13,Pin_13*%
%TO.N,AMP05*%
X291110000Y-63252500D03*
%TO.P,J102,14,Pin_14*%
%TO.N,GNDA*%
X291110000Y-60712500D03*
%TO.P,J102,15,Pin_15*%
%TO.N,AMP06*%
X293650000Y-63252500D03*
%TO.P,J102,16,Pin_16*%
%TO.N,GNDA*%
X293650000Y-60712500D03*
%TO.P,J102,17,Pin_17*%
%TO.N,AMP07*%
X296190000Y-63252500D03*
%TO.P,J102,18,Pin_18*%
%TO.N,GNDA*%
X296190000Y-60712500D03*
%TO.P,J102,19,Pin_19*%
%TO.N,AMP08*%
X298730000Y-63252500D03*
%TO.P,J102,20,Pin_20*%
%TO.N,GNDA*%
X298730000Y-60712500D03*
%TO.P,J102,21,Pin_21*%
%TO.N,AMP09*%
X301270000Y-63252500D03*
%TO.P,J102,22,Pin_22*%
%TO.N,GNDA*%
X301270000Y-60712500D03*
%TO.P,J102,23,Pin_23*%
%TO.N,AMP10*%
X303810000Y-63252500D03*
%TO.P,J102,24,Pin_24*%
%TO.N,GNDA*%
X303810000Y-60712500D03*
%TO.P,J102,25,Pin_25*%
%TO.N,AMP11*%
X306350000Y-63252500D03*
%TO.P,J102,26,Pin_26*%
%TO.N,GNDA*%
X306350000Y-60712500D03*
%TO.P,J102,27,Pin_27*%
%TO.N,AMP12*%
X308890000Y-63252500D03*
%TO.P,J102,28,Pin_28*%
%TO.N,GNDA*%
X308890000Y-60712500D03*
%TO.P,J102,29,Pin_29*%
%TO.N,AMP13*%
X311430000Y-63252500D03*
%TO.P,J102,30,Pin_30*%
%TO.N,GNDA*%
X311430000Y-60712500D03*
%TO.P,J102,31,Pin_31*%
%TO.N,AMP14*%
X313970000Y-63252500D03*
%TO.P,J102,32,Pin_32*%
%TO.N,GNDA*%
X313970000Y-60712500D03*
%TO.P,J102,33,Pin_33*%
%TO.N,AMP15*%
X316510000Y-63252500D03*
%TO.P,J102,34,Pin_34*%
%TO.N,GNDA*%
X316510000Y-60712500D03*
%TO.P,J102,35,Pin_35*%
%TO.N,AMP16*%
X319050000Y-63252500D03*
%TO.P,J102,36,Pin_36*%
%TO.N,GNDA*%
X319050000Y-60712500D03*
%TO.P,J102,37,Pin_37*%
%TO.N,VEE*%
X321590000Y-63252500D03*
%TO.P,J102,38,Pin_38*%
X321590000Y-60712500D03*
%TO.P,J102,39,Pin_39*%
X324130000Y-63252500D03*
%TO.P,J102,40,Pin_40*%
X324130000Y-60712500D03*
%TD*%
D13*
%TO.P,RV114,1,1*%
%TO.N,GNDA*%
X327500000Y-83100000D03*
D14*
%TO.P,RV114,2,2*%
%TO.N,AMP14*%
X330000000Y-83100000D03*
%TO.P,RV114,3,3*%
%TO.N,Net-(C114-Pad2)*%
X332500000Y-83100000D03*
D15*
%TO.P,RV114,MP,MountPin*%
%TO.N,GNDREF*%
X325250000Y-79000000D03*
X334750000Y-79000000D03*
%TD*%
D13*
%TO.P,RV108,1,1*%
%TO.N,GNDA*%
X187500000Y-83100000D03*
D14*
%TO.P,RV108,2,2*%
%TO.N,AMP07*%
X190000000Y-83100000D03*
%TO.P,RV108,3,3*%
%TO.N,Net-(C108-Pad2)*%
X192500000Y-83100000D03*
D15*
%TO.P,RV108,MP,MountPin*%
%TO.N,GNDREF*%
X185250000Y-79000000D03*
X194750000Y-79000000D03*
%TD*%
D13*
%TO.P,RV103,1,1*%
%TO.N,GNDA*%
X87500000Y-83100000D03*
D14*
%TO.P,RV103,2,2*%
%TO.N,AMP02*%
X90000000Y-83100000D03*
%TO.P,RV103,3,3*%
%TO.N,Net-(C103-Pad2)*%
X92500000Y-83100000D03*
D15*
%TO.P,RV103,MP,MountPin*%
%TO.N,GNDREF*%
X85250000Y-79000000D03*
X94750000Y-79000000D03*
%TD*%
D13*
%TO.P,RV115,1,1*%
%TO.N,GNDA*%
X347500000Y-83100000D03*
D14*
%TO.P,RV115,2,2*%
%TO.N,AMP15*%
X350000000Y-83100000D03*
%TO.P,RV115,3,3*%
%TO.N,Net-(C115-Pad2)*%
X352500000Y-83100000D03*
D15*
%TO.P,RV115,MP,MountPin*%
%TO.N,GNDREF*%
X345250000Y-79000000D03*
X354750000Y-79000000D03*
%TD*%
D13*
%TO.P,RV106,1,1*%
%TO.N,GNDA*%
X147500000Y-83100000D03*
D14*
%TO.P,RV106,2,2*%
%TO.N,AMP05*%
X150000000Y-83100000D03*
%TO.P,RV106,3,3*%
%TO.N,Net-(C106-Pad2)*%
X152500000Y-83100000D03*
D15*
%TO.P,RV106,MP,MountPin*%
%TO.N,GNDREF*%
X145250000Y-79000000D03*
X154750000Y-79000000D03*
%TD*%
D13*
%TO.P,RV107,1,1*%
%TO.N,GNDA*%
X167500000Y-83100000D03*
D14*
%TO.P,RV107,2,2*%
%TO.N,AMP06*%
X170000000Y-83100000D03*
%TO.P,RV107,3,3*%
%TO.N,Net-(C107-Pad2)*%
X172500000Y-83100000D03*
D15*
%TO.P,RV107,MP,MountPin*%
%TO.N,GNDREF*%
X165250000Y-79000000D03*
X174750000Y-79000000D03*
%TD*%
D13*
%TO.P,RV105,1,1*%
%TO.N,GNDA*%
X207500000Y-83100000D03*
D14*
%TO.P,RV105,2,2*%
%TO.N,AMP08*%
X210000000Y-83100000D03*
%TO.P,RV105,3,3*%
%TO.N,Net-(C105-Pad2)*%
X212500000Y-83100000D03*
D15*
%TO.P,RV105,MP,MountPin*%
%TO.N,GNDREF*%
X205250000Y-79000000D03*
X214750000Y-79000000D03*
%TD*%
D13*
%TO.P,RV104,1,1*%
%TO.N,GNDA*%
X107500000Y-83100000D03*
D14*
%TO.P,RV104,2,2*%
%TO.N,AMP03*%
X110000000Y-83100000D03*
%TO.P,RV104,3,3*%
%TO.N,Net-(C104-Pad2)*%
X112500000Y-83100000D03*
D15*
%TO.P,RV104,MP,MountPin*%
%TO.N,GNDREF*%
X105250000Y-79000000D03*
X114750000Y-79000000D03*
%TD*%
D16*
%TO.P,J101,1,Pin_1*%
%TO.N,VCC*%
X115870000Y-63252500D03*
D17*
%TO.P,J101,2,Pin_2*%
X115870000Y-60712500D03*
%TO.P,J101,3,Pin_3*%
X118410000Y-63252500D03*
%TO.P,J101,4,Pin_4*%
X118410000Y-60712500D03*
%TO.P,J101,5,Pin_5*%
%TO.N,LINE01*%
X120950000Y-63252500D03*
%TO.P,J101,6,Pin_6*%
%TO.N,GNDA*%
X120950000Y-60712500D03*
%TO.P,J101,7,Pin_7*%
%TO.N,LINE02*%
X123490000Y-63252500D03*
%TO.P,J101,8,Pin_8*%
%TO.N,GNDA*%
X123490000Y-60712500D03*
%TO.P,J101,9,Pin_9*%
%TO.N,LINE03*%
X126030000Y-63252500D03*
%TO.P,J101,10,Pin_10*%
%TO.N,GNDA*%
X126030000Y-60712500D03*
%TO.P,J101,11,Pin_11*%
%TO.N,LINE04*%
X128570000Y-63252500D03*
%TO.P,J101,12,Pin_12*%
%TO.N,GNDA*%
X128570000Y-60712500D03*
%TO.P,J101,13,Pin_13*%
%TO.N,LINE05*%
X131110000Y-63252500D03*
%TO.P,J101,14,Pin_14*%
%TO.N,GNDA*%
X131110000Y-60712500D03*
%TO.P,J101,15,Pin_15*%
%TO.N,LINE06*%
X133650000Y-63252500D03*
%TO.P,J101,16,Pin_16*%
%TO.N,GNDA*%
X133650000Y-60712500D03*
%TO.P,J101,17,Pin_17*%
%TO.N,LINE07*%
X136190000Y-63252500D03*
%TO.P,J101,18,Pin_18*%
%TO.N,GNDA*%
X136190000Y-60712500D03*
%TO.P,J101,19,Pin_19*%
%TO.N,LINE08*%
X138730000Y-63252500D03*
%TO.P,J101,20,Pin_20*%
%TO.N,GNDA*%
X138730000Y-60712500D03*
%TO.P,J101,21,Pin_21*%
%TO.N,LINE09*%
X141270000Y-63252500D03*
%TO.P,J101,22,Pin_22*%
%TO.N,GNDA*%
X141270000Y-60712500D03*
%TO.P,J101,23,Pin_23*%
%TO.N,LINE10*%
X143810000Y-63252500D03*
%TO.P,J101,24,Pin_24*%
%TO.N,GNDA*%
X143810000Y-60712500D03*
%TO.P,J101,25,Pin_25*%
%TO.N,LINE11*%
X146350000Y-63252500D03*
%TO.P,J101,26,Pin_26*%
%TO.N,GNDA*%
X146350000Y-60712500D03*
%TO.P,J101,27,Pin_27*%
%TO.N,LINE12*%
X148890000Y-63252500D03*
%TO.P,J101,28,Pin_28*%
%TO.N,GNDA*%
X148890000Y-60712500D03*
%TO.P,J101,29,Pin_29*%
%TO.N,LINE13*%
X151430000Y-63252500D03*
%TO.P,J101,30,Pin_30*%
%TO.N,GNDA*%
X151430000Y-60712500D03*
%TO.P,J101,31,Pin_31*%
%TO.N,LINE14*%
X153970000Y-63252500D03*
%TO.P,J101,32,Pin_32*%
%TO.N,GNDA*%
X153970000Y-60712500D03*
%TO.P,J101,33,Pin_33*%
%TO.N,LINE15*%
X156510000Y-63252500D03*
%TO.P,J101,34,Pin_34*%
%TO.N,GNDA*%
X156510000Y-60712500D03*
%TO.P,J101,35,Pin_35*%
%TO.N,LINE16*%
X159050000Y-63252500D03*
%TO.P,J101,36,Pin_36*%
%TO.N,GNDA*%
X159050000Y-60712500D03*
%TO.P,J101,37,Pin_37*%
%TO.N,VEE*%
X161590000Y-63252500D03*
%TO.P,J101,38,Pin_38*%
X161590000Y-60712500D03*
%TO.P,J101,39,Pin_39*%
X164130000Y-63252500D03*
%TO.P,J101,40,Pin_40*%
X164130000Y-60712500D03*
%TD*%
D18*
%TO.N,VCC*%
X183380000Y-55753000D03*
%TO.N,VEE*%
X256032000Y-61722000D03*
X256032000Y-53975000D03*
D19*
X161671000Y-54503000D03*
X163703000Y-54483000D03*
%TO.N,VCC*%
X273499616Y-56154000D03*
X273507200Y-60655200D03*
X275450208Y-56153999D03*
D18*
%TO.N,GNDA*%
X216916000Y-71678800D03*
%TO.N,LINE08*%
X197662800Y-72390000D03*
%TO.N,GNDA*%
X241609444Y-72136000D03*
%TO.N,AMP08*%
X251561600Y-69138800D03*
%TO.N,AMP09*%
X253133600Y-69716006D03*
%TO.N,AMP10*%
X255514252Y-69725127D03*
%TO.N,GNDA*%
X269717491Y-70919600D03*
%TO.N,AMP11*%
X274844102Y-71228558D03*
%TO.N,GNDA*%
X302158400Y-70815200D03*
%TO.N,AMP12*%
X304252552Y-71334552D03*
%TO.N,AMP13*%
X311251600Y-70764400D03*
%TO.N,GNDA*%
X308229000Y-70739000D03*
X327500000Y-70866000D03*
%TO.N,AMP14*%
X330000000Y-70110800D03*
%TO.N,AMP15*%
X350000000Y-74269600D03*
%TO.N,GNDA*%
X347776800Y-74777600D03*
%TD*%
%TO.N,VCC*%
D20*
X183500000Y-62000000D02*
X183500000Y-55873000D01*
X183500000Y-55873000D02*
X183380000Y-55753000D01*
%TO.N,VEE*%
X178500000Y-62000000D02*
X165382500Y-62000000D01*
X165382500Y-62000000D02*
X164130000Y-63252500D01*
%TO.N,VCC*%
X330848000Y-53848000D02*
X336500000Y-59500000D01*
X336500000Y-59500000D02*
X340000000Y-59500000D01*
%TO.N,VEE*%
D21*
X324130000Y-63252500D02*
X325377500Y-64500000D01*
X325377500Y-64500000D02*
X340000000Y-64500000D01*
%TO.N,VCC*%
D20*
X330848000Y-53848000D02*
X285274500Y-53848000D01*
X285274500Y-53848000D02*
X278410000Y-60712500D01*
%TO.N,VEE*%
X256032000Y-53975000D02*
X256032000Y-61722000D01*
%TO.N,VCC*%
D21*
X275870000Y-56573791D02*
X275450208Y-56153999D01*
X273507200Y-60655200D02*
X273507200Y-57258584D01*
X273499616Y-57251000D02*
X273499616Y-56154000D01*
X275870000Y-63252500D02*
X275870000Y-56573791D01*
X273507200Y-57258584D02*
X273499616Y-57251000D01*
%TO.N,VEE*%
X161590000Y-54584000D02*
X161671000Y-54503000D01*
X161590000Y-60712500D02*
X161590000Y-54584000D01*
X163703000Y-54483000D02*
X164084000Y-54864000D01*
X164084000Y-54864000D02*
X164084000Y-60666500D01*
X164084000Y-60666500D02*
X164130000Y-60712500D01*
%TO.N,AMP15*%
D22*
X350000000Y-83100000D02*
X350000000Y-74269600D01*
%TO.N,GNDA*%
X347500000Y-83100000D02*
X347500000Y-75054400D01*
X347500000Y-75054400D02*
X347776800Y-74777600D01*
%TO.N,AMP14*%
X330000000Y-70110800D02*
X330000000Y-83100000D01*
%TO.N,GNDA*%
X216916000Y-71678800D02*
X223012000Y-71678800D01*
X223012000Y-71678800D02*
X227076000Y-75742800D01*
X227076000Y-75742800D02*
X227228400Y-75742800D01*
X227500000Y-76014400D02*
X227500000Y-83100000D01*
X227228400Y-75742800D02*
X227500000Y-76014400D01*
%TO.N,AMP08*%
X233435072Y-69325600D02*
X233766272Y-68994400D01*
X217284497Y-69966800D02*
X219038646Y-69966800D01*
X210000000Y-77251297D02*
X217284497Y-69966800D01*
X219679846Y-69325600D02*
X233435072Y-69325600D01*
X251417200Y-68994400D02*
X251561600Y-69138800D01*
X219038646Y-69966800D02*
X219679846Y-69325600D01*
X233766272Y-68994400D02*
X251417200Y-68994400D01*
X210000000Y-83100000D02*
X210000000Y-77251297D01*
%TO.N,AMP12*%
X302982551Y-71334552D02*
X304252552Y-71334552D01*
X290000000Y-80890800D02*
X299125600Y-71765200D01*
X302551903Y-71765200D02*
X302982551Y-71334552D01*
X299125600Y-71765200D02*
X302551903Y-71765200D01*
X290000000Y-83100000D02*
X290000000Y-80890800D01*
%TO.N,GNDA*%
X287500000Y-81714400D02*
X298399200Y-70815200D01*
X298399200Y-70815200D02*
X302158400Y-70815200D01*
X287500000Y-83100000D02*
X287500000Y-81714400D01*
%TO.N,AMP06*%
X170000000Y-83100000D02*
X170000000Y-78462800D01*
X170000000Y-78462800D02*
X179936800Y-68526000D01*
X179936800Y-68526000D02*
X180492400Y-68526000D01*
%TO.N,GNDA*%
X307500000Y-71468000D02*
X308229000Y-70739000D01*
X307500000Y-83100000D02*
X307500000Y-71468000D01*
X327500000Y-83100000D02*
X327500000Y-70866000D01*
%TO.N,LINE08*%
X198999600Y-76657200D02*
X198999600Y-73726800D01*
X198999600Y-73726800D02*
X197662800Y-72390000D01*
%TO.N,GNDA*%
X247500000Y-83100000D02*
X247500000Y-78026556D01*
X247500000Y-78026556D02*
X241609444Y-72136000D01*
%TO.N,AMP11*%
X270000000Y-83100000D02*
X270000000Y-76072660D01*
%TO.N,AMP09*%
X251168097Y-70088800D02*
X252760806Y-70088800D01*
%TO.N,AMP10*%
X250000000Y-83100000D02*
X250000000Y-75239379D01*
%TO.N,GNDA*%
X267500000Y-73137091D02*
X269717491Y-70919600D01*
%TO.N,AMP09*%
X230000000Y-73609200D02*
X233860800Y-69748400D01*
X233860800Y-69748400D02*
X250827697Y-69748400D01*
X250827697Y-69748400D02*
X251168097Y-70088800D01*
X252760806Y-70088800D02*
X253133600Y-69716006D01*
%TO.N,GNDA*%
X267500000Y-83100000D02*
X267500000Y-73137091D01*
%TO.N,AMP11*%
X270000000Y-76072660D02*
X274844102Y-71228558D01*
%TO.N,AMP10*%
X250000000Y-75239379D02*
X255514252Y-69725127D01*
%TO.N,AMP09*%
X230000000Y-83100000D02*
X230000000Y-73609200D01*
%TO.N,AMP07*%
X290914000Y-68394400D02*
X291693600Y-67614800D01*
X257851226Y-68394400D02*
X290914000Y-68394400D01*
X257645626Y-68188800D02*
X257851226Y-68394400D01*
X251168097Y-68188800D02*
X257645626Y-68188800D01*
X250962497Y-68394400D02*
X251168097Y-68188800D01*
X291693600Y-67614800D02*
X291827700Y-67614800D01*
X233517744Y-68394400D02*
X250962497Y-68394400D01*
X233186544Y-68725600D02*
X233517744Y-68394400D01*
X219288482Y-68725600D02*
X233186544Y-68725600D01*
X218788082Y-69226000D02*
X219288482Y-68725600D01*
X198337600Y-69226000D02*
X218788082Y-69226000D01*
X190000000Y-77563600D02*
X198337600Y-69226000D01*
X190000000Y-83100000D02*
X190000000Y-77563600D01*
X291827700Y-67614800D02*
X296190000Y-63252500D01*
%TO.N,AMP06*%
X180216200Y-68526000D02*
X180492400Y-68526000D01*
X180492400Y-68526000D02*
X218498133Y-68526000D01*
X218498133Y-68526000D02*
X218898533Y-68125600D01*
X218898533Y-68125600D02*
X232938016Y-68125600D01*
X233269216Y-67794400D02*
X250713969Y-67794400D01*
X290779200Y-66192400D02*
X290779200Y-66123300D01*
X232938016Y-68125600D02*
X233269216Y-67794400D01*
X250956769Y-67551600D02*
X289420000Y-67551600D01*
X250713969Y-67794400D02*
X250956769Y-67551600D01*
X290779200Y-66123300D02*
X293650000Y-63252500D01*
X289420000Y-67551600D02*
X290779200Y-66192400D01*
%TO.N,AMP05*%
X150000000Y-83100000D02*
X150000000Y-77864815D01*
X233020688Y-67194400D02*
X250465441Y-67194400D01*
X250465441Y-67194400D02*
X250708241Y-66951600D01*
X250708241Y-66951600D02*
X287410900Y-66951600D01*
X150000000Y-77864815D02*
X160039817Y-67825000D01*
X160039817Y-67825000D02*
X218207769Y-67825000D01*
X218207769Y-67825000D02*
X218507169Y-67525600D01*
X218507169Y-67525600D02*
X232689488Y-67525600D01*
X232689488Y-67525600D02*
X233020688Y-67194400D01*
X287410900Y-66951600D02*
X291110000Y-63252500D01*
%TO.N,AMP04*%
X218115803Y-66925600D02*
X232440960Y-66925600D01*
X232772160Y-66594400D02*
X250216913Y-66594400D01*
X130000000Y-78711800D02*
X139522200Y-69189600D01*
X217916403Y-67125000D02*
X218115803Y-66925600D01*
X250216913Y-66594400D02*
X250459713Y-66351600D01*
X232440960Y-66925600D02*
X232772160Y-66594400D01*
X159749866Y-67125000D02*
X217916403Y-67125000D01*
X250459713Y-66351600D02*
X285470900Y-66351600D01*
X159748865Y-67126000D02*
X159749866Y-67125000D01*
X159747453Y-67126000D02*
X159748865Y-67126000D01*
X157683851Y-69189600D02*
X159747453Y-67126000D01*
X139522200Y-69189600D02*
X157683851Y-69189600D01*
X130000000Y-83100000D02*
X130000000Y-78711800D01*
X285470900Y-66351600D02*
X288570000Y-63252500D01*
%TO.N,AMP01*%
X156845772Y-67055000D02*
X158876772Y-65024000D01*
X217484947Y-64585195D02*
X218025352Y-65125600D01*
X101294436Y-67589400D02*
X101827836Y-67056000D01*
X158876772Y-65024000D02*
X158878188Y-65024000D01*
%TO.N,AMP03*%
X217626455Y-66425000D02*
X217725855Y-66325600D01*
%TO.N,AMP02*%
X258221872Y-65135200D02*
X281607300Y-65135200D01*
%TO.N,AMP01*%
X217483533Y-64585200D02*
X217483538Y-64585195D01*
X257956944Y-64551600D02*
X257973344Y-64535200D01*
X158879189Y-65023000D02*
X216465822Y-65023000D01*
%TO.N,AMP03*%
X110000000Y-83100000D02*
X110000000Y-80899224D01*
%TO.N,AMP02*%
X90000000Y-83100000D02*
X90000000Y-79875200D01*
%TO.N,AMP01*%
X216465822Y-65023000D02*
X216465830Y-65022994D01*
%TO.N,AMP02*%
X157136136Y-67756000D02*
X159167136Y-65725000D01*
X102118200Y-67757000D02*
X122150860Y-67757000D01*
%TO.N,AMP01*%
X70000000Y-83100000D02*
X70000000Y-78513800D01*
X216465830Y-65022994D02*
X217045733Y-65022995D01*
%TO.N,AMP02*%
X258205472Y-65151600D02*
X258221872Y-65135200D01*
%TO.N,AMP03*%
X157426500Y-68457000D02*
X159457500Y-66426000D01*
%TO.N,AMP02*%
X249719857Y-65394400D02*
X249962657Y-65151600D01*
%TO.N,AMP01*%
X231695376Y-65125600D02*
X232177976Y-64643000D01*
%TO.N,AMP02*%
X159168552Y-65725000D02*
X159169552Y-65724000D01*
X122151861Y-67756000D02*
X157136136Y-67756000D01*
%TO.N,AMP03*%
X249968385Y-65994400D02*
X250211185Y-65751600D01*
%TO.N,AMP01*%
X232177976Y-64643000D02*
X249622729Y-64643000D01*
%TO.N,AMP02*%
X90000000Y-79875200D02*
X102118200Y-67757000D01*
X249962657Y-65151600D02*
X258205472Y-65151600D01*
%TO.N,AMP01*%
X101827836Y-67056000D02*
X121860496Y-67056000D01*
X217045733Y-65022995D02*
X217483528Y-64585200D01*
%TO.N,AMP02*%
X217776824Y-65725600D02*
X231943904Y-65725600D01*
X281607300Y-65135200D02*
X283490000Y-63252500D01*
%TO.N,AMP01*%
X249714129Y-64551600D02*
X257956944Y-64551600D01*
%TO.N,AMP03*%
X217725855Y-66325600D02*
X232192432Y-66325600D01*
%TO.N,AMP01*%
X217483538Y-64585195D02*
X217484947Y-64585195D01*
%TO.N,AMP02*%
X159167136Y-65725000D02*
X159168552Y-65725000D01*
%TO.N,AMP01*%
X257973344Y-64535200D02*
X279667300Y-64535200D01*
X279667300Y-64535200D02*
X280950000Y-63252500D01*
X218025352Y-65125600D02*
X231695376Y-65125600D01*
X121861497Y-67055000D02*
X156845772Y-67055000D01*
%TO.N,AMP02*%
X122150860Y-67757000D02*
X122151861Y-67756000D01*
X159169552Y-65724000D02*
X217775224Y-65724000D01*
%TO.N,AMP01*%
X121860496Y-67056000D02*
X121861497Y-67055000D01*
X80924400Y-67589400D02*
X101294436Y-67589400D01*
%TO.N,AMP03*%
X159458916Y-66426000D02*
X159459917Y-66425000D01*
X232523632Y-65994400D02*
X249968385Y-65994400D01*
%TO.N,AMP01*%
X158878188Y-65024000D02*
X158879189Y-65023000D01*
X70000000Y-78513800D02*
X80924400Y-67589400D01*
%TO.N,AMP02*%
X232275104Y-65394400D02*
X249719857Y-65394400D01*
%TO.N,AMP01*%
X217483528Y-64585200D02*
X217483533Y-64585200D01*
X249622729Y-64643000D02*
X249714129Y-64551600D01*
%TO.N,AMP02*%
X231943904Y-65725600D02*
X232275104Y-65394400D01*
X217775224Y-65724000D02*
X217776824Y-65725600D01*
%TO.N,AMP03*%
X110000000Y-80899224D02*
X122442224Y-68457000D01*
X122442224Y-68457000D02*
X157426500Y-68457000D01*
X159457500Y-66426000D02*
X159458916Y-66426000D01*
X159459917Y-66425000D02*
X217626455Y-66425000D01*
X232192432Y-66325600D02*
X232523632Y-65994400D01*
X250211185Y-65751600D02*
X283530900Y-65751600D01*
X283530900Y-65751600D02*
X286030000Y-63252500D01*
%TO.N,AMP13*%
X310000000Y-83100000D02*
X310000000Y-72016000D01*
X310000000Y-72016000D02*
X311251600Y-70764400D01*
%TO.N,Net-(C116-Pad2)*%
X372500000Y-83100000D02*
X366057200Y-76657200D01*
X366057200Y-76657200D02*
X361019600Y-76657200D01*
%TO.N,AMP14*%
X314026700Y-63252500D02*
X313970000Y-63252500D01*
%TD*%
%TA.AperFunction,Conductor*%
%TO.N,GNDREF*%
G36*
X71598820Y-75711685D02*
G01*
X71644575Y-75764489D01*
X71654519Y-75833647D01*
X71625494Y-75897203D01*
X71619462Y-75903681D01*
X69455888Y-78067253D01*
X69455887Y-78067254D01*
X69379222Y-78181992D01*
X69326421Y-78309467D01*
X69326418Y-78309479D01*
X69306637Y-78408927D01*
X69306637Y-78408930D01*
X69299500Y-78444806D01*
X69299500Y-81814648D01*
X69298404Y-81818379D01*
X69299272Y-81822172D01*
X69288636Y-81851645D01*
X69279815Y-81881687D01*
X69276494Y-81885291D01*
X69275556Y-81887893D01*
X69257834Y-81905550D01*
X69250867Y-81913115D01*
X69249613Y-81914074D01*
X69087635Y-82031758D01*
X69060801Y-82058591D01*
X69054284Y-82063580D01*
X69029031Y-82073307D01*
X69005273Y-82086280D01*
X68996907Y-82085681D01*
X68989084Y-82088695D01*
X68962580Y-82083225D01*
X68935581Y-82081294D01*
X68928868Y-82076268D01*
X68920657Y-82074574D01*
X68901315Y-82055641D01*
X68879648Y-82039421D01*
X68873797Y-82028706D01*
X68870726Y-82025700D01*
X68869694Y-82021192D01*
X68862735Y-82008446D01*
X68843797Y-81957671D01*
X68843793Y-81957664D01*
X68757547Y-81842455D01*
X68757544Y-81842452D01*
X68642335Y-81756206D01*
X68642328Y-81756202D01*
X68507482Y-81705908D01*
X68507483Y-81705908D01*
X68447883Y-81699501D01*
X68447881Y-81699500D01*
X68447873Y-81699500D01*
X68447864Y-81699500D01*
X66552129Y-81699500D01*
X66552123Y-81699501D01*
X66492516Y-81705908D01*
X66357671Y-81756202D01*
X66357664Y-81756206D01*
X66242455Y-81842452D01*
X66242452Y-81842455D01*
X66156206Y-81957664D01*
X66156202Y-81957671D01*
X66105908Y-82092517D01*
X66099501Y-82152116D01*
X66099500Y-82152135D01*
X66099500Y-84047870D01*
X66099501Y-84047876D01*
X66105908Y-84107483D01*
X66156202Y-84242328D01*
X66156206Y-84242335D01*
X66242452Y-84357544D01*
X66242455Y-84357547D01*
X66357664Y-84443793D01*
X66357671Y-84443797D01*
X66492517Y-84494091D01*
X66492516Y-84494091D01*
X66499444Y-84494835D01*
X66552127Y-84500500D01*
X68447872Y-84500499D01*
X68507483Y-84494091D01*
X68642331Y-84443796D01*
X68757546Y-84357546D01*
X68843796Y-84242331D01*
X68862735Y-84191554D01*
X68904606Y-84135620D01*
X68970070Y-84111202D01*
X69038343Y-84126053D01*
X69066598Y-84147205D01*
X69087636Y-84168243D01*
X69087641Y-84168247D01*
X69119721Y-84191554D01*
X69265978Y-84297815D01*
X69394375Y-84363237D01*
X69462393Y-84397895D01*
X69462396Y-84397896D01*
X69567221Y-84431955D01*
X69672049Y-84466015D01*
X69889778Y-84500500D01*
X69889779Y-84500500D01*
X70110221Y-84500500D01*
X70110222Y-84500500D01*
X70327951Y-84466015D01*
X70537606Y-84397895D01*
X70734022Y-84297815D01*
X70912365Y-84168242D01*
X71068242Y-84012365D01*
X71149682Y-83900270D01*
X71205011Y-83857606D01*
X71274624Y-83851627D01*
X71336420Y-83884232D01*
X71350313Y-83900265D01*
X71431753Y-84012358D01*
X71431758Y-84012365D01*
X71587636Y-84168243D01*
X71587641Y-84168247D01*
X71619721Y-84191554D01*
X71765978Y-84297815D01*
X71894375Y-84363237D01*
X71962393Y-84397895D01*
X71962396Y-84397896D01*
X72067221Y-84431955D01*
X72172049Y-84466015D01*
X72389778Y-84500500D01*
X72389779Y-84500500D01*
X72610221Y-84500500D01*
X72610222Y-84500500D01*
X72827951Y-84466015D01*
X73037606Y-84397895D01*
X73234022Y-84297815D01*
X73412365Y-84168242D01*
X73568242Y-84012365D01*
X73697815Y-83834022D01*
X73797895Y-83637606D01*
X73866015Y-83427951D01*
X73900500Y-83210222D01*
X73900500Y-82989778D01*
X73866015Y-82772049D01*
X73797895Y-82562394D01*
X73797895Y-82562393D01*
X73763237Y-82494375D01*
X73697815Y-82365978D01*
X73599501Y-82230659D01*
X73568247Y-82187641D01*
X73568243Y-82187636D01*
X73412363Y-82031756D01*
X73412358Y-82031752D01*
X73234025Y-81902187D01*
X73234024Y-81902186D01*
X73234022Y-81902185D01*
X73116791Y-81842452D01*
X73037606Y-81802104D01*
X73037603Y-81802103D01*
X72827952Y-81733985D01*
X72719086Y-81716742D01*
X72610222Y-81699500D01*
X72389778Y-81699500D01*
X72317201Y-81710995D01*
X72172047Y-81733985D01*
X71962396Y-81802103D01*
X71962393Y-81802104D01*
X71765974Y-81902187D01*
X71587641Y-82031752D01*
X71587636Y-82031756D01*
X71431756Y-82187636D01*
X71431752Y-82187641D01*
X71350318Y-82299727D01*
X71294989Y-82342393D01*
X71225375Y-82348372D01*
X71163580Y-82315767D01*
X71149682Y-82299727D01*
X71068247Y-82187641D01*
X71068243Y-82187636D01*
X70912363Y-82031756D01*
X70912358Y-82031752D01*
X70751615Y-81914966D01*
X70708949Y-81859636D01*
X70700500Y-81814648D01*
X70700500Y-78855319D01*
X70720185Y-78788280D01*
X70736819Y-78767638D01*
X71062458Y-78441999D01*
X72750000Y-78441999D01*
X72750000Y-78750000D01*
X73909252Y-78750000D01*
X73887482Y-78787708D01*
X73850000Y-78927591D01*
X73850000Y-79072409D01*
X73887482Y-79212292D01*
X73909252Y-79250000D01*
X72750000Y-79250000D01*
X72750000Y-79558000D01*
X72760608Y-79677325D01*
X72760609Y-79677328D01*
X72816557Y-79872861D01*
X72910721Y-80053129D01*
X73039246Y-80210753D01*
X73196870Y-80339278D01*
X73377138Y-80433442D01*
X73572671Y-80489390D01*
X73572674Y-80489391D01*
X73691999Y-80499999D01*
X73692002Y-80500000D01*
X74500000Y-80500000D01*
X74500000Y-79550000D01*
X75000000Y-79550000D01*
X75000000Y-80500000D01*
X75807998Y-80500000D01*
X75808000Y-80499999D01*
X75927325Y-80489391D01*
X75927328Y-80489390D01*
X76122861Y-80433442D01*
X76303129Y-80339278D01*
X76460753Y-80210753D01*
X76589278Y-80053129D01*
X76683442Y-79872861D01*
X76739390Y-79677328D01*
X76739391Y-79677325D01*
X76749999Y-79558000D01*
X76750000Y-79557998D01*
X76750000Y-79250000D01*
X75590748Y-79250000D01*
X75612518Y-79212292D01*
X75650000Y-79072409D01*
X75650000Y-78927591D01*
X75612518Y-78787708D01*
X75590748Y-78750000D01*
X76750000Y-78750000D01*
X76750000Y-78442002D01*
X76749999Y-78441999D01*
X83250000Y-78441999D01*
X83250000Y-78750000D01*
X84409252Y-78750000D01*
X84387482Y-78787708D01*
X84350000Y-78927591D01*
X84350000Y-79072409D01*
X84387482Y-79212292D01*
X84409252Y-79250000D01*
X83250000Y-79250000D01*
X83250000Y-79558000D01*
X83260608Y-79677325D01*
X83260609Y-79677328D01*
X83316557Y-79872861D01*
X83410721Y-80053129D01*
X83539246Y-80210753D01*
X83696870Y-80339278D01*
X83877138Y-80433442D01*
X84072671Y-80489390D01*
X84072674Y-80489391D01*
X84191999Y-80499999D01*
X84192002Y-80500000D01*
X85000000Y-80500000D01*
X85000000Y-79550000D01*
X85500000Y-79550000D01*
X85500000Y-80500000D01*
X86307998Y-80500000D01*
X86308000Y-80499999D01*
X86427325Y-80489391D01*
X86427328Y-80489390D01*
X86622861Y-80433442D01*
X86803129Y-80339278D01*
X86960753Y-80210753D01*
X87089278Y-80053129D01*
X87183442Y-79872861D01*
X87239390Y-79677328D01*
X87239391Y-79677325D01*
X87249999Y-79558000D01*
X87250000Y-79557998D01*
X87250000Y-79250000D01*
X86090748Y-79250000D01*
X86112518Y-79212292D01*
X86150000Y-79072409D01*
X86150000Y-78927591D01*
X86112518Y-78787708D01*
X86090748Y-78750000D01*
X87250000Y-78750000D01*
X87250000Y-78442002D01*
X87249999Y-78441999D01*
X87239391Y-78322674D01*
X87239390Y-78322671D01*
X87183442Y-78127138D01*
X87089278Y-77946870D01*
X86960753Y-77789246D01*
X86803129Y-77660721D01*
X86622861Y-77566557D01*
X86427328Y-77510609D01*
X86427325Y-77510608D01*
X86308000Y-77500000D01*
X85500000Y-77500000D01*
X85500000Y-78450000D01*
X85000000Y-78450000D01*
X85000000Y-77500000D01*
X84191999Y-77500000D01*
X84072674Y-77510608D01*
X84072671Y-77510609D01*
X83877138Y-77566557D01*
X83696870Y-77660721D01*
X83539246Y-77789246D01*
X83410721Y-77946870D01*
X83316557Y-78127138D01*
X83260609Y-78322671D01*
X83260608Y-78322674D01*
X83250000Y-78441999D01*
X76749999Y-78441999D01*
X76739391Y-78322674D01*
X76739390Y-78322671D01*
X76683442Y-78127138D01*
X76589278Y-77946870D01*
X76460753Y-77789246D01*
X76303129Y-77660721D01*
X76122861Y-77566557D01*
X75927328Y-77510609D01*
X75927325Y-77510608D01*
X75808000Y-77500000D01*
X75000000Y-77500000D01*
X75000000Y-78450000D01*
X74500000Y-78450000D01*
X74500000Y-77500000D01*
X73691999Y-77500000D01*
X73572674Y-77510608D01*
X73572671Y-77510609D01*
X73377138Y-77566557D01*
X73196870Y-77660721D01*
X73039246Y-77789246D01*
X72910721Y-77946870D01*
X72816557Y-78127138D01*
X72760609Y-78322671D01*
X72760608Y-78322674D01*
X72750000Y-78441999D01*
X71062458Y-78441999D01*
X73776138Y-75728319D01*
X73837461Y-75694834D01*
X73863819Y-75692000D01*
X92893181Y-75692000D01*
X92960220Y-75711685D01*
X93005975Y-75764489D01*
X93015919Y-75833647D01*
X92986894Y-75897203D01*
X92980862Y-75903681D01*
X89455888Y-79428653D01*
X89455887Y-79428654D01*
X89379222Y-79543392D01*
X89326421Y-79670867D01*
X89326418Y-79670877D01*
X89299500Y-79806204D01*
X89299500Y-81814648D01*
X89298404Y-81818379D01*
X89299272Y-81822172D01*
X89288636Y-81851645D01*
X89279815Y-81881687D01*
X89276494Y-81885291D01*
X89275556Y-81887893D01*
X89257834Y-81905550D01*
X89250867Y-81913115D01*
X89249613Y-81914074D01*
X89087635Y-82031758D01*
X89060801Y-82058591D01*
X89054284Y-82063580D01*
X89029031Y-82073307D01*
X89005273Y-82086280D01*
X88996907Y-82085681D01*
X88989084Y-82088695D01*
X88962580Y-82083225D01*
X88935581Y-82081294D01*
X88928868Y-82076268D01*
X88920657Y-82074574D01*
X88901315Y-82055641D01*
X88879648Y-82039421D01*
X88873797Y-82028706D01*
X88870726Y-82025700D01*
X88869694Y-82021192D01*
X88862735Y-82008446D01*
X88843797Y-81957671D01*
X88843793Y-81957664D01*
X88757547Y-81842455D01*
X88757544Y-81842452D01*
X88642335Y-81756206D01*
X88642328Y-81756202D01*
X88507482Y-81705908D01*
X88507483Y-81705908D01*
X88447883Y-81699501D01*
X88447881Y-81699500D01*
X88447873Y-81699500D01*
X88447864Y-81699500D01*
X86552129Y-81699500D01*
X86552123Y-81699501D01*
X86492516Y-81705908D01*
X86357671Y-81756202D01*
X86357664Y-81756206D01*
X86242455Y-81842452D01*
X86242452Y-81842455D01*
X86156206Y-81957664D01*
X86156202Y-81957671D01*
X86105908Y-82092517D01*
X86099501Y-82152116D01*
X86099500Y-82152135D01*
X86099500Y-84047870D01*
X86099501Y-84047876D01*
X86105908Y-84107483D01*
X86156202Y-84242328D01*
X86156206Y-84242335D01*
X86242452Y-84357544D01*
X86242455Y-84357547D01*
X86357664Y-84443793D01*
X86357671Y-84443797D01*
X86492517Y-84494091D01*
X86492516Y-84494091D01*
X86499444Y-84494835D01*
X86552127Y-84500500D01*
X88447872Y-84500499D01*
X88507483Y-84494091D01*
X88642331Y-84443796D01*
X88757546Y-84357546D01*
X88843796Y-84242331D01*
X88862735Y-84191554D01*
X88904606Y-84135620D01*
X88970070Y-84111202D01*
X89038343Y-84126053D01*
X89066598Y-84147205D01*
X89087636Y-84168243D01*
X89087641Y-84168247D01*
X89119721Y-84191554D01*
X89265978Y-84297815D01*
X89394375Y-84363237D01*
X89462393Y-84397895D01*
X89462396Y-84397896D01*
X89567221Y-84431955D01*
X89672049Y-84466015D01*
X89889778Y-84500500D01*
X89889779Y-84500500D01*
X90110221Y-84500500D01*
X90110222Y-84500500D01*
X90327951Y-84466015D01*
X90537606Y-84397895D01*
X90734022Y-84297815D01*
X90912365Y-84168242D01*
X91068242Y-84012365D01*
X91149682Y-83900270D01*
X91205011Y-83857606D01*
X91274624Y-83851627D01*
X91336420Y-83884232D01*
X91350313Y-83900265D01*
X91431753Y-84012358D01*
X91431758Y-84012365D01*
X91587636Y-84168243D01*
X91587641Y-84168247D01*
X91619721Y-84191554D01*
X91765978Y-84297815D01*
X91894375Y-84363237D01*
X91962393Y-84397895D01*
X91962396Y-84397896D01*
X92067221Y-84431955D01*
X92172049Y-84466015D01*
X92389778Y-84500500D01*
X92389779Y-84500500D01*
X92610221Y-84500500D01*
X92610222Y-84500500D01*
X92827951Y-84466015D01*
X93037606Y-84397895D01*
X93234022Y-84297815D01*
X93412365Y-84168242D01*
X93568242Y-84012365D01*
X93697815Y-83834022D01*
X93797895Y-83637606D01*
X93866015Y-83427951D01*
X93900500Y-83210222D01*
X93900500Y-82989778D01*
X93866015Y-82772049D01*
X93797895Y-82562394D01*
X93797895Y-82562393D01*
X93763237Y-82494375D01*
X93697815Y-82365978D01*
X93599501Y-82230659D01*
X93568247Y-82187641D01*
X93568243Y-82187636D01*
X93412363Y-82031756D01*
X93412358Y-82031752D01*
X93234025Y-81902187D01*
X93234024Y-81902186D01*
X93234022Y-81902185D01*
X93116791Y-81842452D01*
X93037606Y-81802104D01*
X93037603Y-81802103D01*
X92827952Y-81733985D01*
X92719086Y-81716742D01*
X92610222Y-81699500D01*
X92389778Y-81699500D01*
X92317201Y-81710995D01*
X92172047Y-81733985D01*
X91962396Y-81802103D01*
X91962393Y-81802104D01*
X91765974Y-81902187D01*
X91587641Y-82031752D01*
X91587636Y-82031756D01*
X91431756Y-82187636D01*
X91431752Y-82187641D01*
X91350318Y-82299727D01*
X91294989Y-82342393D01*
X91225375Y-82348372D01*
X91163580Y-82315767D01*
X91149682Y-82299727D01*
X91068247Y-82187641D01*
X91068243Y-82187636D01*
X90912363Y-82031756D01*
X90912358Y-82031752D01*
X90751615Y-81914966D01*
X90708949Y-81859636D01*
X90700500Y-81814648D01*
X90700500Y-80216718D01*
X90720185Y-80149679D01*
X90736814Y-80129042D01*
X92540399Y-78325457D01*
X92601718Y-78291975D01*
X92671410Y-78296959D01*
X92727343Y-78338831D01*
X92751760Y-78404295D01*
X92751589Y-78424119D01*
X92750000Y-78441991D01*
X92750000Y-78750000D01*
X93909252Y-78750000D01*
X93887482Y-78787708D01*
X93850000Y-78927591D01*
X93850000Y-79072409D01*
X93887482Y-79212292D01*
X93909252Y-79250000D01*
X92750000Y-79250000D01*
X92750000Y-79558000D01*
X92760608Y-79677325D01*
X92760609Y-79677328D01*
X92816557Y-79872861D01*
X92910721Y-80053129D01*
X93039246Y-80210753D01*
X93196870Y-80339278D01*
X93377138Y-80433442D01*
X93572671Y-80489390D01*
X93572674Y-80489391D01*
X93691999Y-80499999D01*
X93692002Y-80500000D01*
X94500000Y-80500000D01*
X94500000Y-79550000D01*
X95000000Y-79550000D01*
X95000000Y-80500000D01*
X95807998Y-80500000D01*
X95808000Y-80499999D01*
X95927325Y-80489391D01*
X95927328Y-80489390D01*
X96122861Y-80433442D01*
X96303129Y-80339278D01*
X96460753Y-80210753D01*
X96589278Y-80053129D01*
X96683442Y-79872861D01*
X96739390Y-79677328D01*
X96739391Y-79677325D01*
X96749999Y-79558000D01*
X96750000Y-79557998D01*
X96750000Y-79250000D01*
X95590748Y-79250000D01*
X95612518Y-79212292D01*
X95650000Y-79072409D01*
X95650000Y-78927591D01*
X95612518Y-78787708D01*
X95590748Y-78750000D01*
X96750000Y-78750000D01*
X96750000Y-78442002D01*
X96749999Y-78441999D01*
X103250000Y-78441999D01*
X103250000Y-78750000D01*
X104409252Y-78750000D01*
X104387482Y-78787708D01*
X104350000Y-78927591D01*
X104350000Y-79072409D01*
X104387482Y-79212292D01*
X104409252Y-79250000D01*
X103250000Y-79250000D01*
X103250000Y-79558000D01*
X103260608Y-79677325D01*
X103260609Y-79677328D01*
X103316557Y-79872861D01*
X103410721Y-80053129D01*
X103539246Y-80210753D01*
X103696870Y-80339278D01*
X103877138Y-80433442D01*
X104072671Y-80489390D01*
X104072674Y-80489391D01*
X104191999Y-80499999D01*
X104192002Y-80500000D01*
X105000000Y-80500000D01*
X105000000Y-79550000D01*
X105500000Y-79550000D01*
X105500000Y-80500000D01*
X106307998Y-80500000D01*
X106308000Y-80499999D01*
X106427325Y-80489391D01*
X106427328Y-80489390D01*
X106622861Y-80433442D01*
X106803129Y-80339278D01*
X106960753Y-80210753D01*
X107089278Y-80053129D01*
X107183442Y-79872861D01*
X107239390Y-79677328D01*
X107239391Y-79677325D01*
X107249999Y-79558000D01*
X107250000Y-79557998D01*
X107250000Y-79250000D01*
X106090748Y-79250000D01*
X106112518Y-79212292D01*
X106150000Y-79072409D01*
X106150000Y-78927591D01*
X106112518Y-78787708D01*
X106090748Y-78750000D01*
X107250000Y-78750000D01*
X107250000Y-78442002D01*
X107249999Y-78441999D01*
X107239391Y-78322674D01*
X107239390Y-78322671D01*
X107183442Y-78127138D01*
X107089278Y-77946870D01*
X106960753Y-77789246D01*
X106803129Y-77660721D01*
X106622861Y-77566557D01*
X106427328Y-77510609D01*
X106427325Y-77510608D01*
X106308000Y-77500000D01*
X105500000Y-77500000D01*
X105500000Y-78450000D01*
X105000000Y-78450000D01*
X105000000Y-77500000D01*
X104191999Y-77500000D01*
X104072674Y-77510608D01*
X104072671Y-77510609D01*
X103877138Y-77566557D01*
X103696870Y-77660721D01*
X103539246Y-77789246D01*
X103410721Y-77946870D01*
X103316557Y-78127138D01*
X103260609Y-78322671D01*
X103260608Y-78322674D01*
X103250000Y-78441999D01*
X96749999Y-78441999D01*
X96739391Y-78322674D01*
X96739390Y-78322671D01*
X96683442Y-78127138D01*
X96589278Y-77946870D01*
X96460753Y-77789246D01*
X96303129Y-77660721D01*
X96122861Y-77566557D01*
X95927328Y-77510609D01*
X95927325Y-77510608D01*
X95808000Y-77500000D01*
X95000000Y-77500000D01*
X95000000Y-78450000D01*
X94500000Y-78450000D01*
X94500000Y-77500000D01*
X93691991Y-77500000D01*
X93674119Y-77501589D01*
X93605600Y-77487917D01*
X93555350Y-77439371D01*
X93539323Y-77371364D01*
X93562607Y-77305489D01*
X93575448Y-77290408D01*
X95137538Y-75728319D01*
X95198861Y-75694834D01*
X95225219Y-75692000D01*
X113917205Y-75692000D01*
X113984244Y-75711685D01*
X114029999Y-75764489D01*
X114039943Y-75833647D01*
X114010918Y-75897203D01*
X114004886Y-75903681D01*
X109455888Y-80452677D01*
X109455887Y-80452678D01*
X109379222Y-80567416D01*
X109326421Y-80694891D01*
X109326418Y-80694902D01*
X109301177Y-80821802D01*
X109301176Y-80821808D01*
X109299500Y-80830231D01*
X109299500Y-81814648D01*
X109298404Y-81818379D01*
X109299272Y-81822172D01*
X109288636Y-81851645D01*
X109279815Y-81881687D01*
X109276494Y-81885291D01*
X109275556Y-81887893D01*
X109257834Y-81905550D01*
X109250867Y-81913115D01*
X109249613Y-81914074D01*
X109087635Y-82031758D01*
X109060801Y-82058591D01*
X109054284Y-82063580D01*
X109029031Y-82073307D01*
X109005273Y-82086280D01*
X108996907Y-82085681D01*
X108989084Y-82088695D01*
X108962580Y-82083225D01*
X108935581Y-82081294D01*
X108928868Y-82076268D01*
X108920657Y-82074574D01*
X108901315Y-82055641D01*
X108879648Y-82039421D01*
X108873797Y-82028706D01*
X108870726Y-82025700D01*
X108869694Y-82021192D01*
X108862735Y-82008446D01*
X108843797Y-81957671D01*
X108843793Y-81957664D01*
X108757547Y-81842455D01*
X108757544Y-81842452D01*
X108642335Y-81756206D01*
X108642328Y-81756202D01*
X108507482Y-81705908D01*
X108507483Y-81705908D01*
X108447883Y-81699501D01*
X108447881Y-81699500D01*
X108447873Y-81699500D01*
X108447864Y-81699500D01*
X106552129Y-81699500D01*
X106552123Y-81699501D01*
X106492516Y-81705908D01*
X106357671Y-81756202D01*
X106357664Y-81756206D01*
X106242455Y-81842452D01*
X106242452Y-81842455D01*
X106156206Y-81957664D01*
X106156202Y-81957671D01*
X106105908Y-82092517D01*
X106099501Y-82152116D01*
X106099500Y-82152135D01*
X106099500Y-84047870D01*
X106099501Y-84047876D01*
X106105908Y-84107483D01*
X106156202Y-84242328D01*
X106156206Y-84242335D01*
X106242452Y-84357544D01*
X106242455Y-84357547D01*
X106357664Y-84443793D01*
X106357671Y-84443797D01*
X106492517Y-84494091D01*
X106492516Y-84494091D01*
X106499444Y-84494835D01*
X106552127Y-84500500D01*
X108447872Y-84500499D01*
X108507483Y-84494091D01*
X108642331Y-84443796D01*
X108757546Y-84357546D01*
X108843796Y-84242331D01*
X108862735Y-84191554D01*
X108904606Y-84135620D01*
X108970070Y-84111202D01*
X109038343Y-84126053D01*
X109066598Y-84147205D01*
X109087636Y-84168243D01*
X109087641Y-84168247D01*
X109119721Y-84191554D01*
X109265978Y-84297815D01*
X109394375Y-84363237D01*
X109462393Y-84397895D01*
X109462396Y-84397896D01*
X109567221Y-84431955D01*
X109672049Y-84466015D01*
X109889778Y-84500500D01*
X109889779Y-84500500D01*
X110110221Y-84500500D01*
X110110222Y-84500500D01*
X110327951Y-84466015D01*
X110537606Y-84397895D01*
X110734022Y-84297815D01*
X110912365Y-84168242D01*
X111068242Y-84012365D01*
X111149682Y-83900270D01*
X111205011Y-83857606D01*
X111274624Y-83851627D01*
X111336420Y-83884232D01*
X111350313Y-83900265D01*
X111431753Y-84012358D01*
X111431758Y-84012365D01*
X111587636Y-84168243D01*
X111587641Y-84168247D01*
X111619721Y-84191554D01*
X111765978Y-84297815D01*
X111894375Y-84363237D01*
X111962393Y-84397895D01*
X111962396Y-84397896D01*
X112067221Y-84431955D01*
X112172049Y-84466015D01*
X112389778Y-84500500D01*
X112389779Y-84500500D01*
X112610221Y-84500500D01*
X112610222Y-84500500D01*
X112827951Y-84466015D01*
X113037606Y-84397895D01*
X113234022Y-84297815D01*
X113412365Y-84168242D01*
X113568242Y-84012365D01*
X113697815Y-83834022D01*
X113797895Y-83637606D01*
X113866015Y-83427951D01*
X113900500Y-83210222D01*
X113900500Y-82989778D01*
X113866015Y-82772049D01*
X113797895Y-82562394D01*
X113797895Y-82562393D01*
X113763237Y-82494375D01*
X113697815Y-82365978D01*
X113599501Y-82230659D01*
X113568247Y-82187641D01*
X113568243Y-82187636D01*
X113412363Y-82031756D01*
X113412358Y-82031752D01*
X113234025Y-81902187D01*
X113234024Y-81902186D01*
X113234022Y-81902185D01*
X113116791Y-81842452D01*
X113037606Y-81802104D01*
X113037603Y-81802103D01*
X112827952Y-81733985D01*
X112719086Y-81716742D01*
X112610222Y-81699500D01*
X112389778Y-81699500D01*
X112317201Y-81710995D01*
X112172047Y-81733985D01*
X111962396Y-81802103D01*
X111962393Y-81802104D01*
X111765974Y-81902187D01*
X111587641Y-82031752D01*
X111587636Y-82031756D01*
X111431756Y-82187636D01*
X111431752Y-82187641D01*
X111350318Y-82299727D01*
X111294989Y-82342393D01*
X111225375Y-82348372D01*
X111163580Y-82315767D01*
X111149682Y-82299727D01*
X111068247Y-82187641D01*
X111068243Y-82187636D01*
X110912363Y-82031756D01*
X110912358Y-82031752D01*
X110751615Y-81914966D01*
X110708949Y-81859636D01*
X110700500Y-81814648D01*
X110700500Y-81240743D01*
X110720185Y-81173704D01*
X110736819Y-81153062D01*
X112538319Y-79351562D01*
X112599642Y-79318077D01*
X112669334Y-79323061D01*
X112725267Y-79364933D01*
X112749684Y-79430397D01*
X112750000Y-79439243D01*
X112750000Y-79558000D01*
X112760608Y-79677325D01*
X112760609Y-79677328D01*
X112816557Y-79872861D01*
X112910721Y-80053129D01*
X113039246Y-80210753D01*
X113196870Y-80339278D01*
X113377138Y-80433442D01*
X113572671Y-80489390D01*
X113572674Y-80489391D01*
X113691999Y-80499999D01*
X113692002Y-80500000D01*
X114500000Y-80500000D01*
X114500000Y-79550000D01*
X115000000Y-79550000D01*
X115000000Y-80500000D01*
X115807998Y-80500000D01*
X115808000Y-80499999D01*
X115927325Y-80489391D01*
X115927328Y-80489390D01*
X116122861Y-80433442D01*
X116303129Y-80339278D01*
X116460753Y-80210753D01*
X116589278Y-80053129D01*
X116683442Y-79872861D01*
X116739390Y-79677328D01*
X116739391Y-79677325D01*
X116749999Y-79558000D01*
X116750000Y-79557998D01*
X116750000Y-79250000D01*
X115590748Y-79250000D01*
X115612518Y-79212292D01*
X115650000Y-79072409D01*
X115650000Y-78927591D01*
X115612518Y-78787708D01*
X115590748Y-78750000D01*
X116750000Y-78750000D01*
X116750000Y-78442002D01*
X116749999Y-78441999D01*
X123250000Y-78441999D01*
X123250000Y-78750000D01*
X124409252Y-78750000D01*
X124387482Y-78787708D01*
X124350000Y-78927591D01*
X124350000Y-79072409D01*
X124387482Y-79212292D01*
X124409252Y-79250000D01*
X123250000Y-79250000D01*
X123250000Y-79558000D01*
X123260608Y-79677325D01*
X123260609Y-79677328D01*
X123316557Y-79872861D01*
X123410721Y-80053129D01*
X123539246Y-80210753D01*
X123696870Y-80339278D01*
X123877138Y-80433442D01*
X124072671Y-80489390D01*
X124072674Y-80489391D01*
X124191999Y-80499999D01*
X124192002Y-80500000D01*
X125000000Y-80500000D01*
X125000000Y-79550000D01*
X125500000Y-79550000D01*
X125500000Y-80500000D01*
X126307998Y-80500000D01*
X126308000Y-80499999D01*
X126427325Y-80489391D01*
X126427328Y-80489390D01*
X126622861Y-80433442D01*
X126803129Y-80339278D01*
X126960753Y-80210753D01*
X127089278Y-80053129D01*
X127183442Y-79872861D01*
X127239390Y-79677328D01*
X127239391Y-79677325D01*
X127249999Y-79558000D01*
X127250000Y-79557998D01*
X127250000Y-79250000D01*
X126090748Y-79250000D01*
X126112518Y-79212292D01*
X126150000Y-79072409D01*
X126150000Y-78927591D01*
X126112518Y-78787708D01*
X126090748Y-78750000D01*
X127250000Y-78750000D01*
X127250000Y-78442002D01*
X127249999Y-78441999D01*
X127239391Y-78322674D01*
X127239390Y-78322671D01*
X127183442Y-78127138D01*
X127089278Y-77946870D01*
X126960753Y-77789246D01*
X126803129Y-77660721D01*
X126622861Y-77566557D01*
X126427328Y-77510609D01*
X126427325Y-77510608D01*
X126308000Y-77500000D01*
X125500000Y-77500000D01*
X125500000Y-78450000D01*
X125000000Y-78450000D01*
X125000000Y-77500000D01*
X124191999Y-77500000D01*
X124072674Y-77510608D01*
X124072671Y-77510609D01*
X123877138Y-77566557D01*
X123696870Y-77660721D01*
X123539246Y-77789246D01*
X123410721Y-77946870D01*
X123316557Y-78127138D01*
X123260609Y-78322671D01*
X123260608Y-78322674D01*
X123250000Y-78441999D01*
X116749999Y-78441999D01*
X116739391Y-78322674D01*
X116739390Y-78322671D01*
X116683442Y-78127138D01*
X116589278Y-77946870D01*
X116460753Y-77789246D01*
X116303129Y-77660721D01*
X116122861Y-77566557D01*
X115927328Y-77510609D01*
X115927325Y-77510608D01*
X115808000Y-77500000D01*
X115000000Y-77500000D01*
X115000000Y-78450000D01*
X114500000Y-78450000D01*
X114500000Y-77472880D01*
X114499136Y-77471298D01*
X114500000Y-77459216D01*
X114500000Y-77448638D01*
X114500757Y-77448638D01*
X114504120Y-77401606D01*
X114532619Y-77357261D01*
X116161562Y-75728319D01*
X116222885Y-75694834D01*
X116249243Y-75692000D01*
X131729781Y-75692000D01*
X131796820Y-75711685D01*
X131842575Y-75764489D01*
X131852519Y-75833647D01*
X131823494Y-75897203D01*
X131817462Y-75903681D01*
X129455888Y-78265253D01*
X129455885Y-78265256D01*
X129393671Y-78358368D01*
X129379230Y-78379980D01*
X129379223Y-78379992D01*
X129326420Y-78507471D01*
X129326418Y-78507477D01*
X129299500Y-78642804D01*
X129299500Y-81814648D01*
X129298404Y-81818379D01*
X129299272Y-81822172D01*
X129288636Y-81851645D01*
X129279815Y-81881687D01*
X129276494Y-81885291D01*
X129275556Y-81887893D01*
X129257834Y-81905550D01*
X129250867Y-81913115D01*
X129249613Y-81914074D01*
X129087635Y-82031758D01*
X129060801Y-82058591D01*
X129054284Y-82063580D01*
X129029031Y-82073307D01*
X129005273Y-82086280D01*
X128996907Y-82085681D01*
X128989084Y-82088695D01*
X128962580Y-82083225D01*
X128935581Y-82081294D01*
X128928868Y-82076268D01*
X128920657Y-82074574D01*
X128901315Y-82055641D01*
X128879648Y-82039421D01*
X128873797Y-82028706D01*
X128870726Y-82025700D01*
X128869694Y-82021192D01*
X128862735Y-82008446D01*
X128843797Y-81957671D01*
X128843793Y-81957664D01*
X128757547Y-81842455D01*
X128757544Y-81842452D01*
X128642335Y-81756206D01*
X128642328Y-81756202D01*
X128507482Y-81705908D01*
X128507483Y-81705908D01*
X128447883Y-81699501D01*
X128447881Y-81699500D01*
X128447873Y-81699500D01*
X128447864Y-81699500D01*
X126552129Y-81699500D01*
X126552123Y-81699501D01*
X126492516Y-81705908D01*
X126357671Y-81756202D01*
X126357664Y-81756206D01*
X126242455Y-81842452D01*
X126242452Y-81842455D01*
X126156206Y-81957664D01*
X126156202Y-81957671D01*
X126105908Y-82092517D01*
X126099501Y-82152116D01*
X126099500Y-82152135D01*
X126099500Y-84047870D01*
X126099501Y-84047876D01*
X126105908Y-84107483D01*
X126156202Y-84242328D01*
X126156206Y-84242335D01*
X126242452Y-84357544D01*
X126242455Y-84357547D01*
X126357664Y-84443793D01*
X126357671Y-84443797D01*
X126492517Y-84494091D01*
X126492516Y-84494091D01*
X126499444Y-84494835D01*
X126552127Y-84500500D01*
X128447872Y-84500499D01*
X128507483Y-84494091D01*
X128642331Y-84443796D01*
X128757546Y-84357546D01*
X128843796Y-84242331D01*
X128862735Y-84191554D01*
X128904606Y-84135620D01*
X128970070Y-84111202D01*
X129038343Y-84126053D01*
X129066598Y-84147205D01*
X129087636Y-84168243D01*
X129087641Y-84168247D01*
X129119721Y-84191554D01*
X129265978Y-84297815D01*
X129394375Y-84363237D01*
X129462393Y-84397895D01*
X129462396Y-84397896D01*
X129567221Y-84431955D01*
X129672049Y-84466015D01*
X129889778Y-84500500D01*
X129889779Y-84500500D01*
X130110221Y-84500500D01*
X130110222Y-84500500D01*
X130327951Y-84466015D01*
X130537606Y-84397895D01*
X130734022Y-84297815D01*
X130912365Y-84168242D01*
X131068242Y-84012365D01*
X131149682Y-83900270D01*
X131205011Y-83857606D01*
X131274624Y-83851627D01*
X131336420Y-83884232D01*
X131350313Y-83900265D01*
X131431753Y-84012358D01*
X131431758Y-84012365D01*
X131587636Y-84168243D01*
X131587641Y-84168247D01*
X131619721Y-84191554D01*
X131765978Y-84297815D01*
X131894375Y-84363237D01*
X131962393Y-84397895D01*
X131962396Y-84397896D01*
X132067221Y-84431955D01*
X132172049Y-84466015D01*
X132389778Y-84500500D01*
X132389779Y-84500500D01*
X132610221Y-84500500D01*
X132610222Y-84500500D01*
X132827951Y-84466015D01*
X133037606Y-84397895D01*
X133234022Y-84297815D01*
X133412365Y-84168242D01*
X133568242Y-84012365D01*
X133697815Y-83834022D01*
X133797895Y-83637606D01*
X133866015Y-83427951D01*
X133900500Y-83210222D01*
X133900500Y-82989778D01*
X133866015Y-82772049D01*
X133797895Y-82562394D01*
X133797895Y-82562393D01*
X133763237Y-82494375D01*
X133697815Y-82365978D01*
X133599501Y-82230659D01*
X133568247Y-82187641D01*
X133568243Y-82187636D01*
X133412363Y-82031756D01*
X133412358Y-82031752D01*
X133234025Y-81902187D01*
X133234024Y-81902186D01*
X133234022Y-81902185D01*
X133116791Y-81842452D01*
X133037606Y-81802104D01*
X133037603Y-81802103D01*
X132827952Y-81733985D01*
X132719086Y-81716742D01*
X132610222Y-81699500D01*
X132389778Y-81699500D01*
X132317201Y-81710995D01*
X132172047Y-81733985D01*
X131962396Y-81802103D01*
X131962393Y-81802104D01*
X131765974Y-81902187D01*
X131587641Y-82031752D01*
X131587636Y-82031756D01*
X131431756Y-82187636D01*
X131431752Y-82187641D01*
X131350318Y-82299727D01*
X131294989Y-82342393D01*
X131225375Y-82348372D01*
X131163580Y-82315767D01*
X131149682Y-82299727D01*
X131068247Y-82187641D01*
X131068243Y-82187636D01*
X130912363Y-82031756D01*
X130912358Y-82031752D01*
X130751615Y-81914966D01*
X130708949Y-81859636D01*
X130700500Y-81814648D01*
X130700500Y-79053318D01*
X130720185Y-78986279D01*
X130736819Y-78965637D01*
X131260457Y-78441999D01*
X132750000Y-78441999D01*
X132750000Y-78750000D01*
X133909252Y-78750000D01*
X133887482Y-78787708D01*
X133850000Y-78927591D01*
X133850000Y-79072409D01*
X133887482Y-79212292D01*
X133909252Y-79250000D01*
X132750000Y-79250000D01*
X132750000Y-79558000D01*
X132760608Y-79677325D01*
X132760609Y-79677328D01*
X132816557Y-79872861D01*
X132910721Y-80053129D01*
X133039246Y-80210753D01*
X133196870Y-80339278D01*
X133377138Y-80433442D01*
X133572671Y-80489390D01*
X133572674Y-80489391D01*
X133691999Y-80499999D01*
X133692002Y-80500000D01*
X134500000Y-80500000D01*
X134500000Y-79550000D01*
X135000000Y-79550000D01*
X135000000Y-80500000D01*
X135807998Y-80500000D01*
X135808000Y-80499999D01*
X135927325Y-80489391D01*
X135927328Y-80489390D01*
X136122861Y-80433442D01*
X136303129Y-80339278D01*
X136460753Y-80210753D01*
X136589278Y-80053129D01*
X136683442Y-79872861D01*
X136739390Y-79677328D01*
X136739391Y-79677325D01*
X136749999Y-79558000D01*
X136750000Y-79557998D01*
X136750000Y-79250000D01*
X135590748Y-79250000D01*
X135612518Y-79212292D01*
X135650000Y-79072409D01*
X135650000Y-78927591D01*
X135612518Y-78787708D01*
X135590748Y-78750000D01*
X136750000Y-78750000D01*
X136750000Y-78442002D01*
X136749999Y-78441999D01*
X143250000Y-78441999D01*
X143250000Y-78750000D01*
X144409252Y-78750000D01*
X144387482Y-78787708D01*
X144350000Y-78927591D01*
X144350000Y-79072409D01*
X144387482Y-79212292D01*
X144409252Y-79250000D01*
X143250000Y-79250000D01*
X143250000Y-79558000D01*
X143260608Y-79677325D01*
X143260609Y-79677328D01*
X143316557Y-79872861D01*
X143410721Y-80053129D01*
X143539246Y-80210753D01*
X143696870Y-80339278D01*
X143877138Y-80433442D01*
X144072671Y-80489390D01*
X144072674Y-80489391D01*
X144191999Y-80499999D01*
X144192002Y-80500000D01*
X145000000Y-80500000D01*
X145000000Y-79550000D01*
X145500000Y-79550000D01*
X145500000Y-80500000D01*
X146307998Y-80500000D01*
X146308000Y-80499999D01*
X146427325Y-80489391D01*
X146427328Y-80489390D01*
X146622861Y-80433442D01*
X146803129Y-80339278D01*
X146960753Y-80210753D01*
X147089278Y-80053129D01*
X147183442Y-79872861D01*
X147239390Y-79677328D01*
X147239391Y-79677325D01*
X147249999Y-79558000D01*
X147250000Y-79557998D01*
X147250000Y-79250000D01*
X146090748Y-79250000D01*
X146112518Y-79212292D01*
X146150000Y-79072409D01*
X146150000Y-78927591D01*
X146112518Y-78787708D01*
X146090748Y-78750000D01*
X147250000Y-78750000D01*
X147250000Y-78442002D01*
X147249999Y-78441999D01*
X147239391Y-78322674D01*
X147239390Y-78322671D01*
X147183442Y-78127138D01*
X147089278Y-77946870D01*
X146960753Y-77789246D01*
X146803129Y-77660721D01*
X146622861Y-77566557D01*
X146427328Y-77510609D01*
X146427325Y-77510608D01*
X146308000Y-77500000D01*
X145500000Y-77500000D01*
X145500000Y-78450000D01*
X145000000Y-78450000D01*
X145000000Y-77500000D01*
X144191999Y-77500000D01*
X144072674Y-77510608D01*
X144072671Y-77510609D01*
X143877138Y-77566557D01*
X143696870Y-77660721D01*
X143539246Y-77789246D01*
X143410721Y-77946870D01*
X143316557Y-78127138D01*
X143260609Y-78322671D01*
X143260608Y-78322674D01*
X143250000Y-78441999D01*
X136749999Y-78441999D01*
X136739391Y-78322674D01*
X136739390Y-78322671D01*
X136683442Y-78127138D01*
X136589278Y-77946870D01*
X136460753Y-77789246D01*
X136303129Y-77660721D01*
X136122861Y-77566557D01*
X135927328Y-77510609D01*
X135927325Y-77510608D01*
X135808000Y-77500000D01*
X135000000Y-77500000D01*
X135000000Y-78450000D01*
X134500000Y-78450000D01*
X134500000Y-77500000D01*
X133691999Y-77500000D01*
X133572674Y-77510608D01*
X133572671Y-77510609D01*
X133377138Y-77566557D01*
X133196870Y-77660721D01*
X133039246Y-77789246D01*
X132910721Y-77946870D01*
X132816557Y-78127138D01*
X132760609Y-78322671D01*
X132760608Y-78322674D01*
X132750000Y-78441999D01*
X131260457Y-78441999D01*
X133974137Y-75728319D01*
X134035460Y-75694834D01*
X134061818Y-75692000D01*
X137843681Y-75692000D01*
X137910720Y-75711685D01*
X137956475Y-75764489D01*
X137966419Y-75833647D01*
X137943999Y-75888886D01*
X137917913Y-75924789D01*
X137824981Y-76107176D01*
X137761722Y-76301865D01*
X137729700Y-76504048D01*
X137729700Y-76708751D01*
X137761722Y-76910934D01*
X137824981Y-77105623D01*
X137917915Y-77288013D01*
X138038228Y-77453613D01*
X138182986Y-77598371D01*
X138315631Y-77694741D01*
X138348590Y-77718687D01*
X138464807Y-77777903D01*
X138530976Y-77811618D01*
X138530978Y-77811618D01*
X138530981Y-77811620D01*
X138635337Y-77845527D01*
X138725665Y-77874877D01*
X138826757Y-77890888D01*
X138927848Y-77906900D01*
X138927849Y-77906900D01*
X139132551Y-77906900D01*
X139132552Y-77906900D01*
X139334734Y-77874877D01*
X139529419Y-77811620D01*
X139711810Y-77718687D01*
X139807498Y-77649166D01*
X139877413Y-77598371D01*
X139877415Y-77598368D01*
X139877419Y-77598366D01*
X139942519Y-77533266D01*
X140003842Y-77499781D01*
X140073534Y-77504765D01*
X140117881Y-77533266D01*
X140182986Y-77598371D01*
X140315631Y-77694741D01*
X140348590Y-77718687D01*
X140464807Y-77777903D01*
X140530976Y-77811618D01*
X140530978Y-77811618D01*
X140530981Y-77811620D01*
X140635337Y-77845527D01*
X140725665Y-77874877D01*
X140826757Y-77890888D01*
X140927848Y-77906900D01*
X140927849Y-77906900D01*
X141132551Y-77906900D01*
X141132552Y-77906900D01*
X141334734Y-77874877D01*
X141529419Y-77811620D01*
X141711810Y-77718687D01*
X141807498Y-77649166D01*
X141877413Y-77598371D01*
X141877415Y-77598368D01*
X141877419Y-77598366D01*
X142022166Y-77453619D01*
X142022168Y-77453615D01*
X142022171Y-77453613D01*
X142090709Y-77359277D01*
X142142487Y-77288010D01*
X142235420Y-77105619D01*
X142298677Y-76910934D01*
X142330700Y-76708752D01*
X142330700Y-76504048D01*
X142305848Y-76347140D01*
X142298677Y-76301865D01*
X142237339Y-76113087D01*
X142235420Y-76107181D01*
X142235418Y-76107178D01*
X142235418Y-76107176D01*
X142148716Y-75937015D01*
X142142487Y-75924790D01*
X142116400Y-75888884D01*
X142092921Y-75823079D01*
X142108746Y-75755025D01*
X142158852Y-75706330D01*
X142216719Y-75692000D01*
X150882796Y-75692000D01*
X150949835Y-75711685D01*
X150995590Y-75764489D01*
X151005534Y-75833647D01*
X150976509Y-75897203D01*
X150970477Y-75903681D01*
X149455888Y-77418268D01*
X149455887Y-77418269D01*
X149379222Y-77533007D01*
X149326421Y-77660482D01*
X149326418Y-77660494D01*
X149319604Y-77694752D01*
X149305049Y-77767928D01*
X149304739Y-77769487D01*
X149299500Y-77795820D01*
X149299500Y-81814648D01*
X149298404Y-81818379D01*
X149299272Y-81822172D01*
X149288636Y-81851645D01*
X149279815Y-81881687D01*
X149276494Y-81885291D01*
X149275556Y-81887893D01*
X149257834Y-81905550D01*
X149250867Y-81913115D01*
X149249613Y-81914074D01*
X149087635Y-82031758D01*
X149060801Y-82058591D01*
X149054284Y-82063580D01*
X149029031Y-82073307D01*
X149005273Y-82086280D01*
X148996907Y-82085681D01*
X148989084Y-82088695D01*
X148962580Y-82083225D01*
X148935581Y-82081294D01*
X148928868Y-82076268D01*
X148920657Y-82074574D01*
X148901315Y-82055641D01*
X148879648Y-82039421D01*
X148873797Y-82028706D01*
X148870726Y-82025700D01*
X148869694Y-82021192D01*
X148862735Y-82008446D01*
X148843797Y-81957671D01*
X148843793Y-81957664D01*
X148757547Y-81842455D01*
X148757544Y-81842452D01*
X148642335Y-81756206D01*
X148642328Y-81756202D01*
X148507482Y-81705908D01*
X148507483Y-81705908D01*
X148447883Y-81699501D01*
X148447881Y-81699500D01*
X148447873Y-81699500D01*
X148447864Y-81699500D01*
X146552129Y-81699500D01*
X146552123Y-81699501D01*
X146492516Y-81705908D01*
X146357671Y-81756202D01*
X146357664Y-81756206D01*
X146242455Y-81842452D01*
X146242452Y-81842455D01*
X146156206Y-81957664D01*
X146156202Y-81957671D01*
X146105908Y-82092517D01*
X146099501Y-82152116D01*
X146099500Y-82152135D01*
X146099500Y-84047870D01*
X146099501Y-84047876D01*
X146105908Y-84107483D01*
X146156202Y-84242328D01*
X146156206Y-84242335D01*
X146242452Y-84357544D01*
X146242455Y-84357547D01*
X146357664Y-84443793D01*
X146357671Y-84443797D01*
X146492517Y-84494091D01*
X146492516Y-84494091D01*
X146499444Y-84494835D01*
X146552127Y-84500500D01*
X148447872Y-84500499D01*
X148507483Y-84494091D01*
X148642331Y-84443796D01*
X148757546Y-84357546D01*
X148843796Y-84242331D01*
X148862735Y-84191554D01*
X148904606Y-84135620D01*
X148970070Y-84111202D01*
X149038343Y-84126053D01*
X149066598Y-84147205D01*
X149087636Y-84168243D01*
X149087641Y-84168247D01*
X149119721Y-84191554D01*
X149265978Y-84297815D01*
X149394375Y-84363237D01*
X149462393Y-84397895D01*
X149462396Y-84397896D01*
X149567221Y-84431955D01*
X149672049Y-84466015D01*
X149889778Y-84500500D01*
X149889779Y-84500500D01*
X150110221Y-84500500D01*
X150110222Y-84500500D01*
X150327951Y-84466015D01*
X150537606Y-84397895D01*
X150734022Y-84297815D01*
X150912365Y-84168242D01*
X151068242Y-84012365D01*
X151149682Y-83900270D01*
X151205011Y-83857606D01*
X151274624Y-83851627D01*
X151336420Y-83884232D01*
X151350313Y-83900265D01*
X151431753Y-84012358D01*
X151431758Y-84012365D01*
X151587636Y-84168243D01*
X151587641Y-84168247D01*
X151619721Y-84191554D01*
X151765978Y-84297815D01*
X151894375Y-84363237D01*
X151962393Y-84397895D01*
X151962396Y-84397896D01*
X152067221Y-84431955D01*
X152172049Y-84466015D01*
X152389778Y-84500500D01*
X152389779Y-84500500D01*
X152610221Y-84500500D01*
X152610222Y-84500500D01*
X152827951Y-84466015D01*
X153037606Y-84397895D01*
X153234022Y-84297815D01*
X153412365Y-84168242D01*
X153568242Y-84012365D01*
X153697815Y-83834022D01*
X153797895Y-83637606D01*
X153866015Y-83427951D01*
X153900500Y-83210222D01*
X153900500Y-82989778D01*
X153866015Y-82772049D01*
X153797895Y-82562394D01*
X153797895Y-82562393D01*
X153763237Y-82494375D01*
X153697815Y-82365978D01*
X153599501Y-82230659D01*
X153568247Y-82187641D01*
X153568243Y-82187636D01*
X153412363Y-82031756D01*
X153412358Y-82031752D01*
X153234025Y-81902187D01*
X153234024Y-81902186D01*
X153234022Y-81902185D01*
X153116791Y-81842452D01*
X153037606Y-81802104D01*
X153037603Y-81802103D01*
X152827952Y-81733985D01*
X152719086Y-81716742D01*
X152610222Y-81699500D01*
X152389778Y-81699500D01*
X152317201Y-81710995D01*
X152172047Y-81733985D01*
X151962396Y-81802103D01*
X151962393Y-81802104D01*
X151765974Y-81902187D01*
X151587641Y-82031752D01*
X151587636Y-82031756D01*
X151431756Y-82187636D01*
X151431752Y-82187641D01*
X151350318Y-82299727D01*
X151294989Y-82342393D01*
X151225375Y-82348372D01*
X151163580Y-82315767D01*
X151149682Y-82299727D01*
X151068247Y-82187641D01*
X151068243Y-82187636D01*
X150912363Y-82031756D01*
X150912358Y-82031752D01*
X150751615Y-81914966D01*
X150708949Y-81859636D01*
X150700500Y-81814648D01*
X150700500Y-78441999D01*
X152750000Y-78441999D01*
X152750000Y-78750000D01*
X153909252Y-78750000D01*
X153887482Y-78787708D01*
X153850000Y-78927591D01*
X153850000Y-79072409D01*
X153887482Y-79212292D01*
X153909252Y-79250000D01*
X152750000Y-79250000D01*
X152750000Y-79558000D01*
X152760608Y-79677325D01*
X152760609Y-79677328D01*
X152816557Y-79872861D01*
X152910721Y-80053129D01*
X153039246Y-80210753D01*
X153196870Y-80339278D01*
X153377138Y-80433442D01*
X153572671Y-80489390D01*
X153572674Y-80489391D01*
X153691999Y-80499999D01*
X153692002Y-80500000D01*
X154500000Y-80500000D01*
X154500000Y-79550000D01*
X155000000Y-79550000D01*
X155000000Y-80500000D01*
X155807998Y-80500000D01*
X155808000Y-80499999D01*
X155927325Y-80489391D01*
X155927328Y-80489390D01*
X156122861Y-80433442D01*
X156303129Y-80339278D01*
X156460753Y-80210753D01*
X156589278Y-80053129D01*
X156683442Y-79872861D01*
X156739390Y-79677328D01*
X156739391Y-79677325D01*
X156749999Y-79558000D01*
X156750000Y-79557998D01*
X156750000Y-79250000D01*
X155590748Y-79250000D01*
X155612518Y-79212292D01*
X155650000Y-79072409D01*
X155650000Y-78927591D01*
X155612518Y-78787708D01*
X155590748Y-78750000D01*
X156750000Y-78750000D01*
X156750000Y-78442002D01*
X156749999Y-78441999D01*
X163250000Y-78441999D01*
X163250000Y-78750000D01*
X164409252Y-78750000D01*
X164387482Y-78787708D01*
X164350000Y-78927591D01*
X164350000Y-79072409D01*
X164387482Y-79212292D01*
X164409252Y-79250000D01*
X163250000Y-79250000D01*
X163250000Y-79558000D01*
X163260608Y-79677325D01*
X163260609Y-79677328D01*
X163316557Y-79872861D01*
X163410721Y-80053129D01*
X163539246Y-80210753D01*
X163696870Y-80339278D01*
X163877138Y-80433442D01*
X164072671Y-80489390D01*
X164072674Y-80489391D01*
X164191999Y-80499999D01*
X164192002Y-80500000D01*
X165000000Y-80500000D01*
X165000000Y-79550000D01*
X165500000Y-79550000D01*
X165500000Y-80500000D01*
X166307998Y-80500000D01*
X166308000Y-80499999D01*
X166427325Y-80489391D01*
X166427328Y-80489390D01*
X166622861Y-80433442D01*
X166803129Y-80339278D01*
X166960753Y-80210753D01*
X167089278Y-80053129D01*
X167183442Y-79872861D01*
X167239390Y-79677328D01*
X167239391Y-79677325D01*
X167249999Y-79558000D01*
X167250000Y-79557998D01*
X167250000Y-79250000D01*
X166090748Y-79250000D01*
X166112518Y-79212292D01*
X166150000Y-79072409D01*
X166150000Y-78927591D01*
X166112518Y-78787708D01*
X166090748Y-78750000D01*
X167250000Y-78750000D01*
X167250000Y-78442002D01*
X167249999Y-78441999D01*
X167239391Y-78322674D01*
X167239390Y-78322671D01*
X167183442Y-78127138D01*
X167089278Y-77946870D01*
X166960753Y-77789246D01*
X166803129Y-77660721D01*
X166622861Y-77566557D01*
X166427328Y-77510609D01*
X166427325Y-77510608D01*
X166308000Y-77500000D01*
X165500000Y-77500000D01*
X165500000Y-78450000D01*
X165000000Y-78450000D01*
X165000000Y-77500000D01*
X164191999Y-77500000D01*
X164072674Y-77510608D01*
X164072671Y-77510609D01*
X163877138Y-77566557D01*
X163696870Y-77660721D01*
X163539246Y-77789246D01*
X163410721Y-77946870D01*
X163316557Y-78127138D01*
X163260609Y-78322671D01*
X163260608Y-78322674D01*
X163250000Y-78441999D01*
X156749999Y-78441999D01*
X156739391Y-78322674D01*
X156739390Y-78322671D01*
X156683442Y-78127138D01*
X156589278Y-77946870D01*
X156460753Y-77789246D01*
X156303129Y-77660721D01*
X156122861Y-77566557D01*
X155927328Y-77510609D01*
X155927325Y-77510608D01*
X155808000Y-77500000D01*
X155000000Y-77500000D01*
X155000000Y-78450000D01*
X154500000Y-78450000D01*
X154500000Y-77500000D01*
X153691999Y-77500000D01*
X153572674Y-77510608D01*
X153572671Y-77510609D01*
X153377138Y-77566557D01*
X153196870Y-77660721D01*
X153039246Y-77789246D01*
X152910721Y-77946870D01*
X152816557Y-78127138D01*
X152760609Y-78322671D01*
X152760608Y-78322674D01*
X152750000Y-78441999D01*
X150700500Y-78441999D01*
X150700500Y-78206334D01*
X150720185Y-78139295D01*
X150736819Y-78118653D01*
X153127153Y-75728319D01*
X153188476Y-75694834D01*
X153214834Y-75692000D01*
X157870388Y-75692000D01*
X157937427Y-75711685D01*
X157983182Y-75764489D01*
X157993126Y-75833647D01*
X157970707Y-75888885D01*
X157907712Y-75975590D01*
X157814781Y-76157976D01*
X157751522Y-76352665D01*
X157719500Y-76554848D01*
X157719500Y-76759551D01*
X157751522Y-76961734D01*
X157814781Y-77156423D01*
X157907715Y-77338813D01*
X158028028Y-77504413D01*
X158172786Y-77649171D01*
X158268469Y-77718687D01*
X158338390Y-77769487D01*
X158421077Y-77811618D01*
X158520776Y-77862418D01*
X158520778Y-77862418D01*
X158520781Y-77862420D01*
X158559120Y-77874877D01*
X158715465Y-77925677D01*
X158816557Y-77941688D01*
X158917648Y-77957700D01*
X158917649Y-77957700D01*
X159122351Y-77957700D01*
X159122352Y-77957700D01*
X159324534Y-77925677D01*
X159519219Y-77862420D01*
X159701610Y-77769487D01*
X159851315Y-77660721D01*
X159867213Y-77649171D01*
X159867215Y-77649168D01*
X159867219Y-77649166D01*
X159932319Y-77584066D01*
X159993642Y-77550581D01*
X160063334Y-77555565D01*
X160107681Y-77584066D01*
X160172786Y-77649171D01*
X160268469Y-77718687D01*
X160338390Y-77769487D01*
X160421077Y-77811618D01*
X160520776Y-77862418D01*
X160520778Y-77862418D01*
X160520781Y-77862420D01*
X160559120Y-77874877D01*
X160715465Y-77925677D01*
X160816557Y-77941688D01*
X160917648Y-77957700D01*
X160917649Y-77957700D01*
X161122351Y-77957700D01*
X161122352Y-77957700D01*
X161324534Y-77925677D01*
X161519219Y-77862420D01*
X161701610Y-77769487D01*
X161851315Y-77660721D01*
X161867213Y-77649171D01*
X161867215Y-77649168D01*
X161867219Y-77649166D01*
X162011966Y-77504419D01*
X162011968Y-77504415D01*
X162011971Y-77504413D01*
X162086663Y-77401606D01*
X162132287Y-77338810D01*
X162225220Y-77156419D01*
X162288477Y-76961734D01*
X162320500Y-76759552D01*
X162320500Y-76554848D01*
X162298220Y-76414179D01*
X162288477Y-76352665D01*
X162225218Y-76157976D01*
X162132287Y-75975590D01*
X162069293Y-75888885D01*
X162045814Y-75823078D01*
X162061640Y-75755024D01*
X162111746Y-75706330D01*
X162169612Y-75692000D01*
X171480781Y-75692000D01*
X171547820Y-75711685D01*
X171593575Y-75764489D01*
X171603519Y-75833647D01*
X171574494Y-75897203D01*
X171568462Y-75903681D01*
X169455888Y-78016253D01*
X169455887Y-78016254D01*
X169379222Y-78130992D01*
X169326421Y-78258467D01*
X169326418Y-78258479D01*
X169302249Y-78379983D01*
X169302249Y-78379989D01*
X169299500Y-78393807D01*
X169299500Y-78393810D01*
X169299500Y-81814648D01*
X169298404Y-81818379D01*
X169299272Y-81822172D01*
X169288636Y-81851645D01*
X169279815Y-81881687D01*
X169276494Y-81885291D01*
X169275556Y-81887893D01*
X169257834Y-81905550D01*
X169250867Y-81913115D01*
X169249613Y-81914074D01*
X169087635Y-82031758D01*
X169060801Y-82058591D01*
X169054284Y-82063580D01*
X169029031Y-82073307D01*
X169005273Y-82086280D01*
X168996907Y-82085681D01*
X168989084Y-82088695D01*
X168962580Y-82083225D01*
X168935581Y-82081294D01*
X168928868Y-82076268D01*
X168920657Y-82074574D01*
X168901315Y-82055641D01*
X168879648Y-82039421D01*
X168873797Y-82028706D01*
X168870726Y-82025700D01*
X168869694Y-82021192D01*
X168862735Y-82008446D01*
X168843797Y-81957671D01*
X168843793Y-81957664D01*
X168757547Y-81842455D01*
X168757544Y-81842452D01*
X168642335Y-81756206D01*
X168642328Y-81756202D01*
X168507482Y-81705908D01*
X168507483Y-81705908D01*
X168447883Y-81699501D01*
X168447881Y-81699500D01*
X168447873Y-81699500D01*
X168447864Y-81699500D01*
X166552129Y-81699500D01*
X166552123Y-81699501D01*
X166492516Y-81705908D01*
X166357671Y-81756202D01*
X166357664Y-81756206D01*
X166242455Y-81842452D01*
X166242452Y-81842455D01*
X166156206Y-81957664D01*
X166156202Y-81957671D01*
X166105908Y-82092517D01*
X166099501Y-82152116D01*
X166099500Y-82152135D01*
X166099500Y-84047870D01*
X166099501Y-84047876D01*
X166105908Y-84107483D01*
X166156202Y-84242328D01*
X166156206Y-84242335D01*
X166242452Y-84357544D01*
X166242455Y-84357547D01*
X166357664Y-84443793D01*
X166357671Y-84443797D01*
X166492517Y-84494091D01*
X166492516Y-84494091D01*
X166499444Y-84494835D01*
X166552127Y-84500500D01*
X168447872Y-84500499D01*
X168507483Y-84494091D01*
X168642331Y-84443796D01*
X168757546Y-84357546D01*
X168843796Y-84242331D01*
X168862735Y-84191554D01*
X168904606Y-84135620D01*
X168970070Y-84111202D01*
X169038343Y-84126053D01*
X169066598Y-84147205D01*
X169087636Y-84168243D01*
X169087641Y-84168247D01*
X169119721Y-84191554D01*
X169265978Y-84297815D01*
X169394375Y-84363237D01*
X169462393Y-84397895D01*
X169462396Y-84397896D01*
X169567221Y-84431955D01*
X169672049Y-84466015D01*
X169889778Y-84500500D01*
X169889779Y-84500500D01*
X170110221Y-84500500D01*
X170110222Y-84500500D01*
X170327951Y-84466015D01*
X170537606Y-84397895D01*
X170734022Y-84297815D01*
X170912365Y-84168242D01*
X171068242Y-84012365D01*
X171149682Y-83900270D01*
X171205011Y-83857606D01*
X171274624Y-83851627D01*
X171336420Y-83884232D01*
X171350313Y-83900265D01*
X171431753Y-84012358D01*
X171431758Y-84012365D01*
X171587636Y-84168243D01*
X171587641Y-84168247D01*
X171619721Y-84191554D01*
X171765978Y-84297815D01*
X171894375Y-84363237D01*
X171962393Y-84397895D01*
X171962396Y-84397896D01*
X172067221Y-84431955D01*
X172172049Y-84466015D01*
X172389778Y-84500500D01*
X172389779Y-84500500D01*
X172610221Y-84500500D01*
X172610222Y-84500500D01*
X172827951Y-84466015D01*
X173037606Y-84397895D01*
X173234022Y-84297815D01*
X173412365Y-84168242D01*
X173568242Y-84012365D01*
X173697815Y-83834022D01*
X173797895Y-83637606D01*
X173866015Y-83427951D01*
X173900500Y-83210222D01*
X173900500Y-82989778D01*
X173866015Y-82772049D01*
X173797895Y-82562394D01*
X173797895Y-82562393D01*
X173763237Y-82494375D01*
X173697815Y-82365978D01*
X173599501Y-82230659D01*
X173568247Y-82187641D01*
X173568243Y-82187636D01*
X173412363Y-82031756D01*
X173412358Y-82031752D01*
X173234025Y-81902187D01*
X173234024Y-81902186D01*
X173234022Y-81902185D01*
X173116791Y-81842452D01*
X173037606Y-81802104D01*
X173037603Y-81802103D01*
X172827952Y-81733985D01*
X172719086Y-81716742D01*
X172610222Y-81699500D01*
X172389778Y-81699500D01*
X172317201Y-81710995D01*
X172172047Y-81733985D01*
X171962396Y-81802103D01*
X171962393Y-81802104D01*
X171765974Y-81902187D01*
X171587641Y-82031752D01*
X171587636Y-82031756D01*
X171431756Y-82187636D01*
X171431752Y-82187641D01*
X171350318Y-82299727D01*
X171294989Y-82342393D01*
X171225375Y-82348372D01*
X171163580Y-82315767D01*
X171149682Y-82299727D01*
X171068247Y-82187641D01*
X171068243Y-82187636D01*
X170912363Y-82031756D01*
X170912358Y-82031752D01*
X170751615Y-81914966D01*
X170708949Y-81859636D01*
X170700500Y-81814648D01*
X170700500Y-78804318D01*
X170720185Y-78737279D01*
X170736819Y-78716637D01*
X171011457Y-78441999D01*
X172750000Y-78441999D01*
X172750000Y-78750000D01*
X173909252Y-78750000D01*
X173887482Y-78787708D01*
X173850000Y-78927591D01*
X173850000Y-79072409D01*
X173887482Y-79212292D01*
X173909252Y-79250000D01*
X172750000Y-79250000D01*
X172750000Y-79558000D01*
X172760608Y-79677325D01*
X172760609Y-79677328D01*
X172816557Y-79872861D01*
X172910721Y-80053129D01*
X173039246Y-80210753D01*
X173196870Y-80339278D01*
X173377138Y-80433442D01*
X173572671Y-80489390D01*
X173572674Y-80489391D01*
X173691999Y-80499999D01*
X173692002Y-80500000D01*
X174500000Y-80500000D01*
X174500000Y-79550000D01*
X175000000Y-79550000D01*
X175000000Y-80500000D01*
X175807998Y-80500000D01*
X175808000Y-80499999D01*
X175927325Y-80489391D01*
X175927328Y-80489390D01*
X176122861Y-80433442D01*
X176303129Y-80339278D01*
X176460753Y-80210753D01*
X176589278Y-80053129D01*
X176683442Y-79872861D01*
X176739390Y-79677328D01*
X176739391Y-79677325D01*
X176749999Y-79558000D01*
X176750000Y-79557998D01*
X176750000Y-79250000D01*
X175590748Y-79250000D01*
X175612518Y-79212292D01*
X175650000Y-79072409D01*
X175650000Y-78927591D01*
X175612518Y-78787708D01*
X175590748Y-78750000D01*
X176750000Y-78750000D01*
X176750000Y-78442002D01*
X176749999Y-78441999D01*
X183250000Y-78441999D01*
X183250000Y-78750000D01*
X184409252Y-78750000D01*
X184387482Y-78787708D01*
X184350000Y-78927591D01*
X184350000Y-79072409D01*
X184387482Y-79212292D01*
X184409252Y-79250000D01*
X183250000Y-79250000D01*
X183250000Y-79558000D01*
X183260608Y-79677325D01*
X183260609Y-79677328D01*
X183316557Y-79872861D01*
X183410721Y-80053129D01*
X183539246Y-80210753D01*
X183696870Y-80339278D01*
X183877138Y-80433442D01*
X184072671Y-80489390D01*
X184072674Y-80489391D01*
X184191999Y-80499999D01*
X184192002Y-80500000D01*
X185000000Y-80500000D01*
X185000000Y-79550000D01*
X185500000Y-79550000D01*
X185500000Y-80500000D01*
X186307998Y-80500000D01*
X186308000Y-80499999D01*
X186427325Y-80489391D01*
X186427328Y-80489390D01*
X186622861Y-80433442D01*
X186803129Y-80339278D01*
X186960753Y-80210753D01*
X187089278Y-80053129D01*
X187183442Y-79872861D01*
X187239390Y-79677328D01*
X187239391Y-79677325D01*
X187249999Y-79558000D01*
X187250000Y-79557998D01*
X187250000Y-79250000D01*
X186090748Y-79250000D01*
X186112518Y-79212292D01*
X186150000Y-79072409D01*
X186150000Y-78927591D01*
X186112518Y-78787708D01*
X186090748Y-78750000D01*
X187250000Y-78750000D01*
X187250000Y-78442002D01*
X187249999Y-78441999D01*
X187239391Y-78322674D01*
X187239390Y-78322671D01*
X187183442Y-78127138D01*
X187089278Y-77946870D01*
X186960753Y-77789246D01*
X186803129Y-77660721D01*
X186622861Y-77566557D01*
X186427328Y-77510609D01*
X186427325Y-77510608D01*
X186308000Y-77500000D01*
X185500000Y-77500000D01*
X185500000Y-78450000D01*
X185000000Y-78450000D01*
X185000000Y-77500000D01*
X184191999Y-77500000D01*
X184072674Y-77510608D01*
X184072671Y-77510609D01*
X183877138Y-77566557D01*
X183696870Y-77660721D01*
X183539246Y-77789246D01*
X183410721Y-77946870D01*
X183316557Y-78127138D01*
X183260609Y-78322671D01*
X183260608Y-78322674D01*
X183250000Y-78441999D01*
X176749999Y-78441999D01*
X176739391Y-78322674D01*
X176739390Y-78322671D01*
X176683442Y-78127138D01*
X176589278Y-77946870D01*
X176460753Y-77789246D01*
X176303129Y-77660721D01*
X176122861Y-77566557D01*
X175927328Y-77510609D01*
X175927325Y-77510608D01*
X175808000Y-77500000D01*
X175000000Y-77500000D01*
X175000000Y-78450000D01*
X174500000Y-78450000D01*
X174500000Y-77500000D01*
X173691999Y-77500000D01*
X173572674Y-77510608D01*
X173572671Y-77510609D01*
X173377138Y-77566557D01*
X173196870Y-77660721D01*
X173039246Y-77789246D01*
X172910721Y-77946870D01*
X172816557Y-78127138D01*
X172760609Y-78322671D01*
X172760608Y-78322674D01*
X172750000Y-78441999D01*
X171011457Y-78441999D01*
X173725137Y-75728319D01*
X173786460Y-75694834D01*
X173812818Y-75692000D01*
X177797881Y-75692000D01*
X177864920Y-75711685D01*
X177910675Y-75764489D01*
X177920619Y-75833647D01*
X177898199Y-75888886D01*
X177872113Y-75924789D01*
X177779181Y-76107176D01*
X177715922Y-76301865D01*
X177683900Y-76504048D01*
X177683900Y-76708751D01*
X177715922Y-76910934D01*
X177779181Y-77105623D01*
X177872115Y-77288013D01*
X177992428Y-77453613D01*
X178137186Y-77598371D01*
X178269831Y-77694741D01*
X178302790Y-77718687D01*
X178419007Y-77777903D01*
X178485176Y-77811618D01*
X178485178Y-77811618D01*
X178485181Y-77811620D01*
X178589537Y-77845527D01*
X178679865Y-77874877D01*
X178780957Y-77890888D01*
X178882048Y-77906900D01*
X178882049Y-77906900D01*
X179086751Y-77906900D01*
X179086752Y-77906900D01*
X179288934Y-77874877D01*
X179483619Y-77811620D01*
X179666010Y-77718687D01*
X179761698Y-77649166D01*
X179831613Y-77598371D01*
X179831615Y-77598368D01*
X179831619Y-77598366D01*
X179896719Y-77533266D01*
X179958042Y-77499781D01*
X180027734Y-77504765D01*
X180072081Y-77533266D01*
X180137186Y-77598371D01*
X180269831Y-77694741D01*
X180302790Y-77718687D01*
X180419007Y-77777903D01*
X180485176Y-77811618D01*
X180485178Y-77811618D01*
X180485181Y-77811620D01*
X180589537Y-77845527D01*
X180679865Y-77874877D01*
X180780957Y-77890888D01*
X180882048Y-77906900D01*
X180882049Y-77906900D01*
X181086751Y-77906900D01*
X181086752Y-77906900D01*
X181288934Y-77874877D01*
X181483619Y-77811620D01*
X181666010Y-77718687D01*
X181761698Y-77649166D01*
X181831613Y-77598371D01*
X181831615Y-77598368D01*
X181831619Y-77598366D01*
X181976366Y-77453619D01*
X181976368Y-77453615D01*
X181976371Y-77453613D01*
X182044909Y-77359277D01*
X182096687Y-77288010D01*
X182189620Y-77105619D01*
X182252877Y-76910934D01*
X182284900Y-76708752D01*
X182284900Y-76504048D01*
X182260048Y-76347140D01*
X182252877Y-76301865D01*
X182191539Y-76113087D01*
X182189620Y-76107181D01*
X182189618Y-76107178D01*
X182189618Y-76107176D01*
X182102916Y-75937015D01*
X182096687Y-75924790D01*
X182070600Y-75888884D01*
X182047121Y-75823079D01*
X182062946Y-75755025D01*
X182113052Y-75706330D01*
X182170919Y-75692000D01*
X190581581Y-75692000D01*
X190648620Y-75711685D01*
X190694375Y-75764489D01*
X190704319Y-75833647D01*
X190675294Y-75897203D01*
X190669262Y-75903681D01*
X189455890Y-77117051D01*
X189455884Y-77117058D01*
X189412290Y-77182303D01*
X189412289Y-77182305D01*
X189379229Y-77231780D01*
X189379221Y-77231795D01*
X189326421Y-77359267D01*
X189326418Y-77359277D01*
X189299500Y-77494604D01*
X189299500Y-81814648D01*
X189298404Y-81818379D01*
X189299272Y-81822172D01*
X189288636Y-81851645D01*
X189279815Y-81881687D01*
X189276494Y-81885291D01*
X189275556Y-81887893D01*
X189257834Y-81905550D01*
X189250867Y-81913115D01*
X189249613Y-81914074D01*
X189087635Y-82031758D01*
X189060801Y-82058591D01*
X189054284Y-82063580D01*
X189029031Y-82073307D01*
X189005273Y-82086280D01*
X188996907Y-82085681D01*
X188989084Y-82088695D01*
X188962580Y-82083225D01*
X188935581Y-82081294D01*
X188928868Y-82076268D01*
X188920657Y-82074574D01*
X188901315Y-82055641D01*
X188879648Y-82039421D01*
X188873797Y-82028706D01*
X188870726Y-82025700D01*
X188869694Y-82021192D01*
X188862735Y-82008446D01*
X188843797Y-81957671D01*
X188843793Y-81957664D01*
X188757547Y-81842455D01*
X188757544Y-81842452D01*
X188642335Y-81756206D01*
X188642328Y-81756202D01*
X188507482Y-81705908D01*
X188507483Y-81705908D01*
X188447883Y-81699501D01*
X188447881Y-81699500D01*
X188447873Y-81699500D01*
X188447864Y-81699500D01*
X186552129Y-81699500D01*
X186552123Y-81699501D01*
X186492516Y-81705908D01*
X186357671Y-81756202D01*
X186357664Y-81756206D01*
X186242455Y-81842452D01*
X186242452Y-81842455D01*
X186156206Y-81957664D01*
X186156202Y-81957671D01*
X186105908Y-82092517D01*
X186099501Y-82152116D01*
X186099500Y-82152135D01*
X186099500Y-84047870D01*
X186099501Y-84047876D01*
X186105908Y-84107483D01*
X186156202Y-84242328D01*
X186156206Y-84242335D01*
X186242452Y-84357544D01*
X186242455Y-84357547D01*
X186357664Y-84443793D01*
X186357671Y-84443797D01*
X186492517Y-84494091D01*
X186492516Y-84494091D01*
X186499444Y-84494835D01*
X186552127Y-84500500D01*
X188447872Y-84500499D01*
X188507483Y-84494091D01*
X188642331Y-84443796D01*
X188757546Y-84357546D01*
X188843796Y-84242331D01*
X188862735Y-84191554D01*
X188904606Y-84135620D01*
X188970070Y-84111202D01*
X189038343Y-84126053D01*
X189066598Y-84147205D01*
X189087636Y-84168243D01*
X189087641Y-84168247D01*
X189119721Y-84191554D01*
X189265978Y-84297815D01*
X189394375Y-84363237D01*
X189462393Y-84397895D01*
X189462396Y-84397896D01*
X189567221Y-84431955D01*
X189672049Y-84466015D01*
X189889778Y-84500500D01*
X189889779Y-84500500D01*
X190110221Y-84500500D01*
X190110222Y-84500500D01*
X190327951Y-84466015D01*
X190537606Y-84397895D01*
X190734022Y-84297815D01*
X190912365Y-84168242D01*
X191068242Y-84012365D01*
X191149682Y-83900270D01*
X191205011Y-83857606D01*
X191274624Y-83851627D01*
X191336420Y-83884232D01*
X191350313Y-83900265D01*
X191431753Y-84012358D01*
X191431758Y-84012365D01*
X191587636Y-84168243D01*
X191587641Y-84168247D01*
X191619721Y-84191554D01*
X191765978Y-84297815D01*
X191894375Y-84363237D01*
X191962393Y-84397895D01*
X191962396Y-84397896D01*
X192067221Y-84431955D01*
X192172049Y-84466015D01*
X192389778Y-84500500D01*
X192389779Y-84500500D01*
X192610221Y-84500500D01*
X192610222Y-84500500D01*
X192827951Y-84466015D01*
X193037606Y-84397895D01*
X193234022Y-84297815D01*
X193412365Y-84168242D01*
X193568242Y-84012365D01*
X193697815Y-83834022D01*
X193797895Y-83637606D01*
X193866015Y-83427951D01*
X193900500Y-83210222D01*
X193900500Y-82989778D01*
X193866015Y-82772049D01*
X193797895Y-82562394D01*
X193797895Y-82562393D01*
X193763237Y-82494375D01*
X193697815Y-82365978D01*
X193599501Y-82230659D01*
X193568247Y-82187641D01*
X193568243Y-82187636D01*
X193412363Y-82031756D01*
X193412358Y-82031752D01*
X193234025Y-81902187D01*
X193234024Y-81902186D01*
X193234022Y-81902185D01*
X193116791Y-81842452D01*
X193037606Y-81802104D01*
X193037603Y-81802103D01*
X192827952Y-81733985D01*
X192719086Y-81716742D01*
X192610222Y-81699500D01*
X192389778Y-81699500D01*
X192317201Y-81710995D01*
X192172047Y-81733985D01*
X191962396Y-81802103D01*
X191962393Y-81802104D01*
X191765974Y-81902187D01*
X191587641Y-82031752D01*
X191587636Y-82031756D01*
X191431756Y-82187636D01*
X191431752Y-82187641D01*
X191350318Y-82299727D01*
X191294989Y-82342393D01*
X191225375Y-82348372D01*
X191163580Y-82315767D01*
X191149682Y-82299727D01*
X191068247Y-82187641D01*
X191068243Y-82187636D01*
X190912363Y-82031756D01*
X190912358Y-82031752D01*
X190751615Y-81914966D01*
X190708949Y-81859636D01*
X190700500Y-81814648D01*
X190700500Y-78441999D01*
X192750000Y-78441999D01*
X192750000Y-78750000D01*
X193909252Y-78750000D01*
X193887482Y-78787708D01*
X193850000Y-78927591D01*
X193850000Y-79072409D01*
X193887482Y-79212292D01*
X193909252Y-79250000D01*
X192750000Y-79250000D01*
X192750000Y-79558000D01*
X192760608Y-79677325D01*
X192760609Y-79677328D01*
X192816557Y-79872861D01*
X192910721Y-80053129D01*
X193039246Y-80210753D01*
X193196870Y-80339278D01*
X193377138Y-80433442D01*
X193572671Y-80489390D01*
X193572674Y-80489391D01*
X193691999Y-80499999D01*
X193692002Y-80500000D01*
X194500000Y-80500000D01*
X194500000Y-79550000D01*
X195000000Y-79550000D01*
X195000000Y-80500000D01*
X195807998Y-80500000D01*
X195808000Y-80499999D01*
X195927325Y-80489391D01*
X195927328Y-80489390D01*
X196122861Y-80433442D01*
X196303129Y-80339278D01*
X196460753Y-80210753D01*
X196589278Y-80053129D01*
X196683442Y-79872861D01*
X196739390Y-79677328D01*
X196739391Y-79677325D01*
X196749999Y-79558000D01*
X196750000Y-79557998D01*
X196750000Y-79250000D01*
X195590748Y-79250000D01*
X195612518Y-79212292D01*
X195650000Y-79072409D01*
X195650000Y-78927591D01*
X195612518Y-78787708D01*
X195590748Y-78750000D01*
X196750000Y-78750000D01*
X196750000Y-78442002D01*
X196749999Y-78441999D01*
X203250000Y-78441999D01*
X203250000Y-78750000D01*
X204409252Y-78750000D01*
X204387482Y-78787708D01*
X204350000Y-78927591D01*
X204350000Y-79072409D01*
X204387482Y-79212292D01*
X204409252Y-79250000D01*
X203250000Y-79250000D01*
X203250000Y-79558000D01*
X203260608Y-79677325D01*
X203260609Y-79677328D01*
X203316557Y-79872861D01*
X203410721Y-80053129D01*
X203539246Y-80210753D01*
X203696870Y-80339278D01*
X203877138Y-80433442D01*
X204072671Y-80489390D01*
X204072674Y-80489391D01*
X204191999Y-80499999D01*
X204192002Y-80500000D01*
X205000000Y-80500000D01*
X205000000Y-79550000D01*
X205500000Y-79550000D01*
X205500000Y-80500000D01*
X206307998Y-80500000D01*
X206308000Y-80499999D01*
X206427325Y-80489391D01*
X206427328Y-80489390D01*
X206622861Y-80433442D01*
X206803129Y-80339278D01*
X206960753Y-80210753D01*
X207089278Y-80053129D01*
X207183442Y-79872861D01*
X207239390Y-79677328D01*
X207239391Y-79677325D01*
X207249999Y-79558000D01*
X207250000Y-79557998D01*
X207250000Y-79250000D01*
X206090748Y-79250000D01*
X206112518Y-79212292D01*
X206150000Y-79072409D01*
X206150000Y-78927591D01*
X206112518Y-78787708D01*
X206090748Y-78750000D01*
X207250000Y-78750000D01*
X207250000Y-78442002D01*
X207249999Y-78441999D01*
X207239391Y-78322674D01*
X207239390Y-78322671D01*
X207183442Y-78127138D01*
X207089278Y-77946870D01*
X206960753Y-77789246D01*
X206803129Y-77660721D01*
X206622861Y-77566557D01*
X206427328Y-77510609D01*
X206427325Y-77510608D01*
X206308000Y-77500000D01*
X205500000Y-77500000D01*
X205500000Y-78450000D01*
X205000000Y-78450000D01*
X205000000Y-77500000D01*
X204191999Y-77500000D01*
X204072674Y-77510608D01*
X204072671Y-77510609D01*
X203877138Y-77566557D01*
X203696870Y-77660721D01*
X203539246Y-77789246D01*
X203410721Y-77946870D01*
X203316557Y-78127138D01*
X203260609Y-78322671D01*
X203260608Y-78322674D01*
X203250000Y-78441999D01*
X196749999Y-78441999D01*
X196739391Y-78322674D01*
X196739390Y-78322671D01*
X196683442Y-78127138D01*
X196589278Y-77946870D01*
X196460753Y-77789246D01*
X196303129Y-77660721D01*
X196122861Y-77566557D01*
X195927328Y-77510609D01*
X195927325Y-77510608D01*
X195808000Y-77500000D01*
X195000000Y-77500000D01*
X195000000Y-78450000D01*
X194500000Y-78450000D01*
X194500000Y-77500000D01*
X193691999Y-77500000D01*
X193572674Y-77510608D01*
X193572671Y-77510609D01*
X193377138Y-77566557D01*
X193196870Y-77660721D01*
X193039246Y-77789246D01*
X192910721Y-77946870D01*
X192816557Y-78127138D01*
X192760609Y-78322671D01*
X192760608Y-78322674D01*
X192750000Y-78441999D01*
X190700500Y-78441999D01*
X190700500Y-77905119D01*
X190720185Y-77838080D01*
X190736819Y-77817438D01*
X192825938Y-75728319D01*
X192887261Y-75694834D01*
X192913619Y-75692000D01*
X197849988Y-75692000D01*
X197917027Y-75711685D01*
X197962782Y-75764489D01*
X197972726Y-75833647D01*
X197950307Y-75888885D01*
X197887312Y-75975590D01*
X197794381Y-76157976D01*
X197731122Y-76352665D01*
X197699100Y-76554848D01*
X197699100Y-76759551D01*
X197731122Y-76961734D01*
X197794381Y-77156423D01*
X197887315Y-77338813D01*
X198007628Y-77504413D01*
X198152386Y-77649171D01*
X198248069Y-77718687D01*
X198317990Y-77769487D01*
X198400677Y-77811618D01*
X198500376Y-77862418D01*
X198500378Y-77862418D01*
X198500381Y-77862420D01*
X198538720Y-77874877D01*
X198695065Y-77925677D01*
X198796157Y-77941688D01*
X198897248Y-77957700D01*
X198897249Y-77957700D01*
X199101951Y-77957700D01*
X199101952Y-77957700D01*
X199304134Y-77925677D01*
X199498819Y-77862420D01*
X199681210Y-77769487D01*
X199830915Y-77660721D01*
X199846813Y-77649171D01*
X199846815Y-77649168D01*
X199846819Y-77649166D01*
X199911919Y-77584066D01*
X199973242Y-77550581D01*
X200042934Y-77555565D01*
X200087281Y-77584066D01*
X200152386Y-77649171D01*
X200248069Y-77718687D01*
X200317990Y-77769487D01*
X200400677Y-77811618D01*
X200500376Y-77862418D01*
X200500378Y-77862418D01*
X200500381Y-77862420D01*
X200538720Y-77874877D01*
X200695065Y-77925677D01*
X200796157Y-77941688D01*
X200897248Y-77957700D01*
X200897249Y-77957700D01*
X201101951Y-77957700D01*
X201101952Y-77957700D01*
X201304134Y-77925677D01*
X201498819Y-77862420D01*
X201681210Y-77769487D01*
X201830915Y-77660721D01*
X201846813Y-77649171D01*
X201846815Y-77649168D01*
X201846819Y-77649166D01*
X201991566Y-77504419D01*
X201991568Y-77504415D01*
X201991571Y-77504413D01*
X202066263Y-77401606D01*
X202111887Y-77338810D01*
X202204820Y-77156419D01*
X202268077Y-76961734D01*
X202300100Y-76759552D01*
X202300100Y-76554848D01*
X202277820Y-76414179D01*
X202268077Y-76352665D01*
X202204818Y-76157976D01*
X202111887Y-75975590D01*
X202048893Y-75888885D01*
X202025414Y-75823078D01*
X202041240Y-75755024D01*
X202091346Y-75706330D01*
X202149212Y-75692000D01*
X210269278Y-75692000D01*
X210336317Y-75711685D01*
X210382072Y-75764489D01*
X210392016Y-75833647D01*
X210362991Y-75897203D01*
X210356959Y-75903681D01*
X209455888Y-76804750D01*
X209455887Y-76804751D01*
X209379223Y-76919489D01*
X209326421Y-77046965D01*
X209326420Y-77046969D01*
X209312479Y-77117057D01*
X209312479Y-77117058D01*
X209299500Y-77182302D01*
X209299500Y-81814648D01*
X209298404Y-81818379D01*
X209299272Y-81822172D01*
X209288636Y-81851645D01*
X209279815Y-81881687D01*
X209276494Y-81885291D01*
X209275556Y-81887893D01*
X209257834Y-81905550D01*
X209250867Y-81913115D01*
X209249613Y-81914074D01*
X209087635Y-82031758D01*
X209060801Y-82058591D01*
X209054284Y-82063580D01*
X209029031Y-82073307D01*
X209005273Y-82086280D01*
X208996907Y-82085681D01*
X208989084Y-82088695D01*
X208962580Y-82083225D01*
X208935581Y-82081294D01*
X208928868Y-82076268D01*
X208920657Y-82074574D01*
X208901315Y-82055641D01*
X208879648Y-82039421D01*
X208873797Y-82028706D01*
X208870726Y-82025700D01*
X208869694Y-82021192D01*
X208862735Y-82008446D01*
X208843797Y-81957671D01*
X208843793Y-81957664D01*
X208757547Y-81842455D01*
X208757544Y-81842452D01*
X208642335Y-81756206D01*
X208642328Y-81756202D01*
X208507482Y-81705908D01*
X208507483Y-81705908D01*
X208447883Y-81699501D01*
X208447881Y-81699500D01*
X208447873Y-81699500D01*
X208447864Y-81699500D01*
X206552129Y-81699500D01*
X206552123Y-81699501D01*
X206492516Y-81705908D01*
X206357671Y-81756202D01*
X206357664Y-81756206D01*
X206242455Y-81842452D01*
X206242452Y-81842455D01*
X206156206Y-81957664D01*
X206156202Y-81957671D01*
X206105908Y-82092517D01*
X206099501Y-82152116D01*
X206099500Y-82152135D01*
X206099500Y-84047870D01*
X206099501Y-84047876D01*
X206105908Y-84107483D01*
X206156202Y-84242328D01*
X206156206Y-84242335D01*
X206242452Y-84357544D01*
X206242455Y-84357547D01*
X206357664Y-84443793D01*
X206357671Y-84443797D01*
X206492517Y-84494091D01*
X206492516Y-84494091D01*
X206499444Y-84494835D01*
X206552127Y-84500500D01*
X208447872Y-84500499D01*
X208507483Y-84494091D01*
X208642331Y-84443796D01*
X208757546Y-84357546D01*
X208843796Y-84242331D01*
X208862735Y-84191554D01*
X208904606Y-84135620D01*
X208970070Y-84111202D01*
X209038343Y-84126053D01*
X209066598Y-84147205D01*
X209087636Y-84168243D01*
X209087641Y-84168247D01*
X209119721Y-84191554D01*
X209265978Y-84297815D01*
X209394375Y-84363237D01*
X209462393Y-84397895D01*
X209462396Y-84397896D01*
X209567221Y-84431955D01*
X209672049Y-84466015D01*
X209889778Y-84500500D01*
X209889779Y-84500500D01*
X210110221Y-84500500D01*
X210110222Y-84500500D01*
X210327951Y-84466015D01*
X210537606Y-84397895D01*
X210734022Y-84297815D01*
X210912365Y-84168242D01*
X211068242Y-84012365D01*
X211149682Y-83900270D01*
X211205011Y-83857606D01*
X211274624Y-83851627D01*
X211336420Y-83884232D01*
X211350313Y-83900265D01*
X211431753Y-84012358D01*
X211431758Y-84012365D01*
X211587636Y-84168243D01*
X211587641Y-84168247D01*
X211619721Y-84191554D01*
X211765978Y-84297815D01*
X211894375Y-84363237D01*
X211962393Y-84397895D01*
X211962396Y-84397896D01*
X212067221Y-84431955D01*
X212172049Y-84466015D01*
X212389778Y-84500500D01*
X212389779Y-84500500D01*
X212610221Y-84500500D01*
X212610222Y-84500500D01*
X212827951Y-84466015D01*
X213037606Y-84397895D01*
X213234022Y-84297815D01*
X213412365Y-84168242D01*
X213568242Y-84012365D01*
X213697815Y-83834022D01*
X213797895Y-83637606D01*
X213866015Y-83427951D01*
X213900500Y-83210222D01*
X213900500Y-82989778D01*
X213866015Y-82772049D01*
X213797895Y-82562394D01*
X213797895Y-82562393D01*
X213763237Y-82494375D01*
X213697815Y-82365978D01*
X213599501Y-82230659D01*
X213568247Y-82187641D01*
X213568243Y-82187636D01*
X213412363Y-82031756D01*
X213412358Y-82031752D01*
X213234025Y-81902187D01*
X213234024Y-81902186D01*
X213234022Y-81902185D01*
X213116791Y-81842452D01*
X213037606Y-81802104D01*
X213037603Y-81802103D01*
X212827952Y-81733985D01*
X212719086Y-81716742D01*
X212610222Y-81699500D01*
X212389778Y-81699500D01*
X212317201Y-81710995D01*
X212172047Y-81733985D01*
X211962396Y-81802103D01*
X211962393Y-81802104D01*
X211765974Y-81902187D01*
X211587641Y-82031752D01*
X211587636Y-82031756D01*
X211431756Y-82187636D01*
X211431752Y-82187641D01*
X211350318Y-82299727D01*
X211294989Y-82342393D01*
X211225375Y-82348372D01*
X211163580Y-82315767D01*
X211149682Y-82299727D01*
X211068247Y-82187641D01*
X211068243Y-82187636D01*
X210912363Y-82031756D01*
X210912358Y-82031752D01*
X210751615Y-81914966D01*
X210708949Y-81859636D01*
X210700500Y-81814648D01*
X210700500Y-78441999D01*
X212750000Y-78441999D01*
X212750000Y-78750000D01*
X213909252Y-78750000D01*
X213887482Y-78787708D01*
X213850000Y-78927591D01*
X213850000Y-79072409D01*
X213887482Y-79212292D01*
X213909252Y-79250000D01*
X212750000Y-79250000D01*
X212750000Y-79558000D01*
X212760608Y-79677325D01*
X212760609Y-79677328D01*
X212816557Y-79872861D01*
X212910721Y-80053129D01*
X213039246Y-80210753D01*
X213196870Y-80339278D01*
X213377138Y-80433442D01*
X213572671Y-80489390D01*
X213572674Y-80489391D01*
X213691999Y-80499999D01*
X213692002Y-80500000D01*
X214500000Y-80500000D01*
X214500000Y-79550000D01*
X215000000Y-79550000D01*
X215000000Y-80500000D01*
X215807998Y-80500000D01*
X215808000Y-80499999D01*
X215927325Y-80489391D01*
X215927328Y-80489390D01*
X216122861Y-80433442D01*
X216303129Y-80339278D01*
X216460753Y-80210753D01*
X216589278Y-80053129D01*
X216683442Y-79872861D01*
X216739390Y-79677328D01*
X216739391Y-79677325D01*
X216749999Y-79558000D01*
X216750000Y-79557998D01*
X216750000Y-79250000D01*
X215590748Y-79250000D01*
X215612518Y-79212292D01*
X215650000Y-79072409D01*
X215650000Y-78927591D01*
X215612518Y-78787708D01*
X215590748Y-78750000D01*
X216750000Y-78750000D01*
X216750000Y-78442002D01*
X216749999Y-78441999D01*
X216739391Y-78322674D01*
X216739390Y-78322671D01*
X216683442Y-78127138D01*
X216589278Y-77946870D01*
X216460753Y-77789246D01*
X216303129Y-77660721D01*
X216122861Y-77566557D01*
X215927328Y-77510609D01*
X215927325Y-77510608D01*
X215808000Y-77500000D01*
X215000000Y-77500000D01*
X215000000Y-78450000D01*
X214500000Y-78450000D01*
X214500000Y-77500000D01*
X213691999Y-77500000D01*
X213572674Y-77510608D01*
X213572671Y-77510609D01*
X213377138Y-77566557D01*
X213196870Y-77660721D01*
X213039246Y-77789246D01*
X212910721Y-77946870D01*
X212816557Y-78127138D01*
X212760609Y-78322671D01*
X212760608Y-78322674D01*
X212750000Y-78441999D01*
X210700500Y-78441999D01*
X210700500Y-77592815D01*
X210720185Y-77525776D01*
X210736819Y-77505134D01*
X212513634Y-75728319D01*
X212574957Y-75694834D01*
X212601315Y-75692000D01*
X217865188Y-75692000D01*
X217932227Y-75711685D01*
X217977982Y-75764489D01*
X217987926Y-75833647D01*
X217965507Y-75888885D01*
X217902512Y-75975590D01*
X217809581Y-76157976D01*
X217746322Y-76352665D01*
X217714300Y-76554848D01*
X217714300Y-76759551D01*
X217746322Y-76961734D01*
X217809581Y-77156423D01*
X217902515Y-77338813D01*
X218022828Y-77504413D01*
X218167586Y-77649171D01*
X218263269Y-77718687D01*
X218333190Y-77769487D01*
X218415877Y-77811618D01*
X218515576Y-77862418D01*
X218515578Y-77862418D01*
X218515581Y-77862420D01*
X218553920Y-77874877D01*
X218710265Y-77925677D01*
X218811357Y-77941688D01*
X218912448Y-77957700D01*
X218912449Y-77957700D01*
X219117151Y-77957700D01*
X219117152Y-77957700D01*
X219319334Y-77925677D01*
X219514019Y-77862420D01*
X219696410Y-77769487D01*
X219846115Y-77660721D01*
X219862013Y-77649171D01*
X219862015Y-77649168D01*
X219862019Y-77649166D01*
X219927119Y-77584066D01*
X219988442Y-77550581D01*
X220058134Y-77555565D01*
X220102481Y-77584066D01*
X220167586Y-77649171D01*
X220263269Y-77718687D01*
X220333190Y-77769487D01*
X220415877Y-77811618D01*
X220515576Y-77862418D01*
X220515578Y-77862418D01*
X220515581Y-77862420D01*
X220553920Y-77874877D01*
X220710265Y-77925677D01*
X220811357Y-77941688D01*
X220912448Y-77957700D01*
X220912449Y-77957700D01*
X221117151Y-77957700D01*
X221117152Y-77957700D01*
X221319334Y-77925677D01*
X221514019Y-77862420D01*
X221696410Y-77769487D01*
X221846115Y-77660721D01*
X221862013Y-77649171D01*
X221862015Y-77649168D01*
X221862019Y-77649166D01*
X222006766Y-77504419D01*
X222006768Y-77504415D01*
X222006771Y-77504413D01*
X222081463Y-77401606D01*
X222127087Y-77338810D01*
X222220020Y-77156419D01*
X222283277Y-76961734D01*
X222315300Y-76759552D01*
X222315300Y-76554848D01*
X222293020Y-76414179D01*
X222283277Y-76352665D01*
X222220018Y-76157976D01*
X222127087Y-75975590D01*
X222064093Y-75888885D01*
X222040614Y-75823078D01*
X222056440Y-75755024D01*
X222106546Y-75706330D01*
X222164412Y-75692000D01*
X225983181Y-75692000D01*
X226050220Y-75711685D01*
X226070862Y-75728319D01*
X226629453Y-76286911D01*
X226629454Y-76286912D01*
X226629457Y-76286914D01*
X226727862Y-76352666D01*
X226744390Y-76363709D01*
X226789196Y-76417322D01*
X226799500Y-76466812D01*
X226799500Y-77454155D01*
X226779815Y-77521194D01*
X226727011Y-77566949D01*
X226657853Y-77576893D01*
X226629186Y-77567658D01*
X226628695Y-77568888D01*
X226622860Y-77566557D01*
X226427328Y-77510609D01*
X226427325Y-77510608D01*
X226308000Y-77500000D01*
X225500000Y-77500000D01*
X225500000Y-78450000D01*
X225000000Y-78450000D01*
X225000000Y-77500000D01*
X224191999Y-77500000D01*
X224072674Y-77510608D01*
X224072671Y-77510609D01*
X223877138Y-77566557D01*
X223696870Y-77660721D01*
X223539246Y-77789246D01*
X223410721Y-77946870D01*
X223316557Y-78127138D01*
X223260609Y-78322671D01*
X223260608Y-78322674D01*
X223250000Y-78441999D01*
X223250000Y-78750000D01*
X224409252Y-78750000D01*
X224387482Y-78787708D01*
X224350000Y-78927591D01*
X224350000Y-79072409D01*
X224387482Y-79212292D01*
X224409252Y-79250000D01*
X223250000Y-79250000D01*
X223250000Y-79558000D01*
X223260608Y-79677325D01*
X223260609Y-79677328D01*
X223316557Y-79872861D01*
X223410721Y-80053129D01*
X223539246Y-80210753D01*
X223696870Y-80339278D01*
X223877138Y-80433442D01*
X224072671Y-80489390D01*
X224072674Y-80489391D01*
X224191999Y-80499999D01*
X224192002Y-80500000D01*
X225000000Y-80500000D01*
X225000000Y-79550000D01*
X225500000Y-79550000D01*
X225500000Y-80500000D01*
X226307998Y-80500000D01*
X226308000Y-80499999D01*
X226427325Y-80489391D01*
X226427328Y-80489390D01*
X226622867Y-80433440D01*
X226628700Y-80431111D01*
X226629712Y-80433644D01*
X226686546Y-80422337D01*
X226751566Y-80447915D01*
X226792435Y-80504585D01*
X226799500Y-80545844D01*
X226799500Y-81575500D01*
X226779815Y-81642539D01*
X226727011Y-81688294D01*
X226675501Y-81699500D01*
X226552130Y-81699500D01*
X226552123Y-81699501D01*
X226492516Y-81705908D01*
X226357671Y-81756202D01*
X226357664Y-81756206D01*
X226242455Y-81842452D01*
X226242452Y-81842455D01*
X226156206Y-81957664D01*
X226156202Y-81957671D01*
X226105908Y-82092517D01*
X226099501Y-82152116D01*
X226099500Y-82152135D01*
X226099500Y-84047870D01*
X226099501Y-84047876D01*
X226105908Y-84107483D01*
X226156202Y-84242328D01*
X226156206Y-84242335D01*
X226242452Y-84357544D01*
X226242455Y-84357547D01*
X226357664Y-84443793D01*
X226357671Y-84443797D01*
X226492517Y-84494091D01*
X226492516Y-84494091D01*
X226499444Y-84494835D01*
X226552127Y-84500500D01*
X228447872Y-84500499D01*
X228507483Y-84494091D01*
X228642331Y-84443796D01*
X228757546Y-84357546D01*
X228843796Y-84242331D01*
X228862735Y-84191554D01*
X228904606Y-84135620D01*
X228970070Y-84111202D01*
X229038343Y-84126053D01*
X229066598Y-84147205D01*
X229087636Y-84168243D01*
X229087641Y-84168247D01*
X229119721Y-84191554D01*
X229265978Y-84297815D01*
X229394375Y-84363237D01*
X229462393Y-84397895D01*
X229462396Y-84397896D01*
X229567221Y-84431955D01*
X229672049Y-84466015D01*
X229889778Y-84500500D01*
X229889779Y-84500500D01*
X230110221Y-84500500D01*
X230110222Y-84500500D01*
X230327951Y-84466015D01*
X230537606Y-84397895D01*
X230734022Y-84297815D01*
X230912365Y-84168242D01*
X231068242Y-84012365D01*
X231149682Y-83900270D01*
X231205011Y-83857606D01*
X231274624Y-83851627D01*
X231336420Y-83884232D01*
X231350313Y-83900265D01*
X231431753Y-84012358D01*
X231431758Y-84012365D01*
X231587636Y-84168243D01*
X231587641Y-84168247D01*
X231619721Y-84191554D01*
X231765978Y-84297815D01*
X231894375Y-84363237D01*
X231962393Y-84397895D01*
X231962396Y-84397896D01*
X232067221Y-84431955D01*
X232172049Y-84466015D01*
X232389778Y-84500500D01*
X232389779Y-84500500D01*
X232610221Y-84500500D01*
X232610222Y-84500500D01*
X232827951Y-84466015D01*
X233037606Y-84397895D01*
X233234022Y-84297815D01*
X233412365Y-84168242D01*
X233568242Y-84012365D01*
X233697815Y-83834022D01*
X233797895Y-83637606D01*
X233866015Y-83427951D01*
X233900500Y-83210222D01*
X233900500Y-82989778D01*
X233866015Y-82772049D01*
X233797895Y-82562394D01*
X233797895Y-82562393D01*
X233763237Y-82494375D01*
X233697815Y-82365978D01*
X233599501Y-82230659D01*
X233568247Y-82187641D01*
X233568243Y-82187636D01*
X233412363Y-82031756D01*
X233412358Y-82031752D01*
X233234025Y-81902187D01*
X233234024Y-81902186D01*
X233234022Y-81902185D01*
X233116791Y-81842452D01*
X233037606Y-81802104D01*
X233037603Y-81802103D01*
X232827952Y-81733985D01*
X232719086Y-81716742D01*
X232610222Y-81699500D01*
X232389778Y-81699500D01*
X232317201Y-81710995D01*
X232172047Y-81733985D01*
X231962396Y-81802103D01*
X231962393Y-81802104D01*
X231765974Y-81902187D01*
X231587641Y-82031752D01*
X231587636Y-82031756D01*
X231431756Y-82187636D01*
X231431752Y-82187641D01*
X231350318Y-82299727D01*
X231294989Y-82342393D01*
X231225375Y-82348372D01*
X231163580Y-82315767D01*
X231149682Y-82299727D01*
X231068247Y-82187641D01*
X231068243Y-82187636D01*
X230912363Y-82031756D01*
X230912358Y-82031752D01*
X230751615Y-81914966D01*
X230708949Y-81859636D01*
X230700500Y-81814648D01*
X230700500Y-78441999D01*
X232750000Y-78441999D01*
X232750000Y-78750000D01*
X233909252Y-78750000D01*
X233887482Y-78787708D01*
X233850000Y-78927591D01*
X233850000Y-79072409D01*
X233887482Y-79212292D01*
X233909252Y-79250000D01*
X232750000Y-79250000D01*
X232750000Y-79558000D01*
X232760608Y-79677325D01*
X232760609Y-79677328D01*
X232816557Y-79872861D01*
X232910721Y-80053129D01*
X233039246Y-80210753D01*
X233196870Y-80339278D01*
X233377138Y-80433442D01*
X233572671Y-80489390D01*
X233572674Y-80489391D01*
X233691999Y-80499999D01*
X233692002Y-80500000D01*
X234500000Y-80500000D01*
X234500000Y-79550000D01*
X235000000Y-79550000D01*
X235000000Y-80500000D01*
X235807998Y-80500000D01*
X235808000Y-80499999D01*
X235927325Y-80489391D01*
X235927328Y-80489390D01*
X236122861Y-80433442D01*
X236303129Y-80339278D01*
X236460753Y-80210753D01*
X236589278Y-80053129D01*
X236683442Y-79872861D01*
X236739390Y-79677328D01*
X236739391Y-79677325D01*
X236749999Y-79558000D01*
X236750000Y-79557998D01*
X236750000Y-79250000D01*
X235590748Y-79250000D01*
X235612518Y-79212292D01*
X235650000Y-79072409D01*
X235650000Y-78927591D01*
X235612518Y-78787708D01*
X235590748Y-78750000D01*
X236750000Y-78750000D01*
X236750000Y-78442002D01*
X236749999Y-78441999D01*
X236739391Y-78322674D01*
X236739390Y-78322671D01*
X236683442Y-78127138D01*
X236589278Y-77946870D01*
X236460753Y-77789246D01*
X236303129Y-77660721D01*
X236122861Y-77566557D01*
X235927328Y-77510609D01*
X235927325Y-77510608D01*
X235808000Y-77500000D01*
X235000000Y-77500000D01*
X235000000Y-78450000D01*
X234500000Y-78450000D01*
X234500000Y-77500000D01*
X233691999Y-77500000D01*
X233572674Y-77510608D01*
X233572671Y-77510609D01*
X233377138Y-77566557D01*
X233196870Y-77660721D01*
X233039246Y-77789246D01*
X232910721Y-77946870D01*
X232816557Y-78127138D01*
X232760609Y-78322671D01*
X232760608Y-78322674D01*
X232750000Y-78441999D01*
X230700500Y-78441999D01*
X230700500Y-75816000D01*
X230720185Y-75748961D01*
X230772989Y-75703206D01*
X230824500Y-75692000D01*
X237880388Y-75692000D01*
X237947427Y-75711685D01*
X237993182Y-75764489D01*
X238003126Y-75833647D01*
X237980707Y-75888885D01*
X237917712Y-75975590D01*
X237824781Y-76157976D01*
X237761522Y-76352665D01*
X237729500Y-76554848D01*
X237729500Y-76759551D01*
X237761522Y-76961734D01*
X237824781Y-77156423D01*
X237917715Y-77338813D01*
X238038028Y-77504413D01*
X238182786Y-77649171D01*
X238278469Y-77718687D01*
X238348390Y-77769487D01*
X238431077Y-77811618D01*
X238530776Y-77862418D01*
X238530778Y-77862418D01*
X238530781Y-77862420D01*
X238569120Y-77874877D01*
X238725465Y-77925677D01*
X238826557Y-77941688D01*
X238927648Y-77957700D01*
X238927649Y-77957700D01*
X239132351Y-77957700D01*
X239132352Y-77957700D01*
X239334534Y-77925677D01*
X239529219Y-77862420D01*
X239711610Y-77769487D01*
X239861315Y-77660721D01*
X239877213Y-77649171D01*
X239877215Y-77649168D01*
X239877219Y-77649166D01*
X239942319Y-77584066D01*
X240003642Y-77550581D01*
X240073334Y-77555565D01*
X240117681Y-77584066D01*
X240182786Y-77649171D01*
X240278469Y-77718687D01*
X240348390Y-77769487D01*
X240431077Y-77811618D01*
X240530776Y-77862418D01*
X240530778Y-77862418D01*
X240530781Y-77862420D01*
X240569120Y-77874877D01*
X240725465Y-77925677D01*
X240826557Y-77941688D01*
X240927648Y-77957700D01*
X240927649Y-77957700D01*
X241132351Y-77957700D01*
X241132352Y-77957700D01*
X241334534Y-77925677D01*
X241529219Y-77862420D01*
X241711610Y-77769487D01*
X241861315Y-77660721D01*
X241877213Y-77649171D01*
X241877215Y-77649168D01*
X241877219Y-77649166D01*
X242021966Y-77504419D01*
X242021968Y-77504415D01*
X242021971Y-77504413D01*
X242096663Y-77401606D01*
X242142287Y-77338810D01*
X242235220Y-77156419D01*
X242298477Y-76961734D01*
X242330500Y-76759552D01*
X242330500Y-76554848D01*
X242308220Y-76414179D01*
X242298477Y-76352665D01*
X242235218Y-76157976D01*
X242142287Y-75975590D01*
X242079293Y-75888885D01*
X242055814Y-75823078D01*
X242071640Y-75755024D01*
X242121746Y-75706330D01*
X242179612Y-75692000D01*
X244123425Y-75692000D01*
X244190464Y-75711685D01*
X244211106Y-75728319D01*
X245771106Y-77288319D01*
X245804591Y-77349642D01*
X245799607Y-77419334D01*
X245757735Y-77475267D01*
X245692271Y-77499684D01*
X245683425Y-77500000D01*
X245500000Y-77500000D01*
X245500000Y-78450000D01*
X245000000Y-78450000D01*
X245000000Y-77500000D01*
X244191999Y-77500000D01*
X244072674Y-77510608D01*
X244072671Y-77510609D01*
X243877138Y-77566557D01*
X243696870Y-77660721D01*
X243539246Y-77789246D01*
X243410721Y-77946870D01*
X243316557Y-78127138D01*
X243260609Y-78322671D01*
X243260608Y-78322674D01*
X243250000Y-78441999D01*
X243250000Y-78750000D01*
X244409252Y-78750000D01*
X244387482Y-78787708D01*
X244350000Y-78927591D01*
X244350000Y-79072409D01*
X244387482Y-79212292D01*
X244409252Y-79250000D01*
X243250000Y-79250000D01*
X243250000Y-79558000D01*
X243260608Y-79677325D01*
X243260609Y-79677328D01*
X243316557Y-79872861D01*
X243410721Y-80053129D01*
X243539246Y-80210753D01*
X243696870Y-80339278D01*
X243877138Y-80433442D01*
X244072671Y-80489390D01*
X244072674Y-80489391D01*
X244191999Y-80499999D01*
X244192002Y-80500000D01*
X245000000Y-80500000D01*
X245000000Y-79550000D01*
X245500000Y-79550000D01*
X245500000Y-80500000D01*
X246307998Y-80500000D01*
X246308000Y-80499999D01*
X246427325Y-80489391D01*
X246427328Y-80489390D01*
X246622867Y-80433440D01*
X246628700Y-80431111D01*
X246629712Y-80433644D01*
X246686546Y-80422337D01*
X246751566Y-80447915D01*
X246792435Y-80504585D01*
X246799500Y-80545844D01*
X246799500Y-81575500D01*
X246779815Y-81642539D01*
X246727011Y-81688294D01*
X246675501Y-81699500D01*
X246552130Y-81699500D01*
X246552123Y-81699501D01*
X246492516Y-81705908D01*
X246357671Y-81756202D01*
X246357664Y-81756206D01*
X246242455Y-81842452D01*
X246242452Y-81842455D01*
X246156206Y-81957664D01*
X246156202Y-81957671D01*
X246105908Y-82092517D01*
X246099501Y-82152116D01*
X246099500Y-82152135D01*
X246099500Y-84047870D01*
X246099501Y-84047876D01*
X246105908Y-84107483D01*
X246156202Y-84242328D01*
X246156206Y-84242335D01*
X246242452Y-84357544D01*
X246242455Y-84357547D01*
X246357664Y-84443793D01*
X246357671Y-84443797D01*
X246492517Y-84494091D01*
X246492516Y-84494091D01*
X246499444Y-84494835D01*
X246552127Y-84500500D01*
X248447872Y-84500499D01*
X248507483Y-84494091D01*
X248642331Y-84443796D01*
X248757546Y-84357546D01*
X248843796Y-84242331D01*
X248862735Y-84191554D01*
X248904606Y-84135620D01*
X248970070Y-84111202D01*
X249038343Y-84126053D01*
X249066598Y-84147205D01*
X249087636Y-84168243D01*
X249087641Y-84168247D01*
X249119721Y-84191554D01*
X249265978Y-84297815D01*
X249394375Y-84363237D01*
X249462393Y-84397895D01*
X249462396Y-84397896D01*
X249567221Y-84431955D01*
X249672049Y-84466015D01*
X249889778Y-84500500D01*
X249889779Y-84500500D01*
X250110221Y-84500500D01*
X250110222Y-84500500D01*
X250327951Y-84466015D01*
X250537606Y-84397895D01*
X250734022Y-84297815D01*
X250912365Y-84168242D01*
X251068242Y-84012365D01*
X251149682Y-83900270D01*
X251205011Y-83857606D01*
X251274624Y-83851627D01*
X251336420Y-83884232D01*
X251350313Y-83900265D01*
X251431753Y-84012358D01*
X251431758Y-84012365D01*
X251587636Y-84168243D01*
X251587641Y-84168247D01*
X251619721Y-84191554D01*
X251765978Y-84297815D01*
X251894375Y-84363237D01*
X251962393Y-84397895D01*
X251962396Y-84397896D01*
X252067221Y-84431955D01*
X252172049Y-84466015D01*
X252389778Y-84500500D01*
X252389779Y-84500500D01*
X252610221Y-84500500D01*
X252610222Y-84500500D01*
X252827951Y-84466015D01*
X253037606Y-84397895D01*
X253234022Y-84297815D01*
X253412365Y-84168242D01*
X253568242Y-84012365D01*
X253697815Y-83834022D01*
X253797895Y-83637606D01*
X253866015Y-83427951D01*
X253900500Y-83210222D01*
X253900500Y-82989778D01*
X253866015Y-82772049D01*
X253797895Y-82562394D01*
X253797895Y-82562393D01*
X253763237Y-82494375D01*
X253697815Y-82365978D01*
X253599501Y-82230659D01*
X253568247Y-82187641D01*
X253568243Y-82187636D01*
X253412363Y-82031756D01*
X253412358Y-82031752D01*
X253234025Y-81902187D01*
X253234024Y-81902186D01*
X253234022Y-81902185D01*
X253116791Y-81842452D01*
X253037606Y-81802104D01*
X253037603Y-81802103D01*
X252827952Y-81733985D01*
X252719086Y-81716742D01*
X252610222Y-81699500D01*
X252389778Y-81699500D01*
X252317201Y-81710995D01*
X252172047Y-81733985D01*
X251962396Y-81802103D01*
X251962393Y-81802104D01*
X251765974Y-81902187D01*
X251587641Y-82031752D01*
X251587636Y-82031756D01*
X251431756Y-82187636D01*
X251431752Y-82187641D01*
X251350318Y-82299727D01*
X251294989Y-82342393D01*
X251225375Y-82348372D01*
X251163580Y-82315767D01*
X251149682Y-82299727D01*
X251068247Y-82187641D01*
X251068243Y-82187636D01*
X250912363Y-82031756D01*
X250912358Y-82031752D01*
X250751615Y-81914966D01*
X250708949Y-81859636D01*
X250700500Y-81814648D01*
X250700500Y-78441999D01*
X252750000Y-78441999D01*
X252750000Y-78750000D01*
X253909252Y-78750000D01*
X253887482Y-78787708D01*
X253850000Y-78927591D01*
X253850000Y-79072409D01*
X253887482Y-79212292D01*
X253909252Y-79250000D01*
X252750000Y-79250000D01*
X252750000Y-79558000D01*
X252760608Y-79677325D01*
X252760609Y-79677328D01*
X252816557Y-79872861D01*
X252910721Y-80053129D01*
X253039246Y-80210753D01*
X253196870Y-80339278D01*
X253377138Y-80433442D01*
X253572671Y-80489390D01*
X253572674Y-80489391D01*
X253691999Y-80499999D01*
X253692002Y-80500000D01*
X254500000Y-80500000D01*
X254500000Y-79550000D01*
X255000000Y-79550000D01*
X255000000Y-80500000D01*
X255807998Y-80500000D01*
X255808000Y-80499999D01*
X255927325Y-80489391D01*
X255927328Y-80489390D01*
X256122861Y-80433442D01*
X256303129Y-80339278D01*
X256460753Y-80210753D01*
X256589278Y-80053129D01*
X256683442Y-79872861D01*
X256739390Y-79677328D01*
X256739391Y-79677325D01*
X256749999Y-79558000D01*
X256750000Y-79557998D01*
X256750000Y-79250000D01*
X255590748Y-79250000D01*
X255612518Y-79212292D01*
X255650000Y-79072409D01*
X255650000Y-78927591D01*
X255612518Y-78787708D01*
X255590748Y-78750000D01*
X256750000Y-78750000D01*
X256750000Y-78442002D01*
X256749999Y-78441999D01*
X256739391Y-78322674D01*
X256739390Y-78322671D01*
X256683442Y-78127138D01*
X256589278Y-77946870D01*
X256460753Y-77789246D01*
X256303129Y-77660721D01*
X256122861Y-77566557D01*
X255927328Y-77510609D01*
X255927325Y-77510608D01*
X255808000Y-77500000D01*
X255000000Y-77500000D01*
X255000000Y-78450000D01*
X254500000Y-78450000D01*
X254500000Y-77500000D01*
X253691999Y-77500000D01*
X253572674Y-77510608D01*
X253572671Y-77510609D01*
X253377138Y-77566557D01*
X253196870Y-77660721D01*
X253039246Y-77789246D01*
X252910721Y-77946870D01*
X252816557Y-78127138D01*
X252760609Y-78322671D01*
X252760608Y-78322674D01*
X252750000Y-78441999D01*
X250700500Y-78441999D01*
X250700500Y-75816000D01*
X250720185Y-75748961D01*
X250772989Y-75703206D01*
X250824500Y-75692000D01*
X257844788Y-75692000D01*
X257911827Y-75711685D01*
X257957582Y-75764489D01*
X257967526Y-75833647D01*
X257945107Y-75888885D01*
X257882112Y-75975590D01*
X257789181Y-76157976D01*
X257725922Y-76352665D01*
X257693900Y-76554848D01*
X257693900Y-76759551D01*
X257725922Y-76961734D01*
X257789181Y-77156423D01*
X257882115Y-77338813D01*
X258002428Y-77504413D01*
X258147186Y-77649171D01*
X258242869Y-77718687D01*
X258312790Y-77769487D01*
X258395477Y-77811618D01*
X258495176Y-77862418D01*
X258495178Y-77862418D01*
X258495181Y-77862420D01*
X258533520Y-77874877D01*
X258689865Y-77925677D01*
X258790957Y-77941688D01*
X258892048Y-77957700D01*
X258892049Y-77957700D01*
X259096751Y-77957700D01*
X259096752Y-77957700D01*
X259298934Y-77925677D01*
X259493619Y-77862420D01*
X259676010Y-77769487D01*
X259825715Y-77660721D01*
X259841613Y-77649171D01*
X259841615Y-77649168D01*
X259841619Y-77649166D01*
X259906719Y-77584066D01*
X259968042Y-77550581D01*
X260037734Y-77555565D01*
X260082081Y-77584066D01*
X260147186Y-77649171D01*
X260242869Y-77718687D01*
X260312790Y-77769487D01*
X260395477Y-77811618D01*
X260495176Y-77862418D01*
X260495178Y-77862418D01*
X260495181Y-77862420D01*
X260533520Y-77874877D01*
X260689865Y-77925677D01*
X260790957Y-77941688D01*
X260892048Y-77957700D01*
X260892049Y-77957700D01*
X261096751Y-77957700D01*
X261096752Y-77957700D01*
X261298934Y-77925677D01*
X261493619Y-77862420D01*
X261676010Y-77769487D01*
X261825715Y-77660721D01*
X261841613Y-77649171D01*
X261841615Y-77649168D01*
X261841619Y-77649166D01*
X261986366Y-77504419D01*
X261986368Y-77504415D01*
X261986371Y-77504413D01*
X262061063Y-77401606D01*
X262106687Y-77338810D01*
X262199620Y-77156419D01*
X262262877Y-76961734D01*
X262294900Y-76759552D01*
X262294900Y-76554848D01*
X262272620Y-76414179D01*
X262262877Y-76352665D01*
X262199618Y-76157976D01*
X262106687Y-75975590D01*
X262043693Y-75888885D01*
X262020214Y-75823078D01*
X262036040Y-75755024D01*
X262086146Y-75706330D01*
X262144012Y-75692000D01*
X266675500Y-75692000D01*
X266742539Y-75711685D01*
X266788294Y-75764489D01*
X266799500Y-75816000D01*
X266799500Y-77454155D01*
X266779815Y-77521194D01*
X266727011Y-77566949D01*
X266657853Y-77576893D01*
X266629186Y-77567658D01*
X266628695Y-77568888D01*
X266622860Y-77566557D01*
X266427328Y-77510609D01*
X266427325Y-77510608D01*
X266308000Y-77500000D01*
X265500000Y-77500000D01*
X265500000Y-78450000D01*
X265000000Y-78450000D01*
X265000000Y-77500000D01*
X264191999Y-77500000D01*
X264072674Y-77510608D01*
X264072671Y-77510609D01*
X263877138Y-77566557D01*
X263696870Y-77660721D01*
X263539246Y-77789246D01*
X263410721Y-77946870D01*
X263316557Y-78127138D01*
X263260609Y-78322671D01*
X263260608Y-78322674D01*
X263250000Y-78441999D01*
X263250000Y-78750000D01*
X264409252Y-78750000D01*
X264387482Y-78787708D01*
X264350000Y-78927591D01*
X264350000Y-79072409D01*
X264387482Y-79212292D01*
X264409252Y-79250000D01*
X263250000Y-79250000D01*
X263250000Y-79558000D01*
X263260608Y-79677325D01*
X263260609Y-79677328D01*
X263316557Y-79872861D01*
X263410721Y-80053129D01*
X263539246Y-80210753D01*
X263696870Y-80339278D01*
X263877138Y-80433442D01*
X264072671Y-80489390D01*
X264072674Y-80489391D01*
X264191999Y-80499999D01*
X264192002Y-80500000D01*
X265000000Y-80500000D01*
X265000000Y-79550000D01*
X265500000Y-79550000D01*
X265500000Y-80500000D01*
X266307998Y-80500000D01*
X266308000Y-80499999D01*
X266427325Y-80489391D01*
X266427328Y-80489390D01*
X266622867Y-80433440D01*
X266628700Y-80431111D01*
X266629712Y-80433644D01*
X266686546Y-80422337D01*
X266751566Y-80447915D01*
X266792435Y-80504585D01*
X266799500Y-80545844D01*
X266799500Y-81575500D01*
X266779815Y-81642539D01*
X266727011Y-81688294D01*
X266675501Y-81699500D01*
X266552130Y-81699500D01*
X266552123Y-81699501D01*
X266492516Y-81705908D01*
X266357671Y-81756202D01*
X266357664Y-81756206D01*
X266242455Y-81842452D01*
X266242452Y-81842455D01*
X266156206Y-81957664D01*
X266156202Y-81957671D01*
X266105908Y-82092517D01*
X266099501Y-82152116D01*
X266099500Y-82152135D01*
X266099500Y-84047870D01*
X266099501Y-84047876D01*
X266105908Y-84107483D01*
X266156202Y-84242328D01*
X266156206Y-84242335D01*
X266242452Y-84357544D01*
X266242455Y-84357547D01*
X266357664Y-84443793D01*
X266357671Y-84443797D01*
X266492517Y-84494091D01*
X266492516Y-84494091D01*
X266499444Y-84494835D01*
X266552127Y-84500500D01*
X268447872Y-84500499D01*
X268507483Y-84494091D01*
X268642331Y-84443796D01*
X268757546Y-84357546D01*
X268843796Y-84242331D01*
X268862735Y-84191554D01*
X268904606Y-84135620D01*
X268970070Y-84111202D01*
X269038343Y-84126053D01*
X269066598Y-84147205D01*
X269087636Y-84168243D01*
X269087641Y-84168247D01*
X269119721Y-84191554D01*
X269265978Y-84297815D01*
X269394375Y-84363237D01*
X269462393Y-84397895D01*
X269462396Y-84397896D01*
X269567221Y-84431955D01*
X269672049Y-84466015D01*
X269889778Y-84500500D01*
X269889779Y-84500500D01*
X270110221Y-84500500D01*
X270110222Y-84500500D01*
X270327951Y-84466015D01*
X270537606Y-84397895D01*
X270734022Y-84297815D01*
X270912365Y-84168242D01*
X271068242Y-84012365D01*
X271149682Y-83900270D01*
X271205011Y-83857606D01*
X271274624Y-83851627D01*
X271336420Y-83884232D01*
X271350313Y-83900265D01*
X271431753Y-84012358D01*
X271431758Y-84012365D01*
X271587636Y-84168243D01*
X271587641Y-84168247D01*
X271619721Y-84191554D01*
X271765978Y-84297815D01*
X271894375Y-84363237D01*
X271962393Y-84397895D01*
X271962396Y-84397896D01*
X272067221Y-84431955D01*
X272172049Y-84466015D01*
X272389778Y-84500500D01*
X272389779Y-84500500D01*
X272610221Y-84500500D01*
X272610222Y-84500500D01*
X272827951Y-84466015D01*
X273037606Y-84397895D01*
X273234022Y-84297815D01*
X273412365Y-84168242D01*
X273568242Y-84012365D01*
X273697815Y-83834022D01*
X273797895Y-83637606D01*
X273866015Y-83427951D01*
X273900500Y-83210222D01*
X273900500Y-82989778D01*
X273866015Y-82772049D01*
X273797895Y-82562394D01*
X273797895Y-82562393D01*
X273763237Y-82494375D01*
X273697815Y-82365978D01*
X273599501Y-82230659D01*
X273568247Y-82187641D01*
X273568243Y-82187636D01*
X273412363Y-82031756D01*
X273412358Y-82031752D01*
X273234025Y-81902187D01*
X273234024Y-81902186D01*
X273234022Y-81902185D01*
X273116791Y-81842452D01*
X273037606Y-81802104D01*
X273037603Y-81802103D01*
X272827952Y-81733985D01*
X272719086Y-81716742D01*
X272610222Y-81699500D01*
X272389778Y-81699500D01*
X272317201Y-81710995D01*
X272172047Y-81733985D01*
X271962396Y-81802103D01*
X271962393Y-81802104D01*
X271765974Y-81902187D01*
X271587641Y-82031752D01*
X271587636Y-82031756D01*
X271431756Y-82187636D01*
X271431752Y-82187641D01*
X271350318Y-82299727D01*
X271294989Y-82342393D01*
X271225375Y-82348372D01*
X271163580Y-82315767D01*
X271149682Y-82299727D01*
X271068247Y-82187641D01*
X271068243Y-82187636D01*
X270912363Y-82031756D01*
X270912358Y-82031752D01*
X270751615Y-81914966D01*
X270708949Y-81859636D01*
X270700500Y-81814648D01*
X270700500Y-78441999D01*
X272750000Y-78441999D01*
X272750000Y-78750000D01*
X273909252Y-78750000D01*
X273887482Y-78787708D01*
X273850000Y-78927591D01*
X273850000Y-79072409D01*
X273887482Y-79212292D01*
X273909252Y-79250000D01*
X272750000Y-79250000D01*
X272750000Y-79558000D01*
X272760608Y-79677325D01*
X272760609Y-79677328D01*
X272816557Y-79872861D01*
X272910721Y-80053129D01*
X273039246Y-80210753D01*
X273196870Y-80339278D01*
X273377138Y-80433442D01*
X273572671Y-80489390D01*
X273572674Y-80489391D01*
X273691999Y-80499999D01*
X273692002Y-80500000D01*
X274500000Y-80500000D01*
X274500000Y-79550000D01*
X275000000Y-79550000D01*
X275000000Y-80500000D01*
X275807998Y-80500000D01*
X275808000Y-80499999D01*
X275927325Y-80489391D01*
X275927328Y-80489390D01*
X276122861Y-80433442D01*
X276303129Y-80339278D01*
X276460753Y-80210753D01*
X276589278Y-80053129D01*
X276683442Y-79872861D01*
X276739390Y-79677328D01*
X276739391Y-79677325D01*
X276749999Y-79558000D01*
X276750000Y-79557998D01*
X276750000Y-79250000D01*
X275590748Y-79250000D01*
X275612518Y-79212292D01*
X275650000Y-79072409D01*
X275650000Y-78927591D01*
X275612518Y-78787708D01*
X275590748Y-78750000D01*
X276750000Y-78750000D01*
X276750000Y-78442002D01*
X276749999Y-78441999D01*
X283250000Y-78441999D01*
X283250000Y-78750000D01*
X284409252Y-78750000D01*
X284387482Y-78787708D01*
X284350000Y-78927591D01*
X284350000Y-79072409D01*
X284387482Y-79212292D01*
X284409252Y-79250000D01*
X283250000Y-79250000D01*
X283250000Y-79558000D01*
X283260608Y-79677325D01*
X283260609Y-79677328D01*
X283316557Y-79872861D01*
X283410721Y-80053129D01*
X283539246Y-80210753D01*
X283696870Y-80339278D01*
X283877138Y-80433442D01*
X284072671Y-80489390D01*
X284072674Y-80489391D01*
X284191999Y-80499999D01*
X284192002Y-80500000D01*
X285000000Y-80500000D01*
X285000000Y-79550000D01*
X285500000Y-79550000D01*
X285500000Y-80500000D01*
X286307998Y-80500000D01*
X286308000Y-80499999D01*
X286427325Y-80489391D01*
X286427328Y-80489390D01*
X286622861Y-80433442D01*
X286803129Y-80339278D01*
X286960753Y-80210753D01*
X287089278Y-80053129D01*
X287183442Y-79872861D01*
X287239390Y-79677328D01*
X287239391Y-79677325D01*
X287249999Y-79558000D01*
X287250000Y-79557998D01*
X287250000Y-79250000D01*
X286090748Y-79250000D01*
X286112518Y-79212292D01*
X286150000Y-79072409D01*
X286150000Y-78927591D01*
X286112518Y-78787708D01*
X286090748Y-78750000D01*
X287250000Y-78750000D01*
X287250000Y-78442002D01*
X287249999Y-78441999D01*
X287239391Y-78322674D01*
X287239390Y-78322671D01*
X287183442Y-78127138D01*
X287089278Y-77946870D01*
X286960753Y-77789246D01*
X286803129Y-77660721D01*
X286622861Y-77566557D01*
X286427328Y-77510609D01*
X286427325Y-77510608D01*
X286308000Y-77500000D01*
X285500000Y-77500000D01*
X285500000Y-78450000D01*
X285000000Y-78450000D01*
X285000000Y-77500000D01*
X284191999Y-77500000D01*
X284072674Y-77510608D01*
X284072671Y-77510609D01*
X283877138Y-77566557D01*
X283696870Y-77660721D01*
X283539246Y-77789246D01*
X283410721Y-77946870D01*
X283316557Y-78127138D01*
X283260609Y-78322671D01*
X283260608Y-78322674D01*
X283250000Y-78441999D01*
X276749999Y-78441999D01*
X276739391Y-78322674D01*
X276739390Y-78322671D01*
X276683442Y-78127138D01*
X276589278Y-77946870D01*
X276460753Y-77789246D01*
X276303129Y-77660721D01*
X276122861Y-77566557D01*
X275927328Y-77510609D01*
X275927325Y-77510608D01*
X275808000Y-77500000D01*
X275000000Y-77500000D01*
X275000000Y-78450000D01*
X274500000Y-78450000D01*
X274500000Y-77500000D01*
X273691999Y-77500000D01*
X273572674Y-77510608D01*
X273572671Y-77510609D01*
X273377138Y-77566557D01*
X273196870Y-77660721D01*
X273039246Y-77789246D01*
X272910721Y-77946870D01*
X272816557Y-78127138D01*
X272760609Y-78322671D01*
X272760608Y-78322674D01*
X272750000Y-78441999D01*
X270700500Y-78441999D01*
X270700500Y-76414179D01*
X270720185Y-76347140D01*
X270736819Y-76326498D01*
X271334998Y-75728319D01*
X271396321Y-75694834D01*
X271422679Y-75692000D01*
X277859988Y-75692000D01*
X277927027Y-75711685D01*
X277972782Y-75764489D01*
X277982726Y-75833647D01*
X277960307Y-75888885D01*
X277897312Y-75975590D01*
X277804381Y-76157976D01*
X277741122Y-76352665D01*
X277709100Y-76554848D01*
X277709100Y-76759551D01*
X277741122Y-76961734D01*
X277804381Y-77156423D01*
X277897315Y-77338813D01*
X278017628Y-77504413D01*
X278162386Y-77649171D01*
X278258069Y-77718687D01*
X278327990Y-77769487D01*
X278410677Y-77811618D01*
X278510376Y-77862418D01*
X278510378Y-77862418D01*
X278510381Y-77862420D01*
X278548720Y-77874877D01*
X278705065Y-77925677D01*
X278806157Y-77941688D01*
X278907248Y-77957700D01*
X278907249Y-77957700D01*
X279111951Y-77957700D01*
X279111952Y-77957700D01*
X279314134Y-77925677D01*
X279508819Y-77862420D01*
X279691210Y-77769487D01*
X279840915Y-77660721D01*
X279856813Y-77649171D01*
X279856815Y-77649168D01*
X279856819Y-77649166D01*
X279921919Y-77584066D01*
X279983242Y-77550581D01*
X280052934Y-77555565D01*
X280097281Y-77584066D01*
X280162386Y-77649171D01*
X280258069Y-77718687D01*
X280327990Y-77769487D01*
X280410677Y-77811618D01*
X280510376Y-77862418D01*
X280510378Y-77862418D01*
X280510381Y-77862420D01*
X280548720Y-77874877D01*
X280705065Y-77925677D01*
X280806157Y-77941688D01*
X280907248Y-77957700D01*
X280907249Y-77957700D01*
X281111951Y-77957700D01*
X281111952Y-77957700D01*
X281314134Y-77925677D01*
X281508819Y-77862420D01*
X281691210Y-77769487D01*
X281840915Y-77660721D01*
X281856813Y-77649171D01*
X281856815Y-77649168D01*
X281856819Y-77649166D01*
X282001566Y-77504419D01*
X282001568Y-77504415D01*
X282001571Y-77504413D01*
X282076263Y-77401606D01*
X282121887Y-77338810D01*
X282214820Y-77156419D01*
X282278077Y-76961734D01*
X282310100Y-76759552D01*
X282310100Y-76554848D01*
X282287820Y-76414179D01*
X282278077Y-76352665D01*
X282214818Y-76157976D01*
X282121887Y-75975590D01*
X282058893Y-75888885D01*
X282035414Y-75823078D01*
X282051240Y-75755024D01*
X282101346Y-75706330D01*
X282159212Y-75692000D01*
X292232382Y-75692000D01*
X292299421Y-75711685D01*
X292345176Y-75764489D01*
X292355120Y-75833647D01*
X292326095Y-75897203D01*
X292320069Y-75903673D01*
X291418993Y-76804750D01*
X286955888Y-81267853D01*
X286955887Y-81267854D01*
X286932620Y-81302677D01*
X286909457Y-81337343D01*
X286897414Y-81355366D01*
X286879228Y-81382583D01*
X286879223Y-81382592D01*
X286826420Y-81510071D01*
X286826418Y-81510076D01*
X286808592Y-81599693D01*
X286776206Y-81661603D01*
X286715490Y-81696177D01*
X286686976Y-81699500D01*
X286552130Y-81699500D01*
X286552123Y-81699501D01*
X286492516Y-81705908D01*
X286357671Y-81756202D01*
X286357664Y-81756206D01*
X286242455Y-81842452D01*
X286242452Y-81842455D01*
X286156206Y-81957664D01*
X286156202Y-81957671D01*
X286105908Y-82092517D01*
X286099501Y-82152116D01*
X286099500Y-82152135D01*
X286099500Y-84047870D01*
X286099501Y-84047876D01*
X286105908Y-84107483D01*
X286156202Y-84242328D01*
X286156206Y-84242335D01*
X286242452Y-84357544D01*
X286242455Y-84357547D01*
X286357664Y-84443793D01*
X286357671Y-84443797D01*
X286492517Y-84494091D01*
X286492516Y-84494091D01*
X286499444Y-84494835D01*
X286552127Y-84500500D01*
X288447872Y-84500499D01*
X288507483Y-84494091D01*
X288642331Y-84443796D01*
X288757546Y-84357546D01*
X288843796Y-84242331D01*
X288862735Y-84191554D01*
X288904606Y-84135620D01*
X288970070Y-84111202D01*
X289038343Y-84126053D01*
X289066598Y-84147205D01*
X289087636Y-84168243D01*
X289087641Y-84168247D01*
X289119721Y-84191554D01*
X289265978Y-84297815D01*
X289394375Y-84363237D01*
X289462393Y-84397895D01*
X289462396Y-84397896D01*
X289567221Y-84431955D01*
X289672049Y-84466015D01*
X289889778Y-84500500D01*
X289889779Y-84500500D01*
X290110221Y-84500500D01*
X290110222Y-84500500D01*
X290327951Y-84466015D01*
X290537606Y-84397895D01*
X290734022Y-84297815D01*
X290912365Y-84168242D01*
X291068242Y-84012365D01*
X291149682Y-83900270D01*
X291205011Y-83857606D01*
X291274624Y-83851627D01*
X291336420Y-83884232D01*
X291350313Y-83900265D01*
X291431753Y-84012358D01*
X291431758Y-84012365D01*
X291587636Y-84168243D01*
X291587641Y-84168247D01*
X291619721Y-84191554D01*
X291765978Y-84297815D01*
X291894375Y-84363237D01*
X291962393Y-84397895D01*
X291962396Y-84397896D01*
X292067221Y-84431955D01*
X292172049Y-84466015D01*
X292389778Y-84500500D01*
X292389779Y-84500500D01*
X292610221Y-84500500D01*
X292610222Y-84500500D01*
X292827951Y-84466015D01*
X293037606Y-84397895D01*
X293234022Y-84297815D01*
X293412365Y-84168242D01*
X293568242Y-84012365D01*
X293697815Y-83834022D01*
X293797895Y-83637606D01*
X293866015Y-83427951D01*
X293900500Y-83210222D01*
X293900500Y-82989778D01*
X293866015Y-82772049D01*
X293797895Y-82562394D01*
X293797895Y-82562393D01*
X293763237Y-82494375D01*
X293697815Y-82365978D01*
X293599501Y-82230659D01*
X293568247Y-82187641D01*
X293568243Y-82187636D01*
X293412363Y-82031756D01*
X293412358Y-82031752D01*
X293234025Y-81902187D01*
X293234024Y-81902186D01*
X293234022Y-81902185D01*
X293116791Y-81842452D01*
X293037606Y-81802104D01*
X293037603Y-81802103D01*
X292827952Y-81733985D01*
X292719086Y-81716742D01*
X292610222Y-81699500D01*
X292389778Y-81699500D01*
X292317201Y-81710995D01*
X292172047Y-81733985D01*
X291962396Y-81802103D01*
X291962393Y-81802104D01*
X291765974Y-81902187D01*
X291587641Y-82031752D01*
X291587636Y-82031756D01*
X291431756Y-82187636D01*
X291431752Y-82187641D01*
X291350318Y-82299727D01*
X291294989Y-82342393D01*
X291225375Y-82348372D01*
X291163580Y-82315767D01*
X291149682Y-82299727D01*
X291068247Y-82187641D01*
X291068243Y-82187636D01*
X290912363Y-82031756D01*
X290912358Y-82031752D01*
X290751615Y-81914966D01*
X290708949Y-81859636D01*
X290700500Y-81814648D01*
X290700500Y-81232319D01*
X290720185Y-81165280D01*
X290736819Y-81144638D01*
X292538319Y-79343138D01*
X292599642Y-79309653D01*
X292669334Y-79314637D01*
X292725267Y-79356509D01*
X292749684Y-79421973D01*
X292750000Y-79430819D01*
X292750000Y-79558000D01*
X292760608Y-79677325D01*
X292760609Y-79677328D01*
X292816557Y-79872861D01*
X292910721Y-80053129D01*
X293039246Y-80210753D01*
X293196870Y-80339278D01*
X293377138Y-80433442D01*
X293572671Y-80489390D01*
X293572674Y-80489391D01*
X293691999Y-80499999D01*
X293692002Y-80500000D01*
X294500000Y-80500000D01*
X294500000Y-79550000D01*
X295000000Y-79550000D01*
X295000000Y-80500000D01*
X295807998Y-80500000D01*
X295808000Y-80499999D01*
X295927325Y-80489391D01*
X295927328Y-80489390D01*
X296122861Y-80433442D01*
X296303129Y-80339278D01*
X296460753Y-80210753D01*
X296589278Y-80053129D01*
X296683442Y-79872861D01*
X296739390Y-79677328D01*
X296739391Y-79677325D01*
X296749999Y-79558000D01*
X296750000Y-79557998D01*
X296750000Y-79250000D01*
X295590748Y-79250000D01*
X295612518Y-79212292D01*
X295650000Y-79072409D01*
X295650000Y-78927591D01*
X295612518Y-78787708D01*
X295590748Y-78750000D01*
X296750000Y-78750000D01*
X296750000Y-78442002D01*
X296749999Y-78441999D01*
X296739391Y-78322674D01*
X296739390Y-78322671D01*
X296683442Y-78127138D01*
X296589278Y-77946870D01*
X296460753Y-77789246D01*
X296303129Y-77660721D01*
X296122861Y-77566557D01*
X295927328Y-77510609D01*
X295927325Y-77510608D01*
X295808000Y-77500000D01*
X295000000Y-77500000D01*
X295000000Y-78450000D01*
X294500000Y-78450000D01*
X294500000Y-77476381D01*
X294494924Y-77467086D01*
X294499908Y-77397394D01*
X294528407Y-77353049D01*
X296153138Y-75728319D01*
X296214461Y-75694834D01*
X296240819Y-75692000D01*
X297875188Y-75692000D01*
X297942227Y-75711685D01*
X297987982Y-75764489D01*
X297997926Y-75833647D01*
X297975507Y-75888885D01*
X297912512Y-75975590D01*
X297819581Y-76157976D01*
X297756322Y-76352665D01*
X297724300Y-76554848D01*
X297724300Y-76759551D01*
X297756322Y-76961734D01*
X297819581Y-77156423D01*
X297912515Y-77338813D01*
X298032828Y-77504413D01*
X298177586Y-77649171D01*
X298273269Y-77718687D01*
X298343190Y-77769487D01*
X298425877Y-77811618D01*
X298525576Y-77862418D01*
X298525578Y-77862418D01*
X298525581Y-77862420D01*
X298563920Y-77874877D01*
X298720265Y-77925677D01*
X298821357Y-77941688D01*
X298922448Y-77957700D01*
X298922449Y-77957700D01*
X299127151Y-77957700D01*
X299127152Y-77957700D01*
X299329334Y-77925677D01*
X299524019Y-77862420D01*
X299706410Y-77769487D01*
X299856115Y-77660721D01*
X299872013Y-77649171D01*
X299872015Y-77649168D01*
X299872019Y-77649166D01*
X299937119Y-77584066D01*
X299998442Y-77550581D01*
X300068134Y-77555565D01*
X300112481Y-77584066D01*
X300177586Y-77649171D01*
X300273269Y-77718687D01*
X300343190Y-77769487D01*
X300425877Y-77811618D01*
X300525576Y-77862418D01*
X300525578Y-77862418D01*
X300525581Y-77862420D01*
X300563920Y-77874877D01*
X300720265Y-77925677D01*
X300821357Y-77941688D01*
X300922448Y-77957700D01*
X300922449Y-77957700D01*
X301127151Y-77957700D01*
X301127152Y-77957700D01*
X301329334Y-77925677D01*
X301524019Y-77862420D01*
X301706410Y-77769487D01*
X301856115Y-77660721D01*
X301872013Y-77649171D01*
X301872015Y-77649168D01*
X301872019Y-77649166D01*
X302016766Y-77504419D01*
X302016768Y-77504415D01*
X302016771Y-77504413D01*
X302091463Y-77401606D01*
X302137087Y-77338810D01*
X302230020Y-77156419D01*
X302293277Y-76961734D01*
X302325300Y-76759552D01*
X302325300Y-76554848D01*
X302303020Y-76414179D01*
X302293277Y-76352665D01*
X302230018Y-76157976D01*
X302137087Y-75975590D01*
X302074093Y-75888885D01*
X302050614Y-75823078D01*
X302066440Y-75755024D01*
X302116546Y-75706330D01*
X302174412Y-75692000D01*
X306675500Y-75692000D01*
X306742539Y-75711685D01*
X306788294Y-75764489D01*
X306799500Y-75816000D01*
X306799500Y-77454155D01*
X306779815Y-77521194D01*
X306727011Y-77566949D01*
X306657853Y-77576893D01*
X306629186Y-77567658D01*
X306628695Y-77568888D01*
X306622860Y-77566557D01*
X306427328Y-77510609D01*
X306427325Y-77510608D01*
X306308000Y-77500000D01*
X305500000Y-77500000D01*
X305500000Y-78450000D01*
X305000000Y-78450000D01*
X305000000Y-77500000D01*
X304191999Y-77500000D01*
X304072674Y-77510608D01*
X304072671Y-77510609D01*
X303877138Y-77566557D01*
X303696870Y-77660721D01*
X303539246Y-77789246D01*
X303410721Y-77946870D01*
X303316557Y-78127138D01*
X303260609Y-78322671D01*
X303260608Y-78322674D01*
X303250000Y-78441999D01*
X303250000Y-78750000D01*
X304409252Y-78750000D01*
X304387482Y-78787708D01*
X304350000Y-78927591D01*
X304350000Y-79072409D01*
X304387482Y-79212292D01*
X304409252Y-79250000D01*
X303250000Y-79250000D01*
X303250000Y-79558000D01*
X303260608Y-79677325D01*
X303260609Y-79677328D01*
X303316557Y-79872861D01*
X303410721Y-80053129D01*
X303539246Y-80210753D01*
X303696870Y-80339278D01*
X303877138Y-80433442D01*
X304072671Y-80489390D01*
X304072674Y-80489391D01*
X304191999Y-80499999D01*
X304192002Y-80500000D01*
X305000000Y-80500000D01*
X305000000Y-79550000D01*
X305500000Y-79550000D01*
X305500000Y-80500000D01*
X306307998Y-80500000D01*
X306308000Y-80499999D01*
X306427325Y-80489391D01*
X306427328Y-80489390D01*
X306622867Y-80433440D01*
X306628700Y-80431111D01*
X306629712Y-80433644D01*
X306686546Y-80422337D01*
X306751566Y-80447915D01*
X306792435Y-80504585D01*
X306799500Y-80545844D01*
X306799500Y-81575500D01*
X306779815Y-81642539D01*
X306727011Y-81688294D01*
X306675501Y-81699500D01*
X306552130Y-81699500D01*
X306552123Y-81699501D01*
X306492516Y-81705908D01*
X306357671Y-81756202D01*
X306357664Y-81756206D01*
X306242455Y-81842452D01*
X306242452Y-81842455D01*
X306156206Y-81957664D01*
X306156202Y-81957671D01*
X306105908Y-82092517D01*
X306099501Y-82152116D01*
X306099500Y-82152135D01*
X306099500Y-84047870D01*
X306099501Y-84047876D01*
X306105908Y-84107483D01*
X306156202Y-84242328D01*
X306156206Y-84242335D01*
X306242452Y-84357544D01*
X306242455Y-84357547D01*
X306357664Y-84443793D01*
X306357671Y-84443797D01*
X306492517Y-84494091D01*
X306492516Y-84494091D01*
X306499444Y-84494835D01*
X306552127Y-84500500D01*
X308447872Y-84500499D01*
X308507483Y-84494091D01*
X308642331Y-84443796D01*
X308757546Y-84357546D01*
X308843796Y-84242331D01*
X308862735Y-84191554D01*
X308904606Y-84135620D01*
X308970070Y-84111202D01*
X309038343Y-84126053D01*
X309066598Y-84147205D01*
X309087636Y-84168243D01*
X309087641Y-84168247D01*
X309119721Y-84191554D01*
X309265978Y-84297815D01*
X309394375Y-84363237D01*
X309462393Y-84397895D01*
X309462396Y-84397896D01*
X309567221Y-84431955D01*
X309672049Y-84466015D01*
X309889778Y-84500500D01*
X309889779Y-84500500D01*
X310110221Y-84500500D01*
X310110222Y-84500500D01*
X310327951Y-84466015D01*
X310537606Y-84397895D01*
X310734022Y-84297815D01*
X310912365Y-84168242D01*
X311068242Y-84012365D01*
X311149682Y-83900270D01*
X311205011Y-83857606D01*
X311274624Y-83851627D01*
X311336420Y-83884232D01*
X311350313Y-83900265D01*
X311431753Y-84012358D01*
X311431758Y-84012365D01*
X311587636Y-84168243D01*
X311587641Y-84168247D01*
X311619721Y-84191554D01*
X311765978Y-84297815D01*
X311894375Y-84363237D01*
X311962393Y-84397895D01*
X311962396Y-84397896D01*
X312067221Y-84431955D01*
X312172049Y-84466015D01*
X312389778Y-84500500D01*
X312389779Y-84500500D01*
X312610221Y-84500500D01*
X312610222Y-84500500D01*
X312827951Y-84466015D01*
X313037606Y-84397895D01*
X313234022Y-84297815D01*
X313412365Y-84168242D01*
X313568242Y-84012365D01*
X313697815Y-83834022D01*
X313797895Y-83637606D01*
X313866015Y-83427951D01*
X313900500Y-83210222D01*
X313900500Y-82989778D01*
X313866015Y-82772049D01*
X313797895Y-82562394D01*
X313797895Y-82562393D01*
X313763237Y-82494375D01*
X313697815Y-82365978D01*
X313599501Y-82230659D01*
X313568247Y-82187641D01*
X313568243Y-82187636D01*
X313412363Y-82031756D01*
X313412358Y-82031752D01*
X313234025Y-81902187D01*
X313234024Y-81902186D01*
X313234022Y-81902185D01*
X313116791Y-81842452D01*
X313037606Y-81802104D01*
X313037603Y-81802103D01*
X312827952Y-81733985D01*
X312719086Y-81716742D01*
X312610222Y-81699500D01*
X312389778Y-81699500D01*
X312317201Y-81710995D01*
X312172047Y-81733985D01*
X311962396Y-81802103D01*
X311962393Y-81802104D01*
X311765974Y-81902187D01*
X311587641Y-82031752D01*
X311587636Y-82031756D01*
X311431756Y-82187636D01*
X311431752Y-82187641D01*
X311350318Y-82299727D01*
X311294989Y-82342393D01*
X311225375Y-82348372D01*
X311163580Y-82315767D01*
X311149682Y-82299727D01*
X311068247Y-82187641D01*
X311068243Y-82187636D01*
X310912363Y-82031756D01*
X310912358Y-82031752D01*
X310751615Y-81914966D01*
X310708949Y-81859636D01*
X310700500Y-81814648D01*
X310700500Y-78441999D01*
X312750000Y-78441999D01*
X312750000Y-78750000D01*
X313909252Y-78750000D01*
X313887482Y-78787708D01*
X313850000Y-78927591D01*
X313850000Y-79072409D01*
X313887482Y-79212292D01*
X313909252Y-79250000D01*
X312750000Y-79250000D01*
X312750000Y-79558000D01*
X312760608Y-79677325D01*
X312760609Y-79677328D01*
X312816557Y-79872861D01*
X312910721Y-80053129D01*
X313039246Y-80210753D01*
X313196870Y-80339278D01*
X313377138Y-80433442D01*
X313572671Y-80489390D01*
X313572674Y-80489391D01*
X313691999Y-80499999D01*
X313692002Y-80500000D01*
X314500000Y-80500000D01*
X314500000Y-79550000D01*
X315000000Y-79550000D01*
X315000000Y-80500000D01*
X315807998Y-80500000D01*
X315808000Y-80499999D01*
X315927325Y-80489391D01*
X315927328Y-80489390D01*
X316122861Y-80433442D01*
X316303129Y-80339278D01*
X316460753Y-80210753D01*
X316589278Y-80053129D01*
X316683442Y-79872861D01*
X316739390Y-79677328D01*
X316739391Y-79677325D01*
X316749999Y-79558000D01*
X316750000Y-79557998D01*
X316750000Y-79250000D01*
X315590748Y-79250000D01*
X315612518Y-79212292D01*
X315650000Y-79072409D01*
X315650000Y-78927591D01*
X315612518Y-78787708D01*
X315590748Y-78750000D01*
X316750000Y-78750000D01*
X316750000Y-78442002D01*
X316749999Y-78441999D01*
X316739391Y-78322674D01*
X316739390Y-78322671D01*
X316683442Y-78127138D01*
X316589278Y-77946870D01*
X316460753Y-77789246D01*
X316303129Y-77660721D01*
X316122861Y-77566557D01*
X315927328Y-77510609D01*
X315927325Y-77510608D01*
X315808000Y-77500000D01*
X315000000Y-77500000D01*
X315000000Y-78450000D01*
X314500000Y-78450000D01*
X314500000Y-77500000D01*
X313691999Y-77500000D01*
X313572674Y-77510608D01*
X313572671Y-77510609D01*
X313377138Y-77566557D01*
X313196870Y-77660721D01*
X313039246Y-77789246D01*
X312910721Y-77946870D01*
X312816557Y-78127138D01*
X312760609Y-78322671D01*
X312760608Y-78322674D01*
X312750000Y-78441999D01*
X310700500Y-78441999D01*
X310700500Y-75816000D01*
X310720185Y-75748961D01*
X310772989Y-75703206D01*
X310824500Y-75692000D01*
X317839588Y-75692000D01*
X317906627Y-75711685D01*
X317952382Y-75764489D01*
X317962326Y-75833647D01*
X317939907Y-75888885D01*
X317876912Y-75975590D01*
X317783981Y-76157976D01*
X317720722Y-76352665D01*
X317688700Y-76554848D01*
X317688700Y-76759551D01*
X317720722Y-76961734D01*
X317783981Y-77156423D01*
X317876915Y-77338813D01*
X317997228Y-77504413D01*
X318141986Y-77649171D01*
X318237669Y-77718687D01*
X318307590Y-77769487D01*
X318390277Y-77811618D01*
X318489976Y-77862418D01*
X318489978Y-77862418D01*
X318489981Y-77862420D01*
X318528320Y-77874877D01*
X318684665Y-77925677D01*
X318785757Y-77941688D01*
X318886848Y-77957700D01*
X318886849Y-77957700D01*
X319091551Y-77957700D01*
X319091552Y-77957700D01*
X319293734Y-77925677D01*
X319488419Y-77862420D01*
X319670810Y-77769487D01*
X319820515Y-77660721D01*
X319836413Y-77649171D01*
X319836415Y-77649168D01*
X319836419Y-77649166D01*
X319901519Y-77584066D01*
X319962842Y-77550581D01*
X320032534Y-77555565D01*
X320076881Y-77584066D01*
X320141986Y-77649171D01*
X320237669Y-77718687D01*
X320307590Y-77769487D01*
X320390277Y-77811618D01*
X320489976Y-77862418D01*
X320489978Y-77862418D01*
X320489981Y-77862420D01*
X320528320Y-77874877D01*
X320684665Y-77925677D01*
X320785757Y-77941688D01*
X320886848Y-77957700D01*
X320886849Y-77957700D01*
X321091551Y-77957700D01*
X321091552Y-77957700D01*
X321293734Y-77925677D01*
X321488419Y-77862420D01*
X321670810Y-77769487D01*
X321820515Y-77660721D01*
X321836413Y-77649171D01*
X321836415Y-77649168D01*
X321836419Y-77649166D01*
X321981166Y-77504419D01*
X321981168Y-77504415D01*
X321981171Y-77504413D01*
X322055863Y-77401606D01*
X322101487Y-77338810D01*
X322194420Y-77156419D01*
X322257677Y-76961734D01*
X322289700Y-76759552D01*
X322289700Y-76554848D01*
X322267420Y-76414179D01*
X322257677Y-76352665D01*
X322194418Y-76157976D01*
X322101487Y-75975590D01*
X322038493Y-75888885D01*
X322015014Y-75823078D01*
X322030840Y-75755024D01*
X322080946Y-75706330D01*
X322138812Y-75692000D01*
X326675500Y-75692000D01*
X326742539Y-75711685D01*
X326788294Y-75764489D01*
X326799500Y-75816000D01*
X326799500Y-77454155D01*
X326779815Y-77521194D01*
X326727011Y-77566949D01*
X326657853Y-77576893D01*
X326629186Y-77567658D01*
X326628695Y-77568888D01*
X326622860Y-77566557D01*
X326427328Y-77510609D01*
X326427325Y-77510608D01*
X326308000Y-77500000D01*
X325500000Y-77500000D01*
X325500000Y-78450000D01*
X325000000Y-78450000D01*
X325000000Y-77500000D01*
X324191999Y-77500000D01*
X324072674Y-77510608D01*
X324072671Y-77510609D01*
X323877138Y-77566557D01*
X323696870Y-77660721D01*
X323539246Y-77789246D01*
X323410721Y-77946870D01*
X323316557Y-78127138D01*
X323260609Y-78322671D01*
X323260608Y-78322674D01*
X323250000Y-78441999D01*
X323250000Y-78750000D01*
X324409252Y-78750000D01*
X324387482Y-78787708D01*
X324350000Y-78927591D01*
X324350000Y-79072409D01*
X324387482Y-79212292D01*
X324409252Y-79250000D01*
X323250000Y-79250000D01*
X323250000Y-79558000D01*
X323260608Y-79677325D01*
X323260609Y-79677328D01*
X323316557Y-79872861D01*
X323410721Y-80053129D01*
X323539246Y-80210753D01*
X323696870Y-80339278D01*
X323877138Y-80433442D01*
X324072671Y-80489390D01*
X324072674Y-80489391D01*
X324191999Y-80499999D01*
X324192002Y-80500000D01*
X325000000Y-80500000D01*
X325000000Y-79550000D01*
X325500000Y-79550000D01*
X325500000Y-80500000D01*
X326307998Y-80500000D01*
X326308000Y-80499999D01*
X326427325Y-80489391D01*
X326427328Y-80489390D01*
X326622867Y-80433440D01*
X326628700Y-80431111D01*
X326629712Y-80433644D01*
X326686546Y-80422337D01*
X326751566Y-80447915D01*
X326792435Y-80504585D01*
X326799500Y-80545844D01*
X326799500Y-81575500D01*
X326779815Y-81642539D01*
X326727011Y-81688294D01*
X326675501Y-81699500D01*
X326552130Y-81699500D01*
X326552123Y-81699501D01*
X326492516Y-81705908D01*
X326357671Y-81756202D01*
X326357664Y-81756206D01*
X326242455Y-81842452D01*
X326242452Y-81842455D01*
X326156206Y-81957664D01*
X326156202Y-81957671D01*
X326105908Y-82092517D01*
X326099501Y-82152116D01*
X326099500Y-82152135D01*
X326099500Y-84047870D01*
X326099501Y-84047876D01*
X326105908Y-84107483D01*
X326156202Y-84242328D01*
X326156206Y-84242335D01*
X326242452Y-84357544D01*
X326242455Y-84357547D01*
X326357664Y-84443793D01*
X326357671Y-84443797D01*
X326492517Y-84494091D01*
X326492516Y-84494091D01*
X326499444Y-84494835D01*
X326552127Y-84500500D01*
X328447872Y-84500499D01*
X328507483Y-84494091D01*
X328642331Y-84443796D01*
X328757546Y-84357546D01*
X328843796Y-84242331D01*
X328862735Y-84191554D01*
X328904606Y-84135620D01*
X328970070Y-84111202D01*
X329038343Y-84126053D01*
X329066598Y-84147205D01*
X329087636Y-84168243D01*
X329087641Y-84168247D01*
X329119721Y-84191554D01*
X329265978Y-84297815D01*
X329394375Y-84363237D01*
X329462393Y-84397895D01*
X329462396Y-84397896D01*
X329567221Y-84431955D01*
X329672049Y-84466015D01*
X329889778Y-84500500D01*
X329889779Y-84500500D01*
X330110221Y-84500500D01*
X330110222Y-84500500D01*
X330327951Y-84466015D01*
X330537606Y-84397895D01*
X330734022Y-84297815D01*
X330912365Y-84168242D01*
X331068242Y-84012365D01*
X331149682Y-83900270D01*
X331205011Y-83857606D01*
X331274624Y-83851627D01*
X331336420Y-83884232D01*
X331350313Y-83900265D01*
X331431753Y-84012358D01*
X331431758Y-84012365D01*
X331587636Y-84168243D01*
X331587641Y-84168247D01*
X331619721Y-84191554D01*
X331765978Y-84297815D01*
X331894375Y-84363237D01*
X331962393Y-84397895D01*
X331962396Y-84397896D01*
X332067221Y-84431955D01*
X332172049Y-84466015D01*
X332389778Y-84500500D01*
X332389779Y-84500500D01*
X332610221Y-84500500D01*
X332610222Y-84500500D01*
X332827951Y-84466015D01*
X333037606Y-84397895D01*
X333234022Y-84297815D01*
X333412365Y-84168242D01*
X333568242Y-84012365D01*
X333697815Y-83834022D01*
X333797895Y-83637606D01*
X333866015Y-83427951D01*
X333900500Y-83210222D01*
X333900500Y-82989778D01*
X333866015Y-82772049D01*
X333797895Y-82562394D01*
X333797895Y-82562393D01*
X333763237Y-82494375D01*
X333697815Y-82365978D01*
X333599501Y-82230659D01*
X333568247Y-82187641D01*
X333568243Y-82187636D01*
X333412363Y-82031756D01*
X333412358Y-82031752D01*
X333234025Y-81902187D01*
X333234024Y-81902186D01*
X333234022Y-81902185D01*
X333116791Y-81842452D01*
X333037606Y-81802104D01*
X333037603Y-81802103D01*
X332827952Y-81733985D01*
X332719086Y-81716742D01*
X332610222Y-81699500D01*
X332389778Y-81699500D01*
X332317201Y-81710995D01*
X332172047Y-81733985D01*
X331962396Y-81802103D01*
X331962393Y-81802104D01*
X331765974Y-81902187D01*
X331587641Y-82031752D01*
X331587636Y-82031756D01*
X331431756Y-82187636D01*
X331431752Y-82187641D01*
X331350318Y-82299727D01*
X331294989Y-82342393D01*
X331225375Y-82348372D01*
X331163580Y-82315767D01*
X331149682Y-82299727D01*
X331068247Y-82187641D01*
X331068243Y-82187636D01*
X330912363Y-82031756D01*
X330912358Y-82031752D01*
X330751615Y-81914966D01*
X330708949Y-81859636D01*
X330700500Y-81814648D01*
X330700500Y-78441999D01*
X332750000Y-78441999D01*
X332750000Y-78750000D01*
X333909252Y-78750000D01*
X333887482Y-78787708D01*
X333850000Y-78927591D01*
X333850000Y-79072409D01*
X333887482Y-79212292D01*
X333909252Y-79250000D01*
X332750000Y-79250000D01*
X332750000Y-79558000D01*
X332760608Y-79677325D01*
X332760609Y-79677328D01*
X332816557Y-79872861D01*
X332910721Y-80053129D01*
X333039246Y-80210753D01*
X333196870Y-80339278D01*
X333377138Y-80433442D01*
X333572671Y-80489390D01*
X333572674Y-80489391D01*
X333691999Y-80499999D01*
X333692002Y-80500000D01*
X334500000Y-80500000D01*
X334500000Y-79550000D01*
X335000000Y-79550000D01*
X335000000Y-80500000D01*
X335807998Y-80500000D01*
X335808000Y-80499999D01*
X335927325Y-80489391D01*
X335927328Y-80489390D01*
X336122861Y-80433442D01*
X336303129Y-80339278D01*
X336460753Y-80210753D01*
X336589278Y-80053129D01*
X336683442Y-79872861D01*
X336739390Y-79677328D01*
X336739391Y-79677325D01*
X336749999Y-79558000D01*
X336750000Y-79557998D01*
X336750000Y-79250000D01*
X335590748Y-79250000D01*
X335612518Y-79212292D01*
X335650000Y-79072409D01*
X335650000Y-78927591D01*
X335612518Y-78787708D01*
X335590748Y-78750000D01*
X336750000Y-78750000D01*
X336750000Y-78442002D01*
X336749999Y-78441999D01*
X336739391Y-78322674D01*
X336739390Y-78322671D01*
X336683442Y-78127138D01*
X336589278Y-77946870D01*
X336460753Y-77789246D01*
X336303129Y-77660721D01*
X336122861Y-77566557D01*
X335927328Y-77510609D01*
X335927325Y-77510608D01*
X335808000Y-77500000D01*
X335000000Y-77500000D01*
X335000000Y-78450000D01*
X334500000Y-78450000D01*
X334500000Y-77500000D01*
X333691999Y-77500000D01*
X333572674Y-77510608D01*
X333572671Y-77510609D01*
X333377138Y-77566557D01*
X333196870Y-77660721D01*
X333039246Y-77789246D01*
X332910721Y-77946870D01*
X332816557Y-78127138D01*
X332760609Y-78322671D01*
X332760608Y-78322674D01*
X332750000Y-78441999D01*
X330700500Y-78441999D01*
X330700500Y-75816000D01*
X330720185Y-75748961D01*
X330772989Y-75703206D01*
X330824500Y-75692000D01*
X337854788Y-75692000D01*
X337921827Y-75711685D01*
X337967582Y-75764489D01*
X337977526Y-75833647D01*
X337955107Y-75888885D01*
X337892112Y-75975590D01*
X337799181Y-76157976D01*
X337735922Y-76352665D01*
X337703900Y-76554848D01*
X337703900Y-76759551D01*
X337735922Y-76961734D01*
X337799181Y-77156423D01*
X337892115Y-77338813D01*
X338012428Y-77504413D01*
X338157186Y-77649171D01*
X338252869Y-77718687D01*
X338322790Y-77769487D01*
X338405477Y-77811618D01*
X338505176Y-77862418D01*
X338505178Y-77862418D01*
X338505181Y-77862420D01*
X338543520Y-77874877D01*
X338699865Y-77925677D01*
X338800957Y-77941688D01*
X338902048Y-77957700D01*
X338902049Y-77957700D01*
X339106751Y-77957700D01*
X339106752Y-77957700D01*
X339308934Y-77925677D01*
X339503619Y-77862420D01*
X339686010Y-77769487D01*
X339835715Y-77660721D01*
X339851613Y-77649171D01*
X339851615Y-77649168D01*
X339851619Y-77649166D01*
X339916719Y-77584066D01*
X339978042Y-77550581D01*
X340047734Y-77555565D01*
X340092081Y-77584066D01*
X340157186Y-77649171D01*
X340252869Y-77718687D01*
X340322790Y-77769487D01*
X340405477Y-77811618D01*
X340505176Y-77862418D01*
X340505178Y-77862418D01*
X340505181Y-77862420D01*
X340543520Y-77874877D01*
X340699865Y-77925677D01*
X340800957Y-77941688D01*
X340902048Y-77957700D01*
X340902049Y-77957700D01*
X341106751Y-77957700D01*
X341106752Y-77957700D01*
X341308934Y-77925677D01*
X341503619Y-77862420D01*
X341686010Y-77769487D01*
X341835715Y-77660721D01*
X341851613Y-77649171D01*
X341851615Y-77649168D01*
X341851619Y-77649166D01*
X341996366Y-77504419D01*
X341996368Y-77504415D01*
X341996371Y-77504413D01*
X342071063Y-77401606D01*
X342116687Y-77338810D01*
X342209620Y-77156419D01*
X342272877Y-76961734D01*
X342304900Y-76759552D01*
X342304900Y-76554848D01*
X342282620Y-76414179D01*
X342272877Y-76352665D01*
X342209618Y-76157976D01*
X342116687Y-75975590D01*
X342053693Y-75888885D01*
X342030214Y-75823078D01*
X342046040Y-75755024D01*
X342096146Y-75706330D01*
X342154012Y-75692000D01*
X346675500Y-75692000D01*
X346742539Y-75711685D01*
X346788294Y-75764489D01*
X346799500Y-75816000D01*
X346799500Y-77454155D01*
X346779815Y-77521194D01*
X346727011Y-77566949D01*
X346657853Y-77576893D01*
X346629186Y-77567658D01*
X346628695Y-77568888D01*
X346622860Y-77566557D01*
X346427328Y-77510609D01*
X346427325Y-77510608D01*
X346308000Y-77500000D01*
X345500000Y-77500000D01*
X345500000Y-78450000D01*
X345000000Y-78450000D01*
X345000000Y-77500000D01*
X344191999Y-77500000D01*
X344072674Y-77510608D01*
X344072671Y-77510609D01*
X343877138Y-77566557D01*
X343696870Y-77660721D01*
X343539246Y-77789246D01*
X343410721Y-77946870D01*
X343316557Y-78127138D01*
X343260609Y-78322671D01*
X343260608Y-78322674D01*
X343250000Y-78441999D01*
X343250000Y-78750000D01*
X344409252Y-78750000D01*
X344387482Y-78787708D01*
X344350000Y-78927591D01*
X344350000Y-79072409D01*
X344387482Y-79212292D01*
X344409252Y-79250000D01*
X343250000Y-79250000D01*
X343250000Y-79558000D01*
X343260608Y-79677325D01*
X343260609Y-79677328D01*
X343316557Y-79872861D01*
X343410721Y-80053129D01*
X343539246Y-80210753D01*
X343696870Y-80339278D01*
X343877138Y-80433442D01*
X344072671Y-80489390D01*
X344072674Y-80489391D01*
X344191999Y-80499999D01*
X344192002Y-80500000D01*
X345000000Y-80500000D01*
X345000000Y-79550000D01*
X345500000Y-79550000D01*
X345500000Y-80500000D01*
X346307998Y-80500000D01*
X346308000Y-80499999D01*
X346427325Y-80489391D01*
X346427328Y-80489390D01*
X346622867Y-80433440D01*
X346628700Y-80431111D01*
X346629712Y-80433644D01*
X346686546Y-80422337D01*
X346751566Y-80447915D01*
X346792435Y-80504585D01*
X346799500Y-80545844D01*
X346799500Y-81575500D01*
X346779815Y-81642539D01*
X346727011Y-81688294D01*
X346675501Y-81699500D01*
X346552130Y-81699500D01*
X346552123Y-81699501D01*
X346492516Y-81705908D01*
X346357671Y-81756202D01*
X346357664Y-81756206D01*
X346242455Y-81842452D01*
X346242452Y-81842455D01*
X346156206Y-81957664D01*
X346156202Y-81957671D01*
X346105908Y-82092517D01*
X346099501Y-82152116D01*
X346099500Y-82152135D01*
X346099500Y-84047870D01*
X346099501Y-84047876D01*
X346105908Y-84107483D01*
X346156202Y-84242328D01*
X346156206Y-84242335D01*
X346242452Y-84357544D01*
X346242455Y-84357547D01*
X346357664Y-84443793D01*
X346357671Y-84443797D01*
X346492517Y-84494091D01*
X346492516Y-84494091D01*
X346499444Y-84494835D01*
X346552127Y-84500500D01*
X348447872Y-84500499D01*
X348507483Y-84494091D01*
X348642331Y-84443796D01*
X348757546Y-84357546D01*
X348843796Y-84242331D01*
X348862735Y-84191554D01*
X348904606Y-84135620D01*
X348970070Y-84111202D01*
X349038343Y-84126053D01*
X349066598Y-84147205D01*
X349087636Y-84168243D01*
X349087641Y-84168247D01*
X349119721Y-84191554D01*
X349265978Y-84297815D01*
X349394375Y-84363237D01*
X349462393Y-84397895D01*
X349462396Y-84397896D01*
X349567221Y-84431955D01*
X349672049Y-84466015D01*
X349889778Y-84500500D01*
X349889779Y-84500500D01*
X350110221Y-84500500D01*
X350110222Y-84500500D01*
X350327951Y-84466015D01*
X350537606Y-84397895D01*
X350734022Y-84297815D01*
X350912365Y-84168242D01*
X351068242Y-84012365D01*
X351149682Y-83900270D01*
X351205011Y-83857606D01*
X351274624Y-83851627D01*
X351336420Y-83884232D01*
X351350313Y-83900265D01*
X351431753Y-84012358D01*
X351431758Y-84012365D01*
X351587636Y-84168243D01*
X351587641Y-84168247D01*
X351619721Y-84191554D01*
X351765978Y-84297815D01*
X351894375Y-84363237D01*
X351962393Y-84397895D01*
X351962396Y-84397896D01*
X352067221Y-84431955D01*
X352172049Y-84466015D01*
X352389778Y-84500500D01*
X352389779Y-84500500D01*
X352610221Y-84500500D01*
X352610222Y-84500500D01*
X352827951Y-84466015D01*
X353037606Y-84397895D01*
X353234022Y-84297815D01*
X353412365Y-84168242D01*
X353568242Y-84012365D01*
X353697815Y-83834022D01*
X353797895Y-83637606D01*
X353866015Y-83427951D01*
X353900500Y-83210222D01*
X353900500Y-82989778D01*
X353866015Y-82772049D01*
X353797895Y-82562394D01*
X353797895Y-82562393D01*
X353763237Y-82494375D01*
X353697815Y-82365978D01*
X353599501Y-82230659D01*
X353568247Y-82187641D01*
X353568243Y-82187636D01*
X353412363Y-82031756D01*
X353412358Y-82031752D01*
X353234025Y-81902187D01*
X353234024Y-81902186D01*
X353234022Y-81902185D01*
X353116791Y-81842452D01*
X353037606Y-81802104D01*
X353037603Y-81802103D01*
X352827952Y-81733985D01*
X352719086Y-81716742D01*
X352610222Y-81699500D01*
X352389778Y-81699500D01*
X352317201Y-81710995D01*
X352172047Y-81733985D01*
X351962396Y-81802103D01*
X351962393Y-81802104D01*
X351765974Y-81902187D01*
X351587641Y-82031752D01*
X351587636Y-82031756D01*
X351431756Y-82187636D01*
X351431752Y-82187641D01*
X351350318Y-82299727D01*
X351294989Y-82342393D01*
X351225375Y-82348372D01*
X351163580Y-82315767D01*
X351149682Y-82299727D01*
X351068247Y-82187641D01*
X351068243Y-82187636D01*
X350912363Y-82031756D01*
X350912358Y-82031752D01*
X350751615Y-81914966D01*
X350708949Y-81859636D01*
X350700500Y-81814648D01*
X350700500Y-78441999D01*
X352750000Y-78441999D01*
X352750000Y-78750000D01*
X353909252Y-78750000D01*
X353887482Y-78787708D01*
X353850000Y-78927591D01*
X353850000Y-79072409D01*
X353887482Y-79212292D01*
X353909252Y-79250000D01*
X352750000Y-79250000D01*
X352750000Y-79558000D01*
X352760608Y-79677325D01*
X352760609Y-79677328D01*
X352816557Y-79872861D01*
X352910721Y-80053129D01*
X353039246Y-80210753D01*
X353196870Y-80339278D01*
X353377138Y-80433442D01*
X353572671Y-80489390D01*
X353572674Y-80489391D01*
X353691999Y-80499999D01*
X353692002Y-80500000D01*
X354500000Y-80500000D01*
X354500000Y-79550000D01*
X355000000Y-79550000D01*
X355000000Y-80500000D01*
X355807998Y-80500000D01*
X355808000Y-80499999D01*
X355927325Y-80489391D01*
X355927328Y-80489390D01*
X356122861Y-80433442D01*
X356303129Y-80339278D01*
X356460753Y-80210753D01*
X356589278Y-80053129D01*
X356683442Y-79872861D01*
X356739390Y-79677328D01*
X356739391Y-79677325D01*
X356749999Y-79558000D01*
X356750000Y-79557998D01*
X356750000Y-79250000D01*
X355590748Y-79250000D01*
X355612518Y-79212292D01*
X355650000Y-79072409D01*
X355650000Y-78927591D01*
X355612518Y-78787708D01*
X355590748Y-78750000D01*
X356750000Y-78750000D01*
X356750000Y-78442002D01*
X356749999Y-78441999D01*
X356739391Y-78322674D01*
X356739390Y-78322671D01*
X356683442Y-78127138D01*
X356589278Y-77946870D01*
X356460753Y-77789246D01*
X356303129Y-77660721D01*
X356122861Y-77566557D01*
X355927328Y-77510609D01*
X355927325Y-77510608D01*
X355808000Y-77500000D01*
X355000000Y-77500000D01*
X355000000Y-78450000D01*
X354500000Y-78450000D01*
X354500000Y-77500000D01*
X353691999Y-77500000D01*
X353572674Y-77510608D01*
X353572671Y-77510609D01*
X353377138Y-77566557D01*
X353196870Y-77660721D01*
X353039246Y-77789246D01*
X352910721Y-77946870D01*
X352816557Y-78127138D01*
X352760609Y-78322671D01*
X352760608Y-78322674D01*
X352750000Y-78441999D01*
X350700500Y-78441999D01*
X350700500Y-75816000D01*
X350720185Y-75748961D01*
X350772989Y-75703206D01*
X350824500Y-75692000D01*
X357869988Y-75692000D01*
X357937027Y-75711685D01*
X357982782Y-75764489D01*
X357992726Y-75833647D01*
X357970307Y-75888885D01*
X357907312Y-75975590D01*
X357814381Y-76157976D01*
X357751122Y-76352665D01*
X357719100Y-76554848D01*
X357719100Y-76759551D01*
X357751122Y-76961734D01*
X357814381Y-77156423D01*
X357907315Y-77338813D01*
X358027628Y-77504413D01*
X358172386Y-77649171D01*
X358268069Y-77718687D01*
X358337990Y-77769487D01*
X358420677Y-77811618D01*
X358520376Y-77862418D01*
X358520378Y-77862418D01*
X358520381Y-77862420D01*
X358558720Y-77874877D01*
X358715065Y-77925677D01*
X358816157Y-77941688D01*
X358917248Y-77957700D01*
X358917249Y-77957700D01*
X359121951Y-77957700D01*
X359121952Y-77957700D01*
X359324134Y-77925677D01*
X359518819Y-77862420D01*
X359701210Y-77769487D01*
X359850915Y-77660721D01*
X359866813Y-77649171D01*
X359866815Y-77649168D01*
X359866819Y-77649166D01*
X359931919Y-77584066D01*
X359993242Y-77550581D01*
X360062934Y-77555565D01*
X360107281Y-77584066D01*
X360172386Y-77649171D01*
X360268069Y-77718687D01*
X360337990Y-77769487D01*
X360420677Y-77811618D01*
X360520376Y-77862418D01*
X360520378Y-77862418D01*
X360520381Y-77862420D01*
X360558720Y-77874877D01*
X360715065Y-77925677D01*
X360816157Y-77941688D01*
X360917248Y-77957700D01*
X360917249Y-77957700D01*
X361121951Y-77957700D01*
X361121952Y-77957700D01*
X361324134Y-77925677D01*
X361518819Y-77862420D01*
X361701210Y-77769487D01*
X361850915Y-77660721D01*
X361866813Y-77649171D01*
X361866815Y-77649168D01*
X361866819Y-77649166D01*
X362011566Y-77504419D01*
X362081025Y-77408815D01*
X362136355Y-77366149D01*
X362181344Y-77357700D01*
X363771768Y-77357700D01*
X363838807Y-77377385D01*
X363884562Y-77430189D01*
X363894506Y-77499347D01*
X363865481Y-77562903D01*
X363829179Y-77591609D01*
X363696870Y-77660721D01*
X363539246Y-77789246D01*
X363410721Y-77946870D01*
X363316557Y-78127138D01*
X363260609Y-78322671D01*
X363260608Y-78322674D01*
X363250000Y-78441999D01*
X363250000Y-78750000D01*
X364409252Y-78750000D01*
X364387482Y-78787708D01*
X364350000Y-78927591D01*
X364350000Y-79072409D01*
X364387482Y-79212292D01*
X364409252Y-79250000D01*
X363250000Y-79250000D01*
X363250000Y-79558000D01*
X363260608Y-79677325D01*
X363260609Y-79677328D01*
X363316557Y-79872861D01*
X363410721Y-80053129D01*
X363539246Y-80210753D01*
X363696870Y-80339278D01*
X363877138Y-80433442D01*
X364072671Y-80489390D01*
X364072674Y-80489391D01*
X364191999Y-80499999D01*
X364192002Y-80500000D01*
X365000000Y-80500000D01*
X365000000Y-79550000D01*
X365500000Y-79550000D01*
X365500000Y-80500000D01*
X366307998Y-80500000D01*
X366308000Y-80499999D01*
X366427325Y-80489391D01*
X366427328Y-80489390D01*
X366622861Y-80433442D01*
X366803129Y-80339278D01*
X366960753Y-80210753D01*
X367089278Y-80053129D01*
X367183442Y-79872861D01*
X367239390Y-79677328D01*
X367239391Y-79677325D01*
X367249999Y-79558000D01*
X367250000Y-79557998D01*
X367250000Y-79140019D01*
X367269685Y-79072980D01*
X367322489Y-79027225D01*
X367391647Y-79017281D01*
X367455203Y-79046306D01*
X367461681Y-79052338D01*
X369906806Y-81497463D01*
X369940291Y-81558786D01*
X369935307Y-81628478D01*
X369893435Y-81684411D01*
X369838524Y-81707617D01*
X369672047Y-81733985D01*
X369462396Y-81802103D01*
X369462393Y-81802104D01*
X369265974Y-81902187D01*
X369087641Y-82031752D01*
X369087635Y-82031757D01*
X369066596Y-82052796D01*
X369005273Y-82086280D01*
X368935581Y-82081294D01*
X368879648Y-82039421D01*
X368862735Y-82008446D01*
X368843797Y-81957671D01*
X368843793Y-81957664D01*
X368757547Y-81842455D01*
X368757544Y-81842452D01*
X368642335Y-81756206D01*
X368642328Y-81756202D01*
X368507482Y-81705908D01*
X368507483Y-81705908D01*
X368447883Y-81699501D01*
X368447881Y-81699500D01*
X368447873Y-81699500D01*
X368447864Y-81699500D01*
X366552129Y-81699500D01*
X366552123Y-81699501D01*
X366492516Y-81705908D01*
X366357671Y-81756202D01*
X366357664Y-81756206D01*
X366242455Y-81842452D01*
X366242452Y-81842455D01*
X366156206Y-81957664D01*
X366156202Y-81957671D01*
X366105908Y-82092517D01*
X366099501Y-82152116D01*
X366099500Y-82152135D01*
X366099500Y-84047870D01*
X366099501Y-84047876D01*
X366105908Y-84107483D01*
X366156202Y-84242328D01*
X366156206Y-84242335D01*
X366242452Y-84357544D01*
X366242455Y-84357547D01*
X366357664Y-84443793D01*
X366357671Y-84443797D01*
X366492517Y-84494091D01*
X366492516Y-84494091D01*
X366499444Y-84494835D01*
X366552127Y-84500500D01*
X368447872Y-84500499D01*
X368507483Y-84494091D01*
X368642331Y-84443796D01*
X368757546Y-84357546D01*
X368843796Y-84242331D01*
X368862735Y-84191554D01*
X368904606Y-84135620D01*
X368970070Y-84111202D01*
X369038343Y-84126053D01*
X369066598Y-84147205D01*
X369087636Y-84168243D01*
X369087641Y-84168247D01*
X369119721Y-84191554D01*
X369265978Y-84297815D01*
X369394375Y-84363237D01*
X369462393Y-84397895D01*
X369462396Y-84397896D01*
X369567221Y-84431955D01*
X369672049Y-84466015D01*
X369889778Y-84500500D01*
X369889779Y-84500500D01*
X370110221Y-84500500D01*
X370110222Y-84500500D01*
X370327951Y-84466015D01*
X370537606Y-84397895D01*
X370734022Y-84297815D01*
X370912365Y-84168242D01*
X371068242Y-84012365D01*
X371149682Y-83900270D01*
X371205011Y-83857606D01*
X371274624Y-83851627D01*
X371336420Y-83884232D01*
X371350313Y-83900265D01*
X371431753Y-84012358D01*
X371431758Y-84012365D01*
X371587636Y-84168243D01*
X371587641Y-84168247D01*
X371619721Y-84191554D01*
X371765978Y-84297815D01*
X371894375Y-84363237D01*
X371962393Y-84397895D01*
X371962396Y-84397896D01*
X372067221Y-84431955D01*
X372172049Y-84466015D01*
X372389778Y-84500500D01*
X372389779Y-84500500D01*
X372610221Y-84500500D01*
X372610222Y-84500500D01*
X372827951Y-84466015D01*
X373037606Y-84397895D01*
X373234022Y-84297815D01*
X373412365Y-84168242D01*
X373568242Y-84012365D01*
X373697815Y-83834022D01*
X373797895Y-83637606D01*
X373866015Y-83427951D01*
X373900500Y-83210222D01*
X373900500Y-82989778D01*
X373866015Y-82772049D01*
X373797895Y-82562394D01*
X373797895Y-82562393D01*
X373763237Y-82494375D01*
X373697815Y-82365978D01*
X373599501Y-82230659D01*
X373568247Y-82187641D01*
X373568243Y-82187636D01*
X373412363Y-82031756D01*
X373412358Y-82031752D01*
X373234025Y-81902187D01*
X373234024Y-81902186D01*
X373234022Y-81902185D01*
X373116791Y-81842452D01*
X373037606Y-81802104D01*
X373037603Y-81802103D01*
X372827952Y-81733985D01*
X372719086Y-81716742D01*
X372610222Y-81699500D01*
X372389778Y-81699500D01*
X372304877Y-81712946D01*
X372193527Y-81730583D01*
X372124233Y-81721628D01*
X372086448Y-81695791D01*
X369676977Y-79286319D01*
X368832657Y-78441999D01*
X372750000Y-78441999D01*
X372750000Y-78750000D01*
X373909252Y-78750000D01*
X373887482Y-78787708D01*
X373850000Y-78927591D01*
X373850000Y-79072409D01*
X373887482Y-79212292D01*
X373909252Y-79250000D01*
X372750000Y-79250000D01*
X372750000Y-79558000D01*
X372760608Y-79677325D01*
X372760609Y-79677328D01*
X372816557Y-79872861D01*
X372910721Y-80053129D01*
X373039246Y-80210753D01*
X373196870Y-80339278D01*
X373377138Y-80433442D01*
X373572671Y-80489390D01*
X373572674Y-80489391D01*
X373691999Y-80499999D01*
X373692002Y-80500000D01*
X374500000Y-80500000D01*
X374500000Y-79550000D01*
X375000000Y-79550000D01*
X375000000Y-80500000D01*
X375807998Y-80500000D01*
X375808000Y-80499999D01*
X375927325Y-80489391D01*
X375927328Y-80489390D01*
X376122861Y-80433442D01*
X376303129Y-80339278D01*
X376460753Y-80210753D01*
X376589278Y-80053129D01*
X376683442Y-79872861D01*
X376739390Y-79677328D01*
X376739391Y-79677325D01*
X376749999Y-79558000D01*
X376750000Y-79557998D01*
X376750000Y-79250000D01*
X375590748Y-79250000D01*
X375612518Y-79212292D01*
X375650000Y-79072409D01*
X375650000Y-78927591D01*
X375612518Y-78787708D01*
X375590748Y-78750000D01*
X376750000Y-78750000D01*
X376750000Y-78442002D01*
X376749999Y-78441999D01*
X376739391Y-78322674D01*
X376739390Y-78322671D01*
X376683442Y-78127138D01*
X376589278Y-77946870D01*
X376460753Y-77789246D01*
X376303129Y-77660721D01*
X376122861Y-77566557D01*
X375927328Y-77510609D01*
X375927325Y-77510608D01*
X375808000Y-77500000D01*
X375000000Y-77500000D01*
X375000000Y-78450000D01*
X374500000Y-78450000D01*
X374500000Y-77500000D01*
X373691999Y-77500000D01*
X373572674Y-77510608D01*
X373572671Y-77510609D01*
X373377138Y-77566557D01*
X373196870Y-77660721D01*
X373039246Y-77789246D01*
X372910721Y-77946870D01*
X372816557Y-78127138D01*
X372760609Y-78322671D01*
X372760608Y-78322674D01*
X372750000Y-78441999D01*
X368832657Y-78441999D01*
X366503745Y-76113087D01*
X366389007Y-76036422D01*
X366261532Y-75983621D01*
X366261522Y-75983618D01*
X366126196Y-75956700D01*
X366126194Y-75956700D01*
X366126193Y-75956700D01*
X362181344Y-75956700D01*
X362176093Y-75955158D01*
X362170731Y-75956245D01*
X362142926Y-75945419D01*
X362114305Y-75937015D01*
X362109369Y-75932353D01*
X362105623Y-75930895D01*
X362081025Y-75905584D01*
X362079642Y-75903681D01*
X362068891Y-75888883D01*
X362045413Y-75823078D01*
X362061239Y-75755024D01*
X362111345Y-75706330D01*
X362169211Y-75692000D01*
X381384000Y-75692000D01*
X381451039Y-75711685D01*
X381496794Y-75764489D01*
X381508000Y-75816000D01*
X381508000Y-88776000D01*
X381488315Y-88843039D01*
X381435511Y-88888794D01*
X381384000Y-88900000D01*
X59052000Y-88900000D01*
X58984961Y-88880315D01*
X58939206Y-88827511D01*
X58928000Y-88776000D01*
X58928000Y-78441999D01*
X63250000Y-78441999D01*
X63250000Y-78750000D01*
X64409252Y-78750000D01*
X64387482Y-78787708D01*
X64350000Y-78927591D01*
X64350000Y-79072409D01*
X64387482Y-79212292D01*
X64409252Y-79250000D01*
X63250000Y-79250000D01*
X63250000Y-79558000D01*
X63260608Y-79677325D01*
X63260609Y-79677328D01*
X63316557Y-79872861D01*
X63410721Y-80053129D01*
X63539246Y-80210753D01*
X63696870Y-80339278D01*
X63877138Y-80433442D01*
X64072671Y-80489390D01*
X64072674Y-80489391D01*
X64191999Y-80499999D01*
X64192002Y-80500000D01*
X65000000Y-80500000D01*
X65000000Y-79550000D01*
X65500000Y-79550000D01*
X65500000Y-80500000D01*
X66307998Y-80500000D01*
X66308000Y-80499999D01*
X66427325Y-80489391D01*
X66427328Y-80489390D01*
X66622861Y-80433442D01*
X66803129Y-80339278D01*
X66960753Y-80210753D01*
X67089278Y-80053129D01*
X67183442Y-79872861D01*
X67239390Y-79677328D01*
X67239391Y-79677325D01*
X67249999Y-79558000D01*
X67250000Y-79557998D01*
X67250000Y-79250000D01*
X66090748Y-79250000D01*
X66112518Y-79212292D01*
X66150000Y-79072409D01*
X66150000Y-78927591D01*
X66112518Y-78787708D01*
X66090748Y-78750000D01*
X67250000Y-78750000D01*
X67250000Y-78442002D01*
X67249999Y-78441999D01*
X67239391Y-78322674D01*
X67239390Y-78322671D01*
X67183442Y-78127138D01*
X67089278Y-77946870D01*
X66960753Y-77789246D01*
X66803129Y-77660721D01*
X66622861Y-77566557D01*
X66427328Y-77510609D01*
X66427325Y-77510608D01*
X66308000Y-77500000D01*
X65500000Y-77500000D01*
X65500000Y-78450000D01*
X65000000Y-78450000D01*
X65000000Y-77500000D01*
X64191999Y-77500000D01*
X64072674Y-77510608D01*
X64072671Y-77510609D01*
X63877138Y-77566557D01*
X63696870Y-77660721D01*
X63539246Y-77789246D01*
X63410721Y-77946870D01*
X63316557Y-78127138D01*
X63260609Y-78322671D01*
X63260608Y-78322674D01*
X63250000Y-78441999D01*
X58928000Y-78441999D01*
X58928000Y-75816000D01*
X58947685Y-75748961D01*
X59000489Y-75703206D01*
X59052000Y-75692000D01*
X71531781Y-75692000D01*
X71598820Y-75711685D01*
G37*
%TD.AperFunction*%
%TD*%
M02*
