%TF.GenerationSoftware,KiCad,Pcbnew,9.99.0-unknown-5ab735eb93~182~ubuntu22.04.1*%
%TF.CreationDate,2025-07-05T18:58:22+02:00*%
%TF.ProjectId,CP70_potmeters,43503730-5f70-46f7-946d-65746572732e,rev?*%
%TF.SameCoordinates,Original*%
%TF.FileFunction,Legend,Top*%
%TF.FilePolarity,Positive*%
%FSLAX46Y46*%
G04 Gerber Fmt 4.6, Leading zero omitted, Abs format (unit mm)*
G04 Created by KiCad (PCBNEW 9.99.0-unknown-5ab735eb93~182~ubuntu22.04.1) date 2025-07-05 18:58:22*
%MOMM*%
%LPD*%
G01*
G04 APERTURE LIST*
%ADD10C,0.300000*%
%ADD11C,0.200000*%
%ADD12C,0.150000*%
%ADD13C,0.120000*%
G04 APERTURE END LIST*
D10*
G36*
X371743178Y-60691709D02*
G01*
X371292306Y-60691709D01*
X371292306Y-62020390D01*
X371711671Y-61910969D01*
X371711671Y-62278311D01*
X371289497Y-62379916D01*
X370900174Y-62379916D01*
X370900174Y-60691709D01*
X370449302Y-60691709D01*
X370449302Y-60340000D01*
X371743178Y-60340000D01*
X371743178Y-60691709D01*
G37*
G36*
X369575994Y-60312243D02*
G01*
X369701223Y-60344043D01*
X369806289Y-60394259D01*
X369894519Y-60462521D01*
X369968021Y-60550170D01*
X370022009Y-60647106D01*
X370067893Y-60770432D01*
X370104001Y-60925446D01*
X370127933Y-61118180D01*
X370136671Y-61355317D01*
X370126583Y-61576183D01*
X370098525Y-61760983D01*
X370055285Y-61914867D01*
X369998869Y-62042414D01*
X369930408Y-62147519D01*
X369842328Y-62240139D01*
X369739099Y-62312527D01*
X369618520Y-62365746D01*
X369477347Y-62399304D01*
X369311496Y-62411179D01*
X369215364Y-62405916D01*
X369114148Y-62389685D01*
X369012776Y-62363121D01*
X368908496Y-62325205D01*
X368908496Y-61957864D01*
X369016677Y-62013683D01*
X369115491Y-62051653D01*
X369214138Y-62075345D01*
X369306001Y-62082916D01*
X369413364Y-62073076D01*
X369502360Y-62045369D01*
X369576630Y-62001087D01*
X369638660Y-61939546D01*
X369685538Y-61866121D01*
X369722142Y-61773892D01*
X369747146Y-61658891D01*
X369758217Y-61516395D01*
X369685138Y-61593231D01*
X369594330Y-61648164D01*
X369488897Y-61680530D01*
X369359368Y-61692128D01*
X369223457Y-61680155D01*
X369109750Y-61646360D01*
X369013988Y-61592342D01*
X368933164Y-61517494D01*
X368870594Y-61427021D01*
X368823737Y-61317135D01*
X368793645Y-61183920D01*
X368782833Y-61022536D01*
X368784426Y-60999699D01*
X369165317Y-60999699D01*
X369174373Y-61117984D01*
X369198757Y-61207873D01*
X369235659Y-61275572D01*
X369288786Y-61328594D01*
X369354592Y-61360449D01*
X369437159Y-61371681D01*
X369519733Y-61360487D01*
X369585049Y-61328837D01*
X369637316Y-61276304D01*
X369673404Y-61209076D01*
X369697378Y-61119028D01*
X369706315Y-60999699D01*
X369697402Y-60881386D01*
X369673452Y-60791770D01*
X369637316Y-60724560D01*
X369585049Y-60672027D01*
X369519733Y-60640378D01*
X369437159Y-60629183D01*
X369354533Y-60640347D01*
X369288729Y-60671982D01*
X369235659Y-60724560D01*
X369198777Y-60791877D01*
X369174384Y-60881497D01*
X369165317Y-60999699D01*
X368784426Y-60999699D01*
X368794865Y-60850046D01*
X368828455Y-60706987D01*
X368881007Y-60588273D01*
X368951605Y-60489842D01*
X369041910Y-60409020D01*
X369148707Y-60350535D01*
X369275299Y-60313900D01*
X369426290Y-60300921D01*
X369575994Y-60312243D01*
G37*
G36*
X365497522Y-60418157D02*
G01*
X365602074Y-60366996D01*
X365714776Y-60330230D01*
X365833621Y-60308451D01*
X365964759Y-60300921D01*
X366106992Y-60310386D01*
X366230925Y-60337365D01*
X366339336Y-60380437D01*
X366434504Y-60439171D01*
X366518091Y-60514145D01*
X366602274Y-60625849D01*
X366664271Y-60758549D01*
X366703539Y-60916368D01*
X366717515Y-61104602D01*
X366703450Y-61293468D01*
X366663926Y-61451807D01*
X366601517Y-61584941D01*
X366516748Y-61697013D01*
X366432597Y-61772313D01*
X366336987Y-61831261D01*
X366228278Y-61874457D01*
X366104221Y-61901492D01*
X365962072Y-61910969D01*
X365840689Y-61903718D01*
X365725034Y-61882271D01*
X365612344Y-61846321D01*
X365497522Y-61793733D01*
X365497522Y-61426392D01*
X365589584Y-61493311D01*
X365689497Y-61542285D01*
X365795906Y-61572604D01*
X365906018Y-61582707D01*
X366002207Y-61574175D01*
X366082485Y-61550114D01*
X366149924Y-61511669D01*
X366206681Y-61458387D01*
X366262489Y-61369636D01*
X366298586Y-61254222D01*
X366311828Y-61104602D01*
X366298555Y-60954990D01*
X366262436Y-60840083D01*
X366206681Y-60752159D01*
X366150011Y-60699517D01*
X366082607Y-60661476D01*
X366002299Y-60637640D01*
X365906018Y-60629183D01*
X365792710Y-60639027D01*
X365688764Y-60667896D01*
X365591579Y-60715926D01*
X365497522Y-60785498D01*
X365497522Y-60418157D01*
G37*
G36*
X363799546Y-61336144D02*
G01*
X363799546Y-60340000D01*
X364197173Y-60340000D01*
X364197173Y-61274473D01*
X364203762Y-61385170D01*
X364220597Y-61461141D01*
X364244312Y-61511388D01*
X364280990Y-61550045D01*
X364330717Y-61573985D01*
X364397941Y-61582707D01*
X364465581Y-61571946D01*
X364521510Y-61540552D01*
X364568789Y-61486109D01*
X364601050Y-61418823D01*
X364622349Y-61331284D01*
X364630216Y-61218297D01*
X364630216Y-60340000D01*
X365027843Y-60340000D01*
X365027843Y-62465889D01*
X364630216Y-62465889D01*
X364630216Y-61644256D01*
X364594574Y-61723932D01*
X364546497Y-61788912D01*
X364485380Y-61841238D01*
X364414137Y-61879266D01*
X364332496Y-61902758D01*
X364238084Y-61910969D01*
X364131488Y-61901038D01*
X364043614Y-61873121D01*
X363970691Y-61828530D01*
X363910188Y-61766500D01*
X363865246Y-61692814D01*
X363830626Y-61599523D01*
X363807863Y-61482329D01*
X363799546Y-61336144D01*
G37*
G36*
X363028363Y-60310626D02*
G01*
X363137129Y-60337858D01*
X363228229Y-60380792D01*
X363304588Y-60439040D01*
X363366553Y-60512421D01*
X363411645Y-60599202D01*
X363439984Y-60702051D01*
X363450034Y-60824577D01*
X363437908Y-60956488D01*
X363404100Y-61063268D01*
X363350572Y-61150070D01*
X363276622Y-61220373D01*
X363188610Y-61271578D01*
X363074090Y-61311659D01*
X362926860Y-61338374D01*
X362739654Y-61348234D01*
X362462316Y-61348234D01*
X362462316Y-61413569D01*
X362470636Y-61475845D01*
X362494036Y-61524614D01*
X362532658Y-61563168D01*
X362582272Y-61589640D01*
X362649562Y-61607338D01*
X362739654Y-61613970D01*
X362881369Y-61604567D01*
X363017725Y-61576601D01*
X363151924Y-61529625D01*
X363298482Y-61457655D01*
X363298482Y-61801549D01*
X363164412Y-61850407D01*
X363029326Y-61884225D01*
X362890277Y-61904126D01*
X362739654Y-61910969D01*
X362547928Y-61898993D01*
X362402912Y-61866988D01*
X362294825Y-61819449D01*
X362215753Y-61758684D01*
X362156102Y-61679189D01*
X362108890Y-61568237D01*
X362076788Y-61416820D01*
X362064689Y-61213900D01*
X362064689Y-61031573D01*
X362462316Y-61031573D01*
X362462316Y-61059050D01*
X362622173Y-61059050D01*
X362772532Y-61050744D01*
X362872170Y-61029872D01*
X362935048Y-61001165D01*
X362982714Y-60955819D01*
X363012728Y-60891950D01*
X363023831Y-60802962D01*
X363016493Y-60735778D01*
X362995833Y-60681183D01*
X362962404Y-60636388D01*
X362917858Y-60602720D01*
X362863254Y-60581886D01*
X362795708Y-60574473D01*
X362696160Y-60588385D01*
X362615743Y-60628135D01*
X362549755Y-60694884D01*
X362503588Y-60779700D01*
X362473415Y-60889690D01*
X362462316Y-61031573D01*
X362064689Y-61031573D01*
X362064689Y-60340000D01*
X362462316Y-60340000D01*
X362462316Y-60508405D01*
X362544768Y-60420358D01*
X362648185Y-60354776D01*
X362766037Y-60314668D01*
X362898168Y-60300921D01*
X363028363Y-60310626D01*
G37*
G36*
X360430949Y-61333946D02*
G01*
X360430949Y-60340000D01*
X360828576Y-60340000D01*
X360828576Y-61272397D01*
X360835167Y-61383854D01*
X360852008Y-61460334D01*
X360875715Y-61510900D01*
X360912433Y-61549850D01*
X360962164Y-61573938D01*
X361029344Y-61582707D01*
X361096093Y-61571966D01*
X361151817Y-61540481D01*
X361199459Y-61485621D01*
X361232113Y-61417961D01*
X361253661Y-61329946D01*
X361261618Y-61216343D01*
X361261618Y-60340000D01*
X361659246Y-60340000D01*
X361659246Y-61871891D01*
X361261618Y-61871891D01*
X361261618Y-61641692D01*
X361225936Y-61722196D01*
X361177845Y-61787769D01*
X361116782Y-61840505D01*
X361045492Y-61878952D01*
X360963855Y-61902680D01*
X360869487Y-61910969D01*
X360762926Y-61901011D01*
X360675062Y-61873013D01*
X360602126Y-61828277D01*
X360541591Y-61766011D01*
X360496660Y-61692045D01*
X360462038Y-61598386D01*
X360439269Y-61480721D01*
X360430949Y-61333946D01*
G37*
G36*
X358746650Y-61333946D02*
G01*
X358746650Y-60340000D01*
X359144277Y-60340000D01*
X359144277Y-61272397D01*
X359150869Y-61383854D01*
X359167709Y-61460334D01*
X359191416Y-61510900D01*
X359228134Y-61549850D01*
X359277866Y-61573938D01*
X359345045Y-61582707D01*
X359411794Y-61571966D01*
X359467518Y-61540481D01*
X359515160Y-61485621D01*
X359547814Y-61417961D01*
X359569362Y-61329946D01*
X359577320Y-61216343D01*
X359577320Y-60340000D01*
X359974947Y-60340000D01*
X359974947Y-61871891D01*
X359577320Y-61871891D01*
X359577320Y-61641692D01*
X359541637Y-61722196D01*
X359493546Y-61787769D01*
X359432484Y-61840505D01*
X359361193Y-61878952D01*
X359279556Y-61902680D01*
X359185188Y-61910969D01*
X359078627Y-61901011D01*
X358990763Y-61873013D01*
X358917827Y-61828277D01*
X358857292Y-61766011D01*
X358812362Y-61692045D01*
X358777739Y-61598386D01*
X358754970Y-61480721D01*
X358746650Y-61333946D01*
G37*
G36*
X357766516Y-60310392D02*
G01*
X357900282Y-60337123D01*
X358014855Y-60379243D01*
X358113068Y-60435826D01*
X358197103Y-60506939D01*
X358266963Y-60591927D01*
X358322676Y-60691257D01*
X358364213Y-60807143D01*
X358390597Y-60942424D01*
X358399947Y-61100450D01*
X358386308Y-61287690D01*
X358347887Y-61445769D01*
X358287115Y-61579648D01*
X358204553Y-61693227D01*
X358122079Y-61770549D01*
X358029301Y-61830603D01*
X357924777Y-61874294D01*
X357806443Y-61901478D01*
X357671737Y-61910969D01*
X357503382Y-61897025D01*
X357362433Y-61857739D01*
X357243817Y-61795251D01*
X357143806Y-61709347D01*
X357064869Y-61603846D01*
X357006407Y-61477071D01*
X356969173Y-61324759D01*
X356965769Y-61277892D01*
X357358862Y-61277892D01*
X357370331Y-61380417D01*
X357398128Y-61458287D01*
X357440195Y-61517128D01*
X357497596Y-61560526D01*
X357572948Y-61588210D01*
X357671737Y-61598339D01*
X357760216Y-61588369D01*
X357832304Y-61560220D01*
X357891678Y-61514441D01*
X357937122Y-61453879D01*
X357969867Y-61376024D01*
X357988642Y-61276549D01*
X357358862Y-61277892D01*
X356965769Y-61277892D01*
X356955861Y-61141482D01*
X356955861Y-60980893D01*
X357992794Y-60980893D01*
X357979006Y-60864849D01*
X357942921Y-60776974D01*
X357886304Y-60710516D01*
X357810910Y-60663743D01*
X357708820Y-60632879D01*
X357571964Y-60621367D01*
X357435182Y-60631172D01*
X357300122Y-60660690D01*
X357166588Y-60710007D01*
X357019975Y-60785498D01*
X357019975Y-60418157D01*
X357161076Y-60366747D01*
X357304152Y-60330230D01*
X357451437Y-60308406D01*
X357610188Y-60300921D01*
X357766516Y-60310392D01*
G37*
G36*
X356312526Y-60976618D02*
G01*
X356312526Y-62161074D01*
X356718335Y-62161074D01*
X356718335Y-62465889D01*
X355912212Y-62465889D01*
X355912212Y-60976618D01*
X355904399Y-60856078D01*
X355884462Y-60774008D01*
X355856280Y-60720163D01*
X355813268Y-60680183D01*
X355752126Y-60654441D01*
X355666381Y-60644815D01*
X355346667Y-60644815D01*
X355346667Y-60340000D01*
X355778367Y-60340000D01*
X355922157Y-60350952D01*
X356034338Y-60380793D01*
X356121388Y-60426477D01*
X356188206Y-60487156D01*
X356237534Y-60562660D01*
X356276467Y-60664576D01*
X356302723Y-60799812D01*
X356312526Y-60976618D01*
G37*
G36*
X352770729Y-60312486D02*
G01*
X352891006Y-60345478D01*
X352995466Y-60398611D01*
X353086666Y-60472348D01*
X353166067Y-60568855D01*
X353225748Y-60674420D01*
X353275278Y-60802214D01*
X353313390Y-60956001D01*
X353338152Y-61140083D01*
X353347051Y-61359225D01*
X353338141Y-61579069D01*
X353313357Y-61763590D01*
X353275231Y-61917603D01*
X353225707Y-62045451D01*
X353166067Y-62150938D01*
X353086660Y-62247496D01*
X352995455Y-62321266D01*
X352890996Y-62374421D01*
X352770721Y-62407425D01*
X352631175Y-62418995D01*
X352490968Y-62407404D01*
X352370262Y-62374359D01*
X352265564Y-62321175D01*
X352174284Y-62247418D01*
X352094940Y-62150938D01*
X352035256Y-62045444D01*
X351985700Y-61917592D01*
X351947549Y-61763579D01*
X351922750Y-61579062D01*
X351913834Y-61359225D01*
X352333321Y-61359225D01*
X352343361Y-61608081D01*
X352368963Y-61780095D01*
X352404396Y-61893995D01*
X352447645Y-61969664D01*
X352498912Y-62019788D01*
X352559076Y-62049283D01*
X352631175Y-62059469D01*
X352702507Y-62049325D01*
X352762227Y-62019900D01*
X352813314Y-61969787D01*
X352856612Y-61893995D01*
X352891982Y-61780101D01*
X352917541Y-61608087D01*
X352927564Y-61359225D01*
X352917555Y-61111388D01*
X352892008Y-60939742D01*
X352856612Y-60825799D01*
X352813320Y-60750071D01*
X352762237Y-60699994D01*
X352702515Y-60670585D01*
X352631175Y-60660446D01*
X352559068Y-60670627D01*
X352498902Y-60700106D01*
X352447639Y-60750194D01*
X352404396Y-60825799D01*
X352368938Y-60939748D01*
X352343347Y-61111393D01*
X352333321Y-61359225D01*
X351913834Y-61359225D01*
X351922739Y-61140090D01*
X351947516Y-60956012D01*
X351985652Y-60802224D01*
X352035216Y-60674427D01*
X352094940Y-60568855D01*
X352174277Y-60472426D01*
X352265554Y-60398702D01*
X352370252Y-60345541D01*
X352490961Y-60312507D01*
X352631175Y-60300921D01*
X352770729Y-60312486D01*
G37*
G36*
X351643579Y-61095198D02*
G01*
X351643579Y-62379916D01*
X351240579Y-62379916D01*
X351240579Y-60994204D01*
X351231008Y-60895176D01*
X351204538Y-60816895D01*
X351162787Y-60754846D01*
X351105662Y-60707631D01*
X351035040Y-60678592D01*
X350946877Y-60668262D01*
X350858634Y-60678598D01*
X350788020Y-60707641D01*
X350730966Y-60754846D01*
X350689145Y-60816904D01*
X350662636Y-60895186D01*
X350653053Y-60994204D01*
X350653053Y-62379916D01*
X350250052Y-62379916D01*
X350250052Y-61095198D01*
X350262772Y-60881747D01*
X350297170Y-60715496D01*
X350348862Y-60587366D01*
X350415404Y-60489842D01*
X350484243Y-60425779D01*
X350568660Y-60374188D01*
X350671381Y-60335176D01*
X350795988Y-60309987D01*
X350946755Y-60300921D01*
X351130174Y-60314845D01*
X351274959Y-60352974D01*
X351388820Y-60411643D01*
X351477616Y-60489842D01*
X351544428Y-60587410D01*
X351596307Y-60715559D01*
X351630819Y-60881797D01*
X351643579Y-61095198D01*
G37*
G36*
X349060345Y-60340000D02*
G01*
X349463346Y-60340000D01*
X349463346Y-62028206D01*
X349981140Y-62028206D01*
X349981140Y-62379916D01*
X348542550Y-62379916D01*
X348542550Y-62028206D01*
X349060345Y-62028206D01*
X349060345Y-60340000D01*
G37*
G36*
X348198534Y-62379916D02*
G01*
X347645202Y-62379916D01*
X347426977Y-62368103D01*
X347259342Y-62336416D01*
X347132423Y-62289388D01*
X347037892Y-62229829D01*
X346960844Y-62148665D01*
X346903460Y-62044380D01*
X346866311Y-61911578D01*
X346852756Y-61742930D01*
X347272121Y-61742930D01*
X347282699Y-61850734D01*
X347310426Y-61925595D01*
X347352110Y-61976427D01*
X347409928Y-62010497D01*
X347498728Y-62034449D01*
X347630181Y-62043838D01*
X347795411Y-62043838D01*
X347795411Y-61442023D01*
X347630181Y-61442023D01*
X347498716Y-61451396D01*
X347409917Y-61475308D01*
X347352110Y-61509312D01*
X347310421Y-61560217D01*
X347282696Y-61635126D01*
X347272121Y-61742930D01*
X346852756Y-61742930D01*
X346866309Y-61574286D01*
X346903456Y-61441459D01*
X346960840Y-61337130D01*
X347037892Y-61255910D01*
X347132414Y-61196403D01*
X347259329Y-61149413D01*
X347426967Y-61117750D01*
X347645202Y-61105945D01*
X347795411Y-61105945D01*
X347795411Y-60340000D01*
X348198534Y-60340000D01*
X348198534Y-62379916D01*
G37*
G36*
X346590683Y-61095198D02*
G01*
X346590683Y-62379916D01*
X346187683Y-62379916D01*
X346187683Y-60994204D01*
X346178112Y-60895176D01*
X346151642Y-60816895D01*
X346109891Y-60754846D01*
X346052766Y-60707631D01*
X345982144Y-60678592D01*
X345893981Y-60668262D01*
X345805738Y-60678598D01*
X345735124Y-60707641D01*
X345678070Y-60754846D01*
X345636249Y-60816904D01*
X345609740Y-60895186D01*
X345600157Y-60994204D01*
X345600157Y-62379916D01*
X345197156Y-62379916D01*
X345197156Y-61095198D01*
X345209876Y-60881747D01*
X345244274Y-60715496D01*
X345295966Y-60587366D01*
X345362508Y-60489842D01*
X345431347Y-60425779D01*
X345515764Y-60374188D01*
X345618485Y-60335176D01*
X345743092Y-60309987D01*
X345893859Y-60300921D01*
X346077278Y-60314845D01*
X346222063Y-60352974D01*
X346335924Y-60411643D01*
X346424720Y-60489842D01*
X346491532Y-60587410D01*
X346543411Y-60715559D01*
X346577923Y-60881797D01*
X346590683Y-61095198D01*
G37*
G36*
X344007449Y-60340000D02*
G01*
X344410450Y-60340000D01*
X344410450Y-62028206D01*
X344928244Y-62028206D01*
X344928244Y-62379916D01*
X343489654Y-62379916D01*
X343489654Y-62028206D01*
X344007449Y-62028206D01*
X344007449Y-60340000D01*
G37*
D11*
G36*
X193205334Y-58264417D02*
G01*
X193459988Y-58519070D01*
X193593142Y-59051684D01*
X193593142Y-60027065D01*
X193459988Y-60559678D01*
X193205334Y-60814331D01*
X192955249Y-60939374D01*
X192431035Y-60939374D01*
X192180948Y-60814330D01*
X191926295Y-60559677D01*
X191793142Y-60027064D01*
X191793142Y-59051683D01*
X191926294Y-58519072D01*
X192180948Y-58264417D01*
X192431035Y-58139374D01*
X192955249Y-58139374D01*
X193205334Y-58264417D01*
G37*
G36*
X197878856Y-60939374D02*
G01*
X197280796Y-60939374D01*
X196890017Y-60809114D01*
X196632469Y-60551566D01*
X196501778Y-60290185D01*
X196364570Y-59741350D01*
X196364570Y-59337398D01*
X196501778Y-58788563D01*
X196632469Y-58527183D01*
X196890017Y-58269634D01*
X197280797Y-58139374D01*
X197878856Y-58139374D01*
X197878856Y-60939374D01*
G37*
G36*
X231062477Y-58264417D02*
G01*
X231182384Y-58384324D01*
X231307427Y-58634410D01*
X231307427Y-59301482D01*
X231182384Y-59551567D01*
X231062476Y-59671474D01*
X230812391Y-59796517D01*
X230288177Y-59796517D01*
X230038090Y-59671473D01*
X229918183Y-59551567D01*
X229793141Y-59301482D01*
X229793141Y-58634410D01*
X229918183Y-58384324D01*
X230038089Y-58264418D01*
X230288177Y-58139374D01*
X230812391Y-58139374D01*
X231062477Y-58264417D01*
G37*
G36*
X203121712Y-60723147D02*
G01*
X202546170Y-58996517D01*
X203697256Y-58996517D01*
X203121712Y-60723147D01*
G37*
G36*
X219407426Y-60723147D02*
G01*
X218831884Y-58996517D01*
X219982970Y-58996517D01*
X219407426Y-60723147D01*
G37*
G36*
X187878857Y-56109542D02*
G01*
X187280797Y-56109542D01*
X186890018Y-55979282D01*
X186632470Y-55721734D01*
X186501779Y-55460353D01*
X186364571Y-54911518D01*
X186364571Y-54507566D01*
X186501779Y-53958731D01*
X186632470Y-53697351D01*
X186890018Y-53439802D01*
X187280798Y-53309542D01*
X187878857Y-53309542D01*
X187878857Y-56109542D01*
G37*
G36*
X190878857Y-56109542D02*
G01*
X189859607Y-56109542D01*
X189609520Y-55984499D01*
X189489613Y-55864591D01*
X189364571Y-55614507D01*
X189364571Y-55233149D01*
X189489613Y-54983064D01*
X189609520Y-54863156D01*
X189859607Y-54738114D01*
X190878857Y-54738114D01*
X190878857Y-56109542D01*
G37*
G36*
X196348192Y-53434585D02*
G01*
X196602846Y-53689238D01*
X196736000Y-54221852D01*
X196736000Y-55197233D01*
X196602846Y-55729846D01*
X196348192Y-55984499D01*
X196098107Y-56109542D01*
X195573893Y-56109542D01*
X195323806Y-55984498D01*
X195069153Y-55729845D01*
X194936000Y-55197232D01*
X194936000Y-54221851D01*
X195069152Y-53689240D01*
X195323806Y-53434585D01*
X195573893Y-53309542D01*
X196098107Y-53309542D01*
X196348192Y-53434585D01*
G37*
G36*
X199593143Y-56109542D02*
G01*
X198716750Y-56109542D01*
X198466663Y-55984498D01*
X198346756Y-55864592D01*
X198221714Y-55614507D01*
X198221714Y-55376006D01*
X198346756Y-55125920D01*
X198466663Y-55006014D01*
X198716750Y-54880971D01*
X199593143Y-54880971D01*
X199593143Y-56109542D01*
G37*
G36*
X199593143Y-54680971D02*
G01*
X198709369Y-54680971D01*
X198318589Y-54550711D01*
X198203899Y-54436020D01*
X198078857Y-54185935D01*
X198078857Y-53804578D01*
X198203899Y-53554493D01*
X198323806Y-53434585D01*
X198573893Y-53309542D01*
X199593143Y-53309542D01*
X199593143Y-54680971D01*
G37*
G36*
X207205334Y-53434585D02*
G01*
X207459988Y-53689238D01*
X207593142Y-54221852D01*
X207593142Y-55197233D01*
X207459988Y-55729846D01*
X207205334Y-55984499D01*
X206955249Y-56109542D01*
X206431035Y-56109542D01*
X206180948Y-55984498D01*
X205926295Y-55729845D01*
X205793142Y-55197232D01*
X205793142Y-54221851D01*
X205926294Y-53689240D01*
X206180948Y-53434585D01*
X206431035Y-53309542D01*
X206955249Y-53309542D01*
X207205334Y-53434585D01*
G37*
G36*
X210450285Y-56109542D02*
G01*
X209431035Y-56109542D01*
X209180948Y-55984499D01*
X209061041Y-55864591D01*
X208935999Y-55614507D01*
X208935999Y-55233149D01*
X209061041Y-54983064D01*
X209180948Y-54863156D01*
X209431035Y-54738114D01*
X210450285Y-54738114D01*
X210450285Y-56109542D01*
G37*
G36*
X218776762Y-53434585D02*
G01*
X219031416Y-53689238D01*
X219164570Y-54221852D01*
X219164570Y-55197233D01*
X219031416Y-55729846D01*
X218776762Y-55984499D01*
X218526677Y-56109542D01*
X218002463Y-56109542D01*
X217752376Y-55984498D01*
X217497723Y-55729845D01*
X217364570Y-55197232D01*
X217364570Y-54221851D01*
X217497722Y-53689240D01*
X217752376Y-53434585D01*
X218002463Y-53309542D01*
X218526677Y-53309542D01*
X218776762Y-53434585D01*
G37*
G36*
X192978856Y-55893315D02*
G01*
X192403314Y-54166685D01*
X193554400Y-54166685D01*
X192978856Y-55893315D01*
G37*
G36*
X237697903Y-61472707D02*
G01*
X185831238Y-61472707D01*
X185831238Y-59039374D01*
X191593142Y-59039374D01*
X191593142Y-60039374D01*
X191593477Y-60042776D01*
X191593260Y-60044235D01*
X191594339Y-60051532D01*
X191595063Y-60058883D01*
X191595627Y-60060246D01*
X191596128Y-60063628D01*
X191738985Y-60635056D01*
X191745580Y-60653517D01*
X191750006Y-60659491D01*
X191752852Y-60666360D01*
X191765288Y-60681514D01*
X192051003Y-60967228D01*
X192058669Y-60973520D01*
X192060401Y-60975517D01*
X192063408Y-60977410D01*
X192066156Y-60979665D01*
X192068597Y-60980676D01*
X192076992Y-60985960D01*
X192362707Y-61128817D01*
X192381015Y-61135823D01*
X192384598Y-61136077D01*
X192387919Y-61137453D01*
X192407428Y-61139374D01*
X192978856Y-61139374D01*
X192998365Y-61137453D01*
X193001685Y-61136077D01*
X193005269Y-61135823D01*
X193023577Y-61128817D01*
X193309292Y-60985960D01*
X193317690Y-60980673D01*
X193320128Y-60979664D01*
X193322871Y-60977412D01*
X193325883Y-60975517D01*
X193327615Y-60973519D01*
X193335282Y-60967228D01*
X193620996Y-60681513D01*
X193633433Y-60666360D01*
X193636278Y-60659489D01*
X193640704Y-60653517D01*
X193647299Y-60635057D01*
X193790156Y-60063628D01*
X193790656Y-60060246D01*
X193791221Y-60058883D01*
X193791944Y-60051534D01*
X193793024Y-60044236D01*
X193792806Y-60042777D01*
X193793142Y-60039374D01*
X193793142Y-59039374D01*
X193792806Y-59035971D01*
X193793024Y-59034513D01*
X193791944Y-59027216D01*
X193791221Y-59019865D01*
X193790655Y-59018500D01*
X193790156Y-59015121D01*
X193647299Y-58443692D01*
X193640704Y-58425232D01*
X193636278Y-58419259D01*
X193633433Y-58412389D01*
X193620996Y-58397236D01*
X193335282Y-58111521D01*
X193327611Y-58105226D01*
X193325882Y-58103232D01*
X193322874Y-58101338D01*
X193320128Y-58099085D01*
X193317688Y-58098074D01*
X193309292Y-58092789D01*
X193202462Y-58039374D01*
X194878856Y-58039374D01*
X194878856Y-61039374D01*
X194880777Y-61058883D01*
X194895709Y-61094931D01*
X194923299Y-61122521D01*
X194959347Y-61137453D01*
X194998365Y-61137453D01*
X195034413Y-61122521D01*
X195062003Y-61094931D01*
X195076935Y-61058883D01*
X195078856Y-61039374D01*
X195078856Y-59325089D01*
X196164570Y-59325089D01*
X196164570Y-59753660D01*
X196164905Y-59757062D01*
X196164688Y-59758521D01*
X196165767Y-59765818D01*
X196166491Y-59773169D01*
X196167055Y-59774532D01*
X196167556Y-59777914D01*
X196310413Y-60349342D01*
X196310926Y-60350779D01*
X196310978Y-60351502D01*
X196314086Y-60359626D01*
X196317008Y-60367803D01*
X196317438Y-60368383D01*
X196317984Y-60369810D01*
X196460841Y-60655524D01*
X196466126Y-60663920D01*
X196467137Y-60666361D01*
X196469390Y-60669107D01*
X196471284Y-60672115D01*
X196473279Y-60673845D01*
X196479573Y-60681514D01*
X196765288Y-60967228D01*
X196780442Y-60979664D01*
X196783759Y-60981038D01*
X196786476Y-60983394D01*
X196804376Y-60991385D01*
X197232947Y-61134242D01*
X197242619Y-61136441D01*
X197245061Y-61137453D01*
X197248598Y-61137801D01*
X197252062Y-61138589D01*
X197254696Y-61138401D01*
X197264570Y-61139374D01*
X197978856Y-61139374D01*
X197998365Y-61137453D01*
X198034413Y-61122521D01*
X198062003Y-61094931D01*
X198076935Y-61058883D01*
X198078856Y-61039374D01*
X198078856Y-58610803D01*
X199307427Y-58610803D01*
X199307427Y-61039374D01*
X199309348Y-61058883D01*
X199324280Y-61094931D01*
X199351870Y-61122521D01*
X199387918Y-61137453D01*
X199426936Y-61137453D01*
X199462984Y-61122521D01*
X199490574Y-61094931D01*
X199505506Y-61058883D01*
X199507427Y-61039374D01*
X199507427Y-58634410D01*
X199632469Y-58384325D01*
X199752376Y-58264417D01*
X200002463Y-58139374D01*
X200526677Y-58139374D01*
X200776763Y-58264417D01*
X200896670Y-58384324D01*
X201021713Y-58634410D01*
X201021713Y-61039374D01*
X201023634Y-61058883D01*
X201038566Y-61094931D01*
X201066156Y-61122521D01*
X201102204Y-61137453D01*
X201141222Y-61137453D01*
X201177270Y-61122521D01*
X201204860Y-61094931D01*
X201219792Y-61058883D01*
X201221713Y-61039374D01*
X201221713Y-58610803D01*
X201219792Y-58591294D01*
X201218416Y-58587973D01*
X201218162Y-58584390D01*
X201211156Y-58566082D01*
X201068299Y-58280368D01*
X201063013Y-58271971D01*
X201062003Y-58269531D01*
X201059749Y-58266785D01*
X201057856Y-58263777D01*
X201055858Y-58262044D01*
X201049566Y-58254378D01*
X200906710Y-58111521D01*
X200899039Y-58105226D01*
X200897310Y-58103232D01*
X200894302Y-58101338D01*
X200891556Y-58099085D01*
X200889116Y-58098074D01*
X200880720Y-58092789D01*
X200798904Y-58051881D01*
X202022498Y-58051881D01*
X202026845Y-58070997D01*
X203026845Y-61070997D01*
X203034836Y-61088897D01*
X203039519Y-61094296D01*
X203042714Y-61100686D01*
X203052186Y-61108901D01*
X203060402Y-61118374D01*
X203066791Y-61121568D01*
X203072190Y-61126251D01*
X203084086Y-61130216D01*
X203095300Y-61135823D01*
X203102427Y-61136329D01*
X203109206Y-61138589D01*
X203121708Y-61137700D01*
X203134221Y-61138590D01*
X203141002Y-61136329D01*
X203148126Y-61135823D01*
X203159335Y-61130217D01*
X203171236Y-61126251D01*
X203176635Y-61121567D01*
X203183025Y-61118373D01*
X203191240Y-61108901D01*
X203200712Y-61100686D01*
X203203906Y-61094296D01*
X203208590Y-61088897D01*
X203216581Y-61070997D01*
X204216581Y-58070996D01*
X204220928Y-58051881D01*
X204218653Y-58019865D01*
X206880776Y-58019865D01*
X206880776Y-58058883D01*
X206895708Y-58094931D01*
X206923298Y-58122521D01*
X206959346Y-58137453D01*
X206978855Y-58139374D01*
X208307427Y-58139374D01*
X208307427Y-61039374D01*
X208309348Y-61058883D01*
X208324280Y-61094931D01*
X208351870Y-61122521D01*
X208387918Y-61137453D01*
X208426936Y-61137453D01*
X208462984Y-61122521D01*
X208490574Y-61094931D01*
X208505506Y-61058883D01*
X208507427Y-61039374D01*
X208507427Y-58039374D01*
X208505506Y-58019865D01*
X209595062Y-58019865D01*
X209595062Y-58058883D01*
X209609994Y-58094931D01*
X209637584Y-58122521D01*
X209673632Y-58137453D01*
X209693141Y-58139374D01*
X211021713Y-58139374D01*
X211021713Y-59510803D01*
X210121713Y-59510803D01*
X210102204Y-59512724D01*
X210066156Y-59527656D01*
X210038566Y-59555246D01*
X210023634Y-59591294D01*
X210023634Y-59630312D01*
X210038566Y-59666360D01*
X210066156Y-59693950D01*
X210102204Y-59708882D01*
X210121713Y-59710803D01*
X211021713Y-59710803D01*
X211021713Y-60939374D01*
X209693141Y-60939374D01*
X209673632Y-60941295D01*
X209637584Y-60956227D01*
X209609994Y-60983817D01*
X209595062Y-61019865D01*
X209595062Y-61058883D01*
X209609994Y-61094931D01*
X209637584Y-61122521D01*
X209673632Y-61137453D01*
X209693141Y-61139374D01*
X211121713Y-61139374D01*
X211141222Y-61137453D01*
X211177270Y-61122521D01*
X211204860Y-61094931D01*
X211219792Y-61058883D01*
X211221713Y-61039374D01*
X211221713Y-58039374D01*
X212450284Y-58039374D01*
X212450284Y-61039374D01*
X212452205Y-61058883D01*
X212467137Y-61094931D01*
X212494727Y-61122521D01*
X212530775Y-61137453D01*
X212569793Y-61137453D01*
X212605841Y-61122521D01*
X212633431Y-61094931D01*
X212648363Y-61058883D01*
X212650284Y-61039374D01*
X212650284Y-58415930D01*
X214177745Y-61088987D01*
X214180664Y-61093099D01*
X214181423Y-61094931D01*
X214183289Y-61096797D01*
X214189093Y-61104973D01*
X214199607Y-61113115D01*
X214209013Y-61122521D01*
X214214903Y-61124960D01*
X214219942Y-61128863D01*
X214232767Y-61132360D01*
X214245061Y-61137453D01*
X214251440Y-61137453D01*
X214257585Y-61139129D01*
X214270771Y-61137453D01*
X214284079Y-61137453D01*
X214289970Y-61135012D01*
X214296292Y-61134209D01*
X214307837Y-61127611D01*
X214320127Y-61122521D01*
X214324634Y-61118013D01*
X214330169Y-61114851D01*
X214338310Y-61104337D01*
X214347717Y-61094931D01*
X214350157Y-61089038D01*
X214354059Y-61084001D01*
X214357557Y-61071175D01*
X214362649Y-61058883D01*
X214363631Y-61048903D01*
X214364326Y-61046358D01*
X214364075Y-61044391D01*
X214364570Y-61039374D01*
X214364570Y-58039374D01*
X215593141Y-58039374D01*
X215593141Y-61039374D01*
X215595062Y-61058883D01*
X215609994Y-61094931D01*
X215637584Y-61122521D01*
X215673632Y-61137453D01*
X215712650Y-61137453D01*
X215748698Y-61122521D01*
X215776288Y-61094931D01*
X215791220Y-61058883D01*
X215793141Y-61039374D01*
X215793141Y-58415930D01*
X217320602Y-61088987D01*
X217323521Y-61093099D01*
X217324280Y-61094931D01*
X217326146Y-61096797D01*
X217331950Y-61104973D01*
X217342464Y-61113115D01*
X217351870Y-61122521D01*
X217357760Y-61124960D01*
X217362799Y-61128863D01*
X217375624Y-61132360D01*
X217387918Y-61137453D01*
X217394297Y-61137453D01*
X217400442Y-61139129D01*
X217413628Y-61137453D01*
X217426936Y-61137453D01*
X217432827Y-61135012D01*
X217439149Y-61134209D01*
X217450694Y-61127611D01*
X217462984Y-61122521D01*
X217467491Y-61118013D01*
X217473026Y-61114851D01*
X217481167Y-61104337D01*
X217490574Y-61094931D01*
X217493014Y-61089038D01*
X217496916Y-61084001D01*
X217500414Y-61071175D01*
X217505506Y-61058883D01*
X217506488Y-61048903D01*
X217507183Y-61046358D01*
X217506932Y-61044391D01*
X217507427Y-61039374D01*
X217507427Y-58051881D01*
X218308212Y-58051881D01*
X218312559Y-58070997D01*
X219312559Y-61070997D01*
X219320550Y-61088897D01*
X219325233Y-61094296D01*
X219328428Y-61100686D01*
X219337900Y-61108901D01*
X219346116Y-61118374D01*
X219352505Y-61121568D01*
X219357904Y-61126251D01*
X219369800Y-61130216D01*
X219381014Y-61135823D01*
X219388141Y-61136329D01*
X219394920Y-61138589D01*
X219407422Y-61137700D01*
X219419935Y-61138590D01*
X219426716Y-61136329D01*
X219433840Y-61135823D01*
X219445049Y-61130217D01*
X219456950Y-61126251D01*
X219462349Y-61121567D01*
X219468739Y-61118373D01*
X219476954Y-61108901D01*
X219486426Y-61100686D01*
X219489620Y-61094296D01*
X219494304Y-61088897D01*
X219502295Y-61070997D01*
X220502295Y-58070996D01*
X220506642Y-58051881D01*
X220505753Y-58039374D01*
X221307427Y-58039374D01*
X221307427Y-61039374D01*
X221309348Y-61058883D01*
X221324280Y-61094931D01*
X221351870Y-61122521D01*
X221387918Y-61137453D01*
X221426936Y-61137453D01*
X221462984Y-61122521D01*
X221490574Y-61094931D01*
X221505506Y-61058883D01*
X221507427Y-61039374D01*
X221507427Y-59710803D01*
X223021713Y-59710803D01*
X223021713Y-61039374D01*
X223023634Y-61058883D01*
X223038566Y-61094931D01*
X223066156Y-61122521D01*
X223102204Y-61137453D01*
X223141222Y-61137453D01*
X223177270Y-61122521D01*
X223204860Y-61094931D01*
X223219792Y-61058883D01*
X223221713Y-61039374D01*
X223221713Y-58305580D01*
X224309348Y-58305580D01*
X224309348Y-58344598D01*
X224324280Y-58380646D01*
X224351870Y-58408236D01*
X224387918Y-58423168D01*
X224426936Y-58423168D01*
X224462984Y-58408236D01*
X224478138Y-58395800D01*
X224604302Y-58269634D01*
X224995083Y-58139374D01*
X225248343Y-58139374D01*
X225639121Y-58269634D01*
X225896671Y-58527183D01*
X226027361Y-58788564D01*
X226164570Y-59337398D01*
X226164570Y-59741351D01*
X226027361Y-60290185D01*
X225896671Y-60551565D01*
X225639121Y-60809114D01*
X225248343Y-60939374D01*
X224995082Y-60939374D01*
X224604302Y-60809114D01*
X224478138Y-60682949D01*
X224462984Y-60670513D01*
X224426936Y-60655581D01*
X224387918Y-60655581D01*
X224351870Y-60670513D01*
X224324280Y-60698103D01*
X224309348Y-60734151D01*
X224309348Y-60773169D01*
X224324280Y-60809217D01*
X224336716Y-60824371D01*
X224479573Y-60967227D01*
X224494726Y-60979664D01*
X224498045Y-60981038D01*
X224500761Y-60983394D01*
X224518661Y-60991385D01*
X224947233Y-61134242D01*
X224956905Y-61136441D01*
X224959347Y-61137453D01*
X224962884Y-61137801D01*
X224966348Y-61138589D01*
X224968982Y-61138401D01*
X224978856Y-61139374D01*
X225264570Y-61139374D01*
X225274443Y-61138401D01*
X225277077Y-61138589D01*
X225280540Y-61137801D01*
X225284079Y-61137453D01*
X225286521Y-61136441D01*
X225296193Y-61134242D01*
X225724763Y-60991385D01*
X225742664Y-60983394D01*
X225745379Y-60981038D01*
X225748698Y-60979664D01*
X225763852Y-60967228D01*
X226049566Y-60681514D01*
X226055858Y-60673847D01*
X226057856Y-60672115D01*
X226059749Y-60669106D01*
X226062003Y-60666361D01*
X226063013Y-60663920D01*
X226068299Y-60655524D01*
X226211156Y-60369810D01*
X226211701Y-60368383D01*
X226212132Y-60367803D01*
X226215055Y-60359620D01*
X226218162Y-60351502D01*
X226218213Y-60350781D01*
X226218727Y-60349343D01*
X226361584Y-59777914D01*
X226362084Y-59774532D01*
X226362649Y-59773169D01*
X226363372Y-59765820D01*
X226364452Y-59758522D01*
X226364234Y-59757063D01*
X226364570Y-59753660D01*
X226364570Y-59325089D01*
X226364234Y-59321685D01*
X226364452Y-59320227D01*
X226363372Y-59312928D01*
X226362649Y-59305580D01*
X226362084Y-59304216D01*
X226361584Y-59300835D01*
X226218727Y-58729406D01*
X226218213Y-58727967D01*
X226218162Y-58727247D01*
X226215055Y-58719128D01*
X226212132Y-58710946D01*
X226211701Y-58710365D01*
X226211156Y-58708939D01*
X226162088Y-58610803D01*
X229593141Y-58610803D01*
X229593141Y-59325089D01*
X229595062Y-59344598D01*
X229596437Y-59347918D01*
X229596692Y-59351502D01*
X229603698Y-59369810D01*
X229746555Y-59655524D01*
X229751840Y-59663920D01*
X229752851Y-59666361D01*
X229755104Y-59669106D01*
X229756998Y-59672115D01*
X229758995Y-59673847D01*
X229765288Y-59681514D01*
X229908146Y-59824371D01*
X229915810Y-59830661D01*
X229917544Y-59832660D01*
X229920556Y-59834555D01*
X229923299Y-59836807D01*
X229925736Y-59837816D01*
X229934135Y-59843103D01*
X230219849Y-59985960D01*
X230238157Y-59992966D01*
X230241740Y-59993220D01*
X230245061Y-59994596D01*
X230264570Y-59996517D01*
X230835998Y-59996517D01*
X230855507Y-59994596D01*
X230858827Y-59993220D01*
X230862411Y-59992966D01*
X230880719Y-59985960D01*
X231166434Y-59843103D01*
X231174832Y-59837816D01*
X231177270Y-59836807D01*
X231180013Y-59834555D01*
X231183025Y-59832660D01*
X231184757Y-59830662D01*
X231192424Y-59824371D01*
X231307427Y-59709367D01*
X231307427Y-59741351D01*
X231171757Y-60284031D01*
X230901143Y-60689951D01*
X230776763Y-60814330D01*
X230526677Y-60939374D01*
X229978856Y-60939374D01*
X229959347Y-60941295D01*
X229923299Y-60956227D01*
X229895709Y-60983817D01*
X229880777Y-61019865D01*
X229880777Y-61058883D01*
X229895709Y-61094931D01*
X229923299Y-61122521D01*
X229959347Y-61137453D01*
X229978856Y-61139374D01*
X230550284Y-61139374D01*
X230569793Y-61137453D01*
X230573113Y-61136077D01*
X230576697Y-61135823D01*
X230595005Y-61128817D01*
X230880719Y-60985960D01*
X230889117Y-60980673D01*
X230891555Y-60979664D01*
X230894297Y-60977412D01*
X230897310Y-60975517D01*
X230899043Y-60973518D01*
X230906708Y-60967228D01*
X231049566Y-60824371D01*
X231049609Y-60824318D01*
X231049641Y-60824297D01*
X231055858Y-60816703D01*
X231062003Y-60809218D01*
X231062017Y-60809183D01*
X231062061Y-60809130D01*
X231347775Y-60380559D01*
X231353517Y-60369789D01*
X231354989Y-60367803D01*
X231355827Y-60365457D01*
X231356998Y-60363261D01*
X231357477Y-60360837D01*
X231361584Y-60349343D01*
X231504441Y-59777914D01*
X231504941Y-59774532D01*
X231505506Y-59773169D01*
X231506229Y-59765820D01*
X231507309Y-59758522D01*
X231507091Y-59757063D01*
X231507427Y-59753660D01*
X231507427Y-58610803D01*
X231505506Y-58591294D01*
X231504130Y-58587973D01*
X231503876Y-58584390D01*
X231496870Y-58566082D01*
X231354013Y-58280368D01*
X231348727Y-58271971D01*
X231347717Y-58269531D01*
X231345463Y-58266785D01*
X231343570Y-58263777D01*
X231341572Y-58262044D01*
X231335280Y-58254378D01*
X231192424Y-58111521D01*
X231184753Y-58105226D01*
X231183024Y-58103232D01*
X231180016Y-58101338D01*
X231177270Y-58099085D01*
X231174830Y-58098074D01*
X231166434Y-58092789D01*
X231020587Y-58019865D01*
X232452205Y-58019865D01*
X232452205Y-58058883D01*
X232467137Y-58094931D01*
X232494727Y-58122521D01*
X232530775Y-58137453D01*
X232550284Y-58139374D01*
X233307427Y-58139374D01*
X233307427Y-61039374D01*
X233307433Y-61039444D01*
X233307427Y-61039479D01*
X233307447Y-61039580D01*
X233309348Y-61058883D01*
X233313137Y-61068031D01*
X233315079Y-61077739D01*
X233320530Y-61085879D01*
X233324280Y-61094931D01*
X233331279Y-61101930D01*
X233336790Y-61110159D01*
X233344943Y-61115594D01*
X233351870Y-61122521D01*
X233361016Y-61126309D01*
X233369255Y-61131802D01*
X233378865Y-61133703D01*
X233387918Y-61137453D01*
X233397821Y-61137453D01*
X233407532Y-61139374D01*
X233417137Y-61137453D01*
X233426936Y-61137453D01*
X233436084Y-61133663D01*
X233445792Y-61131722D01*
X233453932Y-61126270D01*
X233462984Y-61122521D01*
X233469983Y-61115521D01*
X233478212Y-61110011D01*
X233490500Y-61095004D01*
X233490574Y-61094931D01*
X233490587Y-61094898D01*
X233490632Y-61094844D01*
X233770852Y-60674514D01*
X234038091Y-60407275D01*
X234309291Y-60271675D01*
X234325882Y-60261232D01*
X234351446Y-60231755D01*
X234363785Y-60194739D01*
X234361019Y-60155819D01*
X234343570Y-60120920D01*
X234314093Y-60095356D01*
X234277077Y-60083017D01*
X234238157Y-60085783D01*
X234219849Y-60092789D01*
X233934135Y-60235646D01*
X233925736Y-60240932D01*
X233923299Y-60241942D01*
X233920555Y-60244193D01*
X233917544Y-60246089D01*
X233915811Y-60248086D01*
X233908145Y-60254378D01*
X233622430Y-60540092D01*
X233622385Y-60540146D01*
X233622356Y-60540166D01*
X233616361Y-60547486D01*
X233609994Y-60555245D01*
X233609979Y-60555279D01*
X233609936Y-60555333D01*
X233507427Y-60709096D01*
X233507427Y-58139374D01*
X234264570Y-58139374D01*
X234284079Y-58137453D01*
X234320127Y-58122521D01*
X234347717Y-58094931D01*
X234362649Y-58058883D01*
X234362649Y-58019865D01*
X234347717Y-57983817D01*
X234320127Y-57956227D01*
X234284079Y-57941295D01*
X234264570Y-57939374D01*
X232550284Y-57939374D01*
X232530775Y-57941295D01*
X232494727Y-57956227D01*
X232467137Y-57983817D01*
X232452205Y-58019865D01*
X231020587Y-58019865D01*
X230880719Y-57949931D01*
X230862411Y-57942925D01*
X230858827Y-57942670D01*
X230855507Y-57941295D01*
X230835998Y-57939374D01*
X230264570Y-57939374D01*
X230245061Y-57941295D01*
X230241741Y-57942670D01*
X230238156Y-57942925D01*
X230219848Y-57949932D01*
X229934134Y-58092789D01*
X229925735Y-58098075D01*
X229923299Y-58099085D01*
X229920556Y-58101335D01*
X229917544Y-58103232D01*
X229915810Y-58105230D01*
X229908146Y-58111521D01*
X229765288Y-58254378D01*
X229758995Y-58262044D01*
X229756998Y-58263777D01*
X229755104Y-58266785D01*
X229752851Y-58269531D01*
X229751840Y-58271971D01*
X229746555Y-58280368D01*
X229603698Y-58566082D01*
X229596692Y-58584390D01*
X229596437Y-58587973D01*
X229595062Y-58591294D01*
X229593141Y-58610803D01*
X226162088Y-58610803D01*
X226068299Y-58423225D01*
X226063013Y-58414828D01*
X226062003Y-58412388D01*
X226059749Y-58409642D01*
X226057856Y-58406634D01*
X226055858Y-58404901D01*
X226049566Y-58397235D01*
X225763852Y-58111521D01*
X225748698Y-58099085D01*
X225745379Y-58097710D01*
X225742665Y-58095356D01*
X225724764Y-58087364D01*
X225296193Y-57944506D01*
X225286520Y-57942306D01*
X225284079Y-57941295D01*
X225280541Y-57940946D01*
X225277078Y-57940159D01*
X225274443Y-57940346D01*
X225264570Y-57939374D01*
X224978856Y-57939374D01*
X224968982Y-57940346D01*
X224966349Y-57940159D01*
X224962885Y-57940946D01*
X224959347Y-57941295D01*
X224956904Y-57942306D01*
X224947233Y-57944506D01*
X224518661Y-58087364D01*
X224500761Y-58095355D01*
X224498045Y-58097709D01*
X224494726Y-58099085D01*
X224479573Y-58111522D01*
X224336716Y-58254378D01*
X224324280Y-58269532D01*
X224309348Y-58305580D01*
X223221713Y-58305580D01*
X223221713Y-58039374D01*
X223219792Y-58019865D01*
X223204860Y-57983817D01*
X223177270Y-57956227D01*
X223141222Y-57941295D01*
X223102204Y-57941295D01*
X223066156Y-57956227D01*
X223038566Y-57983817D01*
X223023634Y-58019865D01*
X223021713Y-58039374D01*
X223021713Y-59510803D01*
X221507427Y-59510803D01*
X221507427Y-58039374D01*
X221505506Y-58019865D01*
X221490574Y-57983817D01*
X221462984Y-57956227D01*
X221426936Y-57941295D01*
X221387918Y-57941295D01*
X221351870Y-57956227D01*
X221324280Y-57983817D01*
X221309348Y-58019865D01*
X221307427Y-58039374D01*
X220505753Y-58039374D01*
X220503876Y-58012961D01*
X220486426Y-57978062D01*
X220456950Y-57952497D01*
X220419935Y-57940158D01*
X220381014Y-57942925D01*
X220346116Y-57960374D01*
X220320550Y-57989851D01*
X220312559Y-58007751D01*
X220049637Y-58796517D01*
X218765217Y-58796517D01*
X218502295Y-58007751D01*
X218494304Y-57989851D01*
X218468739Y-57960375D01*
X218433840Y-57942925D01*
X218394920Y-57940159D01*
X218357904Y-57952497D01*
X218328428Y-57978062D01*
X218310978Y-58012961D01*
X218308212Y-58051881D01*
X217507427Y-58051881D01*
X217507427Y-58039374D01*
X217505506Y-58019865D01*
X217490574Y-57983817D01*
X217462984Y-57956227D01*
X217426936Y-57941295D01*
X217387918Y-57941295D01*
X217351870Y-57956227D01*
X217324280Y-57983817D01*
X217309348Y-58019865D01*
X217307427Y-58039374D01*
X217307427Y-60662818D01*
X215779965Y-57989760D01*
X215777046Y-57985649D01*
X215776288Y-57983817D01*
X215774421Y-57981950D01*
X215768618Y-57973775D01*
X215758103Y-57965632D01*
X215748698Y-57956227D01*
X215742807Y-57953787D01*
X215737769Y-57949885D01*
X215724940Y-57946386D01*
X215712650Y-57941295D01*
X215706275Y-57941295D01*
X215700126Y-57939618D01*
X215686933Y-57941295D01*
X215673632Y-57941295D01*
X215667743Y-57943734D01*
X215661419Y-57944538D01*
X215649869Y-57951138D01*
X215637584Y-57956227D01*
X215633076Y-57960734D01*
X215627542Y-57963897D01*
X215619399Y-57974411D01*
X215609994Y-57983817D01*
X215607554Y-57989707D01*
X215603652Y-57994746D01*
X215600153Y-58007574D01*
X215595062Y-58019865D01*
X215594079Y-58029842D01*
X215593385Y-58032389D01*
X215593635Y-58034356D01*
X215593141Y-58039374D01*
X214364570Y-58039374D01*
X214362649Y-58019865D01*
X214347717Y-57983817D01*
X214320127Y-57956227D01*
X214284079Y-57941295D01*
X214245061Y-57941295D01*
X214209013Y-57956227D01*
X214181423Y-57983817D01*
X214166491Y-58019865D01*
X214164570Y-58039374D01*
X214164570Y-60662818D01*
X212637108Y-57989760D01*
X212634189Y-57985649D01*
X212633431Y-57983817D01*
X212631564Y-57981950D01*
X212625761Y-57973775D01*
X212615246Y-57965632D01*
X212605841Y-57956227D01*
X212599950Y-57953787D01*
X212594912Y-57949885D01*
X212582083Y-57946386D01*
X212569793Y-57941295D01*
X212563418Y-57941295D01*
X212557269Y-57939618D01*
X212544076Y-57941295D01*
X212530775Y-57941295D01*
X212524886Y-57943734D01*
X212518562Y-57944538D01*
X212507012Y-57951138D01*
X212494727Y-57956227D01*
X212490219Y-57960734D01*
X212484685Y-57963897D01*
X212476542Y-57974411D01*
X212467137Y-57983817D01*
X212464697Y-57989707D01*
X212460795Y-57994746D01*
X212457296Y-58007574D01*
X212452205Y-58019865D01*
X212451222Y-58029842D01*
X212450528Y-58032389D01*
X212450778Y-58034356D01*
X212450284Y-58039374D01*
X211221713Y-58039374D01*
X211219792Y-58019865D01*
X211204860Y-57983817D01*
X211177270Y-57956227D01*
X211141222Y-57941295D01*
X211121713Y-57939374D01*
X209693141Y-57939374D01*
X209673632Y-57941295D01*
X209637584Y-57956227D01*
X209609994Y-57983817D01*
X209595062Y-58019865D01*
X208505506Y-58019865D01*
X208490574Y-57983817D01*
X208462984Y-57956227D01*
X208426936Y-57941295D01*
X208407427Y-57939374D01*
X206978855Y-57939374D01*
X206959346Y-57941295D01*
X206923298Y-57956227D01*
X206895708Y-57983817D01*
X206880776Y-58019865D01*
X204218653Y-58019865D01*
X204218162Y-58012961D01*
X204200712Y-57978062D01*
X204171236Y-57952497D01*
X204134221Y-57940158D01*
X204095300Y-57942925D01*
X204060402Y-57960374D01*
X204034836Y-57989851D01*
X204026845Y-58007751D01*
X203763923Y-58796517D01*
X202479503Y-58796517D01*
X202216581Y-58007751D01*
X202208590Y-57989851D01*
X202183025Y-57960375D01*
X202148126Y-57942925D01*
X202109206Y-57940159D01*
X202072190Y-57952497D01*
X202042714Y-57978062D01*
X202025264Y-58012961D01*
X202022498Y-58051881D01*
X200798904Y-58051881D01*
X200595005Y-57949931D01*
X200576697Y-57942925D01*
X200573113Y-57942670D01*
X200569793Y-57941295D01*
X200550284Y-57939374D01*
X199978856Y-57939374D01*
X199959347Y-57941295D01*
X199956026Y-57942670D01*
X199952443Y-57942925D01*
X199934134Y-57949931D01*
X199648420Y-58092789D01*
X199640023Y-58098074D01*
X199637583Y-58099085D01*
X199634837Y-58101338D01*
X199631829Y-58103232D01*
X199630096Y-58105229D01*
X199622430Y-58111522D01*
X199479573Y-58254378D01*
X199473281Y-58262044D01*
X199471284Y-58263777D01*
X199469388Y-58266788D01*
X199467137Y-58269532D01*
X199466127Y-58271969D01*
X199460841Y-58280368D01*
X199317984Y-58566082D01*
X199310978Y-58584390D01*
X199310723Y-58587973D01*
X199309348Y-58591294D01*
X199307427Y-58610803D01*
X198078856Y-58610803D01*
X198078856Y-58039374D01*
X198076935Y-58019865D01*
X198062003Y-57983817D01*
X198034413Y-57956227D01*
X197998365Y-57941295D01*
X197978856Y-57939374D01*
X197264570Y-57939374D01*
X197254696Y-57940346D01*
X197252063Y-57940159D01*
X197248599Y-57940946D01*
X197245061Y-57941295D01*
X197242618Y-57942306D01*
X197232947Y-57944506D01*
X196804376Y-58087364D01*
X196786476Y-58095355D01*
X196783759Y-58097710D01*
X196780442Y-58099085D01*
X196765288Y-58111521D01*
X196479573Y-58397235D01*
X196473279Y-58404903D01*
X196471284Y-58406634D01*
X196469390Y-58409641D01*
X196467137Y-58412388D01*
X196466126Y-58414828D01*
X196460841Y-58423225D01*
X196317984Y-58708939D01*
X196317438Y-58710365D01*
X196317008Y-58710946D01*
X196314086Y-58719122D01*
X196310978Y-58727247D01*
X196310926Y-58727969D01*
X196310413Y-58729407D01*
X196167556Y-59300835D01*
X196167055Y-59304216D01*
X196166491Y-59305580D01*
X196165767Y-59312930D01*
X196164688Y-59320228D01*
X196164905Y-59321686D01*
X196164570Y-59325089D01*
X195078856Y-59325089D01*
X195078856Y-58039374D01*
X195076935Y-58019865D01*
X195062003Y-57983817D01*
X195034413Y-57956227D01*
X194998365Y-57941295D01*
X194959347Y-57941295D01*
X194923299Y-57956227D01*
X194895709Y-57983817D01*
X194880777Y-58019865D01*
X194878856Y-58039374D01*
X193202462Y-58039374D01*
X193023577Y-57949931D01*
X193005269Y-57942925D01*
X193001685Y-57942670D01*
X192998365Y-57941295D01*
X192978856Y-57939374D01*
X192407428Y-57939374D01*
X192387919Y-57941295D01*
X192384598Y-57942670D01*
X192381015Y-57942925D01*
X192362706Y-57949931D01*
X192076992Y-58092789D01*
X192068597Y-58098072D01*
X192066156Y-58099084D01*
X192063408Y-58101338D01*
X192060401Y-58103232D01*
X192058669Y-58105228D01*
X192051003Y-58111521D01*
X191765288Y-58397235D01*
X191752852Y-58412389D01*
X191750007Y-58419255D01*
X191745580Y-58425231D01*
X191738985Y-58443692D01*
X191596128Y-59015120D01*
X191595627Y-59018501D01*
X191595063Y-59019865D01*
X191594339Y-59027215D01*
X191593260Y-59034513D01*
X191593477Y-59035971D01*
X191593142Y-59039374D01*
X185831238Y-59039374D01*
X185831238Y-54495257D01*
X186164571Y-54495257D01*
X186164571Y-54923828D01*
X186164906Y-54927230D01*
X186164689Y-54928689D01*
X186165768Y-54935986D01*
X186166492Y-54943337D01*
X186167056Y-54944700D01*
X186167557Y-54948082D01*
X186310414Y-55519510D01*
X186310927Y-55520947D01*
X186310979Y-55521670D01*
X186314087Y-55529794D01*
X186317009Y-55537971D01*
X186317439Y-55538551D01*
X186317985Y-55539978D01*
X186460842Y-55825692D01*
X186466127Y-55834088D01*
X186467138Y-55836529D01*
X186469391Y-55839275D01*
X186471285Y-55842283D01*
X186473280Y-55844013D01*
X186479574Y-55851682D01*
X186765289Y-56137396D01*
X186780443Y-56149832D01*
X186783760Y-56151206D01*
X186786477Y-56153562D01*
X186804377Y-56161553D01*
X187232948Y-56304410D01*
X187242620Y-56306609D01*
X187245062Y-56307621D01*
X187248599Y-56307969D01*
X187252063Y-56308757D01*
X187254697Y-56308569D01*
X187264571Y-56309542D01*
X187978857Y-56309542D01*
X187998366Y-56307621D01*
X188034414Y-56292689D01*
X188062004Y-56265099D01*
X188076936Y-56229051D01*
X188078857Y-56209542D01*
X188078857Y-55209542D01*
X189164571Y-55209542D01*
X189164571Y-55638114D01*
X189166492Y-55657623D01*
X189167867Y-55660943D01*
X189168122Y-55664527D01*
X189175128Y-55682835D01*
X189317985Y-55968549D01*
X189323271Y-55976947D01*
X189324281Y-55979385D01*
X189326532Y-55982128D01*
X189328428Y-55985140D01*
X189330425Y-55986872D01*
X189336717Y-55994539D01*
X189479574Y-56137395D01*
X189487240Y-56143687D01*
X189488973Y-56145685D01*
X189491981Y-56147578D01*
X189494727Y-56149832D01*
X189497167Y-56150842D01*
X189505564Y-56156128D01*
X189791279Y-56298985D01*
X189809587Y-56305991D01*
X189813170Y-56306245D01*
X189816491Y-56307621D01*
X189836000Y-56309542D01*
X190978857Y-56309542D01*
X190998366Y-56307621D01*
X191034414Y-56292689D01*
X191062004Y-56265099D01*
X191076936Y-56229051D01*
X191078857Y-56209542D01*
X191078857Y-53222049D01*
X191879642Y-53222049D01*
X191883989Y-53241165D01*
X192883989Y-56241165D01*
X192891980Y-56259065D01*
X192896663Y-56264464D01*
X192899858Y-56270854D01*
X192909330Y-56279069D01*
X192917546Y-56288542D01*
X192923935Y-56291736D01*
X192929334Y-56296419D01*
X192941230Y-56300384D01*
X192952444Y-56305991D01*
X192959571Y-56306497D01*
X192966350Y-56308757D01*
X192978852Y-56307868D01*
X192991365Y-56308758D01*
X192998146Y-56306497D01*
X193005270Y-56305991D01*
X193016479Y-56300385D01*
X193028380Y-56296419D01*
X193033779Y-56291735D01*
X193040169Y-56288541D01*
X193048384Y-56279069D01*
X193057856Y-56270854D01*
X193061050Y-56264464D01*
X193065734Y-56259065D01*
X193073725Y-56241165D01*
X193750932Y-54209542D01*
X194736000Y-54209542D01*
X194736000Y-55209542D01*
X194736335Y-55212944D01*
X194736118Y-55214403D01*
X194737197Y-55221700D01*
X194737921Y-55229051D01*
X194738485Y-55230414D01*
X194738986Y-55233796D01*
X194881843Y-55805224D01*
X194888438Y-55823685D01*
X194892864Y-55829659D01*
X194895710Y-55836528D01*
X194908146Y-55851682D01*
X195193861Y-56137396D01*
X195201527Y-56143688D01*
X195203259Y-56145685D01*
X195206266Y-56147578D01*
X195209014Y-56149833D01*
X195211455Y-56150844D01*
X195219850Y-56156128D01*
X195505565Y-56298985D01*
X195523873Y-56305991D01*
X195527456Y-56306245D01*
X195530777Y-56307621D01*
X195550286Y-56309542D01*
X196121714Y-56309542D01*
X196141223Y-56307621D01*
X196144543Y-56306245D01*
X196148127Y-56305991D01*
X196166435Y-56298985D01*
X196452150Y-56156128D01*
X196460548Y-56150841D01*
X196462986Y-56149832D01*
X196465729Y-56147580D01*
X196468741Y-56145685D01*
X196470473Y-56143687D01*
X196478140Y-56137396D01*
X196763854Y-55851681D01*
X196776291Y-55836528D01*
X196779136Y-55829657D01*
X196783562Y-55823685D01*
X196790157Y-55805225D01*
X196933014Y-55233796D01*
X196933514Y-55230414D01*
X196934079Y-55229051D01*
X196934802Y-55221702D01*
X196935882Y-55214404D01*
X196935664Y-55212945D01*
X196936000Y-55209542D01*
X196936000Y-54209542D01*
X196935664Y-54206139D01*
X196935882Y-54204681D01*
X196934802Y-54197384D01*
X196934079Y-54190033D01*
X196933513Y-54188668D01*
X196933014Y-54185289D01*
X196831935Y-53780971D01*
X197878857Y-53780971D01*
X197878857Y-54209542D01*
X197880778Y-54229051D01*
X197882153Y-54232371D01*
X197882408Y-54235955D01*
X197889414Y-54254263D01*
X198032271Y-54539978D01*
X198037557Y-54548376D01*
X198038567Y-54550814D01*
X198040818Y-54553557D01*
X198042714Y-54556569D01*
X198044711Y-54558301D01*
X198051003Y-54565968D01*
X198193860Y-54708824D01*
X198209013Y-54721261D01*
X198212332Y-54722635D01*
X198215048Y-54724991D01*
X198232948Y-54732982D01*
X198432487Y-54799495D01*
X198362708Y-54834385D01*
X198354309Y-54839671D01*
X198351872Y-54840681D01*
X198349129Y-54842932D01*
X198346117Y-54844828D01*
X198344383Y-54846826D01*
X198336719Y-54853117D01*
X198193861Y-54995974D01*
X198187568Y-55003640D01*
X198185571Y-55005373D01*
X198183677Y-55008381D01*
X198181424Y-55011127D01*
X198180413Y-55013567D01*
X198175128Y-55021964D01*
X198032271Y-55307679D01*
X198025265Y-55325987D01*
X198025010Y-55329570D01*
X198023635Y-55332891D01*
X198021714Y-55352400D01*
X198021714Y-55638114D01*
X198023635Y-55657623D01*
X198025010Y-55660943D01*
X198025265Y-55664527D01*
X198032271Y-55682835D01*
X198175128Y-55968549D01*
X198180413Y-55976945D01*
X198181424Y-55979386D01*
X198183677Y-55982131D01*
X198185571Y-55985140D01*
X198187568Y-55986872D01*
X198193861Y-55994539D01*
X198336719Y-56137396D01*
X198344383Y-56143686D01*
X198346117Y-56145685D01*
X198349129Y-56147580D01*
X198351872Y-56149832D01*
X198354309Y-56150841D01*
X198362708Y-56156128D01*
X198648422Y-56298985D01*
X198666730Y-56305991D01*
X198670313Y-56306245D01*
X198673634Y-56307621D01*
X198693143Y-56309542D01*
X199693143Y-56309542D01*
X199712652Y-56307621D01*
X199748700Y-56292689D01*
X199776290Y-56265099D01*
X199791222Y-56229051D01*
X199793143Y-56209542D01*
X199793143Y-53209542D01*
X199791222Y-53190033D01*
X202880777Y-53190033D01*
X202880777Y-53229051D01*
X202895709Y-53265099D01*
X202923299Y-53292689D01*
X202959347Y-53307621D01*
X202978856Y-53309542D01*
X204307428Y-53309542D01*
X204307428Y-56209542D01*
X204309349Y-56229051D01*
X204324281Y-56265099D01*
X204351871Y-56292689D01*
X204387919Y-56307621D01*
X204426937Y-56307621D01*
X204462985Y-56292689D01*
X204490575Y-56265099D01*
X204505507Y-56229051D01*
X204507428Y-56209542D01*
X204507428Y-54209542D01*
X205593142Y-54209542D01*
X205593142Y-55209542D01*
X205593477Y-55212944D01*
X205593260Y-55214403D01*
X205594339Y-55221700D01*
X205595063Y-55229051D01*
X205595627Y-55230414D01*
X205596128Y-55233796D01*
X205738985Y-55805224D01*
X205745580Y-55823685D01*
X205750006Y-55829659D01*
X205752852Y-55836528D01*
X205765288Y-55851682D01*
X206051003Y-56137396D01*
X206058669Y-56143688D01*
X206060401Y-56145685D01*
X206063408Y-56147578D01*
X206066156Y-56149833D01*
X206068597Y-56150844D01*
X206076992Y-56156128D01*
X206362707Y-56298985D01*
X206381015Y-56305991D01*
X206384598Y-56306245D01*
X206387919Y-56307621D01*
X206407428Y-56309542D01*
X206978856Y-56309542D01*
X206998365Y-56307621D01*
X207001685Y-56306245D01*
X207005269Y-56305991D01*
X207023577Y-56298985D01*
X207309292Y-56156128D01*
X207317690Y-56150841D01*
X207320128Y-56149832D01*
X207322871Y-56147580D01*
X207325883Y-56145685D01*
X207327615Y-56143687D01*
X207335282Y-56137396D01*
X207620996Y-55851681D01*
X207633433Y-55836528D01*
X207636278Y-55829657D01*
X207640704Y-55823685D01*
X207647299Y-55805225D01*
X207790156Y-55233796D01*
X207790656Y-55230414D01*
X207791221Y-55229051D01*
X207791944Y-55221702D01*
X207793024Y-55214404D01*
X207792806Y-55212945D01*
X207793142Y-55209542D01*
X208735999Y-55209542D01*
X208735999Y-55638114D01*
X208737920Y-55657623D01*
X208739295Y-55660943D01*
X208739550Y-55664527D01*
X208746556Y-55682835D01*
X208889413Y-55968549D01*
X208894699Y-55976947D01*
X208895709Y-55979385D01*
X208897960Y-55982128D01*
X208899856Y-55985140D01*
X208901853Y-55986872D01*
X208908145Y-55994539D01*
X209051002Y-56137395D01*
X209058668Y-56143687D01*
X209060401Y-56145685D01*
X209063409Y-56147578D01*
X209066155Y-56149832D01*
X209068595Y-56150842D01*
X209076992Y-56156128D01*
X209362707Y-56298985D01*
X209381015Y-56305991D01*
X209384598Y-56306245D01*
X209387919Y-56307621D01*
X209407428Y-56309542D01*
X210550285Y-56309542D01*
X210569794Y-56307621D01*
X210605842Y-56292689D01*
X210633432Y-56265099D01*
X210648364Y-56229051D01*
X210650285Y-56209542D01*
X210650285Y-56190033D01*
X211452206Y-56190033D01*
X211452206Y-56229051D01*
X211467138Y-56265099D01*
X211494728Y-56292689D01*
X211530776Y-56307621D01*
X211550285Y-56309542D01*
X213264570Y-56309542D01*
X213284079Y-56307621D01*
X213320127Y-56292689D01*
X213347717Y-56265099D01*
X213362649Y-56229051D01*
X213362649Y-56190033D01*
X213347717Y-56153985D01*
X213320127Y-56126395D01*
X213284079Y-56111463D01*
X213264570Y-56109542D01*
X212507427Y-56109542D01*
X212507427Y-53209542D01*
X214164570Y-53209542D01*
X214164570Y-56209542D01*
X214166491Y-56229051D01*
X214181423Y-56265099D01*
X214209013Y-56292689D01*
X214245061Y-56307621D01*
X214284079Y-56307621D01*
X214320127Y-56292689D01*
X214347717Y-56265099D01*
X214362649Y-56229051D01*
X214364570Y-56209542D01*
X214364570Y-53586098D01*
X215892031Y-56259155D01*
X215894950Y-56263267D01*
X215895709Y-56265099D01*
X215897575Y-56266965D01*
X215903379Y-56275141D01*
X215913893Y-56283283D01*
X215923299Y-56292689D01*
X215929189Y-56295128D01*
X215934228Y-56299031D01*
X215947053Y-56302528D01*
X215959347Y-56307621D01*
X215965726Y-56307621D01*
X215971871Y-56309297D01*
X215985057Y-56307621D01*
X215998365Y-56307621D01*
X216004256Y-56305180D01*
X216010578Y-56304377D01*
X216022123Y-56297779D01*
X216034413Y-56292689D01*
X216038920Y-56288181D01*
X216044455Y-56285019D01*
X216052596Y-56274505D01*
X216062003Y-56265099D01*
X216064443Y-56259206D01*
X216068345Y-56254169D01*
X216071843Y-56241343D01*
X216076935Y-56229051D01*
X216077917Y-56219071D01*
X216078612Y-56216526D01*
X216078361Y-56214559D01*
X216078856Y-56209542D01*
X216078856Y-54209542D01*
X217164570Y-54209542D01*
X217164570Y-55209542D01*
X217164905Y-55212944D01*
X217164688Y-55214403D01*
X217165767Y-55221700D01*
X217166491Y-55229051D01*
X217167055Y-55230414D01*
X217167556Y-55233796D01*
X217310413Y-55805224D01*
X217317008Y-55823685D01*
X217321434Y-55829659D01*
X217324280Y-55836528D01*
X217336716Y-55851682D01*
X217622431Y-56137396D01*
X217630097Y-56143688D01*
X217631829Y-56145685D01*
X217634836Y-56147578D01*
X217637584Y-56149833D01*
X217640025Y-56150844D01*
X217648420Y-56156128D01*
X217934135Y-56298985D01*
X217952443Y-56305991D01*
X217956026Y-56306245D01*
X217959347Y-56307621D01*
X217978856Y-56309542D01*
X218550284Y-56309542D01*
X218569793Y-56307621D01*
X218573113Y-56306245D01*
X218576697Y-56305991D01*
X218595005Y-56298985D01*
X218880720Y-56156128D01*
X218889118Y-56150841D01*
X218891556Y-56149832D01*
X218894299Y-56147580D01*
X218897311Y-56145685D01*
X218899043Y-56143687D01*
X218906710Y-56137396D01*
X219192424Y-55851681D01*
X219204861Y-55836528D01*
X219207706Y-55829657D01*
X219212132Y-55823685D01*
X219218727Y-55805225D01*
X219361584Y-55233796D01*
X219362084Y-55230414D01*
X219362649Y-55229051D01*
X219363372Y-55221702D01*
X219364452Y-55214404D01*
X219364234Y-55212945D01*
X219364570Y-55209542D01*
X219364570Y-54209542D01*
X219364234Y-54206139D01*
X219364452Y-54204681D01*
X219363372Y-54197384D01*
X219362649Y-54190033D01*
X219362083Y-54188668D01*
X219361584Y-54185289D01*
X219218727Y-53613860D01*
X219212132Y-53595400D01*
X219207706Y-53589427D01*
X219204861Y-53582557D01*
X219192424Y-53567404D01*
X219100768Y-53475748D01*
X220309348Y-53475748D01*
X220309348Y-53514766D01*
X220324280Y-53550814D01*
X220351870Y-53578404D01*
X220387918Y-53593336D01*
X220426936Y-53593336D01*
X220462984Y-53578404D01*
X220478138Y-53565968D01*
X220604302Y-53439802D01*
X220995083Y-53309542D01*
X221248343Y-53309542D01*
X221639121Y-53439802D01*
X221896671Y-53697351D01*
X222027361Y-53958732D01*
X222164570Y-54507566D01*
X222164570Y-54911519D01*
X222027361Y-55460353D01*
X221896671Y-55721733D01*
X221639121Y-55979282D01*
X221248343Y-56109542D01*
X220995082Y-56109542D01*
X220604302Y-55979282D01*
X220478138Y-55853117D01*
X220462984Y-55840681D01*
X220426936Y-55825749D01*
X220387918Y-55825749D01*
X220351870Y-55840681D01*
X220324280Y-55868271D01*
X220309348Y-55904319D01*
X220309348Y-55943337D01*
X220324280Y-55979385D01*
X220336716Y-55994539D01*
X220479573Y-56137395D01*
X220494726Y-56149832D01*
X220498045Y-56151206D01*
X220500761Y-56153562D01*
X220518661Y-56161553D01*
X220947233Y-56304410D01*
X220956905Y-56306609D01*
X220959347Y-56307621D01*
X220962884Y-56307969D01*
X220966348Y-56308757D01*
X220968982Y-56308569D01*
X220978856Y-56309542D01*
X221264570Y-56309542D01*
X221274443Y-56308569D01*
X221277077Y-56308757D01*
X221280540Y-56307969D01*
X221284079Y-56307621D01*
X221286521Y-56306609D01*
X221296193Y-56304410D01*
X221724763Y-56161553D01*
X221742664Y-56153562D01*
X221745379Y-56151206D01*
X221748698Y-56149832D01*
X221763852Y-56137396D01*
X222049566Y-55851682D01*
X222055858Y-55844015D01*
X222057856Y-55842283D01*
X222059749Y-55839274D01*
X222062003Y-55836529D01*
X222063013Y-55834088D01*
X222068299Y-55825692D01*
X222211156Y-55539978D01*
X222211701Y-55538551D01*
X222212132Y-55537971D01*
X222215055Y-55529788D01*
X222218162Y-55521670D01*
X222218213Y-55520949D01*
X222218727Y-55519511D01*
X222361584Y-54948082D01*
X222362084Y-54944700D01*
X222362649Y-54943337D01*
X222363372Y-54935988D01*
X222364452Y-54928690D01*
X222364234Y-54927231D01*
X222364570Y-54923828D01*
X222364570Y-54495257D01*
X222364234Y-54491853D01*
X222364452Y-54490395D01*
X222363372Y-54483096D01*
X222362649Y-54475748D01*
X222362084Y-54474384D01*
X222361584Y-54471003D01*
X222218727Y-53899574D01*
X222218213Y-53898135D01*
X222218162Y-53897415D01*
X222215055Y-53889296D01*
X222212132Y-53881114D01*
X222211701Y-53880533D01*
X222211156Y-53879107D01*
X222068299Y-53593393D01*
X222063013Y-53584996D01*
X222062003Y-53582556D01*
X222059749Y-53579810D01*
X222057856Y-53576802D01*
X222055858Y-53575069D01*
X222049566Y-53567403D01*
X221763852Y-53281689D01*
X221748698Y-53269253D01*
X221745379Y-53267878D01*
X221742665Y-53265524D01*
X221724764Y-53257532D01*
X221522268Y-53190033D01*
X225309347Y-53190033D01*
X225309347Y-53229051D01*
X225324279Y-53265099D01*
X225351869Y-53292689D01*
X225387917Y-53307621D01*
X225407426Y-53309542D01*
X226735998Y-53309542D01*
X226735998Y-56209542D01*
X226737919Y-56229051D01*
X226752851Y-56265099D01*
X226780441Y-56292689D01*
X226816489Y-56307621D01*
X226855507Y-56307621D01*
X226891555Y-56292689D01*
X226919145Y-56265099D01*
X226934077Y-56229051D01*
X226935998Y-56209542D01*
X226935998Y-53209542D01*
X226934077Y-53190033D01*
X228023633Y-53190033D01*
X228023633Y-53229051D01*
X228038565Y-53265099D01*
X228066155Y-53292689D01*
X228102203Y-53307621D01*
X228121712Y-53309542D01*
X229450284Y-53309542D01*
X229450284Y-54680971D01*
X228550284Y-54680971D01*
X228530775Y-54682892D01*
X228494727Y-54697824D01*
X228467137Y-54725414D01*
X228452205Y-54761462D01*
X228452205Y-54800480D01*
X228467137Y-54836528D01*
X228494727Y-54864118D01*
X228530775Y-54879050D01*
X228550284Y-54880971D01*
X229450284Y-54880971D01*
X229450284Y-56109542D01*
X228121712Y-56109542D01*
X228102203Y-56111463D01*
X228066155Y-56126395D01*
X228038565Y-56153985D01*
X228023633Y-56190033D01*
X228023633Y-56229051D01*
X228038565Y-56265099D01*
X228066155Y-56292689D01*
X228102203Y-56307621D01*
X228121712Y-56309542D01*
X229550284Y-56309542D01*
X229569793Y-56307621D01*
X229605841Y-56292689D01*
X229633431Y-56265099D01*
X229648363Y-56229051D01*
X229650284Y-56209542D01*
X229650284Y-56197035D01*
X230451069Y-56197035D01*
X230453835Y-56235955D01*
X230471285Y-56270854D01*
X230500761Y-56296419D01*
X230537777Y-56308757D01*
X230576697Y-56305991D01*
X230611596Y-56288541D01*
X230637161Y-56259065D01*
X230645152Y-56241165D01*
X231550283Y-53525768D01*
X232455416Y-56241165D01*
X232463407Y-56259065D01*
X232488973Y-56288542D01*
X232523871Y-56305991D01*
X232562792Y-56308758D01*
X232599807Y-56296419D01*
X232629283Y-56270854D01*
X232646733Y-56235955D01*
X232649499Y-56197035D01*
X232645152Y-56177920D01*
X231649190Y-53190033D01*
X233309348Y-53190033D01*
X233309348Y-53229051D01*
X233324280Y-53265099D01*
X233351870Y-53292689D01*
X233387918Y-53307621D01*
X233407427Y-53309542D01*
X234735999Y-53309542D01*
X234735999Y-54680971D01*
X233835999Y-54680971D01*
X233816490Y-54682892D01*
X233780442Y-54697824D01*
X233752852Y-54725414D01*
X233737920Y-54761462D01*
X233737920Y-54800480D01*
X233752852Y-54836528D01*
X233780442Y-54864118D01*
X233816490Y-54879050D01*
X233835999Y-54880971D01*
X234735999Y-54880971D01*
X234735999Y-56109542D01*
X233407427Y-56109542D01*
X233387918Y-56111463D01*
X233351870Y-56126395D01*
X233324280Y-56153985D01*
X233309348Y-56190033D01*
X233309348Y-56229051D01*
X233324280Y-56265099D01*
X233351870Y-56292689D01*
X233387918Y-56307621D01*
X233407427Y-56309542D01*
X234835999Y-56309542D01*
X234855508Y-56307621D01*
X234891556Y-56292689D01*
X234919146Y-56265099D01*
X234934078Y-56229051D01*
X234935999Y-56209542D01*
X234935999Y-53209542D01*
X234934078Y-53190033D01*
X235737919Y-53190033D01*
X235737919Y-53229051D01*
X235752851Y-53265099D01*
X235780441Y-53292689D01*
X235816489Y-53307621D01*
X235835998Y-53309542D01*
X237164570Y-53309542D01*
X237164570Y-56209542D01*
X237166491Y-56229051D01*
X237181423Y-56265099D01*
X237209013Y-56292689D01*
X237245061Y-56307621D01*
X237284079Y-56307621D01*
X237320127Y-56292689D01*
X237347717Y-56265099D01*
X237362649Y-56229051D01*
X237364570Y-56209542D01*
X237364570Y-53209542D01*
X237362649Y-53190033D01*
X237347717Y-53153985D01*
X237320127Y-53126395D01*
X237284079Y-53111463D01*
X237264570Y-53109542D01*
X235835998Y-53109542D01*
X235816489Y-53111463D01*
X235780441Y-53126395D01*
X235752851Y-53153985D01*
X235737919Y-53190033D01*
X234934078Y-53190033D01*
X234919146Y-53153985D01*
X234891556Y-53126395D01*
X234855508Y-53111463D01*
X234835999Y-53109542D01*
X233407427Y-53109542D01*
X233387918Y-53111463D01*
X233351870Y-53126395D01*
X233324280Y-53153985D01*
X233309348Y-53190033D01*
X231649190Y-53190033D01*
X231645152Y-53177919D01*
X231637161Y-53160019D01*
X231632477Y-53154619D01*
X231629283Y-53148230D01*
X231619811Y-53140014D01*
X231611596Y-53130543D01*
X231605206Y-53127348D01*
X231599807Y-53122665D01*
X231587906Y-53118698D01*
X231576697Y-53113093D01*
X231569573Y-53112586D01*
X231562792Y-53110326D01*
X231550279Y-53111215D01*
X231537777Y-53110327D01*
X231530998Y-53112586D01*
X231523871Y-53113093D01*
X231512657Y-53118699D01*
X231500761Y-53122665D01*
X231495362Y-53127347D01*
X231488973Y-53130542D01*
X231480757Y-53140014D01*
X231471285Y-53148230D01*
X231468090Y-53154619D01*
X231463407Y-53160019D01*
X231455416Y-53177919D01*
X230455416Y-56177919D01*
X230451069Y-56197035D01*
X229650284Y-56197035D01*
X229650284Y-53209542D01*
X229648363Y-53190033D01*
X229633431Y-53153985D01*
X229605841Y-53126395D01*
X229569793Y-53111463D01*
X229550284Y-53109542D01*
X228121712Y-53109542D01*
X228102203Y-53111463D01*
X228066155Y-53126395D01*
X228038565Y-53153985D01*
X228023633Y-53190033D01*
X226934077Y-53190033D01*
X226919145Y-53153985D01*
X226891555Y-53126395D01*
X226855507Y-53111463D01*
X226835998Y-53109542D01*
X225407426Y-53109542D01*
X225387917Y-53111463D01*
X225351869Y-53126395D01*
X225324279Y-53153985D01*
X225309347Y-53190033D01*
X221522268Y-53190033D01*
X221296193Y-53114674D01*
X221286520Y-53112474D01*
X221284079Y-53111463D01*
X221280541Y-53111114D01*
X221277078Y-53110327D01*
X221274443Y-53110514D01*
X221264570Y-53109542D01*
X220978856Y-53109542D01*
X220968982Y-53110514D01*
X220966349Y-53110327D01*
X220962885Y-53111114D01*
X220959347Y-53111463D01*
X220956904Y-53112474D01*
X220947233Y-53114674D01*
X220518661Y-53257532D01*
X220500761Y-53265523D01*
X220498045Y-53267877D01*
X220494726Y-53269253D01*
X220479573Y-53281690D01*
X220336716Y-53424546D01*
X220324280Y-53439700D01*
X220309348Y-53475748D01*
X219100768Y-53475748D01*
X218906710Y-53281689D01*
X218899039Y-53275394D01*
X218897310Y-53273400D01*
X218894302Y-53271506D01*
X218891556Y-53269253D01*
X218889116Y-53268242D01*
X218880720Y-53262957D01*
X218595005Y-53120099D01*
X218576697Y-53113093D01*
X218573113Y-53112838D01*
X218569793Y-53111463D01*
X218550284Y-53109542D01*
X217978856Y-53109542D01*
X217959347Y-53111463D01*
X217956026Y-53112838D01*
X217952443Y-53113093D01*
X217934134Y-53120099D01*
X217648420Y-53262957D01*
X217640025Y-53268240D01*
X217637584Y-53269252D01*
X217634836Y-53271506D01*
X217631829Y-53273400D01*
X217630097Y-53275396D01*
X217622431Y-53281689D01*
X217336716Y-53567403D01*
X217324280Y-53582557D01*
X217321435Y-53589423D01*
X217317008Y-53595399D01*
X217310413Y-53613860D01*
X217167556Y-54185288D01*
X217167055Y-54188669D01*
X217166491Y-54190033D01*
X217165767Y-54197383D01*
X217164688Y-54204681D01*
X217164905Y-54206139D01*
X217164570Y-54209542D01*
X216078856Y-54209542D01*
X216078856Y-53209542D01*
X216076935Y-53190033D01*
X216062003Y-53153985D01*
X216034413Y-53126395D01*
X215998365Y-53111463D01*
X215959347Y-53111463D01*
X215923299Y-53126395D01*
X215895709Y-53153985D01*
X215880777Y-53190033D01*
X215878856Y-53209542D01*
X215878856Y-55832986D01*
X214351394Y-53159928D01*
X214348475Y-53155817D01*
X214347717Y-53153985D01*
X214345850Y-53152118D01*
X214340047Y-53143943D01*
X214329532Y-53135800D01*
X214320127Y-53126395D01*
X214314236Y-53123955D01*
X214309198Y-53120053D01*
X214296369Y-53116554D01*
X214284079Y-53111463D01*
X214277704Y-53111463D01*
X214271555Y-53109786D01*
X214258362Y-53111463D01*
X214245061Y-53111463D01*
X214239172Y-53113902D01*
X214232848Y-53114706D01*
X214221298Y-53121306D01*
X214209013Y-53126395D01*
X214204505Y-53130902D01*
X214198971Y-53134065D01*
X214190828Y-53144579D01*
X214181423Y-53153985D01*
X214178983Y-53159875D01*
X214175081Y-53164914D01*
X214171582Y-53177742D01*
X214166491Y-53190033D01*
X214165508Y-53200010D01*
X214164814Y-53202557D01*
X214165064Y-53204524D01*
X214164570Y-53209542D01*
X212507427Y-53209542D01*
X212505506Y-53190033D01*
X212490574Y-53153985D01*
X212462984Y-53126395D01*
X212426936Y-53111463D01*
X212387918Y-53111463D01*
X212351870Y-53126395D01*
X212324280Y-53153985D01*
X212309348Y-53190033D01*
X212307427Y-53209542D01*
X212307427Y-56109542D01*
X211550285Y-56109542D01*
X211530776Y-56111463D01*
X211494728Y-56126395D01*
X211467138Y-56153985D01*
X211452206Y-56190033D01*
X210650285Y-56190033D01*
X210650285Y-53209542D01*
X210648364Y-53190033D01*
X210633432Y-53153985D01*
X210605842Y-53126395D01*
X210569794Y-53111463D01*
X210530776Y-53111463D01*
X210494728Y-53126395D01*
X210467138Y-53153985D01*
X210452206Y-53190033D01*
X210450285Y-53209542D01*
X210450285Y-54538114D01*
X209888064Y-54538114D01*
X208917922Y-53152196D01*
X208905161Y-53137315D01*
X208872256Y-53116346D01*
X208833831Y-53109565D01*
X208795737Y-53118005D01*
X208763772Y-53140380D01*
X208742803Y-53173285D01*
X208736022Y-53211710D01*
X208744462Y-53249804D01*
X208754076Y-53266888D01*
X209643934Y-54538114D01*
X209407428Y-54538114D01*
X209387919Y-54540035D01*
X209384598Y-54541410D01*
X209381015Y-54541665D01*
X209362707Y-54548671D01*
X209076992Y-54691528D01*
X209068595Y-54696813D01*
X209066155Y-54697824D01*
X209063409Y-54700077D01*
X209060401Y-54701971D01*
X209058668Y-54703968D01*
X209051002Y-54710261D01*
X208908145Y-54853117D01*
X208901853Y-54860783D01*
X208899856Y-54862516D01*
X208897960Y-54865527D01*
X208895709Y-54868271D01*
X208894699Y-54870708D01*
X208889413Y-54879107D01*
X208746556Y-55164821D01*
X208739550Y-55183129D01*
X208739295Y-55186712D01*
X208737920Y-55190033D01*
X208735999Y-55209542D01*
X207793142Y-55209542D01*
X207793142Y-54209542D01*
X207792806Y-54206139D01*
X207793024Y-54204681D01*
X207791944Y-54197384D01*
X207791221Y-54190033D01*
X207790655Y-54188668D01*
X207790156Y-54185289D01*
X207647299Y-53613860D01*
X207640704Y-53595400D01*
X207636278Y-53589427D01*
X207633433Y-53582557D01*
X207620996Y-53567404D01*
X207335282Y-53281689D01*
X207327611Y-53275394D01*
X207325882Y-53273400D01*
X207322874Y-53271506D01*
X207320128Y-53269253D01*
X207317688Y-53268242D01*
X207309292Y-53262957D01*
X207023577Y-53120099D01*
X207005269Y-53113093D01*
X207001685Y-53112838D01*
X206998365Y-53111463D01*
X206978856Y-53109542D01*
X206407428Y-53109542D01*
X206387919Y-53111463D01*
X206384598Y-53112838D01*
X206381015Y-53113093D01*
X206362706Y-53120099D01*
X206076992Y-53262957D01*
X206068597Y-53268240D01*
X206066156Y-53269252D01*
X206063408Y-53271506D01*
X206060401Y-53273400D01*
X206058669Y-53275396D01*
X206051003Y-53281689D01*
X205765288Y-53567403D01*
X205752852Y-53582557D01*
X205750007Y-53589423D01*
X205745580Y-53595399D01*
X205738985Y-53613860D01*
X205596128Y-54185288D01*
X205595627Y-54188669D01*
X205595063Y-54190033D01*
X205594339Y-54197383D01*
X205593260Y-54204681D01*
X205593477Y-54206139D01*
X205593142Y-54209542D01*
X204507428Y-54209542D01*
X204507428Y-53209542D01*
X204505507Y-53190033D01*
X204490575Y-53153985D01*
X204462985Y-53126395D01*
X204426937Y-53111463D01*
X204407428Y-53109542D01*
X202978856Y-53109542D01*
X202959347Y-53111463D01*
X202923299Y-53126395D01*
X202895709Y-53153985D01*
X202880777Y-53190033D01*
X199791222Y-53190033D01*
X199776290Y-53153985D01*
X199748700Y-53126395D01*
X199712652Y-53111463D01*
X199693143Y-53109542D01*
X198550286Y-53109542D01*
X198530777Y-53111463D01*
X198527456Y-53112838D01*
X198523873Y-53113093D01*
X198505564Y-53120099D01*
X198219850Y-53262957D01*
X198211453Y-53268242D01*
X198209013Y-53269253D01*
X198206267Y-53271506D01*
X198203259Y-53273400D01*
X198201526Y-53275397D01*
X198193860Y-53281690D01*
X198051003Y-53424546D01*
X198044711Y-53432212D01*
X198042714Y-53433945D01*
X198040818Y-53436956D01*
X198038567Y-53439700D01*
X198037557Y-53442137D01*
X198032271Y-53450536D01*
X197889414Y-53736250D01*
X197882408Y-53754558D01*
X197882153Y-53758141D01*
X197880778Y-53761462D01*
X197878857Y-53780971D01*
X196831935Y-53780971D01*
X196790157Y-53613860D01*
X196783562Y-53595400D01*
X196779136Y-53589427D01*
X196776291Y-53582557D01*
X196763854Y-53567404D01*
X196478140Y-53281689D01*
X196470469Y-53275394D01*
X196468740Y-53273400D01*
X196465732Y-53271506D01*
X196462986Y-53269253D01*
X196460546Y-53268242D01*
X196452150Y-53262957D01*
X196166435Y-53120099D01*
X196148127Y-53113093D01*
X196144543Y-53112838D01*
X196141223Y-53111463D01*
X196121714Y-53109542D01*
X195550286Y-53109542D01*
X195530777Y-53111463D01*
X195527456Y-53112838D01*
X195523873Y-53113093D01*
X195505564Y-53120099D01*
X195219850Y-53262957D01*
X195211455Y-53268240D01*
X195209014Y-53269252D01*
X195206266Y-53271506D01*
X195203259Y-53273400D01*
X195201527Y-53275396D01*
X195193861Y-53281689D01*
X194908146Y-53567403D01*
X194895710Y-53582557D01*
X194892865Y-53589423D01*
X194888438Y-53595399D01*
X194881843Y-53613860D01*
X194738986Y-54185288D01*
X194738485Y-54188669D01*
X194737921Y-54190033D01*
X194737197Y-54197383D01*
X194736118Y-54204681D01*
X194736335Y-54206139D01*
X194736000Y-54209542D01*
X193750932Y-54209542D01*
X194073725Y-53241164D01*
X194078072Y-53222049D01*
X194075306Y-53183129D01*
X194057856Y-53148230D01*
X194028380Y-53122665D01*
X193991365Y-53110326D01*
X193952444Y-53113093D01*
X193917546Y-53130542D01*
X193891980Y-53160019D01*
X193883989Y-53177919D01*
X193621067Y-53966685D01*
X192336647Y-53966685D01*
X192073725Y-53177919D01*
X192065734Y-53160019D01*
X192040169Y-53130543D01*
X192005270Y-53113093D01*
X191966350Y-53110327D01*
X191929334Y-53122665D01*
X191899858Y-53148230D01*
X191882408Y-53183129D01*
X191879642Y-53222049D01*
X191078857Y-53222049D01*
X191078857Y-53209542D01*
X191076936Y-53190033D01*
X191062004Y-53153985D01*
X191034414Y-53126395D01*
X190998366Y-53111463D01*
X190959348Y-53111463D01*
X190923300Y-53126395D01*
X190895710Y-53153985D01*
X190880778Y-53190033D01*
X190878857Y-53209542D01*
X190878857Y-54538114D01*
X190316636Y-54538114D01*
X189346494Y-53152196D01*
X189333733Y-53137315D01*
X189300828Y-53116346D01*
X189262403Y-53109565D01*
X189224309Y-53118005D01*
X189192344Y-53140380D01*
X189171375Y-53173285D01*
X189164594Y-53211710D01*
X189173034Y-53249804D01*
X189182648Y-53266888D01*
X190072506Y-54538114D01*
X189836000Y-54538114D01*
X189816491Y-54540035D01*
X189813170Y-54541410D01*
X189809587Y-54541665D01*
X189791279Y-54548671D01*
X189505564Y-54691528D01*
X189497167Y-54696813D01*
X189494727Y-54697824D01*
X189491981Y-54700077D01*
X189488973Y-54701971D01*
X189487240Y-54703968D01*
X189479574Y-54710261D01*
X189336717Y-54853117D01*
X189330425Y-54860783D01*
X189328428Y-54862516D01*
X189326532Y-54865527D01*
X189324281Y-54868271D01*
X189323271Y-54870708D01*
X189317985Y-54879107D01*
X189175128Y-55164821D01*
X189168122Y-55183129D01*
X189167867Y-55186712D01*
X189166492Y-55190033D01*
X189164571Y-55209542D01*
X188078857Y-55209542D01*
X188078857Y-53209542D01*
X188076936Y-53190033D01*
X188062004Y-53153985D01*
X188034414Y-53126395D01*
X187998366Y-53111463D01*
X187978857Y-53109542D01*
X187264571Y-53109542D01*
X187254697Y-53110514D01*
X187252064Y-53110327D01*
X187248600Y-53111114D01*
X187245062Y-53111463D01*
X187242619Y-53112474D01*
X187232948Y-53114674D01*
X186804377Y-53257532D01*
X186786477Y-53265523D01*
X186783760Y-53267878D01*
X186780443Y-53269253D01*
X186765289Y-53281689D01*
X186479574Y-53567403D01*
X186473280Y-53575071D01*
X186471285Y-53576802D01*
X186469391Y-53579809D01*
X186467138Y-53582556D01*
X186466127Y-53584996D01*
X186460842Y-53593393D01*
X186317985Y-53879107D01*
X186317439Y-53880533D01*
X186317009Y-53881114D01*
X186314087Y-53889290D01*
X186310979Y-53897415D01*
X186310927Y-53898137D01*
X186310414Y-53899575D01*
X186167557Y-54471003D01*
X186167056Y-54474384D01*
X186166492Y-54475748D01*
X186165768Y-54483098D01*
X186164689Y-54490396D01*
X186164906Y-54491854D01*
X186164571Y-54495257D01*
X185831238Y-54495257D01*
X185831238Y-52776209D01*
X237697903Y-52776209D01*
X237697903Y-61472707D01*
G37*
D10*
G36*
X94739178Y-61651709D02*
G01*
X94288306Y-61651709D01*
X94288306Y-62980390D01*
X94707671Y-62870969D01*
X94707671Y-63238311D01*
X94285497Y-63339916D01*
X93896174Y-63339916D01*
X93896174Y-61651709D01*
X93445302Y-61651709D01*
X93445302Y-61300000D01*
X94739178Y-61300000D01*
X94739178Y-61651709D01*
G37*
G36*
X92571994Y-61272243D02*
G01*
X92697223Y-61304043D01*
X92802289Y-61354259D01*
X92890519Y-61422521D01*
X92964021Y-61510170D01*
X93018009Y-61607106D01*
X93063893Y-61730432D01*
X93100001Y-61885446D01*
X93123933Y-62078180D01*
X93132671Y-62315317D01*
X93122583Y-62536183D01*
X93094525Y-62720983D01*
X93051285Y-62874867D01*
X92994869Y-63002414D01*
X92926408Y-63107519D01*
X92838328Y-63200139D01*
X92735099Y-63272527D01*
X92614520Y-63325746D01*
X92473347Y-63359304D01*
X92307496Y-63371179D01*
X92211364Y-63365916D01*
X92110148Y-63349685D01*
X92008776Y-63323121D01*
X91904496Y-63285205D01*
X91904496Y-62917864D01*
X92012677Y-62973683D01*
X92111491Y-63011653D01*
X92210138Y-63035345D01*
X92302001Y-63042916D01*
X92409364Y-63033076D01*
X92498360Y-63005369D01*
X92572630Y-62961087D01*
X92634660Y-62899546D01*
X92681538Y-62826121D01*
X92718142Y-62733892D01*
X92743146Y-62618891D01*
X92754217Y-62476395D01*
X92681138Y-62553231D01*
X92590330Y-62608164D01*
X92484897Y-62640530D01*
X92355368Y-62652128D01*
X92219457Y-62640155D01*
X92105750Y-62606360D01*
X92009988Y-62552342D01*
X91929164Y-62477494D01*
X91866594Y-62387021D01*
X91819737Y-62277135D01*
X91789645Y-62143920D01*
X91778833Y-61982536D01*
X91780426Y-61959699D01*
X92161317Y-61959699D01*
X92170373Y-62077984D01*
X92194757Y-62167873D01*
X92231659Y-62235572D01*
X92284786Y-62288594D01*
X92350592Y-62320449D01*
X92433159Y-62331681D01*
X92515733Y-62320487D01*
X92581049Y-62288837D01*
X92633316Y-62236304D01*
X92669404Y-62169076D01*
X92693378Y-62079028D01*
X92702315Y-61959699D01*
X92693402Y-61841386D01*
X92669452Y-61751770D01*
X92633316Y-61684560D01*
X92581049Y-61632027D01*
X92515733Y-61600378D01*
X92433159Y-61589183D01*
X92350533Y-61600347D01*
X92284729Y-61631982D01*
X92231659Y-61684560D01*
X92194777Y-61751877D01*
X92170384Y-61841497D01*
X92161317Y-61959699D01*
X91780426Y-61959699D01*
X91790865Y-61810046D01*
X91824455Y-61666987D01*
X91877007Y-61548273D01*
X91947605Y-61449842D01*
X92037910Y-61369020D01*
X92144707Y-61310535D01*
X92271299Y-61273900D01*
X92422290Y-61260921D01*
X92571994Y-61272243D01*
G37*
G36*
X88493522Y-61378157D02*
G01*
X88598074Y-61326996D01*
X88710776Y-61290230D01*
X88829621Y-61268451D01*
X88960759Y-61260921D01*
X89102992Y-61270386D01*
X89226925Y-61297365D01*
X89335336Y-61340437D01*
X89430504Y-61399171D01*
X89514091Y-61474145D01*
X89598274Y-61585849D01*
X89660271Y-61718549D01*
X89699539Y-61876368D01*
X89713515Y-62064602D01*
X89699450Y-62253468D01*
X89659926Y-62411807D01*
X89597517Y-62544941D01*
X89512748Y-62657013D01*
X89428597Y-62732313D01*
X89332987Y-62791261D01*
X89224278Y-62834457D01*
X89100221Y-62861492D01*
X88958072Y-62870969D01*
X88836689Y-62863718D01*
X88721034Y-62842271D01*
X88608344Y-62806321D01*
X88493522Y-62753733D01*
X88493522Y-62386392D01*
X88585584Y-62453311D01*
X88685497Y-62502285D01*
X88791906Y-62532604D01*
X88902018Y-62542707D01*
X88998207Y-62534175D01*
X89078485Y-62510114D01*
X89145924Y-62471669D01*
X89202681Y-62418387D01*
X89258489Y-62329636D01*
X89294586Y-62214222D01*
X89307828Y-62064602D01*
X89294555Y-61914990D01*
X89258436Y-61800083D01*
X89202681Y-61712159D01*
X89146011Y-61659517D01*
X89078607Y-61621476D01*
X88998299Y-61597640D01*
X88902018Y-61589183D01*
X88788710Y-61599027D01*
X88684764Y-61627896D01*
X88587579Y-61675926D01*
X88493522Y-61745498D01*
X88493522Y-61378157D01*
G37*
G36*
X86795546Y-62296144D02*
G01*
X86795546Y-61300000D01*
X87193173Y-61300000D01*
X87193173Y-62234473D01*
X87199762Y-62345170D01*
X87216597Y-62421141D01*
X87240312Y-62471388D01*
X87276990Y-62510045D01*
X87326717Y-62533985D01*
X87393941Y-62542707D01*
X87461581Y-62531946D01*
X87517510Y-62500552D01*
X87564789Y-62446109D01*
X87597050Y-62378823D01*
X87618349Y-62291284D01*
X87626216Y-62178297D01*
X87626216Y-61300000D01*
X88023843Y-61300000D01*
X88023843Y-63425889D01*
X87626216Y-63425889D01*
X87626216Y-62604256D01*
X87590574Y-62683932D01*
X87542497Y-62748912D01*
X87481380Y-62801238D01*
X87410137Y-62839266D01*
X87328496Y-62862758D01*
X87234084Y-62870969D01*
X87127488Y-62861038D01*
X87039614Y-62833121D01*
X86966691Y-62788530D01*
X86906188Y-62726500D01*
X86861246Y-62652814D01*
X86826626Y-62559523D01*
X86803863Y-62442329D01*
X86795546Y-62296144D01*
G37*
G36*
X86024363Y-61270626D02*
G01*
X86133129Y-61297858D01*
X86224229Y-61340792D01*
X86300588Y-61399040D01*
X86362553Y-61472421D01*
X86407645Y-61559202D01*
X86435984Y-61662051D01*
X86446034Y-61784577D01*
X86433908Y-61916488D01*
X86400100Y-62023268D01*
X86346572Y-62110070D01*
X86272622Y-62180373D01*
X86184610Y-62231578D01*
X86070090Y-62271659D01*
X85922860Y-62298374D01*
X85735654Y-62308234D01*
X85458316Y-62308234D01*
X85458316Y-62373569D01*
X85466636Y-62435845D01*
X85490036Y-62484614D01*
X85528658Y-62523168D01*
X85578272Y-62549640D01*
X85645562Y-62567338D01*
X85735654Y-62573970D01*
X85877369Y-62564567D01*
X86013725Y-62536601D01*
X86147924Y-62489625D01*
X86294482Y-62417655D01*
X86294482Y-62761549D01*
X86160412Y-62810407D01*
X86025326Y-62844225D01*
X85886277Y-62864126D01*
X85735654Y-62870969D01*
X85543928Y-62858993D01*
X85398912Y-62826988D01*
X85290825Y-62779449D01*
X85211753Y-62718684D01*
X85152102Y-62639189D01*
X85104890Y-62528237D01*
X85072788Y-62376820D01*
X85060689Y-62173900D01*
X85060689Y-61991573D01*
X85458316Y-61991573D01*
X85458316Y-62019050D01*
X85618173Y-62019050D01*
X85768532Y-62010744D01*
X85868170Y-61989872D01*
X85931048Y-61961165D01*
X85978714Y-61915819D01*
X86008728Y-61851950D01*
X86019831Y-61762962D01*
X86012493Y-61695778D01*
X85991833Y-61641183D01*
X85958404Y-61596388D01*
X85913858Y-61562720D01*
X85859254Y-61541886D01*
X85791708Y-61534473D01*
X85692160Y-61548385D01*
X85611743Y-61588135D01*
X85545755Y-61654884D01*
X85499588Y-61739700D01*
X85469415Y-61849690D01*
X85458316Y-61991573D01*
X85060689Y-61991573D01*
X85060689Y-61300000D01*
X85458316Y-61300000D01*
X85458316Y-61468405D01*
X85540768Y-61380358D01*
X85644185Y-61314776D01*
X85762037Y-61274668D01*
X85894168Y-61260921D01*
X86024363Y-61270626D01*
G37*
G36*
X83426949Y-62293946D02*
G01*
X83426949Y-61300000D01*
X83824576Y-61300000D01*
X83824576Y-62232397D01*
X83831167Y-62343854D01*
X83848008Y-62420334D01*
X83871715Y-62470900D01*
X83908433Y-62509850D01*
X83958164Y-62533938D01*
X84025344Y-62542707D01*
X84092093Y-62531966D01*
X84147817Y-62500481D01*
X84195459Y-62445621D01*
X84228113Y-62377961D01*
X84249661Y-62289946D01*
X84257618Y-62176343D01*
X84257618Y-61300000D01*
X84655246Y-61300000D01*
X84655246Y-62831891D01*
X84257618Y-62831891D01*
X84257618Y-62601692D01*
X84221936Y-62682196D01*
X84173845Y-62747769D01*
X84112782Y-62800505D01*
X84041492Y-62838952D01*
X83959855Y-62862680D01*
X83865487Y-62870969D01*
X83758926Y-62861011D01*
X83671062Y-62833013D01*
X83598126Y-62788277D01*
X83537591Y-62726011D01*
X83492660Y-62652045D01*
X83458038Y-62558386D01*
X83435269Y-62440721D01*
X83426949Y-62293946D01*
G37*
G36*
X81742650Y-62293946D02*
G01*
X81742650Y-61300000D01*
X82140277Y-61300000D01*
X82140277Y-62232397D01*
X82146869Y-62343854D01*
X82163709Y-62420334D01*
X82187416Y-62470900D01*
X82224134Y-62509850D01*
X82273866Y-62533938D01*
X82341045Y-62542707D01*
X82407794Y-62531966D01*
X82463518Y-62500481D01*
X82511160Y-62445621D01*
X82543814Y-62377961D01*
X82565362Y-62289946D01*
X82573320Y-62176343D01*
X82573320Y-61300000D01*
X82970947Y-61300000D01*
X82970947Y-62831891D01*
X82573320Y-62831891D01*
X82573320Y-62601692D01*
X82537637Y-62682196D01*
X82489546Y-62747769D01*
X82428484Y-62800505D01*
X82357193Y-62838952D01*
X82275556Y-62862680D01*
X82181188Y-62870969D01*
X82074627Y-62861011D01*
X81986763Y-62833013D01*
X81913827Y-62788277D01*
X81853292Y-62726011D01*
X81808362Y-62652045D01*
X81773739Y-62558386D01*
X81750970Y-62440721D01*
X81742650Y-62293946D01*
G37*
G36*
X80762516Y-61270392D02*
G01*
X80896282Y-61297123D01*
X81010855Y-61339243D01*
X81109068Y-61395826D01*
X81193103Y-61466939D01*
X81262963Y-61551927D01*
X81318676Y-61651257D01*
X81360213Y-61767143D01*
X81386597Y-61902424D01*
X81395947Y-62060450D01*
X81382308Y-62247690D01*
X81343887Y-62405769D01*
X81283115Y-62539648D01*
X81200553Y-62653227D01*
X81118079Y-62730549D01*
X81025301Y-62790603D01*
X80920777Y-62834294D01*
X80802443Y-62861478D01*
X80667737Y-62870969D01*
X80499382Y-62857025D01*
X80358433Y-62817739D01*
X80239817Y-62755251D01*
X80139806Y-62669347D01*
X80060869Y-62563846D01*
X80002407Y-62437071D01*
X79965173Y-62284759D01*
X79961769Y-62237892D01*
X80354862Y-62237892D01*
X80366331Y-62340417D01*
X80394128Y-62418287D01*
X80436195Y-62477128D01*
X80493596Y-62520526D01*
X80568948Y-62548210D01*
X80667737Y-62558339D01*
X80756216Y-62548369D01*
X80828304Y-62520220D01*
X80887678Y-62474441D01*
X80933122Y-62413879D01*
X80965867Y-62336024D01*
X80984642Y-62236549D01*
X80354862Y-62237892D01*
X79961769Y-62237892D01*
X79951861Y-62101482D01*
X79951861Y-61940893D01*
X80988794Y-61940893D01*
X80975006Y-61824849D01*
X80938921Y-61736974D01*
X80882304Y-61670516D01*
X80806910Y-61623743D01*
X80704820Y-61592879D01*
X80567964Y-61581367D01*
X80431182Y-61591172D01*
X80296122Y-61620690D01*
X80162588Y-61670007D01*
X80015975Y-61745498D01*
X80015975Y-61378157D01*
X80157076Y-61326747D01*
X80300152Y-61290230D01*
X80447437Y-61268406D01*
X80606188Y-61260921D01*
X80762516Y-61270392D01*
G37*
G36*
X79308526Y-61936618D02*
G01*
X79308526Y-63121074D01*
X79714335Y-63121074D01*
X79714335Y-63425889D01*
X78908212Y-63425889D01*
X78908212Y-61936618D01*
X78900399Y-61816078D01*
X78880462Y-61734008D01*
X78852280Y-61680163D01*
X78809268Y-61640183D01*
X78748126Y-61614441D01*
X78662381Y-61604815D01*
X78342667Y-61604815D01*
X78342667Y-61300000D01*
X78774367Y-61300000D01*
X78918157Y-61310952D01*
X79030338Y-61340793D01*
X79117388Y-61386477D01*
X79184206Y-61447156D01*
X79233534Y-61522660D01*
X79272467Y-61624576D01*
X79298723Y-61759812D01*
X79308526Y-61936618D01*
G37*
G36*
X76233752Y-62988206D02*
G01*
X76233752Y-63339916D01*
X75019133Y-63339916D01*
X75019133Y-62988206D01*
X75424942Y-62988206D01*
X75424942Y-61651709D01*
X75019133Y-61651709D01*
X75019133Y-61300000D01*
X76233752Y-61300000D01*
X76233752Y-61651709D01*
X75827943Y-61651709D01*
X75827943Y-62988206D01*
X76233752Y-62988206D01*
G37*
G36*
X74621872Y-63339916D02*
G01*
X74188707Y-63339916D01*
X73620354Y-61857484D01*
X73620354Y-63339916D01*
X73265103Y-63339916D01*
X73265103Y-61300000D01*
X73695581Y-61300000D01*
X74266621Y-62782431D01*
X74266621Y-61300000D01*
X74621872Y-61300000D01*
X74621872Y-63339916D01*
G37*
G36*
X72878833Y-63339916D02*
G01*
X72325501Y-63339916D01*
X72107276Y-63328103D01*
X71939641Y-63296416D01*
X71812721Y-63249388D01*
X71718191Y-63189829D01*
X71641142Y-63108665D01*
X71583759Y-63004380D01*
X71546609Y-62871578D01*
X71533055Y-62702930D01*
X71952420Y-62702930D01*
X71962998Y-62810734D01*
X71990725Y-62885595D01*
X72032409Y-62936427D01*
X72090226Y-62970497D01*
X72179027Y-62994449D01*
X72310480Y-63003838D01*
X72475710Y-63003838D01*
X72475710Y-62402023D01*
X72310480Y-62402023D01*
X72179014Y-62411396D01*
X72090215Y-62435308D01*
X72032409Y-62469312D01*
X71990720Y-62520217D01*
X71962995Y-62595126D01*
X71952420Y-62702930D01*
X71533055Y-62702930D01*
X71546607Y-62534286D01*
X71583754Y-62401459D01*
X71641138Y-62297130D01*
X71718191Y-62215910D01*
X71812712Y-62156403D01*
X71939628Y-62109413D01*
X72107266Y-62077750D01*
X72325501Y-62065945D01*
X72475710Y-62065945D01*
X72475710Y-61300000D01*
X72878833Y-61300000D01*
X72878833Y-63339916D01*
G37*
G36*
X71270982Y-62055198D02*
G01*
X71270982Y-63339916D01*
X70867981Y-63339916D01*
X70867981Y-61954204D01*
X70858411Y-61855176D01*
X70831940Y-61776895D01*
X70790190Y-61714846D01*
X70733065Y-61667631D01*
X70662443Y-61638592D01*
X70574279Y-61628262D01*
X70486037Y-61638598D01*
X70415423Y-61667641D01*
X70358369Y-61714846D01*
X70316548Y-61776904D01*
X70290038Y-61855186D01*
X70280455Y-61954204D01*
X70280455Y-63339916D01*
X69877454Y-63339916D01*
X69877454Y-62055198D01*
X69890175Y-61841747D01*
X69924572Y-61675496D01*
X69976265Y-61547366D01*
X70042807Y-61449842D01*
X70111646Y-61385779D01*
X70196062Y-61334188D01*
X70298783Y-61295176D01*
X70423391Y-61269987D01*
X70574157Y-61260921D01*
X70757576Y-61274845D01*
X70902361Y-61312974D01*
X71016223Y-61371643D01*
X71105019Y-61449842D01*
X71171831Y-61547410D01*
X71223709Y-61675559D01*
X71258222Y-61841797D01*
X71270982Y-62055198D01*
G37*
G36*
X68687748Y-61300000D02*
G01*
X69090748Y-61300000D01*
X69090748Y-62988206D01*
X69608543Y-62988206D01*
X69608543Y-63339916D01*
X68169953Y-63339916D01*
X68169953Y-62988206D01*
X68687748Y-62988206D01*
X68687748Y-61300000D01*
G37*
D12*
X249090952Y-63259580D02*
X249043333Y-63307200D01*
X249043333Y-63307200D02*
X248900476Y-63354819D01*
X248900476Y-63354819D02*
X248805238Y-63354819D01*
X248805238Y-63354819D02*
X248662381Y-63307200D01*
X248662381Y-63307200D02*
X248567143Y-63211961D01*
X248567143Y-63211961D02*
X248519524Y-63116723D01*
X248519524Y-63116723D02*
X248471905Y-62926247D01*
X248471905Y-62926247D02*
X248471905Y-62783390D01*
X248471905Y-62783390D02*
X248519524Y-62592914D01*
X248519524Y-62592914D02*
X248567143Y-62497676D01*
X248567143Y-62497676D02*
X248662381Y-62402438D01*
X248662381Y-62402438D02*
X248805238Y-62354819D01*
X248805238Y-62354819D02*
X248900476Y-62354819D01*
X248900476Y-62354819D02*
X249043333Y-62402438D01*
X249043333Y-62402438D02*
X249090952Y-62450057D01*
X250043333Y-63354819D02*
X249471905Y-63354819D01*
X249757619Y-63354819D02*
X249757619Y-62354819D01*
X249757619Y-62354819D02*
X249662381Y-62497676D01*
X249662381Y-62497676D02*
X249567143Y-62592914D01*
X249567143Y-62592914D02*
X249471905Y-62640533D01*
X250424286Y-62450057D02*
X250471905Y-62402438D01*
X250471905Y-62402438D02*
X250567143Y-62354819D01*
X250567143Y-62354819D02*
X250805238Y-62354819D01*
X250805238Y-62354819D02*
X250900476Y-62402438D01*
X250900476Y-62402438D02*
X250948095Y-62450057D01*
X250948095Y-62450057D02*
X250995714Y-62545295D01*
X250995714Y-62545295D02*
X250995714Y-62640533D01*
X250995714Y-62640533D02*
X250948095Y-62783390D01*
X250948095Y-62783390D02*
X250376667Y-63354819D01*
X250376667Y-63354819D02*
X250995714Y-63354819D01*
X251614762Y-62354819D02*
X251710000Y-62354819D01*
X251710000Y-62354819D02*
X251805238Y-62402438D01*
X251805238Y-62402438D02*
X251852857Y-62450057D01*
X251852857Y-62450057D02*
X251900476Y-62545295D01*
X251900476Y-62545295D02*
X251948095Y-62735771D01*
X251948095Y-62735771D02*
X251948095Y-62973866D01*
X251948095Y-62973866D02*
X251900476Y-63164342D01*
X251900476Y-63164342D02*
X251852857Y-63259580D01*
X251852857Y-63259580D02*
X251805238Y-63307200D01*
X251805238Y-63307200D02*
X251710000Y-63354819D01*
X251710000Y-63354819D02*
X251614762Y-63354819D01*
X251614762Y-63354819D02*
X251519524Y-63307200D01*
X251519524Y-63307200D02*
X251471905Y-63259580D01*
X251471905Y-63259580D02*
X251424286Y-63164342D01*
X251424286Y-63164342D02*
X251376667Y-62973866D01*
X251376667Y-62973866D02*
X251376667Y-62735771D01*
X251376667Y-62735771D02*
X251424286Y-62545295D01*
X251424286Y-62545295D02*
X251471905Y-62450057D01*
X251471905Y-62450057D02*
X251519524Y-62402438D01*
X251519524Y-62402438D02*
X251614762Y-62354819D01*
X340359580Y-56388047D02*
X340407200Y-56435666D01*
X340407200Y-56435666D02*
X340454819Y-56578523D01*
X340454819Y-56578523D02*
X340454819Y-56673761D01*
X340454819Y-56673761D02*
X340407200Y-56816618D01*
X340407200Y-56816618D02*
X340311961Y-56911856D01*
X340311961Y-56911856D02*
X340216723Y-56959475D01*
X340216723Y-56959475D02*
X340026247Y-57007094D01*
X340026247Y-57007094D02*
X339883390Y-57007094D01*
X339883390Y-57007094D02*
X339692914Y-56959475D01*
X339692914Y-56959475D02*
X339597676Y-56911856D01*
X339597676Y-56911856D02*
X339502438Y-56816618D01*
X339502438Y-56816618D02*
X339454819Y-56673761D01*
X339454819Y-56673761D02*
X339454819Y-56578523D01*
X339454819Y-56578523D02*
X339502438Y-56435666D01*
X339502438Y-56435666D02*
X339550057Y-56388047D01*
X340454819Y-55435666D02*
X340454819Y-56007094D01*
X340454819Y-55721380D02*
X339454819Y-55721380D01*
X339454819Y-55721380D02*
X339597676Y-55816618D01*
X339597676Y-55816618D02*
X339692914Y-55911856D01*
X339692914Y-55911856D02*
X339740533Y-56007094D01*
X340454819Y-54483285D02*
X340454819Y-55054713D01*
X340454819Y-54768999D02*
X339454819Y-54768999D01*
X339454819Y-54768999D02*
X339597676Y-54864237D01*
X339597676Y-54864237D02*
X339692914Y-54959475D01*
X339692914Y-54959475D02*
X339740533Y-55054713D01*
X340454819Y-54007094D02*
X340454819Y-53816618D01*
X340454819Y-53816618D02*
X340407200Y-53721380D01*
X340407200Y-53721380D02*
X340359580Y-53673761D01*
X340359580Y-53673761D02*
X340216723Y-53578523D01*
X340216723Y-53578523D02*
X340026247Y-53530904D01*
X340026247Y-53530904D02*
X339645295Y-53530904D01*
X339645295Y-53530904D02*
X339550057Y-53578523D01*
X339550057Y-53578523D02*
X339502438Y-53626142D01*
X339502438Y-53626142D02*
X339454819Y-53721380D01*
X339454819Y-53721380D02*
X339454819Y-53911856D01*
X339454819Y-53911856D02*
X339502438Y-54007094D01*
X339502438Y-54007094D02*
X339550057Y-54054713D01*
X339550057Y-54054713D02*
X339645295Y-54102332D01*
X339645295Y-54102332D02*
X339883390Y-54102332D01*
X339883390Y-54102332D02*
X339978628Y-54054713D01*
X339978628Y-54054713D02*
X340026247Y-54007094D01*
X340026247Y-54007094D02*
X340073866Y-53911856D01*
X340073866Y-53911856D02*
X340073866Y-53721380D01*
X340073866Y-53721380D02*
X340026247Y-53626142D01*
X340026247Y-53626142D02*
X339978628Y-53578523D01*
X339978628Y-53578523D02*
X339883390Y-53530904D01*
X185660952Y-63699580D02*
X185613333Y-63747200D01*
X185613333Y-63747200D02*
X185470476Y-63794819D01*
X185470476Y-63794819D02*
X185375238Y-63794819D01*
X185375238Y-63794819D02*
X185232381Y-63747200D01*
X185232381Y-63747200D02*
X185137143Y-63651961D01*
X185137143Y-63651961D02*
X185089524Y-63556723D01*
X185089524Y-63556723D02*
X185041905Y-63366247D01*
X185041905Y-63366247D02*
X185041905Y-63223390D01*
X185041905Y-63223390D02*
X185089524Y-63032914D01*
X185089524Y-63032914D02*
X185137143Y-62937676D01*
X185137143Y-62937676D02*
X185232381Y-62842438D01*
X185232381Y-62842438D02*
X185375238Y-62794819D01*
X185375238Y-62794819D02*
X185470476Y-62794819D01*
X185470476Y-62794819D02*
X185613333Y-62842438D01*
X185613333Y-62842438D02*
X185660952Y-62890057D01*
X186613333Y-63794819D02*
X186041905Y-63794819D01*
X186327619Y-63794819D02*
X186327619Y-62794819D01*
X186327619Y-62794819D02*
X186232381Y-62937676D01*
X186232381Y-62937676D02*
X186137143Y-63032914D01*
X186137143Y-63032914D02*
X186041905Y-63080533D01*
X187565714Y-63794819D02*
X186994286Y-63794819D01*
X187280000Y-63794819D02*
X187280000Y-62794819D01*
X187280000Y-62794819D02*
X187184762Y-62937676D01*
X187184762Y-62937676D02*
X187089524Y-63032914D01*
X187089524Y-63032914D02*
X186994286Y-63080533D01*
X188137143Y-63223390D02*
X188041905Y-63175771D01*
X188041905Y-63175771D02*
X187994286Y-63128152D01*
X187994286Y-63128152D02*
X187946667Y-63032914D01*
X187946667Y-63032914D02*
X187946667Y-62985295D01*
X187946667Y-62985295D02*
X187994286Y-62890057D01*
X187994286Y-62890057D02*
X188041905Y-62842438D01*
X188041905Y-62842438D02*
X188137143Y-62794819D01*
X188137143Y-62794819D02*
X188327619Y-62794819D01*
X188327619Y-62794819D02*
X188422857Y-62842438D01*
X188422857Y-62842438D02*
X188470476Y-62890057D01*
X188470476Y-62890057D02*
X188518095Y-62985295D01*
X188518095Y-62985295D02*
X188518095Y-63032914D01*
X188518095Y-63032914D02*
X188470476Y-63128152D01*
X188470476Y-63128152D02*
X188422857Y-63175771D01*
X188422857Y-63175771D02*
X188327619Y-63223390D01*
X188327619Y-63223390D02*
X188137143Y-63223390D01*
X188137143Y-63223390D02*
X188041905Y-63271009D01*
X188041905Y-63271009D02*
X187994286Y-63318628D01*
X187994286Y-63318628D02*
X187946667Y-63413866D01*
X187946667Y-63413866D02*
X187946667Y-63604342D01*
X187946667Y-63604342D02*
X187994286Y-63699580D01*
X187994286Y-63699580D02*
X188041905Y-63747200D01*
X188041905Y-63747200D02*
X188137143Y-63794819D01*
X188137143Y-63794819D02*
X188327619Y-63794819D01*
X188327619Y-63794819D02*
X188422857Y-63747200D01*
X188422857Y-63747200D02*
X188470476Y-63699580D01*
X188470476Y-63699580D02*
X188518095Y-63604342D01*
X188518095Y-63604342D02*
X188518095Y-63413866D01*
X188518095Y-63413866D02*
X188470476Y-63318628D01*
X188470476Y-63318628D02*
X188422857Y-63271009D01*
X188422857Y-63271009D02*
X188327619Y-63223390D01*
X97554580Y-62714047D02*
X97602200Y-62761666D01*
X97602200Y-62761666D02*
X97649819Y-62904523D01*
X97649819Y-62904523D02*
X97649819Y-62999761D01*
X97649819Y-62999761D02*
X97602200Y-63142618D01*
X97602200Y-63142618D02*
X97506961Y-63237856D01*
X97506961Y-63237856D02*
X97411723Y-63285475D01*
X97411723Y-63285475D02*
X97221247Y-63333094D01*
X97221247Y-63333094D02*
X97078390Y-63333094D01*
X97078390Y-63333094D02*
X96887914Y-63285475D01*
X96887914Y-63285475D02*
X96792676Y-63237856D01*
X96792676Y-63237856D02*
X96697438Y-63142618D01*
X96697438Y-63142618D02*
X96649819Y-62999761D01*
X96649819Y-62999761D02*
X96649819Y-62904523D01*
X96649819Y-62904523D02*
X96697438Y-62761666D01*
X96697438Y-62761666D02*
X96745057Y-62714047D01*
X97649819Y-61761666D02*
X97649819Y-62333094D01*
X97649819Y-62047380D02*
X96649819Y-62047380D01*
X96649819Y-62047380D02*
X96792676Y-62142618D01*
X96792676Y-62142618D02*
X96887914Y-62237856D01*
X96887914Y-62237856D02*
X96935533Y-62333094D01*
X97649819Y-60809285D02*
X97649819Y-61380713D01*
X97649819Y-61094999D02*
X96649819Y-61094999D01*
X96649819Y-61094999D02*
X96792676Y-61190237D01*
X96792676Y-61190237D02*
X96887914Y-61285475D01*
X96887914Y-61285475D02*
X96935533Y-61380713D01*
X96649819Y-60475951D02*
X96649819Y-59809285D01*
X96649819Y-59809285D02*
X97649819Y-60237856D01*
X358900552Y-73266780D02*
X358852933Y-73314400D01*
X358852933Y-73314400D02*
X358710076Y-73362019D01*
X358710076Y-73362019D02*
X358614838Y-73362019D01*
X358614838Y-73362019D02*
X358471981Y-73314400D01*
X358471981Y-73314400D02*
X358376743Y-73219161D01*
X358376743Y-73219161D02*
X358329124Y-73123923D01*
X358329124Y-73123923D02*
X358281505Y-72933447D01*
X358281505Y-72933447D02*
X358281505Y-72790590D01*
X358281505Y-72790590D02*
X358329124Y-72600114D01*
X358329124Y-72600114D02*
X358376743Y-72504876D01*
X358376743Y-72504876D02*
X358471981Y-72409638D01*
X358471981Y-72409638D02*
X358614838Y-72362019D01*
X358614838Y-72362019D02*
X358710076Y-72362019D01*
X358710076Y-72362019D02*
X358852933Y-72409638D01*
X358852933Y-72409638D02*
X358900552Y-72457257D01*
X359852933Y-73362019D02*
X359281505Y-73362019D01*
X359567219Y-73362019D02*
X359567219Y-72362019D01*
X359567219Y-72362019D02*
X359471981Y-72504876D01*
X359471981Y-72504876D02*
X359376743Y-72600114D01*
X359376743Y-72600114D02*
X359281505Y-72647733D01*
X360805314Y-73362019D02*
X360233886Y-73362019D01*
X360519600Y-73362019D02*
X360519600Y-72362019D01*
X360519600Y-72362019D02*
X360424362Y-72504876D01*
X360424362Y-72504876D02*
X360329124Y-72600114D01*
X360329124Y-72600114D02*
X360233886Y-72647733D01*
X361662457Y-72362019D02*
X361471981Y-72362019D01*
X361471981Y-72362019D02*
X361376743Y-72409638D01*
X361376743Y-72409638D02*
X361329124Y-72457257D01*
X361329124Y-72457257D02*
X361233886Y-72600114D01*
X361233886Y-72600114D02*
X361186267Y-72790590D01*
X361186267Y-72790590D02*
X361186267Y-73171542D01*
X361186267Y-73171542D02*
X361233886Y-73266780D01*
X361233886Y-73266780D02*
X361281505Y-73314400D01*
X361281505Y-73314400D02*
X361376743Y-73362019D01*
X361376743Y-73362019D02*
X361567219Y-73362019D01*
X361567219Y-73362019D02*
X361662457Y-73314400D01*
X361662457Y-73314400D02*
X361710076Y-73266780D01*
X361710076Y-73266780D02*
X361757695Y-73171542D01*
X361757695Y-73171542D02*
X361757695Y-72933447D01*
X361757695Y-72933447D02*
X361710076Y-72838209D01*
X361710076Y-72838209D02*
X361662457Y-72790590D01*
X361662457Y-72790590D02*
X361567219Y-72742971D01*
X361567219Y-72742971D02*
X361376743Y-72742971D01*
X361376743Y-72742971D02*
X361281505Y-72790590D01*
X361281505Y-72790590D02*
X361233886Y-72838209D01*
X361233886Y-72838209D02*
X361186267Y-72933447D01*
X338885352Y-73266780D02*
X338837733Y-73314400D01*
X338837733Y-73314400D02*
X338694876Y-73362019D01*
X338694876Y-73362019D02*
X338599638Y-73362019D01*
X338599638Y-73362019D02*
X338456781Y-73314400D01*
X338456781Y-73314400D02*
X338361543Y-73219161D01*
X338361543Y-73219161D02*
X338313924Y-73123923D01*
X338313924Y-73123923D02*
X338266305Y-72933447D01*
X338266305Y-72933447D02*
X338266305Y-72790590D01*
X338266305Y-72790590D02*
X338313924Y-72600114D01*
X338313924Y-72600114D02*
X338361543Y-72504876D01*
X338361543Y-72504876D02*
X338456781Y-72409638D01*
X338456781Y-72409638D02*
X338599638Y-72362019D01*
X338599638Y-72362019D02*
X338694876Y-72362019D01*
X338694876Y-72362019D02*
X338837733Y-72409638D01*
X338837733Y-72409638D02*
X338885352Y-72457257D01*
X339837733Y-73362019D02*
X339266305Y-73362019D01*
X339552019Y-73362019D02*
X339552019Y-72362019D01*
X339552019Y-72362019D02*
X339456781Y-72504876D01*
X339456781Y-72504876D02*
X339361543Y-72600114D01*
X339361543Y-72600114D02*
X339266305Y-72647733D01*
X340790114Y-73362019D02*
X340218686Y-73362019D01*
X340504400Y-73362019D02*
X340504400Y-72362019D01*
X340504400Y-72362019D02*
X340409162Y-72504876D01*
X340409162Y-72504876D02*
X340313924Y-72600114D01*
X340313924Y-72600114D02*
X340218686Y-72647733D01*
X341694876Y-72362019D02*
X341218686Y-72362019D01*
X341218686Y-72362019D02*
X341171067Y-72838209D01*
X341171067Y-72838209D02*
X341218686Y-72790590D01*
X341218686Y-72790590D02*
X341313924Y-72742971D01*
X341313924Y-72742971D02*
X341552019Y-72742971D01*
X341552019Y-72742971D02*
X341647257Y-72790590D01*
X341647257Y-72790590D02*
X341694876Y-72838209D01*
X341694876Y-72838209D02*
X341742495Y-72933447D01*
X341742495Y-72933447D02*
X341742495Y-73171542D01*
X341742495Y-73171542D02*
X341694876Y-73266780D01*
X341694876Y-73266780D02*
X341647257Y-73314400D01*
X341647257Y-73314400D02*
X341552019Y-73362019D01*
X341552019Y-73362019D02*
X341313924Y-73362019D01*
X341313924Y-73362019D02*
X341218686Y-73314400D01*
X341218686Y-73314400D02*
X341171067Y-73266780D01*
X318870152Y-73266780D02*
X318822533Y-73314400D01*
X318822533Y-73314400D02*
X318679676Y-73362019D01*
X318679676Y-73362019D02*
X318584438Y-73362019D01*
X318584438Y-73362019D02*
X318441581Y-73314400D01*
X318441581Y-73314400D02*
X318346343Y-73219161D01*
X318346343Y-73219161D02*
X318298724Y-73123923D01*
X318298724Y-73123923D02*
X318251105Y-72933447D01*
X318251105Y-72933447D02*
X318251105Y-72790590D01*
X318251105Y-72790590D02*
X318298724Y-72600114D01*
X318298724Y-72600114D02*
X318346343Y-72504876D01*
X318346343Y-72504876D02*
X318441581Y-72409638D01*
X318441581Y-72409638D02*
X318584438Y-72362019D01*
X318584438Y-72362019D02*
X318679676Y-72362019D01*
X318679676Y-72362019D02*
X318822533Y-72409638D01*
X318822533Y-72409638D02*
X318870152Y-72457257D01*
X319822533Y-73362019D02*
X319251105Y-73362019D01*
X319536819Y-73362019D02*
X319536819Y-72362019D01*
X319536819Y-72362019D02*
X319441581Y-72504876D01*
X319441581Y-72504876D02*
X319346343Y-72600114D01*
X319346343Y-72600114D02*
X319251105Y-72647733D01*
X320774914Y-73362019D02*
X320203486Y-73362019D01*
X320489200Y-73362019D02*
X320489200Y-72362019D01*
X320489200Y-72362019D02*
X320393962Y-72504876D01*
X320393962Y-72504876D02*
X320298724Y-72600114D01*
X320298724Y-72600114D02*
X320203486Y-72647733D01*
X321632057Y-72695352D02*
X321632057Y-73362019D01*
X321393962Y-72314400D02*
X321155867Y-73028685D01*
X321155867Y-73028685D02*
X321774914Y-73028685D01*
X258875352Y-73266780D02*
X258827733Y-73314400D01*
X258827733Y-73314400D02*
X258684876Y-73362019D01*
X258684876Y-73362019D02*
X258589638Y-73362019D01*
X258589638Y-73362019D02*
X258446781Y-73314400D01*
X258446781Y-73314400D02*
X258351543Y-73219161D01*
X258351543Y-73219161D02*
X258303924Y-73123923D01*
X258303924Y-73123923D02*
X258256305Y-72933447D01*
X258256305Y-72933447D02*
X258256305Y-72790590D01*
X258256305Y-72790590D02*
X258303924Y-72600114D01*
X258303924Y-72600114D02*
X258351543Y-72504876D01*
X258351543Y-72504876D02*
X258446781Y-72409638D01*
X258446781Y-72409638D02*
X258589638Y-72362019D01*
X258589638Y-72362019D02*
X258684876Y-72362019D01*
X258684876Y-72362019D02*
X258827733Y-72409638D01*
X258827733Y-72409638D02*
X258875352Y-72457257D01*
X259827733Y-73362019D02*
X259256305Y-73362019D01*
X259542019Y-73362019D02*
X259542019Y-72362019D01*
X259542019Y-72362019D02*
X259446781Y-72504876D01*
X259446781Y-72504876D02*
X259351543Y-72600114D01*
X259351543Y-72600114D02*
X259256305Y-72647733D01*
X260780114Y-73362019D02*
X260208686Y-73362019D01*
X260494400Y-73362019D02*
X260494400Y-72362019D01*
X260494400Y-72362019D02*
X260399162Y-72504876D01*
X260399162Y-72504876D02*
X260303924Y-72600114D01*
X260303924Y-72600114D02*
X260208686Y-72647733D01*
X261161067Y-72457257D02*
X261208686Y-72409638D01*
X261208686Y-72409638D02*
X261303924Y-72362019D01*
X261303924Y-72362019D02*
X261542019Y-72362019D01*
X261542019Y-72362019D02*
X261637257Y-72409638D01*
X261637257Y-72409638D02*
X261684876Y-72457257D01*
X261684876Y-72457257D02*
X261732495Y-72552495D01*
X261732495Y-72552495D02*
X261732495Y-72647733D01*
X261732495Y-72647733D02*
X261684876Y-72790590D01*
X261684876Y-72790590D02*
X261113448Y-73362019D01*
X261113448Y-73362019D02*
X261732495Y-73362019D01*
X238910952Y-73266780D02*
X238863333Y-73314400D01*
X238863333Y-73314400D02*
X238720476Y-73362019D01*
X238720476Y-73362019D02*
X238625238Y-73362019D01*
X238625238Y-73362019D02*
X238482381Y-73314400D01*
X238482381Y-73314400D02*
X238387143Y-73219161D01*
X238387143Y-73219161D02*
X238339524Y-73123923D01*
X238339524Y-73123923D02*
X238291905Y-72933447D01*
X238291905Y-72933447D02*
X238291905Y-72790590D01*
X238291905Y-72790590D02*
X238339524Y-72600114D01*
X238339524Y-72600114D02*
X238387143Y-72504876D01*
X238387143Y-72504876D02*
X238482381Y-72409638D01*
X238482381Y-72409638D02*
X238625238Y-72362019D01*
X238625238Y-72362019D02*
X238720476Y-72362019D01*
X238720476Y-72362019D02*
X238863333Y-72409638D01*
X238863333Y-72409638D02*
X238910952Y-72457257D01*
X239863333Y-73362019D02*
X239291905Y-73362019D01*
X239577619Y-73362019D02*
X239577619Y-72362019D01*
X239577619Y-72362019D02*
X239482381Y-72504876D01*
X239482381Y-72504876D02*
X239387143Y-72600114D01*
X239387143Y-72600114D02*
X239291905Y-72647733D01*
X240815714Y-73362019D02*
X240244286Y-73362019D01*
X240530000Y-73362019D02*
X240530000Y-72362019D01*
X240530000Y-72362019D02*
X240434762Y-72504876D01*
X240434762Y-72504876D02*
X240339524Y-72600114D01*
X240339524Y-72600114D02*
X240244286Y-72647733D01*
X241768095Y-73362019D02*
X241196667Y-73362019D01*
X241482381Y-73362019D02*
X241482381Y-72362019D01*
X241482381Y-72362019D02*
X241387143Y-72504876D01*
X241387143Y-72504876D02*
X241291905Y-72600114D01*
X241291905Y-72600114D02*
X241196667Y-72647733D01*
X278890552Y-73266780D02*
X278842933Y-73314400D01*
X278842933Y-73314400D02*
X278700076Y-73362019D01*
X278700076Y-73362019D02*
X278604838Y-73362019D01*
X278604838Y-73362019D02*
X278461981Y-73314400D01*
X278461981Y-73314400D02*
X278366743Y-73219161D01*
X278366743Y-73219161D02*
X278319124Y-73123923D01*
X278319124Y-73123923D02*
X278271505Y-72933447D01*
X278271505Y-72933447D02*
X278271505Y-72790590D01*
X278271505Y-72790590D02*
X278319124Y-72600114D01*
X278319124Y-72600114D02*
X278366743Y-72504876D01*
X278366743Y-72504876D02*
X278461981Y-72409638D01*
X278461981Y-72409638D02*
X278604838Y-72362019D01*
X278604838Y-72362019D02*
X278700076Y-72362019D01*
X278700076Y-72362019D02*
X278842933Y-72409638D01*
X278842933Y-72409638D02*
X278890552Y-72457257D01*
X279842933Y-73362019D02*
X279271505Y-73362019D01*
X279557219Y-73362019D02*
X279557219Y-72362019D01*
X279557219Y-72362019D02*
X279461981Y-72504876D01*
X279461981Y-72504876D02*
X279366743Y-72600114D01*
X279366743Y-72600114D02*
X279271505Y-72647733D01*
X280461981Y-72362019D02*
X280557219Y-72362019D01*
X280557219Y-72362019D02*
X280652457Y-72409638D01*
X280652457Y-72409638D02*
X280700076Y-72457257D01*
X280700076Y-72457257D02*
X280747695Y-72552495D01*
X280747695Y-72552495D02*
X280795314Y-72742971D01*
X280795314Y-72742971D02*
X280795314Y-72981066D01*
X280795314Y-72981066D02*
X280747695Y-73171542D01*
X280747695Y-73171542D02*
X280700076Y-73266780D01*
X280700076Y-73266780D02*
X280652457Y-73314400D01*
X280652457Y-73314400D02*
X280557219Y-73362019D01*
X280557219Y-73362019D02*
X280461981Y-73362019D01*
X280461981Y-73362019D02*
X280366743Y-73314400D01*
X280366743Y-73314400D02*
X280319124Y-73266780D01*
X280319124Y-73266780D02*
X280271505Y-73171542D01*
X280271505Y-73171542D02*
X280223886Y-72981066D01*
X280223886Y-72981066D02*
X280223886Y-72742971D01*
X280223886Y-72742971D02*
X280271505Y-72552495D01*
X280271505Y-72552495D02*
X280319124Y-72457257D01*
X280319124Y-72457257D02*
X280366743Y-72409638D01*
X280366743Y-72409638D02*
X280461981Y-72362019D01*
X281271505Y-73362019D02*
X281461981Y-73362019D01*
X281461981Y-73362019D02*
X281557219Y-73314400D01*
X281557219Y-73314400D02*
X281604838Y-73266780D01*
X281604838Y-73266780D02*
X281700076Y-73123923D01*
X281700076Y-73123923D02*
X281747695Y-72933447D01*
X281747695Y-72933447D02*
X281747695Y-72552495D01*
X281747695Y-72552495D02*
X281700076Y-72457257D01*
X281700076Y-72457257D02*
X281652457Y-72409638D01*
X281652457Y-72409638D02*
X281557219Y-72362019D01*
X281557219Y-72362019D02*
X281366743Y-72362019D01*
X281366743Y-72362019D02*
X281271505Y-72409638D01*
X281271505Y-72409638D02*
X281223886Y-72457257D01*
X281223886Y-72457257D02*
X281176267Y-72552495D01*
X281176267Y-72552495D02*
X281176267Y-72790590D01*
X281176267Y-72790590D02*
X281223886Y-72885828D01*
X281223886Y-72885828D02*
X281271505Y-72933447D01*
X281271505Y-72933447D02*
X281366743Y-72981066D01*
X281366743Y-72981066D02*
X281557219Y-72981066D01*
X281557219Y-72981066D02*
X281652457Y-72933447D01*
X281652457Y-72933447D02*
X281700076Y-72885828D01*
X281700076Y-72885828D02*
X281747695Y-72790590D01*
X178865352Y-73215980D02*
X178817733Y-73263600D01*
X178817733Y-73263600D02*
X178674876Y-73311219D01*
X178674876Y-73311219D02*
X178579638Y-73311219D01*
X178579638Y-73311219D02*
X178436781Y-73263600D01*
X178436781Y-73263600D02*
X178341543Y-73168361D01*
X178341543Y-73168361D02*
X178293924Y-73073123D01*
X178293924Y-73073123D02*
X178246305Y-72882647D01*
X178246305Y-72882647D02*
X178246305Y-72739790D01*
X178246305Y-72739790D02*
X178293924Y-72549314D01*
X178293924Y-72549314D02*
X178341543Y-72454076D01*
X178341543Y-72454076D02*
X178436781Y-72358838D01*
X178436781Y-72358838D02*
X178579638Y-72311219D01*
X178579638Y-72311219D02*
X178674876Y-72311219D01*
X178674876Y-72311219D02*
X178817733Y-72358838D01*
X178817733Y-72358838D02*
X178865352Y-72406457D01*
X179817733Y-73311219D02*
X179246305Y-73311219D01*
X179532019Y-73311219D02*
X179532019Y-72311219D01*
X179532019Y-72311219D02*
X179436781Y-72454076D01*
X179436781Y-72454076D02*
X179341543Y-72549314D01*
X179341543Y-72549314D02*
X179246305Y-72596933D01*
X180436781Y-72311219D02*
X180532019Y-72311219D01*
X180532019Y-72311219D02*
X180627257Y-72358838D01*
X180627257Y-72358838D02*
X180674876Y-72406457D01*
X180674876Y-72406457D02*
X180722495Y-72501695D01*
X180722495Y-72501695D02*
X180770114Y-72692171D01*
X180770114Y-72692171D02*
X180770114Y-72930266D01*
X180770114Y-72930266D02*
X180722495Y-73120742D01*
X180722495Y-73120742D02*
X180674876Y-73215980D01*
X180674876Y-73215980D02*
X180627257Y-73263600D01*
X180627257Y-73263600D02*
X180532019Y-73311219D01*
X180532019Y-73311219D02*
X180436781Y-73311219D01*
X180436781Y-73311219D02*
X180341543Y-73263600D01*
X180341543Y-73263600D02*
X180293924Y-73215980D01*
X180293924Y-73215980D02*
X180246305Y-73120742D01*
X180246305Y-73120742D02*
X180198686Y-72930266D01*
X180198686Y-72930266D02*
X180198686Y-72692171D01*
X180198686Y-72692171D02*
X180246305Y-72501695D01*
X180246305Y-72501695D02*
X180293924Y-72406457D01*
X180293924Y-72406457D02*
X180341543Y-72358838D01*
X180341543Y-72358838D02*
X180436781Y-72311219D01*
X181341543Y-72739790D02*
X181246305Y-72692171D01*
X181246305Y-72692171D02*
X181198686Y-72644552D01*
X181198686Y-72644552D02*
X181151067Y-72549314D01*
X181151067Y-72549314D02*
X181151067Y-72501695D01*
X181151067Y-72501695D02*
X181198686Y-72406457D01*
X181198686Y-72406457D02*
X181246305Y-72358838D01*
X181246305Y-72358838D02*
X181341543Y-72311219D01*
X181341543Y-72311219D02*
X181532019Y-72311219D01*
X181532019Y-72311219D02*
X181627257Y-72358838D01*
X181627257Y-72358838D02*
X181674876Y-72406457D01*
X181674876Y-72406457D02*
X181722495Y-72501695D01*
X181722495Y-72501695D02*
X181722495Y-72549314D01*
X181722495Y-72549314D02*
X181674876Y-72644552D01*
X181674876Y-72644552D02*
X181627257Y-72692171D01*
X181627257Y-72692171D02*
X181532019Y-72739790D01*
X181532019Y-72739790D02*
X181341543Y-72739790D01*
X181341543Y-72739790D02*
X181246305Y-72787409D01*
X181246305Y-72787409D02*
X181198686Y-72835028D01*
X181198686Y-72835028D02*
X181151067Y-72930266D01*
X181151067Y-72930266D02*
X181151067Y-73120742D01*
X181151067Y-73120742D02*
X181198686Y-73215980D01*
X181198686Y-73215980D02*
X181246305Y-73263600D01*
X181246305Y-73263600D02*
X181341543Y-73311219D01*
X181341543Y-73311219D02*
X181532019Y-73311219D01*
X181532019Y-73311219D02*
X181627257Y-73263600D01*
X181627257Y-73263600D02*
X181674876Y-73215980D01*
X181674876Y-73215980D02*
X181722495Y-73120742D01*
X181722495Y-73120742D02*
X181722495Y-72930266D01*
X181722495Y-72930266D02*
X181674876Y-72835028D01*
X181674876Y-72835028D02*
X181627257Y-72787409D01*
X181627257Y-72787409D02*
X181532019Y-72739790D01*
X158900952Y-73266780D02*
X158853333Y-73314400D01*
X158853333Y-73314400D02*
X158710476Y-73362019D01*
X158710476Y-73362019D02*
X158615238Y-73362019D01*
X158615238Y-73362019D02*
X158472381Y-73314400D01*
X158472381Y-73314400D02*
X158377143Y-73219161D01*
X158377143Y-73219161D02*
X158329524Y-73123923D01*
X158329524Y-73123923D02*
X158281905Y-72933447D01*
X158281905Y-72933447D02*
X158281905Y-72790590D01*
X158281905Y-72790590D02*
X158329524Y-72600114D01*
X158329524Y-72600114D02*
X158377143Y-72504876D01*
X158377143Y-72504876D02*
X158472381Y-72409638D01*
X158472381Y-72409638D02*
X158615238Y-72362019D01*
X158615238Y-72362019D02*
X158710476Y-72362019D01*
X158710476Y-72362019D02*
X158853333Y-72409638D01*
X158853333Y-72409638D02*
X158900952Y-72457257D01*
X159853333Y-73362019D02*
X159281905Y-73362019D01*
X159567619Y-73362019D02*
X159567619Y-72362019D01*
X159567619Y-72362019D02*
X159472381Y-72504876D01*
X159472381Y-72504876D02*
X159377143Y-72600114D01*
X159377143Y-72600114D02*
X159281905Y-72647733D01*
X160472381Y-72362019D02*
X160567619Y-72362019D01*
X160567619Y-72362019D02*
X160662857Y-72409638D01*
X160662857Y-72409638D02*
X160710476Y-72457257D01*
X160710476Y-72457257D02*
X160758095Y-72552495D01*
X160758095Y-72552495D02*
X160805714Y-72742971D01*
X160805714Y-72742971D02*
X160805714Y-72981066D01*
X160805714Y-72981066D02*
X160758095Y-73171542D01*
X160758095Y-73171542D02*
X160710476Y-73266780D01*
X160710476Y-73266780D02*
X160662857Y-73314400D01*
X160662857Y-73314400D02*
X160567619Y-73362019D01*
X160567619Y-73362019D02*
X160472381Y-73362019D01*
X160472381Y-73362019D02*
X160377143Y-73314400D01*
X160377143Y-73314400D02*
X160329524Y-73266780D01*
X160329524Y-73266780D02*
X160281905Y-73171542D01*
X160281905Y-73171542D02*
X160234286Y-72981066D01*
X160234286Y-72981066D02*
X160234286Y-72742971D01*
X160234286Y-72742971D02*
X160281905Y-72552495D01*
X160281905Y-72552495D02*
X160329524Y-72457257D01*
X160329524Y-72457257D02*
X160377143Y-72409638D01*
X160377143Y-72409638D02*
X160472381Y-72362019D01*
X161139048Y-72362019D02*
X161805714Y-72362019D01*
X161805714Y-72362019D02*
X161377143Y-73362019D01*
X198880552Y-73266780D02*
X198832933Y-73314400D01*
X198832933Y-73314400D02*
X198690076Y-73362019D01*
X198690076Y-73362019D02*
X198594838Y-73362019D01*
X198594838Y-73362019D02*
X198451981Y-73314400D01*
X198451981Y-73314400D02*
X198356743Y-73219161D01*
X198356743Y-73219161D02*
X198309124Y-73123923D01*
X198309124Y-73123923D02*
X198261505Y-72933447D01*
X198261505Y-72933447D02*
X198261505Y-72790590D01*
X198261505Y-72790590D02*
X198309124Y-72600114D01*
X198309124Y-72600114D02*
X198356743Y-72504876D01*
X198356743Y-72504876D02*
X198451981Y-72409638D01*
X198451981Y-72409638D02*
X198594838Y-72362019D01*
X198594838Y-72362019D02*
X198690076Y-72362019D01*
X198690076Y-72362019D02*
X198832933Y-72409638D01*
X198832933Y-72409638D02*
X198880552Y-72457257D01*
X199832933Y-73362019D02*
X199261505Y-73362019D01*
X199547219Y-73362019D02*
X199547219Y-72362019D01*
X199547219Y-72362019D02*
X199451981Y-72504876D01*
X199451981Y-72504876D02*
X199356743Y-72600114D01*
X199356743Y-72600114D02*
X199261505Y-72647733D01*
X200451981Y-72362019D02*
X200547219Y-72362019D01*
X200547219Y-72362019D02*
X200642457Y-72409638D01*
X200642457Y-72409638D02*
X200690076Y-72457257D01*
X200690076Y-72457257D02*
X200737695Y-72552495D01*
X200737695Y-72552495D02*
X200785314Y-72742971D01*
X200785314Y-72742971D02*
X200785314Y-72981066D01*
X200785314Y-72981066D02*
X200737695Y-73171542D01*
X200737695Y-73171542D02*
X200690076Y-73266780D01*
X200690076Y-73266780D02*
X200642457Y-73314400D01*
X200642457Y-73314400D02*
X200547219Y-73362019D01*
X200547219Y-73362019D02*
X200451981Y-73362019D01*
X200451981Y-73362019D02*
X200356743Y-73314400D01*
X200356743Y-73314400D02*
X200309124Y-73266780D01*
X200309124Y-73266780D02*
X200261505Y-73171542D01*
X200261505Y-73171542D02*
X200213886Y-72981066D01*
X200213886Y-72981066D02*
X200213886Y-72742971D01*
X200213886Y-72742971D02*
X200261505Y-72552495D01*
X200261505Y-72552495D02*
X200309124Y-72457257D01*
X200309124Y-72457257D02*
X200356743Y-72409638D01*
X200356743Y-72409638D02*
X200451981Y-72362019D01*
X201690076Y-72362019D02*
X201213886Y-72362019D01*
X201213886Y-72362019D02*
X201166267Y-72838209D01*
X201166267Y-72838209D02*
X201213886Y-72790590D01*
X201213886Y-72790590D02*
X201309124Y-72742971D01*
X201309124Y-72742971D02*
X201547219Y-72742971D01*
X201547219Y-72742971D02*
X201642457Y-72790590D01*
X201642457Y-72790590D02*
X201690076Y-72838209D01*
X201690076Y-72838209D02*
X201737695Y-72933447D01*
X201737695Y-72933447D02*
X201737695Y-73171542D01*
X201737695Y-73171542D02*
X201690076Y-73266780D01*
X201690076Y-73266780D02*
X201642457Y-73314400D01*
X201642457Y-73314400D02*
X201547219Y-73362019D01*
X201547219Y-73362019D02*
X201309124Y-73362019D01*
X201309124Y-73362019D02*
X201213886Y-73314400D01*
X201213886Y-73314400D02*
X201166267Y-73266780D01*
X114055780Y-73416847D02*
X114103400Y-73464466D01*
X114103400Y-73464466D02*
X114151019Y-73607323D01*
X114151019Y-73607323D02*
X114151019Y-73702561D01*
X114151019Y-73702561D02*
X114103400Y-73845418D01*
X114103400Y-73845418D02*
X114008161Y-73940656D01*
X114008161Y-73940656D02*
X113912923Y-73988275D01*
X113912923Y-73988275D02*
X113722447Y-74035894D01*
X113722447Y-74035894D02*
X113579590Y-74035894D01*
X113579590Y-74035894D02*
X113389114Y-73988275D01*
X113389114Y-73988275D02*
X113293876Y-73940656D01*
X113293876Y-73940656D02*
X113198638Y-73845418D01*
X113198638Y-73845418D02*
X113151019Y-73702561D01*
X113151019Y-73702561D02*
X113151019Y-73607323D01*
X113151019Y-73607323D02*
X113198638Y-73464466D01*
X113198638Y-73464466D02*
X113246257Y-73416847D01*
X114151019Y-72464466D02*
X114151019Y-73035894D01*
X114151019Y-72750180D02*
X113151019Y-72750180D01*
X113151019Y-72750180D02*
X113293876Y-72845418D01*
X113293876Y-72845418D02*
X113389114Y-72940656D01*
X113389114Y-72940656D02*
X113436733Y-73035894D01*
X113151019Y-71845418D02*
X113151019Y-71750180D01*
X113151019Y-71750180D02*
X113198638Y-71654942D01*
X113198638Y-71654942D02*
X113246257Y-71607323D01*
X113246257Y-71607323D02*
X113341495Y-71559704D01*
X113341495Y-71559704D02*
X113531971Y-71512085D01*
X113531971Y-71512085D02*
X113770066Y-71512085D01*
X113770066Y-71512085D02*
X113960542Y-71559704D01*
X113960542Y-71559704D02*
X114055780Y-71607323D01*
X114055780Y-71607323D02*
X114103400Y-71654942D01*
X114103400Y-71654942D02*
X114151019Y-71750180D01*
X114151019Y-71750180D02*
X114151019Y-71845418D01*
X114151019Y-71845418D02*
X114103400Y-71940656D01*
X114103400Y-71940656D02*
X114055780Y-71988275D01*
X114055780Y-71988275D02*
X113960542Y-72035894D01*
X113960542Y-72035894D02*
X113770066Y-72083513D01*
X113770066Y-72083513D02*
X113531971Y-72083513D01*
X113531971Y-72083513D02*
X113341495Y-72035894D01*
X113341495Y-72035894D02*
X113246257Y-71988275D01*
X113246257Y-71988275D02*
X113198638Y-71940656D01*
X113198638Y-71940656D02*
X113151019Y-71845418D01*
X113484352Y-70654942D02*
X114151019Y-70654942D01*
X113103400Y-70893037D02*
X113817685Y-71131132D01*
X113817685Y-71131132D02*
X113817685Y-70512085D01*
X94055780Y-73416847D02*
X94103400Y-73464466D01*
X94103400Y-73464466D02*
X94151019Y-73607323D01*
X94151019Y-73607323D02*
X94151019Y-73702561D01*
X94151019Y-73702561D02*
X94103400Y-73845418D01*
X94103400Y-73845418D02*
X94008161Y-73940656D01*
X94008161Y-73940656D02*
X93912923Y-73988275D01*
X93912923Y-73988275D02*
X93722447Y-74035894D01*
X93722447Y-74035894D02*
X93579590Y-74035894D01*
X93579590Y-74035894D02*
X93389114Y-73988275D01*
X93389114Y-73988275D02*
X93293876Y-73940656D01*
X93293876Y-73940656D02*
X93198638Y-73845418D01*
X93198638Y-73845418D02*
X93151019Y-73702561D01*
X93151019Y-73702561D02*
X93151019Y-73607323D01*
X93151019Y-73607323D02*
X93198638Y-73464466D01*
X93198638Y-73464466D02*
X93246257Y-73416847D01*
X94151019Y-72464466D02*
X94151019Y-73035894D01*
X94151019Y-72750180D02*
X93151019Y-72750180D01*
X93151019Y-72750180D02*
X93293876Y-72845418D01*
X93293876Y-72845418D02*
X93389114Y-72940656D01*
X93389114Y-72940656D02*
X93436733Y-73035894D01*
X93151019Y-71845418D02*
X93151019Y-71750180D01*
X93151019Y-71750180D02*
X93198638Y-71654942D01*
X93198638Y-71654942D02*
X93246257Y-71607323D01*
X93246257Y-71607323D02*
X93341495Y-71559704D01*
X93341495Y-71559704D02*
X93531971Y-71512085D01*
X93531971Y-71512085D02*
X93770066Y-71512085D01*
X93770066Y-71512085D02*
X93960542Y-71559704D01*
X93960542Y-71559704D02*
X94055780Y-71607323D01*
X94055780Y-71607323D02*
X94103400Y-71654942D01*
X94103400Y-71654942D02*
X94151019Y-71750180D01*
X94151019Y-71750180D02*
X94151019Y-71845418D01*
X94151019Y-71845418D02*
X94103400Y-71940656D01*
X94103400Y-71940656D02*
X94055780Y-71988275D01*
X94055780Y-71988275D02*
X93960542Y-72035894D01*
X93960542Y-72035894D02*
X93770066Y-72083513D01*
X93770066Y-72083513D02*
X93531971Y-72083513D01*
X93531971Y-72083513D02*
X93341495Y-72035894D01*
X93341495Y-72035894D02*
X93246257Y-71988275D01*
X93246257Y-71988275D02*
X93198638Y-71940656D01*
X93198638Y-71940656D02*
X93151019Y-71845418D01*
X93151019Y-71178751D02*
X93151019Y-70559704D01*
X93151019Y-70559704D02*
X93531971Y-70893037D01*
X93531971Y-70893037D02*
X93531971Y-70750180D01*
X93531971Y-70750180D02*
X93579590Y-70654942D01*
X93579590Y-70654942D02*
X93627209Y-70607323D01*
X93627209Y-70607323D02*
X93722447Y-70559704D01*
X93722447Y-70559704D02*
X93960542Y-70559704D01*
X93960542Y-70559704D02*
X94055780Y-70607323D01*
X94055780Y-70607323D02*
X94103400Y-70654942D01*
X94103400Y-70654942D02*
X94151019Y-70750180D01*
X94151019Y-70750180D02*
X94151019Y-71035894D01*
X94151019Y-71035894D02*
X94103400Y-71131132D01*
X94103400Y-71131132D02*
X94055780Y-71178751D01*
X134055780Y-73416847D02*
X134103400Y-73464466D01*
X134103400Y-73464466D02*
X134151019Y-73607323D01*
X134151019Y-73607323D02*
X134151019Y-73702561D01*
X134151019Y-73702561D02*
X134103400Y-73845418D01*
X134103400Y-73845418D02*
X134008161Y-73940656D01*
X134008161Y-73940656D02*
X133912923Y-73988275D01*
X133912923Y-73988275D02*
X133722447Y-74035894D01*
X133722447Y-74035894D02*
X133579590Y-74035894D01*
X133579590Y-74035894D02*
X133389114Y-73988275D01*
X133389114Y-73988275D02*
X133293876Y-73940656D01*
X133293876Y-73940656D02*
X133198638Y-73845418D01*
X133198638Y-73845418D02*
X133151019Y-73702561D01*
X133151019Y-73702561D02*
X133151019Y-73607323D01*
X133151019Y-73607323D02*
X133198638Y-73464466D01*
X133198638Y-73464466D02*
X133246257Y-73416847D01*
X134151019Y-72464466D02*
X134151019Y-73035894D01*
X134151019Y-72750180D02*
X133151019Y-72750180D01*
X133151019Y-72750180D02*
X133293876Y-72845418D01*
X133293876Y-72845418D02*
X133389114Y-72940656D01*
X133389114Y-72940656D02*
X133436733Y-73035894D01*
X133151019Y-71845418D02*
X133151019Y-71750180D01*
X133151019Y-71750180D02*
X133198638Y-71654942D01*
X133198638Y-71654942D02*
X133246257Y-71607323D01*
X133246257Y-71607323D02*
X133341495Y-71559704D01*
X133341495Y-71559704D02*
X133531971Y-71512085D01*
X133531971Y-71512085D02*
X133770066Y-71512085D01*
X133770066Y-71512085D02*
X133960542Y-71559704D01*
X133960542Y-71559704D02*
X134055780Y-71607323D01*
X134055780Y-71607323D02*
X134103400Y-71654942D01*
X134103400Y-71654942D02*
X134151019Y-71750180D01*
X134151019Y-71750180D02*
X134151019Y-71845418D01*
X134151019Y-71845418D02*
X134103400Y-71940656D01*
X134103400Y-71940656D02*
X134055780Y-71988275D01*
X134055780Y-71988275D02*
X133960542Y-72035894D01*
X133960542Y-72035894D02*
X133770066Y-72083513D01*
X133770066Y-72083513D02*
X133531971Y-72083513D01*
X133531971Y-72083513D02*
X133341495Y-72035894D01*
X133341495Y-72035894D02*
X133246257Y-71988275D01*
X133246257Y-71988275D02*
X133198638Y-71940656D01*
X133198638Y-71940656D02*
X133151019Y-71845418D01*
X134151019Y-70559704D02*
X134151019Y-71131132D01*
X134151019Y-70845418D02*
X133151019Y-70845418D01*
X133151019Y-70845418D02*
X133293876Y-70940656D01*
X133293876Y-70940656D02*
X133389114Y-71035894D01*
X133389114Y-71035894D02*
X133436733Y-71131132D01*
X298905752Y-73266780D02*
X298858133Y-73314400D01*
X298858133Y-73314400D02*
X298715276Y-73362019D01*
X298715276Y-73362019D02*
X298620038Y-73362019D01*
X298620038Y-73362019D02*
X298477181Y-73314400D01*
X298477181Y-73314400D02*
X298381943Y-73219161D01*
X298381943Y-73219161D02*
X298334324Y-73123923D01*
X298334324Y-73123923D02*
X298286705Y-72933447D01*
X298286705Y-72933447D02*
X298286705Y-72790590D01*
X298286705Y-72790590D02*
X298334324Y-72600114D01*
X298334324Y-72600114D02*
X298381943Y-72504876D01*
X298381943Y-72504876D02*
X298477181Y-72409638D01*
X298477181Y-72409638D02*
X298620038Y-72362019D01*
X298620038Y-72362019D02*
X298715276Y-72362019D01*
X298715276Y-72362019D02*
X298858133Y-72409638D01*
X298858133Y-72409638D02*
X298905752Y-72457257D01*
X299858133Y-73362019D02*
X299286705Y-73362019D01*
X299572419Y-73362019D02*
X299572419Y-72362019D01*
X299572419Y-72362019D02*
X299477181Y-72504876D01*
X299477181Y-72504876D02*
X299381943Y-72600114D01*
X299381943Y-72600114D02*
X299286705Y-72647733D01*
X300810514Y-73362019D02*
X300239086Y-73362019D01*
X300524800Y-73362019D02*
X300524800Y-72362019D01*
X300524800Y-72362019D02*
X300429562Y-72504876D01*
X300429562Y-72504876D02*
X300334324Y-72600114D01*
X300334324Y-72600114D02*
X300239086Y-72647733D01*
X301143848Y-72362019D02*
X301762895Y-72362019D01*
X301762895Y-72362019D02*
X301429562Y-72742971D01*
X301429562Y-72742971D02*
X301572419Y-72742971D01*
X301572419Y-72742971D02*
X301667657Y-72790590D01*
X301667657Y-72790590D02*
X301715276Y-72838209D01*
X301715276Y-72838209D02*
X301762895Y-72933447D01*
X301762895Y-72933447D02*
X301762895Y-73171542D01*
X301762895Y-73171542D02*
X301715276Y-73266780D01*
X301715276Y-73266780D02*
X301667657Y-73314400D01*
X301667657Y-73314400D02*
X301572419Y-73362019D01*
X301572419Y-73362019D02*
X301286705Y-73362019D01*
X301286705Y-73362019D02*
X301191467Y-73314400D01*
X301191467Y-73314400D02*
X301143848Y-73266780D01*
X218895752Y-73266780D02*
X218848133Y-73314400D01*
X218848133Y-73314400D02*
X218705276Y-73362019D01*
X218705276Y-73362019D02*
X218610038Y-73362019D01*
X218610038Y-73362019D02*
X218467181Y-73314400D01*
X218467181Y-73314400D02*
X218371943Y-73219161D01*
X218371943Y-73219161D02*
X218324324Y-73123923D01*
X218324324Y-73123923D02*
X218276705Y-72933447D01*
X218276705Y-72933447D02*
X218276705Y-72790590D01*
X218276705Y-72790590D02*
X218324324Y-72600114D01*
X218324324Y-72600114D02*
X218371943Y-72504876D01*
X218371943Y-72504876D02*
X218467181Y-72409638D01*
X218467181Y-72409638D02*
X218610038Y-72362019D01*
X218610038Y-72362019D02*
X218705276Y-72362019D01*
X218705276Y-72362019D02*
X218848133Y-72409638D01*
X218848133Y-72409638D02*
X218895752Y-72457257D01*
X219848133Y-73362019D02*
X219276705Y-73362019D01*
X219562419Y-73362019D02*
X219562419Y-72362019D01*
X219562419Y-72362019D02*
X219467181Y-72504876D01*
X219467181Y-72504876D02*
X219371943Y-72600114D01*
X219371943Y-72600114D02*
X219276705Y-72647733D01*
X220800514Y-73362019D02*
X220229086Y-73362019D01*
X220514800Y-73362019D02*
X220514800Y-72362019D01*
X220514800Y-72362019D02*
X220419562Y-72504876D01*
X220419562Y-72504876D02*
X220324324Y-72600114D01*
X220324324Y-72600114D02*
X220229086Y-72647733D01*
X221419562Y-72362019D02*
X221514800Y-72362019D01*
X221514800Y-72362019D02*
X221610038Y-72409638D01*
X221610038Y-72409638D02*
X221657657Y-72457257D01*
X221657657Y-72457257D02*
X221705276Y-72552495D01*
X221705276Y-72552495D02*
X221752895Y-72742971D01*
X221752895Y-72742971D02*
X221752895Y-72981066D01*
X221752895Y-72981066D02*
X221705276Y-73171542D01*
X221705276Y-73171542D02*
X221657657Y-73266780D01*
X221657657Y-73266780D02*
X221610038Y-73314400D01*
X221610038Y-73314400D02*
X221514800Y-73362019D01*
X221514800Y-73362019D02*
X221419562Y-73362019D01*
X221419562Y-73362019D02*
X221324324Y-73314400D01*
X221324324Y-73314400D02*
X221276705Y-73266780D01*
X221276705Y-73266780D02*
X221229086Y-73171542D01*
X221229086Y-73171542D02*
X221181467Y-72981066D01*
X221181467Y-72981066D02*
X221181467Y-72742971D01*
X221181467Y-72742971D02*
X221229086Y-72552495D01*
X221229086Y-72552495D02*
X221276705Y-72457257D01*
X221276705Y-72457257D02*
X221324324Y-72409638D01*
X221324324Y-72409638D02*
X221419562Y-72362019D01*
X138911152Y-73215980D02*
X138863533Y-73263600D01*
X138863533Y-73263600D02*
X138720676Y-73311219D01*
X138720676Y-73311219D02*
X138625438Y-73311219D01*
X138625438Y-73311219D02*
X138482581Y-73263600D01*
X138482581Y-73263600D02*
X138387343Y-73168361D01*
X138387343Y-73168361D02*
X138339724Y-73073123D01*
X138339724Y-73073123D02*
X138292105Y-72882647D01*
X138292105Y-72882647D02*
X138292105Y-72739790D01*
X138292105Y-72739790D02*
X138339724Y-72549314D01*
X138339724Y-72549314D02*
X138387343Y-72454076D01*
X138387343Y-72454076D02*
X138482581Y-72358838D01*
X138482581Y-72358838D02*
X138625438Y-72311219D01*
X138625438Y-72311219D02*
X138720676Y-72311219D01*
X138720676Y-72311219D02*
X138863533Y-72358838D01*
X138863533Y-72358838D02*
X138911152Y-72406457D01*
X139863533Y-73311219D02*
X139292105Y-73311219D01*
X139577819Y-73311219D02*
X139577819Y-72311219D01*
X139577819Y-72311219D02*
X139482581Y-72454076D01*
X139482581Y-72454076D02*
X139387343Y-72549314D01*
X139387343Y-72549314D02*
X139292105Y-72596933D01*
X140482581Y-72311219D02*
X140577819Y-72311219D01*
X140577819Y-72311219D02*
X140673057Y-72358838D01*
X140673057Y-72358838D02*
X140720676Y-72406457D01*
X140720676Y-72406457D02*
X140768295Y-72501695D01*
X140768295Y-72501695D02*
X140815914Y-72692171D01*
X140815914Y-72692171D02*
X140815914Y-72930266D01*
X140815914Y-72930266D02*
X140768295Y-73120742D01*
X140768295Y-73120742D02*
X140720676Y-73215980D01*
X140720676Y-73215980D02*
X140673057Y-73263600D01*
X140673057Y-73263600D02*
X140577819Y-73311219D01*
X140577819Y-73311219D02*
X140482581Y-73311219D01*
X140482581Y-73311219D02*
X140387343Y-73263600D01*
X140387343Y-73263600D02*
X140339724Y-73215980D01*
X140339724Y-73215980D02*
X140292105Y-73120742D01*
X140292105Y-73120742D02*
X140244486Y-72930266D01*
X140244486Y-72930266D02*
X140244486Y-72692171D01*
X140244486Y-72692171D02*
X140292105Y-72501695D01*
X140292105Y-72501695D02*
X140339724Y-72406457D01*
X140339724Y-72406457D02*
X140387343Y-72358838D01*
X140387343Y-72358838D02*
X140482581Y-72311219D01*
X141673057Y-72311219D02*
X141482581Y-72311219D01*
X141482581Y-72311219D02*
X141387343Y-72358838D01*
X141387343Y-72358838D02*
X141339724Y-72406457D01*
X141339724Y-72406457D02*
X141244486Y-72549314D01*
X141244486Y-72549314D02*
X141196867Y-72739790D01*
X141196867Y-72739790D02*
X141196867Y-73120742D01*
X141196867Y-73120742D02*
X141244486Y-73215980D01*
X141244486Y-73215980D02*
X141292105Y-73263600D01*
X141292105Y-73263600D02*
X141387343Y-73311219D01*
X141387343Y-73311219D02*
X141577819Y-73311219D01*
X141577819Y-73311219D02*
X141673057Y-73263600D01*
X141673057Y-73263600D02*
X141720676Y-73215980D01*
X141720676Y-73215980D02*
X141768295Y-73120742D01*
X141768295Y-73120742D02*
X141768295Y-72882647D01*
X141768295Y-72882647D02*
X141720676Y-72787409D01*
X141720676Y-72787409D02*
X141673057Y-72739790D01*
X141673057Y-72739790D02*
X141577819Y-72692171D01*
X141577819Y-72692171D02*
X141387343Y-72692171D01*
X141387343Y-72692171D02*
X141292105Y-72739790D01*
X141292105Y-72739790D02*
X141244486Y-72787409D01*
X141244486Y-72787409D02*
X141196867Y-72882647D01*
X74055780Y-73416847D02*
X74103400Y-73464466D01*
X74103400Y-73464466D02*
X74151019Y-73607323D01*
X74151019Y-73607323D02*
X74151019Y-73702561D01*
X74151019Y-73702561D02*
X74103400Y-73845418D01*
X74103400Y-73845418D02*
X74008161Y-73940656D01*
X74008161Y-73940656D02*
X73912923Y-73988275D01*
X73912923Y-73988275D02*
X73722447Y-74035894D01*
X73722447Y-74035894D02*
X73579590Y-74035894D01*
X73579590Y-74035894D02*
X73389114Y-73988275D01*
X73389114Y-73988275D02*
X73293876Y-73940656D01*
X73293876Y-73940656D02*
X73198638Y-73845418D01*
X73198638Y-73845418D02*
X73151019Y-73702561D01*
X73151019Y-73702561D02*
X73151019Y-73607323D01*
X73151019Y-73607323D02*
X73198638Y-73464466D01*
X73198638Y-73464466D02*
X73246257Y-73416847D01*
X74151019Y-72464466D02*
X74151019Y-73035894D01*
X74151019Y-72750180D02*
X73151019Y-72750180D01*
X73151019Y-72750180D02*
X73293876Y-72845418D01*
X73293876Y-72845418D02*
X73389114Y-72940656D01*
X73389114Y-72940656D02*
X73436733Y-73035894D01*
X73151019Y-71845418D02*
X73151019Y-71750180D01*
X73151019Y-71750180D02*
X73198638Y-71654942D01*
X73198638Y-71654942D02*
X73246257Y-71607323D01*
X73246257Y-71607323D02*
X73341495Y-71559704D01*
X73341495Y-71559704D02*
X73531971Y-71512085D01*
X73531971Y-71512085D02*
X73770066Y-71512085D01*
X73770066Y-71512085D02*
X73960542Y-71559704D01*
X73960542Y-71559704D02*
X74055780Y-71607323D01*
X74055780Y-71607323D02*
X74103400Y-71654942D01*
X74103400Y-71654942D02*
X74151019Y-71750180D01*
X74151019Y-71750180D02*
X74151019Y-71845418D01*
X74151019Y-71845418D02*
X74103400Y-71940656D01*
X74103400Y-71940656D02*
X74055780Y-71988275D01*
X74055780Y-71988275D02*
X73960542Y-72035894D01*
X73960542Y-72035894D02*
X73770066Y-72083513D01*
X73770066Y-72083513D02*
X73531971Y-72083513D01*
X73531971Y-72083513D02*
X73341495Y-72035894D01*
X73341495Y-72035894D02*
X73246257Y-71988275D01*
X73246257Y-71988275D02*
X73198638Y-71940656D01*
X73198638Y-71940656D02*
X73151019Y-71845418D01*
X73246257Y-71131132D02*
X73198638Y-71083513D01*
X73198638Y-71083513D02*
X73151019Y-70988275D01*
X73151019Y-70988275D02*
X73151019Y-70750180D01*
X73151019Y-70750180D02*
X73198638Y-70654942D01*
X73198638Y-70654942D02*
X73246257Y-70607323D01*
X73246257Y-70607323D02*
X73341495Y-70559704D01*
X73341495Y-70559704D02*
X73436733Y-70559704D01*
X73436733Y-70559704D02*
X73579590Y-70607323D01*
X73579590Y-70607323D02*
X74151019Y-71178751D01*
X74151019Y-71178751D02*
X74151019Y-70559704D01*
X43497714Y-80718819D02*
X43497714Y-79718819D01*
X43497714Y-80195009D02*
X44069142Y-80195009D01*
X44069142Y-80718819D02*
X44069142Y-79718819D01*
X45069142Y-80718819D02*
X44497714Y-80718819D01*
X44783428Y-80718819D02*
X44783428Y-79718819D01*
X44783428Y-79718819D02*
X44688190Y-79861676D01*
X44688190Y-79861676D02*
X44592952Y-79956914D01*
X44592952Y-79956914D02*
X44497714Y-80004533D01*
X45688190Y-79718819D02*
X45783428Y-79718819D01*
X45783428Y-79718819D02*
X45878666Y-79766438D01*
X45878666Y-79766438D02*
X45926285Y-79814057D01*
X45926285Y-79814057D02*
X45973904Y-79909295D01*
X45973904Y-79909295D02*
X46021523Y-80099771D01*
X46021523Y-80099771D02*
X46021523Y-80337866D01*
X46021523Y-80337866D02*
X45973904Y-80528342D01*
X45973904Y-80528342D02*
X45926285Y-80623580D01*
X45926285Y-80623580D02*
X45878666Y-80671200D01*
X45878666Y-80671200D02*
X45783428Y-80718819D01*
X45783428Y-80718819D02*
X45688190Y-80718819D01*
X45688190Y-80718819D02*
X45592952Y-80671200D01*
X45592952Y-80671200D02*
X45545333Y-80623580D01*
X45545333Y-80623580D02*
X45497714Y-80528342D01*
X45497714Y-80528342D02*
X45450095Y-80337866D01*
X45450095Y-80337866D02*
X45450095Y-80099771D01*
X45450095Y-80099771D02*
X45497714Y-79909295D01*
X45497714Y-79909295D02*
X45545333Y-79814057D01*
X45545333Y-79814057D02*
X45592952Y-79766438D01*
X45592952Y-79766438D02*
X45688190Y-79718819D01*
X46878666Y-80052152D02*
X46878666Y-80718819D01*
X46640571Y-79671200D02*
X46402476Y-80385485D01*
X46402476Y-80385485D02*
X47021523Y-80385485D01*
X391477714Y-85798819D02*
X391477714Y-84798819D01*
X391477714Y-85275009D02*
X392049142Y-85275009D01*
X392049142Y-85798819D02*
X392049142Y-84798819D01*
X393049142Y-85798819D02*
X392477714Y-85798819D01*
X392763428Y-85798819D02*
X392763428Y-84798819D01*
X392763428Y-84798819D02*
X392668190Y-84941676D01*
X392668190Y-84941676D02*
X392572952Y-85036914D01*
X392572952Y-85036914D02*
X392477714Y-85084533D01*
X393668190Y-84798819D02*
X393763428Y-84798819D01*
X393763428Y-84798819D02*
X393858666Y-84846438D01*
X393858666Y-84846438D02*
X393906285Y-84894057D01*
X393906285Y-84894057D02*
X393953904Y-84989295D01*
X393953904Y-84989295D02*
X394001523Y-85179771D01*
X394001523Y-85179771D02*
X394001523Y-85417866D01*
X394001523Y-85417866D02*
X393953904Y-85608342D01*
X393953904Y-85608342D02*
X393906285Y-85703580D01*
X393906285Y-85703580D02*
X393858666Y-85751200D01*
X393858666Y-85751200D02*
X393763428Y-85798819D01*
X393763428Y-85798819D02*
X393668190Y-85798819D01*
X393668190Y-85798819D02*
X393572952Y-85751200D01*
X393572952Y-85751200D02*
X393525333Y-85703580D01*
X393525333Y-85703580D02*
X393477714Y-85608342D01*
X393477714Y-85608342D02*
X393430095Y-85417866D01*
X393430095Y-85417866D02*
X393430095Y-85179771D01*
X393430095Y-85179771D02*
X393477714Y-84989295D01*
X393477714Y-84989295D02*
X393525333Y-84894057D01*
X393525333Y-84894057D02*
X393572952Y-84846438D01*
X393572952Y-84846438D02*
X393668190Y-84798819D01*
X394334857Y-84798819D02*
X394953904Y-84798819D01*
X394953904Y-84798819D02*
X394620571Y-85179771D01*
X394620571Y-85179771D02*
X394763428Y-85179771D01*
X394763428Y-85179771D02*
X394858666Y-85227390D01*
X394858666Y-85227390D02*
X394906285Y-85275009D01*
X394906285Y-85275009D02*
X394953904Y-85370247D01*
X394953904Y-85370247D02*
X394953904Y-85608342D01*
X394953904Y-85608342D02*
X394906285Y-85703580D01*
X394906285Y-85703580D02*
X394858666Y-85751200D01*
X394858666Y-85751200D02*
X394763428Y-85798819D01*
X394763428Y-85798819D02*
X394477714Y-85798819D01*
X394477714Y-85798819D02*
X394382476Y-85751200D01*
X394382476Y-85751200D02*
X394334857Y-85703580D01*
X391985714Y-51304819D02*
X391985714Y-50304819D01*
X391985714Y-50781009D02*
X392557142Y-50781009D01*
X392557142Y-51304819D02*
X392557142Y-50304819D01*
X393557142Y-51304819D02*
X392985714Y-51304819D01*
X393271428Y-51304819D02*
X393271428Y-50304819D01*
X393271428Y-50304819D02*
X393176190Y-50447676D01*
X393176190Y-50447676D02*
X393080952Y-50542914D01*
X393080952Y-50542914D02*
X392985714Y-50590533D01*
X394176190Y-50304819D02*
X394271428Y-50304819D01*
X394271428Y-50304819D02*
X394366666Y-50352438D01*
X394366666Y-50352438D02*
X394414285Y-50400057D01*
X394414285Y-50400057D02*
X394461904Y-50495295D01*
X394461904Y-50495295D02*
X394509523Y-50685771D01*
X394509523Y-50685771D02*
X394509523Y-50923866D01*
X394509523Y-50923866D02*
X394461904Y-51114342D01*
X394461904Y-51114342D02*
X394414285Y-51209580D01*
X394414285Y-51209580D02*
X394366666Y-51257200D01*
X394366666Y-51257200D02*
X394271428Y-51304819D01*
X394271428Y-51304819D02*
X394176190Y-51304819D01*
X394176190Y-51304819D02*
X394080952Y-51257200D01*
X394080952Y-51257200D02*
X394033333Y-51209580D01*
X394033333Y-51209580D02*
X393985714Y-51114342D01*
X393985714Y-51114342D02*
X393938095Y-50923866D01*
X393938095Y-50923866D02*
X393938095Y-50685771D01*
X393938095Y-50685771D02*
X393985714Y-50495295D01*
X393985714Y-50495295D02*
X394033333Y-50400057D01*
X394033333Y-50400057D02*
X394080952Y-50352438D01*
X394080952Y-50352438D02*
X394176190Y-50304819D01*
X394890476Y-50400057D02*
X394938095Y-50352438D01*
X394938095Y-50352438D02*
X395033333Y-50304819D01*
X395033333Y-50304819D02*
X395271428Y-50304819D01*
X395271428Y-50304819D02*
X395366666Y-50352438D01*
X395366666Y-50352438D02*
X395414285Y-50400057D01*
X395414285Y-50400057D02*
X395461904Y-50495295D01*
X395461904Y-50495295D02*
X395461904Y-50590533D01*
X395461904Y-50590533D02*
X395414285Y-50733390D01*
X395414285Y-50733390D02*
X394842857Y-51304819D01*
X394842857Y-51304819D02*
X395461904Y-51304819D01*
X52741714Y-48206819D02*
X52741714Y-47206819D01*
X52741714Y-47683009D02*
X53313142Y-47683009D01*
X53313142Y-48206819D02*
X53313142Y-47206819D01*
X54313142Y-48206819D02*
X53741714Y-48206819D01*
X54027428Y-48206819D02*
X54027428Y-47206819D01*
X54027428Y-47206819D02*
X53932190Y-47349676D01*
X53932190Y-47349676D02*
X53836952Y-47444914D01*
X53836952Y-47444914D02*
X53741714Y-47492533D01*
X54932190Y-47206819D02*
X55027428Y-47206819D01*
X55027428Y-47206819D02*
X55122666Y-47254438D01*
X55122666Y-47254438D02*
X55170285Y-47302057D01*
X55170285Y-47302057D02*
X55217904Y-47397295D01*
X55217904Y-47397295D02*
X55265523Y-47587771D01*
X55265523Y-47587771D02*
X55265523Y-47825866D01*
X55265523Y-47825866D02*
X55217904Y-48016342D01*
X55217904Y-48016342D02*
X55170285Y-48111580D01*
X55170285Y-48111580D02*
X55122666Y-48159200D01*
X55122666Y-48159200D02*
X55027428Y-48206819D01*
X55027428Y-48206819D02*
X54932190Y-48206819D01*
X54932190Y-48206819D02*
X54836952Y-48159200D01*
X54836952Y-48159200D02*
X54789333Y-48111580D01*
X54789333Y-48111580D02*
X54741714Y-48016342D01*
X54741714Y-48016342D02*
X54694095Y-47825866D01*
X54694095Y-47825866D02*
X54694095Y-47587771D01*
X54694095Y-47587771D02*
X54741714Y-47397295D01*
X54741714Y-47397295D02*
X54789333Y-47302057D01*
X54789333Y-47302057D02*
X54836952Y-47254438D01*
X54836952Y-47254438D02*
X54932190Y-47206819D01*
X56217904Y-48206819D02*
X55646476Y-48206819D01*
X55932190Y-48206819D02*
X55932190Y-47206819D01*
X55932190Y-47206819D02*
X55836952Y-47349676D01*
X55836952Y-47349676D02*
X55741714Y-47444914D01*
X55741714Y-47444914D02*
X55646476Y-47492533D01*
X278554819Y-84647619D02*
X278078628Y-84980952D01*
X278554819Y-85219047D02*
X277554819Y-85219047D01*
X277554819Y-85219047D02*
X277554819Y-84838095D01*
X277554819Y-84838095D02*
X277602438Y-84742857D01*
X277602438Y-84742857D02*
X277650057Y-84695238D01*
X277650057Y-84695238D02*
X277745295Y-84647619D01*
X277745295Y-84647619D02*
X277888152Y-84647619D01*
X277888152Y-84647619D02*
X277983390Y-84695238D01*
X277983390Y-84695238D02*
X278031009Y-84742857D01*
X278031009Y-84742857D02*
X278078628Y-84838095D01*
X278078628Y-84838095D02*
X278078628Y-85219047D01*
X277554819Y-84361904D02*
X278554819Y-84028571D01*
X278554819Y-84028571D02*
X277554819Y-83695238D01*
X278554819Y-82838095D02*
X278554819Y-83409523D01*
X278554819Y-83123809D02*
X277554819Y-83123809D01*
X277554819Y-83123809D02*
X277697676Y-83219047D01*
X277697676Y-83219047D02*
X277792914Y-83314285D01*
X277792914Y-83314285D02*
X277840533Y-83409523D01*
X278554819Y-81885714D02*
X278554819Y-82457142D01*
X278554819Y-82171428D02*
X277554819Y-82171428D01*
X277554819Y-82171428D02*
X277697676Y-82266666D01*
X277697676Y-82266666D02*
X277792914Y-82361904D01*
X277792914Y-82361904D02*
X277840533Y-82457142D01*
X277650057Y-81504761D02*
X277602438Y-81457142D01*
X277602438Y-81457142D02*
X277554819Y-81361904D01*
X277554819Y-81361904D02*
X277554819Y-81123809D01*
X277554819Y-81123809D02*
X277602438Y-81028571D01*
X277602438Y-81028571D02*
X277650057Y-80980952D01*
X277650057Y-80980952D02*
X277745295Y-80933333D01*
X277745295Y-80933333D02*
X277840533Y-80933333D01*
X277840533Y-80933333D02*
X277983390Y-80980952D01*
X277983390Y-80980952D02*
X278554819Y-81552380D01*
X278554819Y-81552380D02*
X278554819Y-80933333D01*
X138554819Y-84647619D02*
X138078628Y-84980952D01*
X138554819Y-85219047D02*
X137554819Y-85219047D01*
X137554819Y-85219047D02*
X137554819Y-84838095D01*
X137554819Y-84838095D02*
X137602438Y-84742857D01*
X137602438Y-84742857D02*
X137650057Y-84695238D01*
X137650057Y-84695238D02*
X137745295Y-84647619D01*
X137745295Y-84647619D02*
X137888152Y-84647619D01*
X137888152Y-84647619D02*
X137983390Y-84695238D01*
X137983390Y-84695238D02*
X138031009Y-84742857D01*
X138031009Y-84742857D02*
X138078628Y-84838095D01*
X138078628Y-84838095D02*
X138078628Y-85219047D01*
X137554819Y-84361904D02*
X138554819Y-84028571D01*
X138554819Y-84028571D02*
X137554819Y-83695238D01*
X138554819Y-82838095D02*
X138554819Y-83409523D01*
X138554819Y-83123809D02*
X137554819Y-83123809D01*
X137554819Y-83123809D02*
X137697676Y-83219047D01*
X137697676Y-83219047D02*
X137792914Y-83314285D01*
X137792914Y-83314285D02*
X137840533Y-83409523D01*
X137554819Y-82219047D02*
X137554819Y-82123809D01*
X137554819Y-82123809D02*
X137602438Y-82028571D01*
X137602438Y-82028571D02*
X137650057Y-81980952D01*
X137650057Y-81980952D02*
X137745295Y-81933333D01*
X137745295Y-81933333D02*
X137935771Y-81885714D01*
X137935771Y-81885714D02*
X138173866Y-81885714D01*
X138173866Y-81885714D02*
X138364342Y-81933333D01*
X138364342Y-81933333D02*
X138459580Y-81980952D01*
X138459580Y-81980952D02*
X138507200Y-82028571D01*
X138507200Y-82028571D02*
X138554819Y-82123809D01*
X138554819Y-82123809D02*
X138554819Y-82219047D01*
X138554819Y-82219047D02*
X138507200Y-82314285D01*
X138507200Y-82314285D02*
X138459580Y-82361904D01*
X138459580Y-82361904D02*
X138364342Y-82409523D01*
X138364342Y-82409523D02*
X138173866Y-82457142D01*
X138173866Y-82457142D02*
X137935771Y-82457142D01*
X137935771Y-82457142D02*
X137745295Y-82409523D01*
X137745295Y-82409523D02*
X137650057Y-82361904D01*
X137650057Y-82361904D02*
X137602438Y-82314285D01*
X137602438Y-82314285D02*
X137554819Y-82219047D01*
X138554819Y-80933333D02*
X138554819Y-81504761D01*
X138554819Y-81219047D02*
X137554819Y-81219047D01*
X137554819Y-81219047D02*
X137697676Y-81314285D01*
X137697676Y-81314285D02*
X137792914Y-81409523D01*
X137792914Y-81409523D02*
X137840533Y-81504761D01*
X318554819Y-84647619D02*
X318078628Y-84980952D01*
X318554819Y-85219047D02*
X317554819Y-85219047D01*
X317554819Y-85219047D02*
X317554819Y-84838095D01*
X317554819Y-84838095D02*
X317602438Y-84742857D01*
X317602438Y-84742857D02*
X317650057Y-84695238D01*
X317650057Y-84695238D02*
X317745295Y-84647619D01*
X317745295Y-84647619D02*
X317888152Y-84647619D01*
X317888152Y-84647619D02*
X317983390Y-84695238D01*
X317983390Y-84695238D02*
X318031009Y-84742857D01*
X318031009Y-84742857D02*
X318078628Y-84838095D01*
X318078628Y-84838095D02*
X318078628Y-85219047D01*
X317554819Y-84361904D02*
X318554819Y-84028571D01*
X318554819Y-84028571D02*
X317554819Y-83695238D01*
X318554819Y-82838095D02*
X318554819Y-83409523D01*
X318554819Y-83123809D02*
X317554819Y-83123809D01*
X317554819Y-83123809D02*
X317697676Y-83219047D01*
X317697676Y-83219047D02*
X317792914Y-83314285D01*
X317792914Y-83314285D02*
X317840533Y-83409523D01*
X318554819Y-81885714D02*
X318554819Y-82457142D01*
X318554819Y-82171428D02*
X317554819Y-82171428D01*
X317554819Y-82171428D02*
X317697676Y-82266666D01*
X317697676Y-82266666D02*
X317792914Y-82361904D01*
X317792914Y-82361904D02*
X317840533Y-82457142D01*
X317554819Y-81552380D02*
X317554819Y-80933333D01*
X317554819Y-80933333D02*
X317935771Y-81266666D01*
X317935771Y-81266666D02*
X317935771Y-81123809D01*
X317935771Y-81123809D02*
X317983390Y-81028571D01*
X317983390Y-81028571D02*
X318031009Y-80980952D01*
X318031009Y-80980952D02*
X318126247Y-80933333D01*
X318126247Y-80933333D02*
X318364342Y-80933333D01*
X318364342Y-80933333D02*
X318459580Y-80980952D01*
X318459580Y-80980952D02*
X318507200Y-81028571D01*
X318507200Y-81028571D02*
X318554819Y-81123809D01*
X318554819Y-81123809D02*
X318554819Y-81409523D01*
X318554819Y-81409523D02*
X318507200Y-81504761D01*
X318507200Y-81504761D02*
X318459580Y-81552380D01*
X258554819Y-84647619D02*
X258078628Y-84980952D01*
X258554819Y-85219047D02*
X257554819Y-85219047D01*
X257554819Y-85219047D02*
X257554819Y-84838095D01*
X257554819Y-84838095D02*
X257602438Y-84742857D01*
X257602438Y-84742857D02*
X257650057Y-84695238D01*
X257650057Y-84695238D02*
X257745295Y-84647619D01*
X257745295Y-84647619D02*
X257888152Y-84647619D01*
X257888152Y-84647619D02*
X257983390Y-84695238D01*
X257983390Y-84695238D02*
X258031009Y-84742857D01*
X258031009Y-84742857D02*
X258078628Y-84838095D01*
X258078628Y-84838095D02*
X258078628Y-85219047D01*
X257554819Y-84361904D02*
X258554819Y-84028571D01*
X258554819Y-84028571D02*
X257554819Y-83695238D01*
X258554819Y-82838095D02*
X258554819Y-83409523D01*
X258554819Y-83123809D02*
X257554819Y-83123809D01*
X257554819Y-83123809D02*
X257697676Y-83219047D01*
X257697676Y-83219047D02*
X257792914Y-83314285D01*
X257792914Y-83314285D02*
X257840533Y-83409523D01*
X258554819Y-81885714D02*
X258554819Y-82457142D01*
X258554819Y-82171428D02*
X257554819Y-82171428D01*
X257554819Y-82171428D02*
X257697676Y-82266666D01*
X257697676Y-82266666D02*
X257792914Y-82361904D01*
X257792914Y-82361904D02*
X257840533Y-82457142D01*
X258554819Y-80933333D02*
X258554819Y-81504761D01*
X258554819Y-81219047D02*
X257554819Y-81219047D01*
X257554819Y-81219047D02*
X257697676Y-81314285D01*
X257697676Y-81314285D02*
X257792914Y-81409523D01*
X257792914Y-81409523D02*
X257840533Y-81504761D01*
X298554819Y-84647619D02*
X298078628Y-84980952D01*
X298554819Y-85219047D02*
X297554819Y-85219047D01*
X297554819Y-85219047D02*
X297554819Y-84838095D01*
X297554819Y-84838095D02*
X297602438Y-84742857D01*
X297602438Y-84742857D02*
X297650057Y-84695238D01*
X297650057Y-84695238D02*
X297745295Y-84647619D01*
X297745295Y-84647619D02*
X297888152Y-84647619D01*
X297888152Y-84647619D02*
X297983390Y-84695238D01*
X297983390Y-84695238D02*
X298031009Y-84742857D01*
X298031009Y-84742857D02*
X298078628Y-84838095D01*
X298078628Y-84838095D02*
X298078628Y-85219047D01*
X297554819Y-84361904D02*
X298554819Y-84028571D01*
X298554819Y-84028571D02*
X297554819Y-83695238D01*
X298554819Y-82838095D02*
X298554819Y-83409523D01*
X298554819Y-83123809D02*
X297554819Y-83123809D01*
X297554819Y-83123809D02*
X297697676Y-83219047D01*
X297697676Y-83219047D02*
X297792914Y-83314285D01*
X297792914Y-83314285D02*
X297840533Y-83409523D01*
X297554819Y-82219047D02*
X297554819Y-82123809D01*
X297554819Y-82123809D02*
X297602438Y-82028571D01*
X297602438Y-82028571D02*
X297650057Y-81980952D01*
X297650057Y-81980952D02*
X297745295Y-81933333D01*
X297745295Y-81933333D02*
X297935771Y-81885714D01*
X297935771Y-81885714D02*
X298173866Y-81885714D01*
X298173866Y-81885714D02*
X298364342Y-81933333D01*
X298364342Y-81933333D02*
X298459580Y-81980952D01*
X298459580Y-81980952D02*
X298507200Y-82028571D01*
X298507200Y-82028571D02*
X298554819Y-82123809D01*
X298554819Y-82123809D02*
X298554819Y-82219047D01*
X298554819Y-82219047D02*
X298507200Y-82314285D01*
X298507200Y-82314285D02*
X298459580Y-82361904D01*
X298459580Y-82361904D02*
X298364342Y-82409523D01*
X298364342Y-82409523D02*
X298173866Y-82457142D01*
X298173866Y-82457142D02*
X297935771Y-82457142D01*
X297935771Y-82457142D02*
X297745295Y-82409523D01*
X297745295Y-82409523D02*
X297650057Y-82361904D01*
X297650057Y-82361904D02*
X297602438Y-82314285D01*
X297602438Y-82314285D02*
X297554819Y-82219047D01*
X298554819Y-81409523D02*
X298554819Y-81219047D01*
X298554819Y-81219047D02*
X298507200Y-81123809D01*
X298507200Y-81123809D02*
X298459580Y-81076190D01*
X298459580Y-81076190D02*
X298316723Y-80980952D01*
X298316723Y-80980952D02*
X298126247Y-80933333D01*
X298126247Y-80933333D02*
X297745295Y-80933333D01*
X297745295Y-80933333D02*
X297650057Y-80980952D01*
X297650057Y-80980952D02*
X297602438Y-81028571D01*
X297602438Y-81028571D02*
X297554819Y-81123809D01*
X297554819Y-81123809D02*
X297554819Y-81314285D01*
X297554819Y-81314285D02*
X297602438Y-81409523D01*
X297602438Y-81409523D02*
X297650057Y-81457142D01*
X297650057Y-81457142D02*
X297745295Y-81504761D01*
X297745295Y-81504761D02*
X297983390Y-81504761D01*
X297983390Y-81504761D02*
X298078628Y-81457142D01*
X298078628Y-81457142D02*
X298126247Y-81409523D01*
X298126247Y-81409523D02*
X298173866Y-81314285D01*
X298173866Y-81314285D02*
X298173866Y-81123809D01*
X298173866Y-81123809D02*
X298126247Y-81028571D01*
X298126247Y-81028571D02*
X298078628Y-80980952D01*
X298078628Y-80980952D02*
X297983390Y-80933333D01*
X378554819Y-84647619D02*
X378078628Y-84980952D01*
X378554819Y-85219047D02*
X377554819Y-85219047D01*
X377554819Y-85219047D02*
X377554819Y-84838095D01*
X377554819Y-84838095D02*
X377602438Y-84742857D01*
X377602438Y-84742857D02*
X377650057Y-84695238D01*
X377650057Y-84695238D02*
X377745295Y-84647619D01*
X377745295Y-84647619D02*
X377888152Y-84647619D01*
X377888152Y-84647619D02*
X377983390Y-84695238D01*
X377983390Y-84695238D02*
X378031009Y-84742857D01*
X378031009Y-84742857D02*
X378078628Y-84838095D01*
X378078628Y-84838095D02*
X378078628Y-85219047D01*
X377554819Y-84361904D02*
X378554819Y-84028571D01*
X378554819Y-84028571D02*
X377554819Y-83695238D01*
X378554819Y-82838095D02*
X378554819Y-83409523D01*
X378554819Y-83123809D02*
X377554819Y-83123809D01*
X377554819Y-83123809D02*
X377697676Y-83219047D01*
X377697676Y-83219047D02*
X377792914Y-83314285D01*
X377792914Y-83314285D02*
X377840533Y-83409523D01*
X378554819Y-81885714D02*
X378554819Y-82457142D01*
X378554819Y-82171428D02*
X377554819Y-82171428D01*
X377554819Y-82171428D02*
X377697676Y-82266666D01*
X377697676Y-82266666D02*
X377792914Y-82361904D01*
X377792914Y-82361904D02*
X377840533Y-82457142D01*
X377554819Y-81028571D02*
X377554819Y-81219047D01*
X377554819Y-81219047D02*
X377602438Y-81314285D01*
X377602438Y-81314285D02*
X377650057Y-81361904D01*
X377650057Y-81361904D02*
X377792914Y-81457142D01*
X377792914Y-81457142D02*
X377983390Y-81504761D01*
X377983390Y-81504761D02*
X378364342Y-81504761D01*
X378364342Y-81504761D02*
X378459580Y-81457142D01*
X378459580Y-81457142D02*
X378507200Y-81409523D01*
X378507200Y-81409523D02*
X378554819Y-81314285D01*
X378554819Y-81314285D02*
X378554819Y-81123809D01*
X378554819Y-81123809D02*
X378507200Y-81028571D01*
X378507200Y-81028571D02*
X378459580Y-80980952D01*
X378459580Y-80980952D02*
X378364342Y-80933333D01*
X378364342Y-80933333D02*
X378126247Y-80933333D01*
X378126247Y-80933333D02*
X378031009Y-80980952D01*
X378031009Y-80980952D02*
X377983390Y-81028571D01*
X377983390Y-81028571D02*
X377935771Y-81123809D01*
X377935771Y-81123809D02*
X377935771Y-81314285D01*
X377935771Y-81314285D02*
X377983390Y-81409523D01*
X377983390Y-81409523D02*
X378031009Y-81457142D01*
X378031009Y-81457142D02*
X378126247Y-81504761D01*
X238554819Y-84647619D02*
X238078628Y-84980952D01*
X238554819Y-85219047D02*
X237554819Y-85219047D01*
X237554819Y-85219047D02*
X237554819Y-84838095D01*
X237554819Y-84838095D02*
X237602438Y-84742857D01*
X237602438Y-84742857D02*
X237650057Y-84695238D01*
X237650057Y-84695238D02*
X237745295Y-84647619D01*
X237745295Y-84647619D02*
X237888152Y-84647619D01*
X237888152Y-84647619D02*
X237983390Y-84695238D01*
X237983390Y-84695238D02*
X238031009Y-84742857D01*
X238031009Y-84742857D02*
X238078628Y-84838095D01*
X238078628Y-84838095D02*
X238078628Y-85219047D01*
X237554819Y-84361904D02*
X238554819Y-84028571D01*
X238554819Y-84028571D02*
X237554819Y-83695238D01*
X238554819Y-82838095D02*
X238554819Y-83409523D01*
X238554819Y-83123809D02*
X237554819Y-83123809D01*
X237554819Y-83123809D02*
X237697676Y-83219047D01*
X237697676Y-83219047D02*
X237792914Y-83314285D01*
X237792914Y-83314285D02*
X237840533Y-83409523D01*
X238554819Y-81885714D02*
X238554819Y-82457142D01*
X238554819Y-82171428D02*
X237554819Y-82171428D01*
X237554819Y-82171428D02*
X237697676Y-82266666D01*
X237697676Y-82266666D02*
X237792914Y-82361904D01*
X237792914Y-82361904D02*
X237840533Y-82457142D01*
X237554819Y-81266666D02*
X237554819Y-81171428D01*
X237554819Y-81171428D02*
X237602438Y-81076190D01*
X237602438Y-81076190D02*
X237650057Y-81028571D01*
X237650057Y-81028571D02*
X237745295Y-80980952D01*
X237745295Y-80980952D02*
X237935771Y-80933333D01*
X237935771Y-80933333D02*
X238173866Y-80933333D01*
X238173866Y-80933333D02*
X238364342Y-80980952D01*
X238364342Y-80980952D02*
X238459580Y-81028571D01*
X238459580Y-81028571D02*
X238507200Y-81076190D01*
X238507200Y-81076190D02*
X238554819Y-81171428D01*
X238554819Y-81171428D02*
X238554819Y-81266666D01*
X238554819Y-81266666D02*
X238507200Y-81361904D01*
X238507200Y-81361904D02*
X238459580Y-81409523D01*
X238459580Y-81409523D02*
X238364342Y-81457142D01*
X238364342Y-81457142D02*
X238173866Y-81504761D01*
X238173866Y-81504761D02*
X237935771Y-81504761D01*
X237935771Y-81504761D02*
X237745295Y-81457142D01*
X237745295Y-81457142D02*
X237650057Y-81409523D01*
X237650057Y-81409523D02*
X237602438Y-81361904D01*
X237602438Y-81361904D02*
X237554819Y-81266666D01*
X78554819Y-84647619D02*
X78078628Y-84980952D01*
X78554819Y-85219047D02*
X77554819Y-85219047D01*
X77554819Y-85219047D02*
X77554819Y-84838095D01*
X77554819Y-84838095D02*
X77602438Y-84742857D01*
X77602438Y-84742857D02*
X77650057Y-84695238D01*
X77650057Y-84695238D02*
X77745295Y-84647619D01*
X77745295Y-84647619D02*
X77888152Y-84647619D01*
X77888152Y-84647619D02*
X77983390Y-84695238D01*
X77983390Y-84695238D02*
X78031009Y-84742857D01*
X78031009Y-84742857D02*
X78078628Y-84838095D01*
X78078628Y-84838095D02*
X78078628Y-85219047D01*
X77554819Y-84361904D02*
X78554819Y-84028571D01*
X78554819Y-84028571D02*
X77554819Y-83695238D01*
X78554819Y-82838095D02*
X78554819Y-83409523D01*
X78554819Y-83123809D02*
X77554819Y-83123809D01*
X77554819Y-83123809D02*
X77697676Y-83219047D01*
X77697676Y-83219047D02*
X77792914Y-83314285D01*
X77792914Y-83314285D02*
X77840533Y-83409523D01*
X77554819Y-82219047D02*
X77554819Y-82123809D01*
X77554819Y-82123809D02*
X77602438Y-82028571D01*
X77602438Y-82028571D02*
X77650057Y-81980952D01*
X77650057Y-81980952D02*
X77745295Y-81933333D01*
X77745295Y-81933333D02*
X77935771Y-81885714D01*
X77935771Y-81885714D02*
X78173866Y-81885714D01*
X78173866Y-81885714D02*
X78364342Y-81933333D01*
X78364342Y-81933333D02*
X78459580Y-81980952D01*
X78459580Y-81980952D02*
X78507200Y-82028571D01*
X78507200Y-82028571D02*
X78554819Y-82123809D01*
X78554819Y-82123809D02*
X78554819Y-82219047D01*
X78554819Y-82219047D02*
X78507200Y-82314285D01*
X78507200Y-82314285D02*
X78459580Y-82361904D01*
X78459580Y-82361904D02*
X78364342Y-82409523D01*
X78364342Y-82409523D02*
X78173866Y-82457142D01*
X78173866Y-82457142D02*
X77935771Y-82457142D01*
X77935771Y-82457142D02*
X77745295Y-82409523D01*
X77745295Y-82409523D02*
X77650057Y-82361904D01*
X77650057Y-82361904D02*
X77602438Y-82314285D01*
X77602438Y-82314285D02*
X77554819Y-82219047D01*
X77650057Y-81504761D02*
X77602438Y-81457142D01*
X77602438Y-81457142D02*
X77554819Y-81361904D01*
X77554819Y-81361904D02*
X77554819Y-81123809D01*
X77554819Y-81123809D02*
X77602438Y-81028571D01*
X77602438Y-81028571D02*
X77650057Y-80980952D01*
X77650057Y-80980952D02*
X77745295Y-80933333D01*
X77745295Y-80933333D02*
X77840533Y-80933333D01*
X77840533Y-80933333D02*
X77983390Y-80980952D01*
X77983390Y-80980952D02*
X78554819Y-81552380D01*
X78554819Y-81552380D02*
X78554819Y-80933333D01*
X263354819Y-63268214D02*
X264069104Y-63268214D01*
X264069104Y-63268214D02*
X264211961Y-63315833D01*
X264211961Y-63315833D02*
X264307200Y-63411071D01*
X264307200Y-63411071D02*
X264354819Y-63553928D01*
X264354819Y-63553928D02*
X264354819Y-63649166D01*
X264354819Y-62268214D02*
X264354819Y-62839642D01*
X264354819Y-62553928D02*
X263354819Y-62553928D01*
X263354819Y-62553928D02*
X263497676Y-62649166D01*
X263497676Y-62649166D02*
X263592914Y-62744404D01*
X263592914Y-62744404D02*
X263640533Y-62839642D01*
X263354819Y-61649166D02*
X263354819Y-61553928D01*
X263354819Y-61553928D02*
X263402438Y-61458690D01*
X263402438Y-61458690D02*
X263450057Y-61411071D01*
X263450057Y-61411071D02*
X263545295Y-61363452D01*
X263545295Y-61363452D02*
X263735771Y-61315833D01*
X263735771Y-61315833D02*
X263973866Y-61315833D01*
X263973866Y-61315833D02*
X264164342Y-61363452D01*
X264164342Y-61363452D02*
X264259580Y-61411071D01*
X264259580Y-61411071D02*
X264307200Y-61458690D01*
X264307200Y-61458690D02*
X264354819Y-61553928D01*
X264354819Y-61553928D02*
X264354819Y-61649166D01*
X264354819Y-61649166D02*
X264307200Y-61744404D01*
X264307200Y-61744404D02*
X264259580Y-61792023D01*
X264259580Y-61792023D02*
X264164342Y-61839642D01*
X264164342Y-61839642D02*
X263973866Y-61887261D01*
X263973866Y-61887261D02*
X263735771Y-61887261D01*
X263735771Y-61887261D02*
X263545295Y-61839642D01*
X263545295Y-61839642D02*
X263450057Y-61792023D01*
X263450057Y-61792023D02*
X263402438Y-61744404D01*
X263402438Y-61744404D02*
X263354819Y-61649166D01*
X263450057Y-60934880D02*
X263402438Y-60887261D01*
X263402438Y-60887261D02*
X263354819Y-60792023D01*
X263354819Y-60792023D02*
X263354819Y-60553928D01*
X263354819Y-60553928D02*
X263402438Y-60458690D01*
X263402438Y-60458690D02*
X263450057Y-60411071D01*
X263450057Y-60411071D02*
X263545295Y-60363452D01*
X263545295Y-60363452D02*
X263640533Y-60363452D01*
X263640533Y-60363452D02*
X263783390Y-60411071D01*
X263783390Y-60411071D02*
X264354819Y-60982499D01*
X264354819Y-60982499D02*
X264354819Y-60363452D01*
X338554819Y-84647619D02*
X338078628Y-84980952D01*
X338554819Y-85219047D02*
X337554819Y-85219047D01*
X337554819Y-85219047D02*
X337554819Y-84838095D01*
X337554819Y-84838095D02*
X337602438Y-84742857D01*
X337602438Y-84742857D02*
X337650057Y-84695238D01*
X337650057Y-84695238D02*
X337745295Y-84647619D01*
X337745295Y-84647619D02*
X337888152Y-84647619D01*
X337888152Y-84647619D02*
X337983390Y-84695238D01*
X337983390Y-84695238D02*
X338031009Y-84742857D01*
X338031009Y-84742857D02*
X338078628Y-84838095D01*
X338078628Y-84838095D02*
X338078628Y-85219047D01*
X337554819Y-84361904D02*
X338554819Y-84028571D01*
X338554819Y-84028571D02*
X337554819Y-83695238D01*
X338554819Y-82838095D02*
X338554819Y-83409523D01*
X338554819Y-83123809D02*
X337554819Y-83123809D01*
X337554819Y-83123809D02*
X337697676Y-83219047D01*
X337697676Y-83219047D02*
X337792914Y-83314285D01*
X337792914Y-83314285D02*
X337840533Y-83409523D01*
X338554819Y-81885714D02*
X338554819Y-82457142D01*
X338554819Y-82171428D02*
X337554819Y-82171428D01*
X337554819Y-82171428D02*
X337697676Y-82266666D01*
X337697676Y-82266666D02*
X337792914Y-82361904D01*
X337792914Y-82361904D02*
X337840533Y-82457142D01*
X337888152Y-81028571D02*
X338554819Y-81028571D01*
X337507200Y-81266666D02*
X338221485Y-81504761D01*
X338221485Y-81504761D02*
X338221485Y-80885714D01*
X198554819Y-84647619D02*
X198078628Y-84980952D01*
X198554819Y-85219047D02*
X197554819Y-85219047D01*
X197554819Y-85219047D02*
X197554819Y-84838095D01*
X197554819Y-84838095D02*
X197602438Y-84742857D01*
X197602438Y-84742857D02*
X197650057Y-84695238D01*
X197650057Y-84695238D02*
X197745295Y-84647619D01*
X197745295Y-84647619D02*
X197888152Y-84647619D01*
X197888152Y-84647619D02*
X197983390Y-84695238D01*
X197983390Y-84695238D02*
X198031009Y-84742857D01*
X198031009Y-84742857D02*
X198078628Y-84838095D01*
X198078628Y-84838095D02*
X198078628Y-85219047D01*
X197554819Y-84361904D02*
X198554819Y-84028571D01*
X198554819Y-84028571D02*
X197554819Y-83695238D01*
X198554819Y-82838095D02*
X198554819Y-83409523D01*
X198554819Y-83123809D02*
X197554819Y-83123809D01*
X197554819Y-83123809D02*
X197697676Y-83219047D01*
X197697676Y-83219047D02*
X197792914Y-83314285D01*
X197792914Y-83314285D02*
X197840533Y-83409523D01*
X197554819Y-82219047D02*
X197554819Y-82123809D01*
X197554819Y-82123809D02*
X197602438Y-82028571D01*
X197602438Y-82028571D02*
X197650057Y-81980952D01*
X197650057Y-81980952D02*
X197745295Y-81933333D01*
X197745295Y-81933333D02*
X197935771Y-81885714D01*
X197935771Y-81885714D02*
X198173866Y-81885714D01*
X198173866Y-81885714D02*
X198364342Y-81933333D01*
X198364342Y-81933333D02*
X198459580Y-81980952D01*
X198459580Y-81980952D02*
X198507200Y-82028571D01*
X198507200Y-82028571D02*
X198554819Y-82123809D01*
X198554819Y-82123809D02*
X198554819Y-82219047D01*
X198554819Y-82219047D02*
X198507200Y-82314285D01*
X198507200Y-82314285D02*
X198459580Y-82361904D01*
X198459580Y-82361904D02*
X198364342Y-82409523D01*
X198364342Y-82409523D02*
X198173866Y-82457142D01*
X198173866Y-82457142D02*
X197935771Y-82457142D01*
X197935771Y-82457142D02*
X197745295Y-82409523D01*
X197745295Y-82409523D02*
X197650057Y-82361904D01*
X197650057Y-82361904D02*
X197602438Y-82314285D01*
X197602438Y-82314285D02*
X197554819Y-82219047D01*
X197983390Y-81314285D02*
X197935771Y-81409523D01*
X197935771Y-81409523D02*
X197888152Y-81457142D01*
X197888152Y-81457142D02*
X197792914Y-81504761D01*
X197792914Y-81504761D02*
X197745295Y-81504761D01*
X197745295Y-81504761D02*
X197650057Y-81457142D01*
X197650057Y-81457142D02*
X197602438Y-81409523D01*
X197602438Y-81409523D02*
X197554819Y-81314285D01*
X197554819Y-81314285D02*
X197554819Y-81123809D01*
X197554819Y-81123809D02*
X197602438Y-81028571D01*
X197602438Y-81028571D02*
X197650057Y-80980952D01*
X197650057Y-80980952D02*
X197745295Y-80933333D01*
X197745295Y-80933333D02*
X197792914Y-80933333D01*
X197792914Y-80933333D02*
X197888152Y-80980952D01*
X197888152Y-80980952D02*
X197935771Y-81028571D01*
X197935771Y-81028571D02*
X197983390Y-81123809D01*
X197983390Y-81123809D02*
X197983390Y-81314285D01*
X197983390Y-81314285D02*
X198031009Y-81409523D01*
X198031009Y-81409523D02*
X198078628Y-81457142D01*
X198078628Y-81457142D02*
X198173866Y-81504761D01*
X198173866Y-81504761D02*
X198364342Y-81504761D01*
X198364342Y-81504761D02*
X198459580Y-81457142D01*
X198459580Y-81457142D02*
X198507200Y-81409523D01*
X198507200Y-81409523D02*
X198554819Y-81314285D01*
X198554819Y-81314285D02*
X198554819Y-81123809D01*
X198554819Y-81123809D02*
X198507200Y-81028571D01*
X198507200Y-81028571D02*
X198459580Y-80980952D01*
X198459580Y-80980952D02*
X198364342Y-80933333D01*
X198364342Y-80933333D02*
X198173866Y-80933333D01*
X198173866Y-80933333D02*
X198078628Y-80980952D01*
X198078628Y-80980952D02*
X198031009Y-81028571D01*
X198031009Y-81028571D02*
X197983390Y-81123809D01*
X98554819Y-84647619D02*
X98078628Y-84980952D01*
X98554819Y-85219047D02*
X97554819Y-85219047D01*
X97554819Y-85219047D02*
X97554819Y-84838095D01*
X97554819Y-84838095D02*
X97602438Y-84742857D01*
X97602438Y-84742857D02*
X97650057Y-84695238D01*
X97650057Y-84695238D02*
X97745295Y-84647619D01*
X97745295Y-84647619D02*
X97888152Y-84647619D01*
X97888152Y-84647619D02*
X97983390Y-84695238D01*
X97983390Y-84695238D02*
X98031009Y-84742857D01*
X98031009Y-84742857D02*
X98078628Y-84838095D01*
X98078628Y-84838095D02*
X98078628Y-85219047D01*
X97554819Y-84361904D02*
X98554819Y-84028571D01*
X98554819Y-84028571D02*
X97554819Y-83695238D01*
X98554819Y-82838095D02*
X98554819Y-83409523D01*
X98554819Y-83123809D02*
X97554819Y-83123809D01*
X97554819Y-83123809D02*
X97697676Y-83219047D01*
X97697676Y-83219047D02*
X97792914Y-83314285D01*
X97792914Y-83314285D02*
X97840533Y-83409523D01*
X97554819Y-82219047D02*
X97554819Y-82123809D01*
X97554819Y-82123809D02*
X97602438Y-82028571D01*
X97602438Y-82028571D02*
X97650057Y-81980952D01*
X97650057Y-81980952D02*
X97745295Y-81933333D01*
X97745295Y-81933333D02*
X97935771Y-81885714D01*
X97935771Y-81885714D02*
X98173866Y-81885714D01*
X98173866Y-81885714D02*
X98364342Y-81933333D01*
X98364342Y-81933333D02*
X98459580Y-81980952D01*
X98459580Y-81980952D02*
X98507200Y-82028571D01*
X98507200Y-82028571D02*
X98554819Y-82123809D01*
X98554819Y-82123809D02*
X98554819Y-82219047D01*
X98554819Y-82219047D02*
X98507200Y-82314285D01*
X98507200Y-82314285D02*
X98459580Y-82361904D01*
X98459580Y-82361904D02*
X98364342Y-82409523D01*
X98364342Y-82409523D02*
X98173866Y-82457142D01*
X98173866Y-82457142D02*
X97935771Y-82457142D01*
X97935771Y-82457142D02*
X97745295Y-82409523D01*
X97745295Y-82409523D02*
X97650057Y-82361904D01*
X97650057Y-82361904D02*
X97602438Y-82314285D01*
X97602438Y-82314285D02*
X97554819Y-82219047D01*
X97554819Y-81552380D02*
X97554819Y-80933333D01*
X97554819Y-80933333D02*
X97935771Y-81266666D01*
X97935771Y-81266666D02*
X97935771Y-81123809D01*
X97935771Y-81123809D02*
X97983390Y-81028571D01*
X97983390Y-81028571D02*
X98031009Y-80980952D01*
X98031009Y-80980952D02*
X98126247Y-80933333D01*
X98126247Y-80933333D02*
X98364342Y-80933333D01*
X98364342Y-80933333D02*
X98459580Y-80980952D01*
X98459580Y-80980952D02*
X98507200Y-81028571D01*
X98507200Y-81028571D02*
X98554819Y-81123809D01*
X98554819Y-81123809D02*
X98554819Y-81409523D01*
X98554819Y-81409523D02*
X98507200Y-81504761D01*
X98507200Y-81504761D02*
X98459580Y-81552380D01*
X358554819Y-84647619D02*
X358078628Y-84980952D01*
X358554819Y-85219047D02*
X357554819Y-85219047D01*
X357554819Y-85219047D02*
X357554819Y-84838095D01*
X357554819Y-84838095D02*
X357602438Y-84742857D01*
X357602438Y-84742857D02*
X357650057Y-84695238D01*
X357650057Y-84695238D02*
X357745295Y-84647619D01*
X357745295Y-84647619D02*
X357888152Y-84647619D01*
X357888152Y-84647619D02*
X357983390Y-84695238D01*
X357983390Y-84695238D02*
X358031009Y-84742857D01*
X358031009Y-84742857D02*
X358078628Y-84838095D01*
X358078628Y-84838095D02*
X358078628Y-85219047D01*
X357554819Y-84361904D02*
X358554819Y-84028571D01*
X358554819Y-84028571D02*
X357554819Y-83695238D01*
X358554819Y-82838095D02*
X358554819Y-83409523D01*
X358554819Y-83123809D02*
X357554819Y-83123809D01*
X357554819Y-83123809D02*
X357697676Y-83219047D01*
X357697676Y-83219047D02*
X357792914Y-83314285D01*
X357792914Y-83314285D02*
X357840533Y-83409523D01*
X358554819Y-81885714D02*
X358554819Y-82457142D01*
X358554819Y-82171428D02*
X357554819Y-82171428D01*
X357554819Y-82171428D02*
X357697676Y-82266666D01*
X357697676Y-82266666D02*
X357792914Y-82361904D01*
X357792914Y-82361904D02*
X357840533Y-82457142D01*
X357554819Y-80980952D02*
X357554819Y-81457142D01*
X357554819Y-81457142D02*
X358031009Y-81504761D01*
X358031009Y-81504761D02*
X357983390Y-81457142D01*
X357983390Y-81457142D02*
X357935771Y-81361904D01*
X357935771Y-81361904D02*
X357935771Y-81123809D01*
X357935771Y-81123809D02*
X357983390Y-81028571D01*
X357983390Y-81028571D02*
X358031009Y-80980952D01*
X358031009Y-80980952D02*
X358126247Y-80933333D01*
X358126247Y-80933333D02*
X358364342Y-80933333D01*
X358364342Y-80933333D02*
X358459580Y-80980952D01*
X358459580Y-80980952D02*
X358507200Y-81028571D01*
X358507200Y-81028571D02*
X358554819Y-81123809D01*
X358554819Y-81123809D02*
X358554819Y-81361904D01*
X358554819Y-81361904D02*
X358507200Y-81457142D01*
X358507200Y-81457142D02*
X358459580Y-81504761D01*
X158554819Y-84647619D02*
X158078628Y-84980952D01*
X158554819Y-85219047D02*
X157554819Y-85219047D01*
X157554819Y-85219047D02*
X157554819Y-84838095D01*
X157554819Y-84838095D02*
X157602438Y-84742857D01*
X157602438Y-84742857D02*
X157650057Y-84695238D01*
X157650057Y-84695238D02*
X157745295Y-84647619D01*
X157745295Y-84647619D02*
X157888152Y-84647619D01*
X157888152Y-84647619D02*
X157983390Y-84695238D01*
X157983390Y-84695238D02*
X158031009Y-84742857D01*
X158031009Y-84742857D02*
X158078628Y-84838095D01*
X158078628Y-84838095D02*
X158078628Y-85219047D01*
X157554819Y-84361904D02*
X158554819Y-84028571D01*
X158554819Y-84028571D02*
X157554819Y-83695238D01*
X158554819Y-82838095D02*
X158554819Y-83409523D01*
X158554819Y-83123809D02*
X157554819Y-83123809D01*
X157554819Y-83123809D02*
X157697676Y-83219047D01*
X157697676Y-83219047D02*
X157792914Y-83314285D01*
X157792914Y-83314285D02*
X157840533Y-83409523D01*
X157554819Y-82219047D02*
X157554819Y-82123809D01*
X157554819Y-82123809D02*
X157602438Y-82028571D01*
X157602438Y-82028571D02*
X157650057Y-81980952D01*
X157650057Y-81980952D02*
X157745295Y-81933333D01*
X157745295Y-81933333D02*
X157935771Y-81885714D01*
X157935771Y-81885714D02*
X158173866Y-81885714D01*
X158173866Y-81885714D02*
X158364342Y-81933333D01*
X158364342Y-81933333D02*
X158459580Y-81980952D01*
X158459580Y-81980952D02*
X158507200Y-82028571D01*
X158507200Y-82028571D02*
X158554819Y-82123809D01*
X158554819Y-82123809D02*
X158554819Y-82219047D01*
X158554819Y-82219047D02*
X158507200Y-82314285D01*
X158507200Y-82314285D02*
X158459580Y-82361904D01*
X158459580Y-82361904D02*
X158364342Y-82409523D01*
X158364342Y-82409523D02*
X158173866Y-82457142D01*
X158173866Y-82457142D02*
X157935771Y-82457142D01*
X157935771Y-82457142D02*
X157745295Y-82409523D01*
X157745295Y-82409523D02*
X157650057Y-82361904D01*
X157650057Y-82361904D02*
X157602438Y-82314285D01*
X157602438Y-82314285D02*
X157554819Y-82219047D01*
X157554819Y-81028571D02*
X157554819Y-81219047D01*
X157554819Y-81219047D02*
X157602438Y-81314285D01*
X157602438Y-81314285D02*
X157650057Y-81361904D01*
X157650057Y-81361904D02*
X157792914Y-81457142D01*
X157792914Y-81457142D02*
X157983390Y-81504761D01*
X157983390Y-81504761D02*
X158364342Y-81504761D01*
X158364342Y-81504761D02*
X158459580Y-81457142D01*
X158459580Y-81457142D02*
X158507200Y-81409523D01*
X158507200Y-81409523D02*
X158554819Y-81314285D01*
X158554819Y-81314285D02*
X158554819Y-81123809D01*
X158554819Y-81123809D02*
X158507200Y-81028571D01*
X158507200Y-81028571D02*
X158459580Y-80980952D01*
X158459580Y-80980952D02*
X158364342Y-80933333D01*
X158364342Y-80933333D02*
X158126247Y-80933333D01*
X158126247Y-80933333D02*
X158031009Y-80980952D01*
X158031009Y-80980952D02*
X157983390Y-81028571D01*
X157983390Y-81028571D02*
X157935771Y-81123809D01*
X157935771Y-81123809D02*
X157935771Y-81314285D01*
X157935771Y-81314285D02*
X157983390Y-81409523D01*
X157983390Y-81409523D02*
X158031009Y-81457142D01*
X158031009Y-81457142D02*
X158126247Y-81504761D01*
X178554819Y-84647619D02*
X178078628Y-84980952D01*
X178554819Y-85219047D02*
X177554819Y-85219047D01*
X177554819Y-85219047D02*
X177554819Y-84838095D01*
X177554819Y-84838095D02*
X177602438Y-84742857D01*
X177602438Y-84742857D02*
X177650057Y-84695238D01*
X177650057Y-84695238D02*
X177745295Y-84647619D01*
X177745295Y-84647619D02*
X177888152Y-84647619D01*
X177888152Y-84647619D02*
X177983390Y-84695238D01*
X177983390Y-84695238D02*
X178031009Y-84742857D01*
X178031009Y-84742857D02*
X178078628Y-84838095D01*
X178078628Y-84838095D02*
X178078628Y-85219047D01*
X177554819Y-84361904D02*
X178554819Y-84028571D01*
X178554819Y-84028571D02*
X177554819Y-83695238D01*
X178554819Y-82838095D02*
X178554819Y-83409523D01*
X178554819Y-83123809D02*
X177554819Y-83123809D01*
X177554819Y-83123809D02*
X177697676Y-83219047D01*
X177697676Y-83219047D02*
X177792914Y-83314285D01*
X177792914Y-83314285D02*
X177840533Y-83409523D01*
X177554819Y-82219047D02*
X177554819Y-82123809D01*
X177554819Y-82123809D02*
X177602438Y-82028571D01*
X177602438Y-82028571D02*
X177650057Y-81980952D01*
X177650057Y-81980952D02*
X177745295Y-81933333D01*
X177745295Y-81933333D02*
X177935771Y-81885714D01*
X177935771Y-81885714D02*
X178173866Y-81885714D01*
X178173866Y-81885714D02*
X178364342Y-81933333D01*
X178364342Y-81933333D02*
X178459580Y-81980952D01*
X178459580Y-81980952D02*
X178507200Y-82028571D01*
X178507200Y-82028571D02*
X178554819Y-82123809D01*
X178554819Y-82123809D02*
X178554819Y-82219047D01*
X178554819Y-82219047D02*
X178507200Y-82314285D01*
X178507200Y-82314285D02*
X178459580Y-82361904D01*
X178459580Y-82361904D02*
X178364342Y-82409523D01*
X178364342Y-82409523D02*
X178173866Y-82457142D01*
X178173866Y-82457142D02*
X177935771Y-82457142D01*
X177935771Y-82457142D02*
X177745295Y-82409523D01*
X177745295Y-82409523D02*
X177650057Y-82361904D01*
X177650057Y-82361904D02*
X177602438Y-82314285D01*
X177602438Y-82314285D02*
X177554819Y-82219047D01*
X177554819Y-81552380D02*
X177554819Y-80885714D01*
X177554819Y-80885714D02*
X178554819Y-81314285D01*
X218554819Y-84647619D02*
X218078628Y-84980952D01*
X218554819Y-85219047D02*
X217554819Y-85219047D01*
X217554819Y-85219047D02*
X217554819Y-84838095D01*
X217554819Y-84838095D02*
X217602438Y-84742857D01*
X217602438Y-84742857D02*
X217650057Y-84695238D01*
X217650057Y-84695238D02*
X217745295Y-84647619D01*
X217745295Y-84647619D02*
X217888152Y-84647619D01*
X217888152Y-84647619D02*
X217983390Y-84695238D01*
X217983390Y-84695238D02*
X218031009Y-84742857D01*
X218031009Y-84742857D02*
X218078628Y-84838095D01*
X218078628Y-84838095D02*
X218078628Y-85219047D01*
X217554819Y-84361904D02*
X218554819Y-84028571D01*
X218554819Y-84028571D02*
X217554819Y-83695238D01*
X218554819Y-82838095D02*
X218554819Y-83409523D01*
X218554819Y-83123809D02*
X217554819Y-83123809D01*
X217554819Y-83123809D02*
X217697676Y-83219047D01*
X217697676Y-83219047D02*
X217792914Y-83314285D01*
X217792914Y-83314285D02*
X217840533Y-83409523D01*
X217554819Y-82219047D02*
X217554819Y-82123809D01*
X217554819Y-82123809D02*
X217602438Y-82028571D01*
X217602438Y-82028571D02*
X217650057Y-81980952D01*
X217650057Y-81980952D02*
X217745295Y-81933333D01*
X217745295Y-81933333D02*
X217935771Y-81885714D01*
X217935771Y-81885714D02*
X218173866Y-81885714D01*
X218173866Y-81885714D02*
X218364342Y-81933333D01*
X218364342Y-81933333D02*
X218459580Y-81980952D01*
X218459580Y-81980952D02*
X218507200Y-82028571D01*
X218507200Y-82028571D02*
X218554819Y-82123809D01*
X218554819Y-82123809D02*
X218554819Y-82219047D01*
X218554819Y-82219047D02*
X218507200Y-82314285D01*
X218507200Y-82314285D02*
X218459580Y-82361904D01*
X218459580Y-82361904D02*
X218364342Y-82409523D01*
X218364342Y-82409523D02*
X218173866Y-82457142D01*
X218173866Y-82457142D02*
X217935771Y-82457142D01*
X217935771Y-82457142D02*
X217745295Y-82409523D01*
X217745295Y-82409523D02*
X217650057Y-82361904D01*
X217650057Y-82361904D02*
X217602438Y-82314285D01*
X217602438Y-82314285D02*
X217554819Y-82219047D01*
X217554819Y-80980952D02*
X217554819Y-81457142D01*
X217554819Y-81457142D02*
X218031009Y-81504761D01*
X218031009Y-81504761D02*
X217983390Y-81457142D01*
X217983390Y-81457142D02*
X217935771Y-81361904D01*
X217935771Y-81361904D02*
X217935771Y-81123809D01*
X217935771Y-81123809D02*
X217983390Y-81028571D01*
X217983390Y-81028571D02*
X218031009Y-80980952D01*
X218031009Y-80980952D02*
X218126247Y-80933333D01*
X218126247Y-80933333D02*
X218364342Y-80933333D01*
X218364342Y-80933333D02*
X218459580Y-80980952D01*
X218459580Y-80980952D02*
X218507200Y-81028571D01*
X218507200Y-81028571D02*
X218554819Y-81123809D01*
X218554819Y-81123809D02*
X218554819Y-81361904D01*
X218554819Y-81361904D02*
X218507200Y-81457142D01*
X218507200Y-81457142D02*
X218459580Y-81504761D01*
X118554819Y-84647619D02*
X118078628Y-84980952D01*
X118554819Y-85219047D02*
X117554819Y-85219047D01*
X117554819Y-85219047D02*
X117554819Y-84838095D01*
X117554819Y-84838095D02*
X117602438Y-84742857D01*
X117602438Y-84742857D02*
X117650057Y-84695238D01*
X117650057Y-84695238D02*
X117745295Y-84647619D01*
X117745295Y-84647619D02*
X117888152Y-84647619D01*
X117888152Y-84647619D02*
X117983390Y-84695238D01*
X117983390Y-84695238D02*
X118031009Y-84742857D01*
X118031009Y-84742857D02*
X118078628Y-84838095D01*
X118078628Y-84838095D02*
X118078628Y-85219047D01*
X117554819Y-84361904D02*
X118554819Y-84028571D01*
X118554819Y-84028571D02*
X117554819Y-83695238D01*
X118554819Y-82838095D02*
X118554819Y-83409523D01*
X118554819Y-83123809D02*
X117554819Y-83123809D01*
X117554819Y-83123809D02*
X117697676Y-83219047D01*
X117697676Y-83219047D02*
X117792914Y-83314285D01*
X117792914Y-83314285D02*
X117840533Y-83409523D01*
X117554819Y-82219047D02*
X117554819Y-82123809D01*
X117554819Y-82123809D02*
X117602438Y-82028571D01*
X117602438Y-82028571D02*
X117650057Y-81980952D01*
X117650057Y-81980952D02*
X117745295Y-81933333D01*
X117745295Y-81933333D02*
X117935771Y-81885714D01*
X117935771Y-81885714D02*
X118173866Y-81885714D01*
X118173866Y-81885714D02*
X118364342Y-81933333D01*
X118364342Y-81933333D02*
X118459580Y-81980952D01*
X118459580Y-81980952D02*
X118507200Y-82028571D01*
X118507200Y-82028571D02*
X118554819Y-82123809D01*
X118554819Y-82123809D02*
X118554819Y-82219047D01*
X118554819Y-82219047D02*
X118507200Y-82314285D01*
X118507200Y-82314285D02*
X118459580Y-82361904D01*
X118459580Y-82361904D02*
X118364342Y-82409523D01*
X118364342Y-82409523D02*
X118173866Y-82457142D01*
X118173866Y-82457142D02*
X117935771Y-82457142D01*
X117935771Y-82457142D02*
X117745295Y-82409523D01*
X117745295Y-82409523D02*
X117650057Y-82361904D01*
X117650057Y-82361904D02*
X117602438Y-82314285D01*
X117602438Y-82314285D02*
X117554819Y-82219047D01*
X117888152Y-81028571D02*
X118554819Y-81028571D01*
X117507200Y-81266666D02*
X118221485Y-81504761D01*
X118221485Y-81504761D02*
X118221485Y-80885714D01*
X103354819Y-63268214D02*
X104069104Y-63268214D01*
X104069104Y-63268214D02*
X104211961Y-63315833D01*
X104211961Y-63315833D02*
X104307200Y-63411071D01*
X104307200Y-63411071D02*
X104354819Y-63553928D01*
X104354819Y-63553928D02*
X104354819Y-63649166D01*
X104354819Y-62268214D02*
X104354819Y-62839642D01*
X104354819Y-62553928D02*
X103354819Y-62553928D01*
X103354819Y-62553928D02*
X103497676Y-62649166D01*
X103497676Y-62649166D02*
X103592914Y-62744404D01*
X103592914Y-62744404D02*
X103640533Y-62839642D01*
X103354819Y-61649166D02*
X103354819Y-61553928D01*
X103354819Y-61553928D02*
X103402438Y-61458690D01*
X103402438Y-61458690D02*
X103450057Y-61411071D01*
X103450057Y-61411071D02*
X103545295Y-61363452D01*
X103545295Y-61363452D02*
X103735771Y-61315833D01*
X103735771Y-61315833D02*
X103973866Y-61315833D01*
X103973866Y-61315833D02*
X104164342Y-61363452D01*
X104164342Y-61363452D02*
X104259580Y-61411071D01*
X104259580Y-61411071D02*
X104307200Y-61458690D01*
X104307200Y-61458690D02*
X104354819Y-61553928D01*
X104354819Y-61553928D02*
X104354819Y-61649166D01*
X104354819Y-61649166D02*
X104307200Y-61744404D01*
X104307200Y-61744404D02*
X104259580Y-61792023D01*
X104259580Y-61792023D02*
X104164342Y-61839642D01*
X104164342Y-61839642D02*
X103973866Y-61887261D01*
X103973866Y-61887261D02*
X103735771Y-61887261D01*
X103735771Y-61887261D02*
X103545295Y-61839642D01*
X103545295Y-61839642D02*
X103450057Y-61792023D01*
X103450057Y-61792023D02*
X103402438Y-61744404D01*
X103402438Y-61744404D02*
X103354819Y-61649166D01*
X104354819Y-60363452D02*
X104354819Y-60934880D01*
X104354819Y-60649166D02*
X103354819Y-60649166D01*
X103354819Y-60649166D02*
X103497676Y-60744404D01*
X103497676Y-60744404D02*
X103592914Y-60839642D01*
X103592914Y-60839642D02*
X103640533Y-60934880D01*
%TO.C,C120*%
D13*
X259533000Y-63092000D02*
X253293000Y-63092000D01*
X259533000Y-62557000D02*
X259533000Y-63092000D01*
X259533000Y-60352000D02*
X259533000Y-60887000D01*
X253293000Y-63092000D02*
X253293000Y-62557000D01*
X253293000Y-60887000D02*
X253293000Y-60352000D01*
X253293000Y-60352000D02*
X259533000Y-60352000D01*
%TO.C,C119*%
X341370000Y-58880000D02*
X341370000Y-65120000D01*
X340835000Y-58880000D02*
X341370000Y-58880000D01*
X338630000Y-58880000D02*
X339165000Y-58880000D01*
X341370000Y-65120000D02*
X340835000Y-65120000D01*
X339165000Y-65120000D02*
X338630000Y-65120000D01*
X338630000Y-65120000D02*
X338630000Y-58880000D01*
%TO.C,C118*%
X184120000Y-63370000D02*
X177880000Y-63370000D01*
X184120000Y-62835000D02*
X184120000Y-63370000D01*
X184120000Y-60630000D02*
X184120000Y-61165000D01*
X177880000Y-63370000D02*
X177880000Y-62835000D01*
X177880000Y-61165000D02*
X177880000Y-60630000D01*
X177880000Y-60630000D02*
X184120000Y-60630000D01*
%TO.C,C117*%
X98325000Y-64715000D02*
X98325000Y-58475000D01*
X98860000Y-64715000D02*
X98325000Y-64715000D01*
X101065000Y-64715000D02*
X100530000Y-64715000D01*
X98325000Y-58475000D02*
X98860000Y-58475000D01*
X100530000Y-58475000D02*
X101065000Y-58475000D01*
X101065000Y-58475000D02*
X101065000Y-64715000D01*
%TO.C,C116*%
X362639600Y-76657200D02*
G75*
G02*
X357399600Y-76657200I-2620000J0D01*
G01*
X357399600Y-76657200D02*
G75*
G02*
X362639600Y-76657200I2620000J0D01*
G01*
%TO.C,C115*%
X342624400Y-76657200D02*
G75*
G02*
X337384400Y-76657200I-2620000J0D01*
G01*
X337384400Y-76657200D02*
G75*
G02*
X342624400Y-76657200I2620000J0D01*
G01*
%TO.C,C114*%
X322609200Y-76657200D02*
G75*
G02*
X317369200Y-76657200I-2620000J0D01*
G01*
X317369200Y-76657200D02*
G75*
G02*
X322609200Y-76657200I2620000J0D01*
G01*
%TO.C,C112*%
X262614400Y-76657200D02*
G75*
G02*
X257374400Y-76657200I-2620000J0D01*
G01*
X257374400Y-76657200D02*
G75*
G02*
X262614400Y-76657200I2620000J0D01*
G01*
%TO.C,C111*%
X242650000Y-76657200D02*
G75*
G02*
X237410000Y-76657200I-2620000J0D01*
G01*
X237410000Y-76657200D02*
G75*
G02*
X242650000Y-76657200I2620000J0D01*
G01*
%TO.C,C109*%
X282629600Y-76657200D02*
G75*
G02*
X277389600Y-76657200I-2620000J0D01*
G01*
X277389600Y-76657200D02*
G75*
G02*
X282629600Y-76657200I2620000J0D01*
G01*
%TO.C,C108*%
X182604400Y-76606400D02*
G75*
G02*
X177364400Y-76606400I-2620000J0D01*
G01*
X177364400Y-76606400D02*
G75*
G02*
X182604400Y-76606400I2620000J0D01*
G01*
%TO.C,C107*%
X162640000Y-76657200D02*
G75*
G02*
X157400000Y-76657200I-2620000J0D01*
G01*
X157400000Y-76657200D02*
G75*
G02*
X162640000Y-76657200I2620000J0D01*
G01*
%TO.C,C105*%
X202619600Y-76657200D02*
G75*
G02*
X197379600Y-76657200I-2620000J0D01*
G01*
X197379600Y-76657200D02*
G75*
G02*
X202619600Y-76657200I2620000J0D01*
G01*
%TO.C,C104*%
X112566200Y-72297800D02*
G75*
G02*
X107326200Y-72297800I-2620000J0D01*
G01*
X107326200Y-72297800D02*
G75*
G02*
X112566200Y-72297800I2620000J0D01*
G01*
%TO.C,C103*%
X92566200Y-72297800D02*
G75*
G02*
X87326200Y-72297800I-2620000J0D01*
G01*
X87326200Y-72297800D02*
G75*
G02*
X92566200Y-72297800I2620000J0D01*
G01*
%TO.C,C101*%
X132566200Y-72297800D02*
G75*
G02*
X127326200Y-72297800I-2620000J0D01*
G01*
X127326200Y-72297800D02*
G75*
G02*
X132566200Y-72297800I2620000J0D01*
G01*
%TO.C,C113*%
X302644800Y-76657200D02*
G75*
G02*
X297404800Y-76657200I-2620000J0D01*
G01*
X297404800Y-76657200D02*
G75*
G02*
X302644800Y-76657200I2620000J0D01*
G01*
%TO.C,C110*%
X222634800Y-76657200D02*
G75*
G02*
X217394800Y-76657200I-2620000J0D01*
G01*
X217394800Y-76657200D02*
G75*
G02*
X222634800Y-76657200I2620000J0D01*
G01*
%TO.C,C106*%
X142650200Y-76606400D02*
G75*
G02*
X137410200Y-76606400I-2620000J0D01*
G01*
X137410200Y-76606400D02*
G75*
G02*
X142650200Y-76606400I2620000J0D01*
G01*
%TO.C,C102*%
X72566200Y-72297800D02*
G75*
G02*
X67326200Y-72297800I-2620000J0D01*
G01*
X67326200Y-72297800D02*
G75*
G02*
X72566200Y-72297800I2620000J0D01*
G01*
%TO.C,RV112*%
X263830000Y-81041000D02*
X263830000Y-88220000D01*
X265380000Y-88220000D02*
X265380000Y-93220000D01*
X266880000Y-93220000D02*
X266880000Y-103220000D01*
X272394000Y-80529000D02*
X267605000Y-80529000D01*
X273120000Y-93220000D02*
X273120000Y-103220000D01*
X273120000Y-103220000D02*
X266880000Y-103220000D01*
X274620000Y-88220000D02*
X274620000Y-93220000D01*
X274620000Y-93220000D02*
X265380000Y-93220000D01*
X276170000Y-81041000D02*
X276170000Y-88220000D01*
X276170000Y-88220000D02*
X263830000Y-88220000D01*
%TO.C,RV101*%
X123830000Y-81041000D02*
X123830000Y-88220000D01*
X125380000Y-88220000D02*
X125380000Y-93220000D01*
X126880000Y-93220000D02*
X126880000Y-103220000D01*
X132394000Y-80529000D02*
X127605000Y-80529000D01*
X133120000Y-93220000D02*
X133120000Y-103220000D01*
X133120000Y-103220000D02*
X126880000Y-103220000D01*
X134620000Y-88220000D02*
X134620000Y-93220000D01*
X134620000Y-93220000D02*
X125380000Y-93220000D01*
X136170000Y-81041000D02*
X136170000Y-88220000D01*
X136170000Y-88220000D02*
X123830000Y-88220000D01*
%TO.C,RV113*%
X303830000Y-81041000D02*
X303830000Y-88220000D01*
X305380000Y-88220000D02*
X305380000Y-93220000D01*
X306880000Y-93220000D02*
X306880000Y-103220000D01*
X312394000Y-80529000D02*
X307605000Y-80529000D01*
X313120000Y-93220000D02*
X313120000Y-103220000D01*
X313120000Y-103220000D02*
X306880000Y-103220000D01*
X314620000Y-88220000D02*
X314620000Y-93220000D01*
X314620000Y-93220000D02*
X305380000Y-93220000D01*
X316170000Y-81041000D02*
X316170000Y-88220000D01*
X316170000Y-88220000D02*
X303830000Y-88220000D01*
%TO.C,RV111*%
X243830000Y-81041000D02*
X243830000Y-88220000D01*
X245380000Y-88220000D02*
X245380000Y-93220000D01*
X246880000Y-93220000D02*
X246880000Y-103220000D01*
X252394000Y-80529000D02*
X247605000Y-80529000D01*
X253120000Y-93220000D02*
X253120000Y-103220000D01*
X253120000Y-103220000D02*
X246880000Y-103220000D01*
X254620000Y-88220000D02*
X254620000Y-93220000D01*
X254620000Y-93220000D02*
X245380000Y-93220000D01*
X256170000Y-81041000D02*
X256170000Y-88220000D01*
X256170000Y-88220000D02*
X243830000Y-88220000D01*
%TO.C,RV109*%
X283830000Y-81041000D02*
X283830000Y-88220000D01*
X285380000Y-88220000D02*
X285380000Y-93220000D01*
X286880000Y-93220000D02*
X286880000Y-103220000D01*
X292394000Y-80529000D02*
X287605000Y-80529000D01*
X293120000Y-93220000D02*
X293120000Y-103220000D01*
X293120000Y-103220000D02*
X286880000Y-103220000D01*
X294620000Y-88220000D02*
X294620000Y-93220000D01*
X294620000Y-93220000D02*
X285380000Y-93220000D01*
X296170000Y-81041000D02*
X296170000Y-88220000D01*
X296170000Y-88220000D02*
X283830000Y-88220000D01*
%TO.C,RV116*%
X363830000Y-81041000D02*
X363830000Y-88220000D01*
X365380000Y-88220000D02*
X365380000Y-93220000D01*
X366880000Y-93220000D02*
X366880000Y-103220000D01*
X372394000Y-80529000D02*
X367605000Y-80529000D01*
X373120000Y-93220000D02*
X373120000Y-103220000D01*
X373120000Y-103220000D02*
X366880000Y-103220000D01*
X374620000Y-88220000D02*
X374620000Y-93220000D01*
X374620000Y-93220000D02*
X365380000Y-93220000D01*
X376170000Y-81041000D02*
X376170000Y-88220000D01*
X376170000Y-88220000D02*
X363830000Y-88220000D01*
%TO.C,RV110*%
X223830000Y-81041000D02*
X223830000Y-88220000D01*
X225380000Y-88220000D02*
X225380000Y-93220000D01*
X226880000Y-93220000D02*
X226880000Y-103220000D01*
X232394000Y-80529000D02*
X227605000Y-80529000D01*
X233120000Y-93220000D02*
X233120000Y-103220000D01*
X233120000Y-103220000D02*
X226880000Y-103220000D01*
X234620000Y-88220000D02*
X234620000Y-93220000D01*
X234620000Y-93220000D02*
X225380000Y-93220000D01*
X236170000Y-81041000D02*
X236170000Y-88220000D01*
X236170000Y-88220000D02*
X223830000Y-88220000D01*
%TO.C,RV102*%
X63830000Y-81041000D02*
X63830000Y-88220000D01*
X65380000Y-88220000D02*
X65380000Y-93220000D01*
X66880000Y-93220000D02*
X66880000Y-103220000D01*
X72394000Y-80529000D02*
X67605000Y-80529000D01*
X73120000Y-93220000D02*
X73120000Y-103220000D01*
X73120000Y-103220000D02*
X66880000Y-103220000D01*
X74620000Y-88220000D02*
X74620000Y-93220000D01*
X74620000Y-93220000D02*
X65380000Y-93220000D01*
X76170000Y-81041000D02*
X76170000Y-88220000D01*
X76170000Y-88220000D02*
X63830000Y-88220000D01*
%TO.C,J102*%
X264790000Y-57472500D02*
X335210000Y-57472500D01*
X264790000Y-66492500D02*
X264790000Y-57472500D01*
X271950000Y-58782500D02*
X328050000Y-58782500D01*
X271950000Y-65182500D02*
X271950000Y-58782500D01*
X275370000Y-67882500D02*
X276370000Y-67882500D01*
X275870000Y-66882500D02*
X275370000Y-67882500D01*
X276370000Y-67882500D02*
X275870000Y-66882500D01*
X297950000Y-65182500D02*
X271950000Y-65182500D01*
X297950000Y-66492500D02*
X297950000Y-65182500D01*
X302050000Y-65182500D02*
X302050000Y-66492500D01*
X328050000Y-58782500D02*
X328050000Y-65182500D01*
X328050000Y-65182500D02*
X302050000Y-65182500D01*
X335210000Y-57472500D02*
X335210000Y-66492500D01*
X335210000Y-66492500D02*
X264790000Y-66492500D01*
%TO.C,RV114*%
X323830000Y-81041000D02*
X323830000Y-88220000D01*
X325380000Y-88220000D02*
X325380000Y-93220000D01*
X326880000Y-93220000D02*
X326880000Y-103220000D01*
X332394000Y-80529000D02*
X327605000Y-80529000D01*
X333120000Y-93220000D02*
X333120000Y-103220000D01*
X333120000Y-103220000D02*
X326880000Y-103220000D01*
X334620000Y-88220000D02*
X334620000Y-93220000D01*
X334620000Y-93220000D02*
X325380000Y-93220000D01*
X336170000Y-81041000D02*
X336170000Y-88220000D01*
X336170000Y-88220000D02*
X323830000Y-88220000D01*
%TO.C,RV108*%
X183830000Y-81041000D02*
X183830000Y-88220000D01*
X185380000Y-88220000D02*
X185380000Y-93220000D01*
X186880000Y-93220000D02*
X186880000Y-103220000D01*
X192394000Y-80529000D02*
X187605000Y-80529000D01*
X193120000Y-93220000D02*
X193120000Y-103220000D01*
X193120000Y-103220000D02*
X186880000Y-103220000D01*
X194620000Y-88220000D02*
X194620000Y-93220000D01*
X194620000Y-93220000D02*
X185380000Y-93220000D01*
X196170000Y-81041000D02*
X196170000Y-88220000D01*
X196170000Y-88220000D02*
X183830000Y-88220000D01*
%TO.C,RV103*%
X83830000Y-81041000D02*
X83830000Y-88220000D01*
X85380000Y-88220000D02*
X85380000Y-93220000D01*
X86880000Y-93220000D02*
X86880000Y-103220000D01*
X92394000Y-80529000D02*
X87605000Y-80529000D01*
X93120000Y-93220000D02*
X93120000Y-103220000D01*
X93120000Y-103220000D02*
X86880000Y-103220000D01*
X94620000Y-88220000D02*
X94620000Y-93220000D01*
X94620000Y-93220000D02*
X85380000Y-93220000D01*
X96170000Y-81041000D02*
X96170000Y-88220000D01*
X96170000Y-88220000D02*
X83830000Y-88220000D01*
%TO.C,RV115*%
X343830000Y-81041000D02*
X343830000Y-88220000D01*
X345380000Y-88220000D02*
X345380000Y-93220000D01*
X346880000Y-93220000D02*
X346880000Y-103220000D01*
X352394000Y-80529000D02*
X347605000Y-80529000D01*
X353120000Y-93220000D02*
X353120000Y-103220000D01*
X353120000Y-103220000D02*
X346880000Y-103220000D01*
X354620000Y-88220000D02*
X354620000Y-93220000D01*
X354620000Y-93220000D02*
X345380000Y-93220000D01*
X356170000Y-81041000D02*
X356170000Y-88220000D01*
X356170000Y-88220000D02*
X343830000Y-88220000D01*
%TO.C,RV106*%
X143830000Y-81041000D02*
X143830000Y-88220000D01*
X145380000Y-88220000D02*
X145380000Y-93220000D01*
X146880000Y-93220000D02*
X146880000Y-103220000D01*
X152394000Y-80529000D02*
X147605000Y-80529000D01*
X153120000Y-93220000D02*
X153120000Y-103220000D01*
X153120000Y-103220000D02*
X146880000Y-103220000D01*
X154620000Y-88220000D02*
X154620000Y-93220000D01*
X154620000Y-93220000D02*
X145380000Y-93220000D01*
X156170000Y-81041000D02*
X156170000Y-88220000D01*
X156170000Y-88220000D02*
X143830000Y-88220000D01*
%TO.C,RV107*%
X163830000Y-81041000D02*
X163830000Y-88220000D01*
X165380000Y-88220000D02*
X165380000Y-93220000D01*
X166880000Y-93220000D02*
X166880000Y-103220000D01*
X172394000Y-80529000D02*
X167605000Y-80529000D01*
X173120000Y-93220000D02*
X173120000Y-103220000D01*
X173120000Y-103220000D02*
X166880000Y-103220000D01*
X174620000Y-88220000D02*
X174620000Y-93220000D01*
X174620000Y-93220000D02*
X165380000Y-93220000D01*
X176170000Y-81041000D02*
X176170000Y-88220000D01*
X176170000Y-88220000D02*
X163830000Y-88220000D01*
%TO.C,RV105*%
X203830000Y-81041000D02*
X203830000Y-88220000D01*
X205380000Y-88220000D02*
X205380000Y-93220000D01*
X206880000Y-93220000D02*
X206880000Y-103220000D01*
X212394000Y-80529000D02*
X207605000Y-80529000D01*
X213120000Y-93220000D02*
X213120000Y-103220000D01*
X213120000Y-103220000D02*
X206880000Y-103220000D01*
X214620000Y-88220000D02*
X214620000Y-93220000D01*
X214620000Y-93220000D02*
X205380000Y-93220000D01*
X216170000Y-81041000D02*
X216170000Y-88220000D01*
X216170000Y-88220000D02*
X203830000Y-88220000D01*
%TO.C,RV104*%
X103830000Y-81041000D02*
X103830000Y-88220000D01*
X105380000Y-88220000D02*
X105380000Y-93220000D01*
X106880000Y-93220000D02*
X106880000Y-103220000D01*
X112394000Y-80529000D02*
X107605000Y-80529000D01*
X113120000Y-93220000D02*
X113120000Y-103220000D01*
X113120000Y-103220000D02*
X106880000Y-103220000D01*
X114620000Y-88220000D02*
X114620000Y-93220000D01*
X114620000Y-93220000D02*
X105380000Y-93220000D01*
X116170000Y-81041000D02*
X116170000Y-88220000D01*
X116170000Y-88220000D02*
X103830000Y-88220000D01*
%TO.C,J101*%
X104790000Y-57472500D02*
X175210000Y-57472500D01*
X104790000Y-66492500D02*
X104790000Y-57472500D01*
X111950000Y-58782500D02*
X168050000Y-58782500D01*
X111950000Y-65182500D02*
X111950000Y-58782500D01*
X115370000Y-67882500D02*
X116370000Y-67882500D01*
X115870000Y-66882500D02*
X115370000Y-67882500D01*
X116370000Y-67882500D02*
X115870000Y-66882500D01*
X137950000Y-65182500D02*
X111950000Y-65182500D01*
X137950000Y-66492500D02*
X137950000Y-65182500D01*
X142050000Y-65182500D02*
X142050000Y-66492500D01*
X168050000Y-58782500D02*
X168050000Y-65182500D01*
X168050000Y-65182500D02*
X142050000Y-65182500D01*
X175210000Y-57472500D02*
X175210000Y-66492500D01*
X175210000Y-66492500D02*
X104790000Y-66492500D01*
%TD*%
M02*
