%TF.GenerationSoftware,KiCad,Pcbnew,9.99.0-unknown-b0b07bbc41~182~ubuntu22.04.1*%
%TF.CreationDate,2025-08-08T10:17:54+02:00*%
%TF.ProjectId,CP70_front_flatcable,43503730-5f66-4726-9f6e-745f666c6174,rev?*%
%TF.SameCoordinates,Original*%
%TF.FileFunction,Legend,Top*%
%TF.FilePolarity,Positive*%
%FSLAX46Y46*%
G04 Gerber Fmt 4.6, Leading zero omitted, Abs format (unit mm)*
G04 Created by KiCad (PCBNEW 9.99.0-unknown-b0b07bbc41~182~ubuntu22.04.1) date 2025-08-08 10:17:54*
%MOMM*%
%LPD*%
G01*
G04 APERTURE LIST*
%ADD10C,0.300000*%
%ADD11C,0.150000*%
%ADD12C,0.120000*%
G04 APERTURE END LIST*
D10*
X141992796Y-133813853D02*
X141849939Y-133742425D01*
X141849939Y-133742425D02*
X141778510Y-133670996D01*
X141778510Y-133670996D02*
X141707082Y-133528139D01*
X141707082Y-133528139D02*
X141707082Y-133456710D01*
X141707082Y-133456710D02*
X141778510Y-133313853D01*
X141778510Y-133313853D02*
X141849939Y-133242425D01*
X141849939Y-133242425D02*
X141992796Y-133170996D01*
X141992796Y-133170996D02*
X142278510Y-133170996D01*
X142278510Y-133170996D02*
X142421368Y-133242425D01*
X142421368Y-133242425D02*
X142492796Y-133313853D01*
X142492796Y-133313853D02*
X142564225Y-133456710D01*
X142564225Y-133456710D02*
X142564225Y-133528139D01*
X142564225Y-133528139D02*
X142492796Y-133670996D01*
X142492796Y-133670996D02*
X142421368Y-133742425D01*
X142421368Y-133742425D02*
X142278510Y-133813853D01*
X142278510Y-133813853D02*
X141992796Y-133813853D01*
X141992796Y-133813853D02*
X141849939Y-133885282D01*
X141849939Y-133885282D02*
X141778510Y-133956710D01*
X141778510Y-133956710D02*
X141707082Y-134099568D01*
X141707082Y-134099568D02*
X141707082Y-134385282D01*
X141707082Y-134385282D02*
X141778510Y-134528139D01*
X141778510Y-134528139D02*
X141849939Y-134599568D01*
X141849939Y-134599568D02*
X141992796Y-134670996D01*
X141992796Y-134670996D02*
X142278510Y-134670996D01*
X142278510Y-134670996D02*
X142421368Y-134599568D01*
X142421368Y-134599568D02*
X142492796Y-134528139D01*
X142492796Y-134528139D02*
X142564225Y-134385282D01*
X142564225Y-134385282D02*
X142564225Y-134099568D01*
X142564225Y-134099568D02*
X142492796Y-133956710D01*
X142492796Y-133956710D02*
X142421368Y-133885282D01*
X142421368Y-133885282D02*
X142278510Y-133813853D01*
X143207081Y-134099568D02*
X144349939Y-134099568D01*
X145278510Y-133813853D02*
X145135653Y-133742425D01*
X145135653Y-133742425D02*
X145064224Y-133670996D01*
X145064224Y-133670996D02*
X144992796Y-133528139D01*
X144992796Y-133528139D02*
X144992796Y-133456710D01*
X144992796Y-133456710D02*
X145064224Y-133313853D01*
X145064224Y-133313853D02*
X145135653Y-133242425D01*
X145135653Y-133242425D02*
X145278510Y-133170996D01*
X145278510Y-133170996D02*
X145564224Y-133170996D01*
X145564224Y-133170996D02*
X145707082Y-133242425D01*
X145707082Y-133242425D02*
X145778510Y-133313853D01*
X145778510Y-133313853D02*
X145849939Y-133456710D01*
X145849939Y-133456710D02*
X145849939Y-133528139D01*
X145849939Y-133528139D02*
X145778510Y-133670996D01*
X145778510Y-133670996D02*
X145707082Y-133742425D01*
X145707082Y-133742425D02*
X145564224Y-133813853D01*
X145564224Y-133813853D02*
X145278510Y-133813853D01*
X145278510Y-133813853D02*
X145135653Y-133885282D01*
X145135653Y-133885282D02*
X145064224Y-133956710D01*
X145064224Y-133956710D02*
X144992796Y-134099568D01*
X144992796Y-134099568D02*
X144992796Y-134385282D01*
X144992796Y-134385282D02*
X145064224Y-134528139D01*
X145064224Y-134528139D02*
X145135653Y-134599568D01*
X145135653Y-134599568D02*
X145278510Y-134670996D01*
X145278510Y-134670996D02*
X145564224Y-134670996D01*
X145564224Y-134670996D02*
X145707082Y-134599568D01*
X145707082Y-134599568D02*
X145778510Y-134528139D01*
X145778510Y-134528139D02*
X145849939Y-134385282D01*
X145849939Y-134385282D02*
X145849939Y-134099568D01*
X145849939Y-134099568D02*
X145778510Y-133956710D01*
X145778510Y-133956710D02*
X145707082Y-133885282D01*
X145707082Y-133885282D02*
X145564224Y-133813853D01*
X146492795Y-134099568D02*
X147635653Y-134099568D01*
X148278510Y-133313853D02*
X148349938Y-133242425D01*
X148349938Y-133242425D02*
X148492796Y-133170996D01*
X148492796Y-133170996D02*
X148849938Y-133170996D01*
X148849938Y-133170996D02*
X148992796Y-133242425D01*
X148992796Y-133242425D02*
X149064224Y-133313853D01*
X149064224Y-133313853D02*
X149135653Y-133456710D01*
X149135653Y-133456710D02*
X149135653Y-133599568D01*
X149135653Y-133599568D02*
X149064224Y-133813853D01*
X149064224Y-133813853D02*
X148207081Y-134670996D01*
X148207081Y-134670996D02*
X149135653Y-134670996D01*
X150064224Y-133170996D02*
X150207081Y-133170996D01*
X150207081Y-133170996D02*
X150349938Y-133242425D01*
X150349938Y-133242425D02*
X150421367Y-133313853D01*
X150421367Y-133313853D02*
X150492795Y-133456710D01*
X150492795Y-133456710D02*
X150564224Y-133742425D01*
X150564224Y-133742425D02*
X150564224Y-134099568D01*
X150564224Y-134099568D02*
X150492795Y-134385282D01*
X150492795Y-134385282D02*
X150421367Y-134528139D01*
X150421367Y-134528139D02*
X150349938Y-134599568D01*
X150349938Y-134599568D02*
X150207081Y-134670996D01*
X150207081Y-134670996D02*
X150064224Y-134670996D01*
X150064224Y-134670996D02*
X149921367Y-134599568D01*
X149921367Y-134599568D02*
X149849938Y-134528139D01*
X149849938Y-134528139D02*
X149778509Y-134385282D01*
X149778509Y-134385282D02*
X149707081Y-134099568D01*
X149707081Y-134099568D02*
X149707081Y-133742425D01*
X149707081Y-133742425D02*
X149778509Y-133456710D01*
X149778509Y-133456710D02*
X149849938Y-133313853D01*
X149849938Y-133313853D02*
X149921367Y-133242425D01*
X149921367Y-133242425D02*
X150064224Y-133170996D01*
X151135652Y-133313853D02*
X151207080Y-133242425D01*
X151207080Y-133242425D02*
X151349938Y-133170996D01*
X151349938Y-133170996D02*
X151707080Y-133170996D01*
X151707080Y-133170996D02*
X151849938Y-133242425D01*
X151849938Y-133242425D02*
X151921366Y-133313853D01*
X151921366Y-133313853D02*
X151992795Y-133456710D01*
X151992795Y-133456710D02*
X151992795Y-133599568D01*
X151992795Y-133599568D02*
X151921366Y-133813853D01*
X151921366Y-133813853D02*
X151064223Y-134670996D01*
X151064223Y-134670996D02*
X151992795Y-134670996D01*
X153349937Y-133170996D02*
X152635651Y-133170996D01*
X152635651Y-133170996D02*
X152564223Y-133885282D01*
X152564223Y-133885282D02*
X152635651Y-133813853D01*
X152635651Y-133813853D02*
X152778509Y-133742425D01*
X152778509Y-133742425D02*
X153135651Y-133742425D01*
X153135651Y-133742425D02*
X153278509Y-133813853D01*
X153278509Y-133813853D02*
X153349937Y-133885282D01*
X153349937Y-133885282D02*
X153421366Y-134028139D01*
X153421366Y-134028139D02*
X153421366Y-134385282D01*
X153421366Y-134385282D02*
X153349937Y-134528139D01*
X153349937Y-134528139D02*
X153278509Y-134599568D01*
X153278509Y-134599568D02*
X153135651Y-134670996D01*
X153135651Y-134670996D02*
X152778509Y-134670996D01*
X152778509Y-134670996D02*
X152635651Y-134599568D01*
X152635651Y-134599568D02*
X152564223Y-134528139D01*
X155207079Y-134670996D02*
X155207079Y-133170996D01*
X155207079Y-133742425D02*
X155349937Y-133670996D01*
X155349937Y-133670996D02*
X155635651Y-133670996D01*
X155635651Y-133670996D02*
X155778508Y-133742425D01*
X155778508Y-133742425D02*
X155849937Y-133813853D01*
X155849937Y-133813853D02*
X155921365Y-133956710D01*
X155921365Y-133956710D02*
X155921365Y-134385282D01*
X155921365Y-134385282D02*
X155849937Y-134528139D01*
X155849937Y-134528139D02*
X155778508Y-134599568D01*
X155778508Y-134599568D02*
X155635651Y-134670996D01*
X155635651Y-134670996D02*
X155349937Y-134670996D01*
X155349937Y-134670996D02*
X155207079Y-134599568D01*
X156421365Y-133670996D02*
X156778508Y-134670996D01*
X157135651Y-133670996D02*
X156778508Y-134670996D01*
X156778508Y-134670996D02*
X156635651Y-135028139D01*
X156635651Y-135028139D02*
X156564222Y-135099568D01*
X156564222Y-135099568D02*
X156421365Y-135170996D01*
X141778510Y-136300198D02*
X142278510Y-136300198D01*
X142492796Y-137085912D02*
X141778510Y-137085912D01*
X141778510Y-137085912D02*
X141778510Y-135585912D01*
X141778510Y-135585912D02*
X142492796Y-135585912D01*
X143135653Y-136943055D02*
X143207082Y-137014484D01*
X143207082Y-137014484D02*
X143135653Y-137085912D01*
X143135653Y-137085912D02*
X143064225Y-137014484D01*
X143064225Y-137014484D02*
X143135653Y-136943055D01*
X143135653Y-136943055D02*
X143135653Y-137085912D01*
X144849939Y-136085912D02*
X145207082Y-137085912D01*
X145207082Y-137085912D02*
X145564225Y-136085912D01*
X146778511Y-137085912D02*
X146778511Y-135585912D01*
X146778511Y-137014484D02*
X146635653Y-137085912D01*
X146635653Y-137085912D02*
X146349939Y-137085912D01*
X146349939Y-137085912D02*
X146207082Y-137014484D01*
X146207082Y-137014484D02*
X146135653Y-136943055D01*
X146135653Y-136943055D02*
X146064225Y-136800198D01*
X146064225Y-136800198D02*
X146064225Y-136371626D01*
X146064225Y-136371626D02*
X146135653Y-136228769D01*
X146135653Y-136228769D02*
X146207082Y-136157341D01*
X146207082Y-136157341D02*
X146349939Y-136085912D01*
X146349939Y-136085912D02*
X146635653Y-136085912D01*
X146635653Y-136085912D02*
X146778511Y-136157341D01*
X148921368Y-135585912D02*
X149207082Y-135585912D01*
X149207082Y-135585912D02*
X149349939Y-135657341D01*
X149349939Y-135657341D02*
X149492796Y-135800198D01*
X149492796Y-135800198D02*
X149564225Y-136085912D01*
X149564225Y-136085912D02*
X149564225Y-136585912D01*
X149564225Y-136585912D02*
X149492796Y-136871626D01*
X149492796Y-136871626D02*
X149349939Y-137014484D01*
X149349939Y-137014484D02*
X149207082Y-137085912D01*
X149207082Y-137085912D02*
X148921368Y-137085912D01*
X148921368Y-137085912D02*
X148778511Y-137014484D01*
X148778511Y-137014484D02*
X148635653Y-136871626D01*
X148635653Y-136871626D02*
X148564225Y-136585912D01*
X148564225Y-136585912D02*
X148564225Y-136085912D01*
X148564225Y-136085912D02*
X148635653Y-135800198D01*
X148635653Y-135800198D02*
X148778511Y-135657341D01*
X148778511Y-135657341D02*
X148921368Y-135585912D01*
X150778511Y-137014484D02*
X150635654Y-137085912D01*
X150635654Y-137085912D02*
X150349940Y-137085912D01*
X150349940Y-137085912D02*
X150207082Y-137014484D01*
X150207082Y-137014484D02*
X150135654Y-136871626D01*
X150135654Y-136871626D02*
X150135654Y-136300198D01*
X150135654Y-136300198D02*
X150207082Y-136157341D01*
X150207082Y-136157341D02*
X150349940Y-136085912D01*
X150349940Y-136085912D02*
X150635654Y-136085912D01*
X150635654Y-136085912D02*
X150778511Y-136157341D01*
X150778511Y-136157341D02*
X150849940Y-136300198D01*
X150849940Y-136300198D02*
X150849940Y-136443055D01*
X150849940Y-136443055D02*
X150135654Y-136585912D01*
X151278511Y-136085912D02*
X151849939Y-136085912D01*
X151492796Y-135585912D02*
X151492796Y-136871626D01*
X151492796Y-136871626D02*
X151564225Y-137014484D01*
X151564225Y-137014484D02*
X151707082Y-137085912D01*
X151707082Y-137085912D02*
X151849939Y-137085912D01*
X152921368Y-137014484D02*
X152778511Y-137085912D01*
X152778511Y-137085912D02*
X152492797Y-137085912D01*
X152492797Y-137085912D02*
X152349939Y-137014484D01*
X152349939Y-137014484D02*
X152278511Y-136871626D01*
X152278511Y-136871626D02*
X152278511Y-136300198D01*
X152278511Y-136300198D02*
X152349939Y-136157341D01*
X152349939Y-136157341D02*
X152492797Y-136085912D01*
X152492797Y-136085912D02*
X152778511Y-136085912D01*
X152778511Y-136085912D02*
X152921368Y-136157341D01*
X152921368Y-136157341D02*
X152992797Y-136300198D01*
X152992797Y-136300198D02*
X152992797Y-136443055D01*
X152992797Y-136443055D02*
X152278511Y-136585912D01*
X153849939Y-137085912D02*
X153707082Y-137014484D01*
X153707082Y-137014484D02*
X153635653Y-136871626D01*
X153635653Y-136871626D02*
X153635653Y-135585912D01*
X155064225Y-137085912D02*
X155064225Y-136300198D01*
X155064225Y-136300198D02*
X154992796Y-136157341D01*
X154992796Y-136157341D02*
X154849939Y-136085912D01*
X154849939Y-136085912D02*
X154564225Y-136085912D01*
X154564225Y-136085912D02*
X154421367Y-136157341D01*
X155064225Y-137014484D02*
X154921367Y-137085912D01*
X154921367Y-137085912D02*
X154564225Y-137085912D01*
X154564225Y-137085912D02*
X154421367Y-137014484D01*
X154421367Y-137014484D02*
X154349939Y-136871626D01*
X154349939Y-136871626D02*
X154349939Y-136728769D01*
X154349939Y-136728769D02*
X154421367Y-136585912D01*
X154421367Y-136585912D02*
X154564225Y-136514484D01*
X154564225Y-136514484D02*
X154921367Y-136514484D01*
X154921367Y-136514484D02*
X155064225Y-136443055D01*
X156421368Y-137085912D02*
X156421368Y-136300198D01*
X156421368Y-136300198D02*
X156349939Y-136157341D01*
X156349939Y-136157341D02*
X156207082Y-136085912D01*
X156207082Y-136085912D02*
X155921368Y-136085912D01*
X155921368Y-136085912D02*
X155778510Y-136157341D01*
X156421368Y-137014484D02*
X156278510Y-137085912D01*
X156278510Y-137085912D02*
X155921368Y-137085912D01*
X155921368Y-137085912D02*
X155778510Y-137014484D01*
X155778510Y-137014484D02*
X155707082Y-136871626D01*
X155707082Y-136871626D02*
X155707082Y-136728769D01*
X155707082Y-136728769D02*
X155778510Y-136585912D01*
X155778510Y-136585912D02*
X155921368Y-136514484D01*
X155921368Y-136514484D02*
X156278510Y-136514484D01*
X156278510Y-136514484D02*
X156421368Y-136443055D01*
X157135653Y-137085912D02*
X157135653Y-136085912D01*
X157135653Y-136371626D02*
X157207082Y-136228769D01*
X157207082Y-136228769D02*
X157278511Y-136157341D01*
X157278511Y-136157341D02*
X157421368Y-136085912D01*
X157421368Y-136085912D02*
X157564225Y-136085912D01*
X141635653Y-138500828D02*
X141921368Y-139500828D01*
X141921368Y-139500828D02*
X142207082Y-138786542D01*
X142207082Y-138786542D02*
X142492796Y-139500828D01*
X142492796Y-139500828D02*
X142778510Y-138500828D01*
X143207082Y-138500828D02*
X143492797Y-139500828D01*
X143492797Y-139500828D02*
X143778511Y-138786542D01*
X143778511Y-138786542D02*
X144064225Y-139500828D01*
X144064225Y-139500828D02*
X144349939Y-138500828D01*
X144778511Y-138500828D02*
X145064226Y-139500828D01*
X145064226Y-139500828D02*
X145349940Y-138786542D01*
X145349940Y-138786542D02*
X145635654Y-139500828D01*
X145635654Y-139500828D02*
X145921368Y-138500828D01*
X146492797Y-139357971D02*
X146564226Y-139429400D01*
X146564226Y-139429400D02*
X146492797Y-139500828D01*
X146492797Y-139500828D02*
X146421369Y-139429400D01*
X146421369Y-139429400D02*
X146492797Y-139357971D01*
X146492797Y-139357971D02*
X146492797Y-139500828D01*
X147421369Y-139500828D02*
X147278512Y-139429400D01*
X147278512Y-139429400D02*
X147207083Y-139357971D01*
X147207083Y-139357971D02*
X147135655Y-139215114D01*
X147135655Y-139215114D02*
X147135655Y-138786542D01*
X147135655Y-138786542D02*
X147207083Y-138643685D01*
X147207083Y-138643685D02*
X147278512Y-138572257D01*
X147278512Y-138572257D02*
X147421369Y-138500828D01*
X147421369Y-138500828D02*
X147635655Y-138500828D01*
X147635655Y-138500828D02*
X147778512Y-138572257D01*
X147778512Y-138572257D02*
X147849941Y-138643685D01*
X147849941Y-138643685D02*
X147921369Y-138786542D01*
X147921369Y-138786542D02*
X147921369Y-139215114D01*
X147921369Y-139215114D02*
X147849941Y-139357971D01*
X147849941Y-139357971D02*
X147778512Y-139429400D01*
X147778512Y-139429400D02*
X147635655Y-139500828D01*
X147635655Y-139500828D02*
X147421369Y-139500828D01*
X149135655Y-139429400D02*
X148992798Y-139500828D01*
X148992798Y-139500828D02*
X148707084Y-139500828D01*
X148707084Y-139500828D02*
X148564226Y-139429400D01*
X148564226Y-139429400D02*
X148492798Y-139286542D01*
X148492798Y-139286542D02*
X148492798Y-138715114D01*
X148492798Y-138715114D02*
X148564226Y-138572257D01*
X148564226Y-138572257D02*
X148707084Y-138500828D01*
X148707084Y-138500828D02*
X148992798Y-138500828D01*
X148992798Y-138500828D02*
X149135655Y-138572257D01*
X149135655Y-138572257D02*
X149207084Y-138715114D01*
X149207084Y-138715114D02*
X149207084Y-138857971D01*
X149207084Y-138857971D02*
X148492798Y-139000828D01*
X149635655Y-138500828D02*
X150207083Y-138500828D01*
X149849940Y-138000828D02*
X149849940Y-139286542D01*
X149849940Y-139286542D02*
X149921369Y-139429400D01*
X149921369Y-139429400D02*
X150064226Y-139500828D01*
X150064226Y-139500828D02*
X150207083Y-139500828D01*
X151278512Y-139429400D02*
X151135655Y-139500828D01*
X151135655Y-139500828D02*
X150849941Y-139500828D01*
X150849941Y-139500828D02*
X150707083Y-139429400D01*
X150707083Y-139429400D02*
X150635655Y-139286542D01*
X150635655Y-139286542D02*
X150635655Y-138715114D01*
X150635655Y-138715114D02*
X150707083Y-138572257D01*
X150707083Y-138572257D02*
X150849941Y-138500828D01*
X150849941Y-138500828D02*
X151135655Y-138500828D01*
X151135655Y-138500828D02*
X151278512Y-138572257D01*
X151278512Y-138572257D02*
X151349941Y-138715114D01*
X151349941Y-138715114D02*
X151349941Y-138857971D01*
X151349941Y-138857971D02*
X150635655Y-139000828D01*
X152207083Y-139500828D02*
X152064226Y-139429400D01*
X152064226Y-139429400D02*
X151992797Y-139286542D01*
X151992797Y-139286542D02*
X151992797Y-138000828D01*
X153421369Y-139500828D02*
X153421369Y-138715114D01*
X153421369Y-138715114D02*
X153349940Y-138572257D01*
X153349940Y-138572257D02*
X153207083Y-138500828D01*
X153207083Y-138500828D02*
X152921369Y-138500828D01*
X152921369Y-138500828D02*
X152778511Y-138572257D01*
X153421369Y-139429400D02*
X153278511Y-139500828D01*
X153278511Y-139500828D02*
X152921369Y-139500828D01*
X152921369Y-139500828D02*
X152778511Y-139429400D01*
X152778511Y-139429400D02*
X152707083Y-139286542D01*
X152707083Y-139286542D02*
X152707083Y-139143685D01*
X152707083Y-139143685D02*
X152778511Y-139000828D01*
X152778511Y-139000828D02*
X152921369Y-138929400D01*
X152921369Y-138929400D02*
X153278511Y-138929400D01*
X153278511Y-138929400D02*
X153421369Y-138857971D01*
X154778512Y-139500828D02*
X154778512Y-138715114D01*
X154778512Y-138715114D02*
X154707083Y-138572257D01*
X154707083Y-138572257D02*
X154564226Y-138500828D01*
X154564226Y-138500828D02*
X154278512Y-138500828D01*
X154278512Y-138500828D02*
X154135654Y-138572257D01*
X154778512Y-139429400D02*
X154635654Y-139500828D01*
X154635654Y-139500828D02*
X154278512Y-139500828D01*
X154278512Y-139500828D02*
X154135654Y-139429400D01*
X154135654Y-139429400D02*
X154064226Y-139286542D01*
X154064226Y-139286542D02*
X154064226Y-139143685D01*
X154064226Y-139143685D02*
X154135654Y-139000828D01*
X154135654Y-139000828D02*
X154278512Y-138929400D01*
X154278512Y-138929400D02*
X154635654Y-138929400D01*
X154635654Y-138929400D02*
X154778512Y-138857971D01*
X155492797Y-139500828D02*
X155492797Y-138500828D01*
X155492797Y-138786542D02*
X155564226Y-138643685D01*
X155564226Y-138643685D02*
X155635655Y-138572257D01*
X155635655Y-138572257D02*
X155778512Y-138500828D01*
X155778512Y-138500828D02*
X155921369Y-138500828D01*
X156421368Y-139357971D02*
X156492797Y-139429400D01*
X156492797Y-139429400D02*
X156421368Y-139500828D01*
X156421368Y-139500828D02*
X156349940Y-139429400D01*
X156349940Y-139429400D02*
X156421368Y-139357971D01*
X156421368Y-139357971D02*
X156421368Y-139500828D01*
X157778512Y-139429400D02*
X157635654Y-139500828D01*
X157635654Y-139500828D02*
X157349940Y-139500828D01*
X157349940Y-139500828D02*
X157207083Y-139429400D01*
X157207083Y-139429400D02*
X157135654Y-139357971D01*
X157135654Y-139357971D02*
X157064226Y-139215114D01*
X157064226Y-139215114D02*
X157064226Y-138786542D01*
X157064226Y-138786542D02*
X157135654Y-138643685D01*
X157135654Y-138643685D02*
X157207083Y-138572257D01*
X157207083Y-138572257D02*
X157349940Y-138500828D01*
X157349940Y-138500828D02*
X157635654Y-138500828D01*
X157635654Y-138500828D02*
X157778512Y-138572257D01*
X158635654Y-139500828D02*
X158492797Y-139429400D01*
X158492797Y-139429400D02*
X158421368Y-139357971D01*
X158421368Y-139357971D02*
X158349940Y-139215114D01*
X158349940Y-139215114D02*
X158349940Y-138786542D01*
X158349940Y-138786542D02*
X158421368Y-138643685D01*
X158421368Y-138643685D02*
X158492797Y-138572257D01*
X158492797Y-138572257D02*
X158635654Y-138500828D01*
X158635654Y-138500828D02*
X158849940Y-138500828D01*
X158849940Y-138500828D02*
X158992797Y-138572257D01*
X158992797Y-138572257D02*
X159064226Y-138643685D01*
X159064226Y-138643685D02*
X159135654Y-138786542D01*
X159135654Y-138786542D02*
X159135654Y-139215114D01*
X159135654Y-139215114D02*
X159064226Y-139357971D01*
X159064226Y-139357971D02*
X158992797Y-139429400D01*
X158992797Y-139429400D02*
X158849940Y-139500828D01*
X158849940Y-139500828D02*
X158635654Y-139500828D01*
X159778511Y-139500828D02*
X159778511Y-138500828D01*
X159778511Y-138643685D02*
X159849940Y-138572257D01*
X159849940Y-138572257D02*
X159992797Y-138500828D01*
X159992797Y-138500828D02*
X160207083Y-138500828D01*
X160207083Y-138500828D02*
X160349940Y-138572257D01*
X160349940Y-138572257D02*
X160421369Y-138715114D01*
X160421369Y-138715114D02*
X160421369Y-139500828D01*
X160421369Y-138715114D02*
X160492797Y-138572257D01*
X160492797Y-138572257D02*
X160635654Y-138500828D01*
X160635654Y-138500828D02*
X160849940Y-138500828D01*
X160849940Y-138500828D02*
X160992797Y-138572257D01*
X160992797Y-138572257D02*
X161064226Y-138715114D01*
X161064226Y-138715114D02*
X161064226Y-139500828D01*
G36*
X155205846Y-52188247D02*
G01*
X155205846Y-53145695D01*
X155129960Y-53183638D01*
X154819827Y-53183638D01*
X154682795Y-53115122D01*
X154621981Y-53054307D01*
X154553465Y-52917275D01*
X154553465Y-52416666D01*
X154621980Y-52279634D01*
X154682795Y-52218820D01*
X154819827Y-52150304D01*
X155129960Y-52150304D01*
X155205846Y-52188247D01*
G37*
G36*
X128505085Y-51552154D02*
G01*
X128648971Y-51696040D01*
X128729653Y-52018768D01*
X128729653Y-52648507D01*
X128648970Y-52971235D01*
X128505084Y-53115122D01*
X128368053Y-53183638D01*
X128057920Y-53183638D01*
X127920888Y-53115122D01*
X127777002Y-52971235D01*
X127696320Y-52648506D01*
X127696320Y-52018768D01*
X127777002Y-51696039D01*
X127920888Y-51552154D01*
X128057920Y-51483638D01*
X128368053Y-51483638D01*
X128505085Y-51552154D01*
G37*
G36*
X135370054Y-52512361D02*
G01*
X135423042Y-52565349D01*
X135491558Y-52702381D01*
X135491558Y-52917275D01*
X135423041Y-53054307D01*
X135362227Y-53115122D01*
X135225196Y-53183638D01*
X134648701Y-53183638D01*
X134648701Y-52436019D01*
X135141028Y-52436019D01*
X135370054Y-52512361D01*
G37*
G36*
X135266990Y-51552154D02*
G01*
X135327804Y-51612968D01*
X135396320Y-51750000D01*
X135396320Y-51869656D01*
X135327804Y-52006688D01*
X135266990Y-52067501D01*
X135129957Y-52136019D01*
X134648701Y-52136019D01*
X134648701Y-51483638D01*
X135129958Y-51483638D01*
X135266990Y-51552154D01*
G37*
G36*
X137205844Y-53145695D02*
G01*
X137129958Y-53183638D01*
X136724587Y-53183638D01*
X136610503Y-53126596D01*
X136553463Y-53012513D01*
X136553463Y-52892857D01*
X136610504Y-52778774D01*
X136724587Y-52721733D01*
X137165368Y-52721733D01*
X137194632Y-52718851D01*
X137199609Y-52716789D01*
X137204987Y-52716407D01*
X137205844Y-52716079D01*
X137205844Y-53145695D01*
G37*
G36*
X144443940Y-53145695D02*
G01*
X144368054Y-53183638D01*
X143962683Y-53183638D01*
X143848599Y-53126596D01*
X143791559Y-53012513D01*
X143791559Y-52892857D01*
X143848600Y-52778774D01*
X143962683Y-52721733D01*
X144403464Y-52721733D01*
X144432728Y-52718851D01*
X144437705Y-52716789D01*
X144443083Y-52716407D01*
X144443940Y-52716079D01*
X144443940Y-53145695D01*
G37*
G36*
X149560533Y-51559981D02*
G01*
X149708758Y-51708206D01*
X149785747Y-51862184D01*
X149872512Y-52209244D01*
X149872512Y-52458031D01*
X149785747Y-52805091D01*
X149708757Y-52959069D01*
X149560533Y-53107294D01*
X149331502Y-53183638D01*
X149029655Y-53183638D01*
X149029655Y-51483638D01*
X149331502Y-51483638D01*
X149560533Y-51559981D01*
G37*
G36*
X151552706Y-52218820D02*
G01*
X151613519Y-52279633D01*
X151682036Y-52416666D01*
X151682036Y-52917275D01*
X151613519Y-53054307D01*
X151552705Y-53115122D01*
X151415674Y-53183638D01*
X151200779Y-53183638D01*
X151063747Y-53115122D01*
X151002933Y-53054307D01*
X150934417Y-52917275D01*
X150934417Y-52416666D01*
X151002932Y-52279634D01*
X151063747Y-52218820D01*
X151200779Y-52150304D01*
X151415674Y-52150304D01*
X151552706Y-52218820D01*
G37*
G36*
X156958328Y-52207345D02*
G01*
X157015370Y-52321428D01*
X157015370Y-52353524D01*
X156362989Y-52484000D01*
X156362989Y-52321428D01*
X156420029Y-52207345D01*
X156534113Y-52150304D01*
X156844246Y-52150304D01*
X156958328Y-52207345D01*
G37*
G36*
X126505085Y-51552154D02*
G01*
X126565899Y-51612968D01*
X126634415Y-51750000D01*
X126634415Y-51964894D01*
X126565898Y-52101926D01*
X126505084Y-52162741D01*
X126368053Y-52231257D01*
X125791558Y-52231257D01*
X125791558Y-51483638D01*
X126368053Y-51483638D01*
X126505085Y-51552154D01*
G37*
G36*
X141933658Y-48998932D02*
G01*
X141994471Y-49059745D01*
X142062988Y-49196778D01*
X142062988Y-49697387D01*
X141994471Y-49834419D01*
X141933657Y-49895234D01*
X141796626Y-49963750D01*
X141486493Y-49963750D01*
X141410607Y-49925807D01*
X141410607Y-48968359D01*
X141486493Y-48930416D01*
X141796626Y-48930416D01*
X141933658Y-48998932D01*
G37*
G36*
X128028895Y-48998932D02*
G01*
X128089708Y-49059745D01*
X128158225Y-49196778D01*
X128158225Y-49697387D01*
X128089708Y-49834419D01*
X128028894Y-49895234D01*
X127891863Y-49963750D01*
X127676968Y-49963750D01*
X127539936Y-49895234D01*
X127479122Y-49834419D01*
X127410606Y-49697387D01*
X127410606Y-49196778D01*
X127479121Y-49059746D01*
X127539936Y-48998932D01*
X127676968Y-48930416D01*
X127891863Y-48930416D01*
X128028895Y-48998932D01*
G37*
G36*
X138505086Y-48332266D02*
G01*
X138565900Y-48393080D01*
X138642889Y-48547058D01*
X138729654Y-48894118D01*
X138729654Y-49333381D01*
X138642889Y-49680441D01*
X138565899Y-49834419D01*
X138505085Y-49895234D01*
X138368054Y-49963750D01*
X138248397Y-49963750D01*
X138111365Y-49895234D01*
X138050551Y-49834419D01*
X137973562Y-49680441D01*
X137886797Y-49333380D01*
X137886797Y-48894118D01*
X137973562Y-48547057D01*
X138050551Y-48393080D01*
X138111365Y-48332266D01*
X138248397Y-48263750D01*
X138368054Y-48263750D01*
X138505086Y-48332266D01*
G37*
G36*
X144729655Y-49925807D02*
G01*
X144653769Y-49963750D01*
X144248398Y-49963750D01*
X144134314Y-49906708D01*
X144077274Y-49792625D01*
X144077274Y-49672969D01*
X144134315Y-49558886D01*
X144248398Y-49501845D01*
X144689179Y-49501845D01*
X144718443Y-49498963D01*
X144723420Y-49496901D01*
X144728798Y-49496519D01*
X144729655Y-49496191D01*
X144729655Y-49925807D01*
G37*
G36*
X148314611Y-48998932D02*
G01*
X148375424Y-49059745D01*
X148443941Y-49196778D01*
X148443941Y-49697387D01*
X148375424Y-49834419D01*
X148314610Y-49895234D01*
X148177579Y-49963750D01*
X147962684Y-49963750D01*
X147825652Y-49895234D01*
X147764838Y-49834419D01*
X147696322Y-49697387D01*
X147696322Y-49196778D01*
X147764837Y-49059746D01*
X147825652Y-48998932D01*
X147962684Y-48930416D01*
X148177579Y-48930416D01*
X148314611Y-48998932D01*
G37*
G36*
X154505088Y-48332266D02*
G01*
X154565902Y-48393080D01*
X154642891Y-48547058D01*
X154729656Y-48894118D01*
X154729656Y-49333381D01*
X154642891Y-49680441D01*
X154565901Y-49834419D01*
X154505087Y-49895234D01*
X154368056Y-49963750D01*
X154248399Y-49963750D01*
X154111367Y-49895234D01*
X154050553Y-49834419D01*
X153973564Y-49680441D01*
X153886799Y-49333380D01*
X153886799Y-48894118D01*
X153973564Y-48547057D01*
X154050553Y-48393080D01*
X154111367Y-48332266D01*
X154248399Y-48263750D01*
X154368056Y-48263750D01*
X154505088Y-48332266D01*
G37*
G36*
X134790800Y-48332266D02*
G01*
X134851614Y-48393080D01*
X134920130Y-48530112D01*
X134920130Y-48745006D01*
X134851613Y-48882038D01*
X134790799Y-48942853D01*
X134653768Y-49011369D01*
X134077273Y-49011369D01*
X134077273Y-48263750D01*
X134653768Y-48263750D01*
X134790800Y-48332266D01*
G37*
G36*
X129110606Y-46705919D02*
G01*
X129034720Y-46743862D01*
X128629349Y-46743862D01*
X128515265Y-46686820D01*
X128458225Y-46572737D01*
X128458225Y-46453081D01*
X128515266Y-46338998D01*
X128629349Y-46281957D01*
X129070130Y-46281957D01*
X129099394Y-46279075D01*
X129104371Y-46277013D01*
X129109749Y-46276631D01*
X129110606Y-46276303D01*
X129110606Y-46705919D01*
G37*
G36*
X134062987Y-46705919D02*
G01*
X133987101Y-46743862D01*
X133581730Y-46743862D01*
X133467646Y-46686820D01*
X133410606Y-46572737D01*
X133410606Y-46453081D01*
X133467647Y-46338998D01*
X133581730Y-46281957D01*
X134022511Y-46281957D01*
X134051775Y-46279075D01*
X134056752Y-46277013D01*
X134062130Y-46276631D01*
X134062987Y-46276303D01*
X134062987Y-46705919D01*
G37*
G36*
X135838419Y-45779044D02*
G01*
X135899232Y-45839857D01*
X135967749Y-45976890D01*
X135967749Y-46477499D01*
X135899232Y-46614531D01*
X135838418Y-46675346D01*
X135701387Y-46743862D01*
X135391254Y-46743862D01*
X135315368Y-46705919D01*
X135315368Y-45748471D01*
X135391254Y-45710528D01*
X135701387Y-45710528D01*
X135838419Y-45779044D01*
G37*
G36*
X138672612Y-45767569D02*
G01*
X138729654Y-45881652D01*
X138729654Y-45913748D01*
X138077273Y-46044224D01*
X138077273Y-45881652D01*
X138134313Y-45767569D01*
X138248397Y-45710528D01*
X138558530Y-45710528D01*
X138672612Y-45767569D01*
G37*
G36*
X142131960Y-46072585D02*
G01*
X142184948Y-46125573D01*
X142253464Y-46262605D01*
X142253464Y-46477499D01*
X142184947Y-46614531D01*
X142124133Y-46675346D01*
X141987102Y-46743862D01*
X141410607Y-46743862D01*
X141410607Y-45996243D01*
X141902934Y-45996243D01*
X142131960Y-46072585D01*
G37*
G36*
X142028896Y-45112378D02*
G01*
X142089710Y-45173192D01*
X142158226Y-45310224D01*
X142158226Y-45429880D01*
X142089710Y-45566912D01*
X142028896Y-45627725D01*
X141891863Y-45696243D01*
X141410607Y-45696243D01*
X141410607Y-45043862D01*
X141891864Y-45043862D01*
X142028896Y-45112378D01*
G37*
G36*
X145148803Y-45767569D02*
G01*
X145205845Y-45881652D01*
X145205845Y-45913748D01*
X144553464Y-46044224D01*
X144553464Y-45881652D01*
X144610504Y-45767569D01*
X144724588Y-45710528D01*
X145034721Y-45710528D01*
X145148803Y-45767569D01*
G37*
G36*
X146920131Y-46705919D02*
G01*
X146844245Y-46743862D01*
X146438874Y-46743862D01*
X146324790Y-46686820D01*
X146267750Y-46572737D01*
X146267750Y-46453081D01*
X146324791Y-46338998D01*
X146438874Y-46281957D01*
X146879655Y-46281957D01*
X146908919Y-46279075D01*
X146913896Y-46277013D01*
X146919274Y-46276631D01*
X146920131Y-46276303D01*
X146920131Y-46705919D01*
G37*
G36*
X150314611Y-45779044D02*
G01*
X150375424Y-45839857D01*
X150443941Y-45976890D01*
X150443941Y-46477499D01*
X150375424Y-46614531D01*
X150314610Y-46675346D01*
X150177579Y-46743862D01*
X149962684Y-46743862D01*
X149825652Y-46675346D01*
X149764838Y-46614531D01*
X149696322Y-46477499D01*
X149696322Y-45976890D01*
X149764837Y-45839858D01*
X149825652Y-45779044D01*
X149962684Y-45710528D01*
X150177579Y-45710528D01*
X150314611Y-45779044D01*
G37*
G36*
X159251878Y-54372526D02*
G01*
X125269336Y-54372526D01*
X125269336Y-53590089D01*
X131780154Y-53590089D01*
X131780154Y-53648615D01*
X131802551Y-53702687D01*
X131843937Y-53744073D01*
X131898009Y-53766470D01*
X131956535Y-53766470D01*
X132010607Y-53744073D01*
X132033338Y-53725418D01*
X132128576Y-53630180D01*
X132138015Y-53618678D01*
X132141009Y-53616082D01*
X132143849Y-53611568D01*
X132147231Y-53607449D01*
X132148746Y-53603789D01*
X132156674Y-53591196D01*
X132251912Y-53400720D01*
X132262422Y-53373256D01*
X132262803Y-53367880D01*
X132264866Y-53362902D01*
X132267748Y-53333638D01*
X132267748Y-53238400D01*
X132264866Y-53209136D01*
X132242468Y-53155064D01*
X132201084Y-53113680D01*
X132147012Y-53091282D01*
X132088484Y-53091282D01*
X132034412Y-53113680D01*
X131993028Y-53155064D01*
X131970630Y-53209136D01*
X131967748Y-53238400D01*
X131967748Y-53298228D01*
X131899232Y-53435260D01*
X131821206Y-53513286D01*
X131802551Y-53536017D01*
X131780154Y-53590089D01*
X125269336Y-53590089D01*
X125269336Y-51333638D01*
X125491558Y-51333638D01*
X125491558Y-53333638D01*
X125494440Y-53362902D01*
X125516838Y-53416974D01*
X125558222Y-53458358D01*
X125612294Y-53480756D01*
X125670822Y-53480756D01*
X125724894Y-53458358D01*
X125766278Y-53416974D01*
X125788676Y-53362902D01*
X125791558Y-53333638D01*
X125791558Y-52531257D01*
X126403463Y-52531257D01*
X126432727Y-52528375D01*
X126437704Y-52526313D01*
X126443082Y-52525931D01*
X126470545Y-52515421D01*
X126661021Y-52420183D01*
X126673616Y-52412254D01*
X126677275Y-52410739D01*
X126681392Y-52407359D01*
X126685907Y-52404518D01*
X126688504Y-52401523D01*
X126700006Y-52392084D01*
X126795244Y-52296845D01*
X126804682Y-52285343D01*
X126807676Y-52282748D01*
X126810516Y-52278235D01*
X126813899Y-52274114D01*
X126815415Y-52270452D01*
X126823341Y-52257862D01*
X126918579Y-52067386D01*
X126929089Y-52039922D01*
X126929470Y-52034546D01*
X126931533Y-52029568D01*
X126934415Y-52000304D01*
X127396320Y-52000304D01*
X127396320Y-52666971D01*
X127396822Y-52672074D01*
X127396497Y-52674262D01*
X127398116Y-52685212D01*
X127399202Y-52696235D01*
X127400049Y-52698279D01*
X127400799Y-52703351D01*
X127496037Y-53084303D01*
X127505930Y-53111994D01*
X127512569Y-53120954D01*
X127516837Y-53131258D01*
X127535492Y-53153989D01*
X127725967Y-53344465D01*
X127737469Y-53353904D01*
X127740066Y-53356899D01*
X127744580Y-53359740D01*
X127748698Y-53363120D01*
X127752355Y-53364635D01*
X127764952Y-53372564D01*
X127955428Y-53467802D01*
X127982892Y-53478312D01*
X127988267Y-53478693D01*
X127993246Y-53480756D01*
X128022510Y-53483638D01*
X128403463Y-53483638D01*
X128432727Y-53480756D01*
X128437704Y-53478694D01*
X128443082Y-53478312D01*
X128470545Y-53467802D01*
X128661021Y-53372564D01*
X128673612Y-53364637D01*
X128677275Y-53363121D01*
X128681397Y-53359737D01*
X128685907Y-53356899D01*
X128688502Y-53353906D01*
X128700005Y-53344466D01*
X128890481Y-53153989D01*
X128909136Y-53131258D01*
X128913403Y-53120956D01*
X128920043Y-53111995D01*
X128929936Y-53084303D01*
X129025174Y-52703352D01*
X129025924Y-52698279D01*
X129026771Y-52696235D01*
X129027856Y-52685213D01*
X129029476Y-52674262D01*
X129029150Y-52672074D01*
X129029653Y-52666971D01*
X129029653Y-52000304D01*
X129029150Y-51995200D01*
X129029476Y-51993013D01*
X129027856Y-51982061D01*
X129026771Y-51971040D01*
X129025924Y-51968995D01*
X129025174Y-51963923D01*
X128929936Y-51582972D01*
X128920043Y-51555280D01*
X128913403Y-51546318D01*
X128909136Y-51536017D01*
X128890481Y-51513286D01*
X128710833Y-51333638D01*
X129586796Y-51333638D01*
X129586796Y-53333638D01*
X129589678Y-53362902D01*
X129612076Y-53416974D01*
X129653460Y-53458358D01*
X129707532Y-53480756D01*
X129766060Y-53480756D01*
X129820132Y-53458358D01*
X129861516Y-53416974D01*
X129883914Y-53362902D01*
X129886796Y-53333638D01*
X129886796Y-52009771D01*
X130267536Y-52825642D01*
X130273882Y-52836355D01*
X130275203Y-52839987D01*
X130277554Y-52842555D01*
X130282523Y-52850942D01*
X130299328Y-52866332D01*
X130314730Y-52883150D01*
X130320773Y-52885970D01*
X130325686Y-52890469D01*
X130347106Y-52898258D01*
X130367768Y-52907900D01*
X130374425Y-52908192D01*
X130380688Y-52910470D01*
X130403463Y-52909468D01*
X130426238Y-52910470D01*
X130432500Y-52908192D01*
X130439159Y-52907900D01*
X130459820Y-52898258D01*
X130481241Y-52890469D01*
X130486154Y-52885969D01*
X130492196Y-52883150D01*
X130507591Y-52866337D01*
X130524404Y-52850942D01*
X130529372Y-52842553D01*
X130531723Y-52839987D01*
X130533042Y-52836357D01*
X130539390Y-52825642D01*
X130920129Y-52009772D01*
X130920129Y-53333638D01*
X130923011Y-53362902D01*
X130945409Y-53416974D01*
X130986793Y-53458358D01*
X131040865Y-53480756D01*
X131099393Y-53480756D01*
X131153465Y-53458358D01*
X131194849Y-53416974D01*
X131217247Y-53362902D01*
X131220129Y-53333638D01*
X131220129Y-51333638D01*
X134348701Y-51333638D01*
X134348701Y-53333638D01*
X134351583Y-53362902D01*
X134373981Y-53416974D01*
X134415365Y-53458358D01*
X134469437Y-53480756D01*
X134498701Y-53483638D01*
X135260606Y-53483638D01*
X135289870Y-53480756D01*
X135294847Y-53478694D01*
X135300225Y-53478312D01*
X135327688Y-53467802D01*
X135518164Y-53372564D01*
X135530759Y-53364635D01*
X135534418Y-53363120D01*
X135538535Y-53359740D01*
X135543050Y-53356899D01*
X135545647Y-53353904D01*
X135557149Y-53344465D01*
X135652387Y-53249226D01*
X135661825Y-53237724D01*
X135664819Y-53235129D01*
X135667659Y-53230616D01*
X135671042Y-53226495D01*
X135672558Y-53222833D01*
X135680484Y-53210243D01*
X135775722Y-53019767D01*
X135786232Y-52992303D01*
X135786613Y-52986927D01*
X135788676Y-52981949D01*
X135791558Y-52952685D01*
X135791558Y-52857447D01*
X136253463Y-52857447D01*
X136253463Y-53047923D01*
X136256345Y-53077187D01*
X136258407Y-53082165D01*
X136258789Y-53087541D01*
X136269299Y-53115005D01*
X136364537Y-53305482D01*
X136367617Y-53310376D01*
X136368387Y-53312684D01*
X136370879Y-53315558D01*
X136380202Y-53330368D01*
X136394411Y-53342691D01*
X136406733Y-53356899D01*
X136421538Y-53366218D01*
X136424417Y-53368715D01*
X136426728Y-53369485D01*
X136431619Y-53372564D01*
X136622095Y-53467802D01*
X136649559Y-53478312D01*
X136654934Y-53478693D01*
X136659913Y-53480756D01*
X136689177Y-53483638D01*
X137165368Y-53483638D01*
X137194632Y-53480756D01*
X137199609Y-53478694D01*
X137204987Y-53478312D01*
X137232450Y-53467802D01*
X137265451Y-53451301D01*
X137272508Y-53458358D01*
X137326580Y-53480756D01*
X137385108Y-53480756D01*
X137439180Y-53458358D01*
X137480564Y-53416974D01*
X137502962Y-53362902D01*
X137505844Y-53333638D01*
X137505844Y-52286019D01*
X137502962Y-52256755D01*
X137500899Y-52251776D01*
X137500518Y-52246401D01*
X137490008Y-52218938D01*
X137394770Y-52028460D01*
X137391691Y-52023569D01*
X137390921Y-52021258D01*
X137388423Y-52018378D01*
X137379105Y-52003575D01*
X137375334Y-52000304D01*
X138158225Y-52000304D01*
X138158225Y-53333638D01*
X138161107Y-53362902D01*
X138183505Y-53416974D01*
X138224889Y-53458358D01*
X138278961Y-53480756D01*
X138337489Y-53480756D01*
X138391561Y-53458358D01*
X138432945Y-53416974D01*
X138455343Y-53362902D01*
X138458225Y-53333638D01*
X138458225Y-52416666D01*
X138526740Y-52279634D01*
X138587555Y-52218820D01*
X138724587Y-52150304D01*
X138879654Y-52150304D01*
X138908918Y-52147422D01*
X138962990Y-52125024D01*
X139004374Y-52083640D01*
X139026772Y-52029568D01*
X139026772Y-51971040D01*
X139113488Y-51971040D01*
X139113488Y-52029568D01*
X139135886Y-52083640D01*
X139177270Y-52125024D01*
X139231342Y-52147422D01*
X139260606Y-52150304D01*
X139396320Y-52150304D01*
X139396320Y-53047923D01*
X139399202Y-53077187D01*
X139401264Y-53082165D01*
X139401646Y-53087541D01*
X139412156Y-53115005D01*
X139507394Y-53305482D01*
X139510474Y-53310376D01*
X139511244Y-53312684D01*
X139513736Y-53315558D01*
X139523059Y-53330368D01*
X139537268Y-53342691D01*
X139549590Y-53356899D01*
X139564395Y-53366218D01*
X139567274Y-53368715D01*
X139569585Y-53369485D01*
X139574476Y-53372564D01*
X139764952Y-53467802D01*
X139792416Y-53478312D01*
X139797791Y-53478693D01*
X139802770Y-53480756D01*
X139832034Y-53483638D01*
X140022510Y-53483638D01*
X140051774Y-53480756D01*
X140105846Y-53458358D01*
X140147230Y-53416974D01*
X140169628Y-53362902D01*
X140169628Y-53304374D01*
X140147230Y-53250302D01*
X140105846Y-53208918D01*
X140051774Y-53186520D01*
X140022510Y-53183638D01*
X139867444Y-53183638D01*
X139753360Y-53126596D01*
X139696320Y-53012513D01*
X139696320Y-52150304D01*
X140022510Y-52150304D01*
X140051774Y-52147422D01*
X140105846Y-52125024D01*
X140147230Y-52083640D01*
X140169628Y-52029568D01*
X140169628Y-52022226D01*
X141874121Y-52022226D01*
X141881250Y-52050754D01*
X142357440Y-53384089D01*
X142369996Y-53410679D01*
X142375050Y-53416262D01*
X142378272Y-53423063D01*
X142394542Y-53437792D01*
X142409276Y-53454067D01*
X142416078Y-53457289D01*
X142421661Y-53462343D01*
X142442335Y-53469726D01*
X142462168Y-53479121D01*
X142469686Y-53479494D01*
X142476779Y-53482028D01*
X142498701Y-53480937D01*
X142520623Y-53482028D01*
X142527715Y-53479494D01*
X142535234Y-53479121D01*
X142555066Y-53469726D01*
X142575741Y-53462343D01*
X142581323Y-53457289D01*
X142588126Y-53454067D01*
X142602854Y-53437797D01*
X142619130Y-53423064D01*
X142622353Y-53416259D01*
X142627406Y-53410678D01*
X142639962Y-53384088D01*
X142828048Y-52857447D01*
X143491559Y-52857447D01*
X143491559Y-53047923D01*
X143494441Y-53077187D01*
X143496503Y-53082165D01*
X143496885Y-53087541D01*
X143507395Y-53115005D01*
X143602633Y-53305482D01*
X143605713Y-53310376D01*
X143606483Y-53312684D01*
X143608975Y-53315558D01*
X143618298Y-53330368D01*
X143632507Y-53342691D01*
X143644829Y-53356899D01*
X143659634Y-53366218D01*
X143662513Y-53368715D01*
X143664824Y-53369485D01*
X143669715Y-53372564D01*
X143860191Y-53467802D01*
X143887655Y-53478312D01*
X143893030Y-53478693D01*
X143898009Y-53480756D01*
X143927273Y-53483638D01*
X144403464Y-53483638D01*
X144432728Y-53480756D01*
X144437705Y-53478694D01*
X144443083Y-53478312D01*
X144470546Y-53467802D01*
X144503547Y-53451301D01*
X144510604Y-53458358D01*
X144564676Y-53480756D01*
X144623204Y-53480756D01*
X144677276Y-53458358D01*
X144718660Y-53416974D01*
X144741058Y-53362902D01*
X144743940Y-53333638D01*
X144743940Y-52286019D01*
X144741058Y-52256755D01*
X144738995Y-52251776D01*
X144738614Y-52246401D01*
X144728104Y-52218938D01*
X144632866Y-52028460D01*
X144629787Y-52023569D01*
X144629017Y-52021258D01*
X144626519Y-52018378D01*
X144617201Y-52003575D01*
X144613430Y-52000304D01*
X145396321Y-52000304D01*
X145396321Y-53333638D01*
X145399203Y-53362902D01*
X145421601Y-53416974D01*
X145462985Y-53458358D01*
X145517057Y-53480756D01*
X145575585Y-53480756D01*
X145629657Y-53458358D01*
X145671041Y-53416974D01*
X145693439Y-53362902D01*
X145696321Y-53333638D01*
X145696321Y-52252912D01*
X145730413Y-52218820D01*
X145867445Y-52150304D01*
X146082340Y-52150304D01*
X146196422Y-52207345D01*
X146253464Y-52321428D01*
X146253464Y-53333638D01*
X146256346Y-53362902D01*
X146278744Y-53416974D01*
X146320128Y-53458358D01*
X146374200Y-53480756D01*
X146432728Y-53480756D01*
X146486800Y-53458358D01*
X146528184Y-53416974D01*
X146550582Y-53362902D01*
X146553464Y-53333638D01*
X146553464Y-52286019D01*
X146550582Y-52256755D01*
X146548519Y-52251776D01*
X146548138Y-52246401D01*
X146537628Y-52218938D01*
X146442390Y-52028460D01*
X146439311Y-52023569D01*
X146438541Y-52021258D01*
X146436043Y-52018378D01*
X146426725Y-52003575D01*
X146412520Y-51991255D01*
X146400194Y-51977043D01*
X146385383Y-51967720D01*
X146382510Y-51965228D01*
X146380202Y-51964458D01*
X146375308Y-51961378D01*
X146184832Y-51866140D01*
X146157369Y-51855630D01*
X146151991Y-51855247D01*
X146147014Y-51853186D01*
X146117750Y-51850304D01*
X145832035Y-51850304D01*
X145802771Y-51853186D01*
X145797792Y-51855248D01*
X145792417Y-51855630D01*
X145764953Y-51866140D01*
X145668459Y-51914386D01*
X145629657Y-51875584D01*
X145575585Y-51853186D01*
X145517057Y-51853186D01*
X145462985Y-51875584D01*
X145421601Y-51916968D01*
X145399203Y-51971040D01*
X145396321Y-52000304D01*
X144613430Y-52000304D01*
X144602996Y-51991255D01*
X144590670Y-51977043D01*
X144575859Y-51967720D01*
X144572986Y-51965228D01*
X144570678Y-51964458D01*
X144565784Y-51961378D01*
X144375308Y-51866140D01*
X144347845Y-51855630D01*
X144342467Y-51855247D01*
X144337490Y-51853186D01*
X144308226Y-51850304D01*
X143927273Y-51850304D01*
X143898009Y-51853186D01*
X143893030Y-51855248D01*
X143887655Y-51855630D01*
X143860191Y-51866140D01*
X143669715Y-51961378D01*
X143644829Y-51977043D01*
X143606483Y-52021258D01*
X143587975Y-52076780D01*
X143592123Y-52135161D01*
X143618298Y-52187510D01*
X143662513Y-52225856D01*
X143718035Y-52244364D01*
X143776416Y-52240216D01*
X143803879Y-52229706D01*
X143962683Y-52150304D01*
X144272816Y-52150304D01*
X144386898Y-52207345D01*
X144443940Y-52321428D01*
X144443940Y-52383790D01*
X144368054Y-52421733D01*
X143927273Y-52421733D01*
X143898009Y-52424615D01*
X143893030Y-52426677D01*
X143887655Y-52427059D01*
X143860191Y-52437569D01*
X143669715Y-52532807D01*
X143664824Y-52535885D01*
X143662513Y-52536656D01*
X143659634Y-52539152D01*
X143644829Y-52548472D01*
X143632507Y-52562679D01*
X143618298Y-52575003D01*
X143608975Y-52589812D01*
X143606483Y-52592687D01*
X143605713Y-52594994D01*
X143602633Y-52599889D01*
X143507395Y-52790365D01*
X143496885Y-52817828D01*
X143496502Y-52823205D01*
X143494441Y-52828183D01*
X143491559Y-52857447D01*
X142828048Y-52857447D01*
X143116153Y-52050754D01*
X143123282Y-52022226D01*
X143120375Y-51963771D01*
X143095321Y-51910879D01*
X143051932Y-51871599D01*
X142996814Y-51851914D01*
X142938359Y-51854821D01*
X142885467Y-51879875D01*
X142846187Y-51923264D01*
X142833631Y-51949853D01*
X142498701Y-52887656D01*
X142163772Y-51949854D01*
X142151216Y-51923264D01*
X142111936Y-51879875D01*
X142059044Y-51854821D01*
X142000589Y-51851914D01*
X141945471Y-51871599D01*
X141902082Y-51910879D01*
X141877028Y-51963771D01*
X141874121Y-52022226D01*
X140169628Y-52022226D01*
X140169628Y-51971040D01*
X140147230Y-51916968D01*
X140105846Y-51875584D01*
X140051774Y-51853186D01*
X140022510Y-51850304D01*
X139696320Y-51850304D01*
X139696320Y-51333638D01*
X148729655Y-51333638D01*
X148729655Y-53333638D01*
X148732537Y-53362902D01*
X148754935Y-53416974D01*
X148796319Y-53458358D01*
X148850391Y-53480756D01*
X148879655Y-53483638D01*
X149355845Y-53483638D01*
X149370656Y-53482179D01*
X149374605Y-53482460D01*
X149379800Y-53481278D01*
X149385109Y-53480756D01*
X149388769Y-53479239D01*
X149403279Y-53475941D01*
X149688994Y-53380703D01*
X149715845Y-53368714D01*
X149719914Y-53365184D01*
X149724896Y-53363121D01*
X149747626Y-53344466D01*
X149938102Y-53153989D01*
X149947541Y-53142487D01*
X149950535Y-53139891D01*
X149953375Y-53135377D01*
X149956757Y-53131258D01*
X149958272Y-53127598D01*
X149966200Y-53115005D01*
X150061438Y-52924529D01*
X150062256Y-52922390D01*
X150062902Y-52921519D01*
X150067286Y-52909245D01*
X150071948Y-52897065D01*
X150072024Y-52895982D01*
X150072795Y-52893827D01*
X150168033Y-52512876D01*
X150168783Y-52507803D01*
X150169630Y-52505759D01*
X150170715Y-52494737D01*
X150172335Y-52483786D01*
X150172009Y-52481598D01*
X150172512Y-52476495D01*
X150172512Y-52381257D01*
X150634417Y-52381257D01*
X150634417Y-52952685D01*
X150637299Y-52981949D01*
X150639360Y-52986926D01*
X150639743Y-52992304D01*
X150650253Y-53019767D01*
X150745491Y-53210243D01*
X150753418Y-53222836D01*
X150754934Y-53226496D01*
X150758315Y-53230616D01*
X150761156Y-53235129D01*
X150764149Y-53237725D01*
X150773588Y-53249226D01*
X150868827Y-53344466D01*
X150880329Y-53353906D01*
X150882925Y-53356899D01*
X150887434Y-53359737D01*
X150891557Y-53363121D01*
X150895219Y-53364637D01*
X150907811Y-53372564D01*
X151098287Y-53467802D01*
X151125751Y-53478312D01*
X151131126Y-53478693D01*
X151136105Y-53480756D01*
X151165369Y-53483638D01*
X151451084Y-53483638D01*
X151480348Y-53480756D01*
X151485325Y-53478694D01*
X151490703Y-53478312D01*
X151518166Y-53467802D01*
X151708642Y-53372564D01*
X151721237Y-53364635D01*
X151724896Y-53363120D01*
X151729013Y-53359740D01*
X151733528Y-53356899D01*
X151736125Y-53353904D01*
X151747627Y-53344465D01*
X151842865Y-53249226D01*
X151852303Y-53237724D01*
X151855297Y-53235129D01*
X151858137Y-53230616D01*
X151861520Y-53226495D01*
X151863036Y-53222833D01*
X151870962Y-53210243D01*
X151966200Y-53019767D01*
X151976710Y-52992303D01*
X151977091Y-52986927D01*
X151979154Y-52981949D01*
X151982036Y-52952685D01*
X151982036Y-52381257D01*
X151979154Y-52351993D01*
X151977091Y-52347014D01*
X151976710Y-52341639D01*
X151966200Y-52314176D01*
X151870962Y-52123698D01*
X151863035Y-52111106D01*
X151861519Y-52107445D01*
X151858135Y-52103322D01*
X151855297Y-52098813D01*
X151852305Y-52096218D01*
X151842864Y-52084714D01*
X151758454Y-52000304D01*
X152539179Y-52000304D01*
X152539179Y-53333638D01*
X152542061Y-53362902D01*
X152564459Y-53416974D01*
X152605843Y-53458358D01*
X152659915Y-53480756D01*
X152718443Y-53480756D01*
X152772515Y-53458358D01*
X152813899Y-53416974D01*
X152836297Y-53362902D01*
X152839179Y-53333638D01*
X152839179Y-52252912D01*
X152873271Y-52218820D01*
X153010303Y-52150304D01*
X153225198Y-52150304D01*
X153339280Y-52207345D01*
X153396322Y-52321428D01*
X153396322Y-53333638D01*
X153399204Y-53362902D01*
X153421602Y-53416974D01*
X153462986Y-53458358D01*
X153517058Y-53480756D01*
X153575586Y-53480756D01*
X153629658Y-53458358D01*
X153671042Y-53416974D01*
X153693440Y-53362902D01*
X153696322Y-53333638D01*
X153696322Y-52381257D01*
X154253465Y-52381257D01*
X154253465Y-52952685D01*
X154256347Y-52981949D01*
X154258408Y-52986926D01*
X154258791Y-52992304D01*
X154269301Y-53019767D01*
X154364539Y-53210243D01*
X154372466Y-53222836D01*
X154373982Y-53226496D01*
X154377363Y-53230616D01*
X154380204Y-53235129D01*
X154383197Y-53237725D01*
X154392636Y-53249226D01*
X154487875Y-53344466D01*
X154499377Y-53353906D01*
X154501973Y-53356899D01*
X154506482Y-53359737D01*
X154510605Y-53363121D01*
X154514267Y-53364637D01*
X154526859Y-53372564D01*
X154717335Y-53467802D01*
X154744799Y-53478312D01*
X154750174Y-53478693D01*
X154755153Y-53480756D01*
X154784417Y-53483638D01*
X155165370Y-53483638D01*
X155194634Y-53480756D01*
X155199611Y-53478694D01*
X155204989Y-53478312D01*
X155205846Y-53477984D01*
X155205846Y-53583942D01*
X155137330Y-53720974D01*
X155076515Y-53781788D01*
X154939483Y-53850304D01*
X154724589Y-53850304D01*
X154565785Y-53770902D01*
X154538322Y-53760392D01*
X154479941Y-53756244D01*
X154424419Y-53774752D01*
X154380204Y-53813098D01*
X154354029Y-53865447D01*
X154349881Y-53923828D01*
X154368389Y-53979350D01*
X154406735Y-54023565D01*
X154431621Y-54039230D01*
X154622097Y-54134468D01*
X154649561Y-54144978D01*
X154654936Y-54145359D01*
X154659915Y-54147422D01*
X154689179Y-54150304D01*
X154974893Y-54150304D01*
X155004157Y-54147422D01*
X155009135Y-54145359D01*
X155014511Y-54144978D01*
X155041975Y-54134468D01*
X155232452Y-54039230D01*
X155245045Y-54031302D01*
X155248705Y-54029787D01*
X155252824Y-54026405D01*
X155257338Y-54023565D01*
X155259934Y-54020570D01*
X155271436Y-54011132D01*
X155366674Y-53915894D01*
X155376113Y-53904392D01*
X155379107Y-53901796D01*
X155381947Y-53897282D01*
X155385329Y-53893163D01*
X155386844Y-53889503D01*
X155394772Y-53876910D01*
X155490010Y-53686434D01*
X155500520Y-53658970D01*
X155500901Y-53653594D01*
X155502964Y-53648616D01*
X155505846Y-53619352D01*
X155505846Y-52286019D01*
X156062989Y-52286019D01*
X156062989Y-53047923D01*
X156065871Y-53077187D01*
X156067933Y-53082165D01*
X156068315Y-53087541D01*
X156078825Y-53115005D01*
X156174063Y-53305482D01*
X156177143Y-53310376D01*
X156177913Y-53312684D01*
X156180405Y-53315558D01*
X156189728Y-53330368D01*
X156203937Y-53342691D01*
X156216259Y-53356899D01*
X156231064Y-53366218D01*
X156233943Y-53368715D01*
X156236254Y-53369485D01*
X156241145Y-53372564D01*
X156431621Y-53467802D01*
X156459085Y-53478312D01*
X156464460Y-53478693D01*
X156469439Y-53480756D01*
X156498703Y-53483638D01*
X156879656Y-53483638D01*
X156908920Y-53480756D01*
X156913897Y-53478694D01*
X156919275Y-53478312D01*
X156946738Y-53467802D01*
X157137214Y-53372564D01*
X157162100Y-53356899D01*
X157200447Y-53312684D01*
X157218954Y-53257161D01*
X157214806Y-53198781D01*
X157188631Y-53146432D01*
X157144416Y-53108085D01*
X157088894Y-53089578D01*
X157030514Y-53093726D01*
X157003050Y-53104236D01*
X156844246Y-53183638D01*
X156534113Y-53183638D01*
X156420029Y-53126596D01*
X156362989Y-53012513D01*
X156362989Y-52789941D01*
X157194633Y-52623613D01*
X157194634Y-52623613D01*
X157194634Y-52623612D01*
X157194788Y-52623582D01*
X157222918Y-52615017D01*
X157235129Y-52606838D01*
X157248706Y-52601215D01*
X157259208Y-52590712D01*
X157271547Y-52582449D01*
X157279697Y-52570223D01*
X157290090Y-52559831D01*
X157295773Y-52546110D01*
X157304012Y-52533753D01*
X157306863Y-52519336D01*
X157312488Y-52505759D01*
X157315370Y-52476495D01*
X157315370Y-52286019D01*
X157312488Y-52256755D01*
X157310425Y-52251776D01*
X157310044Y-52246401D01*
X157299534Y-52218938D01*
X157204296Y-52028460D01*
X157201217Y-52023569D01*
X157200447Y-52021258D01*
X157197949Y-52018378D01*
X157188631Y-52003575D01*
X157184860Y-52000304D01*
X157872513Y-52000304D01*
X157872513Y-53333638D01*
X157875395Y-53362902D01*
X157897793Y-53416974D01*
X157939177Y-53458358D01*
X157993249Y-53480756D01*
X158051777Y-53480756D01*
X158105849Y-53458358D01*
X158147233Y-53416974D01*
X158169631Y-53362902D01*
X158172513Y-53333638D01*
X158172513Y-52252912D01*
X158206605Y-52218820D01*
X158343637Y-52150304D01*
X158558532Y-52150304D01*
X158672614Y-52207345D01*
X158729656Y-52321428D01*
X158729656Y-53333638D01*
X158732538Y-53362902D01*
X158754936Y-53416974D01*
X158796320Y-53458358D01*
X158850392Y-53480756D01*
X158908920Y-53480756D01*
X158962992Y-53458358D01*
X159004376Y-53416974D01*
X159026774Y-53362902D01*
X159029656Y-53333638D01*
X159029656Y-52286019D01*
X159026774Y-52256755D01*
X159024711Y-52251776D01*
X159024330Y-52246401D01*
X159013820Y-52218938D01*
X158918582Y-52028460D01*
X158915503Y-52023569D01*
X158914733Y-52021258D01*
X158912235Y-52018378D01*
X158902917Y-52003575D01*
X158888712Y-51991255D01*
X158876386Y-51977043D01*
X158861575Y-51967720D01*
X158858702Y-51965228D01*
X158856394Y-51964458D01*
X158851500Y-51961378D01*
X158661024Y-51866140D01*
X158633561Y-51855630D01*
X158628183Y-51855247D01*
X158623206Y-51853186D01*
X158593942Y-51850304D01*
X158308227Y-51850304D01*
X158278963Y-51853186D01*
X158273984Y-51855248D01*
X158268609Y-51855630D01*
X158241145Y-51866140D01*
X158144651Y-51914386D01*
X158105849Y-51875584D01*
X158051777Y-51853186D01*
X157993249Y-51853186D01*
X157939177Y-51875584D01*
X157897793Y-51916968D01*
X157875395Y-51971040D01*
X157872513Y-52000304D01*
X157184860Y-52000304D01*
X157174426Y-51991255D01*
X157162100Y-51977043D01*
X157147289Y-51967720D01*
X157144416Y-51965228D01*
X157142108Y-51964458D01*
X157137214Y-51961378D01*
X156946738Y-51866140D01*
X156919275Y-51855630D01*
X156913897Y-51855247D01*
X156908920Y-51853186D01*
X156879656Y-51850304D01*
X156498703Y-51850304D01*
X156469439Y-51853186D01*
X156464460Y-51855248D01*
X156459085Y-51855630D01*
X156431621Y-51866140D01*
X156241145Y-51961378D01*
X156236254Y-51964456D01*
X156233943Y-51965227D01*
X156231064Y-51967723D01*
X156216259Y-51977043D01*
X156203937Y-51991250D01*
X156189728Y-52003574D01*
X156180405Y-52018383D01*
X156177913Y-52021258D01*
X156177143Y-52023565D01*
X156174063Y-52028460D01*
X156078825Y-52218937D01*
X156068315Y-52246401D01*
X156067933Y-52251776D01*
X156065871Y-52256755D01*
X156062989Y-52286019D01*
X155505846Y-52286019D01*
X155505846Y-52000304D01*
X155502964Y-51971040D01*
X155480566Y-51916968D01*
X155439182Y-51875584D01*
X155385110Y-51853186D01*
X155326582Y-51853186D01*
X155272510Y-51875584D01*
X155265453Y-51882640D01*
X155232452Y-51866140D01*
X155204989Y-51855630D01*
X155199611Y-51855247D01*
X155194634Y-51853186D01*
X155165370Y-51850304D01*
X154784417Y-51850304D01*
X154755153Y-51853186D01*
X154750174Y-51855248D01*
X154744799Y-51855630D01*
X154717335Y-51866140D01*
X154526859Y-51961378D01*
X154514265Y-51969305D01*
X154510606Y-51970821D01*
X154506486Y-51974202D01*
X154501973Y-51977043D01*
X154499376Y-51980036D01*
X154487875Y-51989476D01*
X154392637Y-52084714D01*
X154383198Y-52096215D01*
X154380204Y-52098812D01*
X154377363Y-52103325D01*
X154373982Y-52107445D01*
X154372466Y-52111104D01*
X154364539Y-52123698D01*
X154269301Y-52314175D01*
X154258791Y-52341639D01*
X154258409Y-52347014D01*
X154256347Y-52351993D01*
X154253465Y-52381257D01*
X153696322Y-52381257D01*
X153696322Y-52286019D01*
X153693440Y-52256755D01*
X153691377Y-52251776D01*
X153690996Y-52246401D01*
X153680486Y-52218938D01*
X153585248Y-52028460D01*
X153582169Y-52023569D01*
X153581399Y-52021258D01*
X153578901Y-52018378D01*
X153569583Y-52003575D01*
X153555378Y-51991255D01*
X153543052Y-51977043D01*
X153528241Y-51967720D01*
X153525368Y-51965228D01*
X153523060Y-51964458D01*
X153518166Y-51961378D01*
X153327690Y-51866140D01*
X153300227Y-51855630D01*
X153294849Y-51855247D01*
X153289872Y-51853186D01*
X153260608Y-51850304D01*
X152974893Y-51850304D01*
X152945629Y-51853186D01*
X152940650Y-51855248D01*
X152935275Y-51855630D01*
X152907811Y-51866140D01*
X152811317Y-51914386D01*
X152772515Y-51875584D01*
X152718443Y-51853186D01*
X152659915Y-51853186D01*
X152605843Y-51875584D01*
X152564459Y-51916968D01*
X152542061Y-51971040D01*
X152539179Y-52000304D01*
X151758454Y-52000304D01*
X151747626Y-51989476D01*
X151736124Y-51980037D01*
X151733528Y-51977043D01*
X151729014Y-51974202D01*
X151724895Y-51970821D01*
X151721235Y-51969305D01*
X151708642Y-51961378D01*
X151518166Y-51866140D01*
X151490703Y-51855630D01*
X151485325Y-51855247D01*
X151480348Y-51853186D01*
X151451084Y-51850304D01*
X151165369Y-51850304D01*
X151136105Y-51853186D01*
X151131126Y-51855248D01*
X151125751Y-51855630D01*
X151098287Y-51866140D01*
X150907811Y-51961378D01*
X150895217Y-51969305D01*
X150891558Y-51970821D01*
X150887438Y-51974202D01*
X150882925Y-51977043D01*
X150880328Y-51980036D01*
X150868827Y-51989476D01*
X150773589Y-52084714D01*
X150764150Y-52096215D01*
X150761156Y-52098812D01*
X150758315Y-52103325D01*
X150754934Y-52107445D01*
X150753418Y-52111104D01*
X150745491Y-52123698D01*
X150650253Y-52314175D01*
X150639743Y-52341639D01*
X150639361Y-52347014D01*
X150637299Y-52351993D01*
X150634417Y-52381257D01*
X150172512Y-52381257D01*
X150172512Y-52190780D01*
X150172009Y-52185676D01*
X150172335Y-52183489D01*
X150170715Y-52172537D01*
X150169630Y-52161516D01*
X150168783Y-52159471D01*
X150168033Y-52154399D01*
X150072795Y-51773448D01*
X150072024Y-51771292D01*
X150071948Y-51770210D01*
X150067286Y-51758029D01*
X150062902Y-51745756D01*
X150062256Y-51744884D01*
X150061438Y-51742746D01*
X149966200Y-51552270D01*
X149958272Y-51539676D01*
X149956757Y-51536017D01*
X149953375Y-51531897D01*
X149950535Y-51527384D01*
X149947541Y-51524787D01*
X149938102Y-51513286D01*
X149747626Y-51322810D01*
X149724895Y-51304155D01*
X149719915Y-51302092D01*
X149715845Y-51298562D01*
X149688994Y-51286573D01*
X149403279Y-51191335D01*
X149388769Y-51188036D01*
X149385109Y-51186520D01*
X149379800Y-51185997D01*
X149374605Y-51184816D01*
X149370656Y-51185096D01*
X149355845Y-51183638D01*
X148879655Y-51183638D01*
X148850391Y-51186520D01*
X148796319Y-51208918D01*
X148754935Y-51250302D01*
X148732537Y-51304374D01*
X148729655Y-51333638D01*
X139696320Y-51333638D01*
X139693438Y-51304374D01*
X139671040Y-51250302D01*
X139629656Y-51208918D01*
X139575584Y-51186520D01*
X139517056Y-51186520D01*
X139462984Y-51208918D01*
X139421600Y-51250302D01*
X139399202Y-51304374D01*
X139396320Y-51333638D01*
X139396320Y-51850304D01*
X139260606Y-51850304D01*
X139231342Y-51853186D01*
X139177270Y-51875584D01*
X139135886Y-51916968D01*
X139113488Y-51971040D01*
X139026772Y-51971040D01*
X139004374Y-51916968D01*
X138962990Y-51875584D01*
X138908918Y-51853186D01*
X138879654Y-51850304D01*
X138689177Y-51850304D01*
X138659913Y-51853186D01*
X138654934Y-51855248D01*
X138649559Y-51855630D01*
X138622095Y-51866140D01*
X138447956Y-51953209D01*
X138432945Y-51916968D01*
X138391561Y-51875584D01*
X138337489Y-51853186D01*
X138278961Y-51853186D01*
X138224889Y-51875584D01*
X138183505Y-51916968D01*
X138161107Y-51971040D01*
X138158225Y-52000304D01*
X137375334Y-52000304D01*
X137364900Y-51991255D01*
X137352574Y-51977043D01*
X137337763Y-51967720D01*
X137334890Y-51965228D01*
X137332582Y-51964458D01*
X137327688Y-51961378D01*
X137137212Y-51866140D01*
X137109749Y-51855630D01*
X137104371Y-51855247D01*
X137099394Y-51853186D01*
X137070130Y-51850304D01*
X136689177Y-51850304D01*
X136659913Y-51853186D01*
X136654934Y-51855248D01*
X136649559Y-51855630D01*
X136622095Y-51866140D01*
X136431619Y-51961378D01*
X136406733Y-51977043D01*
X136368387Y-52021258D01*
X136349879Y-52076780D01*
X136354027Y-52135161D01*
X136380202Y-52187510D01*
X136424417Y-52225856D01*
X136479939Y-52244364D01*
X136538320Y-52240216D01*
X136565783Y-52229706D01*
X136724587Y-52150304D01*
X137034720Y-52150304D01*
X137148802Y-52207345D01*
X137205844Y-52321428D01*
X137205844Y-52383790D01*
X137129958Y-52421733D01*
X136689177Y-52421733D01*
X136659913Y-52424615D01*
X136654934Y-52426677D01*
X136649559Y-52427059D01*
X136622095Y-52437569D01*
X136431619Y-52532807D01*
X136426728Y-52535885D01*
X136424417Y-52536656D01*
X136421538Y-52539152D01*
X136406733Y-52548472D01*
X136394411Y-52562679D01*
X136380202Y-52575003D01*
X136370879Y-52589812D01*
X136368387Y-52592687D01*
X136367617Y-52594994D01*
X136364537Y-52599889D01*
X136269299Y-52790365D01*
X136258789Y-52817828D01*
X136258406Y-52823205D01*
X136256345Y-52828183D01*
X136253463Y-52857447D01*
X135791558Y-52857447D01*
X135791558Y-52666971D01*
X135788676Y-52637707D01*
X135786613Y-52632728D01*
X135786232Y-52627353D01*
X135775722Y-52599889D01*
X135680484Y-52409413D01*
X135672556Y-52396819D01*
X135671041Y-52393160D01*
X135667659Y-52389040D01*
X135664819Y-52384527D01*
X135661825Y-52381930D01*
X135652386Y-52370429D01*
X135557148Y-52275191D01*
X135534417Y-52256536D01*
X135529437Y-52254473D01*
X135525367Y-52250943D01*
X135513231Y-52245524D01*
X135557148Y-52201608D01*
X135566587Y-52190106D01*
X135569581Y-52187510D01*
X135572421Y-52182996D01*
X135575803Y-52178877D01*
X135577318Y-52175217D01*
X135585246Y-52162624D01*
X135680484Y-51972148D01*
X135690994Y-51944684D01*
X135691375Y-51939308D01*
X135693438Y-51934330D01*
X135696320Y-51905066D01*
X135696320Y-51714590D01*
X135693438Y-51685326D01*
X135691375Y-51680347D01*
X135690994Y-51674972D01*
X135680484Y-51647508D01*
X135585246Y-51457032D01*
X135577318Y-51444438D01*
X135575803Y-51440779D01*
X135572421Y-51436659D01*
X135569581Y-51432146D01*
X135566587Y-51429549D01*
X135557148Y-51418048D01*
X135461910Y-51322810D01*
X135450408Y-51313371D01*
X135447812Y-51310377D01*
X135443298Y-51307536D01*
X135439179Y-51304155D01*
X135435519Y-51302639D01*
X135422926Y-51294712D01*
X135232450Y-51199474D01*
X135204987Y-51188964D01*
X135199609Y-51188581D01*
X135194632Y-51186520D01*
X135165368Y-51183638D01*
X134498701Y-51183638D01*
X134469437Y-51186520D01*
X134415365Y-51208918D01*
X134373981Y-51250302D01*
X134351583Y-51304374D01*
X134348701Y-51333638D01*
X131220129Y-51333638D01*
X131218234Y-51314401D01*
X131218390Y-51310863D01*
X131217698Y-51308962D01*
X131217247Y-51304374D01*
X131207283Y-51280321D01*
X131198389Y-51255861D01*
X131196129Y-51253394D01*
X131194849Y-51250302D01*
X131176433Y-51231886D01*
X131158861Y-51212698D01*
X131155830Y-51211283D01*
X131153465Y-51208918D01*
X131129406Y-51198952D01*
X131105824Y-51187947D01*
X131102483Y-51187800D01*
X131099393Y-51186520D01*
X131073345Y-51186520D01*
X131047353Y-51185378D01*
X131044212Y-51186520D01*
X131040865Y-51186520D01*
X131016811Y-51196483D01*
X130992351Y-51205378D01*
X130989883Y-51207637D01*
X130986793Y-51208918D01*
X130968388Y-51227322D01*
X130949188Y-51244906D01*
X130946838Y-51248872D01*
X130945409Y-51250302D01*
X130944054Y-51253572D01*
X130934201Y-51270206D01*
X130403463Y-52407502D01*
X129872723Y-51270205D01*
X129862869Y-51253570D01*
X129861516Y-51250302D01*
X129860087Y-51248873D01*
X129857737Y-51244905D01*
X129838529Y-51227315D01*
X129820132Y-51208918D01*
X129817041Y-51207637D01*
X129814574Y-51205378D01*
X129790108Y-51196481D01*
X129766060Y-51186520D01*
X129762714Y-51186520D01*
X129759571Y-51185377D01*
X129733566Y-51186520D01*
X129707532Y-51186520D01*
X129704441Y-51187800D01*
X129701100Y-51187947D01*
X129677500Y-51198959D01*
X129653460Y-51208918D01*
X129651096Y-51211281D01*
X129648063Y-51212697D01*
X129630473Y-51231904D01*
X129612076Y-51250302D01*
X129610795Y-51253392D01*
X129608536Y-51255860D01*
X129599639Y-51280325D01*
X129589678Y-51304374D01*
X129589226Y-51308962D01*
X129588535Y-51310863D01*
X129588690Y-51314401D01*
X129586796Y-51333638D01*
X128710833Y-51333638D01*
X128700005Y-51322810D01*
X128688503Y-51313371D01*
X128685907Y-51310377D01*
X128681393Y-51307536D01*
X128677274Y-51304155D01*
X128673614Y-51302639D01*
X128661021Y-51294712D01*
X128470545Y-51199474D01*
X128443082Y-51188964D01*
X128437704Y-51188581D01*
X128432727Y-51186520D01*
X128403463Y-51183638D01*
X128022510Y-51183638D01*
X127993246Y-51186520D01*
X127988267Y-51188582D01*
X127982892Y-51188964D01*
X127955428Y-51199474D01*
X127764952Y-51294712D01*
X127752358Y-51302639D01*
X127748699Y-51304155D01*
X127744579Y-51307536D01*
X127740066Y-51310377D01*
X127737469Y-51313370D01*
X127725968Y-51322810D01*
X127535492Y-51513286D01*
X127516837Y-51536017D01*
X127512569Y-51546320D01*
X127505930Y-51555281D01*
X127496037Y-51582972D01*
X127400799Y-51963924D01*
X127400049Y-51968995D01*
X127399202Y-51971040D01*
X127398116Y-51982062D01*
X127396497Y-51993013D01*
X127396822Y-51995200D01*
X127396320Y-52000304D01*
X126934415Y-52000304D01*
X126934415Y-51714590D01*
X126931533Y-51685326D01*
X126929470Y-51680347D01*
X126929089Y-51674972D01*
X126918579Y-51647508D01*
X126823341Y-51457032D01*
X126815413Y-51444438D01*
X126813898Y-51440779D01*
X126810516Y-51436659D01*
X126807676Y-51432146D01*
X126804682Y-51429549D01*
X126795243Y-51418048D01*
X126700005Y-51322810D01*
X126688503Y-51313371D01*
X126685907Y-51310377D01*
X126681393Y-51307536D01*
X126677274Y-51304155D01*
X126673614Y-51302639D01*
X126661021Y-51294712D01*
X126470545Y-51199474D01*
X126443082Y-51188964D01*
X126437704Y-51188581D01*
X126432727Y-51186520D01*
X126403463Y-51183638D01*
X125641558Y-51183638D01*
X125612294Y-51186520D01*
X125558222Y-51208918D01*
X125516838Y-51250302D01*
X125494440Y-51304374D01*
X125491558Y-51333638D01*
X125269336Y-51333638D01*
X125269336Y-48113750D01*
X125491558Y-48113750D01*
X125491558Y-50113750D01*
X125494440Y-50143014D01*
X125516838Y-50197086D01*
X125558222Y-50238470D01*
X125612294Y-50260868D01*
X125670822Y-50260868D01*
X125724894Y-50238470D01*
X125766278Y-50197086D01*
X125788676Y-50143014D01*
X125791558Y-50113750D01*
X125791558Y-49216131D01*
X126308225Y-49216131D01*
X126337489Y-49213249D01*
X126391561Y-49190851D01*
X126421043Y-49161369D01*
X127110606Y-49161369D01*
X127110606Y-49732797D01*
X127113488Y-49762061D01*
X127115549Y-49767038D01*
X127115932Y-49772416D01*
X127126442Y-49799879D01*
X127221680Y-49990355D01*
X127229607Y-50002948D01*
X127231123Y-50006608D01*
X127234504Y-50010728D01*
X127237345Y-50015241D01*
X127240338Y-50017837D01*
X127249777Y-50029338D01*
X127345016Y-50124578D01*
X127356518Y-50134018D01*
X127359114Y-50137011D01*
X127363623Y-50139849D01*
X127367746Y-50143233D01*
X127371408Y-50144749D01*
X127384000Y-50152676D01*
X127574476Y-50247914D01*
X127601940Y-50258424D01*
X127607315Y-50258805D01*
X127612294Y-50260868D01*
X127641558Y-50263750D01*
X127927273Y-50263750D01*
X127956537Y-50260868D01*
X127961514Y-50258806D01*
X127966892Y-50258424D01*
X127994355Y-50247914D01*
X128184831Y-50152676D01*
X128197426Y-50144747D01*
X128201085Y-50143232D01*
X128205202Y-50139852D01*
X128209717Y-50137011D01*
X128212314Y-50134016D01*
X128223816Y-50124577D01*
X128319054Y-50029338D01*
X128328492Y-50017836D01*
X128331486Y-50015241D01*
X128334326Y-50010728D01*
X128337709Y-50006607D01*
X128339225Y-50002945D01*
X128347151Y-49990355D01*
X128442389Y-49799879D01*
X128452899Y-49772415D01*
X128453280Y-49767039D01*
X128455343Y-49762061D01*
X128458225Y-49732797D01*
X128458225Y-49161369D01*
X128455343Y-49132105D01*
X128453280Y-49127126D01*
X128452899Y-49121751D01*
X128442389Y-49094288D01*
X128347151Y-48903810D01*
X128339224Y-48891218D01*
X128337708Y-48887557D01*
X128334324Y-48883434D01*
X128331486Y-48878925D01*
X128328494Y-48876330D01*
X128319053Y-48864826D01*
X128234643Y-48780416D01*
X129015368Y-48780416D01*
X129015368Y-50113750D01*
X129018250Y-50143014D01*
X129040648Y-50197086D01*
X129082032Y-50238470D01*
X129136104Y-50260868D01*
X129194632Y-50260868D01*
X129248704Y-50238470D01*
X129290088Y-50197086D01*
X129312486Y-50143014D01*
X129315368Y-50113750D01*
X129315368Y-49196778D01*
X129383883Y-49059746D01*
X129444698Y-48998932D01*
X129500778Y-48970892D01*
X131682035Y-48970892D01*
X131682035Y-49256607D01*
X131682537Y-49261710D01*
X131682212Y-49263898D01*
X131683831Y-49274848D01*
X131684917Y-49285871D01*
X131685764Y-49287915D01*
X131686514Y-49292987D01*
X131781752Y-49673939D01*
X131782522Y-49676094D01*
X131782599Y-49677178D01*
X131787266Y-49689374D01*
X131791645Y-49701630D01*
X131792289Y-49702500D01*
X131793109Y-49704641D01*
X131888347Y-49895117D01*
X131896274Y-49907710D01*
X131897790Y-49911370D01*
X131901171Y-49915489D01*
X131904012Y-49920003D01*
X131907006Y-49922599D01*
X131916445Y-49934101D01*
X132106920Y-50124577D01*
X132129651Y-50143232D01*
X132134630Y-50145294D01*
X132138702Y-50148826D01*
X132165553Y-50160815D01*
X132451268Y-50256053D01*
X132465780Y-50259352D01*
X132469438Y-50260868D01*
X132474740Y-50261390D01*
X132479942Y-50262573D01*
X132483896Y-50262291D01*
X132498702Y-50263750D01*
X132689178Y-50263750D01*
X132703989Y-50262291D01*
X132707939Y-50262572D01*
X132713133Y-50261390D01*
X132718442Y-50260868D01*
X132722104Y-50259350D01*
X132736612Y-50256052D01*
X133022326Y-50160814D01*
X133049177Y-50148826D01*
X133053248Y-50145294D01*
X133058228Y-50143232D01*
X133080959Y-50124577D01*
X133176197Y-50029338D01*
X133194852Y-50006607D01*
X133217248Y-49952535D01*
X133217248Y-49894009D01*
X133194851Y-49839937D01*
X133153465Y-49798551D01*
X133099392Y-49776155D01*
X133040867Y-49776155D01*
X132986794Y-49798552D01*
X132964064Y-49817207D01*
X132893863Y-49887408D01*
X132664838Y-49963750D01*
X132523045Y-49963750D01*
X132294013Y-49887406D01*
X132145789Y-49739181D01*
X132068800Y-49585203D01*
X131982035Y-49238142D01*
X131982035Y-48989356D01*
X132068800Y-48642295D01*
X132145789Y-48488318D01*
X132294013Y-48340093D01*
X132523045Y-48263750D01*
X132664838Y-48263750D01*
X132893864Y-48340092D01*
X132964064Y-48410292D01*
X132986795Y-48428947D01*
X133040867Y-48451344D01*
X133099393Y-48451344D01*
X133153465Y-48428947D01*
X133194851Y-48387561D01*
X133217248Y-48333489D01*
X133217248Y-48274963D01*
X133194851Y-48220891D01*
X133176196Y-48198160D01*
X133091786Y-48113750D01*
X133777273Y-48113750D01*
X133777273Y-50113750D01*
X133780155Y-50143014D01*
X133802553Y-50197086D01*
X133843937Y-50238470D01*
X133898009Y-50260868D01*
X133956537Y-50260868D01*
X134010609Y-50238470D01*
X134051993Y-50197086D01*
X134074391Y-50143014D01*
X134077273Y-50113750D01*
X134077273Y-49311369D01*
X134689178Y-49311369D01*
X134718442Y-49308487D01*
X134723419Y-49306425D01*
X134728797Y-49306043D01*
X134756260Y-49295533D01*
X134946736Y-49200295D01*
X134959331Y-49192366D01*
X134962990Y-49190851D01*
X134967107Y-49187471D01*
X134971622Y-49184630D01*
X134974219Y-49181635D01*
X134985721Y-49172196D01*
X135080959Y-49076957D01*
X135090397Y-49065455D01*
X135093391Y-49062860D01*
X135096231Y-49058347D01*
X135099614Y-49054226D01*
X135101130Y-49050564D01*
X135109056Y-49037974D01*
X135204294Y-48847498D01*
X135214804Y-48820034D01*
X135215185Y-48814658D01*
X135217248Y-48809680D01*
X135220130Y-48780416D01*
X135220130Y-48494702D01*
X135217248Y-48465438D01*
X135215185Y-48460459D01*
X135214804Y-48455084D01*
X135204294Y-48427620D01*
X135109056Y-48237144D01*
X135101128Y-48224550D01*
X135099613Y-48220891D01*
X135096231Y-48216771D01*
X135093391Y-48212258D01*
X135090397Y-48209661D01*
X135080958Y-48198160D01*
X134985720Y-48102922D01*
X134974218Y-48093483D01*
X134971622Y-48090489D01*
X134967108Y-48087648D01*
X134963256Y-48084486D01*
X135589679Y-48084486D01*
X135589679Y-48143014D01*
X135612077Y-48197086D01*
X135653461Y-48238470D01*
X135707533Y-48260868D01*
X135736797Y-48263750D01*
X136842649Y-48263750D01*
X136075115Y-50054662D01*
X136066237Y-50082695D01*
X136065524Y-50141218D01*
X136087260Y-50195558D01*
X136128137Y-50237445D01*
X136181932Y-50260500D01*
X136240455Y-50261213D01*
X136294795Y-50239477D01*
X136336682Y-50198600D01*
X136350859Y-50172838D01*
X136906795Y-48875654D01*
X137586797Y-48875654D01*
X137586797Y-49351845D01*
X137587299Y-49356948D01*
X137586974Y-49359136D01*
X137588593Y-49370086D01*
X137589679Y-49381109D01*
X137590526Y-49383153D01*
X137591276Y-49388225D01*
X137686514Y-49769177D01*
X137687284Y-49771332D01*
X137687361Y-49772416D01*
X137692028Y-49784612D01*
X137696407Y-49796868D01*
X137697051Y-49797738D01*
X137697871Y-49799879D01*
X137793109Y-49990355D01*
X137801036Y-50002948D01*
X137802552Y-50006608D01*
X137805933Y-50010728D01*
X137808774Y-50015241D01*
X137811767Y-50017837D01*
X137821206Y-50029338D01*
X137916445Y-50124578D01*
X137927947Y-50134018D01*
X137930543Y-50137011D01*
X137935052Y-50139849D01*
X137939175Y-50143233D01*
X137942837Y-50144749D01*
X137955429Y-50152676D01*
X138145905Y-50247914D01*
X138173369Y-50258424D01*
X138178744Y-50258805D01*
X138183723Y-50260868D01*
X138212987Y-50263750D01*
X138403464Y-50263750D01*
X138432728Y-50260868D01*
X138437705Y-50258806D01*
X138443083Y-50258424D01*
X138470546Y-50247914D01*
X138661022Y-50152676D01*
X138673617Y-50144747D01*
X138677276Y-50143232D01*
X138681393Y-50139852D01*
X138685908Y-50137011D01*
X138688505Y-50134016D01*
X138700007Y-50124577D01*
X138795245Y-50029338D01*
X138804683Y-50017836D01*
X138807677Y-50015241D01*
X138810517Y-50010728D01*
X138813900Y-50006607D01*
X138815416Y-50002945D01*
X138823342Y-49990355D01*
X138918580Y-49799879D01*
X138919398Y-49797740D01*
X138920044Y-49796869D01*
X138924428Y-49784595D01*
X138929090Y-49772415D01*
X138929166Y-49771332D01*
X138929937Y-49769177D01*
X139025175Y-49388226D01*
X139025925Y-49383153D01*
X139026772Y-49381109D01*
X139027857Y-49370087D01*
X139029477Y-49359136D01*
X139029151Y-49356948D01*
X139029654Y-49351845D01*
X139029654Y-48875654D01*
X139029151Y-48870550D01*
X139029477Y-48868363D01*
X139027857Y-48857411D01*
X139026772Y-48846390D01*
X139025925Y-48844345D01*
X139025175Y-48839273D01*
X139010461Y-48780416D01*
X141110607Y-48780416D01*
X141110607Y-50780416D01*
X141113489Y-50809680D01*
X141135887Y-50863752D01*
X141177271Y-50905136D01*
X141231343Y-50927534D01*
X141289871Y-50927534D01*
X141343943Y-50905136D01*
X141385327Y-50863752D01*
X141407725Y-50809680D01*
X141410607Y-50780416D01*
X141410607Y-50370201D01*
X149208728Y-50370201D01*
X149208728Y-50428727D01*
X149231125Y-50482799D01*
X149272511Y-50524185D01*
X149326583Y-50546582D01*
X149385109Y-50546582D01*
X149439181Y-50524185D01*
X149461912Y-50505530D01*
X149557150Y-50410292D01*
X149566589Y-50398790D01*
X149569583Y-50396194D01*
X149572423Y-50391680D01*
X149575805Y-50387561D01*
X149577320Y-50383901D01*
X149585248Y-50371308D01*
X149680486Y-50180832D01*
X149690996Y-50153368D01*
X149691377Y-50147992D01*
X149693440Y-50143014D01*
X149696322Y-50113750D01*
X149696322Y-50084486D01*
X151589681Y-50084486D01*
X151589681Y-50143014D01*
X151595519Y-50157108D01*
X151612078Y-50197085D01*
X151653464Y-50238471D01*
X151676262Y-50247914D01*
X151707535Y-50260868D01*
X151736799Y-50263750D01*
X152974894Y-50263750D01*
X153004158Y-50260868D01*
X153058230Y-50238470D01*
X153099614Y-50197086D01*
X153122012Y-50143014D01*
X153122012Y-50084486D01*
X153099614Y-50030414D01*
X153058230Y-49989030D01*
X153004158Y-49966632D01*
X152974894Y-49963750D01*
X152098931Y-49963750D01*
X152985722Y-49076958D01*
X153004377Y-49054227D01*
X153006439Y-49049247D01*
X153009970Y-49045177D01*
X153021958Y-49018326D01*
X153069515Y-48875654D01*
X153586799Y-48875654D01*
X153586799Y-49351845D01*
X153587301Y-49356948D01*
X153586976Y-49359136D01*
X153588595Y-49370086D01*
X153589681Y-49381109D01*
X153590528Y-49383153D01*
X153591278Y-49388225D01*
X153686516Y-49769177D01*
X153687286Y-49771332D01*
X153687363Y-49772416D01*
X153692030Y-49784612D01*
X153696409Y-49796868D01*
X153697053Y-49797738D01*
X153697873Y-49799879D01*
X153793111Y-49990355D01*
X153801038Y-50002948D01*
X153802554Y-50006608D01*
X153805935Y-50010728D01*
X153808776Y-50015241D01*
X153811769Y-50017837D01*
X153821208Y-50029338D01*
X153916447Y-50124578D01*
X153927949Y-50134018D01*
X153930545Y-50137011D01*
X153935054Y-50139849D01*
X153939177Y-50143233D01*
X153942839Y-50144749D01*
X153955431Y-50152676D01*
X154145907Y-50247914D01*
X154173371Y-50258424D01*
X154178746Y-50258805D01*
X154183725Y-50260868D01*
X154212989Y-50263750D01*
X154403466Y-50263750D01*
X154432730Y-50260868D01*
X154437707Y-50258806D01*
X154443085Y-50258424D01*
X154470548Y-50247914D01*
X154661024Y-50152676D01*
X154673619Y-50144747D01*
X154677278Y-50143232D01*
X154681395Y-50139852D01*
X154685910Y-50137011D01*
X154688507Y-50134016D01*
X154700009Y-50124577D01*
X154740100Y-50084486D01*
X155399205Y-50084486D01*
X155399205Y-50143014D01*
X155405043Y-50157108D01*
X155421602Y-50197085D01*
X155462988Y-50238471D01*
X155485786Y-50247914D01*
X155517059Y-50260868D01*
X155546323Y-50263750D01*
X156784418Y-50263750D01*
X156813682Y-50260868D01*
X156867754Y-50238470D01*
X156909138Y-50197086D01*
X156931536Y-50143014D01*
X156931536Y-50084486D01*
X156909138Y-50030414D01*
X156867754Y-49989030D01*
X156813682Y-49966632D01*
X156784418Y-49963750D01*
X155908455Y-49963750D01*
X156791593Y-49080611D01*
X157397023Y-49080611D01*
X157399205Y-49087842D01*
X157399205Y-49095395D01*
X157407596Y-49115654D01*
X157413930Y-49136643D01*
X157418712Y-49142488D01*
X157421603Y-49149467D01*
X157437105Y-49164969D01*
X157450990Y-49181940D01*
X157457647Y-49185511D01*
X157462988Y-49190852D01*
X157483240Y-49199240D01*
X157502565Y-49209607D01*
X157510083Y-49210358D01*
X157517061Y-49213249D01*
X157538984Y-49213249D01*
X157560803Y-49215431D01*
X157568034Y-49213249D01*
X157575587Y-49213249D01*
X157595846Y-49204857D01*
X157616835Y-49198524D01*
X157622680Y-49193741D01*
X157629659Y-49190851D01*
X157652390Y-49172196D01*
X157730415Y-49094169D01*
X157867447Y-49025654D01*
X158272818Y-49025654D01*
X158409849Y-49094169D01*
X158470663Y-49154984D01*
X158539180Y-49292017D01*
X158539180Y-49697387D01*
X158470663Y-49834419D01*
X158409849Y-49895234D01*
X158272818Y-49963750D01*
X157867447Y-49963750D01*
X157730415Y-49895234D01*
X157652390Y-49817208D01*
X157629659Y-49798553D01*
X157575587Y-49776155D01*
X157517061Y-49776155D01*
X157462988Y-49798552D01*
X157421603Y-49839937D01*
X157399205Y-49894009D01*
X157399205Y-49952535D01*
X157421602Y-50006608D01*
X157440256Y-50029338D01*
X157535495Y-50124578D01*
X157546997Y-50134018D01*
X157549593Y-50137011D01*
X157554102Y-50139849D01*
X157558225Y-50143233D01*
X157561887Y-50144749D01*
X157574479Y-50152676D01*
X157764955Y-50247914D01*
X157792419Y-50258424D01*
X157797794Y-50258805D01*
X157802773Y-50260868D01*
X157832037Y-50263750D01*
X158308228Y-50263750D01*
X158337492Y-50260868D01*
X158342469Y-50258806D01*
X158347847Y-50258424D01*
X158375310Y-50247914D01*
X158565786Y-50152676D01*
X158578381Y-50144747D01*
X158582040Y-50143232D01*
X158586157Y-50139852D01*
X158590672Y-50137011D01*
X158593269Y-50134016D01*
X158604771Y-50124577D01*
X158700009Y-50029338D01*
X158709447Y-50017836D01*
X158712441Y-50015241D01*
X158715281Y-50010728D01*
X158718664Y-50006607D01*
X158720180Y-50002945D01*
X158728106Y-49990355D01*
X158823344Y-49799879D01*
X158833854Y-49772415D01*
X158834235Y-49767039D01*
X158836298Y-49762061D01*
X158839180Y-49732797D01*
X158839180Y-49256607D01*
X158836298Y-49227343D01*
X158834235Y-49222364D01*
X158833854Y-49216989D01*
X158823344Y-49189525D01*
X158728106Y-48999049D01*
X158720180Y-48986458D01*
X158718664Y-48982797D01*
X158715281Y-48978675D01*
X158712441Y-48974163D01*
X158709447Y-48971567D01*
X158700009Y-48960066D01*
X158604771Y-48864827D01*
X158593269Y-48855387D01*
X158590672Y-48852393D01*
X158586157Y-48849551D01*
X158582040Y-48846172D01*
X158578381Y-48844656D01*
X158565786Y-48836728D01*
X158375310Y-48741490D01*
X158347847Y-48730980D01*
X158342469Y-48730597D01*
X158337492Y-48728536D01*
X158308228Y-48725654D01*
X157832037Y-48725654D01*
X157802773Y-48728536D01*
X157797794Y-48730598D01*
X157792419Y-48730980D01*
X157764955Y-48741490D01*
X157727671Y-48760131D01*
X157777310Y-48263750D01*
X158593942Y-48263750D01*
X158623206Y-48260868D01*
X158677278Y-48238470D01*
X158718662Y-48197086D01*
X158741060Y-48143014D01*
X158741060Y-48084486D01*
X158718662Y-48030414D01*
X158677278Y-47989030D01*
X158623206Y-47966632D01*
X158593942Y-47963750D01*
X157641561Y-47963750D01*
X157630738Y-47964815D01*
X157627081Y-47964450D01*
X157623508Y-47965527D01*
X157612297Y-47966632D01*
X157592037Y-47975023D01*
X157571049Y-47981357D01*
X157565204Y-47986138D01*
X157558225Y-47989030D01*
X157542719Y-48004535D01*
X157525752Y-48018418D01*
X157522181Y-48025073D01*
X157516841Y-48030414D01*
X157508449Y-48050671D01*
X157498085Y-48069993D01*
X157495870Y-48081040D01*
X157494443Y-48084486D01*
X157494443Y-48088160D01*
X157492305Y-48098825D01*
X157397067Y-49051205D01*
X157397023Y-49080611D01*
X156791593Y-49080611D01*
X156795246Y-49076958D01*
X156813901Y-49054227D01*
X156815963Y-49049247D01*
X156819494Y-49045177D01*
X156831482Y-49018326D01*
X156926720Y-48732612D01*
X156930018Y-48718104D01*
X156931536Y-48714442D01*
X156932058Y-48709133D01*
X156933240Y-48703939D01*
X156932959Y-48699989D01*
X156934418Y-48685178D01*
X156934418Y-48494702D01*
X156931536Y-48465438D01*
X156929473Y-48460459D01*
X156929092Y-48455084D01*
X156918582Y-48427620D01*
X156823344Y-48237144D01*
X156815416Y-48224550D01*
X156813901Y-48220891D01*
X156810519Y-48216771D01*
X156807679Y-48212258D01*
X156804685Y-48209661D01*
X156795246Y-48198160D01*
X156700008Y-48102922D01*
X156688506Y-48093483D01*
X156685910Y-48090489D01*
X156681396Y-48087648D01*
X156677277Y-48084267D01*
X156673617Y-48082751D01*
X156661024Y-48074824D01*
X156470548Y-47979586D01*
X156443085Y-47969076D01*
X156437707Y-47968693D01*
X156432730Y-47966632D01*
X156403466Y-47963750D01*
X155927275Y-47963750D01*
X155898011Y-47966632D01*
X155893032Y-47968694D01*
X155887657Y-47969076D01*
X155860193Y-47979586D01*
X155669717Y-48074824D01*
X155657123Y-48082751D01*
X155653464Y-48084267D01*
X155649344Y-48087648D01*
X155644831Y-48090489D01*
X155642234Y-48093482D01*
X155630733Y-48102922D01*
X155535495Y-48198160D01*
X155516840Y-48220891D01*
X155494443Y-48274963D01*
X155494443Y-48333489D01*
X155516840Y-48387561D01*
X155558226Y-48428947D01*
X155612298Y-48451344D01*
X155670824Y-48451344D01*
X155724896Y-48428947D01*
X155747627Y-48410292D01*
X155825653Y-48332266D01*
X155962685Y-48263750D01*
X156368056Y-48263750D01*
X156505088Y-48332266D01*
X156565902Y-48393080D01*
X156634418Y-48530112D01*
X156634418Y-48660838D01*
X156558075Y-48889864D01*
X155440257Y-50007684D01*
X155421602Y-50030415D01*
X155414411Y-50047776D01*
X155399205Y-50084486D01*
X154740100Y-50084486D01*
X154795247Y-50029338D01*
X154804685Y-50017836D01*
X154807679Y-50015241D01*
X154810519Y-50010728D01*
X154813902Y-50006607D01*
X154815418Y-50002945D01*
X154823344Y-49990355D01*
X154918582Y-49799879D01*
X154919400Y-49797740D01*
X154920046Y-49796869D01*
X154924430Y-49784595D01*
X154929092Y-49772415D01*
X154929168Y-49771332D01*
X154929939Y-49769177D01*
X155025177Y-49388226D01*
X155025927Y-49383153D01*
X155026774Y-49381109D01*
X155027859Y-49370087D01*
X155029479Y-49359136D01*
X155029153Y-49356948D01*
X155029656Y-49351845D01*
X155029656Y-48875654D01*
X155029153Y-48870550D01*
X155029479Y-48868363D01*
X155027859Y-48857411D01*
X155026774Y-48846390D01*
X155025927Y-48844345D01*
X155025177Y-48839273D01*
X154929939Y-48458322D01*
X154929168Y-48456166D01*
X154929092Y-48455084D01*
X154924430Y-48442903D01*
X154920046Y-48430630D01*
X154919400Y-48429758D01*
X154918582Y-48427620D01*
X154823344Y-48237144D01*
X154815416Y-48224550D01*
X154813901Y-48220891D01*
X154810519Y-48216771D01*
X154807679Y-48212258D01*
X154804685Y-48209661D01*
X154795246Y-48198160D01*
X154700008Y-48102922D01*
X154688506Y-48093483D01*
X154685910Y-48090489D01*
X154681396Y-48087648D01*
X154677277Y-48084267D01*
X154673617Y-48082751D01*
X154661024Y-48074824D01*
X154470548Y-47979586D01*
X154443085Y-47969076D01*
X154437707Y-47968693D01*
X154432730Y-47966632D01*
X154403466Y-47963750D01*
X154212989Y-47963750D01*
X154183725Y-47966632D01*
X154178746Y-47968694D01*
X154173371Y-47969076D01*
X154145907Y-47979586D01*
X153955431Y-48074824D01*
X153942837Y-48082751D01*
X153939178Y-48084267D01*
X153935058Y-48087648D01*
X153930545Y-48090489D01*
X153927948Y-48093482D01*
X153916447Y-48102922D01*
X153821209Y-48198160D01*
X153811770Y-48209661D01*
X153808776Y-48212258D01*
X153805935Y-48216771D01*
X153802554Y-48220891D01*
X153801038Y-48224550D01*
X153793111Y-48237144D01*
X153697873Y-48427620D01*
X153697053Y-48429760D01*
X153696409Y-48430631D01*
X153692030Y-48442886D01*
X153687363Y-48455083D01*
X153687286Y-48456166D01*
X153686516Y-48458322D01*
X153591278Y-48839274D01*
X153590528Y-48844345D01*
X153589681Y-48846390D01*
X153588595Y-48857412D01*
X153586976Y-48868363D01*
X153587301Y-48870550D01*
X153586799Y-48875654D01*
X153069515Y-48875654D01*
X153117196Y-48732612D01*
X153120494Y-48718104D01*
X153122012Y-48714442D01*
X153122534Y-48709133D01*
X153123716Y-48703939D01*
X153123435Y-48699989D01*
X153124894Y-48685178D01*
X153124894Y-48494702D01*
X153122012Y-48465438D01*
X153119949Y-48460459D01*
X153119568Y-48455084D01*
X153109058Y-48427620D01*
X153013820Y-48237144D01*
X153005892Y-48224550D01*
X153004377Y-48220891D01*
X153000995Y-48216771D01*
X152998155Y-48212258D01*
X152995161Y-48209661D01*
X152985722Y-48198160D01*
X152890484Y-48102922D01*
X152878982Y-48093483D01*
X152876386Y-48090489D01*
X152871872Y-48087648D01*
X152867753Y-48084267D01*
X152864093Y-48082751D01*
X152851500Y-48074824D01*
X152661024Y-47979586D01*
X152633561Y-47969076D01*
X152628183Y-47968693D01*
X152623206Y-47966632D01*
X152593942Y-47963750D01*
X152117751Y-47963750D01*
X152088487Y-47966632D01*
X152083508Y-47968694D01*
X152078133Y-47969076D01*
X152050669Y-47979586D01*
X151860193Y-48074824D01*
X151847599Y-48082751D01*
X151843940Y-48084267D01*
X151839820Y-48087648D01*
X151835307Y-48090489D01*
X151832710Y-48093482D01*
X151821209Y-48102922D01*
X151725971Y-48198160D01*
X151707316Y-48220891D01*
X151684919Y-48274963D01*
X151684919Y-48333489D01*
X151707316Y-48387561D01*
X151748702Y-48428947D01*
X151802774Y-48451344D01*
X151861300Y-48451344D01*
X151915372Y-48428947D01*
X151938103Y-48410292D01*
X152016129Y-48332266D01*
X152153161Y-48263750D01*
X152558532Y-48263750D01*
X152695564Y-48332266D01*
X152756378Y-48393080D01*
X152824894Y-48530112D01*
X152824894Y-48660838D01*
X152748551Y-48889864D01*
X151630733Y-50007684D01*
X151612078Y-50030415D01*
X151604887Y-50047776D01*
X151589681Y-50084486D01*
X149696322Y-50084486D01*
X149696322Y-50018512D01*
X149693440Y-49989248D01*
X149671042Y-49935176D01*
X149629658Y-49893792D01*
X149575586Y-49871394D01*
X149517058Y-49871394D01*
X149462986Y-49893792D01*
X149421602Y-49935176D01*
X149399204Y-49989248D01*
X149396322Y-50018512D01*
X149396322Y-50078340D01*
X149327806Y-50215372D01*
X149249780Y-50293398D01*
X149231125Y-50316129D01*
X149208728Y-50370201D01*
X141410607Y-50370201D01*
X141410607Y-50258095D01*
X141411465Y-50258424D01*
X141416840Y-50258805D01*
X141421819Y-50260868D01*
X141451083Y-50263750D01*
X141832036Y-50263750D01*
X141861300Y-50260868D01*
X141866277Y-50258806D01*
X141871655Y-50258424D01*
X141899118Y-50247914D01*
X142089594Y-50152676D01*
X142102189Y-50144747D01*
X142105848Y-50143232D01*
X142109965Y-50139852D01*
X142114480Y-50137011D01*
X142117077Y-50134016D01*
X142128579Y-50124577D01*
X142223817Y-50029338D01*
X142233255Y-50017836D01*
X142236249Y-50015241D01*
X142239089Y-50010728D01*
X142242472Y-50006607D01*
X142243988Y-50002945D01*
X142251914Y-49990355D01*
X142347152Y-49799879D01*
X142357662Y-49772415D01*
X142358043Y-49767039D01*
X142360106Y-49762061D01*
X142362988Y-49732797D01*
X142362988Y-49161369D01*
X142360106Y-49132105D01*
X142358043Y-49127126D01*
X142357662Y-49121751D01*
X142347152Y-49094288D01*
X142251914Y-48903810D01*
X142243987Y-48891218D01*
X142242471Y-48887557D01*
X142239087Y-48883434D01*
X142236249Y-48878925D01*
X142233257Y-48876330D01*
X142223816Y-48864826D01*
X142139406Y-48780416D01*
X142920131Y-48780416D01*
X142920131Y-50113750D01*
X142923013Y-50143014D01*
X142945411Y-50197086D01*
X142986795Y-50238470D01*
X143040867Y-50260868D01*
X143099395Y-50260868D01*
X143153467Y-50238470D01*
X143194851Y-50197086D01*
X143217249Y-50143014D01*
X143220131Y-50113750D01*
X143220131Y-49637559D01*
X143777274Y-49637559D01*
X143777274Y-49828035D01*
X143780156Y-49857299D01*
X143782218Y-49862277D01*
X143782600Y-49867653D01*
X143793110Y-49895117D01*
X143888348Y-50085594D01*
X143891428Y-50090488D01*
X143892198Y-50092796D01*
X143894690Y-50095670D01*
X143904013Y-50110480D01*
X143918222Y-50122803D01*
X143930544Y-50137011D01*
X143945349Y-50146330D01*
X143948228Y-50148827D01*
X143950539Y-50149597D01*
X143955430Y-50152676D01*
X144145906Y-50247914D01*
X144173370Y-50258424D01*
X144178745Y-50258805D01*
X144183724Y-50260868D01*
X144212988Y-50263750D01*
X144689179Y-50263750D01*
X144718443Y-50260868D01*
X144723420Y-50258806D01*
X144728798Y-50258424D01*
X144756261Y-50247914D01*
X144789262Y-50231413D01*
X144796319Y-50238470D01*
X144850391Y-50260868D01*
X144908919Y-50260868D01*
X144962991Y-50238470D01*
X145004375Y-50197086D01*
X145026773Y-50143014D01*
X145029655Y-50113750D01*
X145029655Y-49066131D01*
X145026773Y-49036867D01*
X145024710Y-49031888D01*
X145024329Y-49026513D01*
X145013819Y-48999050D01*
X144918581Y-48808572D01*
X144915502Y-48803681D01*
X144914732Y-48801370D01*
X144912234Y-48798490D01*
X144902916Y-48783687D01*
X144899145Y-48780416D01*
X145682036Y-48780416D01*
X145682036Y-50113750D01*
X145684918Y-50143014D01*
X145707316Y-50197086D01*
X145748700Y-50238470D01*
X145802772Y-50260868D01*
X145861300Y-50260868D01*
X145915372Y-50238470D01*
X145956756Y-50197086D01*
X145979154Y-50143014D01*
X145982036Y-50113750D01*
X145982036Y-49033024D01*
X146016128Y-48998932D01*
X146153160Y-48930416D01*
X146368055Y-48930416D01*
X146482137Y-48987457D01*
X146539179Y-49101540D01*
X146539179Y-50113750D01*
X146542061Y-50143014D01*
X146564459Y-50197086D01*
X146605843Y-50238470D01*
X146659915Y-50260868D01*
X146718443Y-50260868D01*
X146772515Y-50238470D01*
X146813899Y-50197086D01*
X146836297Y-50143014D01*
X146839179Y-50113750D01*
X146839179Y-49161369D01*
X147396322Y-49161369D01*
X147396322Y-49732797D01*
X147399204Y-49762061D01*
X147401265Y-49767038D01*
X147401648Y-49772416D01*
X147412158Y-49799879D01*
X147507396Y-49990355D01*
X147515323Y-50002948D01*
X147516839Y-50006608D01*
X147520220Y-50010728D01*
X147523061Y-50015241D01*
X147526054Y-50017837D01*
X147535493Y-50029338D01*
X147630732Y-50124578D01*
X147642234Y-50134018D01*
X147644830Y-50137011D01*
X147649339Y-50139849D01*
X147653462Y-50143233D01*
X147657124Y-50144749D01*
X147669716Y-50152676D01*
X147860192Y-50247914D01*
X147887656Y-50258424D01*
X147893031Y-50258805D01*
X147898010Y-50260868D01*
X147927274Y-50263750D01*
X148212989Y-50263750D01*
X148242253Y-50260868D01*
X148247230Y-50258806D01*
X148252608Y-50258424D01*
X148280071Y-50247914D01*
X148470547Y-50152676D01*
X148483142Y-50144747D01*
X148486801Y-50143232D01*
X148490918Y-50139852D01*
X148495433Y-50137011D01*
X148498030Y-50134016D01*
X148509532Y-50124577D01*
X148604770Y-50029338D01*
X148614208Y-50017836D01*
X148617202Y-50015241D01*
X148620042Y-50010728D01*
X148623425Y-50006607D01*
X148624941Y-50002945D01*
X148632867Y-49990355D01*
X148728105Y-49799879D01*
X148738615Y-49772415D01*
X148738996Y-49767039D01*
X148741059Y-49762061D01*
X148743941Y-49732797D01*
X148743941Y-49161369D01*
X148741059Y-49132105D01*
X148738996Y-49127126D01*
X148738615Y-49121751D01*
X148728105Y-49094288D01*
X148632867Y-48903810D01*
X148624940Y-48891218D01*
X148623424Y-48887557D01*
X148620040Y-48883434D01*
X148617202Y-48878925D01*
X148614210Y-48876330D01*
X148604769Y-48864826D01*
X148509531Y-48769588D01*
X148498029Y-48760149D01*
X148495433Y-48757155D01*
X148490919Y-48754314D01*
X148486800Y-48750933D01*
X148483140Y-48749417D01*
X148470547Y-48741490D01*
X148280071Y-48646252D01*
X148252608Y-48635742D01*
X148247230Y-48635359D01*
X148242253Y-48633298D01*
X148212989Y-48630416D01*
X147927274Y-48630416D01*
X147898010Y-48633298D01*
X147893031Y-48635360D01*
X147887656Y-48635742D01*
X147860192Y-48646252D01*
X147669716Y-48741490D01*
X147657122Y-48749417D01*
X147653463Y-48750933D01*
X147649343Y-48754314D01*
X147644830Y-48757155D01*
X147642233Y-48760148D01*
X147630732Y-48769588D01*
X147535494Y-48864826D01*
X147526055Y-48876327D01*
X147523061Y-48878924D01*
X147520220Y-48883437D01*
X147516839Y-48887557D01*
X147515323Y-48891216D01*
X147507396Y-48903810D01*
X147412158Y-49094287D01*
X147401648Y-49121751D01*
X147401266Y-49127126D01*
X147399204Y-49132105D01*
X147396322Y-49161369D01*
X146839179Y-49161369D01*
X146839179Y-49066131D01*
X146836297Y-49036867D01*
X146834234Y-49031888D01*
X146833853Y-49026513D01*
X146823343Y-48999050D01*
X146728105Y-48808572D01*
X146725026Y-48803681D01*
X146724256Y-48801370D01*
X146721758Y-48798490D01*
X146712440Y-48783687D01*
X146698235Y-48771367D01*
X146685909Y-48757155D01*
X146671098Y-48747832D01*
X146668225Y-48745340D01*
X146665917Y-48744570D01*
X146661023Y-48741490D01*
X146470547Y-48646252D01*
X146443084Y-48635742D01*
X146437706Y-48635359D01*
X146432729Y-48633298D01*
X146403465Y-48630416D01*
X146117750Y-48630416D01*
X146088486Y-48633298D01*
X146083507Y-48635360D01*
X146078132Y-48635742D01*
X146050668Y-48646252D01*
X145954174Y-48694498D01*
X145915372Y-48655696D01*
X145861300Y-48633298D01*
X145802772Y-48633298D01*
X145748700Y-48655696D01*
X145707316Y-48697080D01*
X145684918Y-48751152D01*
X145682036Y-48780416D01*
X144899145Y-48780416D01*
X144888711Y-48771367D01*
X144876385Y-48757155D01*
X144861574Y-48747832D01*
X144858701Y-48745340D01*
X144856393Y-48744570D01*
X144851499Y-48741490D01*
X144661023Y-48646252D01*
X144633560Y-48635742D01*
X144628182Y-48635359D01*
X144623205Y-48633298D01*
X144593941Y-48630416D01*
X144212988Y-48630416D01*
X144183724Y-48633298D01*
X144178745Y-48635360D01*
X144173370Y-48635742D01*
X144145906Y-48646252D01*
X143955430Y-48741490D01*
X143930544Y-48757155D01*
X143892198Y-48801370D01*
X143873690Y-48856892D01*
X143877838Y-48915273D01*
X143904013Y-48967622D01*
X143948228Y-49005968D01*
X144003750Y-49024476D01*
X144062131Y-49020328D01*
X144089594Y-49009818D01*
X144248398Y-48930416D01*
X144558531Y-48930416D01*
X144672613Y-48987457D01*
X144729655Y-49101540D01*
X144729655Y-49163902D01*
X144653769Y-49201845D01*
X144212988Y-49201845D01*
X144183724Y-49204727D01*
X144178745Y-49206789D01*
X144173370Y-49207171D01*
X144145906Y-49217681D01*
X143955430Y-49312919D01*
X143950539Y-49315997D01*
X143948228Y-49316768D01*
X143945349Y-49319264D01*
X143930544Y-49328584D01*
X143918222Y-49342791D01*
X143904013Y-49355115D01*
X143894690Y-49369924D01*
X143892198Y-49372799D01*
X143891428Y-49375106D01*
X143888348Y-49380001D01*
X143793110Y-49570477D01*
X143782600Y-49597940D01*
X143782217Y-49603317D01*
X143780156Y-49608295D01*
X143777274Y-49637559D01*
X143220131Y-49637559D01*
X143220131Y-48780416D01*
X143217249Y-48751152D01*
X143194851Y-48697080D01*
X143153467Y-48655696D01*
X143099395Y-48633298D01*
X143040867Y-48633298D01*
X142986795Y-48655696D01*
X142945411Y-48697080D01*
X142923013Y-48751152D01*
X142920131Y-48780416D01*
X142139406Y-48780416D01*
X142128578Y-48769588D01*
X142117076Y-48760149D01*
X142114480Y-48757155D01*
X142109966Y-48754314D01*
X142105847Y-48750933D01*
X142102187Y-48749417D01*
X142089594Y-48741490D01*
X141899118Y-48646252D01*
X141871655Y-48635742D01*
X141866277Y-48635359D01*
X141861300Y-48633298D01*
X141832036Y-48630416D01*
X141451083Y-48630416D01*
X141421819Y-48633298D01*
X141416840Y-48635360D01*
X141411465Y-48635742D01*
X141384001Y-48646252D01*
X141350999Y-48662752D01*
X141343943Y-48655696D01*
X141289871Y-48633298D01*
X141231343Y-48633298D01*
X141177271Y-48655696D01*
X141135887Y-48697080D01*
X141113489Y-48751152D01*
X141110607Y-48780416D01*
X139010461Y-48780416D01*
X138929937Y-48458322D01*
X138929166Y-48456166D01*
X138929090Y-48455084D01*
X138924428Y-48442903D01*
X138920044Y-48430630D01*
X138919398Y-48429758D01*
X138918580Y-48427620D01*
X138823342Y-48237144D01*
X138815414Y-48224550D01*
X138813899Y-48220891D01*
X138810517Y-48216771D01*
X138807677Y-48212258D01*
X138804683Y-48209661D01*
X138795244Y-48198160D01*
X138776809Y-48179725D01*
X142827775Y-48179725D01*
X142827775Y-48238251D01*
X142850172Y-48292323D01*
X142868827Y-48315054D01*
X142964065Y-48410292D01*
X142986795Y-48428946D01*
X142986796Y-48428947D01*
X143013763Y-48440117D01*
X143040867Y-48451344D01*
X143040868Y-48451344D01*
X143099394Y-48451344D01*
X143099395Y-48451344D01*
X143126499Y-48440117D01*
X143153466Y-48428947D01*
X143176197Y-48410292D01*
X143271435Y-48315054D01*
X143290090Y-48292323D01*
X143312487Y-48238251D01*
X143312487Y-48179725D01*
X143290090Y-48125653D01*
X143290089Y-48125652D01*
X143271435Y-48102922D01*
X143176197Y-48007684D01*
X143153466Y-47989029D01*
X143121792Y-47975909D01*
X143099395Y-47966632D01*
X143040867Y-47966632D01*
X143018470Y-47975909D01*
X142986796Y-47989029D01*
X142964065Y-48007684D01*
X142868827Y-48102922D01*
X142850173Y-48125652D01*
X142850172Y-48125653D01*
X142827775Y-48179725D01*
X138776809Y-48179725D01*
X138700006Y-48102922D01*
X138688504Y-48093483D01*
X138685908Y-48090489D01*
X138681394Y-48087648D01*
X138677275Y-48084267D01*
X138673615Y-48082751D01*
X138661022Y-48074824D01*
X138470546Y-47979586D01*
X138443083Y-47969076D01*
X138437705Y-47968693D01*
X138432728Y-47966632D01*
X138403464Y-47963750D01*
X138212987Y-47963750D01*
X138183723Y-47966632D01*
X138178744Y-47968694D01*
X138173369Y-47969076D01*
X138145905Y-47979586D01*
X137955429Y-48074824D01*
X137942835Y-48082751D01*
X137939176Y-48084267D01*
X137935056Y-48087648D01*
X137930543Y-48090489D01*
X137927946Y-48093482D01*
X137916445Y-48102922D01*
X137821207Y-48198160D01*
X137811768Y-48209661D01*
X137808774Y-48212258D01*
X137805933Y-48216771D01*
X137802552Y-48220891D01*
X137801036Y-48224550D01*
X137793109Y-48237144D01*
X137697871Y-48427620D01*
X137697051Y-48429760D01*
X137696407Y-48430631D01*
X137692028Y-48442886D01*
X137687361Y-48455083D01*
X137687284Y-48456166D01*
X137686514Y-48458322D01*
X137591276Y-48839274D01*
X137590526Y-48844345D01*
X137589679Y-48846390D01*
X137588593Y-48857412D01*
X137586974Y-48868363D01*
X137587299Y-48870550D01*
X137586797Y-48875654D01*
X136906795Y-48875654D01*
X137208002Y-48172838D01*
X137216880Y-48144805D01*
X137216891Y-48143875D01*
X137217248Y-48143014D01*
X137217248Y-48114599D01*
X137217593Y-48086282D01*
X137217248Y-48085419D01*
X137217248Y-48084486D01*
X137206375Y-48058237D01*
X137195857Y-48031942D01*
X137195207Y-48031276D01*
X137194850Y-48030414D01*
X137174770Y-48010334D01*
X137154980Y-47990055D01*
X137154124Y-47989688D01*
X137153466Y-47989030D01*
X137127246Y-47978169D01*
X137101185Y-47967000D01*
X137100255Y-47966988D01*
X137099394Y-47966632D01*
X137070130Y-47963750D01*
X135736797Y-47963750D01*
X135707533Y-47966632D01*
X135653461Y-47989030D01*
X135612077Y-48030414D01*
X135589679Y-48084486D01*
X134963256Y-48084486D01*
X134962989Y-48084267D01*
X134959329Y-48082751D01*
X134946736Y-48074824D01*
X134756260Y-47979586D01*
X134728797Y-47969076D01*
X134723419Y-47968693D01*
X134718442Y-47966632D01*
X134689178Y-47963750D01*
X133927273Y-47963750D01*
X133898009Y-47966632D01*
X133843937Y-47989030D01*
X133802553Y-48030414D01*
X133780155Y-48084486D01*
X133777273Y-48113750D01*
X133091786Y-48113750D01*
X133080958Y-48102922D01*
X133058227Y-48084267D01*
X133053247Y-48082204D01*
X133049177Y-48078674D01*
X133022326Y-48066686D01*
X132736612Y-47971448D01*
X132722104Y-47968149D01*
X132718442Y-47966632D01*
X132713133Y-47966109D01*
X132707939Y-47964928D01*
X132703989Y-47965208D01*
X132689178Y-47963750D01*
X132498702Y-47963750D01*
X132483896Y-47965208D01*
X132479942Y-47964927D01*
X132474740Y-47966109D01*
X132469438Y-47966632D01*
X132465780Y-47968147D01*
X132451268Y-47971447D01*
X132165553Y-48066685D01*
X132138702Y-48078674D01*
X132134631Y-48082204D01*
X132129652Y-48084267D01*
X132106921Y-48102922D01*
X131916445Y-48293398D01*
X131907006Y-48304899D01*
X131904012Y-48307496D01*
X131901171Y-48312009D01*
X131897790Y-48316129D01*
X131896274Y-48319788D01*
X131888347Y-48332382D01*
X131793109Y-48522858D01*
X131792289Y-48524998D01*
X131791645Y-48525869D01*
X131787266Y-48538124D01*
X131782599Y-48550321D01*
X131782522Y-48551404D01*
X131781752Y-48553560D01*
X131686514Y-48934512D01*
X131685764Y-48939583D01*
X131684917Y-48941628D01*
X131683831Y-48952650D01*
X131682212Y-48963601D01*
X131682537Y-48965788D01*
X131682035Y-48970892D01*
X129500778Y-48970892D01*
X129581730Y-48930416D01*
X129736797Y-48930416D01*
X129766061Y-48927534D01*
X129820133Y-48905136D01*
X129861517Y-48863752D01*
X129883915Y-48809680D01*
X129883915Y-48751152D01*
X129861517Y-48697080D01*
X129820133Y-48655696D01*
X129766061Y-48633298D01*
X129736797Y-48630416D01*
X129546320Y-48630416D01*
X129517056Y-48633298D01*
X129512077Y-48635360D01*
X129506702Y-48635742D01*
X129479238Y-48646252D01*
X129305099Y-48733321D01*
X129290088Y-48697080D01*
X129248704Y-48655696D01*
X129194632Y-48633298D01*
X129136104Y-48633298D01*
X129082032Y-48655696D01*
X129040648Y-48697080D01*
X129018250Y-48751152D01*
X129015368Y-48780416D01*
X128234643Y-48780416D01*
X128223815Y-48769588D01*
X128212313Y-48760149D01*
X128209717Y-48757155D01*
X128205203Y-48754314D01*
X128201084Y-48750933D01*
X128197424Y-48749417D01*
X128184831Y-48741490D01*
X127994355Y-48646252D01*
X127966892Y-48635742D01*
X127961514Y-48635359D01*
X127956537Y-48633298D01*
X127927273Y-48630416D01*
X127641558Y-48630416D01*
X127612294Y-48633298D01*
X127607315Y-48635360D01*
X127601940Y-48635742D01*
X127574476Y-48646252D01*
X127384000Y-48741490D01*
X127371406Y-48749417D01*
X127367747Y-48750933D01*
X127363627Y-48754314D01*
X127359114Y-48757155D01*
X127356517Y-48760148D01*
X127345016Y-48769588D01*
X127249778Y-48864826D01*
X127240339Y-48876327D01*
X127237345Y-48878924D01*
X127234504Y-48883437D01*
X127231123Y-48887557D01*
X127229607Y-48891216D01*
X127221680Y-48903810D01*
X127126442Y-49094287D01*
X127115932Y-49121751D01*
X127115550Y-49127126D01*
X127113488Y-49132105D01*
X127110606Y-49161369D01*
X126421043Y-49161369D01*
X126432945Y-49149467D01*
X126455343Y-49095395D01*
X126455343Y-49036867D01*
X126432945Y-48982795D01*
X126391561Y-48941411D01*
X126337489Y-48919013D01*
X126308225Y-48916131D01*
X125791558Y-48916131D01*
X125791558Y-48263750D01*
X126593939Y-48263750D01*
X126623203Y-48260868D01*
X126677275Y-48238470D01*
X126718659Y-48197086D01*
X126741057Y-48143014D01*
X126741057Y-48084486D01*
X126718659Y-48030414D01*
X126677275Y-47989030D01*
X126623203Y-47966632D01*
X126593939Y-47963750D01*
X125641558Y-47963750D01*
X125612294Y-47966632D01*
X125558222Y-47989030D01*
X125516838Y-48030414D01*
X125494440Y-48084486D01*
X125491558Y-48113750D01*
X125269336Y-48113750D01*
X125269336Y-44893862D01*
X125491558Y-44893862D01*
X125491558Y-46893862D01*
X125494440Y-46923126D01*
X125516838Y-46977198D01*
X125558222Y-47018582D01*
X125612294Y-47040980D01*
X125670822Y-47040980D01*
X125724894Y-47018582D01*
X125766278Y-46977198D01*
X125788676Y-46923126D01*
X125791558Y-46893862D01*
X125791558Y-45996243D01*
X126308225Y-45996243D01*
X126337489Y-45993361D01*
X126391561Y-45970963D01*
X126432945Y-45929579D01*
X126455343Y-45875507D01*
X126455343Y-45816979D01*
X126432945Y-45762907D01*
X126391561Y-45721523D01*
X126337489Y-45699125D01*
X126308225Y-45696243D01*
X125791558Y-45696243D01*
X125791558Y-45043862D01*
X126593939Y-45043862D01*
X126623203Y-45040980D01*
X126677275Y-45018582D01*
X126718659Y-44977198D01*
X126741057Y-44923126D01*
X126741057Y-44893862D01*
X127205844Y-44893862D01*
X127205844Y-46608147D01*
X127208726Y-46637411D01*
X127210788Y-46642389D01*
X127211170Y-46647765D01*
X127221680Y-46675229D01*
X127316918Y-46865706D01*
X127319998Y-46870600D01*
X127320768Y-46872908D01*
X127323260Y-46875782D01*
X127332583Y-46890592D01*
X127346792Y-46902915D01*
X127359114Y-46917123D01*
X127373919Y-46926442D01*
X127376798Y-46928939D01*
X127379109Y-46929709D01*
X127384000Y-46932788D01*
X127574476Y-47028026D01*
X127601940Y-47038536D01*
X127660320Y-47042684D01*
X127715842Y-47024177D01*
X127760057Y-46985830D01*
X127786232Y-46933481D01*
X127790380Y-46875101D01*
X127771873Y-46819578D01*
X127733526Y-46775363D01*
X127708640Y-46759698D01*
X127562884Y-46686820D01*
X127505844Y-46572737D01*
X127505844Y-46417671D01*
X128158225Y-46417671D01*
X128158225Y-46608147D01*
X128161107Y-46637411D01*
X128163169Y-46642389D01*
X128163551Y-46647765D01*
X128174061Y-46675229D01*
X128269299Y-46865706D01*
X128272379Y-46870600D01*
X128273149Y-46872908D01*
X128275641Y-46875782D01*
X128284964Y-46890592D01*
X128299173Y-46902915D01*
X128311495Y-46917123D01*
X128326300Y-46926442D01*
X128329179Y-46928939D01*
X128331490Y-46929709D01*
X128336381Y-46932788D01*
X128526857Y-47028026D01*
X128554321Y-47038536D01*
X128559696Y-47038917D01*
X128564675Y-47040980D01*
X128593939Y-47043862D01*
X129070130Y-47043862D01*
X129099394Y-47040980D01*
X129104371Y-47038918D01*
X129109749Y-47038536D01*
X129137212Y-47028026D01*
X129170213Y-47011525D01*
X129177270Y-47018582D01*
X129231342Y-47040980D01*
X129289870Y-47040980D01*
X129343942Y-47018582D01*
X129385326Y-46977198D01*
X129407724Y-46923126D01*
X129410606Y-46893862D01*
X129410606Y-45846243D01*
X129407724Y-45816979D01*
X129405661Y-45812000D01*
X129405280Y-45806625D01*
X129394770Y-45779162D01*
X129299532Y-45588684D01*
X129296453Y-45583793D01*
X129295683Y-45581482D01*
X129293185Y-45578602D01*
X129283867Y-45563799D01*
X129269662Y-45551479D01*
X129257336Y-45537267D01*
X129247799Y-45531264D01*
X129780155Y-45531264D01*
X129780155Y-45589792D01*
X129802553Y-45643864D01*
X129843937Y-45685248D01*
X129898009Y-45707646D01*
X129927273Y-45710528D01*
X130062987Y-45710528D01*
X130062987Y-46608147D01*
X130065869Y-46637411D01*
X130067931Y-46642389D01*
X130068313Y-46647765D01*
X130078823Y-46675229D01*
X130174061Y-46865706D01*
X130177141Y-46870600D01*
X130177911Y-46872908D01*
X130180403Y-46875782D01*
X130189726Y-46890592D01*
X130203935Y-46902915D01*
X130216257Y-46917123D01*
X130231062Y-46926442D01*
X130233941Y-46928939D01*
X130236252Y-46929709D01*
X130241143Y-46932788D01*
X130431619Y-47028026D01*
X130459083Y-47038536D01*
X130464458Y-47038917D01*
X130469437Y-47040980D01*
X130498701Y-47043862D01*
X130689177Y-47043862D01*
X130718441Y-47040980D01*
X130772513Y-47018582D01*
X130813897Y-46977198D01*
X130836295Y-46923126D01*
X130836295Y-46864598D01*
X130813897Y-46810526D01*
X130772513Y-46769142D01*
X130718441Y-46746744D01*
X130689177Y-46743862D01*
X130534111Y-46743862D01*
X130420027Y-46686820D01*
X130362987Y-46572737D01*
X130362987Y-45751004D01*
X131110606Y-45751004D01*
X131110606Y-46036719D01*
X131111108Y-46041822D01*
X131110783Y-46044010D01*
X131112402Y-46054960D01*
X131113488Y-46065983D01*
X131114335Y-46068027D01*
X131115085Y-46073099D01*
X131210323Y-46454051D01*
X131211093Y-46456206D01*
X131211170Y-46457290D01*
X131215837Y-46469486D01*
X131220216Y-46481742D01*
X131220860Y-46482612D01*
X131221680Y-46484753D01*
X131316918Y-46675229D01*
X131324845Y-46687822D01*
X131326361Y-46691482D01*
X131329742Y-46695601D01*
X131332583Y-46700115D01*
X131335577Y-46702711D01*
X131345016Y-46714213D01*
X131535491Y-46904689D01*
X131558222Y-46923344D01*
X131563201Y-46925406D01*
X131567273Y-46928938D01*
X131594124Y-46940927D01*
X131879839Y-47036165D01*
X131894351Y-47039464D01*
X131898009Y-47040980D01*
X131903311Y-47041502D01*
X131908513Y-47042685D01*
X131912467Y-47042403D01*
X131927273Y-47043862D01*
X132117749Y-47043862D01*
X132132560Y-47042403D01*
X132136510Y-47042684D01*
X132141704Y-47041502D01*
X132147013Y-47040980D01*
X132150675Y-47039462D01*
X132165183Y-47036164D01*
X132450897Y-46940926D01*
X132477748Y-46928938D01*
X132481819Y-46925406D01*
X132486799Y-46923344D01*
X132509530Y-46904689D01*
X132604768Y-46809450D01*
X132623423Y-46786719D01*
X132645819Y-46732647D01*
X132645819Y-46674121D01*
X132623422Y-46620049D01*
X132582036Y-46578663D01*
X132527963Y-46556267D01*
X132469438Y-46556267D01*
X132415365Y-46578664D01*
X132392635Y-46597319D01*
X132322434Y-46667520D01*
X132093409Y-46743862D01*
X131951616Y-46743862D01*
X131722584Y-46667518D01*
X131574360Y-46519293D01*
X131523549Y-46417671D01*
X133110606Y-46417671D01*
X133110606Y-46608147D01*
X133113488Y-46637411D01*
X133115550Y-46642389D01*
X133115932Y-46647765D01*
X133126442Y-46675229D01*
X133221680Y-46865706D01*
X133224760Y-46870600D01*
X133225530Y-46872908D01*
X133228022Y-46875782D01*
X133237345Y-46890592D01*
X133251554Y-46902915D01*
X133263876Y-46917123D01*
X133278681Y-46926442D01*
X133281560Y-46928939D01*
X133283871Y-46929709D01*
X133288762Y-46932788D01*
X133479238Y-47028026D01*
X133506702Y-47038536D01*
X133512077Y-47038917D01*
X133517056Y-47040980D01*
X133546320Y-47043862D01*
X134022511Y-47043862D01*
X134051775Y-47040980D01*
X134056752Y-47038918D01*
X134062130Y-47038536D01*
X134089593Y-47028026D01*
X134122594Y-47011525D01*
X134129651Y-47018582D01*
X134183723Y-47040980D01*
X134242251Y-47040980D01*
X134296323Y-47018582D01*
X134337707Y-46977198D01*
X134360105Y-46923126D01*
X134362987Y-46893862D01*
X134362987Y-45846243D01*
X134360105Y-45816979D01*
X134358042Y-45812000D01*
X134357661Y-45806625D01*
X134347151Y-45779162D01*
X134251913Y-45588684D01*
X134248834Y-45583793D01*
X134248064Y-45581482D01*
X134245566Y-45578602D01*
X134236248Y-45563799D01*
X134222043Y-45551479D01*
X134209717Y-45537267D01*
X134194906Y-45527944D01*
X134192033Y-45525452D01*
X134189725Y-45524682D01*
X134184831Y-45521602D01*
X133994355Y-45426364D01*
X133966892Y-45415854D01*
X133961514Y-45415471D01*
X133956537Y-45413410D01*
X133927273Y-45410528D01*
X133546320Y-45410528D01*
X133517056Y-45413410D01*
X133512077Y-45415472D01*
X133506702Y-45415854D01*
X133479238Y-45426364D01*
X133288762Y-45521602D01*
X133263876Y-45537267D01*
X133225530Y-45581482D01*
X133207022Y-45637004D01*
X133211170Y-45695385D01*
X133237345Y-45747734D01*
X133281560Y-45786080D01*
X133337082Y-45804588D01*
X133395463Y-45800440D01*
X133422926Y-45789930D01*
X133581730Y-45710528D01*
X133891863Y-45710528D01*
X134005945Y-45767569D01*
X134062987Y-45881652D01*
X134062987Y-45944014D01*
X133987101Y-45981957D01*
X133546320Y-45981957D01*
X133517056Y-45984839D01*
X133512077Y-45986901D01*
X133506702Y-45987283D01*
X133479238Y-45997793D01*
X133288762Y-46093031D01*
X133283871Y-46096109D01*
X133281560Y-46096880D01*
X133278681Y-46099376D01*
X133263876Y-46108696D01*
X133251554Y-46122903D01*
X133237345Y-46135227D01*
X133228022Y-46150036D01*
X133225530Y-46152911D01*
X133224760Y-46155218D01*
X133221680Y-46160113D01*
X133126442Y-46350589D01*
X133115932Y-46378052D01*
X133115549Y-46383429D01*
X133113488Y-46388407D01*
X133110606Y-46417671D01*
X131523549Y-46417671D01*
X131497371Y-46365315D01*
X131410606Y-46018254D01*
X131410606Y-45769468D01*
X131497371Y-45422407D01*
X131574360Y-45268430D01*
X131722584Y-45120205D01*
X131951616Y-45043862D01*
X132093409Y-45043862D01*
X132322435Y-45120204D01*
X132392635Y-45190404D01*
X132415366Y-45209059D01*
X132469438Y-45231456D01*
X132527964Y-45231456D01*
X132582036Y-45209059D01*
X132623422Y-45167673D01*
X132645819Y-45113601D01*
X132645819Y-45055075D01*
X132623422Y-45001003D01*
X132604767Y-44978272D01*
X132520357Y-44893862D01*
X135015368Y-44893862D01*
X135015368Y-46893862D01*
X135018250Y-46923126D01*
X135040648Y-46977198D01*
X135082032Y-47018582D01*
X135136104Y-47040980D01*
X135194632Y-47040980D01*
X135248704Y-47018582D01*
X135255760Y-47011525D01*
X135288762Y-47028026D01*
X135316226Y-47038536D01*
X135321601Y-47038917D01*
X135326580Y-47040980D01*
X135355844Y-47043862D01*
X135736797Y-47043862D01*
X135766061Y-47040980D01*
X135771038Y-47038918D01*
X135776416Y-47038536D01*
X135803879Y-47028026D01*
X135994355Y-46932788D01*
X136006950Y-46924859D01*
X136010609Y-46923344D01*
X136014726Y-46919964D01*
X136019241Y-46917123D01*
X136021838Y-46914128D01*
X136033340Y-46904689D01*
X136128578Y-46809450D01*
X136138016Y-46797948D01*
X136141010Y-46795353D01*
X136143850Y-46790840D01*
X136147233Y-46786719D01*
X136148749Y-46783057D01*
X136156675Y-46770467D01*
X136251913Y-46579991D01*
X136262423Y-46552527D01*
X136262804Y-46547151D01*
X136264867Y-46542173D01*
X136267749Y-46512909D01*
X136267749Y-45941481D01*
X136264867Y-45912217D01*
X136262804Y-45907238D01*
X136262423Y-45901863D01*
X136251913Y-45874400D01*
X136156675Y-45683922D01*
X136148748Y-45671330D01*
X136147232Y-45667669D01*
X136143848Y-45663546D01*
X136141010Y-45659037D01*
X136138018Y-45656442D01*
X136128577Y-45644938D01*
X136033339Y-45549700D01*
X136021837Y-45540261D01*
X136019241Y-45537267D01*
X136014727Y-45534426D01*
X136010608Y-45531045D01*
X136006948Y-45529529D01*
X135994355Y-45521602D01*
X135803879Y-45426364D01*
X135776416Y-45415854D01*
X135771038Y-45415471D01*
X135766061Y-45413410D01*
X135736797Y-45410528D01*
X135355844Y-45410528D01*
X135326580Y-45413410D01*
X135321601Y-45415472D01*
X135316226Y-45415854D01*
X135315368Y-45416182D01*
X135315368Y-44893862D01*
X136824892Y-44893862D01*
X136824892Y-46608147D01*
X136827774Y-46637411D01*
X136829836Y-46642389D01*
X136830218Y-46647765D01*
X136840728Y-46675229D01*
X136935966Y-46865706D01*
X136939046Y-46870600D01*
X136939816Y-46872908D01*
X136942308Y-46875782D01*
X136951631Y-46890592D01*
X136965840Y-46902915D01*
X136978162Y-46917123D01*
X136992967Y-46926442D01*
X136995846Y-46928939D01*
X136998157Y-46929709D01*
X137003048Y-46932788D01*
X137193524Y-47028026D01*
X137220988Y-47038536D01*
X137279368Y-47042684D01*
X137334890Y-47024177D01*
X137379105Y-46985830D01*
X137405280Y-46933481D01*
X137409428Y-46875101D01*
X137390921Y-46819578D01*
X137352574Y-46775363D01*
X137327688Y-46759698D01*
X137181932Y-46686820D01*
X137124892Y-46572737D01*
X137124892Y-45846243D01*
X137777273Y-45846243D01*
X137777273Y-46608147D01*
X137780155Y-46637411D01*
X137782217Y-46642389D01*
X137782599Y-46647765D01*
X137793109Y-46675229D01*
X137888347Y-46865706D01*
X137891427Y-46870600D01*
X137892197Y-46872908D01*
X137894689Y-46875782D01*
X137904012Y-46890592D01*
X137918221Y-46902915D01*
X137930543Y-46917123D01*
X137945348Y-46926442D01*
X137948227Y-46928939D01*
X137950538Y-46929709D01*
X137955429Y-46932788D01*
X138145905Y-47028026D01*
X138173369Y-47038536D01*
X138178744Y-47038917D01*
X138183723Y-47040980D01*
X138212987Y-47043862D01*
X138593940Y-47043862D01*
X138623204Y-47040980D01*
X138628181Y-47038918D01*
X138633559Y-47038536D01*
X138661022Y-47028026D01*
X138851498Y-46932788D01*
X138876384Y-46917123D01*
X138914731Y-46872908D01*
X138933238Y-46817385D01*
X138929090Y-46759005D01*
X138902915Y-46706656D01*
X138858700Y-46668309D01*
X138803178Y-46649802D01*
X138744798Y-46653950D01*
X138717334Y-46664460D01*
X138558530Y-46743862D01*
X138248397Y-46743862D01*
X138134313Y-46686820D01*
X138077273Y-46572737D01*
X138077273Y-46350165D01*
X138908917Y-46183837D01*
X138908918Y-46183837D01*
X138908918Y-46183836D01*
X138909072Y-46183806D01*
X138937202Y-46175241D01*
X138949413Y-46167062D01*
X138962990Y-46161439D01*
X138973492Y-46150936D01*
X138985831Y-46142673D01*
X138993981Y-46130447D01*
X139004374Y-46120055D01*
X139010057Y-46106334D01*
X139018296Y-46093977D01*
X139021147Y-46079560D01*
X139026772Y-46065983D01*
X139029654Y-46036719D01*
X139029654Y-45846243D01*
X139026772Y-45816979D01*
X139024709Y-45812000D01*
X139024328Y-45806625D01*
X139013818Y-45779162D01*
X138918580Y-45588684D01*
X138915501Y-45583793D01*
X138914731Y-45581482D01*
X138912233Y-45578602D01*
X138902915Y-45563799D01*
X138888710Y-45551479D01*
X138876384Y-45537267D01*
X138861573Y-45527944D01*
X138858700Y-45525452D01*
X138856392Y-45524682D01*
X138851498Y-45521602D01*
X138661022Y-45426364D01*
X138633559Y-45415854D01*
X138628181Y-45415471D01*
X138623204Y-45413410D01*
X138593940Y-45410528D01*
X138212987Y-45410528D01*
X138183723Y-45413410D01*
X138178744Y-45415472D01*
X138173369Y-45415854D01*
X138145905Y-45426364D01*
X137955429Y-45521602D01*
X137950538Y-45524680D01*
X137948227Y-45525451D01*
X137945348Y-45527947D01*
X137930543Y-45537267D01*
X137918221Y-45551474D01*
X137904012Y-45563798D01*
X137894689Y-45578607D01*
X137892197Y-45581482D01*
X137891427Y-45583789D01*
X137888347Y-45588684D01*
X137793109Y-45779161D01*
X137782599Y-45806625D01*
X137782217Y-45812000D01*
X137780155Y-45816979D01*
X137777273Y-45846243D01*
X137124892Y-45846243D01*
X137124892Y-44893862D01*
X141110607Y-44893862D01*
X141110607Y-46893862D01*
X141113489Y-46923126D01*
X141135887Y-46977198D01*
X141177271Y-47018582D01*
X141231343Y-47040980D01*
X141260607Y-47043862D01*
X142022512Y-47043862D01*
X142051776Y-47040980D01*
X142056753Y-47038918D01*
X142062131Y-47038536D01*
X142089594Y-47028026D01*
X142280070Y-46932788D01*
X142292665Y-46924859D01*
X142296324Y-46923344D01*
X142300441Y-46919964D01*
X142304956Y-46917123D01*
X142307553Y-46914128D01*
X142319055Y-46904689D01*
X142414293Y-46809450D01*
X142423731Y-46797948D01*
X142426725Y-46795353D01*
X142429565Y-46790840D01*
X142432948Y-46786719D01*
X142434464Y-46783057D01*
X142442390Y-46770467D01*
X142537628Y-46579991D01*
X142548138Y-46552527D01*
X142548519Y-46547151D01*
X142550582Y-46542173D01*
X142553464Y-46512909D01*
X142553464Y-46227195D01*
X142550582Y-46197931D01*
X142548519Y-46192952D01*
X142548138Y-46187577D01*
X142537628Y-46160113D01*
X142442390Y-45969637D01*
X142434462Y-45957043D01*
X142432947Y-45953384D01*
X142429565Y-45949264D01*
X142426725Y-45944751D01*
X142423731Y-45942154D01*
X142414292Y-45930653D01*
X142319054Y-45835415D01*
X142296323Y-45816760D01*
X142291343Y-45814697D01*
X142287273Y-45811167D01*
X142275137Y-45805748D01*
X142319054Y-45761832D01*
X142328493Y-45750330D01*
X142331487Y-45747734D01*
X142334327Y-45743220D01*
X142337709Y-45739101D01*
X142339224Y-45735441D01*
X142347152Y-45722848D01*
X142428312Y-45560528D01*
X143110607Y-45560528D01*
X143110607Y-46893862D01*
X143113489Y-46923126D01*
X143135887Y-46977198D01*
X143177271Y-47018582D01*
X143231343Y-47040980D01*
X143289871Y-47040980D01*
X143343943Y-47018582D01*
X143385327Y-46977198D01*
X143407725Y-46923126D01*
X143410607Y-46893862D01*
X143410607Y-45976890D01*
X143475930Y-45846243D01*
X144253464Y-45846243D01*
X144253464Y-46608147D01*
X144256346Y-46637411D01*
X144258408Y-46642389D01*
X144258790Y-46647765D01*
X144269300Y-46675229D01*
X144364538Y-46865706D01*
X144367618Y-46870600D01*
X144368388Y-46872908D01*
X144370880Y-46875782D01*
X144380203Y-46890592D01*
X144394412Y-46902915D01*
X144406734Y-46917123D01*
X144421539Y-46926442D01*
X144424418Y-46928939D01*
X144426729Y-46929709D01*
X144431620Y-46932788D01*
X144622096Y-47028026D01*
X144649560Y-47038536D01*
X144654935Y-47038917D01*
X144659914Y-47040980D01*
X144689178Y-47043862D01*
X145070131Y-47043862D01*
X145099395Y-47040980D01*
X145104372Y-47038918D01*
X145109750Y-47038536D01*
X145137213Y-47028026D01*
X145327689Y-46932788D01*
X145352575Y-46917123D01*
X145390922Y-46872908D01*
X145409429Y-46817385D01*
X145405281Y-46759005D01*
X145379106Y-46706656D01*
X145334891Y-46668309D01*
X145279369Y-46649802D01*
X145220989Y-46653950D01*
X145193525Y-46664460D01*
X145034721Y-46743862D01*
X144724588Y-46743862D01*
X144610504Y-46686820D01*
X144553464Y-46572737D01*
X144553464Y-46417671D01*
X145967750Y-46417671D01*
X145967750Y-46608147D01*
X145970632Y-46637411D01*
X145972694Y-46642389D01*
X145973076Y-46647765D01*
X145983586Y-46675229D01*
X146078824Y-46865706D01*
X146081904Y-46870600D01*
X146082674Y-46872908D01*
X146085166Y-46875782D01*
X146094489Y-46890592D01*
X146108698Y-46902915D01*
X146121020Y-46917123D01*
X146135825Y-46926442D01*
X146138704Y-46928939D01*
X146141015Y-46929709D01*
X146145906Y-46932788D01*
X146336382Y-47028026D01*
X146363846Y-47038536D01*
X146369221Y-47038917D01*
X146374200Y-47040980D01*
X146403464Y-47043862D01*
X146879655Y-47043862D01*
X146908919Y-47040980D01*
X146913896Y-47038918D01*
X146919274Y-47038536D01*
X146946737Y-47028026D01*
X146979738Y-47011525D01*
X146986795Y-47018582D01*
X147040867Y-47040980D01*
X147099395Y-47040980D01*
X147153467Y-47018582D01*
X147194851Y-46977198D01*
X147217249Y-46923126D01*
X147220131Y-46893862D01*
X147220131Y-45846243D01*
X147217249Y-45816979D01*
X147215186Y-45812000D01*
X147214805Y-45806625D01*
X147204295Y-45779162D01*
X147109057Y-45588684D01*
X147105978Y-45583793D01*
X147105208Y-45581482D01*
X147102710Y-45578602D01*
X147093392Y-45563799D01*
X147079187Y-45551479D01*
X147066861Y-45537267D01*
X147052050Y-45527944D01*
X147049177Y-45525452D01*
X147046869Y-45524682D01*
X147041975Y-45521602D01*
X146851499Y-45426364D01*
X146824036Y-45415854D01*
X146818658Y-45415471D01*
X146813681Y-45413410D01*
X146784417Y-45410528D01*
X146403464Y-45410528D01*
X146374200Y-45413410D01*
X146369221Y-45415472D01*
X146363846Y-45415854D01*
X146336382Y-45426364D01*
X146145906Y-45521602D01*
X146121020Y-45537267D01*
X146082674Y-45581482D01*
X146064166Y-45637004D01*
X146068314Y-45695385D01*
X146094489Y-45747734D01*
X146138704Y-45786080D01*
X146194226Y-45804588D01*
X146252607Y-45800440D01*
X146280070Y-45789930D01*
X146438874Y-45710528D01*
X146749007Y-45710528D01*
X146863089Y-45767569D01*
X146920131Y-45881652D01*
X146920131Y-45944014D01*
X146844245Y-45981957D01*
X146403464Y-45981957D01*
X146374200Y-45984839D01*
X146369221Y-45986901D01*
X146363846Y-45987283D01*
X146336382Y-45997793D01*
X146145906Y-46093031D01*
X146141015Y-46096109D01*
X146138704Y-46096880D01*
X146135825Y-46099376D01*
X146121020Y-46108696D01*
X146108698Y-46122903D01*
X146094489Y-46135227D01*
X146085166Y-46150036D01*
X146082674Y-46152911D01*
X146081904Y-46155218D01*
X146078824Y-46160113D01*
X145983586Y-46350589D01*
X145973076Y-46378052D01*
X145972693Y-46383429D01*
X145970632Y-46388407D01*
X145967750Y-46417671D01*
X144553464Y-46417671D01*
X144553464Y-46350165D01*
X145385108Y-46183837D01*
X145385109Y-46183837D01*
X145385109Y-46183836D01*
X145385263Y-46183806D01*
X145413393Y-46175241D01*
X145425604Y-46167062D01*
X145439181Y-46161439D01*
X145449683Y-46150936D01*
X145462022Y-46142673D01*
X145470172Y-46130447D01*
X145480565Y-46120055D01*
X145486248Y-46106334D01*
X145494487Y-46093977D01*
X145497338Y-46079560D01*
X145502963Y-46065983D01*
X145505845Y-46036719D01*
X145505845Y-45846243D01*
X145502963Y-45816979D01*
X145500900Y-45812000D01*
X145500519Y-45806625D01*
X145490009Y-45779162D01*
X145394771Y-45588684D01*
X145391692Y-45583793D01*
X145390922Y-45581482D01*
X145388424Y-45578602D01*
X145379106Y-45563799D01*
X145364901Y-45551479D01*
X145352575Y-45537267D01*
X145337764Y-45527944D01*
X145334891Y-45525452D01*
X145332583Y-45524682D01*
X145327689Y-45521602D01*
X145137213Y-45426364D01*
X145109750Y-45415854D01*
X145104372Y-45415471D01*
X145099395Y-45413410D01*
X145070131Y-45410528D01*
X144689178Y-45410528D01*
X144659914Y-45413410D01*
X144654935Y-45415472D01*
X144649560Y-45415854D01*
X144622096Y-45426364D01*
X144431620Y-45521602D01*
X144426729Y-45524680D01*
X144424418Y-45525451D01*
X144421539Y-45527947D01*
X144406734Y-45537267D01*
X144394412Y-45551474D01*
X144380203Y-45563798D01*
X144370880Y-45578607D01*
X144368388Y-45581482D01*
X144367618Y-45583789D01*
X144364538Y-45588684D01*
X144269300Y-45779161D01*
X144258790Y-45806625D01*
X144258408Y-45812000D01*
X144256346Y-45816979D01*
X144253464Y-45846243D01*
X143475930Y-45846243D01*
X143479122Y-45839858D01*
X143539937Y-45779044D01*
X143676969Y-45710528D01*
X143832036Y-45710528D01*
X143861300Y-45707646D01*
X143915372Y-45685248D01*
X143956756Y-45643864D01*
X143979154Y-45589792D01*
X143979154Y-45531264D01*
X143956756Y-45477192D01*
X143915372Y-45435808D01*
X143861300Y-45413410D01*
X143832036Y-45410528D01*
X143641559Y-45410528D01*
X143612295Y-45413410D01*
X143607316Y-45415472D01*
X143601941Y-45415854D01*
X143574477Y-45426364D01*
X143400338Y-45513433D01*
X143385327Y-45477192D01*
X143343943Y-45435808D01*
X143289871Y-45413410D01*
X143231343Y-45413410D01*
X143177271Y-45435808D01*
X143135887Y-45477192D01*
X143113489Y-45531264D01*
X143110607Y-45560528D01*
X142428312Y-45560528D01*
X142442390Y-45532372D01*
X142452900Y-45504908D01*
X142453281Y-45499532D01*
X142455344Y-45494554D01*
X142458226Y-45465290D01*
X142458226Y-45274814D01*
X142455344Y-45245550D01*
X142453281Y-45240571D01*
X142452900Y-45235196D01*
X142442390Y-45207732D01*
X142347152Y-45017256D01*
X142339224Y-45004662D01*
X142337709Y-45001003D01*
X142334327Y-44996883D01*
X142331487Y-44992370D01*
X142328493Y-44989773D01*
X142319054Y-44978272D01*
X142234644Y-44893862D01*
X147872512Y-44893862D01*
X147872512Y-46893862D01*
X147875394Y-46923126D01*
X147897792Y-46977198D01*
X147939176Y-47018582D01*
X147993248Y-47040980D01*
X148051776Y-47040980D01*
X148105848Y-47018582D01*
X148147232Y-46977198D01*
X148169630Y-46923126D01*
X148172512Y-46893862D01*
X148172512Y-46384565D01*
X148196758Y-46360318D01*
X148664417Y-46983862D01*
X148684281Y-47005544D01*
X148734642Y-47035362D01*
X148792580Y-47043639D01*
X148849276Y-47029114D01*
X148896099Y-46993998D01*
X148925918Y-46943636D01*
X148934194Y-46885698D01*
X148919670Y-46829002D01*
X148904417Y-46803862D01*
X148411044Y-46146032D01*
X148615595Y-45941481D01*
X149396322Y-45941481D01*
X149396322Y-46512909D01*
X149399204Y-46542173D01*
X149401265Y-46547150D01*
X149401648Y-46552528D01*
X149412158Y-46579991D01*
X149507396Y-46770467D01*
X149515323Y-46783060D01*
X149516839Y-46786720D01*
X149520220Y-46790840D01*
X149523061Y-46795353D01*
X149526054Y-46797949D01*
X149535493Y-46809450D01*
X149630732Y-46904690D01*
X149642234Y-46914130D01*
X149644830Y-46917123D01*
X149649339Y-46919961D01*
X149653462Y-46923345D01*
X149657124Y-46924861D01*
X149669716Y-46932788D01*
X149860192Y-47028026D01*
X149887656Y-47038536D01*
X149893031Y-47038917D01*
X149898010Y-47040980D01*
X149927274Y-47043862D01*
X150212989Y-47043862D01*
X150242253Y-47040980D01*
X150247230Y-47038918D01*
X150252608Y-47038536D01*
X150280071Y-47028026D01*
X150470547Y-46932788D01*
X150483142Y-46924859D01*
X150486801Y-46923344D01*
X150490918Y-46919964D01*
X150495433Y-46917123D01*
X150498030Y-46914128D01*
X150509532Y-46904689D01*
X150604770Y-46809450D01*
X150614208Y-46797948D01*
X150617202Y-46795353D01*
X150620042Y-46790840D01*
X150623425Y-46786719D01*
X150624941Y-46783057D01*
X150632867Y-46770467D01*
X150728105Y-46579991D01*
X150738615Y-46552527D01*
X150738996Y-46547151D01*
X150741059Y-46542173D01*
X150743941Y-46512909D01*
X150743941Y-45941481D01*
X150741059Y-45912217D01*
X150738996Y-45907238D01*
X150738615Y-45901863D01*
X150728105Y-45874400D01*
X150632867Y-45683922D01*
X150624940Y-45671330D01*
X150623424Y-45667669D01*
X150620040Y-45663546D01*
X150617202Y-45659037D01*
X150614210Y-45656442D01*
X150604769Y-45644938D01*
X150520359Y-45560528D01*
X151301084Y-45560528D01*
X151301084Y-46608147D01*
X151303966Y-46637411D01*
X151306028Y-46642389D01*
X151306410Y-46647765D01*
X151316920Y-46675229D01*
X151412158Y-46865706D01*
X151415238Y-46870600D01*
X151416008Y-46872908D01*
X151418500Y-46875782D01*
X151427823Y-46890592D01*
X151442032Y-46902915D01*
X151454354Y-46917123D01*
X151469159Y-46926442D01*
X151472038Y-46928939D01*
X151474349Y-46929709D01*
X151479240Y-46932788D01*
X151669716Y-47028026D01*
X151697180Y-47038536D01*
X151702555Y-47038917D01*
X151707534Y-47040980D01*
X151736798Y-47043862D01*
X152022513Y-47043862D01*
X152051777Y-47040980D01*
X152056754Y-47038918D01*
X152062132Y-47038536D01*
X152089595Y-47028026D01*
X152186088Y-46979779D01*
X152224891Y-47018582D01*
X152278963Y-47040980D01*
X152337491Y-47040980D01*
X152391563Y-47018582D01*
X152432947Y-46977198D01*
X152455345Y-46923126D01*
X152458227Y-46893862D01*
X152458227Y-45560528D01*
X152455345Y-45531264D01*
X152827776Y-45531264D01*
X152827776Y-45589792D01*
X152850174Y-45643864D01*
X152891558Y-45685248D01*
X152945630Y-45707646D01*
X152974894Y-45710528D01*
X153110608Y-45710528D01*
X153110608Y-46608147D01*
X153113490Y-46637411D01*
X153115552Y-46642389D01*
X153115934Y-46647765D01*
X153126444Y-46675229D01*
X153221682Y-46865706D01*
X153224762Y-46870600D01*
X153225532Y-46872908D01*
X153228024Y-46875782D01*
X153237347Y-46890592D01*
X153251556Y-46902915D01*
X153263878Y-46917123D01*
X153278683Y-46926442D01*
X153281562Y-46928939D01*
X153283873Y-46929709D01*
X153288764Y-46932788D01*
X153479240Y-47028026D01*
X153506704Y-47038536D01*
X153512079Y-47038917D01*
X153517058Y-47040980D01*
X153546322Y-47043862D01*
X153736798Y-47043862D01*
X153766062Y-47040980D01*
X153820134Y-47018582D01*
X153861518Y-46977198D01*
X153883916Y-46923126D01*
X153883916Y-46864598D01*
X153861518Y-46810526D01*
X153820134Y-46769142D01*
X153766062Y-46746744D01*
X153736798Y-46743862D01*
X153581732Y-46743862D01*
X153467648Y-46686820D01*
X153410608Y-46572737D01*
X153410608Y-45710528D01*
X153736798Y-45710528D01*
X153766062Y-45707646D01*
X153820134Y-45685248D01*
X153861518Y-45643864D01*
X153883916Y-45589792D01*
X153883916Y-45531264D01*
X153861518Y-45477192D01*
X153820134Y-45435808D01*
X153766062Y-45413410D01*
X153736798Y-45410528D01*
X153410608Y-45410528D01*
X153410608Y-44893862D01*
X153407726Y-44864598D01*
X153385328Y-44810526D01*
X153343944Y-44769142D01*
X153289872Y-44746744D01*
X153231344Y-44746744D01*
X153177272Y-44769142D01*
X153135888Y-44810526D01*
X153113490Y-44864598D01*
X153110608Y-44893862D01*
X153110608Y-45410528D01*
X152974894Y-45410528D01*
X152945630Y-45413410D01*
X152891558Y-45435808D01*
X152850174Y-45477192D01*
X152827776Y-45531264D01*
X152455345Y-45531264D01*
X152432947Y-45477192D01*
X152391563Y-45435808D01*
X152337491Y-45413410D01*
X152278963Y-45413410D01*
X152224891Y-45435808D01*
X152183507Y-45477192D01*
X152161109Y-45531264D01*
X152158227Y-45560528D01*
X152158227Y-46641253D01*
X152124134Y-46675346D01*
X151987103Y-46743862D01*
X151772208Y-46743862D01*
X151658124Y-46686820D01*
X151601084Y-46572737D01*
X151601084Y-45560528D01*
X151598202Y-45531264D01*
X151575804Y-45477192D01*
X151534420Y-45435808D01*
X151480348Y-45413410D01*
X151421820Y-45413410D01*
X151367748Y-45435808D01*
X151326364Y-45477192D01*
X151303966Y-45531264D01*
X151301084Y-45560528D01*
X150520359Y-45560528D01*
X150509531Y-45549700D01*
X150498029Y-45540261D01*
X150495433Y-45537267D01*
X150490919Y-45534426D01*
X150486800Y-45531045D01*
X150483140Y-45529529D01*
X150470547Y-45521602D01*
X150280071Y-45426364D01*
X150252608Y-45415854D01*
X150247230Y-45415471D01*
X150242253Y-45413410D01*
X150212989Y-45410528D01*
X149927274Y-45410528D01*
X149898010Y-45413410D01*
X149893031Y-45415472D01*
X149887656Y-45415854D01*
X149860192Y-45426364D01*
X149669716Y-45521602D01*
X149657122Y-45529529D01*
X149653463Y-45531045D01*
X149649343Y-45534426D01*
X149644830Y-45537267D01*
X149642233Y-45540260D01*
X149630732Y-45549700D01*
X149535494Y-45644938D01*
X149526055Y-45656439D01*
X149523061Y-45659036D01*
X149520220Y-45663549D01*
X149516839Y-45667669D01*
X149515323Y-45671328D01*
X149507396Y-45683922D01*
X149412158Y-45874399D01*
X149401648Y-45901863D01*
X149401266Y-45907238D01*
X149399204Y-45912217D01*
X149396322Y-45941481D01*
X148615595Y-45941481D01*
X148890483Y-45666594D01*
X148909138Y-45643864D01*
X148931535Y-45589791D01*
X148931535Y-45531265D01*
X148909138Y-45477193D01*
X148867752Y-45435807D01*
X148813680Y-45413410D01*
X148755154Y-45413410D01*
X148701081Y-45435807D01*
X148678351Y-45454462D01*
X148172512Y-45960301D01*
X148172512Y-44893862D01*
X148169630Y-44864598D01*
X148147232Y-44810526D01*
X148105848Y-44769142D01*
X148051776Y-44746744D01*
X147993248Y-44746744D01*
X147939176Y-44769142D01*
X147897792Y-44810526D01*
X147875394Y-44864598D01*
X147872512Y-44893862D01*
X142234644Y-44893862D01*
X142223816Y-44883034D01*
X142212314Y-44873595D01*
X142209718Y-44870601D01*
X142205204Y-44867760D01*
X142201085Y-44864379D01*
X142197425Y-44862863D01*
X142184832Y-44854936D01*
X141994356Y-44759698D01*
X141966893Y-44749188D01*
X141961515Y-44748805D01*
X141956538Y-44746744D01*
X141927274Y-44743862D01*
X141260607Y-44743862D01*
X141231343Y-44746744D01*
X141177271Y-44769142D01*
X141135887Y-44810526D01*
X141113489Y-44864598D01*
X141110607Y-44893862D01*
X137124892Y-44893862D01*
X137122010Y-44864598D01*
X137099612Y-44810526D01*
X137058228Y-44769142D01*
X137004156Y-44746744D01*
X136945628Y-44746744D01*
X136891556Y-44769142D01*
X136850172Y-44810526D01*
X136827774Y-44864598D01*
X136824892Y-44893862D01*
X135315368Y-44893862D01*
X135312486Y-44864598D01*
X135290088Y-44810526D01*
X135248704Y-44769142D01*
X135194632Y-44746744D01*
X135136104Y-44746744D01*
X135082032Y-44769142D01*
X135040648Y-44810526D01*
X135018250Y-44864598D01*
X135015368Y-44893862D01*
X132520357Y-44893862D01*
X132509529Y-44883034D01*
X132486798Y-44864379D01*
X132481818Y-44862316D01*
X132477748Y-44858786D01*
X132450897Y-44846798D01*
X132165183Y-44751560D01*
X132150675Y-44748261D01*
X132147013Y-44746744D01*
X132141704Y-44746221D01*
X132136510Y-44745040D01*
X132132560Y-44745320D01*
X132117749Y-44743862D01*
X131927273Y-44743862D01*
X131912467Y-44745320D01*
X131908513Y-44745039D01*
X131903311Y-44746221D01*
X131898009Y-44746744D01*
X131894351Y-44748259D01*
X131879839Y-44751559D01*
X131594124Y-44846797D01*
X131567273Y-44858786D01*
X131563202Y-44862316D01*
X131558223Y-44864379D01*
X131535492Y-44883034D01*
X131345016Y-45073510D01*
X131335577Y-45085011D01*
X131332583Y-45087608D01*
X131329742Y-45092121D01*
X131326361Y-45096241D01*
X131324845Y-45099900D01*
X131316918Y-45112494D01*
X131221680Y-45302970D01*
X131220860Y-45305110D01*
X131220216Y-45305981D01*
X131215837Y-45318236D01*
X131211170Y-45330433D01*
X131211093Y-45331516D01*
X131210323Y-45333672D01*
X131115085Y-45714624D01*
X131114335Y-45719695D01*
X131113488Y-45721740D01*
X131112402Y-45732762D01*
X131110783Y-45743713D01*
X131111108Y-45745900D01*
X131110606Y-45751004D01*
X130362987Y-45751004D01*
X130362987Y-45710528D01*
X130689177Y-45710528D01*
X130718441Y-45707646D01*
X130772513Y-45685248D01*
X130813897Y-45643864D01*
X130836295Y-45589792D01*
X130836295Y-45531264D01*
X130813897Y-45477192D01*
X130772513Y-45435808D01*
X130718441Y-45413410D01*
X130689177Y-45410528D01*
X130362987Y-45410528D01*
X130362987Y-44893862D01*
X130360105Y-44864598D01*
X130337707Y-44810526D01*
X130296323Y-44769142D01*
X130242251Y-44746744D01*
X130183723Y-44746744D01*
X130129651Y-44769142D01*
X130088267Y-44810526D01*
X130065869Y-44864598D01*
X130062987Y-44893862D01*
X130062987Y-45410528D01*
X129927273Y-45410528D01*
X129898009Y-45413410D01*
X129843937Y-45435808D01*
X129802553Y-45477192D01*
X129780155Y-45531264D01*
X129247799Y-45531264D01*
X129242525Y-45527944D01*
X129239652Y-45525452D01*
X129237344Y-45524682D01*
X129232450Y-45521602D01*
X129041974Y-45426364D01*
X129014511Y-45415854D01*
X129009133Y-45415471D01*
X129004156Y-45413410D01*
X128974892Y-45410528D01*
X128593939Y-45410528D01*
X128564675Y-45413410D01*
X128559696Y-45415472D01*
X128554321Y-45415854D01*
X128526857Y-45426364D01*
X128336381Y-45521602D01*
X128311495Y-45537267D01*
X128273149Y-45581482D01*
X128254641Y-45637004D01*
X128258789Y-45695385D01*
X128284964Y-45747734D01*
X128329179Y-45786080D01*
X128384701Y-45804588D01*
X128443082Y-45800440D01*
X128470545Y-45789930D01*
X128629349Y-45710528D01*
X128939482Y-45710528D01*
X129053564Y-45767569D01*
X129110606Y-45881652D01*
X129110606Y-45944014D01*
X129034720Y-45981957D01*
X128593939Y-45981957D01*
X128564675Y-45984839D01*
X128559696Y-45986901D01*
X128554321Y-45987283D01*
X128526857Y-45997793D01*
X128336381Y-46093031D01*
X128331490Y-46096109D01*
X128329179Y-46096880D01*
X128326300Y-46099376D01*
X128311495Y-46108696D01*
X128299173Y-46122903D01*
X128284964Y-46135227D01*
X128275641Y-46150036D01*
X128273149Y-46152911D01*
X128272379Y-46155218D01*
X128269299Y-46160113D01*
X128174061Y-46350589D01*
X128163551Y-46378052D01*
X128163168Y-46383429D01*
X128161107Y-46388407D01*
X128158225Y-46417671D01*
X127505844Y-46417671D01*
X127505844Y-44893862D01*
X127502962Y-44864598D01*
X127480564Y-44810526D01*
X127439180Y-44769142D01*
X127385108Y-44746744D01*
X127326580Y-44746744D01*
X127272508Y-44769142D01*
X127231124Y-44810526D01*
X127208726Y-44864598D01*
X127205844Y-44893862D01*
X126741057Y-44893862D01*
X126741057Y-44864598D01*
X126718659Y-44810526D01*
X126677275Y-44769142D01*
X126623203Y-44746744D01*
X126593939Y-44743862D01*
X125641558Y-44743862D01*
X125612294Y-44746744D01*
X125558222Y-44769142D01*
X125516838Y-44810526D01*
X125494440Y-44864598D01*
X125491558Y-44893862D01*
X125269336Y-44893862D01*
X125269336Y-44521640D01*
X159251878Y-44521640D01*
X159251878Y-54372526D01*
G37*
D11*
X75385714Y-88904819D02*
X75385714Y-87904819D01*
X75385714Y-88381009D02*
X75957142Y-88381009D01*
X75957142Y-88904819D02*
X75957142Y-87904819D01*
X76957142Y-88904819D02*
X76385714Y-88904819D01*
X76671428Y-88904819D02*
X76671428Y-87904819D01*
X76671428Y-87904819D02*
X76576190Y-88047676D01*
X76576190Y-88047676D02*
X76480952Y-88142914D01*
X76480952Y-88142914D02*
X76385714Y-88190533D01*
X77576190Y-87904819D02*
X77671428Y-87904819D01*
X77671428Y-87904819D02*
X77766666Y-87952438D01*
X77766666Y-87952438D02*
X77814285Y-88000057D01*
X77814285Y-88000057D02*
X77861904Y-88095295D01*
X77861904Y-88095295D02*
X77909523Y-88285771D01*
X77909523Y-88285771D02*
X77909523Y-88523866D01*
X77909523Y-88523866D02*
X77861904Y-88714342D01*
X77861904Y-88714342D02*
X77814285Y-88809580D01*
X77814285Y-88809580D02*
X77766666Y-88857200D01*
X77766666Y-88857200D02*
X77671428Y-88904819D01*
X77671428Y-88904819D02*
X77576190Y-88904819D01*
X77576190Y-88904819D02*
X77480952Y-88857200D01*
X77480952Y-88857200D02*
X77433333Y-88809580D01*
X77433333Y-88809580D02*
X77385714Y-88714342D01*
X77385714Y-88714342D02*
X77338095Y-88523866D01*
X77338095Y-88523866D02*
X77338095Y-88285771D01*
X77338095Y-88285771D02*
X77385714Y-88095295D01*
X77385714Y-88095295D02*
X77433333Y-88000057D01*
X77433333Y-88000057D02*
X77480952Y-87952438D01*
X77480952Y-87952438D02*
X77576190Y-87904819D01*
X78766666Y-87904819D02*
X78576190Y-87904819D01*
X78576190Y-87904819D02*
X78480952Y-87952438D01*
X78480952Y-87952438D02*
X78433333Y-88000057D01*
X78433333Y-88000057D02*
X78338095Y-88142914D01*
X78338095Y-88142914D02*
X78290476Y-88333390D01*
X78290476Y-88333390D02*
X78290476Y-88714342D01*
X78290476Y-88714342D02*
X78338095Y-88809580D01*
X78338095Y-88809580D02*
X78385714Y-88857200D01*
X78385714Y-88857200D02*
X78480952Y-88904819D01*
X78480952Y-88904819D02*
X78671428Y-88904819D01*
X78671428Y-88904819D02*
X78766666Y-88857200D01*
X78766666Y-88857200D02*
X78814285Y-88809580D01*
X78814285Y-88809580D02*
X78861904Y-88714342D01*
X78861904Y-88714342D02*
X78861904Y-88476247D01*
X78861904Y-88476247D02*
X78814285Y-88381009D01*
X78814285Y-88381009D02*
X78766666Y-88333390D01*
X78766666Y-88333390D02*
X78671428Y-88285771D01*
X78671428Y-88285771D02*
X78480952Y-88285771D01*
X78480952Y-88285771D02*
X78385714Y-88333390D01*
X78385714Y-88333390D02*
X78338095Y-88381009D01*
X78338095Y-88381009D02*
X78290476Y-88476247D01*
X208085714Y-88904819D02*
X208085714Y-87904819D01*
X208085714Y-88381009D02*
X208657142Y-88381009D01*
X208657142Y-88904819D02*
X208657142Y-87904819D01*
X209657142Y-88904819D02*
X209085714Y-88904819D01*
X209371428Y-88904819D02*
X209371428Y-87904819D01*
X209371428Y-87904819D02*
X209276190Y-88047676D01*
X209276190Y-88047676D02*
X209180952Y-88142914D01*
X209180952Y-88142914D02*
X209085714Y-88190533D01*
X210276190Y-87904819D02*
X210371428Y-87904819D01*
X210371428Y-87904819D02*
X210466666Y-87952438D01*
X210466666Y-87952438D02*
X210514285Y-88000057D01*
X210514285Y-88000057D02*
X210561904Y-88095295D01*
X210561904Y-88095295D02*
X210609523Y-88285771D01*
X210609523Y-88285771D02*
X210609523Y-88523866D01*
X210609523Y-88523866D02*
X210561904Y-88714342D01*
X210561904Y-88714342D02*
X210514285Y-88809580D01*
X210514285Y-88809580D02*
X210466666Y-88857200D01*
X210466666Y-88857200D02*
X210371428Y-88904819D01*
X210371428Y-88904819D02*
X210276190Y-88904819D01*
X210276190Y-88904819D02*
X210180952Y-88857200D01*
X210180952Y-88857200D02*
X210133333Y-88809580D01*
X210133333Y-88809580D02*
X210085714Y-88714342D01*
X210085714Y-88714342D02*
X210038095Y-88523866D01*
X210038095Y-88523866D02*
X210038095Y-88285771D01*
X210038095Y-88285771D02*
X210085714Y-88095295D01*
X210085714Y-88095295D02*
X210133333Y-88000057D01*
X210133333Y-88000057D02*
X210180952Y-87952438D01*
X210180952Y-87952438D02*
X210276190Y-87904819D01*
X211514285Y-87904819D02*
X211038095Y-87904819D01*
X211038095Y-87904819D02*
X210990476Y-88381009D01*
X210990476Y-88381009D02*
X211038095Y-88333390D01*
X211038095Y-88333390D02*
X211133333Y-88285771D01*
X211133333Y-88285771D02*
X211371428Y-88285771D01*
X211371428Y-88285771D02*
X211466666Y-88333390D01*
X211466666Y-88333390D02*
X211514285Y-88381009D01*
X211514285Y-88381009D02*
X211561904Y-88476247D01*
X211561904Y-88476247D02*
X211561904Y-88714342D01*
X211561904Y-88714342D02*
X211514285Y-88809580D01*
X211514285Y-88809580D02*
X211466666Y-88857200D01*
X211466666Y-88857200D02*
X211371428Y-88904819D01*
X211371428Y-88904819D02*
X211133333Y-88904819D01*
X211133333Y-88904819D02*
X211038095Y-88857200D01*
X211038095Y-88857200D02*
X210990476Y-88809580D01*
X167285714Y-40154819D02*
X167285714Y-39154819D01*
X167285714Y-39631009D02*
X167857142Y-39631009D01*
X167857142Y-40154819D02*
X167857142Y-39154819D01*
X168857142Y-40154819D02*
X168285714Y-40154819D01*
X168571428Y-40154819D02*
X168571428Y-39154819D01*
X168571428Y-39154819D02*
X168476190Y-39297676D01*
X168476190Y-39297676D02*
X168380952Y-39392914D01*
X168380952Y-39392914D02*
X168285714Y-39440533D01*
X169476190Y-39154819D02*
X169571428Y-39154819D01*
X169571428Y-39154819D02*
X169666666Y-39202438D01*
X169666666Y-39202438D02*
X169714285Y-39250057D01*
X169714285Y-39250057D02*
X169761904Y-39345295D01*
X169761904Y-39345295D02*
X169809523Y-39535771D01*
X169809523Y-39535771D02*
X169809523Y-39773866D01*
X169809523Y-39773866D02*
X169761904Y-39964342D01*
X169761904Y-39964342D02*
X169714285Y-40059580D01*
X169714285Y-40059580D02*
X169666666Y-40107200D01*
X169666666Y-40107200D02*
X169571428Y-40154819D01*
X169571428Y-40154819D02*
X169476190Y-40154819D01*
X169476190Y-40154819D02*
X169380952Y-40107200D01*
X169380952Y-40107200D02*
X169333333Y-40059580D01*
X169333333Y-40059580D02*
X169285714Y-39964342D01*
X169285714Y-39964342D02*
X169238095Y-39773866D01*
X169238095Y-39773866D02*
X169238095Y-39535771D01*
X169238095Y-39535771D02*
X169285714Y-39345295D01*
X169285714Y-39345295D02*
X169333333Y-39250057D01*
X169333333Y-39250057D02*
X169380952Y-39202438D01*
X169380952Y-39202438D02*
X169476190Y-39154819D01*
X170666666Y-39488152D02*
X170666666Y-40154819D01*
X170428571Y-39107200D02*
X170190476Y-39821485D01*
X170190476Y-39821485D02*
X170809523Y-39821485D01*
X116785714Y-40154819D02*
X116785714Y-39154819D01*
X116785714Y-39631009D02*
X117357142Y-39631009D01*
X117357142Y-40154819D02*
X117357142Y-39154819D01*
X118357142Y-40154819D02*
X117785714Y-40154819D01*
X118071428Y-40154819D02*
X118071428Y-39154819D01*
X118071428Y-39154819D02*
X117976190Y-39297676D01*
X117976190Y-39297676D02*
X117880952Y-39392914D01*
X117880952Y-39392914D02*
X117785714Y-39440533D01*
X118976190Y-39154819D02*
X119071428Y-39154819D01*
X119071428Y-39154819D02*
X119166666Y-39202438D01*
X119166666Y-39202438D02*
X119214285Y-39250057D01*
X119214285Y-39250057D02*
X119261904Y-39345295D01*
X119261904Y-39345295D02*
X119309523Y-39535771D01*
X119309523Y-39535771D02*
X119309523Y-39773866D01*
X119309523Y-39773866D02*
X119261904Y-39964342D01*
X119261904Y-39964342D02*
X119214285Y-40059580D01*
X119214285Y-40059580D02*
X119166666Y-40107200D01*
X119166666Y-40107200D02*
X119071428Y-40154819D01*
X119071428Y-40154819D02*
X118976190Y-40154819D01*
X118976190Y-40154819D02*
X118880952Y-40107200D01*
X118880952Y-40107200D02*
X118833333Y-40059580D01*
X118833333Y-40059580D02*
X118785714Y-39964342D01*
X118785714Y-39964342D02*
X118738095Y-39773866D01*
X118738095Y-39773866D02*
X118738095Y-39535771D01*
X118738095Y-39535771D02*
X118785714Y-39345295D01*
X118785714Y-39345295D02*
X118833333Y-39250057D01*
X118833333Y-39250057D02*
X118880952Y-39202438D01*
X118880952Y-39202438D02*
X118976190Y-39154819D01*
X119642857Y-39154819D02*
X120261904Y-39154819D01*
X120261904Y-39154819D02*
X119928571Y-39535771D01*
X119928571Y-39535771D02*
X120071428Y-39535771D01*
X120071428Y-39535771D02*
X120166666Y-39583390D01*
X120166666Y-39583390D02*
X120214285Y-39631009D01*
X120214285Y-39631009D02*
X120261904Y-39726247D01*
X120261904Y-39726247D02*
X120261904Y-39964342D01*
X120261904Y-39964342D02*
X120214285Y-40059580D01*
X120214285Y-40059580D02*
X120166666Y-40107200D01*
X120166666Y-40107200D02*
X120071428Y-40154819D01*
X120071428Y-40154819D02*
X119785714Y-40154819D01*
X119785714Y-40154819D02*
X119690476Y-40107200D01*
X119690476Y-40107200D02*
X119642857Y-40059580D01*
X166785714Y-144754819D02*
X166785714Y-143754819D01*
X166785714Y-144231009D02*
X167357142Y-144231009D01*
X167357142Y-144754819D02*
X167357142Y-143754819D01*
X168357142Y-144754819D02*
X167785714Y-144754819D01*
X168071428Y-144754819D02*
X168071428Y-143754819D01*
X168071428Y-143754819D02*
X167976190Y-143897676D01*
X167976190Y-143897676D02*
X167880952Y-143992914D01*
X167880952Y-143992914D02*
X167785714Y-144040533D01*
X168976190Y-143754819D02*
X169071428Y-143754819D01*
X169071428Y-143754819D02*
X169166666Y-143802438D01*
X169166666Y-143802438D02*
X169214285Y-143850057D01*
X169214285Y-143850057D02*
X169261904Y-143945295D01*
X169261904Y-143945295D02*
X169309523Y-144135771D01*
X169309523Y-144135771D02*
X169309523Y-144373866D01*
X169309523Y-144373866D02*
X169261904Y-144564342D01*
X169261904Y-144564342D02*
X169214285Y-144659580D01*
X169214285Y-144659580D02*
X169166666Y-144707200D01*
X169166666Y-144707200D02*
X169071428Y-144754819D01*
X169071428Y-144754819D02*
X168976190Y-144754819D01*
X168976190Y-144754819D02*
X168880952Y-144707200D01*
X168880952Y-144707200D02*
X168833333Y-144659580D01*
X168833333Y-144659580D02*
X168785714Y-144564342D01*
X168785714Y-144564342D02*
X168738095Y-144373866D01*
X168738095Y-144373866D02*
X168738095Y-144135771D01*
X168738095Y-144135771D02*
X168785714Y-143945295D01*
X168785714Y-143945295D02*
X168833333Y-143850057D01*
X168833333Y-143850057D02*
X168880952Y-143802438D01*
X168880952Y-143802438D02*
X168976190Y-143754819D01*
X169690476Y-143850057D02*
X169738095Y-143802438D01*
X169738095Y-143802438D02*
X169833333Y-143754819D01*
X169833333Y-143754819D02*
X170071428Y-143754819D01*
X170071428Y-143754819D02*
X170166666Y-143802438D01*
X170166666Y-143802438D02*
X170214285Y-143850057D01*
X170214285Y-143850057D02*
X170261904Y-143945295D01*
X170261904Y-143945295D02*
X170261904Y-144040533D01*
X170261904Y-144040533D02*
X170214285Y-144183390D01*
X170214285Y-144183390D02*
X169642857Y-144754819D01*
X169642857Y-144754819D02*
X170261904Y-144754819D01*
X116785714Y-145154819D02*
X116785714Y-144154819D01*
X116785714Y-144631009D02*
X117357142Y-144631009D01*
X117357142Y-145154819D02*
X117357142Y-144154819D01*
X118357142Y-145154819D02*
X117785714Y-145154819D01*
X118071428Y-145154819D02*
X118071428Y-144154819D01*
X118071428Y-144154819D02*
X117976190Y-144297676D01*
X117976190Y-144297676D02*
X117880952Y-144392914D01*
X117880952Y-144392914D02*
X117785714Y-144440533D01*
X118976190Y-144154819D02*
X119071428Y-144154819D01*
X119071428Y-144154819D02*
X119166666Y-144202438D01*
X119166666Y-144202438D02*
X119214285Y-144250057D01*
X119214285Y-144250057D02*
X119261904Y-144345295D01*
X119261904Y-144345295D02*
X119309523Y-144535771D01*
X119309523Y-144535771D02*
X119309523Y-144773866D01*
X119309523Y-144773866D02*
X119261904Y-144964342D01*
X119261904Y-144964342D02*
X119214285Y-145059580D01*
X119214285Y-145059580D02*
X119166666Y-145107200D01*
X119166666Y-145107200D02*
X119071428Y-145154819D01*
X119071428Y-145154819D02*
X118976190Y-145154819D01*
X118976190Y-145154819D02*
X118880952Y-145107200D01*
X118880952Y-145107200D02*
X118833333Y-145059580D01*
X118833333Y-145059580D02*
X118785714Y-144964342D01*
X118785714Y-144964342D02*
X118738095Y-144773866D01*
X118738095Y-144773866D02*
X118738095Y-144535771D01*
X118738095Y-144535771D02*
X118785714Y-144345295D01*
X118785714Y-144345295D02*
X118833333Y-144250057D01*
X118833333Y-144250057D02*
X118880952Y-144202438D01*
X118880952Y-144202438D02*
X118976190Y-144154819D01*
X120261904Y-145154819D02*
X119690476Y-145154819D01*
X119976190Y-145154819D02*
X119976190Y-144154819D01*
X119976190Y-144154819D02*
X119880952Y-144297676D01*
X119880952Y-144297676D02*
X119785714Y-144392914D01*
X119785714Y-144392914D02*
X119690476Y-144440533D01*
X76785714Y-145254819D02*
X76785714Y-144254819D01*
X76785714Y-144731009D02*
X77357142Y-144731009D01*
X77357142Y-145254819D02*
X77357142Y-144254819D01*
X77785714Y-144350057D02*
X77833333Y-144302438D01*
X77833333Y-144302438D02*
X77928571Y-144254819D01*
X77928571Y-144254819D02*
X78166666Y-144254819D01*
X78166666Y-144254819D02*
X78261904Y-144302438D01*
X78261904Y-144302438D02*
X78309523Y-144350057D01*
X78309523Y-144350057D02*
X78357142Y-144445295D01*
X78357142Y-144445295D02*
X78357142Y-144540533D01*
X78357142Y-144540533D02*
X78309523Y-144683390D01*
X78309523Y-144683390D02*
X77738095Y-145254819D01*
X77738095Y-145254819D02*
X78357142Y-145254819D01*
X78976190Y-144254819D02*
X79071428Y-144254819D01*
X79071428Y-144254819D02*
X79166666Y-144302438D01*
X79166666Y-144302438D02*
X79214285Y-144350057D01*
X79214285Y-144350057D02*
X79261904Y-144445295D01*
X79261904Y-144445295D02*
X79309523Y-144635771D01*
X79309523Y-144635771D02*
X79309523Y-144873866D01*
X79309523Y-144873866D02*
X79261904Y-145064342D01*
X79261904Y-145064342D02*
X79214285Y-145159580D01*
X79214285Y-145159580D02*
X79166666Y-145207200D01*
X79166666Y-145207200D02*
X79071428Y-145254819D01*
X79071428Y-145254819D02*
X78976190Y-145254819D01*
X78976190Y-145254819D02*
X78880952Y-145207200D01*
X78880952Y-145207200D02*
X78833333Y-145159580D01*
X78833333Y-145159580D02*
X78785714Y-145064342D01*
X78785714Y-145064342D02*
X78738095Y-144873866D01*
X78738095Y-144873866D02*
X78738095Y-144635771D01*
X78738095Y-144635771D02*
X78785714Y-144445295D01*
X78785714Y-144445295D02*
X78833333Y-144350057D01*
X78833333Y-144350057D02*
X78880952Y-144302438D01*
X78880952Y-144302438D02*
X78976190Y-144254819D01*
X80166666Y-144588152D02*
X80166666Y-145254819D01*
X79928571Y-144207200D02*
X79690476Y-144921485D01*
X79690476Y-144921485D02*
X80309523Y-144921485D01*
X76885714Y-40154819D02*
X76885714Y-39154819D01*
X76885714Y-39631009D02*
X77457142Y-39631009D01*
X77457142Y-40154819D02*
X77457142Y-39154819D01*
X77885714Y-39250057D02*
X77933333Y-39202438D01*
X77933333Y-39202438D02*
X78028571Y-39154819D01*
X78028571Y-39154819D02*
X78266666Y-39154819D01*
X78266666Y-39154819D02*
X78361904Y-39202438D01*
X78361904Y-39202438D02*
X78409523Y-39250057D01*
X78409523Y-39250057D02*
X78457142Y-39345295D01*
X78457142Y-39345295D02*
X78457142Y-39440533D01*
X78457142Y-39440533D02*
X78409523Y-39583390D01*
X78409523Y-39583390D02*
X77838095Y-40154819D01*
X77838095Y-40154819D02*
X78457142Y-40154819D01*
X79076190Y-39154819D02*
X79171428Y-39154819D01*
X79171428Y-39154819D02*
X79266666Y-39202438D01*
X79266666Y-39202438D02*
X79314285Y-39250057D01*
X79314285Y-39250057D02*
X79361904Y-39345295D01*
X79361904Y-39345295D02*
X79409523Y-39535771D01*
X79409523Y-39535771D02*
X79409523Y-39773866D01*
X79409523Y-39773866D02*
X79361904Y-39964342D01*
X79361904Y-39964342D02*
X79314285Y-40059580D01*
X79314285Y-40059580D02*
X79266666Y-40107200D01*
X79266666Y-40107200D02*
X79171428Y-40154819D01*
X79171428Y-40154819D02*
X79076190Y-40154819D01*
X79076190Y-40154819D02*
X78980952Y-40107200D01*
X78980952Y-40107200D02*
X78933333Y-40059580D01*
X78933333Y-40059580D02*
X78885714Y-39964342D01*
X78885714Y-39964342D02*
X78838095Y-39773866D01*
X78838095Y-39773866D02*
X78838095Y-39535771D01*
X78838095Y-39535771D02*
X78885714Y-39345295D01*
X78885714Y-39345295D02*
X78933333Y-39250057D01*
X78933333Y-39250057D02*
X78980952Y-39202438D01*
X78980952Y-39202438D02*
X79076190Y-39154819D01*
X79742857Y-39154819D02*
X80361904Y-39154819D01*
X80361904Y-39154819D02*
X80028571Y-39535771D01*
X80028571Y-39535771D02*
X80171428Y-39535771D01*
X80171428Y-39535771D02*
X80266666Y-39583390D01*
X80266666Y-39583390D02*
X80314285Y-39631009D01*
X80314285Y-39631009D02*
X80361904Y-39726247D01*
X80361904Y-39726247D02*
X80361904Y-39964342D01*
X80361904Y-39964342D02*
X80314285Y-40059580D01*
X80314285Y-40059580D02*
X80266666Y-40107200D01*
X80266666Y-40107200D02*
X80171428Y-40154819D01*
X80171428Y-40154819D02*
X79885714Y-40154819D01*
X79885714Y-40154819D02*
X79790476Y-40107200D01*
X79790476Y-40107200D02*
X79742857Y-40059580D01*
X206785714Y-144754819D02*
X206785714Y-143754819D01*
X206785714Y-144231009D02*
X207357142Y-144231009D01*
X207357142Y-144754819D02*
X207357142Y-143754819D01*
X207785714Y-143850057D02*
X207833333Y-143802438D01*
X207833333Y-143802438D02*
X207928571Y-143754819D01*
X207928571Y-143754819D02*
X208166666Y-143754819D01*
X208166666Y-143754819D02*
X208261904Y-143802438D01*
X208261904Y-143802438D02*
X208309523Y-143850057D01*
X208309523Y-143850057D02*
X208357142Y-143945295D01*
X208357142Y-143945295D02*
X208357142Y-144040533D01*
X208357142Y-144040533D02*
X208309523Y-144183390D01*
X208309523Y-144183390D02*
X207738095Y-144754819D01*
X207738095Y-144754819D02*
X208357142Y-144754819D01*
X208976190Y-143754819D02*
X209071428Y-143754819D01*
X209071428Y-143754819D02*
X209166666Y-143802438D01*
X209166666Y-143802438D02*
X209214285Y-143850057D01*
X209214285Y-143850057D02*
X209261904Y-143945295D01*
X209261904Y-143945295D02*
X209309523Y-144135771D01*
X209309523Y-144135771D02*
X209309523Y-144373866D01*
X209309523Y-144373866D02*
X209261904Y-144564342D01*
X209261904Y-144564342D02*
X209214285Y-144659580D01*
X209214285Y-144659580D02*
X209166666Y-144707200D01*
X209166666Y-144707200D02*
X209071428Y-144754819D01*
X209071428Y-144754819D02*
X208976190Y-144754819D01*
X208976190Y-144754819D02*
X208880952Y-144707200D01*
X208880952Y-144707200D02*
X208833333Y-144659580D01*
X208833333Y-144659580D02*
X208785714Y-144564342D01*
X208785714Y-144564342D02*
X208738095Y-144373866D01*
X208738095Y-144373866D02*
X208738095Y-144135771D01*
X208738095Y-144135771D02*
X208785714Y-143945295D01*
X208785714Y-143945295D02*
X208833333Y-143850057D01*
X208833333Y-143850057D02*
X208880952Y-143802438D01*
X208880952Y-143802438D02*
X208976190Y-143754819D01*
X209690476Y-143850057D02*
X209738095Y-143802438D01*
X209738095Y-143802438D02*
X209833333Y-143754819D01*
X209833333Y-143754819D02*
X210071428Y-143754819D01*
X210071428Y-143754819D02*
X210166666Y-143802438D01*
X210166666Y-143802438D02*
X210214285Y-143850057D01*
X210214285Y-143850057D02*
X210261904Y-143945295D01*
X210261904Y-143945295D02*
X210261904Y-144040533D01*
X210261904Y-144040533D02*
X210214285Y-144183390D01*
X210214285Y-144183390D02*
X209642857Y-144754819D01*
X209642857Y-144754819D02*
X210261904Y-144754819D01*
X206785714Y-39054819D02*
X206785714Y-38054819D01*
X206785714Y-38531009D02*
X207357142Y-38531009D01*
X207357142Y-39054819D02*
X207357142Y-38054819D01*
X207785714Y-38150057D02*
X207833333Y-38102438D01*
X207833333Y-38102438D02*
X207928571Y-38054819D01*
X207928571Y-38054819D02*
X208166666Y-38054819D01*
X208166666Y-38054819D02*
X208261904Y-38102438D01*
X208261904Y-38102438D02*
X208309523Y-38150057D01*
X208309523Y-38150057D02*
X208357142Y-38245295D01*
X208357142Y-38245295D02*
X208357142Y-38340533D01*
X208357142Y-38340533D02*
X208309523Y-38483390D01*
X208309523Y-38483390D02*
X207738095Y-39054819D01*
X207738095Y-39054819D02*
X208357142Y-39054819D01*
X208976190Y-38054819D02*
X209071428Y-38054819D01*
X209071428Y-38054819D02*
X209166666Y-38102438D01*
X209166666Y-38102438D02*
X209214285Y-38150057D01*
X209214285Y-38150057D02*
X209261904Y-38245295D01*
X209261904Y-38245295D02*
X209309523Y-38435771D01*
X209309523Y-38435771D02*
X209309523Y-38673866D01*
X209309523Y-38673866D02*
X209261904Y-38864342D01*
X209261904Y-38864342D02*
X209214285Y-38959580D01*
X209214285Y-38959580D02*
X209166666Y-39007200D01*
X209166666Y-39007200D02*
X209071428Y-39054819D01*
X209071428Y-39054819D02*
X208976190Y-39054819D01*
X208976190Y-39054819D02*
X208880952Y-39007200D01*
X208880952Y-39007200D02*
X208833333Y-38959580D01*
X208833333Y-38959580D02*
X208785714Y-38864342D01*
X208785714Y-38864342D02*
X208738095Y-38673866D01*
X208738095Y-38673866D02*
X208738095Y-38435771D01*
X208738095Y-38435771D02*
X208785714Y-38245295D01*
X208785714Y-38245295D02*
X208833333Y-38150057D01*
X208833333Y-38150057D02*
X208880952Y-38102438D01*
X208880952Y-38102438D02*
X208976190Y-38054819D01*
X210261904Y-39054819D02*
X209690476Y-39054819D01*
X209976190Y-39054819D02*
X209976190Y-38054819D01*
X209976190Y-38054819D02*
X209880952Y-38197676D01*
X209880952Y-38197676D02*
X209785714Y-38292914D01*
X209785714Y-38292914D02*
X209690476Y-38340533D01*
X79232285Y-55080819D02*
X79232285Y-55795104D01*
X79232285Y-55795104D02*
X79184666Y-55937961D01*
X79184666Y-55937961D02*
X79089428Y-56033200D01*
X79089428Y-56033200D02*
X78946571Y-56080819D01*
X78946571Y-56080819D02*
X78851333Y-56080819D01*
X80232285Y-56080819D02*
X79660857Y-56080819D01*
X79946571Y-56080819D02*
X79946571Y-55080819D01*
X79946571Y-55080819D02*
X79851333Y-55223676D01*
X79851333Y-55223676D02*
X79756095Y-55318914D01*
X79756095Y-55318914D02*
X79660857Y-55366533D01*
X80851333Y-55080819D02*
X80946571Y-55080819D01*
X80946571Y-55080819D02*
X81041809Y-55128438D01*
X81041809Y-55128438D02*
X81089428Y-55176057D01*
X81089428Y-55176057D02*
X81137047Y-55271295D01*
X81137047Y-55271295D02*
X81184666Y-55461771D01*
X81184666Y-55461771D02*
X81184666Y-55699866D01*
X81184666Y-55699866D02*
X81137047Y-55890342D01*
X81137047Y-55890342D02*
X81089428Y-55985580D01*
X81089428Y-55985580D02*
X81041809Y-56033200D01*
X81041809Y-56033200D02*
X80946571Y-56080819D01*
X80946571Y-56080819D02*
X80851333Y-56080819D01*
X80851333Y-56080819D02*
X80756095Y-56033200D01*
X80756095Y-56033200D02*
X80708476Y-55985580D01*
X80708476Y-55985580D02*
X80660857Y-55890342D01*
X80660857Y-55890342D02*
X80613238Y-55699866D01*
X80613238Y-55699866D02*
X80613238Y-55461771D01*
X80613238Y-55461771D02*
X80660857Y-55271295D01*
X80660857Y-55271295D02*
X80708476Y-55176057D01*
X80708476Y-55176057D02*
X80756095Y-55128438D01*
X80756095Y-55128438D02*
X80851333Y-55080819D01*
X82137047Y-56080819D02*
X81565619Y-56080819D01*
X81851333Y-56080819D02*
X81851333Y-55080819D01*
X81851333Y-55080819D02*
X81756095Y-55223676D01*
X81756095Y-55223676D02*
X81660857Y-55318914D01*
X81660857Y-55318914D02*
X81565619Y-55366533D01*
X105140285Y-54826819D02*
X105140285Y-55541104D01*
X105140285Y-55541104D02*
X105092666Y-55683961D01*
X105092666Y-55683961D02*
X104997428Y-55779200D01*
X104997428Y-55779200D02*
X104854571Y-55826819D01*
X104854571Y-55826819D02*
X104759333Y-55826819D01*
X106140285Y-55826819D02*
X105568857Y-55826819D01*
X105854571Y-55826819D02*
X105854571Y-54826819D01*
X105854571Y-54826819D02*
X105759333Y-54969676D01*
X105759333Y-54969676D02*
X105664095Y-55064914D01*
X105664095Y-55064914D02*
X105568857Y-55112533D01*
X106759333Y-54826819D02*
X106854571Y-54826819D01*
X106854571Y-54826819D02*
X106949809Y-54874438D01*
X106949809Y-54874438D02*
X106997428Y-54922057D01*
X106997428Y-54922057D02*
X107045047Y-55017295D01*
X107045047Y-55017295D02*
X107092666Y-55207771D01*
X107092666Y-55207771D02*
X107092666Y-55445866D01*
X107092666Y-55445866D02*
X107045047Y-55636342D01*
X107045047Y-55636342D02*
X106997428Y-55731580D01*
X106997428Y-55731580D02*
X106949809Y-55779200D01*
X106949809Y-55779200D02*
X106854571Y-55826819D01*
X106854571Y-55826819D02*
X106759333Y-55826819D01*
X106759333Y-55826819D02*
X106664095Y-55779200D01*
X106664095Y-55779200D02*
X106616476Y-55731580D01*
X106616476Y-55731580D02*
X106568857Y-55636342D01*
X106568857Y-55636342D02*
X106521238Y-55445866D01*
X106521238Y-55445866D02*
X106521238Y-55207771D01*
X106521238Y-55207771D02*
X106568857Y-55017295D01*
X106568857Y-55017295D02*
X106616476Y-54922057D01*
X106616476Y-54922057D02*
X106664095Y-54874438D01*
X106664095Y-54874438D02*
X106759333Y-54826819D01*
X107473619Y-54922057D02*
X107521238Y-54874438D01*
X107521238Y-54874438D02*
X107616476Y-54826819D01*
X107616476Y-54826819D02*
X107854571Y-54826819D01*
X107854571Y-54826819D02*
X107949809Y-54874438D01*
X107949809Y-54874438D02*
X107997428Y-54922057D01*
X107997428Y-54922057D02*
X108045047Y-55017295D01*
X108045047Y-55017295D02*
X108045047Y-55112533D01*
X108045047Y-55112533D02*
X107997428Y-55255390D01*
X107997428Y-55255390D02*
X107426000Y-55826819D01*
X107426000Y-55826819D02*
X108045047Y-55826819D01*
X188451785Y-46454819D02*
X188451785Y-47169104D01*
X188451785Y-47169104D02*
X188404166Y-47311961D01*
X188404166Y-47311961D02*
X188308928Y-47407200D01*
X188308928Y-47407200D02*
X188166071Y-47454819D01*
X188166071Y-47454819D02*
X188070833Y-47454819D01*
X189451785Y-47454819D02*
X188880357Y-47454819D01*
X189166071Y-47454819D02*
X189166071Y-46454819D01*
X189166071Y-46454819D02*
X189070833Y-46597676D01*
X189070833Y-46597676D02*
X188975595Y-46692914D01*
X188975595Y-46692914D02*
X188880357Y-46740533D01*
X190070833Y-46454819D02*
X190166071Y-46454819D01*
X190166071Y-46454819D02*
X190261309Y-46502438D01*
X190261309Y-46502438D02*
X190308928Y-46550057D01*
X190308928Y-46550057D02*
X190356547Y-46645295D01*
X190356547Y-46645295D02*
X190404166Y-46835771D01*
X190404166Y-46835771D02*
X190404166Y-47073866D01*
X190404166Y-47073866D02*
X190356547Y-47264342D01*
X190356547Y-47264342D02*
X190308928Y-47359580D01*
X190308928Y-47359580D02*
X190261309Y-47407200D01*
X190261309Y-47407200D02*
X190166071Y-47454819D01*
X190166071Y-47454819D02*
X190070833Y-47454819D01*
X190070833Y-47454819D02*
X189975595Y-47407200D01*
X189975595Y-47407200D02*
X189927976Y-47359580D01*
X189927976Y-47359580D02*
X189880357Y-47264342D01*
X189880357Y-47264342D02*
X189832738Y-47073866D01*
X189832738Y-47073866D02*
X189832738Y-46835771D01*
X189832738Y-46835771D02*
X189880357Y-46645295D01*
X189880357Y-46645295D02*
X189927976Y-46550057D01*
X189927976Y-46550057D02*
X189975595Y-46502438D01*
X189975595Y-46502438D02*
X190070833Y-46454819D01*
X190975595Y-46883390D02*
X190880357Y-46835771D01*
X190880357Y-46835771D02*
X190832738Y-46788152D01*
X190832738Y-46788152D02*
X190785119Y-46692914D01*
X190785119Y-46692914D02*
X190785119Y-46645295D01*
X190785119Y-46645295D02*
X190832738Y-46550057D01*
X190832738Y-46550057D02*
X190880357Y-46502438D01*
X190880357Y-46502438D02*
X190975595Y-46454819D01*
X190975595Y-46454819D02*
X191166071Y-46454819D01*
X191166071Y-46454819D02*
X191261309Y-46502438D01*
X191261309Y-46502438D02*
X191308928Y-46550057D01*
X191308928Y-46550057D02*
X191356547Y-46645295D01*
X191356547Y-46645295D02*
X191356547Y-46692914D01*
X191356547Y-46692914D02*
X191308928Y-46788152D01*
X191308928Y-46788152D02*
X191261309Y-46835771D01*
X191261309Y-46835771D02*
X191166071Y-46883390D01*
X191166071Y-46883390D02*
X190975595Y-46883390D01*
X190975595Y-46883390D02*
X190880357Y-46931009D01*
X190880357Y-46931009D02*
X190832738Y-46978628D01*
X190832738Y-46978628D02*
X190785119Y-47073866D01*
X190785119Y-47073866D02*
X190785119Y-47264342D01*
X190785119Y-47264342D02*
X190832738Y-47359580D01*
X190832738Y-47359580D02*
X190880357Y-47407200D01*
X190880357Y-47407200D02*
X190975595Y-47454819D01*
X190975595Y-47454819D02*
X191166071Y-47454819D01*
X191166071Y-47454819D02*
X191261309Y-47407200D01*
X191261309Y-47407200D02*
X191308928Y-47359580D01*
X191308928Y-47359580D02*
X191356547Y-47264342D01*
X191356547Y-47264342D02*
X191356547Y-47073866D01*
X191356547Y-47073866D02*
X191308928Y-46978628D01*
X191308928Y-46978628D02*
X191261309Y-46931009D01*
X191261309Y-46931009D02*
X191166071Y-46883390D01*
X157210285Y-55334819D02*
X157210285Y-56049104D01*
X157210285Y-56049104D02*
X157162666Y-56191961D01*
X157162666Y-56191961D02*
X157067428Y-56287200D01*
X157067428Y-56287200D02*
X156924571Y-56334819D01*
X156924571Y-56334819D02*
X156829333Y-56334819D01*
X158210285Y-56334819D02*
X157638857Y-56334819D01*
X157924571Y-56334819D02*
X157924571Y-55334819D01*
X157924571Y-55334819D02*
X157829333Y-55477676D01*
X157829333Y-55477676D02*
X157734095Y-55572914D01*
X157734095Y-55572914D02*
X157638857Y-55620533D01*
X158829333Y-55334819D02*
X158924571Y-55334819D01*
X158924571Y-55334819D02*
X159019809Y-55382438D01*
X159019809Y-55382438D02*
X159067428Y-55430057D01*
X159067428Y-55430057D02*
X159115047Y-55525295D01*
X159115047Y-55525295D02*
X159162666Y-55715771D01*
X159162666Y-55715771D02*
X159162666Y-55953866D01*
X159162666Y-55953866D02*
X159115047Y-56144342D01*
X159115047Y-56144342D02*
X159067428Y-56239580D01*
X159067428Y-56239580D02*
X159019809Y-56287200D01*
X159019809Y-56287200D02*
X158924571Y-56334819D01*
X158924571Y-56334819D02*
X158829333Y-56334819D01*
X158829333Y-56334819D02*
X158734095Y-56287200D01*
X158734095Y-56287200D02*
X158686476Y-56239580D01*
X158686476Y-56239580D02*
X158638857Y-56144342D01*
X158638857Y-56144342D02*
X158591238Y-55953866D01*
X158591238Y-55953866D02*
X158591238Y-55715771D01*
X158591238Y-55715771D02*
X158638857Y-55525295D01*
X158638857Y-55525295D02*
X158686476Y-55430057D01*
X158686476Y-55430057D02*
X158734095Y-55382438D01*
X158734095Y-55382438D02*
X158829333Y-55334819D01*
X160019809Y-55334819D02*
X159829333Y-55334819D01*
X159829333Y-55334819D02*
X159734095Y-55382438D01*
X159734095Y-55382438D02*
X159686476Y-55430057D01*
X159686476Y-55430057D02*
X159591238Y-55572914D01*
X159591238Y-55572914D02*
X159543619Y-55763390D01*
X159543619Y-55763390D02*
X159543619Y-56144342D01*
X159543619Y-56144342D02*
X159591238Y-56239580D01*
X159591238Y-56239580D02*
X159638857Y-56287200D01*
X159638857Y-56287200D02*
X159734095Y-56334819D01*
X159734095Y-56334819D02*
X159924571Y-56334819D01*
X159924571Y-56334819D02*
X160019809Y-56287200D01*
X160019809Y-56287200D02*
X160067428Y-56239580D01*
X160067428Y-56239580D02*
X160115047Y-56144342D01*
X160115047Y-56144342D02*
X160115047Y-55906247D01*
X160115047Y-55906247D02*
X160067428Y-55811009D01*
X160067428Y-55811009D02*
X160019809Y-55763390D01*
X160019809Y-55763390D02*
X159924571Y-55715771D01*
X159924571Y-55715771D02*
X159734095Y-55715771D01*
X159734095Y-55715771D02*
X159638857Y-55763390D01*
X159638857Y-55763390D02*
X159591238Y-55811009D01*
X159591238Y-55811009D02*
X159543619Y-55906247D01*
X130540285Y-55080819D02*
X130540285Y-55795104D01*
X130540285Y-55795104D02*
X130492666Y-55937961D01*
X130492666Y-55937961D02*
X130397428Y-56033200D01*
X130397428Y-56033200D02*
X130254571Y-56080819D01*
X130254571Y-56080819D02*
X130159333Y-56080819D01*
X131540285Y-56080819D02*
X130968857Y-56080819D01*
X131254571Y-56080819D02*
X131254571Y-55080819D01*
X131254571Y-55080819D02*
X131159333Y-55223676D01*
X131159333Y-55223676D02*
X131064095Y-55318914D01*
X131064095Y-55318914D02*
X130968857Y-55366533D01*
X132159333Y-55080819D02*
X132254571Y-55080819D01*
X132254571Y-55080819D02*
X132349809Y-55128438D01*
X132349809Y-55128438D02*
X132397428Y-55176057D01*
X132397428Y-55176057D02*
X132445047Y-55271295D01*
X132445047Y-55271295D02*
X132492666Y-55461771D01*
X132492666Y-55461771D02*
X132492666Y-55699866D01*
X132492666Y-55699866D02*
X132445047Y-55890342D01*
X132445047Y-55890342D02*
X132397428Y-55985580D01*
X132397428Y-55985580D02*
X132349809Y-56033200D01*
X132349809Y-56033200D02*
X132254571Y-56080819D01*
X132254571Y-56080819D02*
X132159333Y-56080819D01*
X132159333Y-56080819D02*
X132064095Y-56033200D01*
X132064095Y-56033200D02*
X132016476Y-55985580D01*
X132016476Y-55985580D02*
X131968857Y-55890342D01*
X131968857Y-55890342D02*
X131921238Y-55699866D01*
X131921238Y-55699866D02*
X131921238Y-55461771D01*
X131921238Y-55461771D02*
X131968857Y-55271295D01*
X131968857Y-55271295D02*
X132016476Y-55176057D01*
X132016476Y-55176057D02*
X132064095Y-55128438D01*
X132064095Y-55128438D02*
X132159333Y-55080819D01*
X133349809Y-55414152D02*
X133349809Y-56080819D01*
X133111714Y-55033200D02*
X132873619Y-55747485D01*
X132873619Y-55747485D02*
X133492666Y-55747485D01*
%TO.C,J101*%
D12*
X79617500Y-67970000D02*
X79617500Y-68970000D01*
X79617500Y-68970000D02*
X80617500Y-68470000D01*
X80617500Y-68470000D02*
X79617500Y-67970000D01*
X81007500Y-57390000D02*
X81007500Y-127810000D01*
X81007500Y-90550000D02*
X82317500Y-90550000D01*
X81007500Y-127810000D02*
X81377500Y-127810000D01*
X81377500Y-57390000D02*
X81007500Y-57390000D01*
X82317500Y-64550000D02*
X88717500Y-64550000D01*
X82317500Y-90550000D02*
X82317500Y-64550000D01*
X82317500Y-94650000D02*
X81007500Y-94650000D01*
X82317500Y-120650000D02*
X82317500Y-94650000D01*
X83207500Y-47890000D02*
X87827500Y-47890000D01*
X83207500Y-55640000D02*
X83207500Y-47890000D01*
X83207500Y-129560000D02*
X83207500Y-137310000D01*
X83207500Y-137310000D02*
X87827500Y-137310000D01*
X87827500Y-47890000D02*
X87827500Y-55640000D01*
X87827500Y-137310000D02*
X87827500Y-129560000D01*
X88717500Y-64550000D02*
X88717500Y-120650000D01*
X88717500Y-120650000D02*
X82317500Y-120650000D01*
X89157500Y-57390000D02*
X90027500Y-57390000D01*
X90027500Y-57390000D02*
X90027500Y-127810000D01*
X90027500Y-127810000D02*
X89157500Y-127810000D01*
%TO.C,J102*%
X105672500Y-67970000D02*
X105672500Y-68970000D01*
X105672500Y-68970000D02*
X106672500Y-68470000D01*
X106672500Y-68470000D02*
X105672500Y-67970000D01*
X107062500Y-57390000D02*
X107062500Y-127810000D01*
X107062500Y-90550000D02*
X108372500Y-90550000D01*
X107062500Y-127810000D02*
X107432500Y-127810000D01*
X107432500Y-57390000D02*
X107062500Y-57390000D01*
X108372500Y-64550000D02*
X114772500Y-64550000D01*
X108372500Y-90550000D02*
X108372500Y-64550000D01*
X108372500Y-94650000D02*
X107062500Y-94650000D01*
X108372500Y-120650000D02*
X108372500Y-94650000D01*
X109262500Y-47890000D02*
X113882500Y-47890000D01*
X109262500Y-55640000D02*
X109262500Y-47890000D01*
X109262500Y-129560000D02*
X109262500Y-137310000D01*
X109262500Y-137310000D02*
X113882500Y-137310000D01*
X113882500Y-47890000D02*
X113882500Y-55640000D01*
X113882500Y-137310000D02*
X113882500Y-129560000D01*
X114772500Y-64550000D02*
X114772500Y-120650000D01*
X114772500Y-120650000D02*
X108372500Y-120650000D01*
X115212500Y-57390000D02*
X116082500Y-57390000D01*
X116082500Y-57390000D02*
X116082500Y-127810000D01*
X116082500Y-127810000D02*
X115212500Y-127810000D01*
%TO.C,J108*%
X183837500Y-67970000D02*
X183837500Y-68970000D01*
X183837500Y-68970000D02*
X184837500Y-68470000D01*
X184837500Y-68470000D02*
X183837500Y-67970000D01*
X185227500Y-57390000D02*
X185227500Y-127810000D01*
X185227500Y-90550000D02*
X186537500Y-90550000D01*
X185227500Y-127810000D02*
X185597500Y-127810000D01*
X185597500Y-57390000D02*
X185227500Y-57390000D01*
X186537500Y-64550000D02*
X192937500Y-64550000D01*
X186537500Y-90550000D02*
X186537500Y-64550000D01*
X186537500Y-94650000D02*
X185227500Y-94650000D01*
X186537500Y-120650000D02*
X186537500Y-94650000D01*
X187427500Y-47890000D02*
X192047500Y-47890000D01*
X187427500Y-55640000D02*
X187427500Y-47890000D01*
X187427500Y-129560000D02*
X187427500Y-137310000D01*
X187427500Y-137310000D02*
X192047500Y-137310000D01*
X192047500Y-47890000D02*
X192047500Y-55640000D01*
X192047500Y-137310000D02*
X192047500Y-129560000D01*
X192937500Y-64550000D02*
X192937500Y-120650000D01*
X192937500Y-120650000D02*
X186537500Y-120650000D01*
X193377500Y-57390000D02*
X194247500Y-57390000D01*
X194247500Y-57390000D02*
X194247500Y-127810000D01*
X194247500Y-127810000D02*
X193377500Y-127810000D01*
%TO.C,J106*%
X157782500Y-67970000D02*
X157782500Y-68970000D01*
X157782500Y-68970000D02*
X158782500Y-68470000D01*
X158782500Y-68470000D02*
X157782500Y-67970000D01*
X159172500Y-57390000D02*
X159172500Y-127810000D01*
X159172500Y-90550000D02*
X160482500Y-90550000D01*
X159172500Y-127810000D02*
X159542500Y-127810000D01*
X159542500Y-57390000D02*
X159172500Y-57390000D01*
X160482500Y-64550000D02*
X166882500Y-64550000D01*
X160482500Y-90550000D02*
X160482500Y-64550000D01*
X160482500Y-94650000D02*
X159172500Y-94650000D01*
X160482500Y-120650000D02*
X160482500Y-94650000D01*
X161372500Y-47890000D02*
X165992500Y-47890000D01*
X161372500Y-55640000D02*
X161372500Y-47890000D01*
X161372500Y-129560000D02*
X161372500Y-137310000D01*
X161372500Y-137310000D02*
X165992500Y-137310000D01*
X165992500Y-47890000D02*
X165992500Y-55640000D01*
X165992500Y-137310000D02*
X165992500Y-129560000D01*
X166882500Y-64550000D02*
X166882500Y-120650000D01*
X166882500Y-120650000D02*
X160482500Y-120650000D01*
X167322500Y-57390000D02*
X168192500Y-57390000D01*
X168192500Y-57390000D02*
X168192500Y-127810000D01*
X168192500Y-127810000D02*
X167322500Y-127810000D01*
%TO.C,J104*%
X131727500Y-67970000D02*
X131727500Y-68970000D01*
X131727500Y-68970000D02*
X132727500Y-68470000D01*
X132727500Y-68470000D02*
X131727500Y-67970000D01*
X133117500Y-57390000D02*
X133117500Y-127810000D01*
X133117500Y-90550000D02*
X134427500Y-90550000D01*
X133117500Y-127810000D02*
X133487500Y-127810000D01*
X133487500Y-57390000D02*
X133117500Y-57390000D01*
X134427500Y-64550000D02*
X140827500Y-64550000D01*
X134427500Y-90550000D02*
X134427500Y-64550000D01*
X134427500Y-94650000D02*
X133117500Y-94650000D01*
X134427500Y-120650000D02*
X134427500Y-94650000D01*
X135317500Y-47890000D02*
X139937500Y-47890000D01*
X135317500Y-55640000D02*
X135317500Y-47890000D01*
X135317500Y-129560000D02*
X135317500Y-137310000D01*
X135317500Y-137310000D02*
X139937500Y-137310000D01*
X139937500Y-47890000D02*
X139937500Y-55640000D01*
X139937500Y-137310000D02*
X139937500Y-129560000D01*
X140827500Y-64550000D02*
X140827500Y-120650000D01*
X140827500Y-120650000D02*
X134427500Y-120650000D01*
X141267500Y-57390000D02*
X142137500Y-57390000D01*
X142137500Y-57390000D02*
X142137500Y-127810000D01*
X142137500Y-127810000D02*
X141267500Y-127810000D01*
%TD*%
M02*
