%TF.GenerationSoftware,KiCad,Pcbnew,9.99.0-unknown-b0b07bbc41~182~ubuntu22.04.1*%
%TF.CreationDate,2025-08-08T10:17:54+02:00*%
%TF.ProjectId,CP70_front_flatcable,43503730-5f66-4726-9f6e-745f666c6174,rev?*%
%TF.SameCoordinates,Original*%
%TF.FileFunction,Legend,Bot*%
%TF.FilePolarity,Positive*%
%FSLAX46Y46*%
G04 Gerber Fmt 4.6, Leading zero omitted, Abs format (unit mm)*
G04 Created by KiCad (PCBNEW 9.99.0-unknown-b0b07bbc41~182~ubuntu22.04.1) date 2025-08-08 10:17:54*
%MOMM*%
%LPD*%
G01*
G04 APERTURE LIST*
%ADD10C,0.150000*%
%ADD11C,0.120000*%
G04 APERTURE END LIST*
D10*
X176960714Y-46454819D02*
X176960714Y-47169104D01*
X176960714Y-47169104D02*
X177008333Y-47311961D01*
X177008333Y-47311961D02*
X177103571Y-47407200D01*
X177103571Y-47407200D02*
X177246428Y-47454819D01*
X177246428Y-47454819D02*
X177341666Y-47454819D01*
X175960714Y-47454819D02*
X176532142Y-47454819D01*
X176246428Y-47454819D02*
X176246428Y-46454819D01*
X176246428Y-46454819D02*
X176341666Y-46597676D01*
X176341666Y-46597676D02*
X176436904Y-46692914D01*
X176436904Y-46692914D02*
X176532142Y-46740533D01*
X175341666Y-46454819D02*
X175246428Y-46454819D01*
X175246428Y-46454819D02*
X175151190Y-46502438D01*
X175151190Y-46502438D02*
X175103571Y-46550057D01*
X175103571Y-46550057D02*
X175055952Y-46645295D01*
X175055952Y-46645295D02*
X175008333Y-46835771D01*
X175008333Y-46835771D02*
X175008333Y-47073866D01*
X175008333Y-47073866D02*
X175055952Y-47264342D01*
X175055952Y-47264342D02*
X175103571Y-47359580D01*
X175103571Y-47359580D02*
X175151190Y-47407200D01*
X175151190Y-47407200D02*
X175246428Y-47454819D01*
X175246428Y-47454819D02*
X175341666Y-47454819D01*
X175341666Y-47454819D02*
X175436904Y-47407200D01*
X175436904Y-47407200D02*
X175484523Y-47359580D01*
X175484523Y-47359580D02*
X175532142Y-47264342D01*
X175532142Y-47264342D02*
X175579761Y-47073866D01*
X175579761Y-47073866D02*
X175579761Y-46835771D01*
X175579761Y-46835771D02*
X175532142Y-46645295D01*
X175532142Y-46645295D02*
X175484523Y-46550057D01*
X175484523Y-46550057D02*
X175436904Y-46502438D01*
X175436904Y-46502438D02*
X175341666Y-46454819D01*
X174674999Y-46454819D02*
X174008333Y-46454819D01*
X174008333Y-46454819D02*
X174436904Y-47454819D01*
X203015714Y-46454819D02*
X203015714Y-47169104D01*
X203015714Y-47169104D02*
X203063333Y-47311961D01*
X203063333Y-47311961D02*
X203158571Y-47407200D01*
X203158571Y-47407200D02*
X203301428Y-47454819D01*
X203301428Y-47454819D02*
X203396666Y-47454819D01*
X202015714Y-47454819D02*
X202587142Y-47454819D01*
X202301428Y-47454819D02*
X202301428Y-46454819D01*
X202301428Y-46454819D02*
X202396666Y-46597676D01*
X202396666Y-46597676D02*
X202491904Y-46692914D01*
X202491904Y-46692914D02*
X202587142Y-46740533D01*
X201396666Y-46454819D02*
X201301428Y-46454819D01*
X201301428Y-46454819D02*
X201206190Y-46502438D01*
X201206190Y-46502438D02*
X201158571Y-46550057D01*
X201158571Y-46550057D02*
X201110952Y-46645295D01*
X201110952Y-46645295D02*
X201063333Y-46835771D01*
X201063333Y-46835771D02*
X201063333Y-47073866D01*
X201063333Y-47073866D02*
X201110952Y-47264342D01*
X201110952Y-47264342D02*
X201158571Y-47359580D01*
X201158571Y-47359580D02*
X201206190Y-47407200D01*
X201206190Y-47407200D02*
X201301428Y-47454819D01*
X201301428Y-47454819D02*
X201396666Y-47454819D01*
X201396666Y-47454819D02*
X201491904Y-47407200D01*
X201491904Y-47407200D02*
X201539523Y-47359580D01*
X201539523Y-47359580D02*
X201587142Y-47264342D01*
X201587142Y-47264342D02*
X201634761Y-47073866D01*
X201634761Y-47073866D02*
X201634761Y-46835771D01*
X201634761Y-46835771D02*
X201587142Y-46645295D01*
X201587142Y-46645295D02*
X201539523Y-46550057D01*
X201539523Y-46550057D02*
X201491904Y-46502438D01*
X201491904Y-46502438D02*
X201396666Y-46454819D01*
X200587142Y-47454819D02*
X200396666Y-47454819D01*
X200396666Y-47454819D02*
X200301428Y-47407200D01*
X200301428Y-47407200D02*
X200253809Y-47359580D01*
X200253809Y-47359580D02*
X200158571Y-47216723D01*
X200158571Y-47216723D02*
X200110952Y-47026247D01*
X200110952Y-47026247D02*
X200110952Y-46645295D01*
X200110952Y-46645295D02*
X200158571Y-46550057D01*
X200158571Y-46550057D02*
X200206190Y-46502438D01*
X200206190Y-46502438D02*
X200301428Y-46454819D01*
X200301428Y-46454819D02*
X200491904Y-46454819D01*
X200491904Y-46454819D02*
X200587142Y-46502438D01*
X200587142Y-46502438D02*
X200634761Y-46550057D01*
X200634761Y-46550057D02*
X200682380Y-46645295D01*
X200682380Y-46645295D02*
X200682380Y-46883390D01*
X200682380Y-46883390D02*
X200634761Y-46978628D01*
X200634761Y-46978628D02*
X200587142Y-47026247D01*
X200587142Y-47026247D02*
X200491904Y-47073866D01*
X200491904Y-47073866D02*
X200301428Y-47073866D01*
X200301428Y-47073866D02*
X200206190Y-47026247D01*
X200206190Y-47026247D02*
X200158571Y-46978628D01*
X200158571Y-46978628D02*
X200110952Y-46883390D01*
X98795714Y-46454819D02*
X98795714Y-47169104D01*
X98795714Y-47169104D02*
X98843333Y-47311961D01*
X98843333Y-47311961D02*
X98938571Y-47407200D01*
X98938571Y-47407200D02*
X99081428Y-47454819D01*
X99081428Y-47454819D02*
X99176666Y-47454819D01*
X98367142Y-46550057D02*
X98319523Y-46502438D01*
X98319523Y-46502438D02*
X98224285Y-46454819D01*
X98224285Y-46454819D02*
X97986190Y-46454819D01*
X97986190Y-46454819D02*
X97890952Y-46502438D01*
X97890952Y-46502438D02*
X97843333Y-46550057D01*
X97843333Y-46550057D02*
X97795714Y-46645295D01*
X97795714Y-46645295D02*
X97795714Y-46740533D01*
X97795714Y-46740533D02*
X97843333Y-46883390D01*
X97843333Y-46883390D02*
X98414761Y-47454819D01*
X98414761Y-47454819D02*
X97795714Y-47454819D01*
X97176666Y-46454819D02*
X97081428Y-46454819D01*
X97081428Y-46454819D02*
X96986190Y-46502438D01*
X96986190Y-46502438D02*
X96938571Y-46550057D01*
X96938571Y-46550057D02*
X96890952Y-46645295D01*
X96890952Y-46645295D02*
X96843333Y-46835771D01*
X96843333Y-46835771D02*
X96843333Y-47073866D01*
X96843333Y-47073866D02*
X96890952Y-47264342D01*
X96890952Y-47264342D02*
X96938571Y-47359580D01*
X96938571Y-47359580D02*
X96986190Y-47407200D01*
X96986190Y-47407200D02*
X97081428Y-47454819D01*
X97081428Y-47454819D02*
X97176666Y-47454819D01*
X97176666Y-47454819D02*
X97271904Y-47407200D01*
X97271904Y-47407200D02*
X97319523Y-47359580D01*
X97319523Y-47359580D02*
X97367142Y-47264342D01*
X97367142Y-47264342D02*
X97414761Y-47073866D01*
X97414761Y-47073866D02*
X97414761Y-46835771D01*
X97414761Y-46835771D02*
X97367142Y-46645295D01*
X97367142Y-46645295D02*
X97319523Y-46550057D01*
X97319523Y-46550057D02*
X97271904Y-46502438D01*
X97271904Y-46502438D02*
X97176666Y-46454819D01*
X96462380Y-46550057D02*
X96414761Y-46502438D01*
X96414761Y-46502438D02*
X96319523Y-46454819D01*
X96319523Y-46454819D02*
X96081428Y-46454819D01*
X96081428Y-46454819D02*
X95986190Y-46502438D01*
X95986190Y-46502438D02*
X95938571Y-46550057D01*
X95938571Y-46550057D02*
X95890952Y-46645295D01*
X95890952Y-46645295D02*
X95890952Y-46740533D01*
X95890952Y-46740533D02*
X95938571Y-46883390D01*
X95938571Y-46883390D02*
X96509999Y-47454819D01*
X96509999Y-47454819D02*
X95890952Y-47454819D01*
X150905714Y-46454819D02*
X150905714Y-47169104D01*
X150905714Y-47169104D02*
X150953333Y-47311961D01*
X150953333Y-47311961D02*
X151048571Y-47407200D01*
X151048571Y-47407200D02*
X151191428Y-47454819D01*
X151191428Y-47454819D02*
X151286666Y-47454819D01*
X149905714Y-47454819D02*
X150477142Y-47454819D01*
X150191428Y-47454819D02*
X150191428Y-46454819D01*
X150191428Y-46454819D02*
X150286666Y-46597676D01*
X150286666Y-46597676D02*
X150381904Y-46692914D01*
X150381904Y-46692914D02*
X150477142Y-46740533D01*
X149286666Y-46454819D02*
X149191428Y-46454819D01*
X149191428Y-46454819D02*
X149096190Y-46502438D01*
X149096190Y-46502438D02*
X149048571Y-46550057D01*
X149048571Y-46550057D02*
X149000952Y-46645295D01*
X149000952Y-46645295D02*
X148953333Y-46835771D01*
X148953333Y-46835771D02*
X148953333Y-47073866D01*
X148953333Y-47073866D02*
X149000952Y-47264342D01*
X149000952Y-47264342D02*
X149048571Y-47359580D01*
X149048571Y-47359580D02*
X149096190Y-47407200D01*
X149096190Y-47407200D02*
X149191428Y-47454819D01*
X149191428Y-47454819D02*
X149286666Y-47454819D01*
X149286666Y-47454819D02*
X149381904Y-47407200D01*
X149381904Y-47407200D02*
X149429523Y-47359580D01*
X149429523Y-47359580D02*
X149477142Y-47264342D01*
X149477142Y-47264342D02*
X149524761Y-47073866D01*
X149524761Y-47073866D02*
X149524761Y-46835771D01*
X149524761Y-46835771D02*
X149477142Y-46645295D01*
X149477142Y-46645295D02*
X149429523Y-46550057D01*
X149429523Y-46550057D02*
X149381904Y-46502438D01*
X149381904Y-46502438D02*
X149286666Y-46454819D01*
X148048571Y-46454819D02*
X148524761Y-46454819D01*
X148524761Y-46454819D02*
X148572380Y-46931009D01*
X148572380Y-46931009D02*
X148524761Y-46883390D01*
X148524761Y-46883390D02*
X148429523Y-46835771D01*
X148429523Y-46835771D02*
X148191428Y-46835771D01*
X148191428Y-46835771D02*
X148096190Y-46883390D01*
X148096190Y-46883390D02*
X148048571Y-46931009D01*
X148048571Y-46931009D02*
X148000952Y-47026247D01*
X148000952Y-47026247D02*
X148000952Y-47264342D01*
X148000952Y-47264342D02*
X148048571Y-47359580D01*
X148048571Y-47359580D02*
X148096190Y-47407200D01*
X148096190Y-47407200D02*
X148191428Y-47454819D01*
X148191428Y-47454819D02*
X148429523Y-47454819D01*
X148429523Y-47454819D02*
X148524761Y-47407200D01*
X148524761Y-47407200D02*
X148572380Y-47359580D01*
X124850714Y-46454819D02*
X124850714Y-47169104D01*
X124850714Y-47169104D02*
X124898333Y-47311961D01*
X124898333Y-47311961D02*
X124993571Y-47407200D01*
X124993571Y-47407200D02*
X125136428Y-47454819D01*
X125136428Y-47454819D02*
X125231666Y-47454819D01*
X123850714Y-47454819D02*
X124422142Y-47454819D01*
X124136428Y-47454819D02*
X124136428Y-46454819D01*
X124136428Y-46454819D02*
X124231666Y-46597676D01*
X124231666Y-46597676D02*
X124326904Y-46692914D01*
X124326904Y-46692914D02*
X124422142Y-46740533D01*
X123231666Y-46454819D02*
X123136428Y-46454819D01*
X123136428Y-46454819D02*
X123041190Y-46502438D01*
X123041190Y-46502438D02*
X122993571Y-46550057D01*
X122993571Y-46550057D02*
X122945952Y-46645295D01*
X122945952Y-46645295D02*
X122898333Y-46835771D01*
X122898333Y-46835771D02*
X122898333Y-47073866D01*
X122898333Y-47073866D02*
X122945952Y-47264342D01*
X122945952Y-47264342D02*
X122993571Y-47359580D01*
X122993571Y-47359580D02*
X123041190Y-47407200D01*
X123041190Y-47407200D02*
X123136428Y-47454819D01*
X123136428Y-47454819D02*
X123231666Y-47454819D01*
X123231666Y-47454819D02*
X123326904Y-47407200D01*
X123326904Y-47407200D02*
X123374523Y-47359580D01*
X123374523Y-47359580D02*
X123422142Y-47264342D01*
X123422142Y-47264342D02*
X123469761Y-47073866D01*
X123469761Y-47073866D02*
X123469761Y-46835771D01*
X123469761Y-46835771D02*
X123422142Y-46645295D01*
X123422142Y-46645295D02*
X123374523Y-46550057D01*
X123374523Y-46550057D02*
X123326904Y-46502438D01*
X123326904Y-46502438D02*
X123231666Y-46454819D01*
X122564999Y-46454819D02*
X121945952Y-46454819D01*
X121945952Y-46454819D02*
X122279285Y-46835771D01*
X122279285Y-46835771D02*
X122136428Y-46835771D01*
X122136428Y-46835771D02*
X122041190Y-46883390D01*
X122041190Y-46883390D02*
X121993571Y-46931009D01*
X121993571Y-46931009D02*
X121945952Y-47026247D01*
X121945952Y-47026247D02*
X121945952Y-47264342D01*
X121945952Y-47264342D02*
X121993571Y-47359580D01*
X121993571Y-47359580D02*
X122041190Y-47407200D01*
X122041190Y-47407200D02*
X122136428Y-47454819D01*
X122136428Y-47454819D02*
X122422142Y-47454819D01*
X122422142Y-47454819D02*
X122517380Y-47407200D01*
X122517380Y-47407200D02*
X122564999Y-47359580D01*
%TO.C,J107*%
D11*
X181575000Y-68970000D02*
X180575000Y-68470000D01*
X181575000Y-67970000D02*
X181575000Y-68970000D01*
X180575000Y-68470000D02*
X181575000Y-67970000D01*
X180185000Y-127810000D02*
X179815000Y-127810000D01*
X180185000Y-90550000D02*
X178875000Y-90550000D01*
X180185000Y-57390000D02*
X180185000Y-127810000D01*
X179815000Y-57390000D02*
X180185000Y-57390000D01*
X178875000Y-120650000D02*
X178875000Y-94650000D01*
X178875000Y-94650000D02*
X180185000Y-94650000D01*
X178875000Y-90550000D02*
X178875000Y-64550000D01*
X178875000Y-64550000D02*
X172475000Y-64550000D01*
X177985000Y-137310000D02*
X173365000Y-137310000D01*
X177985000Y-129560000D02*
X177985000Y-137310000D01*
X177985000Y-55640000D02*
X177985000Y-47890000D01*
X177985000Y-47890000D02*
X173365000Y-47890000D01*
X173365000Y-137310000D02*
X173365000Y-129560000D01*
X173365000Y-47890000D02*
X173365000Y-55640000D01*
X172475000Y-120650000D02*
X178875000Y-120650000D01*
X172475000Y-64550000D02*
X172475000Y-120650000D01*
X172035000Y-57390000D02*
X171165000Y-57390000D01*
X171165000Y-127810000D02*
X172035000Y-127810000D01*
X171165000Y-57390000D02*
X171165000Y-127810000D01*
%TO.C,J109*%
X207630000Y-68970000D02*
X206630000Y-68470000D01*
X207630000Y-67970000D02*
X207630000Y-68970000D01*
X206630000Y-68470000D02*
X207630000Y-67970000D01*
X206240000Y-127810000D02*
X205870000Y-127810000D01*
X206240000Y-90550000D02*
X204930000Y-90550000D01*
X206240000Y-57390000D02*
X206240000Y-127810000D01*
X205870000Y-57390000D02*
X206240000Y-57390000D01*
X204930000Y-120650000D02*
X204930000Y-94650000D01*
X204930000Y-94650000D02*
X206240000Y-94650000D01*
X204930000Y-90550000D02*
X204930000Y-64550000D01*
X204930000Y-64550000D02*
X198530000Y-64550000D01*
X204040000Y-137310000D02*
X199420000Y-137310000D01*
X204040000Y-129560000D02*
X204040000Y-137310000D01*
X204040000Y-55640000D02*
X204040000Y-47890000D01*
X204040000Y-47890000D02*
X199420000Y-47890000D01*
X199420000Y-137310000D02*
X199420000Y-129560000D01*
X199420000Y-47890000D02*
X199420000Y-55640000D01*
X198530000Y-120650000D02*
X204930000Y-120650000D01*
X198530000Y-64550000D02*
X198530000Y-120650000D01*
X198090000Y-57390000D02*
X197220000Y-57390000D01*
X197220000Y-127810000D02*
X198090000Y-127810000D01*
X197220000Y-57390000D02*
X197220000Y-127810000D01*
%TO.C,J202*%
X93000000Y-57390000D02*
X93000000Y-127810000D01*
X93000000Y-127810000D02*
X93870000Y-127810000D01*
X93870000Y-57390000D02*
X93000000Y-57390000D01*
X94310000Y-64550000D02*
X94310000Y-120650000D01*
X94310000Y-120650000D02*
X100710000Y-120650000D01*
X95200000Y-47890000D02*
X95200000Y-55640000D01*
X95200000Y-137310000D02*
X95200000Y-129560000D01*
X99820000Y-47890000D02*
X95200000Y-47890000D01*
X99820000Y-55640000D02*
X99820000Y-47890000D01*
X99820000Y-129560000D02*
X99820000Y-137310000D01*
X99820000Y-137310000D02*
X95200000Y-137310000D01*
X100710000Y-64550000D02*
X94310000Y-64550000D01*
X100710000Y-90550000D02*
X100710000Y-64550000D01*
X100710000Y-94650000D02*
X102020000Y-94650000D01*
X100710000Y-120650000D02*
X100710000Y-94650000D01*
X101650000Y-57390000D02*
X102020000Y-57390000D01*
X102020000Y-57390000D02*
X102020000Y-127810000D01*
X102020000Y-90550000D02*
X100710000Y-90550000D01*
X102020000Y-127810000D02*
X101650000Y-127810000D01*
X102410000Y-68470000D02*
X103410000Y-67970000D01*
X103410000Y-67970000D02*
X103410000Y-68970000D01*
X103410000Y-68970000D02*
X102410000Y-68470000D01*
%TO.C,J105*%
X155520000Y-68970000D02*
X154520000Y-68470000D01*
X155520000Y-67970000D02*
X155520000Y-68970000D01*
X154520000Y-68470000D02*
X155520000Y-67970000D01*
X154130000Y-127810000D02*
X153760000Y-127810000D01*
X154130000Y-90550000D02*
X152820000Y-90550000D01*
X154130000Y-57390000D02*
X154130000Y-127810000D01*
X153760000Y-57390000D02*
X154130000Y-57390000D01*
X152820000Y-120650000D02*
X152820000Y-94650000D01*
X152820000Y-94650000D02*
X154130000Y-94650000D01*
X152820000Y-90550000D02*
X152820000Y-64550000D01*
X152820000Y-64550000D02*
X146420000Y-64550000D01*
X151930000Y-137310000D02*
X147310000Y-137310000D01*
X151930000Y-129560000D02*
X151930000Y-137310000D01*
X151930000Y-55640000D02*
X151930000Y-47890000D01*
X151930000Y-47890000D02*
X147310000Y-47890000D01*
X147310000Y-137310000D02*
X147310000Y-129560000D01*
X147310000Y-47890000D02*
X147310000Y-55640000D01*
X146420000Y-120650000D02*
X152820000Y-120650000D01*
X146420000Y-64550000D02*
X146420000Y-120650000D01*
X145980000Y-57390000D02*
X145110000Y-57390000D01*
X145110000Y-127810000D02*
X145980000Y-127810000D01*
X145110000Y-57390000D02*
X145110000Y-127810000D01*
%TO.C,J103*%
X129465000Y-68970000D02*
X128465000Y-68470000D01*
X129465000Y-67970000D02*
X129465000Y-68970000D01*
X128465000Y-68470000D02*
X129465000Y-67970000D01*
X128075000Y-127810000D02*
X127705000Y-127810000D01*
X128075000Y-90550000D02*
X126765000Y-90550000D01*
X128075000Y-57390000D02*
X128075000Y-127810000D01*
X127705000Y-57390000D02*
X128075000Y-57390000D01*
X126765000Y-120650000D02*
X126765000Y-94650000D01*
X126765000Y-94650000D02*
X128075000Y-94650000D01*
X126765000Y-90550000D02*
X126765000Y-64550000D01*
X126765000Y-64550000D02*
X120365000Y-64550000D01*
X125875000Y-137310000D02*
X121255000Y-137310000D01*
X125875000Y-129560000D02*
X125875000Y-137310000D01*
X125875000Y-55640000D02*
X125875000Y-47890000D01*
X125875000Y-47890000D02*
X121255000Y-47890000D01*
X121255000Y-137310000D02*
X121255000Y-129560000D01*
X121255000Y-47890000D02*
X121255000Y-55640000D01*
X120365000Y-120650000D02*
X126765000Y-120650000D01*
X120365000Y-64550000D02*
X120365000Y-120650000D01*
X119925000Y-57390000D02*
X119055000Y-57390000D01*
X119055000Y-127810000D02*
X119925000Y-127810000D01*
X119055000Y-57390000D02*
X119055000Y-127810000D01*
%TD*%
M02*
