%TF.GenerationSoftware,KiCad,Pcbnew,9.99.0-unknown-b0b07bbc41~182~ubuntu22.04.1*%
%TF.CreationDate,2025-08-08T10:17:54+02:00*%
%TF.ProjectId,CP70_front_flatcable,43503730-5f66-4726-9f6e-745f666c6174,rev?*%
%TF.SameCoordinates,Original*%
%TF.FileFunction,Copper,L2,Bot*%
%TF.FilePolarity,Positive*%
%FSLAX46Y46*%
G04 Gerber Fmt 4.6, Leading zero omitted, Abs format (unit mm)*
G04 Created by KiCad (PCBNEW 9.99.0-unknown-b0b07bbc41~182~ubuntu22.04.1) date 2025-08-08 10:17:54*
%MOMM*%
%LPD*%
G01*
G04 APERTURE LIST*
G04 Aperture macros list*
%AMRoundRect*
0 Rectangle with rounded corners*
0 $1 Rounding radius*
0 $2 $3 $4 $5 $6 $7 $8 $9 X,Y pos of 4 corners*
0 Add a 4 corners polygon primitive as box body*
4,1,4,$2,$3,$4,$5,$6,$7,$8,$9,$2,$3,0*
0 Add four circle primitives for the rounded corners*
1,1,$1+$1,$2,$3*
1,1,$1+$1,$4,$5*
1,1,$1+$1,$6,$7*
1,1,$1+$1,$8,$9*
0 Add four rect primitives between the rounded corners*
20,1,$1+$1,$2,$3,$4,$5,0*
20,1,$1+$1,$4,$5,$6,$7,0*
20,1,$1+$1,$6,$7,$8,$9,0*
20,1,$1+$1,$8,$9,$2,$3,0*%
G04 Aperture macros list end*
%TA.AperFunction,ComponentPad*%
%ADD10C,0.800000*%
%TD*%
%TA.AperFunction,ComponentPad*%
%ADD11C,6.400000*%
%TD*%
%TA.AperFunction,ComponentPad*%
%ADD12RoundRect,0.250000X-0.600000X-0.600000X0.600000X-0.600000X0.600000X0.600000X-0.600000X0.600000X0*%
%TD*%
%TA.AperFunction,ComponentPad*%
%ADD13C,1.700000*%
%TD*%
%TA.AperFunction,ComponentPad*%
%ADD14C,8.000000*%
%TD*%
%TA.AperFunction,ComponentPad*%
%ADD15RoundRect,0.250000X0.600000X0.600000X-0.600000X0.600000X-0.600000X-0.600000X0.600000X-0.600000X0*%
%TD*%
%TA.AperFunction,ViaPad*%
%ADD16C,0.800000*%
%TD*%
%TA.AperFunction,Conductor*%
%ADD17C,0.430000*%
%TD*%
G04 APERTURE END LIST*
D10*
%TO.P,H106,1,1*%
%TO.N,GNDA*%
X74700000Y-92600000D03*
X75402944Y-90902944D03*
X75402944Y-94297056D03*
X77100000Y-90200000D03*
D11*
X77100000Y-92600000D03*
D10*
X77100000Y-95000000D03*
X78797056Y-90902944D03*
X78797056Y-94297056D03*
X79500000Y-92600000D03*
%TD*%
%TO.P,H105,1,1*%
%TO.N,GNDA*%
X207400000Y-92600000D03*
X208102944Y-90902944D03*
X208102944Y-94297056D03*
X209800000Y-90200000D03*
D11*
X209800000Y-92600000D03*
D10*
X209800000Y-95000000D03*
X211497056Y-90902944D03*
X211497056Y-94297056D03*
X212200000Y-92600000D03*
%TD*%
%TO.P,H104,1,1*%
%TO.N,unconnected-(H104-Pad1)_2*%
X166100000Y-48600000D03*
%TO.N,unconnected-(H104-Pad1)*%
X166802944Y-46902944D03*
%TO.N,unconnected-(H104-Pad1)_3*%
X166802944Y-50297056D03*
%TO.N,unconnected-(H104-Pad1)_6*%
X168500000Y-46200000D03*
D11*
%TO.N,unconnected-(H104-Pad1)_5*%
X168500000Y-48600000D03*
D10*
%TO.N,unconnected-(H104-Pad1)_4*%
X168500000Y-51000000D03*
%TO.N,unconnected-(H104-Pad1)_1*%
X170197056Y-46902944D03*
%TO.N,unconnected-(H104-Pad1)_8*%
X170197056Y-50297056D03*
%TO.N,unconnected-(H104-Pad1)_7*%
X170900000Y-48600000D03*
%TD*%
%TO.P,H103,1,1*%
%TO.N,unconnected-(H103-Pad1)_8*%
X116100000Y-48600000D03*
%TO.N,unconnected-(H103-Pad1)_5*%
X116802944Y-46902944D03*
%TO.N,unconnected-(H103-Pad1)_2*%
X116802944Y-50297056D03*
%TO.N,unconnected-(H103-Pad1)_1*%
X118500000Y-46200000D03*
D11*
%TO.N,unconnected-(H103-Pad1)*%
X118500000Y-48600000D03*
D10*
%TO.N,unconnected-(H103-Pad1)_3*%
X118500000Y-51000000D03*
%TO.N,unconnected-(H103-Pad1)_7*%
X120197056Y-46902944D03*
%TO.N,unconnected-(H103-Pad1)_4*%
X120197056Y-50297056D03*
%TO.N,unconnected-(H103-Pad1)_6*%
X120900000Y-48600000D03*
%TD*%
%TO.P,H102,1,1*%
%TO.N,unconnected-(H102-Pad1)_5*%
X166100000Y-136600000D03*
%TO.N,unconnected-(H102-Pad1)_4*%
X166802944Y-134902944D03*
%TO.N,unconnected-(H102-Pad1)_8*%
X166802944Y-138297056D03*
%TO.N,unconnected-(H102-Pad1)*%
X168500000Y-134200000D03*
D11*
%TO.N,unconnected-(H102-Pad1)_3*%
X168500000Y-136600000D03*
D10*
%TO.N,unconnected-(H102-Pad1)_1*%
X168500000Y-139000000D03*
%TO.N,unconnected-(H102-Pad1)_2*%
X170197056Y-134902944D03*
%TO.N,unconnected-(H102-Pad1)_6*%
X170197056Y-138297056D03*
%TO.N,unconnected-(H102-Pad1)_7*%
X170900000Y-136600000D03*
%TD*%
%TO.P,H101,1,1*%
%TO.N,unconnected-(H101-Pad1)_4*%
X116100000Y-136600000D03*
%TO.N,unconnected-(H101-Pad1)_6*%
X116802944Y-134902944D03*
%TO.N,unconnected-(H101-Pad1)*%
X116802944Y-138297056D03*
%TO.N,unconnected-(H101-Pad1)_3*%
X118500000Y-134200000D03*
D11*
%TO.N,unconnected-(H101-Pad1)_8*%
X118500000Y-136600000D03*
D10*
%TO.N,unconnected-(H101-Pad1)_5*%
X118500000Y-139000000D03*
%TO.N,unconnected-(H101-Pad1)_1*%
X120197056Y-134902944D03*
%TO.N,unconnected-(H101-Pad1)_7*%
X120197056Y-138297056D03*
%TO.N,unconnected-(H101-Pad1)_2*%
X120900000Y-136600000D03*
%TD*%
%TO.P,H204,1,1*%
%TO.N,unconnected-(H204-Pad1)_8*%
X76100000Y-136600000D03*
%TO.N,unconnected-(H204-Pad1)_4*%
X76802944Y-134902944D03*
%TO.N,unconnected-(H204-Pad1)_5*%
X76802944Y-138297056D03*
%TO.N,unconnected-(H204-Pad1)_6*%
X78500000Y-134200000D03*
D11*
%TO.N,unconnected-(H204-Pad1)*%
X78500000Y-136600000D03*
D10*
%TO.N,unconnected-(H204-Pad1)_1*%
X78500000Y-139000000D03*
%TO.N,unconnected-(H204-Pad1)_7*%
X80197056Y-134902944D03*
%TO.N,unconnected-(H204-Pad1)_2*%
X80197056Y-138297056D03*
%TO.N,unconnected-(H204-Pad1)_3*%
X80900000Y-136600000D03*
%TD*%
%TO.P,H203,1,1*%
%TO.N,unconnected-(H203-Pad1)_8*%
X76100000Y-48600000D03*
%TO.N,unconnected-(H203-Pad1)*%
X76802944Y-46902944D03*
%TO.N,unconnected-(H203-Pad1)_1*%
X76802944Y-50297056D03*
%TO.N,unconnected-(H203-Pad1)_4*%
X78500000Y-46200000D03*
D11*
%TO.N,unconnected-(H203-Pad1)_6*%
X78500000Y-48600000D03*
D10*
%TO.N,unconnected-(H203-Pad1)_3*%
X78500000Y-51000000D03*
%TO.N,unconnected-(H203-Pad1)_2*%
X80197056Y-46902944D03*
%TO.N,unconnected-(H203-Pad1)_7*%
X80197056Y-50297056D03*
%TO.N,unconnected-(H203-Pad1)_5*%
X80900000Y-48600000D03*
%TD*%
%TO.P,H202,1,1*%
%TO.N,unconnected-(H202-Pad1)_1*%
X206100000Y-136600000D03*
%TO.N,unconnected-(H202-Pad1)_2*%
X206802944Y-134902944D03*
%TO.N,unconnected-(H202-Pad1)*%
X206802944Y-138297056D03*
%TO.N,unconnected-(H202-Pad1)_5*%
X208500000Y-134200000D03*
D11*
%TO.N,unconnected-(H202-Pad1)_8*%
X208500000Y-136600000D03*
D10*
%TO.N,unconnected-(H202-Pad1)_4*%
X208500000Y-139000000D03*
%TO.N,unconnected-(H202-Pad1)_6*%
X210197056Y-134902944D03*
%TO.N,unconnected-(H202-Pad1)_7*%
X210197056Y-138297056D03*
%TO.N,unconnected-(H202-Pad1)_3*%
X210900000Y-136600000D03*
%TD*%
%TO.P,H201,1,1*%
%TO.N,unconnected-(H201-Pad1)_3*%
X206100000Y-48600000D03*
%TO.N,unconnected-(H201-Pad1)_5*%
X206802944Y-46902944D03*
%TO.N,unconnected-(H201-Pad1)_6*%
X206802944Y-50297056D03*
%TO.N,unconnected-(H201-Pad1)_7*%
X208500000Y-46200000D03*
D11*
%TO.N,unconnected-(H201-Pad1)_8*%
X208500000Y-48600000D03*
D10*
%TO.N,unconnected-(H201-Pad1)_2*%
X208500000Y-51000000D03*
%TO.N,unconnected-(H201-Pad1)_4*%
X210197056Y-46902944D03*
%TO.N,unconnected-(H201-Pad1)*%
X210197056Y-50297056D03*
%TO.N,unconnected-(H201-Pad1)_1*%
X210900000Y-48600000D03*
%TD*%
D12*
%TO.P,J101,1,Pin_1*%
%TO.N,G1-01*%
X84247500Y-68470000D03*
D13*
%TO.P,J101,2,Pin_2*%
%TO.N,G1-21*%
X86787500Y-68470000D03*
%TO.P,J101,3,Pin_3*%
%TO.N,G1-02*%
X84247500Y-71010000D03*
%TO.P,J101,4,Pin_4*%
%TO.N,G1-22*%
X86787500Y-71010000D03*
%TO.P,J101,5,Pin_5*%
%TO.N,G1-03*%
X84247500Y-73550000D03*
%TO.P,J101,6,Pin_6*%
%TO.N,G1-23*%
X86787500Y-73550000D03*
%TO.P,J101,7,Pin_7*%
%TO.N,G1-04*%
X84247500Y-76090000D03*
%TO.P,J101,8,Pin_8*%
%TO.N,G1-24*%
X86787500Y-76090000D03*
%TO.P,J101,9,Pin_9*%
%TO.N,G1-05*%
X84247500Y-78630000D03*
%TO.P,J101,10,Pin_10*%
%TO.N,G1-25*%
X86787500Y-78630000D03*
%TO.P,J101,11,Pin_11*%
%TO.N,G1-06*%
X84247500Y-81170000D03*
%TO.P,J101,12,Pin_12*%
%TO.N,G1-26*%
X86787500Y-81170000D03*
%TO.P,J101,13,Pin_13*%
%TO.N,G1-07*%
X84247500Y-83710000D03*
%TO.P,J101,14,Pin_14*%
%TO.N,G1-27*%
X86787500Y-83710000D03*
%TO.P,J101,15,Pin_15*%
%TO.N,G1-08*%
X84247500Y-86250000D03*
%TO.P,J101,16,Pin_16*%
%TO.N,G1-28*%
X86787500Y-86250000D03*
%TO.P,J101,17,Pin_17*%
%TO.N,G1-09*%
X84247500Y-88790000D03*
%TO.P,J101,18,Pin_18*%
%TO.N,G1-29*%
X86787500Y-88790000D03*
%TO.P,J101,19,Pin_19*%
%TO.N,G1-10*%
X84247500Y-91330000D03*
%TO.P,J101,20,Pin_20*%
%TO.N,G1-30*%
X86787500Y-91330000D03*
%TO.P,J101,21,Pin_21*%
%TO.N,G1-11*%
X84247500Y-93870000D03*
%TO.P,J101,22,Pin_22*%
%TO.N,G1-31*%
X86787500Y-93870000D03*
%TO.P,J101,23,Pin_23*%
%TO.N,G1-12*%
X84247500Y-96410000D03*
%TO.P,J101,24,Pin_24*%
%TO.N,G1-32*%
X86787500Y-96410000D03*
%TO.P,J101,25,Pin_25*%
%TO.N,G1-13*%
X84247500Y-98950000D03*
%TO.P,J101,26,Pin_26*%
%TO.N,G1-33*%
X86787500Y-98950000D03*
%TO.P,J101,27,Pin_27*%
%TO.N,G1-14*%
X84247500Y-101490000D03*
%TO.P,J101,28,Pin_28*%
%TO.N,G1-34*%
X86787500Y-101490000D03*
%TO.P,J101,29,Pin_29*%
%TO.N,G1-15*%
X84247500Y-104030000D03*
%TO.P,J101,30,Pin_30*%
%TO.N,G1-35*%
X86787500Y-104030000D03*
%TO.P,J101,31,Pin_31*%
%TO.N,G1-16*%
X84247500Y-106570000D03*
%TO.P,J101,32,Pin_32*%
%TO.N,G1-36*%
X86787500Y-106570000D03*
%TO.P,J101,33,Pin_33*%
%TO.N,G1-17*%
X84247500Y-109110000D03*
%TO.P,J101,34,Pin_34*%
%TO.N,G1-37*%
X86787500Y-109110000D03*
%TO.P,J101,35,Pin_35*%
%TO.N,G1-18*%
X84247500Y-111650000D03*
%TO.P,J101,36,Pin_36*%
%TO.N,G1-38*%
X86787500Y-111650000D03*
%TO.P,J101,37,Pin_37*%
%TO.N,G1-19*%
X84247500Y-114190000D03*
%TO.P,J101,38,Pin_38*%
%TO.N,G1-39*%
X86787500Y-114190000D03*
%TO.P,J101,39,Pin_39*%
%TO.N,G1-20*%
X84247500Y-116730000D03*
%TO.P,J101,40,Pin_40*%
%TO.N,G1-40*%
X86787500Y-116730000D03*
D14*
%TO.P,J101,MP*%
%TO.N,N/C*%
X85267500Y-59530000D03*
X85267500Y-125670000D03*
%TD*%
D12*
%TO.P,J102,1,Pin_1*%
%TO.N,G2-01*%
X110302500Y-68470000D03*
D13*
%TO.P,J102,2,Pin_2*%
%TO.N,G2-21*%
X112842500Y-68470000D03*
%TO.P,J102,3,Pin_3*%
%TO.N,G2-02*%
X110302500Y-71010000D03*
%TO.P,J102,4,Pin_4*%
%TO.N,G2-22*%
X112842500Y-71010000D03*
%TO.P,J102,5,Pin_5*%
%TO.N,G2-03*%
X110302500Y-73550000D03*
%TO.P,J102,6,Pin_6*%
%TO.N,G2-23*%
X112842500Y-73550000D03*
%TO.P,J102,7,Pin_7*%
%TO.N,G2-04*%
X110302500Y-76090000D03*
%TO.P,J102,8,Pin_8*%
%TO.N,G2-24*%
X112842500Y-76090000D03*
%TO.P,J102,9,Pin_9*%
%TO.N,G2-05*%
X110302500Y-78630000D03*
%TO.P,J102,10,Pin_10*%
%TO.N,G2-25*%
X112842500Y-78630000D03*
%TO.P,J102,11,Pin_11*%
%TO.N,G2-06*%
X110302500Y-81170000D03*
%TO.P,J102,12,Pin_12*%
%TO.N,G2-26*%
X112842500Y-81170000D03*
%TO.P,J102,13,Pin_13*%
%TO.N,G2-07*%
X110302500Y-83710000D03*
%TO.P,J102,14,Pin_14*%
%TO.N,G2-27*%
X112842500Y-83710000D03*
%TO.P,J102,15,Pin_15*%
%TO.N,G2-08*%
X110302500Y-86250000D03*
%TO.P,J102,16,Pin_16*%
%TO.N,G2-28*%
X112842500Y-86250000D03*
%TO.P,J102,17,Pin_17*%
%TO.N,G2-09*%
X110302500Y-88790000D03*
%TO.P,J102,18,Pin_18*%
%TO.N,G2-29*%
X112842500Y-88790000D03*
%TO.P,J102,19,Pin_19*%
%TO.N,G2-10*%
X110302500Y-91330000D03*
%TO.P,J102,20,Pin_20*%
%TO.N,G2-30*%
X112842500Y-91330000D03*
%TO.P,J102,21,Pin_21*%
%TO.N,G2-11*%
X110302500Y-93870000D03*
%TO.P,J102,22,Pin_22*%
%TO.N,G2-31*%
X112842500Y-93870000D03*
%TO.P,J102,23,Pin_23*%
%TO.N,G2-12*%
X110302500Y-96410000D03*
%TO.P,J102,24,Pin_24*%
%TO.N,G2-32*%
X112842500Y-96410000D03*
%TO.P,J102,25,Pin_25*%
%TO.N,G2-13*%
X110302500Y-98950000D03*
%TO.P,J102,26,Pin_26*%
%TO.N,G2-33*%
X112842500Y-98950000D03*
%TO.P,J102,27,Pin_27*%
%TO.N,G2-14*%
X110302500Y-101490000D03*
%TO.P,J102,28,Pin_28*%
%TO.N,G2-34*%
X112842500Y-101490000D03*
%TO.P,J102,29,Pin_29*%
%TO.N,G2-15*%
X110302500Y-104030000D03*
%TO.P,J102,30,Pin_30*%
%TO.N,G2-35*%
X112842500Y-104030000D03*
%TO.P,J102,31,Pin_31*%
%TO.N,G2-16*%
X110302500Y-106570000D03*
%TO.P,J102,32,Pin_32*%
%TO.N,G2-36*%
X112842500Y-106570000D03*
%TO.P,J102,33,Pin_33*%
%TO.N,G2-17*%
X110302500Y-109110000D03*
%TO.P,J102,34,Pin_34*%
%TO.N,G2-37*%
X112842500Y-109110000D03*
%TO.P,J102,35,Pin_35*%
%TO.N,G2-18*%
X110302500Y-111650000D03*
%TO.P,J102,36,Pin_36*%
%TO.N,G2-38*%
X112842500Y-111650000D03*
%TO.P,J102,37,Pin_37*%
%TO.N,G2-19*%
X110302500Y-114190000D03*
%TO.P,J102,38,Pin_38*%
%TO.N,G2-39*%
X112842500Y-114190000D03*
%TO.P,J102,39,Pin_39*%
%TO.N,G2-20*%
X110302500Y-116730000D03*
%TO.P,J102,40,Pin_40*%
%TO.N,G2-40*%
X112842500Y-116730000D03*
D14*
%TO.P,J102,MP*%
%TO.N,N/C*%
X111322500Y-59530000D03*
X111322500Y-125670000D03*
%TD*%
D12*
%TO.P,J108,1,Pin_1*%
%TO.N,G5-01*%
X188467500Y-68470000D03*
D13*
%TO.P,J108,2,Pin_2*%
%TO.N,G5-21*%
X191007500Y-68470000D03*
%TO.P,J108,3,Pin_3*%
%TO.N,G5-02*%
X188467500Y-71010000D03*
%TO.P,J108,4,Pin_4*%
%TO.N,G5-22*%
X191007500Y-71010000D03*
%TO.P,J108,5,Pin_5*%
%TO.N,G5-03*%
X188467500Y-73550000D03*
%TO.P,J108,6,Pin_6*%
%TO.N,G5-23*%
X191007500Y-73550000D03*
%TO.P,J108,7,Pin_7*%
%TO.N,G5-04*%
X188467500Y-76090000D03*
%TO.P,J108,8,Pin_8*%
%TO.N,G5-24*%
X191007500Y-76090000D03*
%TO.P,J108,9,Pin_9*%
%TO.N,G5-05*%
X188467500Y-78630000D03*
%TO.P,J108,10,Pin_10*%
%TO.N,G5-25*%
X191007500Y-78630000D03*
%TO.P,J108,11,Pin_11*%
%TO.N,G5-06*%
X188467500Y-81170000D03*
%TO.P,J108,12,Pin_12*%
%TO.N,G5-26*%
X191007500Y-81170000D03*
%TO.P,J108,13,Pin_13*%
%TO.N,G5-07*%
X188467500Y-83710000D03*
%TO.P,J108,14,Pin_14*%
%TO.N,G5-27*%
X191007500Y-83710000D03*
%TO.P,J108,15,Pin_15*%
%TO.N,G5-08*%
X188467500Y-86250000D03*
%TO.P,J108,16,Pin_16*%
%TO.N,G5-28*%
X191007500Y-86250000D03*
%TO.P,J108,17,Pin_17*%
%TO.N,G5-09*%
X188467500Y-88790000D03*
%TO.P,J108,18,Pin_18*%
%TO.N,G5-29*%
X191007500Y-88790000D03*
%TO.P,J108,19,Pin_19*%
%TO.N,G5-10*%
X188467500Y-91330000D03*
%TO.P,J108,20,Pin_20*%
%TO.N,G5-30*%
X191007500Y-91330000D03*
%TO.P,J108,21,Pin_21*%
%TO.N,G5-11*%
X188467500Y-93870000D03*
%TO.P,J108,22,Pin_22*%
%TO.N,G5-31*%
X191007500Y-93870000D03*
%TO.P,J108,23,Pin_23*%
%TO.N,G5-12*%
X188467500Y-96410000D03*
%TO.P,J108,24,Pin_24*%
%TO.N,G5-32*%
X191007500Y-96410000D03*
%TO.P,J108,25,Pin_25*%
%TO.N,G5-13*%
X188467500Y-98950000D03*
%TO.P,J108,26,Pin_26*%
%TO.N,G5-33*%
X191007500Y-98950000D03*
%TO.P,J108,27,Pin_27*%
%TO.N,G5-14*%
X188467500Y-101490000D03*
%TO.P,J108,28,Pin_28*%
%TO.N,G5-34*%
X191007500Y-101490000D03*
%TO.P,J108,29,Pin_29*%
%TO.N,G5-15*%
X188467500Y-104030000D03*
%TO.P,J108,30,Pin_30*%
%TO.N,G5-35*%
X191007500Y-104030000D03*
%TO.P,J108,31,Pin_31*%
%TO.N,G5-16*%
X188467500Y-106570000D03*
%TO.P,J108,32,Pin_32*%
%TO.N,G5-36*%
X191007500Y-106570000D03*
%TO.P,J108,33,Pin_33*%
%TO.N,G5-17*%
X188467500Y-109110000D03*
%TO.P,J108,34,Pin_34*%
%TO.N,G5-37*%
X191007500Y-109110000D03*
%TO.P,J108,35,Pin_35*%
%TO.N,G5-18*%
X188467500Y-111650000D03*
%TO.P,J108,36,Pin_36*%
%TO.N,G5-38*%
X191007500Y-111650000D03*
%TO.P,J108,37,Pin_37*%
%TO.N,G5-19*%
X188467500Y-114190000D03*
%TO.P,J108,38,Pin_38*%
%TO.N,G5-39*%
X191007500Y-114190000D03*
%TO.P,J108,39,Pin_39*%
%TO.N,G5-20*%
X188467500Y-116730000D03*
%TO.P,J108,40,Pin_40*%
%TO.N,G5-40*%
X191007500Y-116730000D03*
D14*
%TO.P,J108,MP*%
%TO.N,N/C*%
X189487500Y-59530000D03*
X189487500Y-125670000D03*
%TD*%
D12*
%TO.P,J106,1,Pin_1*%
%TO.N,G4-01*%
X162412500Y-68470000D03*
D13*
%TO.P,J106,2,Pin_2*%
%TO.N,G4-21*%
X164952500Y-68470000D03*
%TO.P,J106,3,Pin_3*%
%TO.N,G4-02*%
X162412500Y-71010000D03*
%TO.P,J106,4,Pin_4*%
%TO.N,G4-22*%
X164952500Y-71010000D03*
%TO.P,J106,5,Pin_5*%
%TO.N,G4-03*%
X162412500Y-73550000D03*
%TO.P,J106,6,Pin_6*%
%TO.N,G4-23*%
X164952500Y-73550000D03*
%TO.P,J106,7,Pin_7*%
%TO.N,G4-04*%
X162412500Y-76090000D03*
%TO.P,J106,8,Pin_8*%
%TO.N,G4-24*%
X164952500Y-76090000D03*
%TO.P,J106,9,Pin_9*%
%TO.N,G4-05*%
X162412500Y-78630000D03*
%TO.P,J106,10,Pin_10*%
%TO.N,G4-25*%
X164952500Y-78630000D03*
%TO.P,J106,11,Pin_11*%
%TO.N,G4-06*%
X162412500Y-81170000D03*
%TO.P,J106,12,Pin_12*%
%TO.N,G4-26*%
X164952500Y-81170000D03*
%TO.P,J106,13,Pin_13*%
%TO.N,G4-07*%
X162412500Y-83710000D03*
%TO.P,J106,14,Pin_14*%
%TO.N,G4-27*%
X164952500Y-83710000D03*
%TO.P,J106,15,Pin_15*%
%TO.N,G4-08*%
X162412500Y-86250000D03*
%TO.P,J106,16,Pin_16*%
%TO.N,G4-28*%
X164952500Y-86250000D03*
%TO.P,J106,17,Pin_17*%
%TO.N,G4-09*%
X162412500Y-88790000D03*
%TO.P,J106,18,Pin_18*%
%TO.N,G4-29*%
X164952500Y-88790000D03*
%TO.P,J106,19,Pin_19*%
%TO.N,G4-10*%
X162412500Y-91330000D03*
%TO.P,J106,20,Pin_20*%
%TO.N,G4-30*%
X164952500Y-91330000D03*
%TO.P,J106,21,Pin_21*%
%TO.N,G4-11*%
X162412500Y-93870000D03*
%TO.P,J106,22,Pin_22*%
%TO.N,G4-31*%
X164952500Y-93870000D03*
%TO.P,J106,23,Pin_23*%
%TO.N,G4-12*%
X162412500Y-96410000D03*
%TO.P,J106,24,Pin_24*%
%TO.N,G4-32*%
X164952500Y-96410000D03*
%TO.P,J106,25,Pin_25*%
%TO.N,G4-13*%
X162412500Y-98950000D03*
%TO.P,J106,26,Pin_26*%
%TO.N,G4-33*%
X164952500Y-98950000D03*
%TO.P,J106,27,Pin_27*%
%TO.N,G4-14*%
X162412500Y-101490000D03*
%TO.P,J106,28,Pin_28*%
%TO.N,G4-34*%
X164952500Y-101490000D03*
%TO.P,J106,29,Pin_29*%
%TO.N,G4-15*%
X162412500Y-104030000D03*
%TO.P,J106,30,Pin_30*%
%TO.N,G4-35*%
X164952500Y-104030000D03*
%TO.P,J106,31,Pin_31*%
%TO.N,G4-16*%
X162412500Y-106570000D03*
%TO.P,J106,32,Pin_32*%
%TO.N,G4-36*%
X164952500Y-106570000D03*
%TO.P,J106,33,Pin_33*%
%TO.N,G4-17*%
X162412500Y-109110000D03*
%TO.P,J106,34,Pin_34*%
%TO.N,G4-37*%
X164952500Y-109110000D03*
%TO.P,J106,35,Pin_35*%
%TO.N,G4-18*%
X162412500Y-111650000D03*
%TO.P,J106,36,Pin_36*%
%TO.N,G4-38*%
X164952500Y-111650000D03*
%TO.P,J106,37,Pin_37*%
%TO.N,G4-19*%
X162412500Y-114190000D03*
%TO.P,J106,38,Pin_38*%
%TO.N,G4-39*%
X164952500Y-114190000D03*
%TO.P,J106,39,Pin_39*%
%TO.N,G4-20*%
X162412500Y-116730000D03*
%TO.P,J106,40,Pin_40*%
%TO.N,G4-40*%
X164952500Y-116730000D03*
D14*
%TO.P,J106,MP*%
%TO.N,N/C*%
X163432500Y-59530000D03*
X163432500Y-125670000D03*
%TD*%
D12*
%TO.P,J104,1,Pin_1*%
%TO.N,G3-01*%
X136357500Y-68470000D03*
D13*
%TO.P,J104,2,Pin_2*%
%TO.N,G3-21*%
X138897500Y-68470000D03*
%TO.P,J104,3,Pin_3*%
%TO.N,G3-02*%
X136357500Y-71010000D03*
%TO.P,J104,4,Pin_4*%
%TO.N,G3-22*%
X138897500Y-71010000D03*
%TO.P,J104,5,Pin_5*%
%TO.N,G3-03*%
X136357500Y-73550000D03*
%TO.P,J104,6,Pin_6*%
%TO.N,G3-23*%
X138897500Y-73550000D03*
%TO.P,J104,7,Pin_7*%
%TO.N,G3-04*%
X136357500Y-76090000D03*
%TO.P,J104,8,Pin_8*%
%TO.N,G3-24*%
X138897500Y-76090000D03*
%TO.P,J104,9,Pin_9*%
%TO.N,G3-05*%
X136357500Y-78630000D03*
%TO.P,J104,10,Pin_10*%
%TO.N,G3-25*%
X138897500Y-78630000D03*
%TO.P,J104,11,Pin_11*%
%TO.N,G3-06*%
X136357500Y-81170000D03*
%TO.P,J104,12,Pin_12*%
%TO.N,G3-26*%
X138897500Y-81170000D03*
%TO.P,J104,13,Pin_13*%
%TO.N,G3-07*%
X136357500Y-83710000D03*
%TO.P,J104,14,Pin_14*%
%TO.N,G3-27*%
X138897500Y-83710000D03*
%TO.P,J104,15,Pin_15*%
%TO.N,G3-08*%
X136357500Y-86250000D03*
%TO.P,J104,16,Pin_16*%
%TO.N,G3-28*%
X138897500Y-86250000D03*
%TO.P,J104,17,Pin_17*%
%TO.N,G3-09*%
X136357500Y-88790000D03*
%TO.P,J104,18,Pin_18*%
%TO.N,G3-29*%
X138897500Y-88790000D03*
%TO.P,J104,19,Pin_19*%
%TO.N,G3-10*%
X136357500Y-91330000D03*
%TO.P,J104,20,Pin_20*%
%TO.N,G3-30*%
X138897500Y-91330000D03*
%TO.P,J104,21,Pin_21*%
%TO.N,G3-11*%
X136357500Y-93870000D03*
%TO.P,J104,22,Pin_22*%
%TO.N,G3-31*%
X138897500Y-93870000D03*
%TO.P,J104,23,Pin_23*%
%TO.N,G3-12*%
X136357500Y-96410000D03*
%TO.P,J104,24,Pin_24*%
%TO.N,G3-32*%
X138897500Y-96410000D03*
%TO.P,J104,25,Pin_25*%
%TO.N,G3-13*%
X136357500Y-98950000D03*
%TO.P,J104,26,Pin_26*%
%TO.N,G3-33*%
X138897500Y-98950000D03*
%TO.P,J104,27,Pin_27*%
%TO.N,G3-14*%
X136357500Y-101490000D03*
%TO.P,J104,28,Pin_28*%
%TO.N,G3-34*%
X138897500Y-101490000D03*
%TO.P,J104,29,Pin_29*%
%TO.N,G3-15*%
X136357500Y-104030000D03*
%TO.P,J104,30,Pin_30*%
%TO.N,G3-35*%
X138897500Y-104030000D03*
%TO.P,J104,31,Pin_31*%
%TO.N,G3-16*%
X136357500Y-106570000D03*
%TO.P,J104,32,Pin_32*%
%TO.N,G3-36*%
X138897500Y-106570000D03*
%TO.P,J104,33,Pin_33*%
%TO.N,G3-17*%
X136357500Y-109110000D03*
%TO.P,J104,34,Pin_34*%
%TO.N,G3-37*%
X138897500Y-109110000D03*
%TO.P,J104,35,Pin_35*%
%TO.N,G3-18*%
X136357500Y-111650000D03*
%TO.P,J104,36,Pin_36*%
%TO.N,G3-38*%
X138897500Y-111650000D03*
%TO.P,J104,37,Pin_37*%
%TO.N,G3-19*%
X136357500Y-114190000D03*
%TO.P,J104,38,Pin_38*%
%TO.N,G3-39*%
X138897500Y-114190000D03*
%TO.P,J104,39,Pin_39*%
%TO.N,G3-20*%
X136357500Y-116730000D03*
%TO.P,J104,40,Pin_40*%
%TO.N,G3-40*%
X138897500Y-116730000D03*
D14*
%TO.P,J104,MP*%
%TO.N,N/C*%
X137377500Y-59530000D03*
X137377500Y-125670000D03*
%TD*%
D15*
%TO.P,J107,1,Pin_1*%
%TO.N,G4-01*%
X176945000Y-68470000D03*
D13*
%TO.P,J107,2,Pin_2*%
%TO.N,G4-21*%
X174405000Y-68470000D03*
%TO.P,J107,3,Pin_3*%
%TO.N,G4-02*%
X176945000Y-71010000D03*
%TO.P,J107,4,Pin_4*%
%TO.N,G4-22*%
X174405000Y-71010000D03*
%TO.P,J107,5,Pin_5*%
%TO.N,G4-03*%
X176945000Y-73550000D03*
%TO.P,J107,6,Pin_6*%
%TO.N,G4-23*%
X174405000Y-73550000D03*
%TO.P,J107,7,Pin_7*%
%TO.N,G4-04*%
X176945000Y-76090000D03*
%TO.P,J107,8,Pin_8*%
%TO.N,G4-24*%
X174405000Y-76090000D03*
%TO.P,J107,9,Pin_9*%
%TO.N,G4-05*%
X176945000Y-78630000D03*
%TO.P,J107,10,Pin_10*%
%TO.N,G4-25*%
X174405000Y-78630000D03*
%TO.P,J107,11,Pin_11*%
%TO.N,G4-06*%
X176945000Y-81170000D03*
%TO.P,J107,12,Pin_12*%
%TO.N,G4-26*%
X174405000Y-81170000D03*
%TO.P,J107,13,Pin_13*%
%TO.N,G4-07*%
X176945000Y-83710000D03*
%TO.P,J107,14,Pin_14*%
%TO.N,G4-27*%
X174405000Y-83710000D03*
%TO.P,J107,15,Pin_15*%
%TO.N,G4-08*%
X176945000Y-86250000D03*
%TO.P,J107,16,Pin_16*%
%TO.N,G4-28*%
X174405000Y-86250000D03*
%TO.P,J107,17,Pin_17*%
%TO.N,G4-09*%
X176945000Y-88790000D03*
%TO.P,J107,18,Pin_18*%
%TO.N,G4-29*%
X174405000Y-88790000D03*
%TO.P,J107,19,Pin_19*%
%TO.N,G4-10*%
X176945000Y-91330000D03*
%TO.P,J107,20,Pin_20*%
%TO.N,G4-30*%
X174405000Y-91330000D03*
%TO.P,J107,21,Pin_21*%
%TO.N,G4-11*%
X176945000Y-93870000D03*
%TO.P,J107,22,Pin_22*%
%TO.N,G4-31*%
X174405000Y-93870000D03*
%TO.P,J107,23,Pin_23*%
%TO.N,G4-12*%
X176945000Y-96410000D03*
%TO.P,J107,24,Pin_24*%
%TO.N,G4-32*%
X174405000Y-96410000D03*
%TO.P,J107,25,Pin_25*%
%TO.N,G4-13*%
X176945000Y-98950000D03*
%TO.P,J107,26,Pin_26*%
%TO.N,G4-33*%
X174405000Y-98950000D03*
%TO.P,J107,27,Pin_27*%
%TO.N,G4-14*%
X176945000Y-101490000D03*
%TO.P,J107,28,Pin_28*%
%TO.N,G4-34*%
X174405000Y-101490000D03*
%TO.P,J107,29,Pin_29*%
%TO.N,G4-15*%
X176945000Y-104030000D03*
%TO.P,J107,30,Pin_30*%
%TO.N,G4-35*%
X174405000Y-104030000D03*
%TO.P,J107,31,Pin_31*%
%TO.N,G4-16*%
X176945000Y-106570000D03*
%TO.P,J107,32,Pin_32*%
%TO.N,G4-36*%
X174405000Y-106570000D03*
%TO.P,J107,33,Pin_33*%
%TO.N,G4-17*%
X176945000Y-109110000D03*
%TO.P,J107,34,Pin_34*%
%TO.N,G4-37*%
X174405000Y-109110000D03*
%TO.P,J107,35,Pin_35*%
%TO.N,G4-18*%
X176945000Y-111650000D03*
%TO.P,J107,36,Pin_36*%
%TO.N,G4-38*%
X174405000Y-111650000D03*
%TO.P,J107,37,Pin_37*%
%TO.N,G4-19*%
X176945000Y-114190000D03*
%TO.P,J107,38,Pin_38*%
%TO.N,G4-39*%
X174405000Y-114190000D03*
%TO.P,J107,39,Pin_39*%
%TO.N,G4-20*%
X176945000Y-116730000D03*
%TO.P,J107,40,Pin_40*%
%TO.N,G4-40*%
X174405000Y-116730000D03*
D14*
%TO.P,J107,MP*%
%TO.N,N/C*%
X175925000Y-125670000D03*
X175925000Y-59530000D03*
%TD*%
D15*
%TO.P,J109,1,Pin_1*%
%TO.N,G5-01*%
X203000000Y-68470000D03*
D13*
%TO.P,J109,2,Pin_2*%
%TO.N,G5-21*%
X200460000Y-68470000D03*
%TO.P,J109,3,Pin_3*%
%TO.N,G5-02*%
X203000000Y-71010000D03*
%TO.P,J109,4,Pin_4*%
%TO.N,G5-22*%
X200460000Y-71010000D03*
%TO.P,J109,5,Pin_5*%
%TO.N,G5-03*%
X203000000Y-73550000D03*
%TO.P,J109,6,Pin_6*%
%TO.N,G5-23*%
X200460000Y-73550000D03*
%TO.P,J109,7,Pin_7*%
%TO.N,G5-04*%
X203000000Y-76090000D03*
%TO.P,J109,8,Pin_8*%
%TO.N,G5-24*%
X200460000Y-76090000D03*
%TO.P,J109,9,Pin_9*%
%TO.N,G5-05*%
X203000000Y-78630000D03*
%TO.P,J109,10,Pin_10*%
%TO.N,G5-25*%
X200460000Y-78630000D03*
%TO.P,J109,11,Pin_11*%
%TO.N,G5-06*%
X203000000Y-81170000D03*
%TO.P,J109,12,Pin_12*%
%TO.N,G5-26*%
X200460000Y-81170000D03*
%TO.P,J109,13,Pin_13*%
%TO.N,G5-07*%
X203000000Y-83710000D03*
%TO.P,J109,14,Pin_14*%
%TO.N,G5-27*%
X200460000Y-83710000D03*
%TO.P,J109,15,Pin_15*%
%TO.N,G5-08*%
X203000000Y-86250000D03*
%TO.P,J109,16,Pin_16*%
%TO.N,G5-28*%
X200460000Y-86250000D03*
%TO.P,J109,17,Pin_17*%
%TO.N,G5-09*%
X203000000Y-88790000D03*
%TO.P,J109,18,Pin_18*%
%TO.N,G5-29*%
X200460000Y-88790000D03*
%TO.P,J109,19,Pin_19*%
%TO.N,G5-10*%
X203000000Y-91330000D03*
%TO.P,J109,20,Pin_20*%
%TO.N,G5-30*%
X200460000Y-91330000D03*
%TO.P,J109,21,Pin_21*%
%TO.N,G5-11*%
X203000000Y-93870000D03*
%TO.P,J109,22,Pin_22*%
%TO.N,G5-31*%
X200460000Y-93870000D03*
%TO.P,J109,23,Pin_23*%
%TO.N,G5-12*%
X203000000Y-96410000D03*
%TO.P,J109,24,Pin_24*%
%TO.N,G5-32*%
X200460000Y-96410000D03*
%TO.P,J109,25,Pin_25*%
%TO.N,G5-13*%
X203000000Y-98950000D03*
%TO.P,J109,26,Pin_26*%
%TO.N,G5-33*%
X200460000Y-98950000D03*
%TO.P,J109,27,Pin_27*%
%TO.N,G5-14*%
X203000000Y-101490000D03*
%TO.P,J109,28,Pin_28*%
%TO.N,G5-34*%
X200460000Y-101490000D03*
%TO.P,J109,29,Pin_29*%
%TO.N,G5-15*%
X203000000Y-104030000D03*
%TO.P,J109,30,Pin_30*%
%TO.N,G5-35*%
X200460000Y-104030000D03*
%TO.P,J109,31,Pin_31*%
%TO.N,G5-16*%
X203000000Y-106570000D03*
%TO.P,J109,32,Pin_32*%
%TO.N,G5-36*%
X200460000Y-106570000D03*
%TO.P,J109,33,Pin_33*%
%TO.N,G5-17*%
X203000000Y-109110000D03*
%TO.P,J109,34,Pin_34*%
%TO.N,G5-37*%
X200460000Y-109110000D03*
%TO.P,J109,35,Pin_35*%
%TO.N,G5-18*%
X203000000Y-111650000D03*
%TO.P,J109,36,Pin_36*%
%TO.N,G5-38*%
X200460000Y-111650000D03*
%TO.P,J109,37,Pin_37*%
%TO.N,G5-19*%
X203000000Y-114190000D03*
%TO.P,J109,38,Pin_38*%
%TO.N,G5-39*%
X200460000Y-114190000D03*
%TO.P,J109,39,Pin_39*%
%TO.N,G5-20*%
X203000000Y-116730000D03*
%TO.P,J109,40,Pin_40*%
%TO.N,G5-40*%
X200460000Y-116730000D03*
D14*
%TO.P,J109,MP*%
%TO.N,N/C*%
X201980000Y-125670000D03*
X201980000Y-59530000D03*
%TD*%
D15*
%TO.P,J202,1,Pin_1*%
%TO.N,G1-01*%
X98780000Y-68470000D03*
D13*
%TO.P,J202,2,Pin_2*%
%TO.N,G1-21*%
X96240000Y-68470000D03*
%TO.P,J202,3,Pin_3*%
%TO.N,G1-02*%
X98780000Y-71010000D03*
%TO.P,J202,4,Pin_4*%
%TO.N,G1-22*%
X96240000Y-71010000D03*
%TO.P,J202,5,Pin_5*%
%TO.N,G1-03*%
X98780000Y-73550000D03*
%TO.P,J202,6,Pin_6*%
%TO.N,G1-23*%
X96240000Y-73550000D03*
%TO.P,J202,7,Pin_7*%
%TO.N,G1-04*%
X98780000Y-76090000D03*
%TO.P,J202,8,Pin_8*%
%TO.N,G1-24*%
X96240000Y-76090000D03*
%TO.P,J202,9,Pin_9*%
%TO.N,G1-05*%
X98780000Y-78630000D03*
%TO.P,J202,10,Pin_10*%
%TO.N,G1-25*%
X96240000Y-78630000D03*
%TO.P,J202,11,Pin_11*%
%TO.N,G1-06*%
X98780000Y-81170000D03*
%TO.P,J202,12,Pin_12*%
%TO.N,G1-26*%
X96240000Y-81170000D03*
%TO.P,J202,13,Pin_13*%
%TO.N,G1-07*%
X98780000Y-83710000D03*
%TO.P,J202,14,Pin_14*%
%TO.N,G1-27*%
X96240000Y-83710000D03*
%TO.P,J202,15,Pin_15*%
%TO.N,G1-08*%
X98780000Y-86250000D03*
%TO.P,J202,16,Pin_16*%
%TO.N,G1-28*%
X96240000Y-86250000D03*
%TO.P,J202,17,Pin_17*%
%TO.N,G1-09*%
X98780000Y-88790000D03*
%TO.P,J202,18,Pin_18*%
%TO.N,G1-29*%
X96240000Y-88790000D03*
%TO.P,J202,19,Pin_19*%
%TO.N,G1-10*%
X98780000Y-91330000D03*
%TO.P,J202,20,Pin_20*%
%TO.N,G1-30*%
X96240000Y-91330000D03*
%TO.P,J202,21,Pin_21*%
%TO.N,G1-11*%
X98780000Y-93870000D03*
%TO.P,J202,22,Pin_22*%
%TO.N,G1-31*%
X96240000Y-93870000D03*
%TO.P,J202,23,Pin_23*%
%TO.N,G1-12*%
X98780000Y-96410000D03*
%TO.P,J202,24,Pin_24*%
%TO.N,G1-32*%
X96240000Y-96410000D03*
%TO.P,J202,25,Pin_25*%
%TO.N,G1-13*%
X98780000Y-98950000D03*
%TO.P,J202,26,Pin_26*%
%TO.N,G1-33*%
X96240000Y-98950000D03*
%TO.P,J202,27,Pin_27*%
%TO.N,G1-14*%
X98780000Y-101490000D03*
%TO.P,J202,28,Pin_28*%
%TO.N,G1-34*%
X96240000Y-101490000D03*
%TO.P,J202,29,Pin_29*%
%TO.N,G1-15*%
X98780000Y-104030000D03*
%TO.P,J202,30,Pin_30*%
%TO.N,G1-35*%
X96240000Y-104030000D03*
%TO.P,J202,31,Pin_31*%
%TO.N,G1-16*%
X98780000Y-106570000D03*
%TO.P,J202,32,Pin_32*%
%TO.N,G1-36*%
X96240000Y-106570000D03*
%TO.P,J202,33,Pin_33*%
%TO.N,G1-17*%
X98780000Y-109110000D03*
%TO.P,J202,34,Pin_34*%
%TO.N,G1-37*%
X96240000Y-109110000D03*
%TO.P,J202,35,Pin_35*%
%TO.N,G1-18*%
X98780000Y-111650000D03*
%TO.P,J202,36,Pin_36*%
%TO.N,G1-38*%
X96240000Y-111650000D03*
%TO.P,J202,37,Pin_37*%
%TO.N,G1-19*%
X98780000Y-114190000D03*
%TO.P,J202,38,Pin_38*%
%TO.N,G1-39*%
X96240000Y-114190000D03*
%TO.P,J202,39,Pin_39*%
%TO.N,G1-20*%
X98780000Y-116730000D03*
%TO.P,J202,40,Pin_40*%
%TO.N,G1-40*%
X96240000Y-116730000D03*
D14*
%TO.P,J202,MP*%
%TO.N,N/C*%
X97760000Y-125670000D03*
X97760000Y-59530000D03*
%TD*%
D15*
%TO.P,J105,1,Pin_1*%
%TO.N,G3-01*%
X150890000Y-68470000D03*
D13*
%TO.P,J105,2,Pin_2*%
%TO.N,G3-21*%
X148350000Y-68470000D03*
%TO.P,J105,3,Pin_3*%
%TO.N,G3-02*%
X150890000Y-71010000D03*
%TO.P,J105,4,Pin_4*%
%TO.N,G3-22*%
X148350000Y-71010000D03*
%TO.P,J105,5,Pin_5*%
%TO.N,G3-03*%
X150890000Y-73550000D03*
%TO.P,J105,6,Pin_6*%
%TO.N,G3-23*%
X148350000Y-73550000D03*
%TO.P,J105,7,Pin_7*%
%TO.N,G3-04*%
X150890000Y-76090000D03*
%TO.P,J105,8,Pin_8*%
%TO.N,G3-24*%
X148350000Y-76090000D03*
%TO.P,J105,9,Pin_9*%
%TO.N,G3-05*%
X150890000Y-78630000D03*
%TO.P,J105,10,Pin_10*%
%TO.N,G3-25*%
X148350000Y-78630000D03*
%TO.P,J105,11,Pin_11*%
%TO.N,G3-06*%
X150890000Y-81170000D03*
%TO.P,J105,12,Pin_12*%
%TO.N,G3-26*%
X148350000Y-81170000D03*
%TO.P,J105,13,Pin_13*%
%TO.N,G3-07*%
X150890000Y-83710000D03*
%TO.P,J105,14,Pin_14*%
%TO.N,G3-27*%
X148350000Y-83710000D03*
%TO.P,J105,15,Pin_15*%
%TO.N,G3-08*%
X150890000Y-86250000D03*
%TO.P,J105,16,Pin_16*%
%TO.N,G3-28*%
X148350000Y-86250000D03*
%TO.P,J105,17,Pin_17*%
%TO.N,G3-09*%
X150890000Y-88790000D03*
%TO.P,J105,18,Pin_18*%
%TO.N,G3-29*%
X148350000Y-88790000D03*
%TO.P,J105,19,Pin_19*%
%TO.N,G3-10*%
X150890000Y-91330000D03*
%TO.P,J105,20,Pin_20*%
%TO.N,G3-30*%
X148350000Y-91330000D03*
%TO.P,J105,21,Pin_21*%
%TO.N,G3-11*%
X150890000Y-93870000D03*
%TO.P,J105,22,Pin_22*%
%TO.N,G3-31*%
X148350000Y-93870000D03*
%TO.P,J105,23,Pin_23*%
%TO.N,G3-12*%
X150890000Y-96410000D03*
%TO.P,J105,24,Pin_24*%
%TO.N,G3-32*%
X148350000Y-96410000D03*
%TO.P,J105,25,Pin_25*%
%TO.N,G3-13*%
X150890000Y-98950000D03*
%TO.P,J105,26,Pin_26*%
%TO.N,G3-33*%
X148350000Y-98950000D03*
%TO.P,J105,27,Pin_27*%
%TO.N,G3-14*%
X150890000Y-101490000D03*
%TO.P,J105,28,Pin_28*%
%TO.N,G3-34*%
X148350000Y-101490000D03*
%TO.P,J105,29,Pin_29*%
%TO.N,G3-15*%
X150890000Y-104030000D03*
%TO.P,J105,30,Pin_30*%
%TO.N,G3-35*%
X148350000Y-104030000D03*
%TO.P,J105,31,Pin_31*%
%TO.N,G3-16*%
X150890000Y-106570000D03*
%TO.P,J105,32,Pin_32*%
%TO.N,G3-36*%
X148350000Y-106570000D03*
%TO.P,J105,33,Pin_33*%
%TO.N,G3-17*%
X150890000Y-109110000D03*
%TO.P,J105,34,Pin_34*%
%TO.N,G3-37*%
X148350000Y-109110000D03*
%TO.P,J105,35,Pin_35*%
%TO.N,G3-18*%
X150890000Y-111650000D03*
%TO.P,J105,36,Pin_36*%
%TO.N,G3-38*%
X148350000Y-111650000D03*
%TO.P,J105,37,Pin_37*%
%TO.N,G3-19*%
X150890000Y-114190000D03*
%TO.P,J105,38,Pin_38*%
%TO.N,G3-39*%
X148350000Y-114190000D03*
%TO.P,J105,39,Pin_39*%
%TO.N,G3-20*%
X150890000Y-116730000D03*
%TO.P,J105,40,Pin_40*%
%TO.N,G3-40*%
X148350000Y-116730000D03*
D14*
%TO.P,J105,MP*%
%TO.N,N/C*%
X149870000Y-125670000D03*
X149870000Y-59530000D03*
%TD*%
D15*
%TO.P,J103,1,Pin_1*%
%TO.N,G2-01*%
X124835000Y-68470000D03*
D13*
%TO.P,J103,2,Pin_2*%
%TO.N,G2-21*%
X122295000Y-68470000D03*
%TO.P,J103,3,Pin_3*%
%TO.N,G2-02*%
X124835000Y-71010000D03*
%TO.P,J103,4,Pin_4*%
%TO.N,G2-22*%
X122295000Y-71010000D03*
%TO.P,J103,5,Pin_5*%
%TO.N,G2-03*%
X124835000Y-73550000D03*
%TO.P,J103,6,Pin_6*%
%TO.N,G2-23*%
X122295000Y-73550000D03*
%TO.P,J103,7,Pin_7*%
%TO.N,G2-04*%
X124835000Y-76090000D03*
%TO.P,J103,8,Pin_8*%
%TO.N,G2-24*%
X122295000Y-76090000D03*
%TO.P,J103,9,Pin_9*%
%TO.N,G2-05*%
X124835000Y-78630000D03*
%TO.P,J103,10,Pin_10*%
%TO.N,G2-25*%
X122295000Y-78630000D03*
%TO.P,J103,11,Pin_11*%
%TO.N,G2-06*%
X124835000Y-81170000D03*
%TO.P,J103,12,Pin_12*%
%TO.N,G2-26*%
X122295000Y-81170000D03*
%TO.P,J103,13,Pin_13*%
%TO.N,G2-07*%
X124835000Y-83710000D03*
%TO.P,J103,14,Pin_14*%
%TO.N,G2-27*%
X122295000Y-83710000D03*
%TO.P,J103,15,Pin_15*%
%TO.N,G2-08*%
X124835000Y-86250000D03*
%TO.P,J103,16,Pin_16*%
%TO.N,G2-28*%
X122295000Y-86250000D03*
%TO.P,J103,17,Pin_17*%
%TO.N,G2-09*%
X124835000Y-88790000D03*
%TO.P,J103,18,Pin_18*%
%TO.N,G2-29*%
X122295000Y-88790000D03*
%TO.P,J103,19,Pin_19*%
%TO.N,G2-10*%
X124835000Y-91330000D03*
%TO.P,J103,20,Pin_20*%
%TO.N,G2-30*%
X122295000Y-91330000D03*
%TO.P,J103,21,Pin_21*%
%TO.N,G2-11*%
X124835000Y-93870000D03*
%TO.P,J103,22,Pin_22*%
%TO.N,G2-31*%
X122295000Y-93870000D03*
%TO.P,J103,23,Pin_23*%
%TO.N,G2-12*%
X124835000Y-96410000D03*
%TO.P,J103,24,Pin_24*%
%TO.N,G2-32*%
X122295000Y-96410000D03*
%TO.P,J103,25,Pin_25*%
%TO.N,G2-13*%
X124835000Y-98950000D03*
%TO.P,J103,26,Pin_26*%
%TO.N,G2-33*%
X122295000Y-98950000D03*
%TO.P,J103,27,Pin_27*%
%TO.N,G2-14*%
X124835000Y-101490000D03*
%TO.P,J103,28,Pin_28*%
%TO.N,G2-34*%
X122295000Y-101490000D03*
%TO.P,J103,29,Pin_29*%
%TO.N,G2-15*%
X124835000Y-104030000D03*
%TO.P,J103,30,Pin_30*%
%TO.N,G2-35*%
X122295000Y-104030000D03*
%TO.P,J103,31,Pin_31*%
%TO.N,G2-16*%
X124835000Y-106570000D03*
%TO.P,J103,32,Pin_32*%
%TO.N,G2-36*%
X122295000Y-106570000D03*
%TO.P,J103,33,Pin_33*%
%TO.N,G2-17*%
X124835000Y-109110000D03*
%TO.P,J103,34,Pin_34*%
%TO.N,G2-37*%
X122295000Y-109110000D03*
%TO.P,J103,35,Pin_35*%
%TO.N,G2-18*%
X124835000Y-111650000D03*
%TO.P,J103,36,Pin_36*%
%TO.N,G2-38*%
X122295000Y-111650000D03*
%TO.P,J103,37,Pin_37*%
%TO.N,G2-19*%
X124835000Y-114190000D03*
%TO.P,J103,38,Pin_38*%
%TO.N,G2-39*%
X122295000Y-114190000D03*
%TO.P,J103,39,Pin_39*%
%TO.N,G2-20*%
X124835000Y-116730000D03*
%TO.P,J103,40,Pin_40*%
%TO.N,G2-40*%
X122295000Y-116730000D03*
D14*
%TO.P,J103,MP*%
%TO.N,N/C*%
X123815000Y-125670000D03*
X123815000Y-59530000D03*
%TD*%
D16*
%TO.N,GNDA*%
X82042000Y-71805800D03*
X82042000Y-114338100D03*
X82042000Y-96824800D03*
X82042000Y-104330500D03*
X82042000Y-66802000D03*
X82042000Y-81813400D03*
X82042000Y-86817200D03*
X82042000Y-84315300D03*
X82042000Y-109334300D03*
X82042000Y-116840000D03*
X82042000Y-91821000D03*
X82042000Y-111836200D03*
X82042000Y-101828600D03*
X82042000Y-76809600D03*
X82042000Y-89319100D03*
X82042000Y-69303900D03*
X82042000Y-94322900D03*
X82042000Y-106832400D03*
X82042000Y-74307700D03*
X82042000Y-99326700D03*
X82042000Y-79311500D03*
X107188000Y-78079600D03*
X107188000Y-93091000D03*
X107188000Y-75577700D03*
X107188000Y-88087200D03*
X107188000Y-115608100D03*
X107188000Y-100596700D03*
X107188000Y-113106200D03*
X107188000Y-70573900D03*
X107188000Y-118110000D03*
X107188000Y-85585300D03*
X107188000Y-103098600D03*
X107188000Y-73075800D03*
X107188000Y-98094800D03*
X107188000Y-83083400D03*
X107188000Y-80581500D03*
X107188000Y-108102400D03*
X107188000Y-90589100D03*
X107188000Y-68072000D03*
X107188000Y-105600500D03*
X107188000Y-110604300D03*
X107188000Y-95592900D03*
X101854000Y-110604300D03*
X101854000Y-88087200D03*
X101854000Y-80581500D03*
X101854000Y-75577700D03*
X101854000Y-78079600D03*
X101854000Y-108102400D03*
X101854000Y-100596700D03*
X101854000Y-115608100D03*
X101854000Y-83083400D03*
X101854000Y-73075800D03*
X101854000Y-95592900D03*
X101854000Y-105600500D03*
X101854000Y-103098600D03*
X101854000Y-68072000D03*
X101854000Y-90589100D03*
X101854000Y-98094800D03*
X101854000Y-70573900D03*
X101854000Y-85585300D03*
X101854000Y-93091000D03*
X101854000Y-113106200D03*
X101854000Y-118110000D03*
X133350000Y-78079600D03*
X133350000Y-93091000D03*
X133350000Y-75577700D03*
X133350000Y-88087200D03*
X133350000Y-115608100D03*
X133350000Y-100596700D03*
X133350000Y-113106200D03*
X133350000Y-70573900D03*
X133350000Y-118110000D03*
X133350000Y-85585300D03*
X133350000Y-103098600D03*
X133350000Y-73075800D03*
X133350000Y-98094800D03*
X133350000Y-83083400D03*
X133350000Y-80581500D03*
X133350000Y-108102400D03*
X133350000Y-90589100D03*
X133350000Y-68072000D03*
X133350000Y-105600500D03*
X133350000Y-110604300D03*
X133350000Y-95592900D03*
X128016000Y-110604300D03*
X128016000Y-88087200D03*
X128016000Y-80581500D03*
X128016000Y-75577700D03*
X128016000Y-78079600D03*
X128016000Y-108102400D03*
X128016000Y-100596700D03*
X128016000Y-115608100D03*
X128016000Y-83083400D03*
X128016000Y-73075800D03*
X128016000Y-95592900D03*
X128016000Y-105600500D03*
X128016000Y-103098600D03*
X128016000Y-68072000D03*
X128016000Y-90589100D03*
X128016000Y-98094800D03*
X128016000Y-70573900D03*
X128016000Y-85585300D03*
X128016000Y-93091000D03*
X128016000Y-113106200D03*
X128016000Y-118110000D03*
X159512000Y-78079600D03*
X159512000Y-93091000D03*
X159512000Y-75577700D03*
X159512000Y-88087200D03*
X159512000Y-115608100D03*
X159512000Y-100596700D03*
X159512000Y-113106200D03*
X159512000Y-70573900D03*
X159512000Y-118110000D03*
X159512000Y-85585300D03*
X159512000Y-103098600D03*
X159512000Y-73075800D03*
X159512000Y-98094800D03*
X159512000Y-83083400D03*
X159512000Y-80581500D03*
X159512000Y-108102400D03*
X159512000Y-90589100D03*
X159512000Y-68072000D03*
X159512000Y-105600500D03*
X159512000Y-110604300D03*
X159512000Y-95592900D03*
X154178000Y-110604300D03*
X154178000Y-88087200D03*
X154178000Y-80581500D03*
X154178000Y-75577700D03*
X154178000Y-78079600D03*
X154178000Y-108102400D03*
X154178000Y-100596700D03*
X154178000Y-115608100D03*
X154178000Y-83083400D03*
X154178000Y-73075800D03*
X154178000Y-95592900D03*
X154178000Y-105600500D03*
X154178000Y-103098600D03*
X154178000Y-68072000D03*
X154178000Y-90589100D03*
X154178000Y-98094800D03*
X154178000Y-70573900D03*
X154178000Y-85585300D03*
X154178000Y-93091000D03*
X154178000Y-113106200D03*
X154178000Y-118110000D03*
X179578000Y-95580200D03*
X179578000Y-85572600D03*
X179578000Y-100584000D03*
X179578000Y-68059300D03*
X179578000Y-103085900D03*
X179578000Y-83070700D03*
X179578000Y-98082100D03*
X179578000Y-110591600D03*
X179578000Y-88074500D03*
X179578000Y-113093500D03*
X179578000Y-118097300D03*
X179578000Y-105587800D03*
X179578000Y-93078300D03*
X179578000Y-73063100D03*
X179578000Y-115595400D03*
X179578000Y-78066900D03*
X179578000Y-90576400D03*
X179578000Y-70561200D03*
X179578000Y-108089700D03*
X179578000Y-75565000D03*
X179578000Y-80568800D03*
X184912000Y-95580200D03*
X184912000Y-85572600D03*
X184912000Y-100584000D03*
X184912000Y-68059300D03*
X184912000Y-103085900D03*
X184912000Y-83070700D03*
X184912000Y-98082100D03*
X184912000Y-110591600D03*
X184912000Y-88074500D03*
X184912000Y-113093500D03*
X184912000Y-118097300D03*
X184912000Y-105587800D03*
X184912000Y-93078300D03*
X184912000Y-73063100D03*
X184912000Y-115595400D03*
X184912000Y-78066900D03*
X184912000Y-90576400D03*
X184912000Y-70561200D03*
X184912000Y-108089700D03*
X184912000Y-75565000D03*
X184912000Y-80568800D03*
X205232000Y-118618000D03*
X205232000Y-116116100D03*
X205232000Y-113614200D03*
X205232000Y-111112300D03*
X205232000Y-108610400D03*
X205232000Y-106108500D03*
X205232000Y-103606600D03*
X205232000Y-101104700D03*
X205232000Y-98602800D03*
X205232000Y-96100900D03*
X205232000Y-93599000D03*
X205232000Y-91097100D03*
X205232000Y-88595200D03*
X205232000Y-86093300D03*
X205232000Y-83591400D03*
X205232000Y-81089500D03*
X205232000Y-78587600D03*
X205232000Y-76085700D03*
X205232000Y-73583800D03*
X205232000Y-71081900D03*
X205232000Y-68580000D03*
%TD*%
%TO.N,G5-01*%
D17*
X203000000Y-68470000D02*
X201734000Y-67204000D01*
X189733500Y-67204000D02*
X188467500Y-68470000D01*
X201734000Y-67204000D02*
X189733500Y-67204000D01*
%TO.N,G5-21*%
X191007500Y-68470000D02*
X200460000Y-68470000D01*
%TO.N,G5-02*%
X188467500Y-71010000D02*
X189733500Y-69744000D01*
X189733500Y-69744000D02*
X201734000Y-69744000D01*
X201734000Y-69744000D02*
X203000000Y-71010000D01*
%TO.N,G5-22*%
X200460000Y-71010000D02*
X191007500Y-71010000D01*
%TO.N,G5-03*%
X188467500Y-73550000D02*
X189733500Y-72284000D01*
X189733500Y-72284000D02*
X201734000Y-72284000D01*
X201734000Y-72284000D02*
X203000000Y-73550000D01*
%TO.N,G5-23*%
X200460000Y-73550000D02*
X191007500Y-73550000D01*
%TO.N,G5-04*%
X188467500Y-76090000D02*
X189733500Y-74824000D01*
X189733500Y-74824000D02*
X201734000Y-74824000D01*
X201734000Y-74824000D02*
X203000000Y-76090000D01*
%TO.N,G5-24*%
X200460000Y-76090000D02*
X191007500Y-76090000D01*
%TO.N,G5-05*%
X188467500Y-78630000D02*
X189733500Y-77364000D01*
X201734000Y-77364000D02*
X203000000Y-78630000D01*
X189733500Y-77364000D02*
X201734000Y-77364000D01*
%TO.N,G5-25*%
X200460000Y-78630000D02*
X191007500Y-78630000D01*
%TO.N,G5-06*%
X188467500Y-81170000D02*
X189733500Y-79904000D01*
X189733500Y-79904000D02*
X201734000Y-79904000D01*
X201734000Y-79904000D02*
X203000000Y-81170000D01*
%TO.N,G5-26*%
X200460000Y-81170000D02*
X191007500Y-81170000D01*
%TO.N,G5-07*%
X188467500Y-83710000D02*
X189733500Y-82444000D01*
X189733500Y-82444000D02*
X201734000Y-82444000D01*
X201734000Y-82444000D02*
X203000000Y-83710000D01*
%TO.N,G5-27*%
X200460000Y-83710000D02*
X191007500Y-83710000D01*
%TO.N,G5-08*%
X203000000Y-86250000D02*
X201734000Y-84984000D01*
X189733500Y-84984000D02*
X188467500Y-86250000D01*
X201734000Y-84984000D02*
X189733500Y-84984000D01*
%TO.N,G5-28*%
X191007500Y-86250000D02*
X200460000Y-86250000D01*
%TO.N,G5-09*%
X203000000Y-88790000D02*
X201734000Y-87524000D01*
X201734000Y-87524000D02*
X189733500Y-87524000D01*
X189733500Y-87524000D02*
X188467500Y-88790000D01*
%TO.N,G5-29*%
X191007500Y-88790000D02*
X200460000Y-88790000D01*
%TO.N,G5-10*%
X203000000Y-91330000D02*
X201734000Y-90064000D01*
X201734000Y-90064000D02*
X189733500Y-90064000D01*
X189733500Y-90064000D02*
X188467500Y-91330000D01*
%TO.N,G5-30*%
X191007500Y-91330000D02*
X200460000Y-91330000D01*
%TO.N,G5-11*%
X203000000Y-93870000D02*
X201734000Y-92604000D01*
X201734000Y-92604000D02*
X189733500Y-92604000D01*
X189733500Y-92604000D02*
X188467500Y-93870000D01*
%TO.N,G5-31*%
X191007500Y-93870000D02*
X200460000Y-93870000D01*
%TO.N,G5-12*%
X203000000Y-96410000D02*
X201734000Y-95144000D01*
X201734000Y-95144000D02*
X189733500Y-95144000D01*
X189733500Y-95144000D02*
X188467500Y-96410000D01*
%TO.N,G5-32*%
X191007500Y-96410000D02*
X200460000Y-96410000D01*
%TO.N,G5-13*%
X203000000Y-98950000D02*
X201734000Y-97684000D01*
X201734000Y-97684000D02*
X189733500Y-97684000D01*
X189733500Y-97684000D02*
X188467500Y-98950000D01*
%TO.N,G5-33*%
X191007500Y-98950000D02*
X200460000Y-98950000D01*
%TO.N,G5-14*%
X203000000Y-101490000D02*
X201734000Y-100224000D01*
X201734000Y-100224000D02*
X189733500Y-100224000D01*
X189733500Y-100224000D02*
X188467500Y-101490000D01*
%TO.N,G5-34*%
X191007500Y-101490000D02*
X200460000Y-101490000D01*
%TO.N,G5-15*%
X203000000Y-104030000D02*
X201734000Y-102764000D01*
X201734000Y-102764000D02*
X189733500Y-102764000D01*
X189733500Y-102764000D02*
X188467500Y-104030000D01*
%TO.N,G5-35*%
X191007500Y-104030000D02*
X200460000Y-104030000D01*
%TO.N,G5-16*%
X203000000Y-106570000D02*
X201734000Y-105304000D01*
X201734000Y-105304000D02*
X189733500Y-105304000D01*
X189733500Y-105304000D02*
X188467500Y-106570000D01*
%TO.N,G5-36*%
X191007500Y-106570000D02*
X200460000Y-106570000D01*
%TO.N,G5-17*%
X203000000Y-109110000D02*
X201734000Y-107844000D01*
X189733500Y-107844000D02*
X188467500Y-109110000D01*
X201734000Y-107844000D02*
X189733500Y-107844000D01*
%TO.N,G5-37*%
X191007500Y-109110000D02*
X200460000Y-109110000D01*
%TO.N,G5-18*%
X203000000Y-111650000D02*
X201734000Y-110384000D01*
X201734000Y-110384000D02*
X189733500Y-110384000D01*
X189733500Y-110384000D02*
X188467500Y-111650000D01*
%TO.N,G5-38*%
X191007500Y-111650000D02*
X200460000Y-111650000D01*
%TO.N,G5-19*%
X203000000Y-114190000D02*
X201734000Y-112924000D01*
X201734000Y-112924000D02*
X189733500Y-112924000D01*
X189733500Y-112924000D02*
X188467500Y-114190000D01*
%TO.N,G5-39*%
X191007500Y-114190000D02*
X200460000Y-114190000D01*
%TO.N,G5-20*%
X203000000Y-116730000D02*
X201734000Y-115464000D01*
X201734000Y-115464000D02*
X189733500Y-115464000D01*
X189733500Y-115464000D02*
X188467500Y-116730000D01*
%TO.N,G5-40*%
X191007500Y-116730000D02*
X200460000Y-116730000D01*
%TO.N,G4-01*%
X162412500Y-68470000D02*
X163678500Y-67204000D01*
X163678500Y-67204000D02*
X175679000Y-67204000D01*
X175679000Y-67204000D02*
X176945000Y-68470000D01*
%TO.N,G4-02*%
X176945000Y-71010000D02*
X175679000Y-69744000D01*
X175679000Y-69744000D02*
X163678500Y-69744000D01*
X163678500Y-69744000D02*
X162412500Y-71010000D01*
%TO.N,G4-03*%
X162412500Y-73550000D02*
X163678500Y-72284000D01*
X163678500Y-72284000D02*
X175679000Y-72284000D01*
X175679000Y-72284000D02*
X176945000Y-73550000D01*
%TO.N,G4-04*%
X176945000Y-76090000D02*
X175679000Y-74824000D01*
X175679000Y-74824000D02*
X163678500Y-74824000D01*
X163678500Y-74824000D02*
X162412500Y-76090000D01*
%TO.N,G4-05*%
X162412500Y-78630000D02*
X163678500Y-77364000D01*
X163678500Y-77364000D02*
X175679000Y-77364000D01*
X175679000Y-77364000D02*
X176945000Y-78630000D01*
%TO.N,G4-06*%
X176945000Y-81170000D02*
X175679000Y-79904000D01*
X175679000Y-79904000D02*
X163678500Y-79904000D01*
X163678500Y-79904000D02*
X162412500Y-81170000D01*
%TO.N,G4-07*%
X162412500Y-83710000D02*
X163678500Y-82444000D01*
X163678500Y-82444000D02*
X175679000Y-82444000D01*
X175679000Y-82444000D02*
X176945000Y-83710000D01*
%TO.N,G4-08*%
X162412500Y-86250000D02*
X163678500Y-84984000D01*
X163678500Y-84984000D02*
X175679000Y-84984000D01*
X175679000Y-84984000D02*
X176945000Y-86250000D01*
%TO.N,G4-09*%
X176945000Y-88790000D02*
X175679000Y-87524000D01*
X175679000Y-87524000D02*
X163678500Y-87524000D01*
X163678500Y-87524000D02*
X162412500Y-88790000D01*
%TO.N,G4-10*%
X162412500Y-91330000D02*
X163678500Y-90064000D01*
X163678500Y-90064000D02*
X175679000Y-90064000D01*
X175679000Y-90064000D02*
X176945000Y-91330000D01*
%TO.N,G4-11*%
X176945000Y-93870000D02*
X175679000Y-92604000D01*
X175679000Y-92604000D02*
X163678500Y-92604000D01*
X163678500Y-92604000D02*
X162412500Y-93870000D01*
%TO.N,G4-12*%
X162412500Y-96410000D02*
X163678500Y-95144000D01*
X163678500Y-95144000D02*
X175679000Y-95144000D01*
X175679000Y-95144000D02*
X176945000Y-96410000D01*
%TO.N,G4-13*%
X176945000Y-98950000D02*
X175679000Y-97684000D01*
X175679000Y-97684000D02*
X163678500Y-97684000D01*
X163678500Y-97684000D02*
X162412500Y-98950000D01*
%TO.N,G4-14*%
X162412500Y-101490000D02*
X163678500Y-100224000D01*
X163678500Y-100224000D02*
X175679000Y-100224000D01*
X175679000Y-100224000D02*
X176945000Y-101490000D01*
%TO.N,G4-15*%
X162412500Y-104030000D02*
X163678500Y-102764000D01*
X163678500Y-102764000D02*
X175679000Y-102764000D01*
X175679000Y-102764000D02*
X176945000Y-104030000D01*
%TO.N,G4-16*%
X176945000Y-106570000D02*
X175679000Y-105304000D01*
X175679000Y-105304000D02*
X163678500Y-105304000D01*
X163678500Y-105304000D02*
X162412500Y-106570000D01*
%TO.N,G4-17*%
X162412500Y-109110000D02*
X163678500Y-107844000D01*
X163678500Y-107844000D02*
X175679000Y-107844000D01*
X175679000Y-107844000D02*
X176945000Y-109110000D01*
%TO.N,G4-18*%
X176945000Y-111650000D02*
X175679000Y-110384000D01*
X163678500Y-110384000D02*
X162412500Y-111650000D01*
X175679000Y-110384000D02*
X163678500Y-110384000D01*
%TO.N,G4-19*%
X162412500Y-114190000D02*
X163678500Y-112924000D01*
X175679000Y-112924000D02*
X176945000Y-114190000D01*
X163678500Y-112924000D02*
X175679000Y-112924000D01*
%TO.N,G4-20*%
X176945000Y-116730000D02*
X175679000Y-115464000D01*
X175679000Y-115464000D02*
X163678500Y-115464000D01*
X163678500Y-115464000D02*
X162412500Y-116730000D01*
%TO.N,G4-40*%
X174405000Y-116730000D02*
X164952500Y-116730000D01*
%TO.N,G4-39*%
X164952500Y-114190000D02*
X174405000Y-114190000D01*
%TO.N,G4-38*%
X174405000Y-111650000D02*
X164952500Y-111650000D01*
%TO.N,G4-37*%
X164952500Y-109110000D02*
X174405000Y-109110000D01*
%TO.N,G4-36*%
X174405000Y-106570000D02*
X164952500Y-106570000D01*
%TO.N,G4-35*%
X164952500Y-104030000D02*
X174405000Y-104030000D01*
%TO.N,G4-34*%
X174405000Y-101490000D02*
X164952500Y-101490000D01*
%TO.N,G4-33*%
X164952500Y-98950000D02*
X174405000Y-98950000D01*
%TO.N,G4-32*%
X174405000Y-96410000D02*
X164952500Y-96410000D01*
%TO.N,G4-31*%
X164952500Y-93870000D02*
X174405000Y-93870000D01*
%TO.N,G4-30*%
X174405000Y-91330000D02*
X164952500Y-91330000D01*
%TO.N,G4-29*%
X164952500Y-88790000D02*
X174405000Y-88790000D01*
%TO.N,G4-28*%
X174405000Y-86250000D02*
X164952500Y-86250000D01*
%TO.N,G4-27*%
X164952500Y-83710000D02*
X174405000Y-83710000D01*
%TO.N,G4-26*%
X174405000Y-81170000D02*
X164952500Y-81170000D01*
%TO.N,G4-25*%
X164952500Y-78630000D02*
X174405000Y-78630000D01*
%TO.N,G4-24*%
X174405000Y-76090000D02*
X164952500Y-76090000D01*
%TO.N,G4-23*%
X164952500Y-73550000D02*
X174405000Y-73550000D01*
%TO.N,G4-22*%
X174405000Y-71010000D02*
X164952500Y-71010000D01*
%TO.N,G4-21*%
X164952500Y-68470000D02*
X174405000Y-68470000D01*
%TO.N,G3-20*%
X136357500Y-116730000D02*
X137623500Y-115464000D01*
X137623500Y-115464000D02*
X149624000Y-115464000D01*
X149624000Y-115464000D02*
X150890000Y-116730000D01*
%TO.N,G3-19*%
X150890000Y-114190000D02*
X149616000Y-112916000D01*
X149616000Y-112916000D02*
X137631500Y-112916000D01*
X137631500Y-112916000D02*
X136357500Y-114190000D01*
%TO.N,G3-18*%
X136357500Y-111650000D02*
X137623500Y-110384000D01*
X137623500Y-110384000D02*
X149624000Y-110384000D01*
X149624000Y-110384000D02*
X150890000Y-111650000D01*
%TO.N,G3-17*%
X150890000Y-109110000D02*
X149624000Y-107844000D01*
X149624000Y-107844000D02*
X137623500Y-107844000D01*
X137623500Y-107844000D02*
X136357500Y-109110000D01*
%TO.N,G3-16*%
X136357500Y-106570000D02*
X137623500Y-105304000D01*
X137623500Y-105304000D02*
X149624000Y-105304000D01*
X149624000Y-105304000D02*
X150890000Y-106570000D01*
%TO.N,G3-15*%
X150890000Y-104030000D02*
X149624000Y-102764000D01*
X149624000Y-102764000D02*
X137623500Y-102764000D01*
X137623500Y-102764000D02*
X136357500Y-104030000D01*
%TO.N,G3-14*%
X136357500Y-101490000D02*
X137623500Y-100224000D01*
X137623500Y-100224000D02*
X149624000Y-100224000D01*
X149624000Y-100224000D02*
X150890000Y-101490000D01*
%TO.N,G3-13*%
X150890000Y-98950000D02*
X149624000Y-97684000D01*
X149624000Y-97684000D02*
X137623500Y-97684000D01*
X137623500Y-97684000D02*
X136357500Y-98950000D01*
%TO.N,G3-12*%
X136357500Y-96410000D02*
X137623500Y-95144000D01*
X137623500Y-95144000D02*
X149624000Y-95144000D01*
X149624000Y-95144000D02*
X150890000Y-96410000D01*
%TO.N,G3-11*%
X150890000Y-93870000D02*
X149624000Y-92604000D01*
X149624000Y-92604000D02*
X137623500Y-92604000D01*
X137623500Y-92604000D02*
X136357500Y-93870000D01*
%TO.N,G3-10*%
X136357500Y-91330000D02*
X137623500Y-90064000D01*
X137623500Y-90064000D02*
X149624000Y-90064000D01*
X149624000Y-90064000D02*
X150890000Y-91330000D01*
%TO.N,G3-09*%
X150890000Y-88790000D02*
X149624000Y-87524000D01*
X149624000Y-87524000D02*
X137623500Y-87524000D01*
X137623500Y-87524000D02*
X136357500Y-88790000D01*
%TO.N,G3-08*%
X136357500Y-86250000D02*
X137623500Y-84984000D01*
X137623500Y-84984000D02*
X149624000Y-84984000D01*
X149624000Y-84984000D02*
X150890000Y-86250000D01*
%TO.N,G3-07*%
X150890000Y-83710000D02*
X149624000Y-82444000D01*
X149624000Y-82444000D02*
X137623500Y-82444000D01*
X137623500Y-82444000D02*
X136357500Y-83710000D01*
%TO.N,G3-06*%
X136357500Y-81170000D02*
X137623500Y-79904000D01*
X137623500Y-79904000D02*
X149624000Y-79904000D01*
X149624000Y-79904000D02*
X150890000Y-81170000D01*
%TO.N,G3-05*%
X150890000Y-78630000D02*
X149624000Y-77364000D01*
X149624000Y-77364000D02*
X137623500Y-77364000D01*
X137623500Y-77364000D02*
X136357500Y-78630000D01*
%TO.N,G3-04*%
X136357500Y-76090000D02*
X137623500Y-74824000D01*
X137623500Y-74824000D02*
X149624000Y-74824000D01*
X149624000Y-74824000D02*
X150890000Y-76090000D01*
%TO.N,G3-03*%
X150890000Y-73550000D02*
X149624000Y-72284000D01*
X149624000Y-72284000D02*
X137623500Y-72284000D01*
X137623500Y-72284000D02*
X136357500Y-73550000D01*
%TO.N,G3-02*%
X136357500Y-71010000D02*
X137623500Y-69744000D01*
X137623500Y-69744000D02*
X149624000Y-69744000D01*
X149624000Y-69744000D02*
X150890000Y-71010000D01*
%TO.N,G3-01*%
X150890000Y-68470000D02*
X149624000Y-67204000D01*
X149624000Y-67204000D02*
X137623500Y-67204000D01*
X137623500Y-67204000D02*
X136357500Y-68470000D01*
%TO.N,G3-40*%
X138897500Y-116730000D02*
X148350000Y-116730000D01*
%TO.N,G3-39*%
X138897500Y-114190000D02*
X148350000Y-114190000D01*
%TO.N,G3-38*%
X148350000Y-111650000D02*
X138897500Y-111650000D01*
%TO.N,G3-37*%
X138897500Y-109110000D02*
X148350000Y-109110000D01*
%TO.N,G3-36*%
X148350000Y-106570000D02*
X138897500Y-106570000D01*
%TO.N,G3-35*%
X138897500Y-104030000D02*
X148350000Y-104030000D01*
%TO.N,G3-34*%
X148350000Y-101490000D02*
X138897500Y-101490000D01*
%TO.N,G3-33*%
X138897500Y-98950000D02*
X148350000Y-98950000D01*
%TO.N,G3-32*%
X148350000Y-96410000D02*
X138897500Y-96410000D01*
%TO.N,G3-31*%
X138897500Y-93870000D02*
X148350000Y-93870000D01*
%TO.N,G3-30*%
X148350000Y-91330000D02*
X138897500Y-91330000D01*
%TO.N,G3-29*%
X138897500Y-88790000D02*
X148350000Y-88790000D01*
%TO.N,G3-28*%
X148350000Y-86250000D02*
X138897500Y-86250000D01*
%TO.N,G3-27*%
X138897500Y-83710000D02*
X148350000Y-83710000D01*
%TO.N,G3-26*%
X148350000Y-81170000D02*
X138897500Y-81170000D01*
%TO.N,G3-25*%
X138897500Y-78630000D02*
X148350000Y-78630000D01*
%TO.N,G3-24*%
X148350000Y-76090000D02*
X138897500Y-76090000D01*
%TO.N,G3-23*%
X138897500Y-73550000D02*
X148350000Y-73550000D01*
%TO.N,G3-22*%
X148350000Y-71010000D02*
X138897500Y-71010000D01*
%TO.N,G3-21*%
X138897500Y-68470000D02*
X148350000Y-68470000D01*
%TO.N,G2-20*%
X110302500Y-116730000D02*
X111568500Y-115464000D01*
X111568500Y-115464000D02*
X123569000Y-115464000D01*
X123569000Y-115464000D02*
X124835000Y-116730000D01*
%TO.N,G2-19*%
X124835000Y-114190000D02*
X123561000Y-112916000D01*
X111576500Y-112916000D02*
X110302500Y-114190000D01*
X123561000Y-112916000D02*
X111576500Y-112916000D01*
%TO.N,G2-18*%
X110302500Y-111650000D02*
X111568500Y-110384000D01*
X111568500Y-110384000D02*
X123569000Y-110384000D01*
X123569000Y-110384000D02*
X124835000Y-111650000D01*
%TO.N,G2-17*%
X124835000Y-109110000D02*
X123569000Y-107844000D01*
X123569000Y-107844000D02*
X111568500Y-107844000D01*
X111568500Y-107844000D02*
X110302500Y-109110000D01*
%TO.N,G2-16*%
X110302500Y-106570000D02*
X111568500Y-105304000D01*
X111568500Y-105304000D02*
X123569000Y-105304000D01*
X123569000Y-105304000D02*
X124835000Y-106570000D01*
%TO.N,G2-15*%
X124835000Y-104030000D02*
X123569000Y-102764000D01*
X123569000Y-102764000D02*
X111568500Y-102764000D01*
X111568500Y-102764000D02*
X110302500Y-104030000D01*
%TO.N,G2-14*%
X110302500Y-101490000D02*
X111568500Y-100224000D01*
X111568500Y-100224000D02*
X123569000Y-100224000D01*
X123569000Y-100224000D02*
X124835000Y-101490000D01*
%TO.N,G2-13*%
X124835000Y-98950000D02*
X123569000Y-97684000D01*
X123569000Y-97684000D02*
X111568500Y-97684000D01*
X111568500Y-97684000D02*
X110302500Y-98950000D01*
%TO.N,G2-12*%
X110302500Y-96410000D02*
X111568500Y-95144000D01*
X111568500Y-95144000D02*
X123569000Y-95144000D01*
X123569000Y-95144000D02*
X124835000Y-96410000D01*
%TO.N,G2-11*%
X124835000Y-93870000D02*
X123569000Y-92604000D01*
X111568500Y-92604000D02*
X110302500Y-93870000D01*
X123569000Y-92604000D02*
X111568500Y-92604000D01*
%TO.N,G2-10*%
X110302500Y-91330000D02*
X111568500Y-90064000D01*
X111568500Y-90064000D02*
X123569000Y-90064000D01*
X123569000Y-90064000D02*
X124835000Y-91330000D01*
%TO.N,G2-09*%
X124835000Y-88790000D02*
X123569000Y-87524000D01*
X123569000Y-87524000D02*
X111568500Y-87524000D01*
X111568500Y-87524000D02*
X110302500Y-88790000D01*
%TO.N,G2-08*%
X110302500Y-86250000D02*
X111568500Y-84984000D01*
X111568500Y-84984000D02*
X123569000Y-84984000D01*
X123569000Y-84984000D02*
X124835000Y-86250000D01*
%TO.N,G2-07*%
X124835000Y-83710000D02*
X123569000Y-82444000D01*
X123569000Y-82444000D02*
X111568500Y-82444000D01*
X111568500Y-82444000D02*
X110302500Y-83710000D01*
%TO.N,G2-06*%
X110302500Y-81170000D02*
X111568500Y-79904000D01*
X111568500Y-79904000D02*
X123569000Y-79904000D01*
X123569000Y-79904000D02*
X124835000Y-81170000D01*
%TO.N,G2-05*%
X124835000Y-78630000D02*
X123569000Y-77364000D01*
X123569000Y-77364000D02*
X111568500Y-77364000D01*
X111568500Y-77364000D02*
X110302500Y-78630000D01*
%TO.N,G2-04*%
X110302500Y-76090000D02*
X111568500Y-74824000D01*
X111568500Y-74824000D02*
X123569000Y-74824000D01*
X123569000Y-74824000D02*
X124835000Y-76090000D01*
%TO.N,G2-03*%
X124835000Y-73550000D02*
X123569000Y-72284000D01*
X123569000Y-72284000D02*
X111568500Y-72284000D01*
X111568500Y-72284000D02*
X110302500Y-73550000D01*
%TO.N,G2-02*%
X110302500Y-71010000D02*
X111568500Y-69744000D01*
X111568500Y-69744000D02*
X123569000Y-69744000D01*
X123569000Y-69744000D02*
X124835000Y-71010000D01*
%TO.N,G2-40*%
X112842500Y-116730000D02*
X122295000Y-116730000D01*
%TO.N,G2-39*%
X122295000Y-114190000D02*
X112842500Y-114190000D01*
%TO.N,G2-38*%
X112842500Y-111650000D02*
X122295000Y-111650000D01*
%TO.N,G2-37*%
X122295000Y-109110000D02*
X112842500Y-109110000D01*
%TO.N,G2-36*%
X112842500Y-106570000D02*
X122295000Y-106570000D01*
%TO.N,G2-35*%
X122295000Y-104030000D02*
X112842500Y-104030000D01*
%TO.N,G2-34*%
X112842500Y-101490000D02*
X122295000Y-101490000D01*
%TO.N,G2-33*%
X122295000Y-98950000D02*
X112842500Y-98950000D01*
%TO.N,G2-32*%
X112842500Y-96410000D02*
X122295000Y-96410000D01*
%TO.N,G2-31*%
X122295000Y-93870000D02*
X112842500Y-93870000D01*
%TO.N,G2-30*%
X112842500Y-91330000D02*
X122295000Y-91330000D01*
%TO.N,G2-29*%
X122295000Y-88790000D02*
X112842500Y-88790000D01*
%TO.N,G2-28*%
X112842500Y-86250000D02*
X122295000Y-86250000D01*
%TO.N,G2-27*%
X122295000Y-83710000D02*
X112842500Y-83710000D01*
%TO.N,G2-26*%
X112842500Y-81170000D02*
X122295000Y-81170000D01*
%TO.N,G2-25*%
X122295000Y-78630000D02*
X112842500Y-78630000D01*
%TO.N,G2-24*%
X112842500Y-76090000D02*
X122295000Y-76090000D01*
%TO.N,G2-23*%
X112842500Y-73550000D02*
X122295000Y-73550000D01*
%TO.N,G2-22*%
X112842500Y-71010000D02*
X122295000Y-71010000D01*
%TO.N,G2-01*%
X110302500Y-68470000D02*
X111568500Y-67204000D01*
X111568500Y-67204000D02*
X123569000Y-67204000D01*
X123569000Y-67204000D02*
X124835000Y-68470000D01*
%TO.N,G2-21*%
X112842500Y-68470000D02*
X122295000Y-68470000D01*
%TO.N,G1-40*%
X86787500Y-116730000D02*
X96240000Y-116730000D01*
%TO.N,G1-20*%
X98780000Y-116730000D02*
X97514000Y-115464000D01*
X97514000Y-115464000D02*
X85513500Y-115464000D01*
X85513500Y-115464000D02*
X84247500Y-116730000D01*
%TO.N,G1-39*%
X86787500Y-114190000D02*
X96240000Y-114190000D01*
%TO.N,G1-19*%
X98780000Y-114190000D02*
X97514000Y-112924000D01*
X97514000Y-112924000D02*
X85513500Y-112924000D01*
X85513500Y-112924000D02*
X84247500Y-114190000D01*
%TO.N,G1-38*%
X86787500Y-111650000D02*
X96240000Y-111650000D01*
%TO.N,G1-18*%
X98780000Y-111650000D02*
X97514000Y-110384000D01*
X97514000Y-110384000D02*
X85513500Y-110384000D01*
X85513500Y-110384000D02*
X84247500Y-111650000D01*
%TO.N,G1-37*%
X86787500Y-109110000D02*
X96240000Y-109110000D01*
%TO.N,G1-17*%
X98780000Y-109110000D02*
X97514000Y-107844000D01*
X85513500Y-107844000D02*
X84247500Y-109110000D01*
X97514000Y-107844000D02*
X85513500Y-107844000D01*
%TO.N,G1-36*%
X86787500Y-106570000D02*
X96240000Y-106570000D01*
%TO.N,G1-16*%
X98780000Y-106570000D02*
X97514000Y-105304000D01*
X97514000Y-105304000D02*
X85513500Y-105304000D01*
X85513500Y-105304000D02*
X84247500Y-106570000D01*
%TO.N,G1-35*%
X86787500Y-104030000D02*
X96240000Y-104030000D01*
%TO.N,G1-15*%
X98780000Y-104030000D02*
X97514000Y-102764000D01*
X97514000Y-102764000D02*
X85513500Y-102764000D01*
X85513500Y-102764000D02*
X84247500Y-104030000D01*
%TO.N,G1-34*%
X86787500Y-101490000D02*
X96240000Y-101490000D01*
%TO.N,G1-14*%
X98780000Y-101490000D02*
X97514000Y-100224000D01*
X97514000Y-100224000D02*
X85513500Y-100224000D01*
X85513500Y-100224000D02*
X84247500Y-101490000D01*
%TO.N,G1-33*%
X86787500Y-98950000D02*
X96240000Y-98950000D01*
%TO.N,G1-13*%
X98780000Y-98950000D02*
X97514000Y-97684000D01*
X97514000Y-97684000D02*
X85513500Y-97684000D01*
X85513500Y-97684000D02*
X84247500Y-98950000D01*
%TO.N,G1-32*%
X86787500Y-96410000D02*
X96240000Y-96410000D01*
%TO.N,G1-12*%
X98780000Y-96410000D02*
X97514000Y-95144000D01*
X97514000Y-95144000D02*
X85513500Y-95144000D01*
X85513500Y-95144000D02*
X84247500Y-96410000D01*
%TO.N,G1-31*%
X86787500Y-93870000D02*
X96240000Y-93870000D01*
%TO.N,G1-11*%
X98780000Y-93870000D02*
X97514000Y-92604000D01*
X97514000Y-92604000D02*
X85513500Y-92604000D01*
X85513500Y-92604000D02*
X84247500Y-93870000D01*
%TO.N,G1-30*%
X86787500Y-91330000D02*
X96240000Y-91330000D01*
%TO.N,G1-10*%
X98780000Y-91330000D02*
X97514000Y-90064000D01*
X97514000Y-90064000D02*
X85513500Y-90064000D01*
X85513500Y-90064000D02*
X84247500Y-91330000D01*
%TO.N,G1-29*%
X86787500Y-88790000D02*
X96240000Y-88790000D01*
%TO.N,G1-09*%
X84247500Y-88790000D02*
X85513500Y-87524000D01*
X85513500Y-87524000D02*
X97514000Y-87524000D01*
X97514000Y-87524000D02*
X98780000Y-88790000D01*
%TO.N,G1-08*%
X84247500Y-86250000D02*
X85513500Y-84984000D01*
X85513500Y-84984000D02*
X97514000Y-84984000D01*
X97514000Y-84984000D02*
X98780000Y-86250000D01*
%TO.N,G1-28*%
X86787500Y-86250000D02*
X96240000Y-86250000D01*
%TO.N,G1-27*%
X86787500Y-83710000D02*
X96240000Y-83710000D01*
%TO.N,G1-07*%
X84247500Y-83710000D02*
X85513500Y-82444000D01*
X85513500Y-82444000D02*
X97514000Y-82444000D01*
X97514000Y-82444000D02*
X98780000Y-83710000D01*
%TO.N,G1-26*%
X86787500Y-81170000D02*
X96240000Y-81170000D01*
%TO.N,G1-06*%
X84247500Y-81170000D02*
X85513500Y-79904000D01*
X85513500Y-79904000D02*
X97514000Y-79904000D01*
X97514000Y-79904000D02*
X98780000Y-81170000D01*
%TO.N,G1-25*%
X86787500Y-78630000D02*
X96240000Y-78630000D01*
%TO.N,G1-05*%
X84247500Y-78630000D02*
X85513500Y-77364000D01*
X97514000Y-77364000D02*
X98780000Y-78630000D01*
X85513500Y-77364000D02*
X97514000Y-77364000D01*
%TO.N,G1-24*%
X86787500Y-76090000D02*
X96240000Y-76090000D01*
%TO.N,G1-04*%
X84247500Y-76090000D02*
X85513500Y-74824000D01*
X85513500Y-74824000D02*
X97514000Y-74824000D01*
X97514000Y-74824000D02*
X98780000Y-76090000D01*
%TO.N,G1-23*%
X86787500Y-73550000D02*
X96240000Y-73550000D01*
%TO.N,G1-03*%
X84247500Y-73550000D02*
X85513500Y-72284000D01*
X85513500Y-72284000D02*
X97514000Y-72284000D01*
X97514000Y-72284000D02*
X98780000Y-73550000D01*
%TO.N,G1-22*%
X86787500Y-71010000D02*
X96240000Y-71010000D01*
%TO.N,G1-02*%
X84247500Y-71010000D02*
X85513500Y-69744000D01*
X85513500Y-69744000D02*
X97514000Y-69744000D01*
X97514000Y-69744000D02*
X98780000Y-71010000D01*
%TO.N,G1-01*%
X84247500Y-68470000D02*
X85513500Y-67204000D01*
X85513500Y-67204000D02*
X97514000Y-67204000D01*
X97514000Y-67204000D02*
X98780000Y-68470000D01*
%TO.N,G1-21*%
X86787500Y-68470000D02*
X96240000Y-68470000D01*
%TD*%
%TA.AperFunction,Conductor*%
%TO.N,GNDA*%
G36*
X207943039Y-65019685D02*
G01*
X207988794Y-65072489D01*
X208000000Y-65124000D01*
X208000000Y-119875904D01*
X207980315Y-119942943D01*
X207927511Y-119988698D01*
X207875905Y-119999904D01*
X77724131Y-119900095D01*
X77657107Y-119880359D01*
X77611392Y-119827520D01*
X77600226Y-119775869D01*
X77605581Y-116836286D01*
X77623336Y-107088414D01*
X77694864Y-67819983D01*
X82897000Y-67819983D01*
X82897000Y-69120001D01*
X82897001Y-69120018D01*
X82907500Y-69222796D01*
X82907501Y-69222799D01*
X82962685Y-69389331D01*
X82962686Y-69389334D01*
X83054788Y-69538656D01*
X83178844Y-69662712D01*
X83328166Y-69754814D01*
X83338723Y-69758312D01*
X83396168Y-69798084D01*
X83422992Y-69862600D01*
X83410677Y-69931376D01*
X83372613Y-69976330D01*
X83367719Y-69979885D01*
X83367709Y-69979894D01*
X83217390Y-70130213D01*
X83092451Y-70302179D01*
X82995944Y-70491585D01*
X82930253Y-70693760D01*
X82897000Y-70903713D01*
X82897000Y-71116286D01*
X82930253Y-71326239D01*
X82995944Y-71528414D01*
X83092451Y-71717820D01*
X83217390Y-71889786D01*
X83367713Y-72040109D01*
X83539682Y-72165050D01*
X83548446Y-72169516D01*
X83599242Y-72217491D01*
X83616036Y-72285312D01*
X83593498Y-72351447D01*
X83548446Y-72390484D01*
X83539682Y-72394949D01*
X83367713Y-72519890D01*
X83217390Y-72670213D01*
X83092451Y-72842179D01*
X82995944Y-73031585D01*
X82930253Y-73233760D01*
X82897000Y-73443713D01*
X82897000Y-73656286D01*
X82930253Y-73866239D01*
X82995944Y-74068414D01*
X83092451Y-74257820D01*
X83217390Y-74429786D01*
X83367713Y-74580109D01*
X83539682Y-74705050D01*
X83548446Y-74709516D01*
X83599242Y-74757491D01*
X83616036Y-74825312D01*
X83593498Y-74891447D01*
X83548446Y-74930484D01*
X83539682Y-74934949D01*
X83367713Y-75059890D01*
X83217390Y-75210213D01*
X83092451Y-75382179D01*
X82995944Y-75571585D01*
X82930253Y-75773760D01*
X82897000Y-75983713D01*
X82897000Y-76196286D01*
X82930253Y-76406239D01*
X82995944Y-76608414D01*
X83092451Y-76797820D01*
X83217390Y-76969786D01*
X83367713Y-77120109D01*
X83539682Y-77245050D01*
X83548446Y-77249516D01*
X83599242Y-77297491D01*
X83616036Y-77365312D01*
X83593498Y-77431447D01*
X83548446Y-77470484D01*
X83539682Y-77474949D01*
X83367713Y-77599890D01*
X83217390Y-77750213D01*
X83092451Y-77922179D01*
X82995944Y-78111585D01*
X82930253Y-78313760D01*
X82897000Y-78523713D01*
X82897000Y-78736286D01*
X82930253Y-78946239D01*
X82995944Y-79148414D01*
X83092451Y-79337820D01*
X83217390Y-79509786D01*
X83367713Y-79660109D01*
X83539682Y-79785050D01*
X83548446Y-79789516D01*
X83599242Y-79837491D01*
X83616036Y-79905312D01*
X83593498Y-79971447D01*
X83548446Y-80010484D01*
X83539682Y-80014949D01*
X83367713Y-80139890D01*
X83217390Y-80290213D01*
X83092451Y-80462179D01*
X82995944Y-80651585D01*
X82930253Y-80853760D01*
X82897000Y-81063713D01*
X82897000Y-81276286D01*
X82930253Y-81486239D01*
X82995944Y-81688414D01*
X83092451Y-81877820D01*
X83217390Y-82049786D01*
X83367713Y-82200109D01*
X83539682Y-82325050D01*
X83548446Y-82329516D01*
X83599242Y-82377491D01*
X83616036Y-82445312D01*
X83593498Y-82511447D01*
X83548446Y-82550484D01*
X83539682Y-82554949D01*
X83367713Y-82679890D01*
X83217390Y-82830213D01*
X83092451Y-83002179D01*
X82995944Y-83191585D01*
X82930253Y-83393760D01*
X82897000Y-83603713D01*
X82897000Y-83816286D01*
X82930253Y-84026239D01*
X82995944Y-84228414D01*
X83092451Y-84417820D01*
X83217390Y-84589786D01*
X83367713Y-84740109D01*
X83539682Y-84865050D01*
X83548446Y-84869516D01*
X83599242Y-84917491D01*
X83616036Y-84985312D01*
X83593498Y-85051447D01*
X83548446Y-85090484D01*
X83539682Y-85094949D01*
X83367713Y-85219890D01*
X83217390Y-85370213D01*
X83092451Y-85542179D01*
X82995944Y-85731585D01*
X82930253Y-85933760D01*
X82897000Y-86143713D01*
X82897000Y-86356286D01*
X82930253Y-86566239D01*
X82995944Y-86768414D01*
X83092451Y-86957820D01*
X83217390Y-87129786D01*
X83367713Y-87280109D01*
X83539682Y-87405050D01*
X83548446Y-87409516D01*
X83599242Y-87457491D01*
X83616036Y-87525312D01*
X83593498Y-87591447D01*
X83548446Y-87630484D01*
X83539682Y-87634949D01*
X83367713Y-87759890D01*
X83217390Y-87910213D01*
X83092451Y-88082179D01*
X82995944Y-88271585D01*
X82930253Y-88473760D01*
X82897000Y-88683713D01*
X82897000Y-88896286D01*
X82930253Y-89106239D01*
X82995944Y-89308414D01*
X83092451Y-89497820D01*
X83217390Y-89669786D01*
X83367713Y-89820109D01*
X83539682Y-89945050D01*
X83548446Y-89949516D01*
X83599242Y-89997491D01*
X83616036Y-90065312D01*
X83593498Y-90131447D01*
X83548446Y-90170484D01*
X83539682Y-90174949D01*
X83367713Y-90299890D01*
X83217390Y-90450213D01*
X83092451Y-90622179D01*
X82995944Y-90811585D01*
X82930253Y-91013760D01*
X82897000Y-91223713D01*
X82897000Y-91436286D01*
X82930253Y-91646239D01*
X82995944Y-91848414D01*
X83092451Y-92037820D01*
X83217390Y-92209786D01*
X83367713Y-92360109D01*
X83539682Y-92485050D01*
X83548446Y-92489516D01*
X83599242Y-92537491D01*
X83616036Y-92605312D01*
X83593498Y-92671447D01*
X83548446Y-92710484D01*
X83539682Y-92714949D01*
X83367713Y-92839890D01*
X83217390Y-92990213D01*
X83092451Y-93162179D01*
X82995944Y-93351585D01*
X82930253Y-93553760D01*
X82897000Y-93763713D01*
X82897000Y-93976286D01*
X82930253Y-94186239D01*
X82995944Y-94388414D01*
X83092451Y-94577820D01*
X83217390Y-94749786D01*
X83367713Y-94900109D01*
X83539682Y-95025050D01*
X83548446Y-95029516D01*
X83599242Y-95077491D01*
X83616036Y-95145312D01*
X83593498Y-95211447D01*
X83548446Y-95250484D01*
X83539682Y-95254949D01*
X83367713Y-95379890D01*
X83217390Y-95530213D01*
X83092451Y-95702179D01*
X82995944Y-95891585D01*
X82930253Y-96093760D01*
X82897000Y-96303713D01*
X82897000Y-96516286D01*
X82930253Y-96726239D01*
X82995944Y-96928414D01*
X83092451Y-97117820D01*
X83217390Y-97289786D01*
X83367713Y-97440109D01*
X83539682Y-97565050D01*
X83548446Y-97569516D01*
X83599242Y-97617491D01*
X83616036Y-97685312D01*
X83593498Y-97751447D01*
X83548446Y-97790484D01*
X83539682Y-97794949D01*
X83367713Y-97919890D01*
X83217390Y-98070213D01*
X83092451Y-98242179D01*
X82995944Y-98431585D01*
X82930253Y-98633760D01*
X82897000Y-98843713D01*
X82897000Y-99056286D01*
X82930253Y-99266239D01*
X82995944Y-99468414D01*
X83092451Y-99657820D01*
X83217390Y-99829786D01*
X83367713Y-99980109D01*
X83539682Y-100105050D01*
X83548446Y-100109516D01*
X83599242Y-100157491D01*
X83616036Y-100225312D01*
X83593498Y-100291447D01*
X83548446Y-100330484D01*
X83539682Y-100334949D01*
X83367713Y-100459890D01*
X83217390Y-100610213D01*
X83092451Y-100782179D01*
X82995944Y-100971585D01*
X82930253Y-101173760D01*
X82897000Y-101383713D01*
X82897000Y-101596286D01*
X82930253Y-101806239D01*
X82995944Y-102008414D01*
X83092451Y-102197820D01*
X83217390Y-102369786D01*
X83367713Y-102520109D01*
X83539682Y-102645050D01*
X83548446Y-102649516D01*
X83599242Y-102697491D01*
X83616036Y-102765312D01*
X83593498Y-102831447D01*
X83548446Y-102870484D01*
X83539682Y-102874949D01*
X83367713Y-102999890D01*
X83217390Y-103150213D01*
X83092451Y-103322179D01*
X82995944Y-103511585D01*
X82930253Y-103713760D01*
X82897000Y-103923713D01*
X82897000Y-104136286D01*
X82930253Y-104346239D01*
X82995944Y-104548414D01*
X83092451Y-104737820D01*
X83217390Y-104909786D01*
X83367713Y-105060109D01*
X83539682Y-105185050D01*
X83548446Y-105189516D01*
X83599242Y-105237491D01*
X83616036Y-105305312D01*
X83593498Y-105371447D01*
X83548446Y-105410484D01*
X83539682Y-105414949D01*
X83367713Y-105539890D01*
X83217390Y-105690213D01*
X83092451Y-105862179D01*
X82995944Y-106051585D01*
X82930253Y-106253760D01*
X82897000Y-106463713D01*
X82897000Y-106676286D01*
X82930253Y-106886239D01*
X82995944Y-107088414D01*
X83092451Y-107277820D01*
X83217390Y-107449786D01*
X83367713Y-107600109D01*
X83539682Y-107725050D01*
X83548446Y-107729516D01*
X83599242Y-107777491D01*
X83616036Y-107845312D01*
X83593498Y-107911447D01*
X83548446Y-107950484D01*
X83539682Y-107954949D01*
X83367713Y-108079890D01*
X83217390Y-108230213D01*
X83092451Y-108402179D01*
X82995944Y-108591585D01*
X82930253Y-108793760D01*
X82897000Y-109003713D01*
X82897000Y-109216286D01*
X82930253Y-109426239D01*
X82995944Y-109628414D01*
X83092451Y-109817820D01*
X83217390Y-109989786D01*
X83367713Y-110140109D01*
X83539682Y-110265050D01*
X83548446Y-110269516D01*
X83599242Y-110317491D01*
X83616036Y-110385312D01*
X83593498Y-110451447D01*
X83548446Y-110490484D01*
X83539682Y-110494949D01*
X83367713Y-110619890D01*
X83217390Y-110770213D01*
X83092451Y-110942179D01*
X82995944Y-111131585D01*
X82930253Y-111333760D01*
X82897000Y-111543713D01*
X82897000Y-111756286D01*
X82930253Y-111966239D01*
X82995944Y-112168414D01*
X83092451Y-112357820D01*
X83217390Y-112529786D01*
X83367713Y-112680109D01*
X83539682Y-112805050D01*
X83548446Y-112809516D01*
X83599242Y-112857491D01*
X83616036Y-112925312D01*
X83593498Y-112991447D01*
X83548446Y-113030484D01*
X83539682Y-113034949D01*
X83367713Y-113159890D01*
X83217390Y-113310213D01*
X83092451Y-113482179D01*
X82995944Y-113671585D01*
X82930253Y-113873760D01*
X82897000Y-114083713D01*
X82897000Y-114296286D01*
X82930253Y-114506239D01*
X82995944Y-114708414D01*
X83092451Y-114897820D01*
X83217390Y-115069786D01*
X83367713Y-115220109D01*
X83539682Y-115345050D01*
X83548446Y-115349516D01*
X83599242Y-115397491D01*
X83616036Y-115465312D01*
X83593498Y-115531447D01*
X83548446Y-115570484D01*
X83539682Y-115574949D01*
X83367713Y-115699890D01*
X83217390Y-115850213D01*
X83092451Y-116022179D01*
X82995944Y-116211585D01*
X82930253Y-116413760D01*
X82897000Y-116623713D01*
X82897000Y-116836286D01*
X82930253Y-117046239D01*
X82995944Y-117248414D01*
X83092451Y-117437820D01*
X83217390Y-117609786D01*
X83367713Y-117760109D01*
X83539679Y-117885048D01*
X83539681Y-117885049D01*
X83539684Y-117885051D01*
X83729088Y-117981557D01*
X83931257Y-118047246D01*
X84141213Y-118080500D01*
X84141214Y-118080500D01*
X84353786Y-118080500D01*
X84353787Y-118080500D01*
X84563743Y-118047246D01*
X84765912Y-117981557D01*
X84955316Y-117885051D01*
X84977289Y-117869086D01*
X85127286Y-117760109D01*
X85127288Y-117760106D01*
X85127292Y-117760104D01*
X85277604Y-117609792D01*
X85277606Y-117609788D01*
X85277609Y-117609786D01*
X85402548Y-117437820D01*
X85402547Y-117437820D01*
X85402551Y-117437816D01*
X85407014Y-117429054D01*
X85454988Y-117378259D01*
X85522808Y-117361463D01*
X85588944Y-117383999D01*
X85627986Y-117429056D01*
X85632451Y-117437820D01*
X85757390Y-117609786D01*
X85907713Y-117760109D01*
X86079679Y-117885048D01*
X86079681Y-117885049D01*
X86079684Y-117885051D01*
X86269088Y-117981557D01*
X86471257Y-118047246D01*
X86681213Y-118080500D01*
X86681214Y-118080500D01*
X86893786Y-118080500D01*
X86893787Y-118080500D01*
X87103743Y-118047246D01*
X87305912Y-117981557D01*
X87495316Y-117885051D01*
X87517289Y-117869086D01*
X87667286Y-117760109D01*
X87667288Y-117760106D01*
X87667292Y-117760104D01*
X87817604Y-117609792D01*
X87899830Y-117496615D01*
X87955160Y-117453949D01*
X88000149Y-117445500D01*
X95027351Y-117445500D01*
X95094390Y-117465185D01*
X95127670Y-117496616D01*
X95209892Y-117609788D01*
X95360213Y-117760109D01*
X95532179Y-117885048D01*
X95532181Y-117885049D01*
X95532184Y-117885051D01*
X95721588Y-117981557D01*
X95923757Y-118047246D01*
X96133713Y-118080500D01*
X96133714Y-118080500D01*
X96346286Y-118080500D01*
X96346287Y-118080500D01*
X96556243Y-118047246D01*
X96758412Y-117981557D01*
X96947816Y-117885051D01*
X96969789Y-117869086D01*
X97119786Y-117760109D01*
X97119788Y-117760106D01*
X97119792Y-117760104D01*
X97270104Y-117609792D01*
X97270106Y-117609788D01*
X97270109Y-117609786D01*
X97395048Y-117437820D01*
X97395047Y-117437820D01*
X97395051Y-117437816D01*
X97399514Y-117429054D01*
X97447488Y-117378259D01*
X97515308Y-117361463D01*
X97581444Y-117383999D01*
X97620486Y-117429056D01*
X97624951Y-117437820D01*
X97749890Y-117609786D01*
X97900213Y-117760109D01*
X98072179Y-117885048D01*
X98072181Y-117885049D01*
X98072184Y-117885051D01*
X98261588Y-117981557D01*
X98463757Y-118047246D01*
X98673713Y-118080500D01*
X98673714Y-118080500D01*
X98886286Y-118080500D01*
X98886287Y-118080500D01*
X99096243Y-118047246D01*
X99298412Y-117981557D01*
X99487816Y-117885051D01*
X99509789Y-117869086D01*
X99659786Y-117760109D01*
X99659788Y-117760106D01*
X99659792Y-117760104D01*
X99810104Y-117609792D01*
X99810106Y-117609788D01*
X99810109Y-117609786D01*
X99935048Y-117437820D01*
X99935047Y-117437820D01*
X99935051Y-117437816D01*
X100031557Y-117248412D01*
X100097246Y-117046243D01*
X100130500Y-116836287D01*
X100130500Y-116623713D01*
X100097246Y-116413757D01*
X100031557Y-116211588D01*
X99935051Y-116022184D01*
X99935049Y-116022181D01*
X99935048Y-116022179D01*
X99810109Y-115850213D01*
X99659786Y-115699890D01*
X99487820Y-115574951D01*
X99487115Y-115574591D01*
X99479054Y-115570485D01*
X99428259Y-115522512D01*
X99411463Y-115454692D01*
X99433999Y-115388556D01*
X99479054Y-115349515D01*
X99487816Y-115345051D01*
X99509789Y-115329086D01*
X99659786Y-115220109D01*
X99659788Y-115220106D01*
X99659792Y-115220104D01*
X99810104Y-115069792D01*
X99810106Y-115069788D01*
X99810109Y-115069786D01*
X99935048Y-114897820D01*
X99935047Y-114897820D01*
X99935051Y-114897816D01*
X100031557Y-114708412D01*
X100097246Y-114506243D01*
X100130500Y-114296287D01*
X100130500Y-114083713D01*
X100097246Y-113873757D01*
X100031557Y-113671588D01*
X99935051Y-113482184D01*
X99935049Y-113482181D01*
X99935048Y-113482179D01*
X99810109Y-113310213D01*
X99659786Y-113159890D01*
X99487820Y-113034951D01*
X99487115Y-113034591D01*
X99479054Y-113030485D01*
X99428259Y-112982512D01*
X99411463Y-112914692D01*
X99433999Y-112848556D01*
X99479054Y-112809515D01*
X99487816Y-112805051D01*
X99509789Y-112789086D01*
X99659786Y-112680109D01*
X99659788Y-112680106D01*
X99659792Y-112680104D01*
X99810104Y-112529792D01*
X99810106Y-112529788D01*
X99810109Y-112529786D01*
X99935048Y-112357820D01*
X99935047Y-112357820D01*
X99935051Y-112357816D01*
X100031557Y-112168412D01*
X100097246Y-111966243D01*
X100130500Y-111756287D01*
X100130500Y-111543713D01*
X100097246Y-111333757D01*
X100031557Y-111131588D01*
X99935051Y-110942184D01*
X99935049Y-110942181D01*
X99935048Y-110942179D01*
X99810109Y-110770213D01*
X99659786Y-110619890D01*
X99487820Y-110494951D01*
X99487115Y-110494591D01*
X99479054Y-110490485D01*
X99428259Y-110442512D01*
X99411463Y-110374692D01*
X99433999Y-110308556D01*
X99479054Y-110269515D01*
X99487816Y-110265051D01*
X99509789Y-110249086D01*
X99659786Y-110140109D01*
X99659788Y-110140106D01*
X99659792Y-110140104D01*
X99810104Y-109989792D01*
X99810106Y-109989788D01*
X99810109Y-109989786D01*
X99935048Y-109817820D01*
X99935047Y-109817820D01*
X99935051Y-109817816D01*
X100031557Y-109628412D01*
X100097246Y-109426243D01*
X100130500Y-109216287D01*
X100130500Y-109003713D01*
X100097246Y-108793757D01*
X100031557Y-108591588D01*
X99935051Y-108402184D01*
X99935049Y-108402181D01*
X99935048Y-108402179D01*
X99810109Y-108230213D01*
X99659786Y-108079890D01*
X99487820Y-107954951D01*
X99487115Y-107954591D01*
X99479054Y-107950485D01*
X99428259Y-107902512D01*
X99411463Y-107834692D01*
X99433999Y-107768556D01*
X99479054Y-107729515D01*
X99487816Y-107725051D01*
X99509789Y-107709086D01*
X99659786Y-107600109D01*
X99659788Y-107600106D01*
X99659792Y-107600104D01*
X99810104Y-107449792D01*
X99810106Y-107449788D01*
X99810109Y-107449786D01*
X99935048Y-107277820D01*
X99935047Y-107277820D01*
X99935051Y-107277816D01*
X100031557Y-107088412D01*
X100097246Y-106886243D01*
X100130500Y-106676287D01*
X100130500Y-106463713D01*
X100097246Y-106253757D01*
X100031557Y-106051588D01*
X99935051Y-105862184D01*
X99935049Y-105862181D01*
X99935048Y-105862179D01*
X99810109Y-105690213D01*
X99659786Y-105539890D01*
X99487820Y-105414951D01*
X99487115Y-105414591D01*
X99479054Y-105410485D01*
X99428259Y-105362512D01*
X99411463Y-105294692D01*
X99433999Y-105228556D01*
X99479054Y-105189515D01*
X99487816Y-105185051D01*
X99509789Y-105169086D01*
X99659786Y-105060109D01*
X99659788Y-105060106D01*
X99659792Y-105060104D01*
X99810104Y-104909792D01*
X99810106Y-104909788D01*
X99810109Y-104909786D01*
X99935048Y-104737820D01*
X99935047Y-104737820D01*
X99935051Y-104737816D01*
X100031557Y-104548412D01*
X100097246Y-104346243D01*
X100130500Y-104136287D01*
X100130500Y-103923713D01*
X100097246Y-103713757D01*
X100031557Y-103511588D01*
X99935051Y-103322184D01*
X99935049Y-103322181D01*
X99935048Y-103322179D01*
X99810109Y-103150213D01*
X99659786Y-102999890D01*
X99487820Y-102874951D01*
X99487115Y-102874591D01*
X99479054Y-102870485D01*
X99428259Y-102822512D01*
X99411463Y-102754692D01*
X99433999Y-102688556D01*
X99479054Y-102649515D01*
X99487816Y-102645051D01*
X99509789Y-102629086D01*
X99659786Y-102520109D01*
X99659788Y-102520106D01*
X99659792Y-102520104D01*
X99810104Y-102369792D01*
X99810106Y-102369788D01*
X99810109Y-102369786D01*
X99935048Y-102197820D01*
X99935047Y-102197820D01*
X99935051Y-102197816D01*
X100031557Y-102008412D01*
X100097246Y-101806243D01*
X100130500Y-101596287D01*
X100130500Y-101383713D01*
X100097246Y-101173757D01*
X100031557Y-100971588D01*
X99935051Y-100782184D01*
X99935049Y-100782181D01*
X99935048Y-100782179D01*
X99810109Y-100610213D01*
X99659786Y-100459890D01*
X99487820Y-100334951D01*
X99487115Y-100334591D01*
X99479054Y-100330485D01*
X99428259Y-100282512D01*
X99411463Y-100214692D01*
X99433999Y-100148556D01*
X99479054Y-100109515D01*
X99487816Y-100105051D01*
X99509789Y-100089086D01*
X99659786Y-99980109D01*
X99659788Y-99980106D01*
X99659792Y-99980104D01*
X99810104Y-99829792D01*
X99810106Y-99829788D01*
X99810109Y-99829786D01*
X99935048Y-99657820D01*
X99935047Y-99657820D01*
X99935051Y-99657816D01*
X100031557Y-99468412D01*
X100097246Y-99266243D01*
X100130500Y-99056287D01*
X100130500Y-98843713D01*
X100097246Y-98633757D01*
X100031557Y-98431588D01*
X99935051Y-98242184D01*
X99935049Y-98242181D01*
X99935048Y-98242179D01*
X99810109Y-98070213D01*
X99659786Y-97919890D01*
X99487820Y-97794951D01*
X99487115Y-97794591D01*
X99479054Y-97790485D01*
X99428259Y-97742512D01*
X99411463Y-97674692D01*
X99433999Y-97608556D01*
X99479054Y-97569515D01*
X99487816Y-97565051D01*
X99509789Y-97549086D01*
X99659786Y-97440109D01*
X99659788Y-97440106D01*
X99659792Y-97440104D01*
X99810104Y-97289792D01*
X99810106Y-97289788D01*
X99810109Y-97289786D01*
X99935048Y-97117820D01*
X99935047Y-97117820D01*
X99935051Y-97117816D01*
X100031557Y-96928412D01*
X100097246Y-96726243D01*
X100130500Y-96516287D01*
X100130500Y-96303713D01*
X100097246Y-96093757D01*
X100031557Y-95891588D01*
X99935051Y-95702184D01*
X99935049Y-95702181D01*
X99935048Y-95702179D01*
X99810109Y-95530213D01*
X99659786Y-95379890D01*
X99487820Y-95254951D01*
X99487115Y-95254591D01*
X99479054Y-95250485D01*
X99428259Y-95202512D01*
X99411463Y-95134692D01*
X99433999Y-95068556D01*
X99479054Y-95029515D01*
X99487816Y-95025051D01*
X99509789Y-95009086D01*
X99659786Y-94900109D01*
X99659788Y-94900106D01*
X99659792Y-94900104D01*
X99810104Y-94749792D01*
X99810106Y-94749788D01*
X99810109Y-94749786D01*
X99935048Y-94577820D01*
X99935047Y-94577820D01*
X99935051Y-94577816D01*
X100031557Y-94388412D01*
X100097246Y-94186243D01*
X100130500Y-93976287D01*
X100130500Y-93763713D01*
X100097246Y-93553757D01*
X100031557Y-93351588D01*
X99935051Y-93162184D01*
X99935049Y-93162181D01*
X99935048Y-93162179D01*
X99810109Y-92990213D01*
X99659786Y-92839890D01*
X99487820Y-92714951D01*
X99487115Y-92714591D01*
X99479054Y-92710485D01*
X99428259Y-92662512D01*
X99411463Y-92594692D01*
X99433999Y-92528556D01*
X99479054Y-92489515D01*
X99487816Y-92485051D01*
X99509789Y-92469086D01*
X99659786Y-92360109D01*
X99659788Y-92360106D01*
X99659792Y-92360104D01*
X99810104Y-92209792D01*
X99810106Y-92209788D01*
X99810109Y-92209786D01*
X99935048Y-92037820D01*
X99935047Y-92037820D01*
X99935051Y-92037816D01*
X100031557Y-91848412D01*
X100097246Y-91646243D01*
X100130500Y-91436287D01*
X100130500Y-91223713D01*
X100097246Y-91013757D01*
X100031557Y-90811588D01*
X99935051Y-90622184D01*
X99935049Y-90622181D01*
X99935048Y-90622179D01*
X99810109Y-90450213D01*
X99659786Y-90299890D01*
X99487820Y-90174951D01*
X99487115Y-90174591D01*
X99479054Y-90170485D01*
X99428259Y-90122512D01*
X99411463Y-90054692D01*
X99433999Y-89988556D01*
X99479054Y-89949515D01*
X99487816Y-89945051D01*
X99509789Y-89929086D01*
X99659786Y-89820109D01*
X99659788Y-89820106D01*
X99659792Y-89820104D01*
X99810104Y-89669792D01*
X99810106Y-89669788D01*
X99810109Y-89669786D01*
X99935048Y-89497820D01*
X99935047Y-89497820D01*
X99935051Y-89497816D01*
X100031557Y-89308412D01*
X100097246Y-89106243D01*
X100130500Y-88896287D01*
X100130500Y-88683713D01*
X100097246Y-88473757D01*
X100031557Y-88271588D01*
X99935051Y-88082184D01*
X99935049Y-88082181D01*
X99935048Y-88082179D01*
X99810109Y-87910213D01*
X99659786Y-87759890D01*
X99487820Y-87634951D01*
X99487115Y-87634591D01*
X99479054Y-87630485D01*
X99428259Y-87582512D01*
X99411463Y-87514692D01*
X99433999Y-87448556D01*
X99479054Y-87409515D01*
X99487816Y-87405051D01*
X99509789Y-87389086D01*
X99659786Y-87280109D01*
X99659788Y-87280106D01*
X99659792Y-87280104D01*
X99810104Y-87129792D01*
X99810106Y-87129788D01*
X99810109Y-87129786D01*
X99935048Y-86957820D01*
X99935047Y-86957820D01*
X99935051Y-86957816D01*
X100031557Y-86768412D01*
X100097246Y-86566243D01*
X100130500Y-86356287D01*
X100130500Y-86143713D01*
X100097246Y-85933757D01*
X100031557Y-85731588D01*
X99935051Y-85542184D01*
X99935049Y-85542181D01*
X99935048Y-85542179D01*
X99810109Y-85370213D01*
X99659786Y-85219890D01*
X99487820Y-85094951D01*
X99487115Y-85094591D01*
X99479054Y-85090485D01*
X99428259Y-85042512D01*
X99411463Y-84974692D01*
X99433999Y-84908556D01*
X99479054Y-84869515D01*
X99487816Y-84865051D01*
X99509789Y-84849086D01*
X99659786Y-84740109D01*
X99659788Y-84740106D01*
X99659792Y-84740104D01*
X99810104Y-84589792D01*
X99810106Y-84589788D01*
X99810109Y-84589786D01*
X99935048Y-84417820D01*
X99935047Y-84417820D01*
X99935051Y-84417816D01*
X100031557Y-84228412D01*
X100097246Y-84026243D01*
X100130500Y-83816287D01*
X100130500Y-83603713D01*
X100097246Y-83393757D01*
X100031557Y-83191588D01*
X99935051Y-83002184D01*
X99935049Y-83002181D01*
X99935048Y-83002179D01*
X99810109Y-82830213D01*
X99659786Y-82679890D01*
X99487820Y-82554951D01*
X99487115Y-82554591D01*
X99479054Y-82550485D01*
X99428259Y-82502512D01*
X99411463Y-82434692D01*
X99433999Y-82368556D01*
X99479054Y-82329515D01*
X99487816Y-82325051D01*
X99509789Y-82309086D01*
X99659786Y-82200109D01*
X99659788Y-82200106D01*
X99659792Y-82200104D01*
X99810104Y-82049792D01*
X99810106Y-82049788D01*
X99810109Y-82049786D01*
X99935048Y-81877820D01*
X99935047Y-81877820D01*
X99935051Y-81877816D01*
X100031557Y-81688412D01*
X100097246Y-81486243D01*
X100130500Y-81276287D01*
X100130500Y-81063713D01*
X100097246Y-80853757D01*
X100031557Y-80651588D01*
X99935051Y-80462184D01*
X99935049Y-80462181D01*
X99935048Y-80462179D01*
X99810109Y-80290213D01*
X99659786Y-80139890D01*
X99487820Y-80014951D01*
X99487115Y-80014591D01*
X99479054Y-80010485D01*
X99428259Y-79962512D01*
X99411463Y-79894692D01*
X99433999Y-79828556D01*
X99479054Y-79789515D01*
X99487816Y-79785051D01*
X99509789Y-79769086D01*
X99659786Y-79660109D01*
X99659788Y-79660106D01*
X99659792Y-79660104D01*
X99810104Y-79509792D01*
X99810106Y-79509788D01*
X99810109Y-79509786D01*
X99935048Y-79337820D01*
X99935047Y-79337820D01*
X99935051Y-79337816D01*
X100031557Y-79148412D01*
X100097246Y-78946243D01*
X100130500Y-78736287D01*
X100130500Y-78523713D01*
X100097246Y-78313757D01*
X100031557Y-78111588D01*
X99935051Y-77922184D01*
X99935049Y-77922181D01*
X99935048Y-77922179D01*
X99810109Y-77750213D01*
X99659786Y-77599890D01*
X99487820Y-77474951D01*
X99487115Y-77474591D01*
X99479054Y-77470485D01*
X99428259Y-77422512D01*
X99411463Y-77354692D01*
X99433999Y-77288556D01*
X99479054Y-77249515D01*
X99487816Y-77245051D01*
X99509789Y-77229086D01*
X99659786Y-77120109D01*
X99659788Y-77120106D01*
X99659792Y-77120104D01*
X99810104Y-76969792D01*
X99810106Y-76969788D01*
X99810109Y-76969786D01*
X99935048Y-76797820D01*
X99935047Y-76797820D01*
X99935051Y-76797816D01*
X100031557Y-76608412D01*
X100097246Y-76406243D01*
X100130500Y-76196287D01*
X100130500Y-75983713D01*
X100097246Y-75773757D01*
X100031557Y-75571588D01*
X99935051Y-75382184D01*
X99935049Y-75382181D01*
X99935048Y-75382179D01*
X99810109Y-75210213D01*
X99659786Y-75059890D01*
X99487820Y-74934951D01*
X99487115Y-74934591D01*
X99479054Y-74930485D01*
X99428259Y-74882512D01*
X99411463Y-74814692D01*
X99433999Y-74748556D01*
X99479054Y-74709515D01*
X99487816Y-74705051D01*
X99509789Y-74689086D01*
X99659786Y-74580109D01*
X99659788Y-74580106D01*
X99659792Y-74580104D01*
X99810104Y-74429792D01*
X99810106Y-74429788D01*
X99810109Y-74429786D01*
X99935048Y-74257820D01*
X99935047Y-74257820D01*
X99935051Y-74257816D01*
X100031557Y-74068412D01*
X100097246Y-73866243D01*
X100130500Y-73656287D01*
X100130500Y-73443713D01*
X100097246Y-73233757D01*
X100031557Y-73031588D01*
X99935051Y-72842184D01*
X99935049Y-72842181D01*
X99935048Y-72842179D01*
X99810109Y-72670213D01*
X99659786Y-72519890D01*
X99487820Y-72394951D01*
X99487115Y-72394591D01*
X99479054Y-72390485D01*
X99428259Y-72342512D01*
X99411463Y-72274692D01*
X99433999Y-72208556D01*
X99479054Y-72169515D01*
X99487816Y-72165051D01*
X99509789Y-72149086D01*
X99659786Y-72040109D01*
X99659788Y-72040106D01*
X99659792Y-72040104D01*
X99810104Y-71889792D01*
X99810106Y-71889788D01*
X99810109Y-71889786D01*
X99935048Y-71717820D01*
X99935047Y-71717820D01*
X99935051Y-71717816D01*
X100031557Y-71528412D01*
X100097246Y-71326243D01*
X100130500Y-71116287D01*
X100130500Y-70903713D01*
X100097246Y-70693757D01*
X100031557Y-70491588D01*
X99935051Y-70302184D01*
X99935049Y-70302181D01*
X99935048Y-70302179D01*
X99810109Y-70130213D01*
X99659790Y-69979894D01*
X99659785Y-69979890D01*
X99654891Y-69976334D01*
X99612227Y-69921003D01*
X99606249Y-69851390D01*
X99638857Y-69789595D01*
X99688774Y-69758312D01*
X99699334Y-69754814D01*
X99848656Y-69662712D01*
X99972712Y-69538656D01*
X100064814Y-69389334D01*
X100119999Y-69222797D01*
X100130500Y-69120009D01*
X100130499Y-67819992D01*
X100130498Y-67819983D01*
X108952000Y-67819983D01*
X108952000Y-69120001D01*
X108952001Y-69120018D01*
X108962500Y-69222796D01*
X108962501Y-69222799D01*
X109017685Y-69389331D01*
X109017686Y-69389334D01*
X109109788Y-69538656D01*
X109233844Y-69662712D01*
X109383166Y-69754814D01*
X109393723Y-69758312D01*
X109451168Y-69798084D01*
X109477992Y-69862600D01*
X109465677Y-69931376D01*
X109427613Y-69976330D01*
X109422719Y-69979885D01*
X109422709Y-69979894D01*
X109272390Y-70130213D01*
X109147451Y-70302179D01*
X109050944Y-70491585D01*
X108985253Y-70693760D01*
X108952000Y-70903713D01*
X108952000Y-71116286D01*
X108985253Y-71326239D01*
X109050944Y-71528414D01*
X109147451Y-71717820D01*
X109272390Y-71889786D01*
X109422713Y-72040109D01*
X109594682Y-72165050D01*
X109603446Y-72169516D01*
X109654242Y-72217491D01*
X109671036Y-72285312D01*
X109648498Y-72351447D01*
X109603446Y-72390484D01*
X109594682Y-72394949D01*
X109422713Y-72519890D01*
X109272390Y-72670213D01*
X109147451Y-72842179D01*
X109050944Y-73031585D01*
X108985253Y-73233760D01*
X108952000Y-73443713D01*
X108952000Y-73656286D01*
X108985253Y-73866239D01*
X109050944Y-74068414D01*
X109147451Y-74257820D01*
X109272390Y-74429786D01*
X109422713Y-74580109D01*
X109594682Y-74705050D01*
X109603446Y-74709516D01*
X109654242Y-74757491D01*
X109671036Y-74825312D01*
X109648498Y-74891447D01*
X109603446Y-74930484D01*
X109594682Y-74934949D01*
X109422713Y-75059890D01*
X109272390Y-75210213D01*
X109147451Y-75382179D01*
X109050944Y-75571585D01*
X108985253Y-75773760D01*
X108952000Y-75983713D01*
X108952000Y-76196286D01*
X108985253Y-76406239D01*
X109050944Y-76608414D01*
X109147451Y-76797820D01*
X109272390Y-76969786D01*
X109422713Y-77120109D01*
X109594682Y-77245050D01*
X109603446Y-77249516D01*
X109654242Y-77297491D01*
X109671036Y-77365312D01*
X109648498Y-77431447D01*
X109603446Y-77470484D01*
X109594682Y-77474949D01*
X109422713Y-77599890D01*
X109272390Y-77750213D01*
X109147451Y-77922179D01*
X109050944Y-78111585D01*
X108985253Y-78313760D01*
X108952000Y-78523713D01*
X108952000Y-78736286D01*
X108985253Y-78946239D01*
X109050944Y-79148414D01*
X109147451Y-79337820D01*
X109272390Y-79509786D01*
X109422713Y-79660109D01*
X109594682Y-79785050D01*
X109603446Y-79789516D01*
X109654242Y-79837491D01*
X109671036Y-79905312D01*
X109648498Y-79971447D01*
X109603446Y-80010484D01*
X109594682Y-80014949D01*
X109422713Y-80139890D01*
X109272390Y-80290213D01*
X109147451Y-80462179D01*
X109050944Y-80651585D01*
X108985253Y-80853760D01*
X108952000Y-81063713D01*
X108952000Y-81276286D01*
X108985253Y-81486239D01*
X109050944Y-81688414D01*
X109147451Y-81877820D01*
X109272390Y-82049786D01*
X109422713Y-82200109D01*
X109594682Y-82325050D01*
X109603446Y-82329516D01*
X109654242Y-82377491D01*
X109671036Y-82445312D01*
X109648498Y-82511447D01*
X109603446Y-82550484D01*
X109594682Y-82554949D01*
X109422713Y-82679890D01*
X109272390Y-82830213D01*
X109147451Y-83002179D01*
X109050944Y-83191585D01*
X108985253Y-83393760D01*
X108952000Y-83603713D01*
X108952000Y-83816286D01*
X108985253Y-84026239D01*
X109050944Y-84228414D01*
X109147451Y-84417820D01*
X109272390Y-84589786D01*
X109422713Y-84740109D01*
X109594682Y-84865050D01*
X109603446Y-84869516D01*
X109654242Y-84917491D01*
X109671036Y-84985312D01*
X109648498Y-85051447D01*
X109603446Y-85090484D01*
X109594682Y-85094949D01*
X109422713Y-85219890D01*
X109272390Y-85370213D01*
X109147451Y-85542179D01*
X109050944Y-85731585D01*
X108985253Y-85933760D01*
X108952000Y-86143713D01*
X108952000Y-86356286D01*
X108985253Y-86566239D01*
X109050944Y-86768414D01*
X109147451Y-86957820D01*
X109272390Y-87129786D01*
X109422713Y-87280109D01*
X109594682Y-87405050D01*
X109603446Y-87409516D01*
X109654242Y-87457491D01*
X109671036Y-87525312D01*
X109648498Y-87591447D01*
X109603446Y-87630484D01*
X109594682Y-87634949D01*
X109422713Y-87759890D01*
X109272390Y-87910213D01*
X109147451Y-88082179D01*
X109050944Y-88271585D01*
X108985253Y-88473760D01*
X108952000Y-88683713D01*
X108952000Y-88896286D01*
X108985253Y-89106239D01*
X109050944Y-89308414D01*
X109147451Y-89497820D01*
X109272390Y-89669786D01*
X109422713Y-89820109D01*
X109594682Y-89945050D01*
X109603446Y-89949516D01*
X109654242Y-89997491D01*
X109671036Y-90065312D01*
X109648498Y-90131447D01*
X109603446Y-90170484D01*
X109594682Y-90174949D01*
X109422713Y-90299890D01*
X109272390Y-90450213D01*
X109147451Y-90622179D01*
X109050944Y-90811585D01*
X108985253Y-91013760D01*
X108952000Y-91223713D01*
X108952000Y-91436286D01*
X108985253Y-91646239D01*
X109050944Y-91848414D01*
X109147451Y-92037820D01*
X109272390Y-92209786D01*
X109422713Y-92360109D01*
X109594682Y-92485050D01*
X109603446Y-92489516D01*
X109654242Y-92537491D01*
X109671036Y-92605312D01*
X109648498Y-92671447D01*
X109603446Y-92710484D01*
X109594682Y-92714949D01*
X109422713Y-92839890D01*
X109272390Y-92990213D01*
X109147451Y-93162179D01*
X109050944Y-93351585D01*
X108985253Y-93553760D01*
X108952000Y-93763713D01*
X108952000Y-93976286D01*
X108985253Y-94186239D01*
X109050944Y-94388414D01*
X109147451Y-94577820D01*
X109272390Y-94749786D01*
X109422713Y-94900109D01*
X109594682Y-95025050D01*
X109603446Y-95029516D01*
X109654242Y-95077491D01*
X109671036Y-95145312D01*
X109648498Y-95211447D01*
X109603446Y-95250484D01*
X109594682Y-95254949D01*
X109422713Y-95379890D01*
X109272390Y-95530213D01*
X109147451Y-95702179D01*
X109050944Y-95891585D01*
X108985253Y-96093760D01*
X108952000Y-96303713D01*
X108952000Y-96516286D01*
X108985253Y-96726239D01*
X109050944Y-96928414D01*
X109147451Y-97117820D01*
X109272390Y-97289786D01*
X109422713Y-97440109D01*
X109594682Y-97565050D01*
X109603446Y-97569516D01*
X109654242Y-97617491D01*
X109671036Y-97685312D01*
X109648498Y-97751447D01*
X109603446Y-97790484D01*
X109594682Y-97794949D01*
X109422713Y-97919890D01*
X109272390Y-98070213D01*
X109147451Y-98242179D01*
X109050944Y-98431585D01*
X108985253Y-98633760D01*
X108952000Y-98843713D01*
X108952000Y-99056286D01*
X108985253Y-99266239D01*
X109050944Y-99468414D01*
X109147451Y-99657820D01*
X109272390Y-99829786D01*
X109422713Y-99980109D01*
X109594682Y-100105050D01*
X109603446Y-100109516D01*
X109654242Y-100157491D01*
X109671036Y-100225312D01*
X109648498Y-100291447D01*
X109603446Y-100330484D01*
X109594682Y-100334949D01*
X109422713Y-100459890D01*
X109272390Y-100610213D01*
X109147451Y-100782179D01*
X109050944Y-100971585D01*
X108985253Y-101173760D01*
X108952000Y-101383713D01*
X108952000Y-101596286D01*
X108985253Y-101806239D01*
X109050944Y-102008414D01*
X109147451Y-102197820D01*
X109272390Y-102369786D01*
X109422713Y-102520109D01*
X109594682Y-102645050D01*
X109603446Y-102649516D01*
X109654242Y-102697491D01*
X109671036Y-102765312D01*
X109648498Y-102831447D01*
X109603446Y-102870484D01*
X109594682Y-102874949D01*
X109422713Y-102999890D01*
X109272390Y-103150213D01*
X109147451Y-103322179D01*
X109050944Y-103511585D01*
X108985253Y-103713760D01*
X108952000Y-103923713D01*
X108952000Y-104136286D01*
X108985253Y-104346239D01*
X109050944Y-104548414D01*
X109147451Y-104737820D01*
X109272390Y-104909786D01*
X109422713Y-105060109D01*
X109594682Y-105185050D01*
X109603446Y-105189516D01*
X109654242Y-105237491D01*
X109671036Y-105305312D01*
X109648498Y-105371447D01*
X109603446Y-105410484D01*
X109594682Y-105414949D01*
X109422713Y-105539890D01*
X109272390Y-105690213D01*
X109147451Y-105862179D01*
X109050944Y-106051585D01*
X108985253Y-106253760D01*
X108952000Y-106463713D01*
X108952000Y-106676286D01*
X108985253Y-106886239D01*
X109050944Y-107088414D01*
X109147451Y-107277820D01*
X109272390Y-107449786D01*
X109422713Y-107600109D01*
X109594682Y-107725050D01*
X109603446Y-107729516D01*
X109654242Y-107777491D01*
X109671036Y-107845312D01*
X109648498Y-107911447D01*
X109603446Y-107950484D01*
X109594682Y-107954949D01*
X109422713Y-108079890D01*
X109272390Y-108230213D01*
X109147451Y-108402179D01*
X109050944Y-108591585D01*
X108985253Y-108793760D01*
X108952000Y-109003713D01*
X108952000Y-109216286D01*
X108985253Y-109426239D01*
X109050944Y-109628414D01*
X109147451Y-109817820D01*
X109272390Y-109989786D01*
X109422713Y-110140109D01*
X109594682Y-110265050D01*
X109603446Y-110269516D01*
X109654242Y-110317491D01*
X109671036Y-110385312D01*
X109648498Y-110451447D01*
X109603446Y-110490484D01*
X109594682Y-110494949D01*
X109422713Y-110619890D01*
X109272390Y-110770213D01*
X109147451Y-110942179D01*
X109050944Y-111131585D01*
X108985253Y-111333760D01*
X108952000Y-111543713D01*
X108952000Y-111756286D01*
X108985253Y-111966239D01*
X109050944Y-112168414D01*
X109147451Y-112357820D01*
X109272390Y-112529786D01*
X109422713Y-112680109D01*
X109594682Y-112805050D01*
X109603446Y-112809516D01*
X109654242Y-112857491D01*
X109671036Y-112925312D01*
X109648498Y-112991447D01*
X109603446Y-113030484D01*
X109594682Y-113034949D01*
X109422713Y-113159890D01*
X109272390Y-113310213D01*
X109147451Y-113482179D01*
X109050944Y-113671585D01*
X108985253Y-113873760D01*
X108952000Y-114083713D01*
X108952000Y-114296286D01*
X108985253Y-114506239D01*
X109050944Y-114708414D01*
X109147451Y-114897820D01*
X109272390Y-115069786D01*
X109422713Y-115220109D01*
X109594682Y-115345050D01*
X109603446Y-115349516D01*
X109654242Y-115397491D01*
X109671036Y-115465312D01*
X109648498Y-115531447D01*
X109603446Y-115570484D01*
X109594682Y-115574949D01*
X109422713Y-115699890D01*
X109272390Y-115850213D01*
X109147451Y-116022179D01*
X109050944Y-116211585D01*
X108985253Y-116413760D01*
X108952000Y-116623713D01*
X108952000Y-116836286D01*
X108985253Y-117046239D01*
X109050944Y-117248414D01*
X109147451Y-117437820D01*
X109272390Y-117609786D01*
X109422713Y-117760109D01*
X109594679Y-117885048D01*
X109594681Y-117885049D01*
X109594684Y-117885051D01*
X109784088Y-117981557D01*
X109986257Y-118047246D01*
X110196213Y-118080500D01*
X110196214Y-118080500D01*
X110408786Y-118080500D01*
X110408787Y-118080500D01*
X110618743Y-118047246D01*
X110820912Y-117981557D01*
X111010316Y-117885051D01*
X111032289Y-117869086D01*
X111182286Y-117760109D01*
X111182288Y-117760106D01*
X111182292Y-117760104D01*
X111332604Y-117609792D01*
X111332606Y-117609788D01*
X111332609Y-117609786D01*
X111457548Y-117437820D01*
X111457547Y-117437820D01*
X111457551Y-117437816D01*
X111462014Y-117429054D01*
X111509988Y-117378259D01*
X111577808Y-117361463D01*
X111643944Y-117383999D01*
X111682986Y-117429056D01*
X111687451Y-117437820D01*
X111812390Y-117609786D01*
X111962713Y-117760109D01*
X112134679Y-117885048D01*
X112134681Y-117885049D01*
X112134684Y-117885051D01*
X112324088Y-117981557D01*
X112526257Y-118047246D01*
X112736213Y-118080500D01*
X112736214Y-118080500D01*
X112948786Y-118080500D01*
X112948787Y-118080500D01*
X113158743Y-118047246D01*
X113360912Y-117981557D01*
X113550316Y-117885051D01*
X113572289Y-117869086D01*
X113722286Y-117760109D01*
X113722288Y-117760106D01*
X113722292Y-117760104D01*
X113872604Y-117609792D01*
X113954830Y-117496615D01*
X114010160Y-117453949D01*
X114055149Y-117445500D01*
X121082351Y-117445500D01*
X121149390Y-117465185D01*
X121182670Y-117496616D01*
X121264892Y-117609788D01*
X121415213Y-117760109D01*
X121587179Y-117885048D01*
X121587181Y-117885049D01*
X121587184Y-117885051D01*
X121776588Y-117981557D01*
X121978757Y-118047246D01*
X122188713Y-118080500D01*
X122188714Y-118080500D01*
X122401286Y-118080500D01*
X122401287Y-118080500D01*
X122611243Y-118047246D01*
X122813412Y-117981557D01*
X123002816Y-117885051D01*
X123024789Y-117869086D01*
X123174786Y-117760109D01*
X123174788Y-117760106D01*
X123174792Y-117760104D01*
X123325104Y-117609792D01*
X123325106Y-117609788D01*
X123325109Y-117609786D01*
X123450048Y-117437820D01*
X123450047Y-117437820D01*
X123450051Y-117437816D01*
X123454514Y-117429054D01*
X123502488Y-117378259D01*
X123570308Y-117361463D01*
X123636444Y-117383999D01*
X123675486Y-117429056D01*
X123679951Y-117437820D01*
X123804890Y-117609786D01*
X123955213Y-117760109D01*
X124127179Y-117885048D01*
X124127181Y-117885049D01*
X124127184Y-117885051D01*
X124316588Y-117981557D01*
X124518757Y-118047246D01*
X124728713Y-118080500D01*
X124728714Y-118080500D01*
X124941286Y-118080500D01*
X124941287Y-118080500D01*
X125151243Y-118047246D01*
X125353412Y-117981557D01*
X125542816Y-117885051D01*
X125564789Y-117869086D01*
X125714786Y-117760109D01*
X125714788Y-117760106D01*
X125714792Y-117760104D01*
X125865104Y-117609792D01*
X125865106Y-117609788D01*
X125865109Y-117609786D01*
X125990048Y-117437820D01*
X125990047Y-117437820D01*
X125990051Y-117437816D01*
X126086557Y-117248412D01*
X126152246Y-117046243D01*
X126185500Y-116836287D01*
X126185500Y-116623713D01*
X126152246Y-116413757D01*
X126086557Y-116211588D01*
X125990051Y-116022184D01*
X125990049Y-116022181D01*
X125990048Y-116022179D01*
X125865109Y-115850213D01*
X125714786Y-115699890D01*
X125542820Y-115574951D01*
X125542115Y-115574591D01*
X125534054Y-115570485D01*
X125483259Y-115522512D01*
X125466463Y-115454692D01*
X125488999Y-115388556D01*
X125534054Y-115349515D01*
X125542816Y-115345051D01*
X125564789Y-115329086D01*
X125714786Y-115220109D01*
X125714788Y-115220106D01*
X125714792Y-115220104D01*
X125865104Y-115069792D01*
X125865106Y-115069788D01*
X125865109Y-115069786D01*
X125990048Y-114897820D01*
X125990047Y-114897820D01*
X125990051Y-114897816D01*
X126086557Y-114708412D01*
X126152246Y-114506243D01*
X126185500Y-114296287D01*
X126185500Y-114083713D01*
X126152246Y-113873757D01*
X126086557Y-113671588D01*
X125990051Y-113482184D01*
X125990049Y-113482181D01*
X125990048Y-113482179D01*
X125865109Y-113310213D01*
X125714786Y-113159890D01*
X125542820Y-113034951D01*
X125542115Y-113034591D01*
X125534054Y-113030485D01*
X125483259Y-112982512D01*
X125466463Y-112914692D01*
X125488999Y-112848556D01*
X125534054Y-112809515D01*
X125542816Y-112805051D01*
X125564789Y-112789086D01*
X125714786Y-112680109D01*
X125714788Y-112680106D01*
X125714792Y-112680104D01*
X125865104Y-112529792D01*
X125865106Y-112529788D01*
X125865109Y-112529786D01*
X125990048Y-112357820D01*
X125990047Y-112357820D01*
X125990051Y-112357816D01*
X126086557Y-112168412D01*
X126152246Y-111966243D01*
X126185500Y-111756287D01*
X126185500Y-111543713D01*
X126152246Y-111333757D01*
X126086557Y-111131588D01*
X125990051Y-110942184D01*
X125990049Y-110942181D01*
X125990048Y-110942179D01*
X125865109Y-110770213D01*
X125714786Y-110619890D01*
X125542820Y-110494951D01*
X125542115Y-110494591D01*
X125534054Y-110490485D01*
X125483259Y-110442512D01*
X125466463Y-110374692D01*
X125488999Y-110308556D01*
X125534054Y-110269515D01*
X125542816Y-110265051D01*
X125564789Y-110249086D01*
X125714786Y-110140109D01*
X125714788Y-110140106D01*
X125714792Y-110140104D01*
X125865104Y-109989792D01*
X125865106Y-109989788D01*
X125865109Y-109989786D01*
X125990048Y-109817820D01*
X125990047Y-109817820D01*
X125990051Y-109817816D01*
X126086557Y-109628412D01*
X126152246Y-109426243D01*
X126185500Y-109216287D01*
X126185500Y-109003713D01*
X126152246Y-108793757D01*
X126086557Y-108591588D01*
X125990051Y-108402184D01*
X125990049Y-108402181D01*
X125990048Y-108402179D01*
X125865109Y-108230213D01*
X125714786Y-108079890D01*
X125542820Y-107954951D01*
X125542115Y-107954591D01*
X125534054Y-107950485D01*
X125483259Y-107902512D01*
X125466463Y-107834692D01*
X125488999Y-107768556D01*
X125534054Y-107729515D01*
X125542816Y-107725051D01*
X125564789Y-107709086D01*
X125714786Y-107600109D01*
X125714788Y-107600106D01*
X125714792Y-107600104D01*
X125865104Y-107449792D01*
X125865106Y-107449788D01*
X125865109Y-107449786D01*
X125990048Y-107277820D01*
X125990047Y-107277820D01*
X125990051Y-107277816D01*
X126086557Y-107088412D01*
X126152246Y-106886243D01*
X126185500Y-106676287D01*
X126185500Y-106463713D01*
X126152246Y-106253757D01*
X126086557Y-106051588D01*
X125990051Y-105862184D01*
X125990049Y-105862181D01*
X125990048Y-105862179D01*
X125865109Y-105690213D01*
X125714786Y-105539890D01*
X125542820Y-105414951D01*
X125542115Y-105414591D01*
X125534054Y-105410485D01*
X125483259Y-105362512D01*
X125466463Y-105294692D01*
X125488999Y-105228556D01*
X125534054Y-105189515D01*
X125542816Y-105185051D01*
X125564789Y-105169086D01*
X125714786Y-105060109D01*
X125714788Y-105060106D01*
X125714792Y-105060104D01*
X125865104Y-104909792D01*
X125865106Y-104909788D01*
X125865109Y-104909786D01*
X125990048Y-104737820D01*
X125990047Y-104737820D01*
X125990051Y-104737816D01*
X126086557Y-104548412D01*
X126152246Y-104346243D01*
X126185500Y-104136287D01*
X126185500Y-103923713D01*
X126152246Y-103713757D01*
X126086557Y-103511588D01*
X125990051Y-103322184D01*
X125990049Y-103322181D01*
X125990048Y-103322179D01*
X125865109Y-103150213D01*
X125714786Y-102999890D01*
X125542820Y-102874951D01*
X125542115Y-102874591D01*
X125534054Y-102870485D01*
X125483259Y-102822512D01*
X125466463Y-102754692D01*
X125488999Y-102688556D01*
X125534054Y-102649515D01*
X125542816Y-102645051D01*
X125564789Y-102629086D01*
X125714786Y-102520109D01*
X125714788Y-102520106D01*
X125714792Y-102520104D01*
X125865104Y-102369792D01*
X125865106Y-102369788D01*
X125865109Y-102369786D01*
X125990048Y-102197820D01*
X125990047Y-102197820D01*
X125990051Y-102197816D01*
X126086557Y-102008412D01*
X126152246Y-101806243D01*
X126185500Y-101596287D01*
X126185500Y-101383713D01*
X126152246Y-101173757D01*
X126086557Y-100971588D01*
X125990051Y-100782184D01*
X125990049Y-100782181D01*
X125990048Y-100782179D01*
X125865109Y-100610213D01*
X125714786Y-100459890D01*
X125542820Y-100334951D01*
X125542115Y-100334591D01*
X125534054Y-100330485D01*
X125483259Y-100282512D01*
X125466463Y-100214692D01*
X125488999Y-100148556D01*
X125534054Y-100109515D01*
X125542816Y-100105051D01*
X125564789Y-100089086D01*
X125714786Y-99980109D01*
X125714788Y-99980106D01*
X125714792Y-99980104D01*
X125865104Y-99829792D01*
X125865106Y-99829788D01*
X125865109Y-99829786D01*
X125990048Y-99657820D01*
X125990047Y-99657820D01*
X125990051Y-99657816D01*
X126086557Y-99468412D01*
X126152246Y-99266243D01*
X126185500Y-99056287D01*
X126185500Y-98843713D01*
X126152246Y-98633757D01*
X126086557Y-98431588D01*
X125990051Y-98242184D01*
X125990049Y-98242181D01*
X125990048Y-98242179D01*
X125865109Y-98070213D01*
X125714786Y-97919890D01*
X125542820Y-97794951D01*
X125542115Y-97794591D01*
X125534054Y-97790485D01*
X125483259Y-97742512D01*
X125466463Y-97674692D01*
X125488999Y-97608556D01*
X125534054Y-97569515D01*
X125542816Y-97565051D01*
X125564789Y-97549086D01*
X125714786Y-97440109D01*
X125714788Y-97440106D01*
X125714792Y-97440104D01*
X125865104Y-97289792D01*
X125865106Y-97289788D01*
X125865109Y-97289786D01*
X125990048Y-97117820D01*
X125990047Y-97117820D01*
X125990051Y-97117816D01*
X126086557Y-96928412D01*
X126152246Y-96726243D01*
X126185500Y-96516287D01*
X126185500Y-96303713D01*
X126152246Y-96093757D01*
X126086557Y-95891588D01*
X125990051Y-95702184D01*
X125990049Y-95702181D01*
X125990048Y-95702179D01*
X125865109Y-95530213D01*
X125714786Y-95379890D01*
X125542820Y-95254951D01*
X125542115Y-95254591D01*
X125534054Y-95250485D01*
X125483259Y-95202512D01*
X125466463Y-95134692D01*
X125488999Y-95068556D01*
X125534054Y-95029515D01*
X125542816Y-95025051D01*
X125564789Y-95009086D01*
X125714786Y-94900109D01*
X125714788Y-94900106D01*
X125714792Y-94900104D01*
X125865104Y-94749792D01*
X125865106Y-94749788D01*
X125865109Y-94749786D01*
X125990048Y-94577820D01*
X125990047Y-94577820D01*
X125990051Y-94577816D01*
X126086557Y-94388412D01*
X126152246Y-94186243D01*
X126185500Y-93976287D01*
X126185500Y-93763713D01*
X126152246Y-93553757D01*
X126086557Y-93351588D01*
X125990051Y-93162184D01*
X125990049Y-93162181D01*
X125990048Y-93162179D01*
X125865109Y-92990213D01*
X125714786Y-92839890D01*
X125542820Y-92714951D01*
X125542115Y-92714591D01*
X125534054Y-92710485D01*
X125483259Y-92662512D01*
X125466463Y-92594692D01*
X125488999Y-92528556D01*
X125534054Y-92489515D01*
X125542816Y-92485051D01*
X125564789Y-92469086D01*
X125714786Y-92360109D01*
X125714788Y-92360106D01*
X125714792Y-92360104D01*
X125865104Y-92209792D01*
X125865106Y-92209788D01*
X125865109Y-92209786D01*
X125990048Y-92037820D01*
X125990047Y-92037820D01*
X125990051Y-92037816D01*
X126086557Y-91848412D01*
X126152246Y-91646243D01*
X126185500Y-91436287D01*
X126185500Y-91223713D01*
X126152246Y-91013757D01*
X126086557Y-90811588D01*
X125990051Y-90622184D01*
X125990049Y-90622181D01*
X125990048Y-90622179D01*
X125865109Y-90450213D01*
X125714786Y-90299890D01*
X125542820Y-90174951D01*
X125542115Y-90174591D01*
X125534054Y-90170485D01*
X125483259Y-90122512D01*
X125466463Y-90054692D01*
X125488999Y-89988556D01*
X125534054Y-89949515D01*
X125542816Y-89945051D01*
X125564789Y-89929086D01*
X125714786Y-89820109D01*
X125714788Y-89820106D01*
X125714792Y-89820104D01*
X125865104Y-89669792D01*
X125865106Y-89669788D01*
X125865109Y-89669786D01*
X125990048Y-89497820D01*
X125990047Y-89497820D01*
X125990051Y-89497816D01*
X126086557Y-89308412D01*
X126152246Y-89106243D01*
X126185500Y-88896287D01*
X126185500Y-88683713D01*
X126152246Y-88473757D01*
X126086557Y-88271588D01*
X125990051Y-88082184D01*
X125990049Y-88082181D01*
X125990048Y-88082179D01*
X125865109Y-87910213D01*
X125714786Y-87759890D01*
X125542820Y-87634951D01*
X125542115Y-87634591D01*
X125534054Y-87630485D01*
X125483259Y-87582512D01*
X125466463Y-87514692D01*
X125488999Y-87448556D01*
X125534054Y-87409515D01*
X125542816Y-87405051D01*
X125564789Y-87389086D01*
X125714786Y-87280109D01*
X125714788Y-87280106D01*
X125714792Y-87280104D01*
X125865104Y-87129792D01*
X125865106Y-87129788D01*
X125865109Y-87129786D01*
X125990048Y-86957820D01*
X125990047Y-86957820D01*
X125990051Y-86957816D01*
X126086557Y-86768412D01*
X126152246Y-86566243D01*
X126185500Y-86356287D01*
X126185500Y-86143713D01*
X126152246Y-85933757D01*
X126086557Y-85731588D01*
X125990051Y-85542184D01*
X125990049Y-85542181D01*
X125990048Y-85542179D01*
X125865109Y-85370213D01*
X125714786Y-85219890D01*
X125542820Y-85094951D01*
X125542115Y-85094591D01*
X125534054Y-85090485D01*
X125483259Y-85042512D01*
X125466463Y-84974692D01*
X125488999Y-84908556D01*
X125534054Y-84869515D01*
X125542816Y-84865051D01*
X125564789Y-84849086D01*
X125714786Y-84740109D01*
X125714788Y-84740106D01*
X125714792Y-84740104D01*
X125865104Y-84589792D01*
X125865106Y-84589788D01*
X125865109Y-84589786D01*
X125990048Y-84417820D01*
X125990047Y-84417820D01*
X125990051Y-84417816D01*
X126086557Y-84228412D01*
X126152246Y-84026243D01*
X126185500Y-83816287D01*
X126185500Y-83603713D01*
X126152246Y-83393757D01*
X126086557Y-83191588D01*
X125990051Y-83002184D01*
X125990049Y-83002181D01*
X125990048Y-83002179D01*
X125865109Y-82830213D01*
X125714786Y-82679890D01*
X125542820Y-82554951D01*
X125542115Y-82554591D01*
X125534054Y-82550485D01*
X125483259Y-82502512D01*
X125466463Y-82434692D01*
X125488999Y-82368556D01*
X125534054Y-82329515D01*
X125542816Y-82325051D01*
X125564789Y-82309086D01*
X125714786Y-82200109D01*
X125714788Y-82200106D01*
X125714792Y-82200104D01*
X125865104Y-82049792D01*
X125865106Y-82049788D01*
X125865109Y-82049786D01*
X125990048Y-81877820D01*
X125990047Y-81877820D01*
X125990051Y-81877816D01*
X126086557Y-81688412D01*
X126152246Y-81486243D01*
X126185500Y-81276287D01*
X126185500Y-81063713D01*
X126152246Y-80853757D01*
X126086557Y-80651588D01*
X125990051Y-80462184D01*
X125990049Y-80462181D01*
X125990048Y-80462179D01*
X125865109Y-80290213D01*
X125714786Y-80139890D01*
X125542820Y-80014951D01*
X125542115Y-80014591D01*
X125534054Y-80010485D01*
X125483259Y-79962512D01*
X125466463Y-79894692D01*
X125488999Y-79828556D01*
X125534054Y-79789515D01*
X125542816Y-79785051D01*
X125564789Y-79769086D01*
X125714786Y-79660109D01*
X125714788Y-79660106D01*
X125714792Y-79660104D01*
X125865104Y-79509792D01*
X125865106Y-79509788D01*
X125865109Y-79509786D01*
X125990048Y-79337820D01*
X125990047Y-79337820D01*
X125990051Y-79337816D01*
X126086557Y-79148412D01*
X126152246Y-78946243D01*
X126185500Y-78736287D01*
X126185500Y-78523713D01*
X126152246Y-78313757D01*
X126086557Y-78111588D01*
X125990051Y-77922184D01*
X125990049Y-77922181D01*
X125990048Y-77922179D01*
X125865109Y-77750213D01*
X125714786Y-77599890D01*
X125542820Y-77474951D01*
X125542115Y-77474591D01*
X125534054Y-77470485D01*
X125483259Y-77422512D01*
X125466463Y-77354692D01*
X125488999Y-77288556D01*
X125534054Y-77249515D01*
X125542816Y-77245051D01*
X125564789Y-77229086D01*
X125714786Y-77120109D01*
X125714788Y-77120106D01*
X125714792Y-77120104D01*
X125865104Y-76969792D01*
X125865106Y-76969788D01*
X125865109Y-76969786D01*
X125990048Y-76797820D01*
X125990047Y-76797820D01*
X125990051Y-76797816D01*
X126086557Y-76608412D01*
X126152246Y-76406243D01*
X126185500Y-76196287D01*
X126185500Y-75983713D01*
X126152246Y-75773757D01*
X126086557Y-75571588D01*
X125990051Y-75382184D01*
X125990049Y-75382181D01*
X125990048Y-75382179D01*
X125865109Y-75210213D01*
X125714786Y-75059890D01*
X125542820Y-74934951D01*
X125542115Y-74934591D01*
X125534054Y-74930485D01*
X125483259Y-74882512D01*
X125466463Y-74814692D01*
X125488999Y-74748556D01*
X125534054Y-74709515D01*
X125542816Y-74705051D01*
X125564789Y-74689086D01*
X125714786Y-74580109D01*
X125714788Y-74580106D01*
X125714792Y-74580104D01*
X125865104Y-74429792D01*
X125865106Y-74429788D01*
X125865109Y-74429786D01*
X125990048Y-74257820D01*
X125990047Y-74257820D01*
X125990051Y-74257816D01*
X126086557Y-74068412D01*
X126152246Y-73866243D01*
X126185500Y-73656287D01*
X126185500Y-73443713D01*
X126152246Y-73233757D01*
X126086557Y-73031588D01*
X125990051Y-72842184D01*
X125990049Y-72842181D01*
X125990048Y-72842179D01*
X125865109Y-72670213D01*
X125714786Y-72519890D01*
X125542820Y-72394951D01*
X125542115Y-72394591D01*
X125534054Y-72390485D01*
X125483259Y-72342512D01*
X125466463Y-72274692D01*
X125488999Y-72208556D01*
X125534054Y-72169515D01*
X125542816Y-72165051D01*
X125564789Y-72149086D01*
X125714786Y-72040109D01*
X125714788Y-72040106D01*
X125714792Y-72040104D01*
X125865104Y-71889792D01*
X125865106Y-71889788D01*
X125865109Y-71889786D01*
X125990048Y-71717820D01*
X125990047Y-71717820D01*
X125990051Y-71717816D01*
X126086557Y-71528412D01*
X126152246Y-71326243D01*
X126185500Y-71116287D01*
X126185500Y-70903713D01*
X126152246Y-70693757D01*
X126086557Y-70491588D01*
X125990051Y-70302184D01*
X125990049Y-70302181D01*
X125990048Y-70302179D01*
X125865109Y-70130213D01*
X125714790Y-69979894D01*
X125714785Y-69979890D01*
X125709891Y-69976334D01*
X125667227Y-69921003D01*
X125661249Y-69851390D01*
X125693857Y-69789595D01*
X125743774Y-69758312D01*
X125754334Y-69754814D01*
X125903656Y-69662712D01*
X126027712Y-69538656D01*
X126119814Y-69389334D01*
X126174999Y-69222797D01*
X126185500Y-69120009D01*
X126185499Y-67819992D01*
X126185498Y-67819983D01*
X135007000Y-67819983D01*
X135007000Y-69120001D01*
X135007001Y-69120018D01*
X135017500Y-69222796D01*
X135017501Y-69222799D01*
X135072685Y-69389331D01*
X135072686Y-69389334D01*
X135164788Y-69538656D01*
X135288844Y-69662712D01*
X135438166Y-69754814D01*
X135448723Y-69758312D01*
X135506168Y-69798084D01*
X135532992Y-69862600D01*
X135520677Y-69931376D01*
X135482613Y-69976330D01*
X135477719Y-69979885D01*
X135477709Y-69979894D01*
X135327390Y-70130213D01*
X135202451Y-70302179D01*
X135105944Y-70491585D01*
X135040253Y-70693760D01*
X135007000Y-70903713D01*
X135007000Y-71116286D01*
X135040253Y-71326239D01*
X135105944Y-71528414D01*
X135202451Y-71717820D01*
X135327390Y-71889786D01*
X135477713Y-72040109D01*
X135649682Y-72165050D01*
X135658446Y-72169516D01*
X135709242Y-72217491D01*
X135726036Y-72285312D01*
X135703498Y-72351447D01*
X135658446Y-72390484D01*
X135649682Y-72394949D01*
X135477713Y-72519890D01*
X135327390Y-72670213D01*
X135202451Y-72842179D01*
X135105944Y-73031585D01*
X135040253Y-73233760D01*
X135007000Y-73443713D01*
X135007000Y-73656286D01*
X135040253Y-73866239D01*
X135105944Y-74068414D01*
X135202451Y-74257820D01*
X135327390Y-74429786D01*
X135477713Y-74580109D01*
X135649682Y-74705050D01*
X135658446Y-74709516D01*
X135709242Y-74757491D01*
X135726036Y-74825312D01*
X135703498Y-74891447D01*
X135658446Y-74930484D01*
X135649682Y-74934949D01*
X135477713Y-75059890D01*
X135327390Y-75210213D01*
X135202451Y-75382179D01*
X135105944Y-75571585D01*
X135040253Y-75773760D01*
X135007000Y-75983713D01*
X135007000Y-76196286D01*
X135040253Y-76406239D01*
X135105944Y-76608414D01*
X135202451Y-76797820D01*
X135327390Y-76969786D01*
X135477713Y-77120109D01*
X135649682Y-77245050D01*
X135658446Y-77249516D01*
X135709242Y-77297491D01*
X135726036Y-77365312D01*
X135703498Y-77431447D01*
X135658446Y-77470484D01*
X135649682Y-77474949D01*
X135477713Y-77599890D01*
X135327390Y-77750213D01*
X135202451Y-77922179D01*
X135105944Y-78111585D01*
X135040253Y-78313760D01*
X135007000Y-78523713D01*
X135007000Y-78736286D01*
X135040253Y-78946239D01*
X135105944Y-79148414D01*
X135202451Y-79337820D01*
X135327390Y-79509786D01*
X135477713Y-79660109D01*
X135649682Y-79785050D01*
X135658446Y-79789516D01*
X135709242Y-79837491D01*
X135726036Y-79905312D01*
X135703498Y-79971447D01*
X135658446Y-80010484D01*
X135649682Y-80014949D01*
X135477713Y-80139890D01*
X135327390Y-80290213D01*
X135202451Y-80462179D01*
X135105944Y-80651585D01*
X135040253Y-80853760D01*
X135007000Y-81063713D01*
X135007000Y-81276286D01*
X135040253Y-81486239D01*
X135105944Y-81688414D01*
X135202451Y-81877820D01*
X135327390Y-82049786D01*
X135477713Y-82200109D01*
X135649682Y-82325050D01*
X135658446Y-82329516D01*
X135709242Y-82377491D01*
X135726036Y-82445312D01*
X135703498Y-82511447D01*
X135658446Y-82550484D01*
X135649682Y-82554949D01*
X135477713Y-82679890D01*
X135327390Y-82830213D01*
X135202451Y-83002179D01*
X135105944Y-83191585D01*
X135040253Y-83393760D01*
X135007000Y-83603713D01*
X135007000Y-83816286D01*
X135040253Y-84026239D01*
X135105944Y-84228414D01*
X135202451Y-84417820D01*
X135327390Y-84589786D01*
X135477713Y-84740109D01*
X135649682Y-84865050D01*
X135658446Y-84869516D01*
X135709242Y-84917491D01*
X135726036Y-84985312D01*
X135703498Y-85051447D01*
X135658446Y-85090484D01*
X135649682Y-85094949D01*
X135477713Y-85219890D01*
X135327390Y-85370213D01*
X135202451Y-85542179D01*
X135105944Y-85731585D01*
X135040253Y-85933760D01*
X135007000Y-86143713D01*
X135007000Y-86356286D01*
X135040253Y-86566239D01*
X135105944Y-86768414D01*
X135202451Y-86957820D01*
X135327390Y-87129786D01*
X135477713Y-87280109D01*
X135649682Y-87405050D01*
X135658446Y-87409516D01*
X135709242Y-87457491D01*
X135726036Y-87525312D01*
X135703498Y-87591447D01*
X135658446Y-87630484D01*
X135649682Y-87634949D01*
X135477713Y-87759890D01*
X135327390Y-87910213D01*
X135202451Y-88082179D01*
X135105944Y-88271585D01*
X135040253Y-88473760D01*
X135007000Y-88683713D01*
X135007000Y-88896286D01*
X135040253Y-89106239D01*
X135105944Y-89308414D01*
X135202451Y-89497820D01*
X135327390Y-89669786D01*
X135477713Y-89820109D01*
X135649682Y-89945050D01*
X135658446Y-89949516D01*
X135709242Y-89997491D01*
X135726036Y-90065312D01*
X135703498Y-90131447D01*
X135658446Y-90170484D01*
X135649682Y-90174949D01*
X135477713Y-90299890D01*
X135327390Y-90450213D01*
X135202451Y-90622179D01*
X135105944Y-90811585D01*
X135040253Y-91013760D01*
X135007000Y-91223713D01*
X135007000Y-91436286D01*
X135040253Y-91646239D01*
X135105944Y-91848414D01*
X135202451Y-92037820D01*
X135327390Y-92209786D01*
X135477713Y-92360109D01*
X135649682Y-92485050D01*
X135658446Y-92489516D01*
X135709242Y-92537491D01*
X135726036Y-92605312D01*
X135703498Y-92671447D01*
X135658446Y-92710484D01*
X135649682Y-92714949D01*
X135477713Y-92839890D01*
X135327390Y-92990213D01*
X135202451Y-93162179D01*
X135105944Y-93351585D01*
X135040253Y-93553760D01*
X135007000Y-93763713D01*
X135007000Y-93976286D01*
X135040253Y-94186239D01*
X135105944Y-94388414D01*
X135202451Y-94577820D01*
X135327390Y-94749786D01*
X135477713Y-94900109D01*
X135649682Y-95025050D01*
X135658446Y-95029516D01*
X135709242Y-95077491D01*
X135726036Y-95145312D01*
X135703498Y-95211447D01*
X135658446Y-95250484D01*
X135649682Y-95254949D01*
X135477713Y-95379890D01*
X135327390Y-95530213D01*
X135202451Y-95702179D01*
X135105944Y-95891585D01*
X135040253Y-96093760D01*
X135007000Y-96303713D01*
X135007000Y-96516286D01*
X135040253Y-96726239D01*
X135105944Y-96928414D01*
X135202451Y-97117820D01*
X135327390Y-97289786D01*
X135477713Y-97440109D01*
X135649682Y-97565050D01*
X135658446Y-97569516D01*
X135709242Y-97617491D01*
X135726036Y-97685312D01*
X135703498Y-97751447D01*
X135658446Y-97790484D01*
X135649682Y-97794949D01*
X135477713Y-97919890D01*
X135327390Y-98070213D01*
X135202451Y-98242179D01*
X135105944Y-98431585D01*
X135040253Y-98633760D01*
X135007000Y-98843713D01*
X135007000Y-99056286D01*
X135040253Y-99266239D01*
X135105944Y-99468414D01*
X135202451Y-99657820D01*
X135327390Y-99829786D01*
X135477713Y-99980109D01*
X135649682Y-100105050D01*
X135658446Y-100109516D01*
X135709242Y-100157491D01*
X135726036Y-100225312D01*
X135703498Y-100291447D01*
X135658446Y-100330484D01*
X135649682Y-100334949D01*
X135477713Y-100459890D01*
X135327390Y-100610213D01*
X135202451Y-100782179D01*
X135105944Y-100971585D01*
X135040253Y-101173760D01*
X135007000Y-101383713D01*
X135007000Y-101596286D01*
X135040253Y-101806239D01*
X135105944Y-102008414D01*
X135202451Y-102197820D01*
X135327390Y-102369786D01*
X135477713Y-102520109D01*
X135649682Y-102645050D01*
X135658446Y-102649516D01*
X135709242Y-102697491D01*
X135726036Y-102765312D01*
X135703498Y-102831447D01*
X135658446Y-102870484D01*
X135649682Y-102874949D01*
X135477713Y-102999890D01*
X135327390Y-103150213D01*
X135202451Y-103322179D01*
X135105944Y-103511585D01*
X135040253Y-103713760D01*
X135007000Y-103923713D01*
X135007000Y-104136286D01*
X135040253Y-104346239D01*
X135105944Y-104548414D01*
X135202451Y-104737820D01*
X135327390Y-104909786D01*
X135477713Y-105060109D01*
X135649682Y-105185050D01*
X135658446Y-105189516D01*
X135709242Y-105237491D01*
X135726036Y-105305312D01*
X135703498Y-105371447D01*
X135658446Y-105410484D01*
X135649682Y-105414949D01*
X135477713Y-105539890D01*
X135327390Y-105690213D01*
X135202451Y-105862179D01*
X135105944Y-106051585D01*
X135040253Y-106253760D01*
X135007000Y-106463713D01*
X135007000Y-106676286D01*
X135040253Y-106886239D01*
X135105944Y-107088414D01*
X135202451Y-107277820D01*
X135327390Y-107449786D01*
X135477713Y-107600109D01*
X135649682Y-107725050D01*
X135658446Y-107729516D01*
X135709242Y-107777491D01*
X135726036Y-107845312D01*
X135703498Y-107911447D01*
X135658446Y-107950484D01*
X135649682Y-107954949D01*
X135477713Y-108079890D01*
X135327390Y-108230213D01*
X135202451Y-108402179D01*
X135105944Y-108591585D01*
X135040253Y-108793760D01*
X135007000Y-109003713D01*
X135007000Y-109216286D01*
X135040253Y-109426239D01*
X135105944Y-109628414D01*
X135202451Y-109817820D01*
X135327390Y-109989786D01*
X135477713Y-110140109D01*
X135649682Y-110265050D01*
X135658446Y-110269516D01*
X135709242Y-110317491D01*
X135726036Y-110385312D01*
X135703498Y-110451447D01*
X135658446Y-110490484D01*
X135649682Y-110494949D01*
X135477713Y-110619890D01*
X135327390Y-110770213D01*
X135202451Y-110942179D01*
X135105944Y-111131585D01*
X135040253Y-111333760D01*
X135007000Y-111543713D01*
X135007000Y-111756286D01*
X135040253Y-111966239D01*
X135105944Y-112168414D01*
X135202451Y-112357820D01*
X135327390Y-112529786D01*
X135477713Y-112680109D01*
X135649682Y-112805050D01*
X135658446Y-112809516D01*
X135709242Y-112857491D01*
X135726036Y-112925312D01*
X135703498Y-112991447D01*
X135658446Y-113030484D01*
X135649682Y-113034949D01*
X135477713Y-113159890D01*
X135327390Y-113310213D01*
X135202451Y-113482179D01*
X135105944Y-113671585D01*
X135040253Y-113873760D01*
X135007000Y-114083713D01*
X135007000Y-114296286D01*
X135040253Y-114506239D01*
X135105944Y-114708414D01*
X135202451Y-114897820D01*
X135327390Y-115069786D01*
X135477713Y-115220109D01*
X135649682Y-115345050D01*
X135658446Y-115349516D01*
X135709242Y-115397491D01*
X135726036Y-115465312D01*
X135703498Y-115531447D01*
X135658446Y-115570484D01*
X135649682Y-115574949D01*
X135477713Y-115699890D01*
X135327390Y-115850213D01*
X135202451Y-116022179D01*
X135105944Y-116211585D01*
X135040253Y-116413760D01*
X135007000Y-116623713D01*
X135007000Y-116836286D01*
X135040253Y-117046239D01*
X135105944Y-117248414D01*
X135202451Y-117437820D01*
X135327390Y-117609786D01*
X135477713Y-117760109D01*
X135649679Y-117885048D01*
X135649681Y-117885049D01*
X135649684Y-117885051D01*
X135839088Y-117981557D01*
X136041257Y-118047246D01*
X136251213Y-118080500D01*
X136251214Y-118080500D01*
X136463786Y-118080500D01*
X136463787Y-118080500D01*
X136673743Y-118047246D01*
X136875912Y-117981557D01*
X137065316Y-117885051D01*
X137087289Y-117869086D01*
X137237286Y-117760109D01*
X137237288Y-117760106D01*
X137237292Y-117760104D01*
X137387604Y-117609792D01*
X137387606Y-117609788D01*
X137387609Y-117609786D01*
X137512548Y-117437820D01*
X137512547Y-117437820D01*
X137512551Y-117437816D01*
X137517014Y-117429054D01*
X137564988Y-117378259D01*
X137632808Y-117361463D01*
X137698944Y-117383999D01*
X137737986Y-117429056D01*
X137742451Y-117437820D01*
X137867390Y-117609786D01*
X138017713Y-117760109D01*
X138189679Y-117885048D01*
X138189681Y-117885049D01*
X138189684Y-117885051D01*
X138379088Y-117981557D01*
X138581257Y-118047246D01*
X138791213Y-118080500D01*
X138791214Y-118080500D01*
X139003786Y-118080500D01*
X139003787Y-118080500D01*
X139213743Y-118047246D01*
X139415912Y-117981557D01*
X139605316Y-117885051D01*
X139627289Y-117869086D01*
X139777286Y-117760109D01*
X139777288Y-117760106D01*
X139777292Y-117760104D01*
X139927604Y-117609792D01*
X140009830Y-117496615D01*
X140065160Y-117453949D01*
X140110149Y-117445500D01*
X147137351Y-117445500D01*
X147204390Y-117465185D01*
X147237670Y-117496616D01*
X147319892Y-117609788D01*
X147470213Y-117760109D01*
X147642179Y-117885048D01*
X147642181Y-117885049D01*
X147642184Y-117885051D01*
X147831588Y-117981557D01*
X148033757Y-118047246D01*
X148243713Y-118080500D01*
X148243714Y-118080500D01*
X148456286Y-118080500D01*
X148456287Y-118080500D01*
X148666243Y-118047246D01*
X148868412Y-117981557D01*
X149057816Y-117885051D01*
X149079789Y-117869086D01*
X149229786Y-117760109D01*
X149229788Y-117760106D01*
X149229792Y-117760104D01*
X149380104Y-117609792D01*
X149380106Y-117609788D01*
X149380109Y-117609786D01*
X149505048Y-117437820D01*
X149505047Y-117437820D01*
X149505051Y-117437816D01*
X149509514Y-117429054D01*
X149557488Y-117378259D01*
X149625308Y-117361463D01*
X149691444Y-117383999D01*
X149730486Y-117429056D01*
X149734951Y-117437820D01*
X149859890Y-117609786D01*
X150010213Y-117760109D01*
X150182179Y-117885048D01*
X150182181Y-117885049D01*
X150182184Y-117885051D01*
X150371588Y-117981557D01*
X150573757Y-118047246D01*
X150783713Y-118080500D01*
X150783714Y-118080500D01*
X150996286Y-118080500D01*
X150996287Y-118080500D01*
X151206243Y-118047246D01*
X151408412Y-117981557D01*
X151597816Y-117885051D01*
X151619789Y-117869086D01*
X151769786Y-117760109D01*
X151769788Y-117760106D01*
X151769792Y-117760104D01*
X151920104Y-117609792D01*
X151920106Y-117609788D01*
X151920109Y-117609786D01*
X152045048Y-117437820D01*
X152045047Y-117437820D01*
X152045051Y-117437816D01*
X152141557Y-117248412D01*
X152207246Y-117046243D01*
X152240500Y-116836287D01*
X152240500Y-116623713D01*
X152207246Y-116413757D01*
X152141557Y-116211588D01*
X152045051Y-116022184D01*
X152045049Y-116022181D01*
X152045048Y-116022179D01*
X151920109Y-115850213D01*
X151769786Y-115699890D01*
X151597820Y-115574951D01*
X151597115Y-115574591D01*
X151589054Y-115570485D01*
X151538259Y-115522512D01*
X151521463Y-115454692D01*
X151543999Y-115388556D01*
X151589054Y-115349515D01*
X151597816Y-115345051D01*
X151619789Y-115329086D01*
X151769786Y-115220109D01*
X151769788Y-115220106D01*
X151769792Y-115220104D01*
X151920104Y-115069792D01*
X151920106Y-115069788D01*
X151920109Y-115069786D01*
X152045048Y-114897820D01*
X152045047Y-114897820D01*
X152045051Y-114897816D01*
X152141557Y-114708412D01*
X152207246Y-114506243D01*
X152240500Y-114296287D01*
X152240500Y-114083713D01*
X152207246Y-113873757D01*
X152141557Y-113671588D01*
X152045051Y-113482184D01*
X152045049Y-113482181D01*
X152045048Y-113482179D01*
X151920109Y-113310213D01*
X151769786Y-113159890D01*
X151597820Y-113034951D01*
X151597115Y-113034591D01*
X151589054Y-113030485D01*
X151538259Y-112982512D01*
X151521463Y-112914692D01*
X151543999Y-112848556D01*
X151589054Y-112809515D01*
X151597816Y-112805051D01*
X151619789Y-112789086D01*
X151769786Y-112680109D01*
X151769788Y-112680106D01*
X151769792Y-112680104D01*
X151920104Y-112529792D01*
X151920106Y-112529788D01*
X151920109Y-112529786D01*
X152045048Y-112357820D01*
X152045047Y-112357820D01*
X152045051Y-112357816D01*
X152141557Y-112168412D01*
X152207246Y-111966243D01*
X152240500Y-111756287D01*
X152240500Y-111543713D01*
X152207246Y-111333757D01*
X152141557Y-111131588D01*
X152045051Y-110942184D01*
X152045049Y-110942181D01*
X152045048Y-110942179D01*
X151920109Y-110770213D01*
X151769786Y-110619890D01*
X151597820Y-110494951D01*
X151597115Y-110494591D01*
X151589054Y-110490485D01*
X151538259Y-110442512D01*
X151521463Y-110374692D01*
X151543999Y-110308556D01*
X151589054Y-110269515D01*
X151597816Y-110265051D01*
X151619789Y-110249086D01*
X151769786Y-110140109D01*
X151769788Y-110140106D01*
X151769792Y-110140104D01*
X151920104Y-109989792D01*
X151920106Y-109989788D01*
X151920109Y-109989786D01*
X152045048Y-109817820D01*
X152045047Y-109817820D01*
X152045051Y-109817816D01*
X152141557Y-109628412D01*
X152207246Y-109426243D01*
X152240500Y-109216287D01*
X152240500Y-109003713D01*
X152207246Y-108793757D01*
X152141557Y-108591588D01*
X152045051Y-108402184D01*
X152045049Y-108402181D01*
X152045048Y-108402179D01*
X151920109Y-108230213D01*
X151769786Y-108079890D01*
X151597820Y-107954951D01*
X151597115Y-107954591D01*
X151589054Y-107950485D01*
X151538259Y-107902512D01*
X151521463Y-107834692D01*
X151543999Y-107768556D01*
X151589054Y-107729515D01*
X151597816Y-107725051D01*
X151619789Y-107709086D01*
X151769786Y-107600109D01*
X151769788Y-107600106D01*
X151769792Y-107600104D01*
X151920104Y-107449792D01*
X151920106Y-107449788D01*
X151920109Y-107449786D01*
X152045048Y-107277820D01*
X152045047Y-107277820D01*
X152045051Y-107277816D01*
X152141557Y-107088412D01*
X152207246Y-106886243D01*
X152240500Y-106676287D01*
X152240500Y-106463713D01*
X152207246Y-106253757D01*
X152141557Y-106051588D01*
X152045051Y-105862184D01*
X152045049Y-105862181D01*
X152045048Y-105862179D01*
X151920109Y-105690213D01*
X151769786Y-105539890D01*
X151597820Y-105414951D01*
X151597115Y-105414591D01*
X151589054Y-105410485D01*
X151538259Y-105362512D01*
X151521463Y-105294692D01*
X151543999Y-105228556D01*
X151589054Y-105189515D01*
X151597816Y-105185051D01*
X151619789Y-105169086D01*
X151769786Y-105060109D01*
X151769788Y-105060106D01*
X151769792Y-105060104D01*
X151920104Y-104909792D01*
X151920106Y-104909788D01*
X151920109Y-104909786D01*
X152045048Y-104737820D01*
X152045047Y-104737820D01*
X152045051Y-104737816D01*
X152141557Y-104548412D01*
X152207246Y-104346243D01*
X152240500Y-104136287D01*
X152240500Y-103923713D01*
X152207246Y-103713757D01*
X152141557Y-103511588D01*
X152045051Y-103322184D01*
X152045049Y-103322181D01*
X152045048Y-103322179D01*
X151920109Y-103150213D01*
X151769786Y-102999890D01*
X151597820Y-102874951D01*
X151597115Y-102874591D01*
X151589054Y-102870485D01*
X151538259Y-102822512D01*
X151521463Y-102754692D01*
X151543999Y-102688556D01*
X151589054Y-102649515D01*
X151597816Y-102645051D01*
X151619789Y-102629086D01*
X151769786Y-102520109D01*
X151769788Y-102520106D01*
X151769792Y-102520104D01*
X151920104Y-102369792D01*
X151920106Y-102369788D01*
X151920109Y-102369786D01*
X152045048Y-102197820D01*
X152045047Y-102197820D01*
X152045051Y-102197816D01*
X152141557Y-102008412D01*
X152207246Y-101806243D01*
X152240500Y-101596287D01*
X152240500Y-101383713D01*
X152207246Y-101173757D01*
X152141557Y-100971588D01*
X152045051Y-100782184D01*
X152045049Y-100782181D01*
X152045048Y-100782179D01*
X151920109Y-100610213D01*
X151769786Y-100459890D01*
X151597820Y-100334951D01*
X151597115Y-100334591D01*
X151589054Y-100330485D01*
X151538259Y-100282512D01*
X151521463Y-100214692D01*
X151543999Y-100148556D01*
X151589054Y-100109515D01*
X151597816Y-100105051D01*
X151619789Y-100089086D01*
X151769786Y-99980109D01*
X151769788Y-99980106D01*
X151769792Y-99980104D01*
X151920104Y-99829792D01*
X151920106Y-99829788D01*
X151920109Y-99829786D01*
X152045048Y-99657820D01*
X152045047Y-99657820D01*
X152045051Y-99657816D01*
X152141557Y-99468412D01*
X152207246Y-99266243D01*
X152240500Y-99056287D01*
X152240500Y-98843713D01*
X152207246Y-98633757D01*
X152141557Y-98431588D01*
X152045051Y-98242184D01*
X152045049Y-98242181D01*
X152045048Y-98242179D01*
X151920109Y-98070213D01*
X151769786Y-97919890D01*
X151597820Y-97794951D01*
X151597115Y-97794591D01*
X151589054Y-97790485D01*
X151538259Y-97742512D01*
X151521463Y-97674692D01*
X151543999Y-97608556D01*
X151589054Y-97569515D01*
X151597816Y-97565051D01*
X151619789Y-97549086D01*
X151769786Y-97440109D01*
X151769788Y-97440106D01*
X151769792Y-97440104D01*
X151920104Y-97289792D01*
X151920106Y-97289788D01*
X151920109Y-97289786D01*
X152045048Y-97117820D01*
X152045047Y-97117820D01*
X152045051Y-97117816D01*
X152141557Y-96928412D01*
X152207246Y-96726243D01*
X152240500Y-96516287D01*
X152240500Y-96303713D01*
X152207246Y-96093757D01*
X152141557Y-95891588D01*
X152045051Y-95702184D01*
X152045049Y-95702181D01*
X152045048Y-95702179D01*
X151920109Y-95530213D01*
X151769786Y-95379890D01*
X151597820Y-95254951D01*
X151597115Y-95254591D01*
X151589054Y-95250485D01*
X151538259Y-95202512D01*
X151521463Y-95134692D01*
X151543999Y-95068556D01*
X151589054Y-95029515D01*
X151597816Y-95025051D01*
X151619789Y-95009086D01*
X151769786Y-94900109D01*
X151769788Y-94900106D01*
X151769792Y-94900104D01*
X151920104Y-94749792D01*
X151920106Y-94749788D01*
X151920109Y-94749786D01*
X152045048Y-94577820D01*
X152045047Y-94577820D01*
X152045051Y-94577816D01*
X152141557Y-94388412D01*
X152207246Y-94186243D01*
X152240500Y-93976287D01*
X152240500Y-93763713D01*
X152207246Y-93553757D01*
X152141557Y-93351588D01*
X152045051Y-93162184D01*
X152045049Y-93162181D01*
X152045048Y-93162179D01*
X151920109Y-92990213D01*
X151769786Y-92839890D01*
X151597820Y-92714951D01*
X151597115Y-92714591D01*
X151589054Y-92710485D01*
X151538259Y-92662512D01*
X151521463Y-92594692D01*
X151543999Y-92528556D01*
X151589054Y-92489515D01*
X151597816Y-92485051D01*
X151619789Y-92469086D01*
X151769786Y-92360109D01*
X151769788Y-92360106D01*
X151769792Y-92360104D01*
X151920104Y-92209792D01*
X151920106Y-92209788D01*
X151920109Y-92209786D01*
X152045048Y-92037820D01*
X152045047Y-92037820D01*
X152045051Y-92037816D01*
X152141557Y-91848412D01*
X152207246Y-91646243D01*
X152240500Y-91436287D01*
X152240500Y-91223713D01*
X152207246Y-91013757D01*
X152141557Y-90811588D01*
X152045051Y-90622184D01*
X152045049Y-90622181D01*
X152045048Y-90622179D01*
X151920109Y-90450213D01*
X151769786Y-90299890D01*
X151597820Y-90174951D01*
X151597115Y-90174591D01*
X151589054Y-90170485D01*
X151538259Y-90122512D01*
X151521463Y-90054692D01*
X151543999Y-89988556D01*
X151589054Y-89949515D01*
X151597816Y-89945051D01*
X151619789Y-89929086D01*
X151769786Y-89820109D01*
X151769788Y-89820106D01*
X151769792Y-89820104D01*
X151920104Y-89669792D01*
X151920106Y-89669788D01*
X151920109Y-89669786D01*
X152045048Y-89497820D01*
X152045047Y-89497820D01*
X152045051Y-89497816D01*
X152141557Y-89308412D01*
X152207246Y-89106243D01*
X152240500Y-88896287D01*
X152240500Y-88683713D01*
X152207246Y-88473757D01*
X152141557Y-88271588D01*
X152045051Y-88082184D01*
X152045049Y-88082181D01*
X152045048Y-88082179D01*
X151920109Y-87910213D01*
X151769786Y-87759890D01*
X151597820Y-87634951D01*
X151597115Y-87634591D01*
X151589054Y-87630485D01*
X151538259Y-87582512D01*
X151521463Y-87514692D01*
X151543999Y-87448556D01*
X151589054Y-87409515D01*
X151597816Y-87405051D01*
X151619789Y-87389086D01*
X151769786Y-87280109D01*
X151769788Y-87280106D01*
X151769792Y-87280104D01*
X151920104Y-87129792D01*
X151920106Y-87129788D01*
X151920109Y-87129786D01*
X152045048Y-86957820D01*
X152045047Y-86957820D01*
X152045051Y-86957816D01*
X152141557Y-86768412D01*
X152207246Y-86566243D01*
X152240500Y-86356287D01*
X152240500Y-86143713D01*
X152207246Y-85933757D01*
X152141557Y-85731588D01*
X152045051Y-85542184D01*
X152045049Y-85542181D01*
X152045048Y-85542179D01*
X151920109Y-85370213D01*
X151769786Y-85219890D01*
X151597820Y-85094951D01*
X151597115Y-85094591D01*
X151589054Y-85090485D01*
X151538259Y-85042512D01*
X151521463Y-84974692D01*
X151543999Y-84908556D01*
X151589054Y-84869515D01*
X151597816Y-84865051D01*
X151619789Y-84849086D01*
X151769786Y-84740109D01*
X151769788Y-84740106D01*
X151769792Y-84740104D01*
X151920104Y-84589792D01*
X151920106Y-84589788D01*
X151920109Y-84589786D01*
X152045048Y-84417820D01*
X152045047Y-84417820D01*
X152045051Y-84417816D01*
X152141557Y-84228412D01*
X152207246Y-84026243D01*
X152240500Y-83816287D01*
X152240500Y-83603713D01*
X152207246Y-83393757D01*
X152141557Y-83191588D01*
X152045051Y-83002184D01*
X152045049Y-83002181D01*
X152045048Y-83002179D01*
X151920109Y-82830213D01*
X151769786Y-82679890D01*
X151597820Y-82554951D01*
X151597115Y-82554591D01*
X151589054Y-82550485D01*
X151538259Y-82502512D01*
X151521463Y-82434692D01*
X151543999Y-82368556D01*
X151589054Y-82329515D01*
X151597816Y-82325051D01*
X151619789Y-82309086D01*
X151769786Y-82200109D01*
X151769788Y-82200106D01*
X151769792Y-82200104D01*
X151920104Y-82049792D01*
X151920106Y-82049788D01*
X151920109Y-82049786D01*
X152045048Y-81877820D01*
X152045047Y-81877820D01*
X152045051Y-81877816D01*
X152141557Y-81688412D01*
X152207246Y-81486243D01*
X152240500Y-81276287D01*
X152240500Y-81063713D01*
X152207246Y-80853757D01*
X152141557Y-80651588D01*
X152045051Y-80462184D01*
X152045049Y-80462181D01*
X152045048Y-80462179D01*
X151920109Y-80290213D01*
X151769786Y-80139890D01*
X151597820Y-80014951D01*
X151597115Y-80014591D01*
X151589054Y-80010485D01*
X151538259Y-79962512D01*
X151521463Y-79894692D01*
X151543999Y-79828556D01*
X151589054Y-79789515D01*
X151597816Y-79785051D01*
X151619789Y-79769086D01*
X151769786Y-79660109D01*
X151769788Y-79660106D01*
X151769792Y-79660104D01*
X151920104Y-79509792D01*
X151920106Y-79509788D01*
X151920109Y-79509786D01*
X152045048Y-79337820D01*
X152045047Y-79337820D01*
X152045051Y-79337816D01*
X152141557Y-79148412D01*
X152207246Y-78946243D01*
X152240500Y-78736287D01*
X152240500Y-78523713D01*
X152207246Y-78313757D01*
X152141557Y-78111588D01*
X152045051Y-77922184D01*
X152045049Y-77922181D01*
X152045048Y-77922179D01*
X151920109Y-77750213D01*
X151769786Y-77599890D01*
X151597820Y-77474951D01*
X151597115Y-77474591D01*
X151589054Y-77470485D01*
X151538259Y-77422512D01*
X151521463Y-77354692D01*
X151543999Y-77288556D01*
X151589054Y-77249515D01*
X151597816Y-77245051D01*
X151619789Y-77229086D01*
X151769786Y-77120109D01*
X151769788Y-77120106D01*
X151769792Y-77120104D01*
X151920104Y-76969792D01*
X151920106Y-76969788D01*
X151920109Y-76969786D01*
X152045048Y-76797820D01*
X152045047Y-76797820D01*
X152045051Y-76797816D01*
X152141557Y-76608412D01*
X152207246Y-76406243D01*
X152240500Y-76196287D01*
X152240500Y-75983713D01*
X152207246Y-75773757D01*
X152141557Y-75571588D01*
X152045051Y-75382184D01*
X152045049Y-75382181D01*
X152045048Y-75382179D01*
X151920109Y-75210213D01*
X151769786Y-75059890D01*
X151597820Y-74934951D01*
X151597115Y-74934591D01*
X151589054Y-74930485D01*
X151538259Y-74882512D01*
X151521463Y-74814692D01*
X151543999Y-74748556D01*
X151589054Y-74709515D01*
X151597816Y-74705051D01*
X151619789Y-74689086D01*
X151769786Y-74580109D01*
X151769788Y-74580106D01*
X151769792Y-74580104D01*
X151920104Y-74429792D01*
X151920106Y-74429788D01*
X151920109Y-74429786D01*
X152045048Y-74257820D01*
X152045047Y-74257820D01*
X152045051Y-74257816D01*
X152141557Y-74068412D01*
X152207246Y-73866243D01*
X152240500Y-73656287D01*
X152240500Y-73443713D01*
X152207246Y-73233757D01*
X152141557Y-73031588D01*
X152045051Y-72842184D01*
X152045049Y-72842181D01*
X152045048Y-72842179D01*
X151920109Y-72670213D01*
X151769786Y-72519890D01*
X151597820Y-72394951D01*
X151597115Y-72394591D01*
X151589054Y-72390485D01*
X151538259Y-72342512D01*
X151521463Y-72274692D01*
X151543999Y-72208556D01*
X151589054Y-72169515D01*
X151597816Y-72165051D01*
X151619789Y-72149086D01*
X151769786Y-72040109D01*
X151769788Y-72040106D01*
X151769792Y-72040104D01*
X151920104Y-71889792D01*
X151920106Y-71889788D01*
X151920109Y-71889786D01*
X152045048Y-71717820D01*
X152045047Y-71717820D01*
X152045051Y-71717816D01*
X152141557Y-71528412D01*
X152207246Y-71326243D01*
X152240500Y-71116287D01*
X152240500Y-70903713D01*
X152207246Y-70693757D01*
X152141557Y-70491588D01*
X152045051Y-70302184D01*
X152045049Y-70302181D01*
X152045048Y-70302179D01*
X151920109Y-70130213D01*
X151769790Y-69979894D01*
X151769785Y-69979890D01*
X151764891Y-69976334D01*
X151722227Y-69921003D01*
X151716249Y-69851390D01*
X151748857Y-69789595D01*
X151798774Y-69758312D01*
X151809334Y-69754814D01*
X151958656Y-69662712D01*
X152082712Y-69538656D01*
X152174814Y-69389334D01*
X152229999Y-69222797D01*
X152240500Y-69120009D01*
X152240499Y-67819992D01*
X152240498Y-67819983D01*
X161062000Y-67819983D01*
X161062000Y-69120001D01*
X161062001Y-69120018D01*
X161072500Y-69222796D01*
X161072501Y-69222799D01*
X161127685Y-69389331D01*
X161127686Y-69389334D01*
X161219788Y-69538656D01*
X161343844Y-69662712D01*
X161493166Y-69754814D01*
X161503723Y-69758312D01*
X161561168Y-69798084D01*
X161587992Y-69862600D01*
X161575677Y-69931376D01*
X161537613Y-69976330D01*
X161532719Y-69979885D01*
X161532709Y-69979894D01*
X161382390Y-70130213D01*
X161257451Y-70302179D01*
X161160944Y-70491585D01*
X161095253Y-70693760D01*
X161062000Y-70903713D01*
X161062000Y-71116286D01*
X161095253Y-71326239D01*
X161160944Y-71528414D01*
X161257451Y-71717820D01*
X161382390Y-71889786D01*
X161532713Y-72040109D01*
X161704682Y-72165050D01*
X161713446Y-72169516D01*
X161764242Y-72217491D01*
X161781036Y-72285312D01*
X161758498Y-72351447D01*
X161713446Y-72390484D01*
X161704682Y-72394949D01*
X161532713Y-72519890D01*
X161382390Y-72670213D01*
X161257451Y-72842179D01*
X161160944Y-73031585D01*
X161095253Y-73233760D01*
X161062000Y-73443713D01*
X161062000Y-73656286D01*
X161095253Y-73866239D01*
X161160944Y-74068414D01*
X161257451Y-74257820D01*
X161382390Y-74429786D01*
X161532713Y-74580109D01*
X161704682Y-74705050D01*
X161713446Y-74709516D01*
X161764242Y-74757491D01*
X161781036Y-74825312D01*
X161758498Y-74891447D01*
X161713446Y-74930484D01*
X161704682Y-74934949D01*
X161532713Y-75059890D01*
X161382390Y-75210213D01*
X161257451Y-75382179D01*
X161160944Y-75571585D01*
X161095253Y-75773760D01*
X161062000Y-75983713D01*
X161062000Y-76196286D01*
X161095253Y-76406239D01*
X161160944Y-76608414D01*
X161257451Y-76797820D01*
X161382390Y-76969786D01*
X161532713Y-77120109D01*
X161704682Y-77245050D01*
X161713446Y-77249516D01*
X161764242Y-77297491D01*
X161781036Y-77365312D01*
X161758498Y-77431447D01*
X161713446Y-77470484D01*
X161704682Y-77474949D01*
X161532713Y-77599890D01*
X161382390Y-77750213D01*
X161257451Y-77922179D01*
X161160944Y-78111585D01*
X161095253Y-78313760D01*
X161062000Y-78523713D01*
X161062000Y-78736286D01*
X161095253Y-78946239D01*
X161160944Y-79148414D01*
X161257451Y-79337820D01*
X161382390Y-79509786D01*
X161532713Y-79660109D01*
X161704682Y-79785050D01*
X161713446Y-79789516D01*
X161764242Y-79837491D01*
X161781036Y-79905312D01*
X161758498Y-79971447D01*
X161713446Y-80010484D01*
X161704682Y-80014949D01*
X161532713Y-80139890D01*
X161382390Y-80290213D01*
X161257451Y-80462179D01*
X161160944Y-80651585D01*
X161095253Y-80853760D01*
X161062000Y-81063713D01*
X161062000Y-81276286D01*
X161095253Y-81486239D01*
X161160944Y-81688414D01*
X161257451Y-81877820D01*
X161382390Y-82049786D01*
X161532713Y-82200109D01*
X161704682Y-82325050D01*
X161713446Y-82329516D01*
X161764242Y-82377491D01*
X161781036Y-82445312D01*
X161758498Y-82511447D01*
X161713446Y-82550484D01*
X161704682Y-82554949D01*
X161532713Y-82679890D01*
X161382390Y-82830213D01*
X161257451Y-83002179D01*
X161160944Y-83191585D01*
X161095253Y-83393760D01*
X161062000Y-83603713D01*
X161062000Y-83816286D01*
X161095253Y-84026239D01*
X161160944Y-84228414D01*
X161257451Y-84417820D01*
X161382390Y-84589786D01*
X161532713Y-84740109D01*
X161704682Y-84865050D01*
X161713446Y-84869516D01*
X161764242Y-84917491D01*
X161781036Y-84985312D01*
X161758498Y-85051447D01*
X161713446Y-85090484D01*
X161704682Y-85094949D01*
X161532713Y-85219890D01*
X161382390Y-85370213D01*
X161257451Y-85542179D01*
X161160944Y-85731585D01*
X161095253Y-85933760D01*
X161062000Y-86143713D01*
X161062000Y-86356286D01*
X161095253Y-86566239D01*
X161160944Y-86768414D01*
X161257451Y-86957820D01*
X161382390Y-87129786D01*
X161532713Y-87280109D01*
X161704682Y-87405050D01*
X161713446Y-87409516D01*
X161764242Y-87457491D01*
X161781036Y-87525312D01*
X161758498Y-87591447D01*
X161713446Y-87630484D01*
X161704682Y-87634949D01*
X161532713Y-87759890D01*
X161382390Y-87910213D01*
X161257451Y-88082179D01*
X161160944Y-88271585D01*
X161095253Y-88473760D01*
X161062000Y-88683713D01*
X161062000Y-88896286D01*
X161095253Y-89106239D01*
X161160944Y-89308414D01*
X161257451Y-89497820D01*
X161382390Y-89669786D01*
X161532713Y-89820109D01*
X161704682Y-89945050D01*
X161713446Y-89949516D01*
X161764242Y-89997491D01*
X161781036Y-90065312D01*
X161758498Y-90131447D01*
X161713446Y-90170484D01*
X161704682Y-90174949D01*
X161532713Y-90299890D01*
X161382390Y-90450213D01*
X161257451Y-90622179D01*
X161160944Y-90811585D01*
X161095253Y-91013760D01*
X161062000Y-91223713D01*
X161062000Y-91436286D01*
X161095253Y-91646239D01*
X161160944Y-91848414D01*
X161257451Y-92037820D01*
X161382390Y-92209786D01*
X161532713Y-92360109D01*
X161704682Y-92485050D01*
X161713446Y-92489516D01*
X161764242Y-92537491D01*
X161781036Y-92605312D01*
X161758498Y-92671447D01*
X161713446Y-92710484D01*
X161704682Y-92714949D01*
X161532713Y-92839890D01*
X161382390Y-92990213D01*
X161257451Y-93162179D01*
X161160944Y-93351585D01*
X161095253Y-93553760D01*
X161062000Y-93763713D01*
X161062000Y-93976286D01*
X161095253Y-94186239D01*
X161160944Y-94388414D01*
X161257451Y-94577820D01*
X161382390Y-94749786D01*
X161532713Y-94900109D01*
X161704682Y-95025050D01*
X161713446Y-95029516D01*
X161764242Y-95077491D01*
X161781036Y-95145312D01*
X161758498Y-95211447D01*
X161713446Y-95250484D01*
X161704682Y-95254949D01*
X161532713Y-95379890D01*
X161382390Y-95530213D01*
X161257451Y-95702179D01*
X161160944Y-95891585D01*
X161095253Y-96093760D01*
X161062000Y-96303713D01*
X161062000Y-96516286D01*
X161095253Y-96726239D01*
X161160944Y-96928414D01*
X161257451Y-97117820D01*
X161382390Y-97289786D01*
X161532713Y-97440109D01*
X161704682Y-97565050D01*
X161713446Y-97569516D01*
X161764242Y-97617491D01*
X161781036Y-97685312D01*
X161758498Y-97751447D01*
X161713446Y-97790484D01*
X161704682Y-97794949D01*
X161532713Y-97919890D01*
X161382390Y-98070213D01*
X161257451Y-98242179D01*
X161160944Y-98431585D01*
X161095253Y-98633760D01*
X161062000Y-98843713D01*
X161062000Y-99056286D01*
X161095253Y-99266239D01*
X161160944Y-99468414D01*
X161257451Y-99657820D01*
X161382390Y-99829786D01*
X161532713Y-99980109D01*
X161704682Y-100105050D01*
X161713446Y-100109516D01*
X161764242Y-100157491D01*
X161781036Y-100225312D01*
X161758498Y-100291447D01*
X161713446Y-100330484D01*
X161704682Y-100334949D01*
X161532713Y-100459890D01*
X161382390Y-100610213D01*
X161257451Y-100782179D01*
X161160944Y-100971585D01*
X161095253Y-101173760D01*
X161062000Y-101383713D01*
X161062000Y-101596286D01*
X161095253Y-101806239D01*
X161160944Y-102008414D01*
X161257451Y-102197820D01*
X161382390Y-102369786D01*
X161532713Y-102520109D01*
X161704682Y-102645050D01*
X161713446Y-102649516D01*
X161764242Y-102697491D01*
X161781036Y-102765312D01*
X161758498Y-102831447D01*
X161713446Y-102870484D01*
X161704682Y-102874949D01*
X161532713Y-102999890D01*
X161382390Y-103150213D01*
X161257451Y-103322179D01*
X161160944Y-103511585D01*
X161095253Y-103713760D01*
X161062000Y-103923713D01*
X161062000Y-104136286D01*
X161095253Y-104346239D01*
X161160944Y-104548414D01*
X161257451Y-104737820D01*
X161382390Y-104909786D01*
X161532713Y-105060109D01*
X161704682Y-105185050D01*
X161713446Y-105189516D01*
X161764242Y-105237491D01*
X161781036Y-105305312D01*
X161758498Y-105371447D01*
X161713446Y-105410484D01*
X161704682Y-105414949D01*
X161532713Y-105539890D01*
X161382390Y-105690213D01*
X161257451Y-105862179D01*
X161160944Y-106051585D01*
X161095253Y-106253760D01*
X161062000Y-106463713D01*
X161062000Y-106676286D01*
X161095253Y-106886239D01*
X161160944Y-107088414D01*
X161257451Y-107277820D01*
X161382390Y-107449786D01*
X161532713Y-107600109D01*
X161704682Y-107725050D01*
X161713446Y-107729516D01*
X161764242Y-107777491D01*
X161781036Y-107845312D01*
X161758498Y-107911447D01*
X161713446Y-107950484D01*
X161704682Y-107954949D01*
X161532713Y-108079890D01*
X161382390Y-108230213D01*
X161257451Y-108402179D01*
X161160944Y-108591585D01*
X161095253Y-108793760D01*
X161062000Y-109003713D01*
X161062000Y-109216286D01*
X161095253Y-109426239D01*
X161160944Y-109628414D01*
X161257451Y-109817820D01*
X161382390Y-109989786D01*
X161532713Y-110140109D01*
X161704682Y-110265050D01*
X161713446Y-110269516D01*
X161764242Y-110317491D01*
X161781036Y-110385312D01*
X161758498Y-110451447D01*
X161713446Y-110490484D01*
X161704682Y-110494949D01*
X161532713Y-110619890D01*
X161382390Y-110770213D01*
X161257451Y-110942179D01*
X161160944Y-111131585D01*
X161095253Y-111333760D01*
X161062000Y-111543713D01*
X161062000Y-111756286D01*
X161095253Y-111966239D01*
X161160944Y-112168414D01*
X161257451Y-112357820D01*
X161382390Y-112529786D01*
X161532713Y-112680109D01*
X161704682Y-112805050D01*
X161713446Y-112809516D01*
X161764242Y-112857491D01*
X161781036Y-112925312D01*
X161758498Y-112991447D01*
X161713446Y-113030484D01*
X161704682Y-113034949D01*
X161532713Y-113159890D01*
X161382390Y-113310213D01*
X161257451Y-113482179D01*
X161160944Y-113671585D01*
X161095253Y-113873760D01*
X161062000Y-114083713D01*
X161062000Y-114296286D01*
X161095253Y-114506239D01*
X161160944Y-114708414D01*
X161257451Y-114897820D01*
X161382390Y-115069786D01*
X161532713Y-115220109D01*
X161704682Y-115345050D01*
X161713446Y-115349516D01*
X161764242Y-115397491D01*
X161781036Y-115465312D01*
X161758498Y-115531447D01*
X161713446Y-115570484D01*
X161704682Y-115574949D01*
X161532713Y-115699890D01*
X161382390Y-115850213D01*
X161257451Y-116022179D01*
X161160944Y-116211585D01*
X161095253Y-116413760D01*
X161062000Y-116623713D01*
X161062000Y-116836286D01*
X161095253Y-117046239D01*
X161160944Y-117248414D01*
X161257451Y-117437820D01*
X161382390Y-117609786D01*
X161532713Y-117760109D01*
X161704679Y-117885048D01*
X161704681Y-117885049D01*
X161704684Y-117885051D01*
X161894088Y-117981557D01*
X162096257Y-118047246D01*
X162306213Y-118080500D01*
X162306214Y-118080500D01*
X162518786Y-118080500D01*
X162518787Y-118080500D01*
X162728743Y-118047246D01*
X162930912Y-117981557D01*
X163120316Y-117885051D01*
X163142289Y-117869086D01*
X163292286Y-117760109D01*
X163292288Y-117760106D01*
X163292292Y-117760104D01*
X163442604Y-117609792D01*
X163442606Y-117609788D01*
X163442609Y-117609786D01*
X163567548Y-117437820D01*
X163567547Y-117437820D01*
X163567551Y-117437816D01*
X163572014Y-117429054D01*
X163619988Y-117378259D01*
X163687808Y-117361463D01*
X163753944Y-117383999D01*
X163792986Y-117429056D01*
X163797451Y-117437820D01*
X163922390Y-117609786D01*
X164072713Y-117760109D01*
X164244679Y-117885048D01*
X164244681Y-117885049D01*
X164244684Y-117885051D01*
X164434088Y-117981557D01*
X164636257Y-118047246D01*
X164846213Y-118080500D01*
X164846214Y-118080500D01*
X165058786Y-118080500D01*
X165058787Y-118080500D01*
X165268743Y-118047246D01*
X165470912Y-117981557D01*
X165660316Y-117885051D01*
X165682289Y-117869086D01*
X165832286Y-117760109D01*
X165832288Y-117760106D01*
X165832292Y-117760104D01*
X165982604Y-117609792D01*
X166064830Y-117496615D01*
X166120160Y-117453949D01*
X166165149Y-117445500D01*
X173192351Y-117445500D01*
X173259390Y-117465185D01*
X173292670Y-117496616D01*
X173374892Y-117609788D01*
X173525213Y-117760109D01*
X173697179Y-117885048D01*
X173697181Y-117885049D01*
X173697184Y-117885051D01*
X173886588Y-117981557D01*
X174088757Y-118047246D01*
X174298713Y-118080500D01*
X174298714Y-118080500D01*
X174511286Y-118080500D01*
X174511287Y-118080500D01*
X174721243Y-118047246D01*
X174923412Y-117981557D01*
X175112816Y-117885051D01*
X175134789Y-117869086D01*
X175284786Y-117760109D01*
X175284788Y-117760106D01*
X175284792Y-117760104D01*
X175435104Y-117609792D01*
X175435106Y-117609788D01*
X175435109Y-117609786D01*
X175560048Y-117437820D01*
X175560047Y-117437820D01*
X175560051Y-117437816D01*
X175564514Y-117429054D01*
X175612488Y-117378259D01*
X175680308Y-117361463D01*
X175746444Y-117383999D01*
X175785486Y-117429056D01*
X175789951Y-117437820D01*
X175914890Y-117609786D01*
X176065213Y-117760109D01*
X176237179Y-117885048D01*
X176237181Y-117885049D01*
X176237184Y-117885051D01*
X176426588Y-117981557D01*
X176628757Y-118047246D01*
X176838713Y-118080500D01*
X176838714Y-118080500D01*
X177051286Y-118080500D01*
X177051287Y-118080500D01*
X177261243Y-118047246D01*
X177463412Y-117981557D01*
X177652816Y-117885051D01*
X177674789Y-117869086D01*
X177824786Y-117760109D01*
X177824788Y-117760106D01*
X177824792Y-117760104D01*
X177975104Y-117609792D01*
X177975106Y-117609788D01*
X177975109Y-117609786D01*
X178100048Y-117437820D01*
X178100047Y-117437820D01*
X178100051Y-117437816D01*
X178196557Y-117248412D01*
X178262246Y-117046243D01*
X178295500Y-116836287D01*
X178295500Y-116623713D01*
X178262246Y-116413757D01*
X178196557Y-116211588D01*
X178100051Y-116022184D01*
X178100049Y-116022181D01*
X178100048Y-116022179D01*
X177975109Y-115850213D01*
X177824786Y-115699890D01*
X177652820Y-115574951D01*
X177652115Y-115574591D01*
X177644054Y-115570485D01*
X177593259Y-115522512D01*
X177576463Y-115454692D01*
X177598999Y-115388556D01*
X177644054Y-115349515D01*
X177652816Y-115345051D01*
X177674789Y-115329086D01*
X177824786Y-115220109D01*
X177824788Y-115220106D01*
X177824792Y-115220104D01*
X177975104Y-115069792D01*
X177975106Y-115069788D01*
X177975109Y-115069786D01*
X178100048Y-114897820D01*
X178100047Y-114897820D01*
X178100051Y-114897816D01*
X178196557Y-114708412D01*
X178262246Y-114506243D01*
X178295500Y-114296287D01*
X178295500Y-114083713D01*
X178262246Y-113873757D01*
X178196557Y-113671588D01*
X178100051Y-113482184D01*
X178100049Y-113482181D01*
X178100048Y-113482179D01*
X177975109Y-113310213D01*
X177824786Y-113159890D01*
X177652820Y-113034951D01*
X177652115Y-113034591D01*
X177644054Y-113030485D01*
X177593259Y-112982512D01*
X177576463Y-112914692D01*
X177598999Y-112848556D01*
X177644054Y-112809515D01*
X177652816Y-112805051D01*
X177674789Y-112789086D01*
X177824786Y-112680109D01*
X177824788Y-112680106D01*
X177824792Y-112680104D01*
X177975104Y-112529792D01*
X177975106Y-112529788D01*
X177975109Y-112529786D01*
X178100048Y-112357820D01*
X178100047Y-112357820D01*
X178100051Y-112357816D01*
X178196557Y-112168412D01*
X178262246Y-111966243D01*
X178295500Y-111756287D01*
X178295500Y-111543713D01*
X178262246Y-111333757D01*
X178196557Y-111131588D01*
X178100051Y-110942184D01*
X178100049Y-110942181D01*
X178100048Y-110942179D01*
X177975109Y-110770213D01*
X177824786Y-110619890D01*
X177652820Y-110494951D01*
X177652115Y-110494591D01*
X177644054Y-110490485D01*
X177593259Y-110442512D01*
X177576463Y-110374692D01*
X177598999Y-110308556D01*
X177644054Y-110269515D01*
X177652816Y-110265051D01*
X177674789Y-110249086D01*
X177824786Y-110140109D01*
X177824788Y-110140106D01*
X177824792Y-110140104D01*
X177975104Y-109989792D01*
X177975106Y-109989788D01*
X177975109Y-109989786D01*
X178100048Y-109817820D01*
X178100047Y-109817820D01*
X178100051Y-109817816D01*
X178196557Y-109628412D01*
X178262246Y-109426243D01*
X178295500Y-109216287D01*
X178295500Y-109003713D01*
X178262246Y-108793757D01*
X178196557Y-108591588D01*
X178100051Y-108402184D01*
X178100049Y-108402181D01*
X178100048Y-108402179D01*
X177975109Y-108230213D01*
X177824786Y-108079890D01*
X177652820Y-107954951D01*
X177652115Y-107954591D01*
X177644054Y-107950485D01*
X177593259Y-107902512D01*
X177576463Y-107834692D01*
X177598999Y-107768556D01*
X177644054Y-107729515D01*
X177652816Y-107725051D01*
X177674789Y-107709086D01*
X177824786Y-107600109D01*
X177824788Y-107600106D01*
X177824792Y-107600104D01*
X177975104Y-107449792D01*
X177975106Y-107449788D01*
X177975109Y-107449786D01*
X178100048Y-107277820D01*
X178100047Y-107277820D01*
X178100051Y-107277816D01*
X178196557Y-107088412D01*
X178262246Y-106886243D01*
X178295500Y-106676287D01*
X178295500Y-106463713D01*
X178262246Y-106253757D01*
X178196557Y-106051588D01*
X178100051Y-105862184D01*
X178100049Y-105862181D01*
X178100048Y-105862179D01*
X177975109Y-105690213D01*
X177824786Y-105539890D01*
X177652820Y-105414951D01*
X177652115Y-105414591D01*
X177644054Y-105410485D01*
X177593259Y-105362512D01*
X177576463Y-105294692D01*
X177598999Y-105228556D01*
X177644054Y-105189515D01*
X177652816Y-105185051D01*
X177674789Y-105169086D01*
X177824786Y-105060109D01*
X177824788Y-105060106D01*
X177824792Y-105060104D01*
X177975104Y-104909792D01*
X177975106Y-104909788D01*
X177975109Y-104909786D01*
X178100048Y-104737820D01*
X178100047Y-104737820D01*
X178100051Y-104737816D01*
X178196557Y-104548412D01*
X178262246Y-104346243D01*
X178295500Y-104136287D01*
X178295500Y-103923713D01*
X178262246Y-103713757D01*
X178196557Y-103511588D01*
X178100051Y-103322184D01*
X178100049Y-103322181D01*
X178100048Y-103322179D01*
X177975109Y-103150213D01*
X177824786Y-102999890D01*
X177652820Y-102874951D01*
X177652115Y-102874591D01*
X177644054Y-102870485D01*
X177593259Y-102822512D01*
X177576463Y-102754692D01*
X177598999Y-102688556D01*
X177644054Y-102649515D01*
X177652816Y-102645051D01*
X177674789Y-102629086D01*
X177824786Y-102520109D01*
X177824788Y-102520106D01*
X177824792Y-102520104D01*
X177975104Y-102369792D01*
X177975106Y-102369788D01*
X177975109Y-102369786D01*
X178100048Y-102197820D01*
X178100047Y-102197820D01*
X178100051Y-102197816D01*
X178196557Y-102008412D01*
X178262246Y-101806243D01*
X178295500Y-101596287D01*
X178295500Y-101383713D01*
X178262246Y-101173757D01*
X178196557Y-100971588D01*
X178100051Y-100782184D01*
X178100049Y-100782181D01*
X178100048Y-100782179D01*
X177975109Y-100610213D01*
X177824786Y-100459890D01*
X177652820Y-100334951D01*
X177652115Y-100334591D01*
X177644054Y-100330485D01*
X177593259Y-100282512D01*
X177576463Y-100214692D01*
X177598999Y-100148556D01*
X177644054Y-100109515D01*
X177652816Y-100105051D01*
X177674789Y-100089086D01*
X177824786Y-99980109D01*
X177824788Y-99980106D01*
X177824792Y-99980104D01*
X177975104Y-99829792D01*
X177975106Y-99829788D01*
X177975109Y-99829786D01*
X178100048Y-99657820D01*
X178100047Y-99657820D01*
X178100051Y-99657816D01*
X178196557Y-99468412D01*
X178262246Y-99266243D01*
X178295500Y-99056287D01*
X178295500Y-98843713D01*
X178262246Y-98633757D01*
X178196557Y-98431588D01*
X178100051Y-98242184D01*
X178100049Y-98242181D01*
X178100048Y-98242179D01*
X177975109Y-98070213D01*
X177824786Y-97919890D01*
X177652820Y-97794951D01*
X177652115Y-97794591D01*
X177644054Y-97790485D01*
X177593259Y-97742512D01*
X177576463Y-97674692D01*
X177598999Y-97608556D01*
X177644054Y-97569515D01*
X177652816Y-97565051D01*
X177674789Y-97549086D01*
X177824786Y-97440109D01*
X177824788Y-97440106D01*
X177824792Y-97440104D01*
X177975104Y-97289792D01*
X177975106Y-97289788D01*
X177975109Y-97289786D01*
X178100048Y-97117820D01*
X178100047Y-97117820D01*
X178100051Y-97117816D01*
X178196557Y-96928412D01*
X178262246Y-96726243D01*
X178295500Y-96516287D01*
X178295500Y-96303713D01*
X178262246Y-96093757D01*
X178196557Y-95891588D01*
X178100051Y-95702184D01*
X178100049Y-95702181D01*
X178100048Y-95702179D01*
X177975109Y-95530213D01*
X177824786Y-95379890D01*
X177652820Y-95254951D01*
X177652115Y-95254591D01*
X177644054Y-95250485D01*
X177593259Y-95202512D01*
X177576463Y-95134692D01*
X177598999Y-95068556D01*
X177644054Y-95029515D01*
X177652816Y-95025051D01*
X177674789Y-95009086D01*
X177824786Y-94900109D01*
X177824788Y-94900106D01*
X177824792Y-94900104D01*
X177975104Y-94749792D01*
X177975106Y-94749788D01*
X177975109Y-94749786D01*
X178100048Y-94577820D01*
X178100047Y-94577820D01*
X178100051Y-94577816D01*
X178196557Y-94388412D01*
X178262246Y-94186243D01*
X178295500Y-93976287D01*
X178295500Y-93763713D01*
X178262246Y-93553757D01*
X178196557Y-93351588D01*
X178100051Y-93162184D01*
X178100049Y-93162181D01*
X178100048Y-93162179D01*
X177975109Y-92990213D01*
X177824786Y-92839890D01*
X177652820Y-92714951D01*
X177652115Y-92714591D01*
X177644054Y-92710485D01*
X177593259Y-92662512D01*
X177576463Y-92594692D01*
X177598999Y-92528556D01*
X177644054Y-92489515D01*
X177652816Y-92485051D01*
X177674789Y-92469086D01*
X177824786Y-92360109D01*
X177824788Y-92360106D01*
X177824792Y-92360104D01*
X177975104Y-92209792D01*
X177975106Y-92209788D01*
X177975109Y-92209786D01*
X178100048Y-92037820D01*
X178100047Y-92037820D01*
X178100051Y-92037816D01*
X178196557Y-91848412D01*
X178262246Y-91646243D01*
X178295500Y-91436287D01*
X178295500Y-91223713D01*
X178262246Y-91013757D01*
X178196557Y-90811588D01*
X178100051Y-90622184D01*
X178100049Y-90622181D01*
X178100048Y-90622179D01*
X177975109Y-90450213D01*
X177824786Y-90299890D01*
X177652820Y-90174951D01*
X177652115Y-90174591D01*
X177644054Y-90170485D01*
X177593259Y-90122512D01*
X177576463Y-90054692D01*
X177598999Y-89988556D01*
X177644054Y-89949515D01*
X177652816Y-89945051D01*
X177674789Y-89929086D01*
X177824786Y-89820109D01*
X177824788Y-89820106D01*
X177824792Y-89820104D01*
X177975104Y-89669792D01*
X177975106Y-89669788D01*
X177975109Y-89669786D01*
X178100048Y-89497820D01*
X178100047Y-89497820D01*
X178100051Y-89497816D01*
X178196557Y-89308412D01*
X178262246Y-89106243D01*
X178295500Y-88896287D01*
X178295500Y-88683713D01*
X178262246Y-88473757D01*
X178196557Y-88271588D01*
X178100051Y-88082184D01*
X178100049Y-88082181D01*
X178100048Y-88082179D01*
X177975109Y-87910213D01*
X177824786Y-87759890D01*
X177652820Y-87634951D01*
X177652115Y-87634591D01*
X177644054Y-87630485D01*
X177593259Y-87582512D01*
X177576463Y-87514692D01*
X177598999Y-87448556D01*
X177644054Y-87409515D01*
X177652816Y-87405051D01*
X177674789Y-87389086D01*
X177824786Y-87280109D01*
X177824788Y-87280106D01*
X177824792Y-87280104D01*
X177975104Y-87129792D01*
X177975106Y-87129788D01*
X177975109Y-87129786D01*
X178100048Y-86957820D01*
X178100047Y-86957820D01*
X178100051Y-86957816D01*
X178196557Y-86768412D01*
X178262246Y-86566243D01*
X178295500Y-86356287D01*
X178295500Y-86143713D01*
X178262246Y-85933757D01*
X178196557Y-85731588D01*
X178100051Y-85542184D01*
X178100049Y-85542181D01*
X178100048Y-85542179D01*
X177975109Y-85370213D01*
X177824786Y-85219890D01*
X177652820Y-85094951D01*
X177652115Y-85094591D01*
X177644054Y-85090485D01*
X177593259Y-85042512D01*
X177576463Y-84974692D01*
X177598999Y-84908556D01*
X177644054Y-84869515D01*
X177652816Y-84865051D01*
X177674789Y-84849086D01*
X177824786Y-84740109D01*
X177824788Y-84740106D01*
X177824792Y-84740104D01*
X177975104Y-84589792D01*
X177975106Y-84589788D01*
X177975109Y-84589786D01*
X178100048Y-84417820D01*
X178100047Y-84417820D01*
X178100051Y-84417816D01*
X178196557Y-84228412D01*
X178262246Y-84026243D01*
X178295500Y-83816287D01*
X178295500Y-83603713D01*
X178262246Y-83393757D01*
X178196557Y-83191588D01*
X178100051Y-83002184D01*
X178100049Y-83002181D01*
X178100048Y-83002179D01*
X177975109Y-82830213D01*
X177824786Y-82679890D01*
X177652820Y-82554951D01*
X177652115Y-82554591D01*
X177644054Y-82550485D01*
X177593259Y-82502512D01*
X177576463Y-82434692D01*
X177598999Y-82368556D01*
X177644054Y-82329515D01*
X177652816Y-82325051D01*
X177674789Y-82309086D01*
X177824786Y-82200109D01*
X177824788Y-82200106D01*
X177824792Y-82200104D01*
X177975104Y-82049792D01*
X177975106Y-82049788D01*
X177975109Y-82049786D01*
X178100048Y-81877820D01*
X178100047Y-81877820D01*
X178100051Y-81877816D01*
X178196557Y-81688412D01*
X178262246Y-81486243D01*
X178295500Y-81276287D01*
X178295500Y-81063713D01*
X178262246Y-80853757D01*
X178196557Y-80651588D01*
X178100051Y-80462184D01*
X178100049Y-80462181D01*
X178100048Y-80462179D01*
X177975109Y-80290213D01*
X177824786Y-80139890D01*
X177652820Y-80014951D01*
X177652115Y-80014591D01*
X177644054Y-80010485D01*
X177593259Y-79962512D01*
X177576463Y-79894692D01*
X177598999Y-79828556D01*
X177644054Y-79789515D01*
X177652816Y-79785051D01*
X177674789Y-79769086D01*
X177824786Y-79660109D01*
X177824788Y-79660106D01*
X177824792Y-79660104D01*
X177975104Y-79509792D01*
X177975106Y-79509788D01*
X177975109Y-79509786D01*
X178100048Y-79337820D01*
X178100047Y-79337820D01*
X178100051Y-79337816D01*
X178196557Y-79148412D01*
X178262246Y-78946243D01*
X178295500Y-78736287D01*
X178295500Y-78523713D01*
X178262246Y-78313757D01*
X178196557Y-78111588D01*
X178100051Y-77922184D01*
X178100049Y-77922181D01*
X178100048Y-77922179D01*
X177975109Y-77750213D01*
X177824786Y-77599890D01*
X177652820Y-77474951D01*
X177652115Y-77474591D01*
X177644054Y-77470485D01*
X177593259Y-77422512D01*
X177576463Y-77354692D01*
X177598999Y-77288556D01*
X177644054Y-77249515D01*
X177652816Y-77245051D01*
X177674789Y-77229086D01*
X177824786Y-77120109D01*
X177824788Y-77120106D01*
X177824792Y-77120104D01*
X177975104Y-76969792D01*
X177975106Y-76969788D01*
X177975109Y-76969786D01*
X178100048Y-76797820D01*
X178100047Y-76797820D01*
X178100051Y-76797816D01*
X178196557Y-76608412D01*
X178262246Y-76406243D01*
X178295500Y-76196287D01*
X178295500Y-75983713D01*
X178262246Y-75773757D01*
X178196557Y-75571588D01*
X178100051Y-75382184D01*
X178100049Y-75382181D01*
X178100048Y-75382179D01*
X177975109Y-75210213D01*
X177824786Y-75059890D01*
X177652820Y-74934951D01*
X177652115Y-74934591D01*
X177644054Y-74930485D01*
X177593259Y-74882512D01*
X177576463Y-74814692D01*
X177598999Y-74748556D01*
X177644054Y-74709515D01*
X177652816Y-74705051D01*
X177674789Y-74689086D01*
X177824786Y-74580109D01*
X177824788Y-74580106D01*
X177824792Y-74580104D01*
X177975104Y-74429792D01*
X177975106Y-74429788D01*
X177975109Y-74429786D01*
X178100048Y-74257820D01*
X178100047Y-74257820D01*
X178100051Y-74257816D01*
X178196557Y-74068412D01*
X178262246Y-73866243D01*
X178295500Y-73656287D01*
X178295500Y-73443713D01*
X178262246Y-73233757D01*
X178196557Y-73031588D01*
X178100051Y-72842184D01*
X178100049Y-72842181D01*
X178100048Y-72842179D01*
X177975109Y-72670213D01*
X177824786Y-72519890D01*
X177652820Y-72394951D01*
X177652115Y-72394591D01*
X177644054Y-72390485D01*
X177593259Y-72342512D01*
X177576463Y-72274692D01*
X177598999Y-72208556D01*
X177644054Y-72169515D01*
X177652816Y-72165051D01*
X177674789Y-72149086D01*
X177824786Y-72040109D01*
X177824788Y-72040106D01*
X177824792Y-72040104D01*
X177975104Y-71889792D01*
X177975106Y-71889788D01*
X177975109Y-71889786D01*
X178100048Y-71717820D01*
X178100047Y-71717820D01*
X178100051Y-71717816D01*
X178196557Y-71528412D01*
X178262246Y-71326243D01*
X178295500Y-71116287D01*
X178295500Y-70903713D01*
X178262246Y-70693757D01*
X178196557Y-70491588D01*
X178100051Y-70302184D01*
X178100049Y-70302181D01*
X178100048Y-70302179D01*
X177975109Y-70130213D01*
X177824790Y-69979894D01*
X177824785Y-69979890D01*
X177819891Y-69976334D01*
X177777227Y-69921003D01*
X177771249Y-69851390D01*
X177803857Y-69789595D01*
X177853774Y-69758312D01*
X177864334Y-69754814D01*
X178013656Y-69662712D01*
X178137712Y-69538656D01*
X178229814Y-69389334D01*
X178284999Y-69222797D01*
X178295500Y-69120009D01*
X178295499Y-67819992D01*
X178295498Y-67819983D01*
X187117000Y-67819983D01*
X187117000Y-69120001D01*
X187117001Y-69120018D01*
X187127500Y-69222796D01*
X187127501Y-69222799D01*
X187182685Y-69389331D01*
X187182686Y-69389334D01*
X187274788Y-69538656D01*
X187398844Y-69662712D01*
X187548166Y-69754814D01*
X187558723Y-69758312D01*
X187616168Y-69798084D01*
X187642992Y-69862600D01*
X187630677Y-69931376D01*
X187592613Y-69976330D01*
X187587719Y-69979885D01*
X187587709Y-69979894D01*
X187437390Y-70130213D01*
X187312451Y-70302179D01*
X187215944Y-70491585D01*
X187150253Y-70693760D01*
X187117000Y-70903713D01*
X187117000Y-71116286D01*
X187150253Y-71326239D01*
X187215944Y-71528414D01*
X187312451Y-71717820D01*
X187437390Y-71889786D01*
X187587713Y-72040109D01*
X187759682Y-72165050D01*
X187768446Y-72169516D01*
X187819242Y-72217491D01*
X187836036Y-72285312D01*
X187813498Y-72351447D01*
X187768446Y-72390484D01*
X187759682Y-72394949D01*
X187587713Y-72519890D01*
X187437390Y-72670213D01*
X187312451Y-72842179D01*
X187215944Y-73031585D01*
X187150253Y-73233760D01*
X187117000Y-73443713D01*
X187117000Y-73656286D01*
X187150253Y-73866239D01*
X187215944Y-74068414D01*
X187312451Y-74257820D01*
X187437390Y-74429786D01*
X187587713Y-74580109D01*
X187759682Y-74705050D01*
X187768446Y-74709516D01*
X187819242Y-74757491D01*
X187836036Y-74825312D01*
X187813498Y-74891447D01*
X187768446Y-74930484D01*
X187759682Y-74934949D01*
X187587713Y-75059890D01*
X187437390Y-75210213D01*
X187312451Y-75382179D01*
X187215944Y-75571585D01*
X187150253Y-75773760D01*
X187117000Y-75983713D01*
X187117000Y-76196286D01*
X187150253Y-76406239D01*
X187215944Y-76608414D01*
X187312451Y-76797820D01*
X187437390Y-76969786D01*
X187587713Y-77120109D01*
X187759682Y-77245050D01*
X187768446Y-77249516D01*
X187819242Y-77297491D01*
X187836036Y-77365312D01*
X187813498Y-77431447D01*
X187768446Y-77470484D01*
X187759682Y-77474949D01*
X187587713Y-77599890D01*
X187437390Y-77750213D01*
X187312451Y-77922179D01*
X187215944Y-78111585D01*
X187150253Y-78313760D01*
X187117000Y-78523713D01*
X187117000Y-78736286D01*
X187150253Y-78946239D01*
X187215944Y-79148414D01*
X187312451Y-79337820D01*
X187437390Y-79509786D01*
X187587713Y-79660109D01*
X187759682Y-79785050D01*
X187768446Y-79789516D01*
X187819242Y-79837491D01*
X187836036Y-79905312D01*
X187813498Y-79971447D01*
X187768446Y-80010484D01*
X187759682Y-80014949D01*
X187587713Y-80139890D01*
X187437390Y-80290213D01*
X187312451Y-80462179D01*
X187215944Y-80651585D01*
X187150253Y-80853760D01*
X187117000Y-81063713D01*
X187117000Y-81276286D01*
X187150253Y-81486239D01*
X187215944Y-81688414D01*
X187312451Y-81877820D01*
X187437390Y-82049786D01*
X187587713Y-82200109D01*
X187759682Y-82325050D01*
X187768446Y-82329516D01*
X187819242Y-82377491D01*
X187836036Y-82445312D01*
X187813498Y-82511447D01*
X187768446Y-82550484D01*
X187759682Y-82554949D01*
X187587713Y-82679890D01*
X187437390Y-82830213D01*
X187312451Y-83002179D01*
X187215944Y-83191585D01*
X187150253Y-83393760D01*
X187117000Y-83603713D01*
X187117000Y-83816286D01*
X187150253Y-84026239D01*
X187215944Y-84228414D01*
X187312451Y-84417820D01*
X187437390Y-84589786D01*
X187587713Y-84740109D01*
X187759682Y-84865050D01*
X187768446Y-84869516D01*
X187819242Y-84917491D01*
X187836036Y-84985312D01*
X187813498Y-85051447D01*
X187768446Y-85090484D01*
X187759682Y-85094949D01*
X187587713Y-85219890D01*
X187437390Y-85370213D01*
X187312451Y-85542179D01*
X187215944Y-85731585D01*
X187150253Y-85933760D01*
X187117000Y-86143713D01*
X187117000Y-86356286D01*
X187150253Y-86566239D01*
X187215944Y-86768414D01*
X187312451Y-86957820D01*
X187437390Y-87129786D01*
X187587713Y-87280109D01*
X187759682Y-87405050D01*
X187768446Y-87409516D01*
X187819242Y-87457491D01*
X187836036Y-87525312D01*
X187813498Y-87591447D01*
X187768446Y-87630484D01*
X187759682Y-87634949D01*
X187587713Y-87759890D01*
X187437390Y-87910213D01*
X187312451Y-88082179D01*
X187215944Y-88271585D01*
X187150253Y-88473760D01*
X187117000Y-88683713D01*
X187117000Y-88896286D01*
X187150253Y-89106239D01*
X187215944Y-89308414D01*
X187312451Y-89497820D01*
X187437390Y-89669786D01*
X187587713Y-89820109D01*
X187759682Y-89945050D01*
X187768446Y-89949516D01*
X187819242Y-89997491D01*
X187836036Y-90065312D01*
X187813498Y-90131447D01*
X187768446Y-90170484D01*
X187759682Y-90174949D01*
X187587713Y-90299890D01*
X187437390Y-90450213D01*
X187312451Y-90622179D01*
X187215944Y-90811585D01*
X187150253Y-91013760D01*
X187117000Y-91223713D01*
X187117000Y-91436286D01*
X187150253Y-91646239D01*
X187215944Y-91848414D01*
X187312451Y-92037820D01*
X187437390Y-92209786D01*
X187587713Y-92360109D01*
X187759682Y-92485050D01*
X187768446Y-92489516D01*
X187819242Y-92537491D01*
X187836036Y-92605312D01*
X187813498Y-92671447D01*
X187768446Y-92710484D01*
X187759682Y-92714949D01*
X187587713Y-92839890D01*
X187437390Y-92990213D01*
X187312451Y-93162179D01*
X187215944Y-93351585D01*
X187150253Y-93553760D01*
X187117000Y-93763713D01*
X187117000Y-93976286D01*
X187150253Y-94186239D01*
X187215944Y-94388414D01*
X187312451Y-94577820D01*
X187437390Y-94749786D01*
X187587713Y-94900109D01*
X187759682Y-95025050D01*
X187768446Y-95029516D01*
X187819242Y-95077491D01*
X187836036Y-95145312D01*
X187813498Y-95211447D01*
X187768446Y-95250484D01*
X187759682Y-95254949D01*
X187587713Y-95379890D01*
X187437390Y-95530213D01*
X187312451Y-95702179D01*
X187215944Y-95891585D01*
X187150253Y-96093760D01*
X187117000Y-96303713D01*
X187117000Y-96516286D01*
X187150253Y-96726239D01*
X187215944Y-96928414D01*
X187312451Y-97117820D01*
X187437390Y-97289786D01*
X187587713Y-97440109D01*
X187759682Y-97565050D01*
X187768446Y-97569516D01*
X187819242Y-97617491D01*
X187836036Y-97685312D01*
X187813498Y-97751447D01*
X187768446Y-97790484D01*
X187759682Y-97794949D01*
X187587713Y-97919890D01*
X187437390Y-98070213D01*
X187312451Y-98242179D01*
X187215944Y-98431585D01*
X187150253Y-98633760D01*
X187117000Y-98843713D01*
X187117000Y-99056286D01*
X187150253Y-99266239D01*
X187215944Y-99468414D01*
X187312451Y-99657820D01*
X187437390Y-99829786D01*
X187587713Y-99980109D01*
X187759682Y-100105050D01*
X187768446Y-100109516D01*
X187819242Y-100157491D01*
X187836036Y-100225312D01*
X187813498Y-100291447D01*
X187768446Y-100330484D01*
X187759682Y-100334949D01*
X187587713Y-100459890D01*
X187437390Y-100610213D01*
X187312451Y-100782179D01*
X187215944Y-100971585D01*
X187150253Y-101173760D01*
X187117000Y-101383713D01*
X187117000Y-101596286D01*
X187150253Y-101806239D01*
X187215944Y-102008414D01*
X187312451Y-102197820D01*
X187437390Y-102369786D01*
X187587713Y-102520109D01*
X187759682Y-102645050D01*
X187768446Y-102649516D01*
X187819242Y-102697491D01*
X187836036Y-102765312D01*
X187813498Y-102831447D01*
X187768446Y-102870484D01*
X187759682Y-102874949D01*
X187587713Y-102999890D01*
X187437390Y-103150213D01*
X187312451Y-103322179D01*
X187215944Y-103511585D01*
X187150253Y-103713760D01*
X187117000Y-103923713D01*
X187117000Y-104136286D01*
X187150253Y-104346239D01*
X187215944Y-104548414D01*
X187312451Y-104737820D01*
X187437390Y-104909786D01*
X187587713Y-105060109D01*
X187759682Y-105185050D01*
X187768446Y-105189516D01*
X187819242Y-105237491D01*
X187836036Y-105305312D01*
X187813498Y-105371447D01*
X187768446Y-105410484D01*
X187759682Y-105414949D01*
X187587713Y-105539890D01*
X187437390Y-105690213D01*
X187312451Y-105862179D01*
X187215944Y-106051585D01*
X187150253Y-106253760D01*
X187117000Y-106463713D01*
X187117000Y-106676286D01*
X187150253Y-106886239D01*
X187215944Y-107088414D01*
X187312451Y-107277820D01*
X187437390Y-107449786D01*
X187587713Y-107600109D01*
X187759682Y-107725050D01*
X187768446Y-107729516D01*
X187819242Y-107777491D01*
X187836036Y-107845312D01*
X187813498Y-107911447D01*
X187768446Y-107950484D01*
X187759682Y-107954949D01*
X187587713Y-108079890D01*
X187437390Y-108230213D01*
X187312451Y-108402179D01*
X187215944Y-108591585D01*
X187150253Y-108793760D01*
X187117000Y-109003713D01*
X187117000Y-109216286D01*
X187150253Y-109426239D01*
X187215944Y-109628414D01*
X187312451Y-109817820D01*
X187437390Y-109989786D01*
X187587713Y-110140109D01*
X187759682Y-110265050D01*
X187768446Y-110269516D01*
X187819242Y-110317491D01*
X187836036Y-110385312D01*
X187813498Y-110451447D01*
X187768446Y-110490484D01*
X187759682Y-110494949D01*
X187587713Y-110619890D01*
X187437390Y-110770213D01*
X187312451Y-110942179D01*
X187215944Y-111131585D01*
X187150253Y-111333760D01*
X187117000Y-111543713D01*
X187117000Y-111756286D01*
X187150253Y-111966239D01*
X187215944Y-112168414D01*
X187312451Y-112357820D01*
X187437390Y-112529786D01*
X187587713Y-112680109D01*
X187759682Y-112805050D01*
X187768446Y-112809516D01*
X187819242Y-112857491D01*
X187836036Y-112925312D01*
X187813498Y-112991447D01*
X187768446Y-113030484D01*
X187759682Y-113034949D01*
X187587713Y-113159890D01*
X187437390Y-113310213D01*
X187312451Y-113482179D01*
X187215944Y-113671585D01*
X187150253Y-113873760D01*
X187117000Y-114083713D01*
X187117000Y-114296286D01*
X187150253Y-114506239D01*
X187215944Y-114708414D01*
X187312451Y-114897820D01*
X187437390Y-115069786D01*
X187587713Y-115220109D01*
X187759682Y-115345050D01*
X187768446Y-115349516D01*
X187819242Y-115397491D01*
X187836036Y-115465312D01*
X187813498Y-115531447D01*
X187768446Y-115570484D01*
X187759682Y-115574949D01*
X187587713Y-115699890D01*
X187437390Y-115850213D01*
X187312451Y-116022179D01*
X187215944Y-116211585D01*
X187150253Y-116413760D01*
X187117000Y-116623713D01*
X187117000Y-116836286D01*
X187150253Y-117046239D01*
X187215944Y-117248414D01*
X187312451Y-117437820D01*
X187437390Y-117609786D01*
X187587713Y-117760109D01*
X187759679Y-117885048D01*
X187759681Y-117885049D01*
X187759684Y-117885051D01*
X187949088Y-117981557D01*
X188151257Y-118047246D01*
X188361213Y-118080500D01*
X188361214Y-118080500D01*
X188573786Y-118080500D01*
X188573787Y-118080500D01*
X188783743Y-118047246D01*
X188985912Y-117981557D01*
X189175316Y-117885051D01*
X189197289Y-117869086D01*
X189347286Y-117760109D01*
X189347288Y-117760106D01*
X189347292Y-117760104D01*
X189497604Y-117609792D01*
X189497606Y-117609788D01*
X189497609Y-117609786D01*
X189622548Y-117437820D01*
X189622547Y-117437820D01*
X189622551Y-117437816D01*
X189627014Y-117429054D01*
X189674988Y-117378259D01*
X189742808Y-117361463D01*
X189808944Y-117383999D01*
X189847986Y-117429056D01*
X189852451Y-117437820D01*
X189977390Y-117609786D01*
X190127713Y-117760109D01*
X190299679Y-117885048D01*
X190299681Y-117885049D01*
X190299684Y-117885051D01*
X190489088Y-117981557D01*
X190691257Y-118047246D01*
X190901213Y-118080500D01*
X190901214Y-118080500D01*
X191113786Y-118080500D01*
X191113787Y-118080500D01*
X191323743Y-118047246D01*
X191525912Y-117981557D01*
X191715316Y-117885051D01*
X191737289Y-117869086D01*
X191887286Y-117760109D01*
X191887288Y-117760106D01*
X191887292Y-117760104D01*
X192037604Y-117609792D01*
X192119830Y-117496615D01*
X192175160Y-117453949D01*
X192220149Y-117445500D01*
X199247351Y-117445500D01*
X199314390Y-117465185D01*
X199347670Y-117496616D01*
X199429892Y-117609788D01*
X199580213Y-117760109D01*
X199752179Y-117885048D01*
X199752181Y-117885049D01*
X199752184Y-117885051D01*
X199941588Y-117981557D01*
X200143757Y-118047246D01*
X200353713Y-118080500D01*
X200353714Y-118080500D01*
X200566286Y-118080500D01*
X200566287Y-118080500D01*
X200776243Y-118047246D01*
X200978412Y-117981557D01*
X201167816Y-117885051D01*
X201189789Y-117869086D01*
X201339786Y-117760109D01*
X201339788Y-117760106D01*
X201339792Y-117760104D01*
X201490104Y-117609792D01*
X201490106Y-117609788D01*
X201490109Y-117609786D01*
X201615048Y-117437820D01*
X201615047Y-117437820D01*
X201615051Y-117437816D01*
X201619514Y-117429054D01*
X201667488Y-117378259D01*
X201735308Y-117361463D01*
X201801444Y-117383999D01*
X201840486Y-117429056D01*
X201844951Y-117437820D01*
X201969890Y-117609786D01*
X202120213Y-117760109D01*
X202292179Y-117885048D01*
X202292181Y-117885049D01*
X202292184Y-117885051D01*
X202481588Y-117981557D01*
X202683757Y-118047246D01*
X202893713Y-118080500D01*
X202893714Y-118080500D01*
X203106286Y-118080500D01*
X203106287Y-118080500D01*
X203316243Y-118047246D01*
X203518412Y-117981557D01*
X203707816Y-117885051D01*
X203729789Y-117869086D01*
X203879786Y-117760109D01*
X203879788Y-117760106D01*
X203879792Y-117760104D01*
X204030104Y-117609792D01*
X204030106Y-117609788D01*
X204030109Y-117609786D01*
X204155048Y-117437820D01*
X204155047Y-117437820D01*
X204155051Y-117437816D01*
X204251557Y-117248412D01*
X204317246Y-117046243D01*
X204350500Y-116836287D01*
X204350500Y-116623713D01*
X204317246Y-116413757D01*
X204251557Y-116211588D01*
X204155051Y-116022184D01*
X204155049Y-116022181D01*
X204155048Y-116022179D01*
X204030109Y-115850213D01*
X203879786Y-115699890D01*
X203707820Y-115574951D01*
X203707115Y-115574591D01*
X203699054Y-115570485D01*
X203648259Y-115522512D01*
X203631463Y-115454692D01*
X203653999Y-115388556D01*
X203699054Y-115349515D01*
X203707816Y-115345051D01*
X203729789Y-115329086D01*
X203879786Y-115220109D01*
X203879788Y-115220106D01*
X203879792Y-115220104D01*
X204030104Y-115069792D01*
X204030106Y-115069788D01*
X204030109Y-115069786D01*
X204155048Y-114897820D01*
X204155047Y-114897820D01*
X204155051Y-114897816D01*
X204251557Y-114708412D01*
X204317246Y-114506243D01*
X204350500Y-114296287D01*
X204350500Y-114083713D01*
X204317246Y-113873757D01*
X204251557Y-113671588D01*
X204155051Y-113482184D01*
X204155049Y-113482181D01*
X204155048Y-113482179D01*
X204030109Y-113310213D01*
X203879786Y-113159890D01*
X203707820Y-113034951D01*
X203707115Y-113034591D01*
X203699054Y-113030485D01*
X203648259Y-112982512D01*
X203631463Y-112914692D01*
X203653999Y-112848556D01*
X203699054Y-112809515D01*
X203707816Y-112805051D01*
X203729789Y-112789086D01*
X203879786Y-112680109D01*
X203879788Y-112680106D01*
X203879792Y-112680104D01*
X204030104Y-112529792D01*
X204030106Y-112529788D01*
X204030109Y-112529786D01*
X204155048Y-112357820D01*
X204155047Y-112357820D01*
X204155051Y-112357816D01*
X204251557Y-112168412D01*
X204317246Y-111966243D01*
X204350500Y-111756287D01*
X204350500Y-111543713D01*
X204317246Y-111333757D01*
X204251557Y-111131588D01*
X204155051Y-110942184D01*
X204155049Y-110942181D01*
X204155048Y-110942179D01*
X204030109Y-110770213D01*
X203879786Y-110619890D01*
X203707820Y-110494951D01*
X203707115Y-110494591D01*
X203699054Y-110490485D01*
X203648259Y-110442512D01*
X203631463Y-110374692D01*
X203653999Y-110308556D01*
X203699054Y-110269515D01*
X203707816Y-110265051D01*
X203729789Y-110249086D01*
X203879786Y-110140109D01*
X203879788Y-110140106D01*
X203879792Y-110140104D01*
X204030104Y-109989792D01*
X204030106Y-109989788D01*
X204030109Y-109989786D01*
X204155048Y-109817820D01*
X204155047Y-109817820D01*
X204155051Y-109817816D01*
X204251557Y-109628412D01*
X204317246Y-109426243D01*
X204350500Y-109216287D01*
X204350500Y-109003713D01*
X204317246Y-108793757D01*
X204251557Y-108591588D01*
X204155051Y-108402184D01*
X204155049Y-108402181D01*
X204155048Y-108402179D01*
X204030109Y-108230213D01*
X203879786Y-108079890D01*
X203707820Y-107954951D01*
X203707115Y-107954591D01*
X203699054Y-107950485D01*
X203648259Y-107902512D01*
X203631463Y-107834692D01*
X203653999Y-107768556D01*
X203699054Y-107729515D01*
X203707816Y-107725051D01*
X203729789Y-107709086D01*
X203879786Y-107600109D01*
X203879788Y-107600106D01*
X203879792Y-107600104D01*
X204030104Y-107449792D01*
X204030106Y-107449788D01*
X204030109Y-107449786D01*
X204155048Y-107277820D01*
X204155047Y-107277820D01*
X204155051Y-107277816D01*
X204251557Y-107088412D01*
X204317246Y-106886243D01*
X204350500Y-106676287D01*
X204350500Y-106463713D01*
X204317246Y-106253757D01*
X204251557Y-106051588D01*
X204155051Y-105862184D01*
X204155049Y-105862181D01*
X204155048Y-105862179D01*
X204030109Y-105690213D01*
X203879786Y-105539890D01*
X203707820Y-105414951D01*
X203707115Y-105414591D01*
X203699054Y-105410485D01*
X203648259Y-105362512D01*
X203631463Y-105294692D01*
X203653999Y-105228556D01*
X203699054Y-105189515D01*
X203707816Y-105185051D01*
X203729789Y-105169086D01*
X203879786Y-105060109D01*
X203879788Y-105060106D01*
X203879792Y-105060104D01*
X204030104Y-104909792D01*
X204030106Y-104909788D01*
X204030109Y-104909786D01*
X204155048Y-104737820D01*
X204155047Y-104737820D01*
X204155051Y-104737816D01*
X204251557Y-104548412D01*
X204317246Y-104346243D01*
X204350500Y-104136287D01*
X204350500Y-103923713D01*
X204317246Y-103713757D01*
X204251557Y-103511588D01*
X204155051Y-103322184D01*
X204155049Y-103322181D01*
X204155048Y-103322179D01*
X204030109Y-103150213D01*
X203879786Y-102999890D01*
X203707820Y-102874951D01*
X203707115Y-102874591D01*
X203699054Y-102870485D01*
X203648259Y-102822512D01*
X203631463Y-102754692D01*
X203653999Y-102688556D01*
X203699054Y-102649515D01*
X203707816Y-102645051D01*
X203729789Y-102629086D01*
X203879786Y-102520109D01*
X203879788Y-102520106D01*
X203879792Y-102520104D01*
X204030104Y-102369792D01*
X204030106Y-102369788D01*
X204030109Y-102369786D01*
X204155048Y-102197820D01*
X204155047Y-102197820D01*
X204155051Y-102197816D01*
X204251557Y-102008412D01*
X204317246Y-101806243D01*
X204350500Y-101596287D01*
X204350500Y-101383713D01*
X204317246Y-101173757D01*
X204251557Y-100971588D01*
X204155051Y-100782184D01*
X204155049Y-100782181D01*
X204155048Y-100782179D01*
X204030109Y-100610213D01*
X203879786Y-100459890D01*
X203707820Y-100334951D01*
X203707115Y-100334591D01*
X203699054Y-100330485D01*
X203648259Y-100282512D01*
X203631463Y-100214692D01*
X203653999Y-100148556D01*
X203699054Y-100109515D01*
X203707816Y-100105051D01*
X203729789Y-100089086D01*
X203879786Y-99980109D01*
X203879788Y-99980106D01*
X203879792Y-99980104D01*
X204030104Y-99829792D01*
X204030106Y-99829788D01*
X204030109Y-99829786D01*
X204155048Y-99657820D01*
X204155047Y-99657820D01*
X204155051Y-99657816D01*
X204251557Y-99468412D01*
X204317246Y-99266243D01*
X204350500Y-99056287D01*
X204350500Y-98843713D01*
X204317246Y-98633757D01*
X204251557Y-98431588D01*
X204155051Y-98242184D01*
X204155049Y-98242181D01*
X204155048Y-98242179D01*
X204030109Y-98070213D01*
X203879786Y-97919890D01*
X203707820Y-97794951D01*
X203707115Y-97794591D01*
X203699054Y-97790485D01*
X203648259Y-97742512D01*
X203631463Y-97674692D01*
X203653999Y-97608556D01*
X203699054Y-97569515D01*
X203707816Y-97565051D01*
X203729789Y-97549086D01*
X203879786Y-97440109D01*
X203879788Y-97440106D01*
X203879792Y-97440104D01*
X204030104Y-97289792D01*
X204030106Y-97289788D01*
X204030109Y-97289786D01*
X204155048Y-97117820D01*
X204155047Y-97117820D01*
X204155051Y-97117816D01*
X204251557Y-96928412D01*
X204317246Y-96726243D01*
X204350500Y-96516287D01*
X204350500Y-96303713D01*
X204317246Y-96093757D01*
X204251557Y-95891588D01*
X204155051Y-95702184D01*
X204155049Y-95702181D01*
X204155048Y-95702179D01*
X204030109Y-95530213D01*
X203879786Y-95379890D01*
X203707820Y-95254951D01*
X203707115Y-95254591D01*
X203699054Y-95250485D01*
X203648259Y-95202512D01*
X203631463Y-95134692D01*
X203653999Y-95068556D01*
X203699054Y-95029515D01*
X203707816Y-95025051D01*
X203729789Y-95009086D01*
X203879786Y-94900109D01*
X203879788Y-94900106D01*
X203879792Y-94900104D01*
X204030104Y-94749792D01*
X204030106Y-94749788D01*
X204030109Y-94749786D01*
X204155048Y-94577820D01*
X204155047Y-94577820D01*
X204155051Y-94577816D01*
X204251557Y-94388412D01*
X204317246Y-94186243D01*
X204350500Y-93976287D01*
X204350500Y-93763713D01*
X204317246Y-93553757D01*
X204251557Y-93351588D01*
X204155051Y-93162184D01*
X204155049Y-93162181D01*
X204155048Y-93162179D01*
X204030109Y-92990213D01*
X203879786Y-92839890D01*
X203707820Y-92714951D01*
X203707115Y-92714591D01*
X203699054Y-92710485D01*
X203648259Y-92662512D01*
X203631463Y-92594692D01*
X203653999Y-92528556D01*
X203699054Y-92489515D01*
X203707816Y-92485051D01*
X203729789Y-92469086D01*
X203879786Y-92360109D01*
X203879788Y-92360106D01*
X203879792Y-92360104D01*
X204030104Y-92209792D01*
X204030106Y-92209788D01*
X204030109Y-92209786D01*
X204155048Y-92037820D01*
X204155047Y-92037820D01*
X204155051Y-92037816D01*
X204251557Y-91848412D01*
X204317246Y-91646243D01*
X204350500Y-91436287D01*
X204350500Y-91223713D01*
X204317246Y-91013757D01*
X204251557Y-90811588D01*
X204155051Y-90622184D01*
X204155049Y-90622181D01*
X204155048Y-90622179D01*
X204030109Y-90450213D01*
X203879786Y-90299890D01*
X203707820Y-90174951D01*
X203707115Y-90174591D01*
X203699054Y-90170485D01*
X203648259Y-90122512D01*
X203631463Y-90054692D01*
X203653999Y-89988556D01*
X203699054Y-89949515D01*
X203707816Y-89945051D01*
X203729789Y-89929086D01*
X203879786Y-89820109D01*
X203879788Y-89820106D01*
X203879792Y-89820104D01*
X204030104Y-89669792D01*
X204030106Y-89669788D01*
X204030109Y-89669786D01*
X204155048Y-89497820D01*
X204155047Y-89497820D01*
X204155051Y-89497816D01*
X204251557Y-89308412D01*
X204317246Y-89106243D01*
X204350500Y-88896287D01*
X204350500Y-88683713D01*
X204317246Y-88473757D01*
X204251557Y-88271588D01*
X204155051Y-88082184D01*
X204155049Y-88082181D01*
X204155048Y-88082179D01*
X204030109Y-87910213D01*
X203879786Y-87759890D01*
X203707820Y-87634951D01*
X203707115Y-87634591D01*
X203699054Y-87630485D01*
X203648259Y-87582512D01*
X203631463Y-87514692D01*
X203653999Y-87448556D01*
X203699054Y-87409515D01*
X203707816Y-87405051D01*
X203729789Y-87389086D01*
X203879786Y-87280109D01*
X203879788Y-87280106D01*
X203879792Y-87280104D01*
X204030104Y-87129792D01*
X204030106Y-87129788D01*
X204030109Y-87129786D01*
X204155048Y-86957820D01*
X204155047Y-86957820D01*
X204155051Y-86957816D01*
X204251557Y-86768412D01*
X204317246Y-86566243D01*
X204350500Y-86356287D01*
X204350500Y-86143713D01*
X204317246Y-85933757D01*
X204251557Y-85731588D01*
X204155051Y-85542184D01*
X204155049Y-85542181D01*
X204155048Y-85542179D01*
X204030109Y-85370213D01*
X203879786Y-85219890D01*
X203707820Y-85094951D01*
X203707115Y-85094591D01*
X203699054Y-85090485D01*
X203648259Y-85042512D01*
X203631463Y-84974692D01*
X203653999Y-84908556D01*
X203699054Y-84869515D01*
X203707816Y-84865051D01*
X203729789Y-84849086D01*
X203879786Y-84740109D01*
X203879788Y-84740106D01*
X203879792Y-84740104D01*
X204030104Y-84589792D01*
X204030106Y-84589788D01*
X204030109Y-84589786D01*
X204155048Y-84417820D01*
X204155047Y-84417820D01*
X204155051Y-84417816D01*
X204251557Y-84228412D01*
X204317246Y-84026243D01*
X204350500Y-83816287D01*
X204350500Y-83603713D01*
X204317246Y-83393757D01*
X204251557Y-83191588D01*
X204155051Y-83002184D01*
X204155049Y-83002181D01*
X204155048Y-83002179D01*
X204030109Y-82830213D01*
X203879786Y-82679890D01*
X203707820Y-82554951D01*
X203707115Y-82554591D01*
X203699054Y-82550485D01*
X203648259Y-82502512D01*
X203631463Y-82434692D01*
X203653999Y-82368556D01*
X203699054Y-82329515D01*
X203707816Y-82325051D01*
X203729789Y-82309086D01*
X203879786Y-82200109D01*
X203879788Y-82200106D01*
X203879792Y-82200104D01*
X204030104Y-82049792D01*
X204030106Y-82049788D01*
X204030109Y-82049786D01*
X204155048Y-81877820D01*
X204155047Y-81877820D01*
X204155051Y-81877816D01*
X204251557Y-81688412D01*
X204317246Y-81486243D01*
X204350500Y-81276287D01*
X204350500Y-81063713D01*
X204317246Y-80853757D01*
X204251557Y-80651588D01*
X204155051Y-80462184D01*
X204155049Y-80462181D01*
X204155048Y-80462179D01*
X204030109Y-80290213D01*
X203879786Y-80139890D01*
X203707820Y-80014951D01*
X203707115Y-80014591D01*
X203699054Y-80010485D01*
X203648259Y-79962512D01*
X203631463Y-79894692D01*
X203653999Y-79828556D01*
X203699054Y-79789515D01*
X203707816Y-79785051D01*
X203729789Y-79769086D01*
X203879786Y-79660109D01*
X203879788Y-79660106D01*
X203879792Y-79660104D01*
X204030104Y-79509792D01*
X204030106Y-79509788D01*
X204030109Y-79509786D01*
X204155048Y-79337820D01*
X204155047Y-79337820D01*
X204155051Y-79337816D01*
X204251557Y-79148412D01*
X204317246Y-78946243D01*
X204350500Y-78736287D01*
X204350500Y-78523713D01*
X204317246Y-78313757D01*
X204251557Y-78111588D01*
X204155051Y-77922184D01*
X204155049Y-77922181D01*
X204155048Y-77922179D01*
X204030109Y-77750213D01*
X203879786Y-77599890D01*
X203707820Y-77474951D01*
X203707115Y-77474591D01*
X203699054Y-77470485D01*
X203648259Y-77422512D01*
X203631463Y-77354692D01*
X203653999Y-77288556D01*
X203699054Y-77249515D01*
X203707816Y-77245051D01*
X203729789Y-77229086D01*
X203879786Y-77120109D01*
X203879788Y-77120106D01*
X203879792Y-77120104D01*
X204030104Y-76969792D01*
X204030106Y-76969788D01*
X204030109Y-76969786D01*
X204155048Y-76797820D01*
X204155047Y-76797820D01*
X204155051Y-76797816D01*
X204251557Y-76608412D01*
X204317246Y-76406243D01*
X204350500Y-76196287D01*
X204350500Y-75983713D01*
X204317246Y-75773757D01*
X204251557Y-75571588D01*
X204155051Y-75382184D01*
X204155049Y-75382181D01*
X204155048Y-75382179D01*
X204030109Y-75210213D01*
X203879786Y-75059890D01*
X203707820Y-74934951D01*
X203707115Y-74934591D01*
X203699054Y-74930485D01*
X203648259Y-74882512D01*
X203631463Y-74814692D01*
X203653999Y-74748556D01*
X203699054Y-74709515D01*
X203707816Y-74705051D01*
X203729789Y-74689086D01*
X203879786Y-74580109D01*
X203879788Y-74580106D01*
X203879792Y-74580104D01*
X204030104Y-74429792D01*
X204030106Y-74429788D01*
X204030109Y-74429786D01*
X204155048Y-74257820D01*
X204155047Y-74257820D01*
X204155051Y-74257816D01*
X204251557Y-74068412D01*
X204317246Y-73866243D01*
X204350500Y-73656287D01*
X204350500Y-73443713D01*
X204317246Y-73233757D01*
X204251557Y-73031588D01*
X204155051Y-72842184D01*
X204155049Y-72842181D01*
X204155048Y-72842179D01*
X204030109Y-72670213D01*
X203879786Y-72519890D01*
X203707820Y-72394951D01*
X203707115Y-72394591D01*
X203699054Y-72390485D01*
X203648259Y-72342512D01*
X203631463Y-72274692D01*
X203653999Y-72208556D01*
X203699054Y-72169515D01*
X203707816Y-72165051D01*
X203729789Y-72149086D01*
X203879786Y-72040109D01*
X203879788Y-72040106D01*
X203879792Y-72040104D01*
X204030104Y-71889792D01*
X204030106Y-71889788D01*
X204030109Y-71889786D01*
X204155048Y-71717820D01*
X204155047Y-71717820D01*
X204155051Y-71717816D01*
X204251557Y-71528412D01*
X204317246Y-71326243D01*
X204350500Y-71116287D01*
X204350500Y-70903713D01*
X204317246Y-70693757D01*
X204251557Y-70491588D01*
X204155051Y-70302184D01*
X204155049Y-70302181D01*
X204155048Y-70302179D01*
X204030109Y-70130213D01*
X203879790Y-69979894D01*
X203879785Y-69979890D01*
X203874891Y-69976334D01*
X203832227Y-69921003D01*
X203826249Y-69851390D01*
X203858857Y-69789595D01*
X203908774Y-69758312D01*
X203919334Y-69754814D01*
X204068656Y-69662712D01*
X204192712Y-69538656D01*
X204284814Y-69389334D01*
X204339999Y-69222797D01*
X204350500Y-69120009D01*
X204350499Y-67819992D01*
X204339999Y-67717203D01*
X204284814Y-67550666D01*
X204192712Y-67401344D01*
X204068656Y-67277288D01*
X203919334Y-67185186D01*
X203752797Y-67130001D01*
X203752795Y-67130000D01*
X203650016Y-67119500D01*
X203650009Y-67119500D01*
X202712732Y-67119500D01*
X202645693Y-67099815D01*
X202625051Y-67083181D01*
X202296835Y-66754966D01*
X202296832Y-66754962D01*
X202296832Y-66754963D01*
X202289765Y-66747896D01*
X202289765Y-66747895D01*
X202190105Y-66648235D01*
X202190104Y-66648234D01*
X202190103Y-66648233D01*
X202072922Y-66569935D01*
X202072913Y-66569930D01*
X201942704Y-66515996D01*
X201942696Y-66515994D01*
X201804475Y-66488500D01*
X201804471Y-66488500D01*
X189663029Y-66488500D01*
X189663024Y-66488500D01*
X189524803Y-66515993D01*
X189524799Y-66515995D01*
X189524797Y-66515995D01*
X189524796Y-66515996D01*
X189432721Y-66554134D01*
X189432719Y-66554135D01*
X189432718Y-66554134D01*
X189394583Y-66569931D01*
X189277394Y-66648234D01*
X189277391Y-66648237D01*
X188842448Y-67083181D01*
X188781125Y-67116666D01*
X188754767Y-67119500D01*
X187817498Y-67119500D01*
X187817480Y-67119501D01*
X187714703Y-67130000D01*
X187714700Y-67130001D01*
X187548168Y-67185185D01*
X187548163Y-67185187D01*
X187398842Y-67277289D01*
X187274789Y-67401342D01*
X187182687Y-67550663D01*
X187182686Y-67550666D01*
X187127501Y-67717203D01*
X187127501Y-67717204D01*
X187127500Y-67717204D01*
X187117000Y-67819983D01*
X178295498Y-67819983D01*
X178295153Y-67816608D01*
X178284999Y-67717203D01*
X178284998Y-67717200D01*
X178229814Y-67550666D01*
X178137712Y-67401344D01*
X178013656Y-67277288D01*
X177864334Y-67185186D01*
X177697797Y-67130001D01*
X177697795Y-67130000D01*
X177595016Y-67119500D01*
X177595009Y-67119500D01*
X176657732Y-67119500D01*
X176590693Y-67099815D01*
X176570051Y-67083181D01*
X176241835Y-66754966D01*
X176241832Y-66754962D01*
X176241832Y-66754963D01*
X176234765Y-66747896D01*
X176234765Y-66747895D01*
X176135105Y-66648235D01*
X176135104Y-66648234D01*
X176135103Y-66648233D01*
X176017922Y-66569935D01*
X176017913Y-66569930D01*
X175887704Y-66515996D01*
X175887696Y-66515994D01*
X175749475Y-66488500D01*
X175749471Y-66488500D01*
X163608029Y-66488500D01*
X163608024Y-66488500D01*
X163469803Y-66515993D01*
X163469799Y-66515995D01*
X163469797Y-66515995D01*
X163469796Y-66515996D01*
X163377721Y-66554134D01*
X163377719Y-66554135D01*
X163377718Y-66554134D01*
X163339583Y-66569931D01*
X163222394Y-66648234D01*
X163222391Y-66648237D01*
X162787448Y-67083181D01*
X162726125Y-67116666D01*
X162699767Y-67119500D01*
X161762498Y-67119500D01*
X161762480Y-67119501D01*
X161659703Y-67130000D01*
X161659700Y-67130001D01*
X161493168Y-67185185D01*
X161493163Y-67185187D01*
X161343842Y-67277289D01*
X161219789Y-67401342D01*
X161127687Y-67550663D01*
X161127686Y-67550666D01*
X161072501Y-67717203D01*
X161072501Y-67717204D01*
X161072500Y-67717204D01*
X161062000Y-67819983D01*
X152240498Y-67819983D01*
X152240153Y-67816608D01*
X152229999Y-67717203D01*
X152229998Y-67717200D01*
X152174814Y-67550666D01*
X152082712Y-67401344D01*
X151958656Y-67277288D01*
X151809334Y-67185186D01*
X151642797Y-67130001D01*
X151642795Y-67130000D01*
X151540016Y-67119500D01*
X151540009Y-67119500D01*
X150602732Y-67119500D01*
X150535693Y-67099815D01*
X150515051Y-67083181D01*
X150186835Y-66754966D01*
X150186832Y-66754962D01*
X150186832Y-66754963D01*
X150179765Y-66747896D01*
X150179765Y-66747895D01*
X150080105Y-66648235D01*
X150080104Y-66648234D01*
X150080103Y-66648233D01*
X149962922Y-66569935D01*
X149962913Y-66569930D01*
X149832704Y-66515996D01*
X149832696Y-66515994D01*
X149694475Y-66488500D01*
X149694471Y-66488500D01*
X137553029Y-66488500D01*
X137553024Y-66488500D01*
X137414803Y-66515993D01*
X137414799Y-66515995D01*
X137414797Y-66515995D01*
X137414796Y-66515996D01*
X137322721Y-66554134D01*
X137322719Y-66554135D01*
X137322718Y-66554134D01*
X137284583Y-66569931D01*
X137167394Y-66648234D01*
X137167391Y-66648237D01*
X136732448Y-67083181D01*
X136671125Y-67116666D01*
X136644767Y-67119500D01*
X135707498Y-67119500D01*
X135707480Y-67119501D01*
X135604703Y-67130000D01*
X135604700Y-67130001D01*
X135438168Y-67185185D01*
X135438163Y-67185187D01*
X135288842Y-67277289D01*
X135164789Y-67401342D01*
X135072687Y-67550663D01*
X135072686Y-67550666D01*
X135017501Y-67717203D01*
X135017501Y-67717204D01*
X135017500Y-67717204D01*
X135007000Y-67819983D01*
X126185498Y-67819983D01*
X126185153Y-67816608D01*
X126174999Y-67717203D01*
X126174998Y-67717200D01*
X126119814Y-67550666D01*
X126027712Y-67401344D01*
X125903656Y-67277288D01*
X125754334Y-67185186D01*
X125587797Y-67130001D01*
X125587795Y-67130000D01*
X125485016Y-67119500D01*
X125485009Y-67119500D01*
X124547732Y-67119500D01*
X124480693Y-67099815D01*
X124460051Y-67083181D01*
X124131835Y-66754966D01*
X124131832Y-66754962D01*
X124131832Y-66754963D01*
X124124765Y-66747896D01*
X124124765Y-66747895D01*
X124025105Y-66648235D01*
X124025104Y-66648234D01*
X124025103Y-66648233D01*
X123907922Y-66569935D01*
X123907913Y-66569930D01*
X123777704Y-66515996D01*
X123777696Y-66515994D01*
X123639475Y-66488500D01*
X123639471Y-66488500D01*
X111498029Y-66488500D01*
X111498024Y-66488500D01*
X111359803Y-66515993D01*
X111359799Y-66515995D01*
X111359797Y-66515995D01*
X111359796Y-66515996D01*
X111267721Y-66554134D01*
X111267719Y-66554135D01*
X111267718Y-66554134D01*
X111229583Y-66569931D01*
X111112394Y-66648234D01*
X111112391Y-66648237D01*
X110677448Y-67083181D01*
X110616125Y-67116666D01*
X110589767Y-67119500D01*
X109652498Y-67119500D01*
X109652480Y-67119501D01*
X109549703Y-67130000D01*
X109549700Y-67130001D01*
X109383168Y-67185185D01*
X109383163Y-67185187D01*
X109233842Y-67277289D01*
X109109789Y-67401342D01*
X109017687Y-67550663D01*
X109017686Y-67550666D01*
X108962501Y-67717203D01*
X108962501Y-67717204D01*
X108962500Y-67717204D01*
X108952000Y-67819983D01*
X100130498Y-67819983D01*
X100130153Y-67816608D01*
X100119999Y-67717203D01*
X100119998Y-67717200D01*
X100064814Y-67550666D01*
X99972712Y-67401344D01*
X99848656Y-67277288D01*
X99699334Y-67185186D01*
X99532797Y-67130001D01*
X99532795Y-67130000D01*
X99430016Y-67119500D01*
X99430009Y-67119500D01*
X98492732Y-67119500D01*
X98425693Y-67099815D01*
X98405051Y-67083181D01*
X98076835Y-66754966D01*
X98076832Y-66754962D01*
X98076832Y-66754963D01*
X98069765Y-66747896D01*
X98069765Y-66747895D01*
X97970105Y-66648235D01*
X97970104Y-66648234D01*
X97970103Y-66648233D01*
X97852922Y-66569935D01*
X97852913Y-66569930D01*
X97722704Y-66515996D01*
X97722696Y-66515994D01*
X97584475Y-66488500D01*
X97584471Y-66488500D01*
X85443029Y-66488500D01*
X85443024Y-66488500D01*
X85304803Y-66515993D01*
X85304799Y-66515995D01*
X85304797Y-66515995D01*
X85304796Y-66515996D01*
X85212721Y-66554134D01*
X85212719Y-66554135D01*
X85212718Y-66554134D01*
X85174583Y-66569931D01*
X85057394Y-66648234D01*
X85057391Y-66648237D01*
X84622448Y-67083181D01*
X84561125Y-67116666D01*
X84534767Y-67119500D01*
X83597498Y-67119500D01*
X83597480Y-67119501D01*
X83494703Y-67130000D01*
X83494700Y-67130001D01*
X83328168Y-67185185D01*
X83328163Y-67185187D01*
X83178842Y-67277289D01*
X83054789Y-67401342D01*
X82962687Y-67550663D01*
X82962686Y-67550666D01*
X82907501Y-67717203D01*
X82907501Y-67717204D01*
X82907500Y-67717204D01*
X82897000Y-67819983D01*
X77694864Y-67819983D01*
X77694870Y-67816608D01*
X77699775Y-65123774D01*
X77719582Y-65056771D01*
X77772469Y-65011112D01*
X77823775Y-65000000D01*
X207876000Y-65000000D01*
X207943039Y-65019685D01*
G37*
%TD.AperFunction*%
%TD*%
M02*
