%TF.GenerationSoftware,KiCad,Pcbnew,9.99.0-unknown-b0b07bbc41~182~ubuntu22.04.1*%
%TF.CreationDate,2025-08-08T10:17:54+02:00*%
%TF.ProjectId,CP70_front_flatcable,43503730-5f66-4726-9f6e-745f666c6174,rev?*%
%TF.SameCoordinates,Original*%
%TF.FileFunction,Soldermask,Bot*%
%TF.FilePolarity,Negative*%
%FSLAX46Y46*%
G04 Gerber Fmt 4.6, Leading zero omitted, Abs format (unit mm)*
G04 Created by KiCad (PCBNEW 9.99.0-unknown-b0b07bbc41~182~ubuntu22.04.1) date 2025-08-08 10:17:54*
%MOMM*%
%LPD*%
G01*
G04 APERTURE LIST*
G04 Aperture macros list*
%AMRoundRect*
0 Rectangle with rounded corners*
0 $1 Rounding radius*
0 $2 $3 $4 $5 $6 $7 $8 $9 X,Y pos of 4 corners*
0 Add a 4 corners polygon primitive as box body*
4,1,4,$2,$3,$4,$5,$6,$7,$8,$9,$2,$3,0*
0 Add four circle primitives for the rounded corners*
1,1,$1+$1,$2,$3*
1,1,$1+$1,$4,$5*
1,1,$1+$1,$6,$7*
1,1,$1+$1,$8,$9*
0 Add four rect primitives between the rounded corners*
20,1,$1+$1,$2,$3,$4,$5,0*
20,1,$1+$1,$4,$5,$6,$7,0*
20,1,$1+$1,$6,$7,$8,$9,0*
20,1,$1+$1,$8,$9,$2,$3,0*%
G04 Aperture macros list end*
%ADD10C,0.800000*%
%ADD11C,6.400000*%
%ADD12RoundRect,0.250000X-0.600000X-0.600000X0.600000X-0.600000X0.600000X0.600000X-0.600000X0.600000X0*%
%ADD13C,1.700000*%
%ADD14C,8.000000*%
%ADD15RoundRect,0.250000X0.600000X0.600000X-0.600000X0.600000X-0.600000X-0.600000X0.600000X-0.600000X0*%
G04 APERTURE END LIST*
D10*
%TO.C,H106*%
X74700000Y-92600000D03*
X75402944Y-90902944D03*
X75402944Y-94297056D03*
X77100000Y-90200000D03*
D11*
X77100000Y-92600000D03*
D10*
X77100000Y-95000000D03*
X78797056Y-90902944D03*
X78797056Y-94297056D03*
X79500000Y-92600000D03*
%TD*%
%TO.C,H105*%
X207400000Y-92600000D03*
X208102944Y-90902944D03*
X208102944Y-94297056D03*
X209800000Y-90200000D03*
D11*
X209800000Y-92600000D03*
D10*
X209800000Y-95000000D03*
X211497056Y-90902944D03*
X211497056Y-94297056D03*
X212200000Y-92600000D03*
%TD*%
%TO.C,H104*%
X166100000Y-48600000D03*
X166802944Y-46902944D03*
X166802944Y-50297056D03*
X168500000Y-46200000D03*
D11*
X168500000Y-48600000D03*
D10*
X168500000Y-51000000D03*
X170197056Y-46902944D03*
X170197056Y-50297056D03*
X170900000Y-48600000D03*
%TD*%
%TO.C,H103*%
X116100000Y-48600000D03*
X116802944Y-46902944D03*
X116802944Y-50297056D03*
X118500000Y-46200000D03*
D11*
X118500000Y-48600000D03*
D10*
X118500000Y-51000000D03*
X120197056Y-46902944D03*
X120197056Y-50297056D03*
X120900000Y-48600000D03*
%TD*%
%TO.C,H102*%
X166100000Y-136600000D03*
X166802944Y-134902944D03*
X166802944Y-138297056D03*
X168500000Y-134200000D03*
D11*
X168500000Y-136600000D03*
D10*
X168500000Y-139000000D03*
X170197056Y-134902944D03*
X170197056Y-138297056D03*
X170900000Y-136600000D03*
%TD*%
%TO.C,H101*%
X116100000Y-136600000D03*
X116802944Y-134902944D03*
X116802944Y-138297056D03*
X118500000Y-134200000D03*
D11*
X118500000Y-136600000D03*
D10*
X118500000Y-139000000D03*
X120197056Y-134902944D03*
X120197056Y-138297056D03*
X120900000Y-136600000D03*
%TD*%
%TO.C,H204*%
X76100000Y-136600000D03*
X76802944Y-134902944D03*
X76802944Y-138297056D03*
X78500000Y-134200000D03*
D11*
X78500000Y-136600000D03*
D10*
X78500000Y-139000000D03*
X80197056Y-134902944D03*
X80197056Y-138297056D03*
X80900000Y-136600000D03*
%TD*%
%TO.C,H203*%
X76100000Y-48600000D03*
X76802944Y-46902944D03*
X76802944Y-50297056D03*
X78500000Y-46200000D03*
D11*
X78500000Y-48600000D03*
D10*
X78500000Y-51000000D03*
X80197056Y-46902944D03*
X80197056Y-50297056D03*
X80900000Y-48600000D03*
%TD*%
%TO.C,H202*%
X206100000Y-136600000D03*
X206802944Y-134902944D03*
X206802944Y-138297056D03*
X208500000Y-134200000D03*
D11*
X208500000Y-136600000D03*
D10*
X208500000Y-139000000D03*
X210197056Y-134902944D03*
X210197056Y-138297056D03*
X210900000Y-136600000D03*
%TD*%
%TO.C,H201*%
X206100000Y-48600000D03*
X206802944Y-46902944D03*
X206802944Y-50297056D03*
X208500000Y-46200000D03*
D11*
X208500000Y-48600000D03*
D10*
X208500000Y-51000000D03*
X210197056Y-46902944D03*
X210197056Y-50297056D03*
X210900000Y-48600000D03*
%TD*%
D12*
%TO.C,J101*%
X84247500Y-68470000D03*
D13*
X86787500Y-68470000D03*
X84247500Y-71010000D03*
X86787500Y-71010000D03*
X84247500Y-73550000D03*
X86787500Y-73550000D03*
X84247500Y-76090000D03*
X86787500Y-76090000D03*
X84247500Y-78630000D03*
X86787500Y-78630000D03*
X84247500Y-81170000D03*
X86787500Y-81170000D03*
X84247500Y-83710000D03*
X86787500Y-83710000D03*
X84247500Y-86250000D03*
X86787500Y-86250000D03*
X84247500Y-88790000D03*
X86787500Y-88790000D03*
X84247500Y-91330000D03*
X86787500Y-91330000D03*
X84247500Y-93870000D03*
X86787500Y-93870000D03*
X84247500Y-96410000D03*
X86787500Y-96410000D03*
X84247500Y-98950000D03*
X86787500Y-98950000D03*
X84247500Y-101490000D03*
X86787500Y-101490000D03*
X84247500Y-104030000D03*
X86787500Y-104030000D03*
X84247500Y-106570000D03*
X86787500Y-106570000D03*
X84247500Y-109110000D03*
X86787500Y-109110000D03*
X84247500Y-111650000D03*
X86787500Y-111650000D03*
X84247500Y-114190000D03*
X86787500Y-114190000D03*
X84247500Y-116730000D03*
X86787500Y-116730000D03*
D14*
X85267500Y-59530000D03*
X85267500Y-125670000D03*
%TD*%
D12*
%TO.C,J102*%
X110302500Y-68470000D03*
D13*
X112842500Y-68470000D03*
X110302500Y-71010000D03*
X112842500Y-71010000D03*
X110302500Y-73550000D03*
X112842500Y-73550000D03*
X110302500Y-76090000D03*
X112842500Y-76090000D03*
X110302500Y-78630000D03*
X112842500Y-78630000D03*
X110302500Y-81170000D03*
X112842500Y-81170000D03*
X110302500Y-83710000D03*
X112842500Y-83710000D03*
X110302500Y-86250000D03*
X112842500Y-86250000D03*
X110302500Y-88790000D03*
X112842500Y-88790000D03*
X110302500Y-91330000D03*
X112842500Y-91330000D03*
X110302500Y-93870000D03*
X112842500Y-93870000D03*
X110302500Y-96410000D03*
X112842500Y-96410000D03*
X110302500Y-98950000D03*
X112842500Y-98950000D03*
X110302500Y-101490000D03*
X112842500Y-101490000D03*
X110302500Y-104030000D03*
X112842500Y-104030000D03*
X110302500Y-106570000D03*
X112842500Y-106570000D03*
X110302500Y-109110000D03*
X112842500Y-109110000D03*
X110302500Y-111650000D03*
X112842500Y-111650000D03*
X110302500Y-114190000D03*
X112842500Y-114190000D03*
X110302500Y-116730000D03*
X112842500Y-116730000D03*
D14*
X111322500Y-59530000D03*
X111322500Y-125670000D03*
%TD*%
D12*
%TO.C,J108*%
X188467500Y-68470000D03*
D13*
X191007500Y-68470000D03*
X188467500Y-71010000D03*
X191007500Y-71010000D03*
X188467500Y-73550000D03*
X191007500Y-73550000D03*
X188467500Y-76090000D03*
X191007500Y-76090000D03*
X188467500Y-78630000D03*
X191007500Y-78630000D03*
X188467500Y-81170000D03*
X191007500Y-81170000D03*
X188467500Y-83710000D03*
X191007500Y-83710000D03*
X188467500Y-86250000D03*
X191007500Y-86250000D03*
X188467500Y-88790000D03*
X191007500Y-88790000D03*
X188467500Y-91330000D03*
X191007500Y-91330000D03*
X188467500Y-93870000D03*
X191007500Y-93870000D03*
X188467500Y-96410000D03*
X191007500Y-96410000D03*
X188467500Y-98950000D03*
X191007500Y-98950000D03*
X188467500Y-101490000D03*
X191007500Y-101490000D03*
X188467500Y-104030000D03*
X191007500Y-104030000D03*
X188467500Y-106570000D03*
X191007500Y-106570000D03*
X188467500Y-109110000D03*
X191007500Y-109110000D03*
X188467500Y-111650000D03*
X191007500Y-111650000D03*
X188467500Y-114190000D03*
X191007500Y-114190000D03*
X188467500Y-116730000D03*
X191007500Y-116730000D03*
D14*
X189487500Y-59530000D03*
X189487500Y-125670000D03*
%TD*%
D12*
%TO.C,J106*%
X162412500Y-68470000D03*
D13*
X164952500Y-68470000D03*
X162412500Y-71010000D03*
X164952500Y-71010000D03*
X162412500Y-73550000D03*
X164952500Y-73550000D03*
X162412500Y-76090000D03*
X164952500Y-76090000D03*
X162412500Y-78630000D03*
X164952500Y-78630000D03*
X162412500Y-81170000D03*
X164952500Y-81170000D03*
X162412500Y-83710000D03*
X164952500Y-83710000D03*
X162412500Y-86250000D03*
X164952500Y-86250000D03*
X162412500Y-88790000D03*
X164952500Y-88790000D03*
X162412500Y-91330000D03*
X164952500Y-91330000D03*
X162412500Y-93870000D03*
X164952500Y-93870000D03*
X162412500Y-96410000D03*
X164952500Y-96410000D03*
X162412500Y-98950000D03*
X164952500Y-98950000D03*
X162412500Y-101490000D03*
X164952500Y-101490000D03*
X162412500Y-104030000D03*
X164952500Y-104030000D03*
X162412500Y-106570000D03*
X164952500Y-106570000D03*
X162412500Y-109110000D03*
X164952500Y-109110000D03*
X162412500Y-111650000D03*
X164952500Y-111650000D03*
X162412500Y-114190000D03*
X164952500Y-114190000D03*
X162412500Y-116730000D03*
X164952500Y-116730000D03*
D14*
X163432500Y-59530000D03*
X163432500Y-125670000D03*
%TD*%
D12*
%TO.C,J104*%
X136357500Y-68470000D03*
D13*
X138897500Y-68470000D03*
X136357500Y-71010000D03*
X138897500Y-71010000D03*
X136357500Y-73550000D03*
X138897500Y-73550000D03*
X136357500Y-76090000D03*
X138897500Y-76090000D03*
X136357500Y-78630000D03*
X138897500Y-78630000D03*
X136357500Y-81170000D03*
X138897500Y-81170000D03*
X136357500Y-83710000D03*
X138897500Y-83710000D03*
X136357500Y-86250000D03*
X138897500Y-86250000D03*
X136357500Y-88790000D03*
X138897500Y-88790000D03*
X136357500Y-91330000D03*
X138897500Y-91330000D03*
X136357500Y-93870000D03*
X138897500Y-93870000D03*
X136357500Y-96410000D03*
X138897500Y-96410000D03*
X136357500Y-98950000D03*
X138897500Y-98950000D03*
X136357500Y-101490000D03*
X138897500Y-101490000D03*
X136357500Y-104030000D03*
X138897500Y-104030000D03*
X136357500Y-106570000D03*
X138897500Y-106570000D03*
X136357500Y-109110000D03*
X138897500Y-109110000D03*
X136357500Y-111650000D03*
X138897500Y-111650000D03*
X136357500Y-114190000D03*
X138897500Y-114190000D03*
X136357500Y-116730000D03*
X138897500Y-116730000D03*
D14*
X137377500Y-59530000D03*
X137377500Y-125670000D03*
%TD*%
D15*
%TO.C,J107*%
X176945000Y-68470000D03*
D13*
X174405000Y-68470000D03*
X176945000Y-71010000D03*
X174405000Y-71010000D03*
X176945000Y-73550000D03*
X174405000Y-73550000D03*
X176945000Y-76090000D03*
X174405000Y-76090000D03*
X176945000Y-78630000D03*
X174405000Y-78630000D03*
X176945000Y-81170000D03*
X174405000Y-81170000D03*
X176945000Y-83710000D03*
X174405000Y-83710000D03*
X176945000Y-86250000D03*
X174405000Y-86250000D03*
X176945000Y-88790000D03*
X174405000Y-88790000D03*
X176945000Y-91330000D03*
X174405000Y-91330000D03*
X176945000Y-93870000D03*
X174405000Y-93870000D03*
X176945000Y-96410000D03*
X174405000Y-96410000D03*
X176945000Y-98950000D03*
X174405000Y-98950000D03*
X176945000Y-101490000D03*
X174405000Y-101490000D03*
X176945000Y-104030000D03*
X174405000Y-104030000D03*
X176945000Y-106570000D03*
X174405000Y-106570000D03*
X176945000Y-109110000D03*
X174405000Y-109110000D03*
X176945000Y-111650000D03*
X174405000Y-111650000D03*
X176945000Y-114190000D03*
X174405000Y-114190000D03*
X176945000Y-116730000D03*
X174405000Y-116730000D03*
D14*
X175925000Y-125670000D03*
X175925000Y-59530000D03*
%TD*%
D15*
%TO.C,J109*%
X203000000Y-68470000D03*
D13*
X200460000Y-68470000D03*
X203000000Y-71010000D03*
X200460000Y-71010000D03*
X203000000Y-73550000D03*
X200460000Y-73550000D03*
X203000000Y-76090000D03*
X200460000Y-76090000D03*
X203000000Y-78630000D03*
X200460000Y-78630000D03*
X203000000Y-81170000D03*
X200460000Y-81170000D03*
X203000000Y-83710000D03*
X200460000Y-83710000D03*
X203000000Y-86250000D03*
X200460000Y-86250000D03*
X203000000Y-88790000D03*
X200460000Y-88790000D03*
X203000000Y-91330000D03*
X200460000Y-91330000D03*
X203000000Y-93870000D03*
X200460000Y-93870000D03*
X203000000Y-96410000D03*
X200460000Y-96410000D03*
X203000000Y-98950000D03*
X200460000Y-98950000D03*
X203000000Y-101490000D03*
X200460000Y-101490000D03*
X203000000Y-104030000D03*
X200460000Y-104030000D03*
X203000000Y-106570000D03*
X200460000Y-106570000D03*
X203000000Y-109110000D03*
X200460000Y-109110000D03*
X203000000Y-111650000D03*
X200460000Y-111650000D03*
X203000000Y-114190000D03*
X200460000Y-114190000D03*
X203000000Y-116730000D03*
X200460000Y-116730000D03*
D14*
X201980000Y-125670000D03*
X201980000Y-59530000D03*
%TD*%
D15*
%TO.C,J202*%
X98780000Y-68470000D03*
D13*
X96240000Y-68470000D03*
X98780000Y-71010000D03*
X96240000Y-71010000D03*
X98780000Y-73550000D03*
X96240000Y-73550000D03*
X98780000Y-76090000D03*
X96240000Y-76090000D03*
X98780000Y-78630000D03*
X96240000Y-78630000D03*
X98780000Y-81170000D03*
X96240000Y-81170000D03*
X98780000Y-83710000D03*
X96240000Y-83710000D03*
X98780000Y-86250000D03*
X96240000Y-86250000D03*
X98780000Y-88790000D03*
X96240000Y-88790000D03*
X98780000Y-91330000D03*
X96240000Y-91330000D03*
X98780000Y-93870000D03*
X96240000Y-93870000D03*
X98780000Y-96410000D03*
X96240000Y-96410000D03*
X98780000Y-98950000D03*
X96240000Y-98950000D03*
X98780000Y-101490000D03*
X96240000Y-101490000D03*
X98780000Y-104030000D03*
X96240000Y-104030000D03*
X98780000Y-106570000D03*
X96240000Y-106570000D03*
X98780000Y-109110000D03*
X96240000Y-109110000D03*
X98780000Y-111650000D03*
X96240000Y-111650000D03*
X98780000Y-114190000D03*
X96240000Y-114190000D03*
X98780000Y-116730000D03*
X96240000Y-116730000D03*
D14*
X97760000Y-125670000D03*
X97760000Y-59530000D03*
%TD*%
D15*
%TO.C,J105*%
X150890000Y-68470000D03*
D13*
X148350000Y-68470000D03*
X150890000Y-71010000D03*
X148350000Y-71010000D03*
X150890000Y-73550000D03*
X148350000Y-73550000D03*
X150890000Y-76090000D03*
X148350000Y-76090000D03*
X150890000Y-78630000D03*
X148350000Y-78630000D03*
X150890000Y-81170000D03*
X148350000Y-81170000D03*
X150890000Y-83710000D03*
X148350000Y-83710000D03*
X150890000Y-86250000D03*
X148350000Y-86250000D03*
X150890000Y-88790000D03*
X148350000Y-88790000D03*
X150890000Y-91330000D03*
X148350000Y-91330000D03*
X150890000Y-93870000D03*
X148350000Y-93870000D03*
X150890000Y-96410000D03*
X148350000Y-96410000D03*
X150890000Y-98950000D03*
X148350000Y-98950000D03*
X150890000Y-101490000D03*
X148350000Y-101490000D03*
X150890000Y-104030000D03*
X148350000Y-104030000D03*
X150890000Y-106570000D03*
X148350000Y-106570000D03*
X150890000Y-109110000D03*
X148350000Y-109110000D03*
X150890000Y-111650000D03*
X148350000Y-111650000D03*
X150890000Y-114190000D03*
X148350000Y-114190000D03*
X150890000Y-116730000D03*
X148350000Y-116730000D03*
D14*
X149870000Y-125670000D03*
X149870000Y-59530000D03*
%TD*%
D15*
%TO.C,J103*%
X124835000Y-68470000D03*
D13*
X122295000Y-68470000D03*
X124835000Y-71010000D03*
X122295000Y-71010000D03*
X124835000Y-73550000D03*
X122295000Y-73550000D03*
X124835000Y-76090000D03*
X122295000Y-76090000D03*
X124835000Y-78630000D03*
X122295000Y-78630000D03*
X124835000Y-81170000D03*
X122295000Y-81170000D03*
X124835000Y-83710000D03*
X122295000Y-83710000D03*
X124835000Y-86250000D03*
X122295000Y-86250000D03*
X124835000Y-88790000D03*
X122295000Y-88790000D03*
X124835000Y-91330000D03*
X122295000Y-91330000D03*
X124835000Y-93870000D03*
X122295000Y-93870000D03*
X124835000Y-96410000D03*
X122295000Y-96410000D03*
X124835000Y-98950000D03*
X122295000Y-98950000D03*
X124835000Y-101490000D03*
X122295000Y-101490000D03*
X124835000Y-104030000D03*
X122295000Y-104030000D03*
X124835000Y-106570000D03*
X122295000Y-106570000D03*
X124835000Y-109110000D03*
X122295000Y-109110000D03*
X124835000Y-111650000D03*
X122295000Y-111650000D03*
X124835000Y-114190000D03*
X122295000Y-114190000D03*
X124835000Y-116730000D03*
X122295000Y-116730000D03*
D14*
X123815000Y-125670000D03*
X123815000Y-59530000D03*
%TD*%
M02*
