M48
; DRILL file {KiCad 9.99.0-unknown-b0b07bbc41~182~ubuntu22.04.1} date 2025-08-08T10:17:58+0200
; FORMAT={-:-/ absolute / inch / decimal}
; #@! TF.CreationDate,2025-08-08T10:17:58+02:00
; #@! TF.GenerationSoftware,Kicad,Pcbnew,9.99.0-unknown-b0b07bbc41~182~ubuntu22.04.1
; #@! TF.FileFunction,Plated,1,2,PTH
FMAT,2
INCH
; #@! TA.AperFunction,Plated,PTH,ViaDrill
T1C0.0157
; #@! TA.AperFunction,Plated,PTH,ComponentDrill
T2C0.0197
; #@! TA.AperFunction,Plated,PTH,ComponentDrill
T3C0.0394
; #@! TA.AperFunction,Plated,PTH,ComponentDrill
T4C0.1059
; #@! TA.AperFunction,Plated,PTH,ComponentDrill
T5C0.1260
%
G90
G05
T1
X3.23Y-2.63
X3.23Y-2.7285
X3.23Y-2.827
X3.23Y-2.9255
X3.23Y-3.024
X3.23Y-3.1225
X3.23Y-3.221
X3.23Y-3.3195
X3.23Y-3.418
X3.23Y-3.5165
X3.23Y-3.615
X3.23Y-3.7135
X3.23Y-3.812
X3.23Y-3.9105
X3.23Y-4.009
X3.23Y-4.1075
X3.23Y-4.206
X3.23Y-4.3045
X3.23Y-4.403
X3.23Y-4.5015
X3.23Y-4.6
X4.01Y-2.68
X4.01Y-2.7785
X4.01Y-2.877
X4.01Y-2.9755
X4.01Y-3.074
X4.01Y-3.1725
X4.01Y-3.271
X4.01Y-3.3695
X4.01Y-3.468
X4.01Y-3.5665
X4.01Y-3.665
X4.01Y-3.7635
X4.01Y-3.862
X4.01Y-3.9605
X4.01Y-4.059
X4.01Y-4.1575
X4.01Y-4.256
X4.01Y-4.3545
X4.01Y-4.453
X4.01Y-4.5515
X4.01Y-4.65
X4.22Y-2.68
X4.22Y-2.7785
X4.22Y-2.877
X4.22Y-2.9755
X4.22Y-3.074
X4.22Y-3.1725
X4.22Y-3.271
X4.22Y-3.3695
X4.22Y-3.468
X4.22Y-3.5665
X4.22Y-3.665
X4.22Y-3.7635
X4.22Y-3.862
X4.22Y-3.9605
X4.22Y-4.059
X4.22Y-4.1575
X4.22Y-4.256
X4.22Y-4.3545
X4.22Y-4.453
X4.22Y-4.5515
X4.22Y-4.65
X5.04Y-2.68
X5.04Y-2.7785
X5.04Y-2.877
X5.04Y-2.9755
X5.04Y-3.074
X5.04Y-3.1725
X5.04Y-3.271
X5.04Y-3.3695
X5.04Y-3.468
X5.04Y-3.5665
X5.04Y-3.665
X5.04Y-3.7635
X5.04Y-3.862
X5.04Y-3.9605
X5.04Y-4.059
X5.04Y-4.1575
X5.04Y-4.256
X5.04Y-4.3545
X5.04Y-4.453
X5.04Y-4.5515
X5.04Y-4.65
X5.25Y-2.68
X5.25Y-2.7785
X5.25Y-2.877
X5.25Y-2.9755
X5.25Y-3.074
X5.25Y-3.1725
X5.25Y-3.271
X5.25Y-3.3695
X5.25Y-3.468
X5.25Y-3.5665
X5.25Y-3.665
X5.25Y-3.7635
X5.25Y-3.862
X5.25Y-3.9605
X5.25Y-4.059
X5.25Y-4.1575
X5.25Y-4.256
X5.25Y-4.3545
X5.25Y-4.453
X5.25Y-4.5515
X5.25Y-4.65
X6.07Y-2.68
X6.07Y-2.7785
X6.07Y-2.877
X6.07Y-2.9755
X6.07Y-3.074
X6.07Y-3.1725
X6.07Y-3.271
X6.07Y-3.3695
X6.07Y-3.468
X6.07Y-3.5665
X6.07Y-3.665
X6.07Y-3.7635
X6.07Y-3.862
X6.07Y-3.9605
X6.07Y-4.059
X6.07Y-4.1575
X6.07Y-4.256
X6.07Y-4.3545
X6.07Y-4.453
X6.07Y-4.5515
X6.07Y-4.65
X6.28Y-2.68
X6.28Y-2.7785
X6.28Y-2.877
X6.28Y-2.9755
X6.28Y-3.074
X6.28Y-3.1725
X6.28Y-3.271
X6.28Y-3.3695
X6.28Y-3.468
X6.28Y-3.5665
X6.28Y-3.665
X6.28Y-3.7635
X6.28Y-3.862
X6.28Y-3.9605
X6.28Y-4.059
X6.28Y-4.1575
X6.28Y-4.256
X6.28Y-4.3545
X6.28Y-4.453
X6.28Y-4.5515
X6.28Y-4.65
X7.07Y-2.6795
X7.07Y-2.778
X7.07Y-2.8765
X7.07Y-2.975
X7.07Y-3.0735
X7.07Y-3.172
X7.07Y-3.2705
X7.07Y-3.369
X7.07Y-3.4675
X7.07Y-3.566
X7.07Y-3.6645
X7.07Y-3.763
X7.07Y-3.8615
X7.07Y-3.96
X7.07Y-4.0585
X7.07Y-4.157
X7.07Y-4.2555
X7.07Y-4.354
X7.07Y-4.4525
X7.07Y-4.551
X7.07Y-4.6495
X7.28Y-2.6795
X7.28Y-2.778
X7.28Y-2.8765
X7.28Y-2.975
X7.28Y-3.0735
X7.28Y-3.172
X7.28Y-3.2705
X7.28Y-3.369
X7.28Y-3.4675
X7.28Y-3.566
X7.28Y-3.6645
X7.28Y-3.763
X7.28Y-3.8615
X7.28Y-3.96
X7.28Y-4.0585
X7.28Y-4.157
X7.28Y-4.2555
X7.28Y-4.354
X7.28Y-4.4525
X7.28Y-4.551
X7.28Y-4.6495
X8.08Y-2.7
X8.08Y-2.7985
X8.08Y-2.897
X8.08Y-2.9955
X8.08Y-3.094
X8.08Y-3.1925
X8.08Y-3.291
X8.08Y-3.3895
X8.08Y-3.488
X8.08Y-3.5865
X8.08Y-3.685
X8.08Y-3.7835
X8.08Y-3.882
X8.08Y-3.9805
X8.08Y-4.079
X8.08Y-4.1775
X8.08Y-4.276
X8.08Y-4.3745
X8.08Y-4.473
X8.08Y-4.5715
X8.08Y-4.67
T2
X2.9409Y-3.6457
X2.9686Y-3.5789
X2.9686Y-3.7125
X2.9961Y-1.9134
X2.9961Y-5.378
X3.0237Y-1.8466
X3.0237Y-1.9802
X3.0237Y-5.3111
X3.0237Y-5.4448
X3.0354Y-3.5512
X3.0354Y-3.7402
X3.0906Y-1.8189
X3.0906Y-2.0079
X3.0906Y-5.2835
X3.0906Y-5.4724
X3.1022Y-3.5789
X3.1022Y-3.7125
X3.1299Y-3.6457
X3.1574Y-1.8466
X3.1574Y-1.9802
X3.1574Y-5.3111
X3.1574Y-5.4448
X3.185Y-1.9134
X3.185Y-5.378
X4.5709Y-1.9134
X4.5709Y-5.378
X4.5985Y-1.8466
X4.5985Y-1.9802
X4.5985Y-5.3111
X4.5985Y-5.4448
X4.6654Y-1.8189
X4.6654Y-2.0079
X4.6654Y-5.2835
X4.6654Y-5.4724
X4.7322Y-1.8466
X4.7322Y-1.9802
X4.7322Y-5.3111
X4.7322Y-5.4448
X4.7598Y-1.9134
X4.7598Y-5.378
X6.5394Y-1.9134
X6.5394Y-5.378
X6.567Y-1.8466
X6.567Y-1.9802
X6.567Y-5.3111
X6.567Y-5.4448
X6.6339Y-1.8189
X6.6339Y-2.0079
X6.6339Y-5.2835
X6.6339Y-5.4724
X6.7007Y-1.8466
X6.7007Y-1.9802
X6.7007Y-5.3111
X6.7007Y-5.4448
X6.7283Y-1.9134
X6.7283Y-5.378
X8.1142Y-1.9134
X8.1142Y-5.378
X8.1418Y-1.8466
X8.1418Y-1.9802
X8.1418Y-5.3111
X8.1418Y-5.4448
X8.1654Y-3.6457
X8.193Y-3.5789
X8.193Y-3.7125
X8.2087Y-1.8189
X8.2087Y-2.0079
X8.2087Y-5.2835
X8.2087Y-5.4724
X8.2598Y-3.5512
X8.2598Y-3.7402
X8.2755Y-1.8466
X8.2755Y-1.9802
X8.2755Y-5.3111
X8.2755Y-5.4448
X8.3031Y-1.9134
X8.3031Y-5.378
X8.3267Y-3.5789
X8.3267Y-3.7125
X8.3543Y-3.6457
T3
X3.3168Y-2.6957
X3.3168Y-2.7957
X3.3168Y-2.8957
X3.3168Y-2.9957
X3.3168Y-3.0957
X3.3168Y-3.1957
X3.3168Y-3.2957
X3.3168Y-3.3957
X3.3168Y-3.4957
X3.3168Y-3.5957
X3.3168Y-3.6957
X3.3168Y-3.7957
X3.3168Y-3.8957
X3.3168Y-3.9957
X3.3168Y-4.0957
X3.3168Y-4.1957
X3.3168Y-4.2957
X3.3168Y-4.3957
X3.3168Y-4.4957
X3.3168Y-4.5957
X3.4168Y-2.6957
X3.4168Y-2.7957
X3.4168Y-2.8957
X3.4168Y-2.9957
X3.4168Y-3.0957
X3.4168Y-3.1957
X3.4168Y-3.2957
X3.4168Y-3.3957
X3.4168Y-3.4957
X3.4168Y-3.5957
X3.4168Y-3.6957
X3.4168Y-3.7957
X3.4168Y-3.8957
X3.4168Y-3.9957
X3.4168Y-4.0957
X3.4168Y-4.1957
X3.4168Y-4.2957
X3.4168Y-4.3957
X3.4168Y-4.4957
X3.4168Y-4.5957
X3.789Y-2.6957
X3.789Y-2.7957
X3.789Y-2.8957
X3.789Y-2.9957
X3.789Y-3.0957
X3.789Y-3.1957
X3.789Y-3.2957
X3.789Y-3.3957
X3.789Y-3.4957
X3.789Y-3.5957
X3.789Y-3.6957
X3.789Y-3.7957
X3.789Y-3.8957
X3.789Y-3.9957
X3.789Y-4.0957
X3.789Y-4.1957
X3.789Y-4.2957
X3.789Y-4.3957
X3.789Y-4.4957
X3.789Y-4.5957
X3.889Y-2.6957
X3.889Y-2.7957
X3.889Y-2.8957
X3.889Y-2.9957
X3.889Y-3.0957
X3.889Y-3.1957
X3.889Y-3.2957
X3.889Y-3.3957
X3.889Y-3.4957
X3.889Y-3.5957
X3.889Y-3.6957
X3.889Y-3.7957
X3.889Y-3.8957
X3.889Y-3.9957
X3.889Y-4.0957
X3.889Y-4.1957
X3.889Y-4.2957
X3.889Y-4.3957
X3.889Y-4.4957
X3.889Y-4.5957
X4.3426Y-2.6957
X4.3426Y-2.7957
X4.3426Y-2.8957
X4.3426Y-2.9957
X4.3426Y-3.0957
X4.3426Y-3.1957
X4.3426Y-3.2957
X4.3426Y-3.3957
X4.3426Y-3.4957
X4.3426Y-3.5957
X4.3426Y-3.6957
X4.3426Y-3.7957
X4.3426Y-3.8957
X4.3426Y-3.9957
X4.3426Y-4.0957
X4.3426Y-4.1957
X4.3426Y-4.2957
X4.3426Y-4.3957
X4.3426Y-4.4957
X4.3426Y-4.5957
X4.4426Y-2.6957
X4.4426Y-2.7957
X4.4426Y-2.8957
X4.4426Y-2.9957
X4.4426Y-3.0957
X4.4426Y-3.1957
X4.4426Y-3.2957
X4.4426Y-3.3957
X4.4426Y-3.4957
X4.4426Y-3.5957
X4.4426Y-3.6957
X4.4426Y-3.7957
X4.4426Y-3.8957
X4.4426Y-3.9957
X4.4426Y-4.0957
X4.4426Y-4.1957
X4.4426Y-4.2957
X4.4426Y-4.3957
X4.4426Y-4.4957
X4.4426Y-4.5957
X4.8148Y-2.6957
X4.8148Y-2.7957
X4.8148Y-2.8957
X4.8148Y-2.9957
X4.8148Y-3.0957
X4.8148Y-3.1957
X4.8148Y-3.2957
X4.8148Y-3.3957
X4.8148Y-3.4957
X4.8148Y-3.5957
X4.8148Y-3.6957
X4.8148Y-3.7957
X4.8148Y-3.8957
X4.8148Y-3.9957
X4.8148Y-4.0957
X4.8148Y-4.1957
X4.8148Y-4.2957
X4.8148Y-4.3957
X4.8148Y-4.4957
X4.8148Y-4.5957
X4.9148Y-2.6957
X4.9148Y-2.7957
X4.9148Y-2.8957
X4.9148Y-2.9957
X4.9148Y-3.0957
X4.9148Y-3.1957
X4.9148Y-3.2957
X4.9148Y-3.3957
X4.9148Y-3.4957
X4.9148Y-3.5957
X4.9148Y-3.6957
X4.9148Y-3.7957
X4.9148Y-3.8957
X4.9148Y-3.9957
X4.9148Y-4.0957
X4.9148Y-4.1957
X4.9148Y-4.2957
X4.9148Y-4.3957
X4.9148Y-4.4957
X4.9148Y-4.5957
X5.3684Y-2.6957
X5.3684Y-2.7957
X5.3684Y-2.8957
X5.3684Y-2.9957
X5.3684Y-3.0957
X5.3684Y-3.1957
X5.3684Y-3.2957
X5.3684Y-3.3957
X5.3684Y-3.4957
X5.3684Y-3.5957
X5.3684Y-3.6957
X5.3684Y-3.7957
X5.3684Y-3.8957
X5.3684Y-3.9957
X5.3684Y-4.0957
X5.3684Y-4.1957
X5.3684Y-4.2957
X5.3684Y-4.3957
X5.3684Y-4.4957
X5.3684Y-4.5957
X5.4684Y-2.6957
X5.4684Y-2.7957
X5.4684Y-2.8957
X5.4684Y-2.9957
X5.4684Y-3.0957
X5.4684Y-3.1957
X5.4684Y-3.2957
X5.4684Y-3.3957
X5.4684Y-3.4957
X5.4684Y-3.5957
X5.4684Y-3.6957
X5.4684Y-3.7957
X5.4684Y-3.8957
X5.4684Y-3.9957
X5.4684Y-4.0957
X5.4684Y-4.1957
X5.4684Y-4.2957
X5.4684Y-4.3957
X5.4684Y-4.4957
X5.4684Y-4.5957
X5.8406Y-2.6957
X5.8406Y-2.7957
X5.8406Y-2.8957
X5.8406Y-2.9957
X5.8406Y-3.0957
X5.8406Y-3.1957
X5.8406Y-3.2957
X5.8406Y-3.3957
X5.8406Y-3.4957
X5.8406Y-3.5957
X5.8406Y-3.6957
X5.8406Y-3.7957
X5.8406Y-3.8957
X5.8406Y-3.9957
X5.8406Y-4.0957
X5.8406Y-4.1957
X5.8406Y-4.2957
X5.8406Y-4.3957
X5.8406Y-4.4957
X5.8406Y-4.5957
X5.9406Y-2.6957
X5.9406Y-2.7957
X5.9406Y-2.8957
X5.9406Y-2.9957
X5.9406Y-3.0957
X5.9406Y-3.1957
X5.9406Y-3.2957
X5.9406Y-3.3957
X5.9406Y-3.4957
X5.9406Y-3.5957
X5.9406Y-3.6957
X5.9406Y-3.7957
X5.9406Y-3.8957
X5.9406Y-3.9957
X5.9406Y-4.0957
X5.9406Y-4.1957
X5.9406Y-4.2957
X5.9406Y-4.3957
X5.9406Y-4.4957
X5.9406Y-4.5957
X6.3942Y-2.6957
X6.3942Y-2.7957
X6.3942Y-2.8957
X6.3942Y-2.9957
X6.3942Y-3.0957
X6.3942Y-3.1957
X6.3942Y-3.2957
X6.3942Y-3.3957
X6.3942Y-3.4957
X6.3942Y-3.5957
X6.3942Y-3.6957
X6.3942Y-3.7957
X6.3942Y-3.8957
X6.3942Y-3.9957
X6.3942Y-4.0957
X6.3942Y-4.1957
X6.3942Y-4.2957
X6.3942Y-4.3957
X6.3942Y-4.4957
X6.3942Y-4.5957
X6.4942Y-2.6957
X6.4942Y-2.7957
X6.4942Y-2.8957
X6.4942Y-2.9957
X6.4942Y-3.0957
X6.4942Y-3.1957
X6.4942Y-3.2957
X6.4942Y-3.3957
X6.4942Y-3.4957
X6.4942Y-3.5957
X6.4942Y-3.6957
X6.4942Y-3.7957
X6.4942Y-3.8957
X6.4942Y-3.9957
X6.4942Y-4.0957
X6.4942Y-4.1957
X6.4942Y-4.2957
X6.4942Y-4.3957
X6.4942Y-4.4957
X6.4942Y-4.5957
X6.8663Y-2.6957
X6.8663Y-2.7957
X6.8663Y-2.8957
X6.8663Y-2.9957
X6.8663Y-3.0957
X6.8663Y-3.1957
X6.8663Y-3.2957
X6.8663Y-3.3957
X6.8663Y-3.4957
X6.8663Y-3.5957
X6.8663Y-3.6957
X6.8663Y-3.7957
X6.8663Y-3.8957
X6.8663Y-3.9957
X6.8663Y-4.0957
X6.8663Y-4.1957
X6.8663Y-4.2957
X6.8663Y-4.3957
X6.8663Y-4.4957
X6.8663Y-4.5957
X6.9663Y-2.6957
X6.9663Y-2.7957
X6.9663Y-2.8957
X6.9663Y-2.9957
X6.9663Y-3.0957
X6.9663Y-3.1957
X6.9663Y-3.2957
X6.9663Y-3.3957
X6.9663Y-3.4957
X6.9663Y-3.5957
X6.9663Y-3.6957
X6.9663Y-3.7957
X6.9663Y-3.8957
X6.9663Y-3.9957
X6.9663Y-4.0957
X6.9663Y-4.1957
X6.9663Y-4.2957
X6.9663Y-4.3957
X6.9663Y-4.4957
X6.9663Y-4.5957
X7.42Y-2.6957
X7.42Y-2.7957
X7.42Y-2.8957
X7.42Y-2.9957
X7.42Y-3.0957
X7.42Y-3.1957
X7.42Y-3.2957
X7.42Y-3.3957
X7.42Y-3.4957
X7.42Y-3.5957
X7.42Y-3.6957
X7.42Y-3.7957
X7.42Y-3.8957
X7.42Y-3.9957
X7.42Y-4.0957
X7.42Y-4.1957
X7.42Y-4.2957
X7.42Y-4.3957
X7.42Y-4.4957
X7.42Y-4.5957
X7.52Y-2.6957
X7.52Y-2.7957
X7.52Y-2.8957
X7.52Y-2.9957
X7.52Y-3.0957
X7.52Y-3.1957
X7.52Y-3.2957
X7.52Y-3.3957
X7.52Y-3.4957
X7.52Y-3.5957
X7.52Y-3.6957
X7.52Y-3.7957
X7.52Y-3.8957
X7.52Y-3.9957
X7.52Y-4.0957
X7.52Y-4.1957
X7.52Y-4.2957
X7.52Y-4.3957
X7.52Y-4.4957
X7.52Y-4.5957
X7.8921Y-2.6957
X7.8921Y-2.7957
X7.8921Y-2.8957
X7.8921Y-2.9957
X7.8921Y-3.0957
X7.8921Y-3.1957
X7.8921Y-3.2957
X7.8921Y-3.3957
X7.8921Y-3.4957
X7.8921Y-3.5957
X7.8921Y-3.6957
X7.8921Y-3.7957
X7.8921Y-3.8957
X7.8921Y-3.9957
X7.8921Y-4.0957
X7.8921Y-4.1957
X7.8921Y-4.2957
X7.8921Y-4.3957
X7.8921Y-4.4957
X7.8921Y-4.5957
X7.9921Y-2.6957
X7.9921Y-2.7957
X7.9921Y-2.8957
X7.9921Y-2.9957
X7.9921Y-3.0957
X7.9921Y-3.1957
X7.9921Y-3.2957
X7.9921Y-3.3957
X7.9921Y-3.4957
X7.9921Y-3.5957
X7.9921Y-3.6957
X7.9921Y-3.7957
X7.9921Y-3.8957
X7.9921Y-3.9957
X7.9921Y-4.0957
X7.9921Y-4.1957
X7.9921Y-4.2957
X7.9921Y-4.3957
X7.9921Y-4.4957
X7.9921Y-4.5957
T4
X3.357Y-2.3437
X3.357Y-4.9476
X3.8488Y-2.3437
X3.8488Y-4.9476
X4.3828Y-2.3437
X4.3828Y-4.9476
X4.8746Y-2.3437
X4.8746Y-4.9476
X5.4086Y-2.3437
X5.4086Y-4.9476
X5.9004Y-2.3437
X5.9004Y-4.9476
X6.4344Y-2.3437
X6.4344Y-4.9476
X6.9262Y-2.3437
X6.9262Y-4.9476
X7.4601Y-2.3437
X7.4601Y-4.9476
X7.952Y-2.3437
X7.952Y-4.9476
T5
X3.0354Y-3.6457
X3.0906Y-1.9134
X3.0906Y-5.378
X4.6654Y-1.9134
X4.6654Y-5.378
X6.6339Y-1.9134
X6.6339Y-5.378
X8.2087Y-1.9134
X8.2087Y-5.378
X8.2598Y-3.6457
M30
