%TF.GenerationSoftware,KiCad,Pcbnew,9.99.0-unknown-b0b07bbc41~182~ubuntu22.04.1*%
%TF.CreationDate,2025-08-06T14:03:11+02:00*%
%TF.ProjectId,CP70_pa_ba,43503730-5f70-4615-9f62-612e6b696361,rev?*%
%TF.SameCoordinates,Original*%
%TF.FileFunction,Legend,Bot*%
%TF.FilePolarity,Positive*%
%FSLAX46Y46*%
G04 Gerber Fmt 4.6, Leading zero omitted, Abs format (unit mm)*
G04 Created by KiCad (PCBNEW 9.99.0-unknown-b0b07bbc41~182~ubuntu22.04.1) date 2025-08-06 14:03:11*
%MOMM*%
%LPD*%
G01*
G04 APERTURE LIST*
%ADD10C,0.200000*%
G04 APERTURE END LIST*
D10*
G36*
X80805673Y-112659755D02*
G01*
X80877963Y-112732045D01*
X80955387Y-112886892D01*
X80955387Y-113030153D01*
X80877963Y-113185000D01*
X80805674Y-113257290D01*
X80650828Y-113334713D01*
X80107768Y-113334713D01*
X80107768Y-112582332D01*
X80650827Y-112582332D01*
X80805673Y-112659755D01*
G37*
G36*
X80900911Y-111612136D02*
G01*
X80973201Y-111684426D01*
X81050625Y-111839273D01*
X81050625Y-112077772D01*
X80973201Y-112232619D01*
X80906129Y-112299691D01*
X80658208Y-112382332D01*
X80107768Y-112382332D01*
X80107768Y-111534713D01*
X80746065Y-111534713D01*
X80900911Y-111612136D01*
G37*
G36*
X109472344Y-111612136D02*
G01*
X109631761Y-111771552D01*
X109717296Y-112113689D01*
X109717296Y-112755737D01*
X109631761Y-113097874D01*
X109472345Y-113257289D01*
X109317499Y-113334713D01*
X108983761Y-113334713D01*
X108828912Y-113257288D01*
X108669497Y-113097873D01*
X108583963Y-112755737D01*
X108583963Y-112113690D01*
X108669497Y-111771553D01*
X108828911Y-111612138D01*
X108983761Y-111534713D01*
X109317498Y-111534713D01*
X109472344Y-111612136D01*
G37*
G36*
X87622055Y-111591755D02*
G01*
X87622055Y-112611005D01*
X87507972Y-112668047D01*
X87174234Y-112668047D01*
X87019386Y-112590623D01*
X86947097Y-112518334D01*
X86869674Y-112363487D01*
X86869674Y-111839273D01*
X86947097Y-111684427D01*
X87019386Y-111612137D01*
X87174234Y-111534713D01*
X87507971Y-111534713D01*
X87622055Y-111591755D01*
G37*
G36*
X102479200Y-111591755D02*
G01*
X102479200Y-112611005D01*
X102365117Y-112668047D01*
X102031379Y-112668047D01*
X101876531Y-112590623D01*
X101804242Y-112518334D01*
X101726819Y-112363487D01*
X101726819Y-111839273D01*
X101804242Y-111684427D01*
X101876531Y-111612137D01*
X102031379Y-111534713D01*
X102365116Y-111534713D01*
X102479200Y-111591755D01*
G37*
G36*
X97336342Y-111591755D02*
G01*
X97336342Y-112130052D01*
X97290587Y-112107175D01*
X97272279Y-112100169D01*
X97268695Y-112099914D01*
X97265375Y-112098539D01*
X97245866Y-112096618D01*
X96793283Y-112096618D01*
X96653734Y-112026844D01*
X96583961Y-111887297D01*
X96583961Y-111744035D01*
X96653734Y-111604488D01*
X96793283Y-111534713D01*
X97222258Y-111534713D01*
X97336342Y-111591755D01*
G37*
G36*
X104288724Y-112373836D02*
G01*
X104288724Y-112458724D01*
X104218950Y-112598273D01*
X104079403Y-112668047D01*
X103745665Y-112668047D01*
X103606116Y-112598273D01*
X103536343Y-112458725D01*
X103536343Y-112223360D01*
X104288724Y-112373836D01*
G37*
G36*
X111431582Y-112373836D02*
G01*
X111431582Y-112458724D01*
X111361808Y-112598273D01*
X111222261Y-112668047D01*
X110888523Y-112668047D01*
X110748974Y-112598273D01*
X110679201Y-112458725D01*
X110679201Y-112223360D01*
X111431582Y-112373836D01*
G37*
G36*
X114288725Y-112373836D02*
G01*
X114288725Y-112458724D01*
X114218951Y-112598273D01*
X114079404Y-112668047D01*
X113745666Y-112668047D01*
X113606117Y-112598273D01*
X113536344Y-112458725D01*
X113536344Y-112223360D01*
X114288725Y-112373836D01*
G37*
G36*
X117050630Y-111591755D02*
G01*
X117050630Y-112130052D01*
X117004875Y-112107175D01*
X116986567Y-112100169D01*
X116982983Y-112099914D01*
X116979663Y-112098539D01*
X116960154Y-112096618D01*
X116507571Y-112096618D01*
X116368022Y-112026844D01*
X116298249Y-111887297D01*
X116298249Y-111744035D01*
X116368022Y-111604488D01*
X116507571Y-111534713D01*
X116936546Y-111534713D01*
X117050630Y-111591755D01*
G37*
G36*
X118860154Y-111591755D02*
G01*
X118860154Y-112130052D01*
X118814399Y-112107175D01*
X118796091Y-112100169D01*
X118792507Y-112099914D01*
X118789187Y-112098539D01*
X118769678Y-112096618D01*
X118317095Y-112096618D01*
X118177546Y-112026844D01*
X118107773Y-111887297D01*
X118107773Y-111744035D01*
X118177546Y-111604488D01*
X118317095Y-111534713D01*
X118746070Y-111534713D01*
X118860154Y-111591755D01*
G37*
G36*
X80805673Y-108392248D02*
G01*
X80877963Y-108464538D01*
X80955387Y-108619385D01*
X80955387Y-109048360D01*
X80877963Y-109203207D01*
X80805675Y-109275497D01*
X80650828Y-109352921D01*
X80317090Y-109352921D01*
X80162241Y-109275497D01*
X80089954Y-109203209D01*
X80012530Y-109048361D01*
X80012530Y-108619385D01*
X80089953Y-108464539D01*
X80162242Y-108392249D01*
X80317090Y-108314825D01*
X80650827Y-108314825D01*
X80805673Y-108392248D01*
G37*
G36*
X100996152Y-108392248D02*
G01*
X101068442Y-108464538D01*
X101151514Y-108630683D01*
X101241104Y-108989039D01*
X101241104Y-109440611D01*
X101151514Y-109798967D01*
X101068442Y-109965112D01*
X100996153Y-110037402D01*
X100841307Y-110114825D01*
X100698045Y-110114825D01*
X100543197Y-110037401D01*
X100470908Y-109965112D01*
X100387836Y-109798969D01*
X100298247Y-109440611D01*
X100298247Y-108989040D01*
X100387836Y-108630682D01*
X100470908Y-108464539D01*
X100543197Y-108392249D01*
X100698045Y-108314825D01*
X100841306Y-108314825D01*
X100996152Y-108392248D01*
G37*
G36*
X84193483Y-108371867D02*
G01*
X84193483Y-108910164D01*
X84147728Y-108887287D01*
X84129420Y-108880281D01*
X84125836Y-108880026D01*
X84122516Y-108878651D01*
X84103007Y-108876730D01*
X83650424Y-108876730D01*
X83510875Y-108806956D01*
X83441102Y-108667409D01*
X83441102Y-108524147D01*
X83510875Y-108384600D01*
X83650424Y-108314825D01*
X84079399Y-108314825D01*
X84193483Y-108371867D01*
G37*
G36*
X87812531Y-108371867D02*
G01*
X87812531Y-109391117D01*
X87698448Y-109448159D01*
X87364710Y-109448159D01*
X87209862Y-109370735D01*
X87137573Y-109298446D01*
X87060150Y-109143599D01*
X87060150Y-108619385D01*
X87137573Y-108464539D01*
X87209862Y-108392249D01*
X87364710Y-108314825D01*
X87698447Y-108314825D01*
X87812531Y-108371867D01*
G37*
G36*
X82900913Y-106124741D02*
G01*
X82973201Y-106197031D01*
X83050625Y-106351878D01*
X83050625Y-106590377D01*
X82973201Y-106745224D01*
X82900912Y-106817514D01*
X82746066Y-106894937D01*
X82107768Y-106894937D01*
X82107768Y-106047318D01*
X82746066Y-106047318D01*
X82900913Y-106124741D01*
G37*
G36*
X86615197Y-105172360D02*
G01*
X86687487Y-105244650D01*
X86770559Y-105410795D01*
X86860149Y-105769151D01*
X86860149Y-106220723D01*
X86770559Y-106579079D01*
X86687487Y-106745224D01*
X86615198Y-106817514D01*
X86460352Y-106894937D01*
X86317090Y-106894937D01*
X86162242Y-106817513D01*
X86089953Y-106745224D01*
X86006881Y-106579081D01*
X85917292Y-106220723D01*
X85917292Y-105769152D01*
X86006881Y-105410794D01*
X86089953Y-105244651D01*
X86162242Y-105172361D01*
X86317090Y-105094937D01*
X86460351Y-105094937D01*
X86615197Y-105172360D01*
G37*
G36*
X98955389Y-105151979D02*
G01*
X98955389Y-105690276D01*
X98909634Y-105667399D01*
X98891326Y-105660393D01*
X98887742Y-105660138D01*
X98884422Y-105658763D01*
X98864913Y-105656842D01*
X98412330Y-105656842D01*
X98272781Y-105587068D01*
X98203008Y-105447521D01*
X98203008Y-105304259D01*
X98272781Y-105164712D01*
X98412330Y-105094937D01*
X98841305Y-105094937D01*
X98955389Y-105151979D01*
G37*
G36*
X104383961Y-105934060D02*
G01*
X104383961Y-106018948D01*
X104314187Y-106158497D01*
X104174640Y-106228271D01*
X103840902Y-106228271D01*
X103701353Y-106158497D01*
X103631580Y-106018949D01*
X103631580Y-105783584D01*
X104383961Y-105934060D01*
G37*
G36*
X80900913Y-102904853D02*
G01*
X80973201Y-102977143D01*
X81050625Y-103131990D01*
X81050625Y-103370489D01*
X80973201Y-103525336D01*
X80900912Y-103597626D01*
X80746066Y-103675049D01*
X80107768Y-103675049D01*
X80107768Y-102827430D01*
X80746066Y-102827430D01*
X80900913Y-102904853D01*
G37*
G36*
X82900911Y-101952472D02*
G01*
X83060328Y-102111888D01*
X83145863Y-102454025D01*
X83145863Y-103096073D01*
X83060328Y-103438210D01*
X82900912Y-103597625D01*
X82746066Y-103675049D01*
X82412328Y-103675049D01*
X82257479Y-103597624D01*
X82098064Y-103438209D01*
X82012530Y-103096073D01*
X82012530Y-102454026D01*
X82098064Y-102111889D01*
X82257478Y-101952474D01*
X82412328Y-101875049D01*
X82746065Y-101875049D01*
X82900911Y-101952472D01*
G37*
G36*
X92710435Y-103000091D02*
G01*
X92782725Y-103072381D01*
X92860149Y-103227228D01*
X92860149Y-103370489D01*
X92782725Y-103525336D01*
X92710436Y-103597626D01*
X92555590Y-103675049D01*
X92012530Y-103675049D01*
X92012530Y-102922668D01*
X92555589Y-102922668D01*
X92710435Y-103000091D01*
G37*
G36*
X92805673Y-101952472D02*
G01*
X92877963Y-102024762D01*
X92955387Y-102179609D01*
X92955387Y-102418108D01*
X92877963Y-102572955D01*
X92810891Y-102640027D01*
X92562970Y-102722668D01*
X92012530Y-102722668D01*
X92012530Y-101875049D01*
X92650827Y-101875049D01*
X92805673Y-101952472D01*
G37*
G36*
X102810893Y-101957690D02*
G01*
X102973202Y-102119999D01*
X103056275Y-102286145D01*
X103145865Y-102644501D01*
X103145865Y-102905597D01*
X103056275Y-103263953D01*
X102973202Y-103430099D01*
X102810893Y-103592408D01*
X102562971Y-103675049D01*
X102203008Y-103675049D01*
X102203008Y-101875049D01*
X102562971Y-101875049D01*
X102810893Y-101957690D01*
G37*
G36*
X97717293Y-101932091D02*
G01*
X97717293Y-102470388D01*
X97671538Y-102447511D01*
X97653230Y-102440505D01*
X97649646Y-102440250D01*
X97646326Y-102438875D01*
X97626817Y-102436954D01*
X97174234Y-102436954D01*
X97034685Y-102367180D01*
X96964912Y-102227633D01*
X96964912Y-102084371D01*
X97034685Y-101944824D01*
X97174234Y-101875049D01*
X97603209Y-101875049D01*
X97717293Y-101932091D01*
G37*
G36*
X104805675Y-101952472D02*
G01*
X104877965Y-102024762D01*
X104955389Y-102179609D01*
X104955389Y-102703822D01*
X104877965Y-102858670D01*
X104805676Y-102930960D01*
X104650830Y-103008383D01*
X104412330Y-103008383D01*
X104257482Y-102930959D01*
X104185193Y-102858670D01*
X104107770Y-102703823D01*
X104107770Y-102179609D01*
X104185193Y-102024763D01*
X104257482Y-101952473D01*
X104412330Y-101875049D01*
X104650829Y-101875049D01*
X104805675Y-101952472D01*
G37*
G36*
X108479199Y-101932091D02*
G01*
X108479199Y-102951341D01*
X108365116Y-103008383D01*
X108031378Y-103008383D01*
X107876530Y-102930959D01*
X107804241Y-102858670D01*
X107726818Y-102703823D01*
X107726818Y-102179609D01*
X107804241Y-102024763D01*
X107876530Y-101952473D01*
X108031378Y-101875049D01*
X108365115Y-101875049D01*
X108479199Y-101932091D01*
G37*
G36*
X110288723Y-102714172D02*
G01*
X110288723Y-102799060D01*
X110218949Y-102938609D01*
X110079402Y-103008383D01*
X109745664Y-103008383D01*
X109606115Y-102938609D01*
X109536342Y-102799061D01*
X109536342Y-102563696D01*
X110288723Y-102714172D01*
G37*
G36*
X87722054Y-100238933D02*
G01*
X87384606Y-99226590D01*
X88059502Y-99226590D01*
X87722054Y-100238933D01*
G37*
G36*
X91622055Y-98712203D02*
G01*
X91622055Y-99731453D01*
X91507972Y-99788495D01*
X91174234Y-99788495D01*
X91019386Y-99711071D01*
X90947097Y-99638782D01*
X90869674Y-99483935D01*
X90869674Y-98959721D01*
X90947097Y-98804875D01*
X91019386Y-98732585D01*
X91174234Y-98655161D01*
X91507971Y-98655161D01*
X91622055Y-98712203D01*
G37*
G36*
X93431579Y-99494284D02*
G01*
X93431579Y-99579172D01*
X93361805Y-99718721D01*
X93222258Y-99788495D01*
X92888520Y-99788495D01*
X92748971Y-99718721D01*
X92679198Y-99579173D01*
X92679198Y-99343808D01*
X93431579Y-99494284D01*
G37*
G36*
X96139008Y-98732584D02*
G01*
X96211298Y-98804874D01*
X96288722Y-98959721D01*
X96288722Y-99483934D01*
X96211298Y-99638782D01*
X96139009Y-99711072D01*
X95984163Y-99788495D01*
X95745663Y-99788495D01*
X95590815Y-99711071D01*
X95518526Y-99638782D01*
X95441103Y-99483935D01*
X95441103Y-98959721D01*
X95518526Y-98804875D01*
X95590815Y-98732585D01*
X95745663Y-98655161D01*
X95984162Y-98655161D01*
X96139008Y-98732584D01*
G37*
G36*
X120804265Y-113756935D02*
G01*
X79590308Y-113756935D01*
X79590308Y-111434713D01*
X79907768Y-111434713D01*
X79907768Y-113434713D01*
X79909689Y-113454222D01*
X79924621Y-113490270D01*
X79952211Y-113517860D01*
X79988259Y-113532792D01*
X80007768Y-113534713D01*
X80674435Y-113534713D01*
X80693944Y-113532792D01*
X80697264Y-113531416D01*
X80700848Y-113531162D01*
X80719156Y-113524156D01*
X80909633Y-113428918D01*
X80918031Y-113423631D01*
X80920468Y-113422622D01*
X80923211Y-113420370D01*
X80926223Y-113418475D01*
X80927955Y-113416477D01*
X80935622Y-113410186D01*
X81030860Y-113314948D01*
X81037151Y-113307281D01*
X81039149Y-113305549D01*
X81041044Y-113302537D01*
X81043296Y-113299794D01*
X81044305Y-113297356D01*
X81049592Y-113288958D01*
X81144830Y-113098482D01*
X81151836Y-113080174D01*
X81152090Y-113076590D01*
X81153466Y-113073270D01*
X81155387Y-113053761D01*
X81155387Y-112863285D01*
X81153466Y-112843776D01*
X81152090Y-112840455D01*
X81151836Y-112836872D01*
X81144830Y-112818564D01*
X81049592Y-112628088D01*
X81044305Y-112619689D01*
X81043296Y-112617252D01*
X81041044Y-112614508D01*
X81039149Y-112611497D01*
X81037151Y-112609764D01*
X81030860Y-112602098D01*
X80935622Y-112506860D01*
X80930265Y-112502464D01*
X80991772Y-112481962D01*
X81009672Y-112473971D01*
X81012387Y-112471615D01*
X81015706Y-112470241D01*
X81030860Y-112457805D01*
X81126098Y-112362567D01*
X81132389Y-112354900D01*
X81134387Y-112353168D01*
X81136282Y-112350156D01*
X81138534Y-112347413D01*
X81139543Y-112344975D01*
X81144830Y-112336577D01*
X81240068Y-112146101D01*
X81247074Y-112127793D01*
X81247328Y-112124209D01*
X81248704Y-112120889D01*
X81250625Y-112101380D01*
X81250625Y-111815666D01*
X81248704Y-111796157D01*
X81247328Y-111792836D01*
X81247074Y-111789253D01*
X81240068Y-111770945D01*
X81144830Y-111580469D01*
X81139543Y-111572070D01*
X81138534Y-111569633D01*
X81136282Y-111566889D01*
X81134387Y-111563878D01*
X81132389Y-111562145D01*
X81126098Y-111554479D01*
X81030860Y-111459241D01*
X81023193Y-111452949D01*
X81021461Y-111450952D01*
X81018449Y-111449056D01*
X81015706Y-111446805D01*
X81013269Y-111445795D01*
X81004871Y-111440509D01*
X80814395Y-111345270D01*
X80796086Y-111338264D01*
X80792502Y-111338009D01*
X80789182Y-111336634D01*
X80769673Y-111334713D01*
X80007768Y-111334713D01*
X79988259Y-111336634D01*
X79952211Y-111351566D01*
X79924621Y-111379156D01*
X79909689Y-111415204D01*
X79907768Y-111434713D01*
X79590308Y-111434713D01*
X79590308Y-110780554D01*
X81718077Y-110780554D01*
X81730416Y-110817570D01*
X81755980Y-110847047D01*
X81772571Y-110857490D01*
X81948531Y-110945470D01*
X82017781Y-111014720D01*
X82186580Y-111436717D01*
X81723118Y-112734413D01*
X81718365Y-112753432D01*
X81720303Y-112792402D01*
X81737006Y-112827664D01*
X81765932Y-112853851D01*
X81802677Y-112866974D01*
X81841647Y-112865036D01*
X81876909Y-112848333D01*
X81903096Y-112819407D01*
X81911466Y-112801681D01*
X82293481Y-111732033D01*
X82675499Y-112801681D01*
X82683870Y-112819407D01*
X82710056Y-112848333D01*
X82745318Y-112865036D01*
X82784288Y-112866974D01*
X82821033Y-112853851D01*
X82849959Y-112827664D01*
X82866662Y-112792402D01*
X82868600Y-112753432D01*
X82863847Y-112734413D01*
X82399668Y-111434713D01*
X84955388Y-111434713D01*
X84955388Y-113434713D01*
X84957309Y-113454222D01*
X84972241Y-113490270D01*
X84999831Y-113517860D01*
X85035879Y-113532792D01*
X85055388Y-113534713D01*
X86007769Y-113534713D01*
X86027278Y-113532792D01*
X86063326Y-113517860D01*
X86090916Y-113490270D01*
X86105848Y-113454222D01*
X86105848Y-113415204D01*
X86090916Y-113379156D01*
X86063326Y-113351566D01*
X86027278Y-113336634D01*
X86007769Y-113334713D01*
X85155388Y-113334713D01*
X85155388Y-112582332D01*
X85722055Y-112582332D01*
X85741564Y-112580411D01*
X85777612Y-112565479D01*
X85805202Y-112537889D01*
X85820134Y-112501841D01*
X85820134Y-112462823D01*
X85805202Y-112426775D01*
X85777612Y-112399185D01*
X85741564Y-112384253D01*
X85722055Y-112382332D01*
X85155388Y-112382332D01*
X85155388Y-111815666D01*
X86669674Y-111815666D01*
X86669674Y-112387094D01*
X86671595Y-112406603D01*
X86672970Y-112409923D01*
X86673225Y-112413507D01*
X86680231Y-112431815D01*
X86775469Y-112622293D01*
X86780755Y-112630691D01*
X86781765Y-112633128D01*
X86784016Y-112635871D01*
X86785912Y-112638883D01*
X86787909Y-112640615D01*
X86794201Y-112648282D01*
X86889439Y-112743520D01*
X86897105Y-112749811D01*
X86898838Y-112751809D01*
X86901849Y-112753704D01*
X86904593Y-112755956D01*
X86907030Y-112756965D01*
X86915429Y-112762252D01*
X87105905Y-112857490D01*
X87124213Y-112864496D01*
X87127796Y-112864750D01*
X87131117Y-112866126D01*
X87150626Y-112868047D01*
X87531579Y-112868047D01*
X87551088Y-112866126D01*
X87554408Y-112864750D01*
X87557992Y-112864496D01*
X87576300Y-112857490D01*
X87622055Y-112834612D01*
X87622055Y-113434713D01*
X87623976Y-113454222D01*
X87638908Y-113490270D01*
X87666498Y-113517860D01*
X87702546Y-113532792D01*
X87741564Y-113532792D01*
X87777612Y-113517860D01*
X87805202Y-113490270D01*
X87820134Y-113454222D01*
X87822055Y-113434713D01*
X87822055Y-113319966D01*
X90576357Y-113319966D01*
X90576357Y-113358984D01*
X90591289Y-113395032D01*
X90603725Y-113410186D01*
X90698963Y-113505424D01*
X90714117Y-113517860D01*
X90750165Y-113532792D01*
X90789183Y-113532792D01*
X90825231Y-113517860D01*
X90840385Y-113505424D01*
X90935623Y-113410186D01*
X90948059Y-113395032D01*
X90962991Y-113358984D01*
X90962991Y-113319966D01*
X90948059Y-113283918D01*
X90935623Y-113268764D01*
X90840385Y-113173526D01*
X90825231Y-113161090D01*
X90789183Y-113146158D01*
X90750165Y-113146158D01*
X90714117Y-113161090D01*
X90698963Y-113173526D01*
X90603725Y-113268764D01*
X90591289Y-113283918D01*
X90576357Y-113319966D01*
X87822055Y-113319966D01*
X87822055Y-112759861D01*
X88384295Y-112759861D01*
X88388749Y-112798624D01*
X88407698Y-112832732D01*
X88438257Y-112856993D01*
X88475774Y-112867712D01*
X88514537Y-112863258D01*
X88548645Y-112844309D01*
X88572906Y-112813750D01*
X88580112Y-112795519D01*
X88880702Y-111743449D01*
X89153017Y-112424233D01*
X89162046Y-112441633D01*
X89162914Y-112442522D01*
X89163402Y-112443661D01*
X89176507Y-112456451D01*
X89189298Y-112469557D01*
X89190436Y-112470044D01*
X89191326Y-112470913D01*
X89208374Y-112477732D01*
X89225162Y-112484927D01*
X89226398Y-112484942D01*
X89227553Y-112485404D01*
X89245865Y-112485180D01*
X89264177Y-112485404D01*
X89265331Y-112484942D01*
X89266568Y-112484927D01*
X89283355Y-112477732D01*
X89300404Y-112470913D01*
X89301293Y-112470044D01*
X89302432Y-112469557D01*
X89315222Y-112456451D01*
X89328328Y-112443661D01*
X89328815Y-112442522D01*
X89329684Y-112441633D01*
X89338713Y-112424233D01*
X89611026Y-111743449D01*
X89911617Y-112795519D01*
X89918823Y-112813750D01*
X89943084Y-112844308D01*
X89977192Y-112863257D01*
X90015955Y-112867712D01*
X90053472Y-112856993D01*
X90084031Y-112832732D01*
X90102979Y-112798624D01*
X90107434Y-112759861D01*
X90103921Y-112740575D01*
X89730818Y-111434713D01*
X90669674Y-111434713D01*
X90669674Y-112768047D01*
X90671595Y-112787556D01*
X90686527Y-112823604D01*
X90714117Y-112851194D01*
X90750165Y-112866126D01*
X90789183Y-112866126D01*
X90825231Y-112851194D01*
X90852821Y-112823604D01*
X90867753Y-112787556D01*
X90869674Y-112768047D01*
X90869674Y-111434713D01*
X91622055Y-111434713D01*
X91622055Y-112768047D01*
X91623976Y-112787556D01*
X91638908Y-112823604D01*
X91666498Y-112851194D01*
X91702546Y-112866126D01*
X91741564Y-112866126D01*
X91777612Y-112851194D01*
X91805202Y-112823604D01*
X91820134Y-112787556D01*
X91820276Y-112786104D01*
X91963048Y-112857490D01*
X91981356Y-112864496D01*
X91984939Y-112864750D01*
X91988260Y-112866126D01*
X92007769Y-112868047D01*
X92293484Y-112868047D01*
X92312993Y-112866126D01*
X92316313Y-112864750D01*
X92319897Y-112864496D01*
X92338205Y-112857490D01*
X92528682Y-112762252D01*
X92531946Y-112760197D01*
X92533483Y-112759685D01*
X92535396Y-112758025D01*
X92542693Y-112753432D01*
X94765986Y-112753432D01*
X94767924Y-112792402D01*
X94784627Y-112827664D01*
X94813553Y-112853851D01*
X94850298Y-112866974D01*
X94889268Y-112865036D01*
X94924530Y-112848333D01*
X94950717Y-112819407D01*
X94959087Y-112801681D01*
X95341102Y-111732033D01*
X95723120Y-112801681D01*
X95731491Y-112819407D01*
X95757677Y-112848333D01*
X95792939Y-112865036D01*
X95831909Y-112866974D01*
X95868654Y-112853851D01*
X95897580Y-112827664D01*
X95914283Y-112792402D01*
X95916221Y-112753432D01*
X95911468Y-112734413D01*
X95549330Y-111720428D01*
X96383961Y-111720428D01*
X96383961Y-111910904D01*
X96385882Y-111930413D01*
X96387257Y-111933733D01*
X96387512Y-111937317D01*
X96394518Y-111955625D01*
X96489756Y-112146102D01*
X96491810Y-112149366D01*
X96492323Y-112150903D01*
X96493982Y-112152817D01*
X96500199Y-112162692D01*
X96509671Y-112170907D01*
X96517887Y-112180380D01*
X96527760Y-112186594D01*
X96529676Y-112188256D01*
X96531214Y-112188768D01*
X96534478Y-112190823D01*
X96724954Y-112286061D01*
X96743262Y-112293067D01*
X96746845Y-112293321D01*
X96750166Y-112294697D01*
X96769675Y-112296618D01*
X97222259Y-112296618D01*
X97336342Y-112353659D01*
X97336342Y-112458724D01*
X97266568Y-112598273D01*
X97127021Y-112668047D01*
X96793283Y-112668047D01*
X96623920Y-112583366D01*
X96605612Y-112576360D01*
X96566692Y-112573594D01*
X96529676Y-112585933D01*
X96500199Y-112611497D01*
X96482750Y-112646396D01*
X96479984Y-112685316D01*
X96492323Y-112722332D01*
X96517887Y-112751809D01*
X96534478Y-112762252D01*
X96724954Y-112857490D01*
X96743262Y-112864496D01*
X96746845Y-112864750D01*
X96750166Y-112866126D01*
X96769675Y-112868047D01*
X97150628Y-112868047D01*
X97170137Y-112866126D01*
X97173457Y-112864750D01*
X97177041Y-112864496D01*
X97195349Y-112857490D01*
X97385826Y-112762252D01*
X97389090Y-112760197D01*
X97390627Y-112759685D01*
X97392540Y-112758025D01*
X97402416Y-112751809D01*
X97410633Y-112742333D01*
X97420104Y-112734120D01*
X97426317Y-112724248D01*
X97427980Y-112722332D01*
X97428493Y-112720793D01*
X97430547Y-112717530D01*
X97525785Y-112527053D01*
X97532791Y-112508744D01*
X97533045Y-112505161D01*
X97534421Y-112501841D01*
X97536342Y-112482332D01*
X97536342Y-111434713D01*
X98288723Y-111434713D01*
X98288723Y-112768047D01*
X98290644Y-112787556D01*
X98305576Y-112823604D01*
X98333166Y-112851194D01*
X98369214Y-112866126D01*
X98408232Y-112866126D01*
X98444280Y-112851194D01*
X98471870Y-112823604D01*
X98486802Y-112787556D01*
X98486944Y-112786104D01*
X98629716Y-112857490D01*
X98648024Y-112864496D01*
X98651607Y-112864750D01*
X98654928Y-112866126D01*
X98674437Y-112868047D01*
X98960152Y-112868047D01*
X98979661Y-112866126D01*
X98982981Y-112864750D01*
X98986565Y-112864496D01*
X99004873Y-112857490D01*
X99195350Y-112762252D01*
X99198614Y-112760197D01*
X99200151Y-112759685D01*
X99202064Y-112758025D01*
X99211940Y-112751809D01*
X99220157Y-112742333D01*
X99229628Y-112734120D01*
X99235841Y-112724248D01*
X99237504Y-112722332D01*
X99238017Y-112720793D01*
X99240071Y-112717530D01*
X99335309Y-112527053D01*
X99342315Y-112508744D01*
X99342569Y-112505161D01*
X99343945Y-112501841D01*
X99345866Y-112482332D01*
X99345866Y-111815666D01*
X101526819Y-111815666D01*
X101526819Y-112387094D01*
X101528740Y-112406603D01*
X101530115Y-112409923D01*
X101530370Y-112413507D01*
X101537376Y-112431815D01*
X101632614Y-112622293D01*
X101637900Y-112630691D01*
X101638910Y-112633128D01*
X101641161Y-112635871D01*
X101643057Y-112638883D01*
X101645054Y-112640615D01*
X101651346Y-112648282D01*
X101746584Y-112743520D01*
X101754250Y-112749811D01*
X101755983Y-112751809D01*
X101758994Y-112753704D01*
X101761738Y-112755956D01*
X101764175Y-112756965D01*
X101772574Y-112762252D01*
X101963050Y-112857490D01*
X101981358Y-112864496D01*
X101984941Y-112864750D01*
X101988262Y-112866126D01*
X102007771Y-112868047D01*
X102388724Y-112868047D01*
X102408233Y-112866126D01*
X102411553Y-112864750D01*
X102415137Y-112864496D01*
X102433445Y-112857490D01*
X102479200Y-112834612D01*
X102479200Y-113434713D01*
X102481121Y-113454222D01*
X102496053Y-113490270D01*
X102523643Y-113517860D01*
X102559691Y-113532792D01*
X102598709Y-113532792D01*
X102634757Y-113517860D01*
X102662347Y-113490270D01*
X102677279Y-113454222D01*
X102679200Y-113434713D01*
X102679200Y-111720428D01*
X103336343Y-111720428D01*
X103336343Y-112482332D01*
X103338264Y-112501841D01*
X103339639Y-112505161D01*
X103339894Y-112508745D01*
X103346900Y-112527053D01*
X103442138Y-112717531D01*
X103444192Y-112720795D01*
X103444705Y-112722332D01*
X103446364Y-112724246D01*
X103452581Y-112734121D01*
X103462053Y-112742336D01*
X103470269Y-112751809D01*
X103480142Y-112758023D01*
X103482058Y-112759685D01*
X103483596Y-112760197D01*
X103486860Y-112762252D01*
X103677336Y-112857490D01*
X103695644Y-112864496D01*
X103699227Y-112864750D01*
X103702548Y-112866126D01*
X103722057Y-112868047D01*
X104103010Y-112868047D01*
X104122519Y-112866126D01*
X104125839Y-112864750D01*
X104129423Y-112864496D01*
X104147731Y-112857490D01*
X104338208Y-112762252D01*
X104341472Y-112760197D01*
X104343009Y-112759685D01*
X104344922Y-112758025D01*
X104354798Y-112751809D01*
X104363015Y-112742333D01*
X104372486Y-112734120D01*
X104378699Y-112724248D01*
X104380362Y-112722332D01*
X104380875Y-112720793D01*
X104382929Y-112717530D01*
X104478167Y-112527053D01*
X104485173Y-112508744D01*
X104485427Y-112505161D01*
X104486803Y-112501841D01*
X104488724Y-112482332D01*
X104488724Y-112291966D01*
X104488725Y-112291961D01*
X104488724Y-112291955D01*
X104488724Y-112291856D01*
X104486803Y-112272347D01*
X104483053Y-112263295D01*
X104481152Y-112253684D01*
X104475659Y-112245445D01*
X104471871Y-112236299D01*
X104464944Y-112229372D01*
X104459509Y-112221219D01*
X104451280Y-112215708D01*
X104444281Y-112208709D01*
X104435229Y-112204959D01*
X104427089Y-112199508D01*
X104408336Y-112193798D01*
X104408234Y-112193777D01*
X104408233Y-112193777D01*
X104408231Y-112193777D01*
X103536343Y-112019399D01*
X103536343Y-111744035D01*
X103606116Y-111604488D01*
X103745665Y-111534713D01*
X104079402Y-111534713D01*
X104248764Y-111619394D01*
X104267073Y-111626401D01*
X104305993Y-111629167D01*
X104343009Y-111616828D01*
X104372485Y-111591264D01*
X104389935Y-111556365D01*
X104392701Y-111517445D01*
X104380362Y-111480429D01*
X104354798Y-111450952D01*
X104338208Y-111440509D01*
X104326616Y-111434713D01*
X105145867Y-111434713D01*
X105145867Y-112768047D01*
X105147788Y-112787556D01*
X105162720Y-112823604D01*
X105190310Y-112851194D01*
X105226358Y-112866126D01*
X105265376Y-112866126D01*
X105301424Y-112851194D01*
X105329014Y-112823604D01*
X105343946Y-112787556D01*
X105344088Y-112786104D01*
X105486860Y-112857490D01*
X105505168Y-112864496D01*
X105508751Y-112864750D01*
X105512072Y-112866126D01*
X105531581Y-112868047D01*
X105817296Y-112868047D01*
X105836805Y-112866126D01*
X105840125Y-112864750D01*
X105843709Y-112864496D01*
X105862017Y-112857490D01*
X106052494Y-112762252D01*
X106055758Y-112760197D01*
X106057295Y-112759685D01*
X106059208Y-112758025D01*
X106069084Y-112751809D01*
X106077301Y-112742333D01*
X106086772Y-112734120D01*
X106092985Y-112724248D01*
X106094648Y-112722332D01*
X106095161Y-112720793D01*
X106097215Y-112717530D01*
X106192453Y-112527053D01*
X106199459Y-112508744D01*
X106199713Y-112505161D01*
X106201089Y-112501841D01*
X106203010Y-112482332D01*
X106203010Y-112101380D01*
X108383963Y-112101380D01*
X108383963Y-112768047D01*
X108384298Y-112771449D01*
X108384081Y-112772908D01*
X108385160Y-112780205D01*
X108385884Y-112787556D01*
X108386448Y-112788919D01*
X108386949Y-112792301D01*
X108482187Y-113173252D01*
X108488782Y-113191713D01*
X108493208Y-113197687D01*
X108496054Y-113204556D01*
X108508490Y-113219710D01*
X108698967Y-113410186D01*
X108706631Y-113416476D01*
X108708365Y-113418475D01*
X108711377Y-113420370D01*
X108714120Y-113422622D01*
X108716557Y-113423631D01*
X108724956Y-113428918D01*
X108915432Y-113524156D01*
X108933740Y-113531162D01*
X108937323Y-113531416D01*
X108940644Y-113532792D01*
X108960153Y-113534713D01*
X109341106Y-113534713D01*
X109360615Y-113532792D01*
X109363935Y-113531416D01*
X109367519Y-113531162D01*
X109385827Y-113524156D01*
X109576304Y-113428918D01*
X109584702Y-113423631D01*
X109587139Y-113422622D01*
X109589882Y-113420370D01*
X109592894Y-113418475D01*
X109594626Y-113416477D01*
X109602293Y-113410186D01*
X109792769Y-113219709D01*
X109805205Y-113204556D01*
X109808050Y-113197687D01*
X109812477Y-113191713D01*
X109819072Y-113173253D01*
X109914310Y-112792301D01*
X109914810Y-112788919D01*
X109915375Y-112787556D01*
X109916098Y-112780205D01*
X109917178Y-112772908D01*
X109916960Y-112771449D01*
X109917296Y-112768047D01*
X109917296Y-112101380D01*
X109916960Y-112097977D01*
X109917178Y-112096519D01*
X109916098Y-112089221D01*
X109915375Y-112081871D01*
X109914810Y-112080507D01*
X109914310Y-112077126D01*
X109825135Y-111720428D01*
X110479201Y-111720428D01*
X110479201Y-112482332D01*
X110481122Y-112501841D01*
X110482497Y-112505161D01*
X110482752Y-112508745D01*
X110489758Y-112527053D01*
X110584996Y-112717531D01*
X110587050Y-112720795D01*
X110587563Y-112722332D01*
X110589222Y-112724246D01*
X110595439Y-112734121D01*
X110604911Y-112742336D01*
X110613127Y-112751809D01*
X110623000Y-112758023D01*
X110624916Y-112759685D01*
X110626454Y-112760197D01*
X110629718Y-112762252D01*
X110820194Y-112857490D01*
X110838502Y-112864496D01*
X110842085Y-112864750D01*
X110845406Y-112866126D01*
X110864915Y-112868047D01*
X111245868Y-112868047D01*
X111265377Y-112866126D01*
X111268697Y-112864750D01*
X111272281Y-112864496D01*
X111290589Y-112857490D01*
X111481066Y-112762252D01*
X111484330Y-112760197D01*
X111485867Y-112759685D01*
X111487780Y-112758025D01*
X111497656Y-112751809D01*
X111500492Y-112748538D01*
X112004932Y-112748538D01*
X112004932Y-112787556D01*
X112019864Y-112823604D01*
X112047454Y-112851194D01*
X112083502Y-112866126D01*
X112103011Y-112868047D01*
X112288725Y-112868047D01*
X112288725Y-113434713D01*
X112290646Y-113454222D01*
X112305578Y-113490270D01*
X112333168Y-113517860D01*
X112369216Y-113532792D01*
X112408234Y-113532792D01*
X112444282Y-113517860D01*
X112471872Y-113490270D01*
X112486804Y-113454222D01*
X112488725Y-113434713D01*
X112488725Y-112868047D01*
X112864915Y-112868047D01*
X112884424Y-112866126D01*
X112920472Y-112851194D01*
X112948062Y-112823604D01*
X112962994Y-112787556D01*
X112962994Y-112748538D01*
X112948062Y-112712490D01*
X112920472Y-112684900D01*
X112884424Y-112669968D01*
X112864915Y-112668047D01*
X112488725Y-112668047D01*
X112488725Y-111744035D01*
X112500528Y-111720428D01*
X113336344Y-111720428D01*
X113336344Y-112482332D01*
X113338265Y-112501841D01*
X113339640Y-112505161D01*
X113339895Y-112508745D01*
X113346901Y-112527053D01*
X113442139Y-112717531D01*
X113444193Y-112720795D01*
X113444706Y-112722332D01*
X113446365Y-112724246D01*
X113452582Y-112734121D01*
X113462054Y-112742336D01*
X113470270Y-112751809D01*
X113480143Y-112758023D01*
X113482059Y-112759685D01*
X113483597Y-112760197D01*
X113486861Y-112762252D01*
X113677337Y-112857490D01*
X113695645Y-112864496D01*
X113699228Y-112864750D01*
X113702549Y-112866126D01*
X113722058Y-112868047D01*
X114103011Y-112868047D01*
X114122520Y-112866126D01*
X114125840Y-112864750D01*
X114129424Y-112864496D01*
X114147732Y-112857490D01*
X114338209Y-112762252D01*
X114341473Y-112760197D01*
X114343010Y-112759685D01*
X114344923Y-112758025D01*
X114354799Y-112751809D01*
X114363016Y-112742333D01*
X114372487Y-112734120D01*
X114378700Y-112724248D01*
X114380363Y-112722332D01*
X114380876Y-112720793D01*
X114382930Y-112717530D01*
X114478168Y-112527053D01*
X114485174Y-112508744D01*
X114485428Y-112505161D01*
X114486804Y-112501841D01*
X114488725Y-112482332D01*
X114488725Y-112291966D01*
X114488726Y-112291961D01*
X114488725Y-112291955D01*
X114488725Y-112291856D01*
X114486804Y-112272347D01*
X114483054Y-112263295D01*
X114481153Y-112253684D01*
X114475660Y-112245445D01*
X114471872Y-112236299D01*
X114464945Y-112229372D01*
X114459510Y-112221219D01*
X114451281Y-112215708D01*
X114444282Y-112208709D01*
X114435230Y-112204959D01*
X114427090Y-112199508D01*
X114408337Y-112193798D01*
X114408235Y-112193777D01*
X114408234Y-112193777D01*
X114408232Y-112193777D01*
X113536344Y-112019399D01*
X113536344Y-111744035D01*
X113548147Y-111720428D01*
X115145868Y-111720428D01*
X115145868Y-113434713D01*
X115147789Y-113454222D01*
X115162721Y-113490270D01*
X115190311Y-113517860D01*
X115226359Y-113532792D01*
X115265377Y-113532792D01*
X115301425Y-113517860D01*
X115329015Y-113490270D01*
X115343947Y-113454222D01*
X115345868Y-113434713D01*
X115345868Y-111744035D01*
X115357671Y-111720428D01*
X116098249Y-111720428D01*
X116098249Y-111910904D01*
X116100170Y-111930413D01*
X116101545Y-111933733D01*
X116101800Y-111937317D01*
X116108806Y-111955625D01*
X116204044Y-112146102D01*
X116206098Y-112149366D01*
X116206611Y-112150903D01*
X116208270Y-112152817D01*
X116214487Y-112162692D01*
X116223959Y-112170907D01*
X116232175Y-112180380D01*
X116242048Y-112186594D01*
X116243964Y-112188256D01*
X116245502Y-112188768D01*
X116248766Y-112190823D01*
X116439242Y-112286061D01*
X116457550Y-112293067D01*
X116461133Y-112293321D01*
X116464454Y-112294697D01*
X116483963Y-112296618D01*
X116936547Y-112296618D01*
X117050630Y-112353659D01*
X117050630Y-112458724D01*
X116980856Y-112598273D01*
X116841309Y-112668047D01*
X116507571Y-112668047D01*
X116338208Y-112583366D01*
X116319900Y-112576360D01*
X116280980Y-112573594D01*
X116243964Y-112585933D01*
X116214487Y-112611497D01*
X116197038Y-112646396D01*
X116194272Y-112685316D01*
X116206611Y-112722332D01*
X116232175Y-112751809D01*
X116248766Y-112762252D01*
X116439242Y-112857490D01*
X116457550Y-112864496D01*
X116461133Y-112864750D01*
X116464454Y-112866126D01*
X116483963Y-112868047D01*
X116864916Y-112868047D01*
X116884425Y-112866126D01*
X116887745Y-112864750D01*
X116891329Y-112864496D01*
X116909637Y-112857490D01*
X117100114Y-112762252D01*
X117103378Y-112760197D01*
X117104915Y-112759685D01*
X117106828Y-112758025D01*
X117116704Y-112751809D01*
X117124921Y-112742333D01*
X117134392Y-112734120D01*
X117140605Y-112724248D01*
X117142268Y-112722332D01*
X117142781Y-112720793D01*
X117144835Y-112717530D01*
X117240073Y-112527053D01*
X117247079Y-112508744D01*
X117247333Y-112505161D01*
X117248709Y-112501841D01*
X117250630Y-112482332D01*
X117250630Y-111720428D01*
X117907773Y-111720428D01*
X117907773Y-111910904D01*
X117909694Y-111930413D01*
X117911069Y-111933733D01*
X117911324Y-111937317D01*
X117918330Y-111955625D01*
X118013568Y-112146102D01*
X118015622Y-112149366D01*
X118016135Y-112150903D01*
X118017794Y-112152817D01*
X118024011Y-112162692D01*
X118033483Y-112170907D01*
X118041699Y-112180380D01*
X118051572Y-112186594D01*
X118053488Y-112188256D01*
X118055026Y-112188768D01*
X118058290Y-112190823D01*
X118248766Y-112286061D01*
X118267074Y-112293067D01*
X118270657Y-112293321D01*
X118273978Y-112294697D01*
X118293487Y-112296618D01*
X118746071Y-112296618D01*
X118860154Y-112353659D01*
X118860154Y-112458724D01*
X118790380Y-112598273D01*
X118650833Y-112668047D01*
X118317095Y-112668047D01*
X118147732Y-112583366D01*
X118129424Y-112576360D01*
X118090504Y-112573594D01*
X118053488Y-112585933D01*
X118024011Y-112611497D01*
X118006562Y-112646396D01*
X118003796Y-112685316D01*
X118016135Y-112722332D01*
X118041699Y-112751809D01*
X118058290Y-112762252D01*
X118248766Y-112857490D01*
X118267074Y-112864496D01*
X118270657Y-112864750D01*
X118273978Y-112866126D01*
X118293487Y-112868047D01*
X118674440Y-112868047D01*
X118693949Y-112866126D01*
X118697269Y-112864750D01*
X118700853Y-112864496D01*
X118719161Y-112857490D01*
X118909638Y-112762252D01*
X118912902Y-112760197D01*
X118914439Y-112759685D01*
X118916352Y-112758025D01*
X118926228Y-112751809D01*
X118934445Y-112742333D01*
X118943916Y-112734120D01*
X118950129Y-112724248D01*
X118951792Y-112722332D01*
X118952305Y-112720793D01*
X118954359Y-112717530D01*
X119049597Y-112527053D01*
X119056603Y-112508744D01*
X119056857Y-112505161D01*
X119058233Y-112501841D01*
X119060154Y-112482332D01*
X119060154Y-111434713D01*
X119812535Y-111434713D01*
X119812535Y-112768047D01*
X119814456Y-112787556D01*
X119829388Y-112823604D01*
X119856978Y-112851194D01*
X119893026Y-112866126D01*
X119932044Y-112866126D01*
X119968092Y-112851194D01*
X119995682Y-112823604D01*
X120010614Y-112787556D01*
X120012535Y-112768047D01*
X120012535Y-112723755D01*
X120032300Y-112743520D01*
X120039966Y-112749811D01*
X120041699Y-112751809D01*
X120044710Y-112753704D01*
X120047454Y-112755956D01*
X120049891Y-112756965D01*
X120058290Y-112762252D01*
X120248766Y-112857490D01*
X120267074Y-112864496D01*
X120270657Y-112864750D01*
X120273978Y-112866126D01*
X120293487Y-112868047D01*
X120483964Y-112868047D01*
X120503473Y-112866126D01*
X120539521Y-112851194D01*
X120567111Y-112823604D01*
X120582043Y-112787556D01*
X120582043Y-112748538D01*
X120567111Y-112712490D01*
X120539521Y-112684900D01*
X120503473Y-112669968D01*
X120483964Y-112668047D01*
X120317095Y-112668047D01*
X120162247Y-112590623D01*
X120089958Y-112518334D01*
X120012535Y-112363487D01*
X120012535Y-111434713D01*
X120010614Y-111415204D01*
X119995682Y-111379156D01*
X119968092Y-111351566D01*
X119932044Y-111336634D01*
X119893026Y-111336634D01*
X119856978Y-111351566D01*
X119829388Y-111379156D01*
X119814456Y-111415204D01*
X119812535Y-111434713D01*
X119060154Y-111434713D01*
X119058233Y-111415204D01*
X119043301Y-111379156D01*
X119015711Y-111351566D01*
X118979663Y-111336634D01*
X118940645Y-111336634D01*
X118904597Y-111351566D01*
X118878728Y-111377434D01*
X118814400Y-111345270D01*
X118796091Y-111338264D01*
X118792507Y-111338009D01*
X118789187Y-111336634D01*
X118769678Y-111334713D01*
X118293487Y-111334713D01*
X118273978Y-111336634D01*
X118270657Y-111338009D01*
X118267074Y-111338264D01*
X118248765Y-111345271D01*
X118058289Y-111440509D01*
X118055024Y-111442563D01*
X118053488Y-111443076D01*
X118051573Y-111444735D01*
X118041699Y-111450952D01*
X118033483Y-111460424D01*
X118024011Y-111468640D01*
X118017794Y-111478514D01*
X118016135Y-111480429D01*
X118015622Y-111481965D01*
X118013568Y-111485230D01*
X117918330Y-111675707D01*
X117911324Y-111694015D01*
X117911069Y-111697598D01*
X117909694Y-111700919D01*
X117907773Y-111720428D01*
X117250630Y-111720428D01*
X117250630Y-111434713D01*
X117248709Y-111415204D01*
X117233777Y-111379156D01*
X117206187Y-111351566D01*
X117170139Y-111336634D01*
X117131121Y-111336634D01*
X117095073Y-111351566D01*
X117069204Y-111377434D01*
X117004876Y-111345270D01*
X116986567Y-111338264D01*
X116982983Y-111338009D01*
X116979663Y-111336634D01*
X116960154Y-111334713D01*
X116483963Y-111334713D01*
X116464454Y-111336634D01*
X116461133Y-111338009D01*
X116457550Y-111338264D01*
X116439241Y-111345271D01*
X116248765Y-111440509D01*
X116245500Y-111442563D01*
X116243964Y-111443076D01*
X116242049Y-111444735D01*
X116232175Y-111450952D01*
X116223959Y-111460424D01*
X116214487Y-111468640D01*
X116208270Y-111478514D01*
X116206611Y-111480429D01*
X116206098Y-111481965D01*
X116204044Y-111485230D01*
X116108806Y-111675707D01*
X116101800Y-111694015D01*
X116101545Y-111697598D01*
X116100170Y-111700919D01*
X116098249Y-111720428D01*
X115357671Y-111720428D01*
X115415641Y-111604488D01*
X115576304Y-111524156D01*
X115592894Y-111513713D01*
X115618458Y-111484236D01*
X115630797Y-111447220D01*
X115628031Y-111408300D01*
X115610581Y-111373401D01*
X115581105Y-111347837D01*
X115544089Y-111335498D01*
X115505169Y-111338264D01*
X115486860Y-111345271D01*
X115296384Y-111440509D01*
X115293119Y-111442563D01*
X115291583Y-111443076D01*
X115289668Y-111444735D01*
X115279794Y-111450952D01*
X115271578Y-111460424D01*
X115262106Y-111468640D01*
X115255889Y-111478514D01*
X115254230Y-111480429D01*
X115253717Y-111481965D01*
X115251663Y-111485230D01*
X115156425Y-111675707D01*
X115149419Y-111694015D01*
X115149164Y-111697598D01*
X115147789Y-111700919D01*
X115145868Y-111720428D01*
X113548147Y-111720428D01*
X113606117Y-111604488D01*
X113745666Y-111534713D01*
X114079403Y-111534713D01*
X114248765Y-111619394D01*
X114267074Y-111626401D01*
X114305994Y-111629167D01*
X114343010Y-111616828D01*
X114372486Y-111591264D01*
X114389936Y-111556365D01*
X114392702Y-111517445D01*
X114380363Y-111480429D01*
X114354799Y-111450952D01*
X114338209Y-111440509D01*
X114147733Y-111345270D01*
X114129424Y-111338264D01*
X114125840Y-111338009D01*
X114122520Y-111336634D01*
X114103011Y-111334713D01*
X113722058Y-111334713D01*
X113702549Y-111336634D01*
X113699228Y-111338009D01*
X113695645Y-111338264D01*
X113677336Y-111345271D01*
X113486860Y-111440509D01*
X113483595Y-111442563D01*
X113482059Y-111443076D01*
X113480144Y-111444735D01*
X113470270Y-111450952D01*
X113462054Y-111460424D01*
X113452582Y-111468640D01*
X113446365Y-111478514D01*
X113444706Y-111480429D01*
X113444193Y-111481965D01*
X113442139Y-111485230D01*
X113346901Y-111675707D01*
X113339895Y-111694015D01*
X113339640Y-111697598D01*
X113338265Y-111700919D01*
X113336344Y-111720428D01*
X112500528Y-111720428D01*
X112558498Y-111604488D01*
X112698047Y-111534713D01*
X112864915Y-111534713D01*
X112884424Y-111532792D01*
X112920472Y-111517860D01*
X112948062Y-111490270D01*
X112962994Y-111454222D01*
X112962994Y-111415204D01*
X112948062Y-111379156D01*
X112920472Y-111351566D01*
X112884424Y-111336634D01*
X112864915Y-111334713D01*
X112674439Y-111334713D01*
X112654930Y-111336634D01*
X112651609Y-111338009D01*
X112648026Y-111338264D01*
X112629717Y-111345271D01*
X112439241Y-111440509D01*
X112435976Y-111442563D01*
X112434440Y-111443076D01*
X112432525Y-111444735D01*
X112422651Y-111450952D01*
X112414435Y-111460424D01*
X112404963Y-111468640D01*
X112398746Y-111478514D01*
X112397087Y-111480429D01*
X112396574Y-111481965D01*
X112394520Y-111485230D01*
X112299282Y-111675707D01*
X112292276Y-111694015D01*
X112292021Y-111697598D01*
X112290646Y-111700919D01*
X112288725Y-111720428D01*
X112288725Y-112668047D01*
X112103011Y-112668047D01*
X112083502Y-112669968D01*
X112047454Y-112684900D01*
X112019864Y-112712490D01*
X112004932Y-112748538D01*
X111500492Y-112748538D01*
X111505873Y-112742333D01*
X111515344Y-112734120D01*
X111521557Y-112724248D01*
X111523220Y-112722332D01*
X111523733Y-112720793D01*
X111525787Y-112717530D01*
X111621025Y-112527053D01*
X111628031Y-112508744D01*
X111628285Y-112505161D01*
X111629661Y-112501841D01*
X111631582Y-112482332D01*
X111631582Y-112291966D01*
X111631583Y-112291961D01*
X111631582Y-112291955D01*
X111631582Y-112291856D01*
X111629661Y-112272347D01*
X111625911Y-112263295D01*
X111624010Y-112253684D01*
X111618517Y-112245445D01*
X111614729Y-112236299D01*
X111607802Y-112229372D01*
X111602367Y-112221219D01*
X111594138Y-112215708D01*
X111587139Y-112208709D01*
X111578087Y-112204959D01*
X111569947Y-112199508D01*
X111551194Y-112193798D01*
X111551092Y-112193777D01*
X111551091Y-112193777D01*
X111551089Y-112193777D01*
X110679201Y-112019399D01*
X110679201Y-111744035D01*
X110748974Y-111604488D01*
X110888523Y-111534713D01*
X111222260Y-111534713D01*
X111391622Y-111619394D01*
X111409931Y-111626401D01*
X111448851Y-111629167D01*
X111485867Y-111616828D01*
X111515343Y-111591264D01*
X111532793Y-111556365D01*
X111535559Y-111517445D01*
X111523220Y-111480429D01*
X111497656Y-111450952D01*
X111481066Y-111440509D01*
X111290590Y-111345270D01*
X111272281Y-111338264D01*
X111268697Y-111338009D01*
X111265377Y-111336634D01*
X111245868Y-111334713D01*
X110864915Y-111334713D01*
X110845406Y-111336634D01*
X110842085Y-111338009D01*
X110838502Y-111338264D01*
X110820193Y-111345271D01*
X110629717Y-111440509D01*
X110626452Y-111442563D01*
X110624916Y-111443076D01*
X110623001Y-111444735D01*
X110613127Y-111450952D01*
X110604911Y-111460424D01*
X110595439Y-111468640D01*
X110589222Y-111478514D01*
X110587563Y-111480429D01*
X110587050Y-111481965D01*
X110584996Y-111485230D01*
X110489758Y-111675707D01*
X110482752Y-111694015D01*
X110482497Y-111697598D01*
X110481122Y-111700919D01*
X110479201Y-111720428D01*
X109825135Y-111720428D01*
X109819072Y-111696174D01*
X109812477Y-111677714D01*
X109808050Y-111671739D01*
X109805205Y-111664871D01*
X109792769Y-111649718D01*
X109602293Y-111459241D01*
X109594626Y-111452949D01*
X109592894Y-111450952D01*
X109589882Y-111449056D01*
X109587139Y-111446805D01*
X109584702Y-111445795D01*
X109576304Y-111440509D01*
X109385828Y-111345270D01*
X109367519Y-111338264D01*
X109363935Y-111338009D01*
X109360615Y-111336634D01*
X109341106Y-111334713D01*
X108960153Y-111334713D01*
X108940644Y-111336634D01*
X108937323Y-111338009D01*
X108933740Y-111338264D01*
X108915431Y-111345271D01*
X108724955Y-111440509D01*
X108716556Y-111445795D01*
X108714120Y-111446805D01*
X108711377Y-111449055D01*
X108708365Y-111450952D01*
X108706631Y-111452950D01*
X108698967Y-111459241D01*
X108508490Y-111649717D01*
X108496054Y-111664871D01*
X108493208Y-111671739D01*
X108488782Y-111677714D01*
X108482187Y-111696175D01*
X108386949Y-112077126D01*
X108386448Y-112080507D01*
X108385884Y-112081871D01*
X108385160Y-112089221D01*
X108384081Y-112096519D01*
X108384298Y-112097977D01*
X108383963Y-112101380D01*
X106203010Y-112101380D01*
X106203010Y-111434713D01*
X106201089Y-111415204D01*
X106186157Y-111379156D01*
X106158567Y-111351566D01*
X106122519Y-111336634D01*
X106083501Y-111336634D01*
X106047453Y-111351566D01*
X106019863Y-111379156D01*
X106004931Y-111415204D01*
X106003010Y-111434713D01*
X106003010Y-112458724D01*
X105933236Y-112598273D01*
X105793689Y-112668047D01*
X105555189Y-112668047D01*
X105400341Y-112590623D01*
X105345867Y-112536149D01*
X105345867Y-111434713D01*
X105343946Y-111415204D01*
X105329014Y-111379156D01*
X105301424Y-111351566D01*
X105265376Y-111336634D01*
X105226358Y-111336634D01*
X105190310Y-111351566D01*
X105162720Y-111379156D01*
X105147788Y-111415204D01*
X105145867Y-111434713D01*
X104326616Y-111434713D01*
X104147732Y-111345270D01*
X104129423Y-111338264D01*
X104125839Y-111338009D01*
X104122519Y-111336634D01*
X104103010Y-111334713D01*
X103722057Y-111334713D01*
X103702548Y-111336634D01*
X103699227Y-111338009D01*
X103695644Y-111338264D01*
X103677335Y-111345271D01*
X103486859Y-111440509D01*
X103483594Y-111442563D01*
X103482058Y-111443076D01*
X103480143Y-111444735D01*
X103470269Y-111450952D01*
X103462053Y-111460424D01*
X103452581Y-111468640D01*
X103446364Y-111478514D01*
X103444705Y-111480429D01*
X103444192Y-111481965D01*
X103442138Y-111485230D01*
X103346900Y-111675707D01*
X103339894Y-111694015D01*
X103339639Y-111697598D01*
X103338264Y-111700919D01*
X103336343Y-111720428D01*
X102679200Y-111720428D01*
X102679200Y-111434713D01*
X102677279Y-111415204D01*
X102662347Y-111379156D01*
X102634757Y-111351566D01*
X102598709Y-111336634D01*
X102559691Y-111336634D01*
X102523643Y-111351566D01*
X102497774Y-111377434D01*
X102433446Y-111345270D01*
X102415137Y-111338264D01*
X102411553Y-111338009D01*
X102408233Y-111336634D01*
X102388724Y-111334713D01*
X102007771Y-111334713D01*
X101988262Y-111336634D01*
X101984941Y-111338009D01*
X101981358Y-111338264D01*
X101963049Y-111345271D01*
X101772573Y-111440509D01*
X101764174Y-111445795D01*
X101761738Y-111446805D01*
X101758994Y-111449056D01*
X101755983Y-111450952D01*
X101754250Y-111452949D01*
X101746584Y-111459241D01*
X101651346Y-111554479D01*
X101645054Y-111562145D01*
X101643057Y-111563878D01*
X101641161Y-111566889D01*
X101638910Y-111569633D01*
X101637900Y-111572069D01*
X101632614Y-111580468D01*
X101537376Y-111770945D01*
X101530370Y-111789253D01*
X101530115Y-111792836D01*
X101528740Y-111796157D01*
X101526819Y-111815666D01*
X99345866Y-111815666D01*
X99345866Y-111434713D01*
X99343945Y-111415204D01*
X99329013Y-111379156D01*
X99301423Y-111351566D01*
X99265375Y-111336634D01*
X99226357Y-111336634D01*
X99190309Y-111351566D01*
X99162719Y-111379156D01*
X99147787Y-111415204D01*
X99145866Y-111434713D01*
X99145866Y-112458724D01*
X99076092Y-112598273D01*
X98936545Y-112668047D01*
X98698045Y-112668047D01*
X98543197Y-112590623D01*
X98488723Y-112536149D01*
X98488723Y-111434713D01*
X98486802Y-111415204D01*
X98471870Y-111379156D01*
X98444280Y-111351566D01*
X98408232Y-111336634D01*
X98369214Y-111336634D01*
X98333166Y-111351566D01*
X98305576Y-111379156D01*
X98290644Y-111415204D01*
X98288723Y-111434713D01*
X97536342Y-111434713D01*
X97534421Y-111415204D01*
X97519489Y-111379156D01*
X97491899Y-111351566D01*
X97455851Y-111336634D01*
X97416833Y-111336634D01*
X97380785Y-111351566D01*
X97354916Y-111377434D01*
X97290588Y-111345270D01*
X97272279Y-111338264D01*
X97268695Y-111338009D01*
X97265375Y-111336634D01*
X97245866Y-111334713D01*
X96769675Y-111334713D01*
X96750166Y-111336634D01*
X96746845Y-111338009D01*
X96743262Y-111338264D01*
X96724953Y-111345271D01*
X96534477Y-111440509D01*
X96531212Y-111442563D01*
X96529676Y-111443076D01*
X96527761Y-111444735D01*
X96517887Y-111450952D01*
X96509671Y-111460424D01*
X96500199Y-111468640D01*
X96493982Y-111478514D01*
X96492323Y-111480429D01*
X96491810Y-111481965D01*
X96489756Y-111485230D01*
X96394518Y-111675707D01*
X96387512Y-111694015D01*
X96387257Y-111697598D01*
X96385882Y-111700919D01*
X96383961Y-111720428D01*
X95549330Y-111720428D01*
X95435277Y-111401079D01*
X95426907Y-111383353D01*
X95423537Y-111379631D01*
X95421389Y-111375095D01*
X95410537Y-111365271D01*
X95400720Y-111354427D01*
X95396185Y-111352279D01*
X95392463Y-111348909D01*
X95378676Y-111343985D01*
X95365458Y-111337724D01*
X95360446Y-111337474D01*
X95355718Y-111335786D01*
X95341103Y-111336512D01*
X95326488Y-111335786D01*
X95321759Y-111337474D01*
X95316748Y-111337724D01*
X95303529Y-111343985D01*
X95289743Y-111348909D01*
X95286020Y-111352279D01*
X95281486Y-111354427D01*
X95271667Y-111365273D01*
X95260817Y-111375096D01*
X95258668Y-111379632D01*
X95255300Y-111383353D01*
X95246929Y-111401079D01*
X94770739Y-112734413D01*
X94765986Y-112753432D01*
X92542693Y-112753432D01*
X92545272Y-112751809D01*
X92553489Y-112742333D01*
X92562960Y-112734120D01*
X92569173Y-112724248D01*
X92570836Y-112722332D01*
X92571349Y-112720793D01*
X92573403Y-112717530D01*
X92668641Y-112527053D01*
X92675647Y-112508744D01*
X92675901Y-112505161D01*
X92677277Y-112501841D01*
X92679198Y-112482332D01*
X92679198Y-111434713D01*
X92677277Y-111415204D01*
X92662345Y-111379156D01*
X92634755Y-111351566D01*
X92598707Y-111336634D01*
X92559689Y-111336634D01*
X92523641Y-111351566D01*
X92496051Y-111379156D01*
X92481119Y-111415204D01*
X92479198Y-111434713D01*
X92479198Y-112458724D01*
X92409424Y-112598273D01*
X92269877Y-112668047D01*
X92031377Y-112668047D01*
X91876529Y-112590623D01*
X91822055Y-112536149D01*
X91822055Y-111434713D01*
X91820134Y-111415204D01*
X91805202Y-111379156D01*
X91777612Y-111351566D01*
X91741564Y-111336634D01*
X91702546Y-111336634D01*
X91666498Y-111351566D01*
X91638908Y-111379156D01*
X91623976Y-111415204D01*
X91622055Y-111434713D01*
X90869674Y-111434713D01*
X90867753Y-111415204D01*
X90852821Y-111379156D01*
X90825231Y-111351566D01*
X90789183Y-111336634D01*
X90750165Y-111336634D01*
X90714117Y-111351566D01*
X90686527Y-111379156D01*
X90671595Y-111415204D01*
X90669674Y-111434713D01*
X89730818Y-111434713D01*
X89722969Y-111407241D01*
X89715763Y-111389010D01*
X89711794Y-111384011D01*
X89709281Y-111378146D01*
X89699766Y-111368860D01*
X89691502Y-111358451D01*
X89685924Y-111355352D01*
X89681356Y-111350894D01*
X89669011Y-111345955D01*
X89657394Y-111339502D01*
X89651055Y-111338773D01*
X89645129Y-111336403D01*
X89631835Y-111336565D01*
X89618631Y-111335048D01*
X89612494Y-111336801D01*
X89606114Y-111336879D01*
X89593896Y-111342114D01*
X89581114Y-111345767D01*
X89576115Y-111349735D01*
X89570250Y-111352249D01*
X89560964Y-111361763D01*
X89550555Y-111370028D01*
X89547456Y-111375605D01*
X89542999Y-111380173D01*
X89533969Y-111397574D01*
X89245864Y-112117835D01*
X88957760Y-111397574D01*
X88948731Y-111380174D01*
X88944272Y-111375605D01*
X88941174Y-111370028D01*
X88930761Y-111361761D01*
X88921479Y-111352250D01*
X88915616Y-111349737D01*
X88910615Y-111345767D01*
X88897825Y-111342112D01*
X88885615Y-111336880D01*
X88879237Y-111336802D01*
X88873098Y-111335048D01*
X88859893Y-111336565D01*
X88846600Y-111336403D01*
X88840670Y-111338774D01*
X88834335Y-111339503D01*
X88822724Y-111345953D01*
X88810373Y-111350894D01*
X88805802Y-111355354D01*
X88800227Y-111358452D01*
X88791962Y-111368861D01*
X88782449Y-111378146D01*
X88779936Y-111384009D01*
X88775966Y-111389010D01*
X88768760Y-111407241D01*
X88387808Y-112740575D01*
X88384295Y-112759861D01*
X87822055Y-112759861D01*
X87822055Y-111434713D01*
X87820134Y-111415204D01*
X87805202Y-111379156D01*
X87777612Y-111351566D01*
X87741564Y-111336634D01*
X87702546Y-111336634D01*
X87666498Y-111351566D01*
X87640629Y-111377434D01*
X87576301Y-111345270D01*
X87557992Y-111338264D01*
X87554408Y-111338009D01*
X87551088Y-111336634D01*
X87531579Y-111334713D01*
X87150626Y-111334713D01*
X87131117Y-111336634D01*
X87127796Y-111338009D01*
X87124213Y-111338264D01*
X87105904Y-111345271D01*
X86915428Y-111440509D01*
X86907029Y-111445795D01*
X86904593Y-111446805D01*
X86901849Y-111449056D01*
X86898838Y-111450952D01*
X86897105Y-111452949D01*
X86889439Y-111459241D01*
X86794201Y-111554479D01*
X86787909Y-111562145D01*
X86785912Y-111563878D01*
X86784016Y-111566889D01*
X86781765Y-111569633D01*
X86780755Y-111572069D01*
X86775469Y-111580468D01*
X86680231Y-111770945D01*
X86673225Y-111789253D01*
X86672970Y-111792836D01*
X86671595Y-111796157D01*
X86669674Y-111815666D01*
X85155388Y-111815666D01*
X85155388Y-111534713D01*
X86007769Y-111534713D01*
X86027278Y-111532792D01*
X86063326Y-111517860D01*
X86090916Y-111490270D01*
X86105848Y-111454222D01*
X86105848Y-111415204D01*
X86090916Y-111379156D01*
X86063326Y-111351566D01*
X86027278Y-111336634D01*
X86007769Y-111334713D01*
X85055388Y-111334713D01*
X85035879Y-111336634D01*
X84999831Y-111351566D01*
X84972241Y-111379156D01*
X84957309Y-111415204D01*
X84955388Y-111434713D01*
X82399668Y-111434713D01*
X82387656Y-111401079D01*
X82386854Y-111399380D01*
X82386330Y-111397574D01*
X82195854Y-110921384D01*
X82186825Y-110903984D01*
X82186390Y-110903538D01*
X82186153Y-110902966D01*
X82173717Y-110887812D01*
X82078479Y-110792574D01*
X82070812Y-110786282D01*
X82069080Y-110784285D01*
X82066068Y-110782389D01*
X82063325Y-110780138D01*
X82060888Y-110779128D01*
X82052490Y-110773842D01*
X81862013Y-110678604D01*
X81843705Y-110671598D01*
X81804785Y-110668832D01*
X81767769Y-110681171D01*
X81738292Y-110706735D01*
X81720843Y-110741634D01*
X81718077Y-110780554D01*
X79590308Y-110780554D01*
X79590308Y-108595778D01*
X79812530Y-108595778D01*
X79812530Y-109357683D01*
X79812865Y-109361085D01*
X79812648Y-109362544D01*
X79813727Y-109369841D01*
X79814451Y-109377192D01*
X79815015Y-109378555D01*
X79815516Y-109381937D01*
X79910754Y-109762888D01*
X79914860Y-109774383D01*
X79915340Y-109776807D01*
X79916511Y-109779003D01*
X79917349Y-109781349D01*
X79918820Y-109783335D01*
X79924563Y-109794105D01*
X80115039Y-110079819D01*
X80115083Y-110079873D01*
X80115097Y-110079906D01*
X80121277Y-110087437D01*
X80127459Y-110094986D01*
X80127488Y-110095005D01*
X80127533Y-110095060D01*
X80222771Y-110190298D01*
X80230437Y-110196589D01*
X80232170Y-110198587D01*
X80235181Y-110200482D01*
X80237925Y-110202734D01*
X80240362Y-110203743D01*
X80248761Y-110209030D01*
X80439237Y-110304268D01*
X80457545Y-110311274D01*
X80461128Y-110311528D01*
X80464449Y-110312904D01*
X80483958Y-110314825D01*
X80864911Y-110314825D01*
X80884420Y-110312904D01*
X80920468Y-110297972D01*
X80948058Y-110270382D01*
X80962990Y-110234334D01*
X80962990Y-110195316D01*
X80948058Y-110159268D01*
X80920468Y-110131678D01*
X80884420Y-110116746D01*
X80864911Y-110114825D01*
X80507566Y-110114825D01*
X80352718Y-110037401D01*
X80275955Y-109960638D01*
X80100581Y-109697577D01*
X80033540Y-109429416D01*
X80039963Y-109434687D01*
X80041694Y-109436683D01*
X80044701Y-109438576D01*
X80047448Y-109440830D01*
X80049888Y-109441840D01*
X80058285Y-109447126D01*
X80248761Y-109542364D01*
X80267069Y-109549370D01*
X80270652Y-109549624D01*
X80273973Y-109551000D01*
X80293482Y-109552921D01*
X80674435Y-109552921D01*
X80693944Y-109551000D01*
X80697264Y-109549624D01*
X80700848Y-109549370D01*
X80719156Y-109542364D01*
X80909633Y-109447126D01*
X80918030Y-109441840D01*
X80920469Y-109440830D01*
X80923213Y-109438577D01*
X80926223Y-109436683D01*
X80927955Y-109434685D01*
X80935622Y-109428393D01*
X81030860Y-109333154D01*
X81037152Y-109325487D01*
X81039149Y-109323756D01*
X81041042Y-109320748D01*
X81043297Y-109318001D01*
X81044308Y-109315559D01*
X81049592Y-109307165D01*
X81144830Y-109116689D01*
X81151836Y-109098381D01*
X81152090Y-109094797D01*
X81153466Y-109091477D01*
X81155387Y-109071968D01*
X81155387Y-108595778D01*
X81153466Y-108576269D01*
X81152090Y-108572948D01*
X81151836Y-108569365D01*
X81144830Y-108551057D01*
X81119571Y-108500540D01*
X83241102Y-108500540D01*
X83241102Y-108691016D01*
X83243023Y-108710525D01*
X83244398Y-108713845D01*
X83244653Y-108717429D01*
X83251659Y-108735737D01*
X83346897Y-108926214D01*
X83348951Y-108929478D01*
X83349464Y-108931015D01*
X83351123Y-108932929D01*
X83357340Y-108942804D01*
X83366812Y-108951019D01*
X83375028Y-108960492D01*
X83384901Y-108966706D01*
X83386817Y-108968368D01*
X83388355Y-108968880D01*
X83391619Y-108970935D01*
X83582095Y-109066173D01*
X83600403Y-109073179D01*
X83603986Y-109073433D01*
X83607307Y-109074809D01*
X83626816Y-109076730D01*
X84079400Y-109076730D01*
X84193483Y-109133771D01*
X84193483Y-109238836D01*
X84123709Y-109378385D01*
X83984162Y-109448159D01*
X83650424Y-109448159D01*
X83481061Y-109363478D01*
X83462753Y-109356472D01*
X83423833Y-109353706D01*
X83386817Y-109366045D01*
X83357340Y-109391609D01*
X83339891Y-109426508D01*
X83337125Y-109465428D01*
X83349464Y-109502444D01*
X83375028Y-109531921D01*
X83391619Y-109542364D01*
X83582095Y-109637602D01*
X83600403Y-109644608D01*
X83603986Y-109644862D01*
X83607307Y-109646238D01*
X83626816Y-109648159D01*
X84007769Y-109648159D01*
X84027278Y-109646238D01*
X84030598Y-109644862D01*
X84034182Y-109644608D01*
X84052490Y-109637602D01*
X84242967Y-109542364D01*
X84246231Y-109540309D01*
X84247768Y-109539797D01*
X84249681Y-109538137D01*
X84259557Y-109531921D01*
X84267774Y-109522445D01*
X84277245Y-109514232D01*
X84283458Y-109504360D01*
X84285121Y-109502444D01*
X84285634Y-109500905D01*
X84287688Y-109497642D01*
X84382926Y-109307165D01*
X84389932Y-109288856D01*
X84390186Y-109285273D01*
X84391562Y-109281953D01*
X84393483Y-109262444D01*
X84393483Y-108500540D01*
X85145864Y-108500540D01*
X85145864Y-109548159D01*
X85147785Y-109567668D01*
X85162717Y-109603716D01*
X85190307Y-109631306D01*
X85226355Y-109646238D01*
X85265373Y-109646238D01*
X85301421Y-109631306D01*
X85329011Y-109603716D01*
X85343943Y-109567668D01*
X85345864Y-109548159D01*
X85345864Y-108524147D01*
X85415637Y-108384600D01*
X85555186Y-108314825D01*
X85793685Y-108314825D01*
X85948531Y-108392248D01*
X86003007Y-108446724D01*
X86003007Y-109548159D01*
X86004928Y-109567668D01*
X86019860Y-109603716D01*
X86047450Y-109631306D01*
X86083498Y-109646238D01*
X86122516Y-109646238D01*
X86158564Y-109631306D01*
X86186154Y-109603716D01*
X86201086Y-109567668D01*
X86203007Y-109548159D01*
X86203007Y-108595778D01*
X86860150Y-108595778D01*
X86860150Y-109167206D01*
X86862071Y-109186715D01*
X86863446Y-109190035D01*
X86863701Y-109193619D01*
X86870707Y-109211927D01*
X86965945Y-109402405D01*
X86971231Y-109410803D01*
X86972241Y-109413240D01*
X86974492Y-109415983D01*
X86976388Y-109418995D01*
X86978385Y-109420727D01*
X86984677Y-109428394D01*
X87079915Y-109523632D01*
X87087581Y-109529923D01*
X87089314Y-109531921D01*
X87092325Y-109533816D01*
X87095069Y-109536068D01*
X87097506Y-109537077D01*
X87105905Y-109542364D01*
X87296381Y-109637602D01*
X87314689Y-109644608D01*
X87318272Y-109644862D01*
X87321593Y-109646238D01*
X87341102Y-109648159D01*
X87722055Y-109648159D01*
X87741564Y-109646238D01*
X87744884Y-109644862D01*
X87748468Y-109644608D01*
X87766776Y-109637602D01*
X87831105Y-109605437D01*
X87856974Y-109631306D01*
X87893022Y-109646238D01*
X87932040Y-109646238D01*
X87968088Y-109631306D01*
X87995678Y-109603716D01*
X88010610Y-109567668D01*
X88012531Y-109548159D01*
X88012531Y-108500540D01*
X88764912Y-108500540D01*
X88764912Y-109548159D01*
X88766833Y-109567668D01*
X88781765Y-109603716D01*
X88809355Y-109631306D01*
X88845403Y-109646238D01*
X88884421Y-109646238D01*
X88920469Y-109631306D01*
X88948059Y-109603716D01*
X88962991Y-109567668D01*
X88964912Y-109548159D01*
X88964912Y-108524147D01*
X89034685Y-108384600D01*
X89174234Y-108314825D01*
X89412733Y-108314825D01*
X89567579Y-108392248D01*
X89622055Y-108446724D01*
X89622055Y-109548159D01*
X89623976Y-109567668D01*
X89638908Y-109603716D01*
X89666498Y-109631306D01*
X89702546Y-109646238D01*
X89741564Y-109646238D01*
X89777612Y-109631306D01*
X89805202Y-109603716D01*
X89820134Y-109567668D01*
X89822055Y-109548159D01*
X89822055Y-109167206D01*
X90479198Y-109167206D01*
X90479198Y-109262444D01*
X90481119Y-109281953D01*
X90482494Y-109285273D01*
X90482749Y-109288857D01*
X90489755Y-109307165D01*
X90584993Y-109497643D01*
X90587047Y-109500907D01*
X90587560Y-109502444D01*
X90589219Y-109504358D01*
X90595436Y-109514233D01*
X90604908Y-109522448D01*
X90613124Y-109531921D01*
X90622997Y-109538135D01*
X90624913Y-109539797D01*
X90626451Y-109540309D01*
X90629715Y-109542364D01*
X90820191Y-109637602D01*
X90838499Y-109644608D01*
X90842082Y-109644862D01*
X90845403Y-109646238D01*
X90864912Y-109648159D01*
X91150626Y-109648159D01*
X91170135Y-109646238D01*
X91173455Y-109644862D01*
X91177039Y-109644608D01*
X91195347Y-109637602D01*
X91385825Y-109542364D01*
X91402415Y-109531921D01*
X91405252Y-109528650D01*
X91909691Y-109528650D01*
X91909691Y-109567668D01*
X91924623Y-109603716D01*
X91952213Y-109631306D01*
X91988261Y-109646238D01*
X92007770Y-109648159D01*
X92193484Y-109648159D01*
X92193484Y-110214825D01*
X92195405Y-110234334D01*
X92210337Y-110270382D01*
X92237927Y-110297972D01*
X92273975Y-110312904D01*
X92312993Y-110312904D01*
X92349041Y-110297972D01*
X92376631Y-110270382D01*
X92391563Y-110234334D01*
X92393484Y-110214825D01*
X92393484Y-109648159D01*
X92769674Y-109648159D01*
X92789183Y-109646238D01*
X92825231Y-109631306D01*
X92852821Y-109603716D01*
X92867753Y-109567668D01*
X92867753Y-109528650D01*
X92852821Y-109492602D01*
X92825231Y-109465012D01*
X92789183Y-109450080D01*
X92769674Y-109448159D01*
X92393484Y-109448159D01*
X92393484Y-108524147D01*
X92405287Y-108500540D01*
X93336341Y-108500540D01*
X93336341Y-109548159D01*
X93338262Y-109567668D01*
X93353194Y-109603716D01*
X93380784Y-109631306D01*
X93416832Y-109646238D01*
X93455850Y-109646238D01*
X93491898Y-109631306D01*
X93519488Y-109603716D01*
X93534420Y-109567668D01*
X93536341Y-109548159D01*
X93536341Y-108524147D01*
X93606114Y-108384600D01*
X93745663Y-108314825D01*
X93984162Y-108314825D01*
X94139008Y-108392248D01*
X94193484Y-108446724D01*
X94193484Y-109548159D01*
X94195405Y-109567668D01*
X94210337Y-109603716D01*
X94237927Y-109631306D01*
X94273975Y-109646238D01*
X94312993Y-109646238D01*
X94349041Y-109631306D01*
X94376631Y-109603716D01*
X94391563Y-109567668D01*
X94393484Y-109548159D01*
X94393484Y-109167206D01*
X95050627Y-109167206D01*
X95050627Y-109262444D01*
X95052548Y-109281953D01*
X95053923Y-109285273D01*
X95054178Y-109288857D01*
X95061184Y-109307165D01*
X95156422Y-109497643D01*
X95158476Y-109500907D01*
X95158989Y-109502444D01*
X95160648Y-109504358D01*
X95166865Y-109514233D01*
X95176337Y-109522448D01*
X95184553Y-109531921D01*
X95194426Y-109538135D01*
X95196342Y-109539797D01*
X95197880Y-109540309D01*
X95201144Y-109542364D01*
X95391620Y-109637602D01*
X95409928Y-109644608D01*
X95413511Y-109644862D01*
X95416832Y-109646238D01*
X95436341Y-109648159D01*
X95722055Y-109648159D01*
X95741564Y-109646238D01*
X95744884Y-109644862D01*
X95748468Y-109644608D01*
X95766776Y-109637602D01*
X95957254Y-109542364D01*
X95973844Y-109531921D01*
X95999408Y-109502444D01*
X96011747Y-109465428D01*
X96008982Y-109426508D01*
X95991532Y-109391609D01*
X95962056Y-109366045D01*
X95925040Y-109353706D01*
X95886120Y-109356472D01*
X95867811Y-109363478D01*
X95698448Y-109448159D01*
X95459949Y-109448159D01*
X95320400Y-109378385D01*
X95250627Y-109238837D01*
X95250627Y-109190813D01*
X95320400Y-109051265D01*
X95459949Y-108981492D01*
X95722055Y-108981492D01*
X95741564Y-108979571D01*
X95744884Y-108978195D01*
X95748468Y-108977941D01*
X95766776Y-108970935D01*
X95957254Y-108875697D01*
X95960518Y-108873642D01*
X95962055Y-108873130D01*
X95963969Y-108871470D01*
X95973844Y-108865254D01*
X95982059Y-108855781D01*
X95991532Y-108847566D01*
X95997746Y-108837692D01*
X95999408Y-108835777D01*
X95999920Y-108834238D01*
X96001975Y-108830975D01*
X96097213Y-108640499D01*
X96104219Y-108622191D01*
X96104473Y-108618607D01*
X96105849Y-108615287D01*
X96107770Y-108595778D01*
X96107770Y-108500540D01*
X96105849Y-108481031D01*
X96104473Y-108477710D01*
X96104219Y-108474127D01*
X96097213Y-108455819D01*
X96001975Y-108265343D01*
X95999920Y-108262079D01*
X95999408Y-108260541D01*
X95997746Y-108258625D01*
X95991532Y-108248752D01*
X95982059Y-108240536D01*
X95973844Y-108231064D01*
X95963969Y-108224847D01*
X95962055Y-108223188D01*
X95960518Y-108222675D01*
X95957254Y-108220621D01*
X95906644Y-108195316D01*
X98100168Y-108195316D01*
X98100168Y-108234334D01*
X98115100Y-108270382D01*
X98127536Y-108285536D01*
X99253701Y-109411701D01*
X99336342Y-109659624D01*
X99336342Y-109810265D01*
X99258918Y-109965112D01*
X99186629Y-110037402D01*
X99031783Y-110114825D01*
X98602807Y-110114825D01*
X98447959Y-110037401D01*
X98364196Y-109953638D01*
X98349042Y-109941202D01*
X98312994Y-109926270D01*
X98273976Y-109926270D01*
X98237928Y-109941202D01*
X98210338Y-109968792D01*
X98195406Y-110004840D01*
X98195406Y-110043858D01*
X98210338Y-110079906D01*
X98222774Y-110095060D01*
X98318012Y-110190298D01*
X98325678Y-110196589D01*
X98327411Y-110198587D01*
X98330422Y-110200482D01*
X98333166Y-110202734D01*
X98335603Y-110203743D01*
X98344002Y-110209030D01*
X98534478Y-110304268D01*
X98552786Y-110311274D01*
X98556369Y-110311528D01*
X98559690Y-110312904D01*
X98579199Y-110314825D01*
X99055390Y-110314825D01*
X99074899Y-110312904D01*
X99078219Y-110311528D01*
X99081803Y-110311274D01*
X99100111Y-110304268D01*
X99290588Y-110209030D01*
X99298986Y-110203743D01*
X99301423Y-110202734D01*
X99304166Y-110200482D01*
X99307178Y-110198587D01*
X99308910Y-110196589D01*
X99316577Y-110190298D01*
X99411815Y-110095060D01*
X99418106Y-110087393D01*
X99420104Y-110085661D01*
X99421999Y-110082649D01*
X99424251Y-110079906D01*
X99425260Y-110077468D01*
X99430547Y-110069070D01*
X99525785Y-109878594D01*
X99532791Y-109860286D01*
X99533045Y-109856702D01*
X99534421Y-109853382D01*
X99536342Y-109833873D01*
X99536342Y-109643397D01*
X99535369Y-109633523D01*
X99535557Y-109630890D01*
X99534769Y-109627426D01*
X99534421Y-109623888D01*
X99533409Y-109621445D01*
X99531210Y-109611774D01*
X99435972Y-109326060D01*
X99427981Y-109308160D01*
X99425627Y-109305446D01*
X99424252Y-109302126D01*
X99411815Y-109286973D01*
X99101573Y-108976730D01*
X100098247Y-108976730D01*
X100098247Y-109452921D01*
X100098582Y-109456323D01*
X100098365Y-109457782D01*
X100099444Y-109465079D01*
X100100168Y-109472430D01*
X100100732Y-109473793D01*
X100101233Y-109477175D01*
X100196471Y-109858126D01*
X100196984Y-109859563D01*
X100197036Y-109860286D01*
X100200144Y-109868410D01*
X100203066Y-109876587D01*
X100203496Y-109877167D01*
X100204042Y-109878594D01*
X100299280Y-110069071D01*
X100304566Y-110077469D01*
X100305576Y-110079906D01*
X100307827Y-110082649D01*
X100309723Y-110085661D01*
X100311720Y-110087393D01*
X100318012Y-110095060D01*
X100413250Y-110190298D01*
X100420916Y-110196589D01*
X100422649Y-110198587D01*
X100425660Y-110200482D01*
X100428404Y-110202734D01*
X100430841Y-110203743D01*
X100439240Y-110209030D01*
X100629716Y-110304268D01*
X100648024Y-110311274D01*
X100651607Y-110311528D01*
X100654928Y-110312904D01*
X100674437Y-110314825D01*
X100864914Y-110314825D01*
X100884423Y-110312904D01*
X100887743Y-110311528D01*
X100891327Y-110311274D01*
X100909635Y-110304268D01*
X101100112Y-110209030D01*
X101108510Y-110203743D01*
X101110947Y-110202734D01*
X101113690Y-110200482D01*
X101116702Y-110198587D01*
X101118434Y-110196589D01*
X101126101Y-110190298D01*
X101221339Y-110095060D01*
X101227630Y-110087393D01*
X101229628Y-110085661D01*
X101231523Y-110082649D01*
X101233775Y-110079906D01*
X101234784Y-110077468D01*
X101240071Y-110069070D01*
X101335309Y-109878594D01*
X101335854Y-109877167D01*
X101336285Y-109876587D01*
X101339208Y-109868404D01*
X101342315Y-109860286D01*
X101342366Y-109859565D01*
X101342880Y-109858127D01*
X101438118Y-109477175D01*
X101438618Y-109473793D01*
X101439183Y-109472430D01*
X101439906Y-109465079D01*
X101440986Y-109457782D01*
X101440768Y-109456323D01*
X101441104Y-109452921D01*
X101441104Y-108976730D01*
X101440768Y-108973327D01*
X101440986Y-108971869D01*
X101439906Y-108964571D01*
X101439183Y-108957221D01*
X101438618Y-108955857D01*
X101438118Y-108952476D01*
X101342880Y-108571524D01*
X101342366Y-108570085D01*
X101342315Y-108569365D01*
X101339208Y-108561246D01*
X101336285Y-108553064D01*
X101335854Y-108552483D01*
X101335309Y-108551057D01*
X101240071Y-108360581D01*
X101234784Y-108352182D01*
X101233775Y-108349745D01*
X101231523Y-108347001D01*
X101229628Y-108343990D01*
X101227630Y-108342257D01*
X101221339Y-108334591D01*
X101126101Y-108239353D01*
X101118434Y-108233061D01*
X101116702Y-108231064D01*
X101113690Y-108229168D01*
X101110947Y-108226917D01*
X101108510Y-108225907D01*
X101100112Y-108220621D01*
X101049503Y-108195316D01*
X101909692Y-108195316D01*
X101909692Y-108234334D01*
X101924624Y-108270382D01*
X101937060Y-108285536D01*
X103063225Y-109411701D01*
X103145866Y-109659624D01*
X103145866Y-109810265D01*
X103068442Y-109965112D01*
X102996153Y-110037402D01*
X102841307Y-110114825D01*
X102412331Y-110114825D01*
X102257483Y-110037401D01*
X102173720Y-109953638D01*
X102158566Y-109941202D01*
X102122518Y-109926270D01*
X102083500Y-109926270D01*
X102047452Y-109941202D01*
X102019862Y-109968792D01*
X102004930Y-110004840D01*
X102004930Y-110043858D01*
X102019862Y-110079906D01*
X102032298Y-110095060D01*
X102127536Y-110190298D01*
X102135202Y-110196589D01*
X102136935Y-110198587D01*
X102139946Y-110200482D01*
X102142690Y-110202734D01*
X102145127Y-110203743D01*
X102153526Y-110209030D01*
X102344002Y-110304268D01*
X102362310Y-110311274D01*
X102365893Y-110311528D01*
X102369214Y-110312904D01*
X102388723Y-110314825D01*
X102864914Y-110314825D01*
X102884423Y-110312904D01*
X102887743Y-110311528D01*
X102891327Y-110311274D01*
X102909635Y-110304268D01*
X103100112Y-110209030D01*
X103108510Y-110203743D01*
X103110947Y-110202734D01*
X103113690Y-110200482D01*
X103116702Y-110198587D01*
X103118434Y-110196589D01*
X103126101Y-110190298D01*
X103221339Y-110095060D01*
X103227630Y-110087393D01*
X103229628Y-110085661D01*
X103231523Y-110082649D01*
X103233775Y-110079906D01*
X103234784Y-110077468D01*
X103240071Y-110069070D01*
X103335309Y-109878594D01*
X103342315Y-109860286D01*
X103342569Y-109856702D01*
X103343945Y-109853382D01*
X103345866Y-109833873D01*
X103345866Y-109643397D01*
X103344893Y-109633523D01*
X103345081Y-109630890D01*
X103344293Y-109627426D01*
X103343945Y-109623888D01*
X103342933Y-109621445D01*
X103340734Y-109611774D01*
X103245496Y-109326060D01*
X103237505Y-109308160D01*
X103235151Y-109305446D01*
X103233776Y-109302126D01*
X103221339Y-109286973D01*
X103187157Y-109252791D01*
X103908238Y-109252791D01*
X103908267Y-109272394D01*
X104003505Y-110224775D01*
X104004930Y-110231883D01*
X104004930Y-110234334D01*
X104005881Y-110236631D01*
X104007358Y-110243996D01*
X104014267Y-110256876D01*
X104019862Y-110270382D01*
X104023422Y-110273942D01*
X104025803Y-110278380D01*
X104037115Y-110287635D01*
X104047452Y-110297972D01*
X104052104Y-110299899D01*
X104056001Y-110303087D01*
X104069990Y-110307307D01*
X104083500Y-110312904D01*
X104090977Y-110313640D01*
X104093356Y-110314358D01*
X104095792Y-110314114D01*
X104103009Y-110314825D01*
X105055390Y-110314825D01*
X105074899Y-110312904D01*
X105110947Y-110297972D01*
X105138537Y-110270382D01*
X105153469Y-110234334D01*
X105153469Y-110195316D01*
X105138537Y-110159268D01*
X105110947Y-110131678D01*
X105074899Y-110116746D01*
X105055390Y-110114825D01*
X104193508Y-110114825D01*
X104130340Y-109483152D01*
X104248764Y-109542364D01*
X104267072Y-109549370D01*
X104270655Y-109549624D01*
X104273976Y-109551000D01*
X104293485Y-109552921D01*
X104769676Y-109552921D01*
X104789185Y-109551000D01*
X104792505Y-109549624D01*
X104796089Y-109549370D01*
X104814397Y-109542364D01*
X105004874Y-109447126D01*
X105013271Y-109441840D01*
X105015710Y-109440830D01*
X105018454Y-109438577D01*
X105021464Y-109436683D01*
X105023196Y-109434685D01*
X105030863Y-109428393D01*
X105126101Y-109333154D01*
X105132393Y-109325487D01*
X105134390Y-109323756D01*
X105136283Y-109320748D01*
X105138538Y-109318001D01*
X105139549Y-109315559D01*
X105144833Y-109307165D01*
X105240071Y-109116689D01*
X105247077Y-109098381D01*
X105247331Y-109094797D01*
X105248707Y-109091477D01*
X105250628Y-109071968D01*
X105250628Y-108595778D01*
X105248707Y-108576269D01*
X105247331Y-108572948D01*
X105247077Y-108569365D01*
X105240071Y-108551057D01*
X105144833Y-108360581D01*
X105139546Y-108352182D01*
X105138537Y-108349745D01*
X105136285Y-108347001D01*
X105134390Y-108343990D01*
X105132392Y-108342257D01*
X105126101Y-108334591D01*
X105030863Y-108239353D01*
X105023196Y-108233061D01*
X105021464Y-108231064D01*
X105018452Y-108229168D01*
X105015709Y-108226917D01*
X105013272Y-108225907D01*
X105004874Y-108220621D01*
X104814398Y-108125382D01*
X104796089Y-108118376D01*
X104792505Y-108118121D01*
X104789185Y-108116746D01*
X104769676Y-108114825D01*
X104293485Y-108114825D01*
X104273976Y-108116746D01*
X104270655Y-108118121D01*
X104267072Y-108118376D01*
X104248763Y-108125383D01*
X104058287Y-108220621D01*
X104049888Y-108225907D01*
X104047452Y-108226917D01*
X104044708Y-108229168D01*
X104041697Y-108231064D01*
X104039964Y-108233061D01*
X104032298Y-108239353D01*
X103937060Y-108334591D01*
X103924624Y-108349745D01*
X103909692Y-108385793D01*
X103909692Y-108424811D01*
X103924624Y-108460859D01*
X103952214Y-108488449D01*
X103988262Y-108503381D01*
X104027280Y-108503381D01*
X104063328Y-108488449D01*
X104078482Y-108476013D01*
X104162245Y-108392249D01*
X104317093Y-108314825D01*
X104746068Y-108314825D01*
X104900914Y-108392248D01*
X104973204Y-108464538D01*
X105050628Y-108619385D01*
X105050628Y-109048360D01*
X104973204Y-109203207D01*
X104900916Y-109275497D01*
X104746069Y-109352921D01*
X104317093Y-109352921D01*
X104162244Y-109275497D01*
X104078482Y-109191734D01*
X104063329Y-109179297D01*
X104058674Y-109177369D01*
X104054779Y-109174182D01*
X104040787Y-109169960D01*
X104027281Y-109164366D01*
X104022245Y-109164365D01*
X104017424Y-109162911D01*
X104002878Y-109164365D01*
X103988262Y-109164365D01*
X103983609Y-109166292D01*
X103978600Y-109166793D01*
X103965724Y-109173700D01*
X103952214Y-109179296D01*
X103948651Y-109182858D01*
X103944216Y-109185238D01*
X103934964Y-109196545D01*
X103924624Y-109206886D01*
X103922696Y-109211540D01*
X103919509Y-109215436D01*
X103915287Y-109229427D01*
X103909693Y-109242934D01*
X103909692Y-109247969D01*
X103908238Y-109252791D01*
X103187157Y-109252791D01*
X102249193Y-108314825D01*
X103245866Y-108314825D01*
X103265375Y-108312904D01*
X103301423Y-108297972D01*
X103329013Y-108270382D01*
X103343945Y-108234334D01*
X103343945Y-108195316D01*
X103329013Y-108159268D01*
X103301423Y-108131678D01*
X103265375Y-108116746D01*
X103245866Y-108114825D01*
X102007771Y-108114825D01*
X101988262Y-108116746D01*
X101952214Y-108131678D01*
X101924624Y-108159268D01*
X101909692Y-108195316D01*
X101049503Y-108195316D01*
X100909636Y-108125382D01*
X100891327Y-108118376D01*
X100887743Y-108118121D01*
X100884423Y-108116746D01*
X100864914Y-108114825D01*
X100674437Y-108114825D01*
X100654928Y-108116746D01*
X100651607Y-108118121D01*
X100648024Y-108118376D01*
X100629715Y-108125383D01*
X100439239Y-108220621D01*
X100430840Y-108225907D01*
X100428404Y-108226917D01*
X100425660Y-108229168D01*
X100422649Y-108231064D01*
X100420916Y-108233061D01*
X100413250Y-108239353D01*
X100318012Y-108334591D01*
X100311720Y-108342257D01*
X100309723Y-108343990D01*
X100307827Y-108347001D01*
X100305576Y-108349745D01*
X100304566Y-108352181D01*
X100299280Y-108360580D01*
X100204042Y-108551057D01*
X100203496Y-108552483D01*
X100203066Y-108553064D01*
X100200144Y-108561240D01*
X100197036Y-108569365D01*
X100196984Y-108570087D01*
X100196471Y-108571525D01*
X100101233Y-108952476D01*
X100100732Y-108955857D01*
X100100168Y-108957221D01*
X100099444Y-108964571D01*
X100098365Y-108971869D01*
X100098582Y-108973327D01*
X100098247Y-108976730D01*
X99101573Y-108976730D01*
X98439669Y-108314825D01*
X99436342Y-108314825D01*
X99455851Y-108312904D01*
X99491899Y-108297972D01*
X99519489Y-108270382D01*
X99534421Y-108234334D01*
X99534421Y-108195316D01*
X99519489Y-108159268D01*
X99491899Y-108131678D01*
X99455851Y-108116746D01*
X99436342Y-108114825D01*
X98198247Y-108114825D01*
X98178738Y-108116746D01*
X98142690Y-108131678D01*
X98115100Y-108159268D01*
X98100168Y-108195316D01*
X95906644Y-108195316D01*
X95766777Y-108125382D01*
X95748468Y-108118376D01*
X95744884Y-108118121D01*
X95741564Y-108116746D01*
X95722055Y-108114825D01*
X95341103Y-108114825D01*
X95321594Y-108116746D01*
X95318273Y-108118121D01*
X95314690Y-108118376D01*
X95296381Y-108125383D01*
X95105905Y-108220621D01*
X95089315Y-108231064D01*
X95063751Y-108260541D01*
X95051412Y-108297557D01*
X95054178Y-108336477D01*
X95071627Y-108371376D01*
X95101104Y-108396940D01*
X95138120Y-108409279D01*
X95177040Y-108406513D01*
X95195349Y-108399507D01*
X95364711Y-108314825D01*
X95698447Y-108314825D01*
X95837996Y-108384600D01*
X95907770Y-108524147D01*
X95907770Y-108572170D01*
X95837996Y-108711718D01*
X95698448Y-108781492D01*
X95436341Y-108781492D01*
X95416832Y-108783413D01*
X95413511Y-108784788D01*
X95409928Y-108785043D01*
X95391620Y-108792049D01*
X95201144Y-108887287D01*
X95197880Y-108889341D01*
X95196342Y-108889854D01*
X95194426Y-108891515D01*
X95184553Y-108897730D01*
X95176337Y-108907202D01*
X95166865Y-108915418D01*
X95160648Y-108925292D01*
X95158989Y-108927207D01*
X95158476Y-108928743D01*
X95156422Y-108932008D01*
X95061184Y-109122485D01*
X95054178Y-109140793D01*
X95053923Y-109144376D01*
X95052548Y-109147697D01*
X95050627Y-109167206D01*
X94393484Y-109167206D01*
X94393484Y-108214825D01*
X94391563Y-108195316D01*
X94376631Y-108159268D01*
X94349041Y-108131678D01*
X94312993Y-108116746D01*
X94273975Y-108116746D01*
X94237927Y-108131678D01*
X94210337Y-108159268D01*
X94195405Y-108195316D01*
X94195262Y-108196767D01*
X94052492Y-108125382D01*
X94034183Y-108118376D01*
X94030599Y-108118121D01*
X94027279Y-108116746D01*
X94007770Y-108114825D01*
X93722055Y-108114825D01*
X93702546Y-108116746D01*
X93699225Y-108118121D01*
X93695642Y-108118376D01*
X93677333Y-108125383D01*
X93486857Y-108220621D01*
X93483592Y-108222675D01*
X93482056Y-108223188D01*
X93480141Y-108224847D01*
X93470267Y-108231064D01*
X93462051Y-108240536D01*
X93452579Y-108248752D01*
X93446362Y-108258626D01*
X93444703Y-108260541D01*
X93444190Y-108262077D01*
X93442136Y-108265342D01*
X93346898Y-108455819D01*
X93339892Y-108474127D01*
X93339637Y-108477710D01*
X93338262Y-108481031D01*
X93336341Y-108500540D01*
X92405287Y-108500540D01*
X92463257Y-108384600D01*
X92602806Y-108314825D01*
X92769674Y-108314825D01*
X92789183Y-108312904D01*
X92825231Y-108297972D01*
X92852821Y-108270382D01*
X92867753Y-108234334D01*
X92867753Y-108195316D01*
X92852821Y-108159268D01*
X92825231Y-108131678D01*
X92789183Y-108116746D01*
X92769674Y-108114825D01*
X92579198Y-108114825D01*
X92559689Y-108116746D01*
X92556368Y-108118121D01*
X92552785Y-108118376D01*
X92534476Y-108125383D01*
X92344000Y-108220621D01*
X92340735Y-108222675D01*
X92339199Y-108223188D01*
X92337284Y-108224847D01*
X92327410Y-108231064D01*
X92319194Y-108240536D01*
X92309722Y-108248752D01*
X92303505Y-108258626D01*
X92301846Y-108260541D01*
X92301333Y-108262077D01*
X92299279Y-108265342D01*
X92204041Y-108455819D01*
X92197035Y-108474127D01*
X92196780Y-108477710D01*
X92195405Y-108481031D01*
X92193484Y-108500540D01*
X92193484Y-109448159D01*
X92007770Y-109448159D01*
X91988261Y-109450080D01*
X91952213Y-109465012D01*
X91924623Y-109492602D01*
X91909691Y-109528650D01*
X91405252Y-109528650D01*
X91427979Y-109502444D01*
X91440318Y-109465428D01*
X91437553Y-109426508D01*
X91420103Y-109391609D01*
X91390627Y-109366045D01*
X91353611Y-109353706D01*
X91314691Y-109356472D01*
X91296382Y-109363478D01*
X91127019Y-109448159D01*
X90888520Y-109448159D01*
X90748971Y-109378385D01*
X90679198Y-109238837D01*
X90679198Y-109190813D01*
X90748971Y-109051265D01*
X90888520Y-108981492D01*
X91150626Y-108981492D01*
X91170135Y-108979571D01*
X91173455Y-108978195D01*
X91177039Y-108977941D01*
X91195347Y-108970935D01*
X91385825Y-108875697D01*
X91389089Y-108873642D01*
X91390626Y-108873130D01*
X91392540Y-108871470D01*
X91402415Y-108865254D01*
X91410630Y-108855781D01*
X91420103Y-108847566D01*
X91426317Y-108837692D01*
X91427979Y-108835777D01*
X91428491Y-108834238D01*
X91430546Y-108830975D01*
X91525784Y-108640499D01*
X91532790Y-108622191D01*
X91533044Y-108618607D01*
X91534420Y-108615287D01*
X91536341Y-108595778D01*
X91536341Y-108500540D01*
X91534420Y-108481031D01*
X91533044Y-108477710D01*
X91532790Y-108474127D01*
X91525784Y-108455819D01*
X91430546Y-108265343D01*
X91428491Y-108262079D01*
X91427979Y-108260541D01*
X91426317Y-108258625D01*
X91420103Y-108248752D01*
X91410630Y-108240536D01*
X91402415Y-108231064D01*
X91392540Y-108224847D01*
X91390626Y-108223188D01*
X91389089Y-108222675D01*
X91385825Y-108220621D01*
X91195348Y-108125382D01*
X91177039Y-108118376D01*
X91173455Y-108118121D01*
X91170135Y-108116746D01*
X91150626Y-108114825D01*
X90769674Y-108114825D01*
X90750165Y-108116746D01*
X90746844Y-108118121D01*
X90743261Y-108118376D01*
X90724952Y-108125383D01*
X90534476Y-108220621D01*
X90517886Y-108231064D01*
X90492322Y-108260541D01*
X90479983Y-108297557D01*
X90482749Y-108336477D01*
X90500198Y-108371376D01*
X90529675Y-108396940D01*
X90566691Y-108409279D01*
X90605611Y-108406513D01*
X90623920Y-108399507D01*
X90793282Y-108314825D01*
X91127018Y-108314825D01*
X91266567Y-108384600D01*
X91336341Y-108524147D01*
X91336341Y-108572170D01*
X91266567Y-108711718D01*
X91127019Y-108781492D01*
X90864912Y-108781492D01*
X90845403Y-108783413D01*
X90842082Y-108784788D01*
X90838499Y-108785043D01*
X90820191Y-108792049D01*
X90629715Y-108887287D01*
X90626451Y-108889341D01*
X90624913Y-108889854D01*
X90622997Y-108891515D01*
X90613124Y-108897730D01*
X90604908Y-108907202D01*
X90595436Y-108915418D01*
X90589219Y-108925292D01*
X90587560Y-108927207D01*
X90587047Y-108928743D01*
X90584993Y-108932008D01*
X90489755Y-109122485D01*
X90482749Y-109140793D01*
X90482494Y-109144376D01*
X90481119Y-109147697D01*
X90479198Y-109167206D01*
X89822055Y-109167206D01*
X89822055Y-108214825D01*
X89820134Y-108195316D01*
X89805202Y-108159268D01*
X89777612Y-108131678D01*
X89741564Y-108116746D01*
X89702546Y-108116746D01*
X89666498Y-108131678D01*
X89638908Y-108159268D01*
X89623976Y-108195316D01*
X89623833Y-108196767D01*
X89481063Y-108125382D01*
X89462754Y-108118376D01*
X89459170Y-108118121D01*
X89455850Y-108116746D01*
X89436341Y-108114825D01*
X89150626Y-108114825D01*
X89131117Y-108116746D01*
X89127796Y-108118121D01*
X89124213Y-108118376D01*
X89105904Y-108125383D01*
X88915428Y-108220621D01*
X88912163Y-108222675D01*
X88910627Y-108223188D01*
X88908712Y-108224847D01*
X88898838Y-108231064D01*
X88890622Y-108240536D01*
X88881150Y-108248752D01*
X88874933Y-108258626D01*
X88873274Y-108260541D01*
X88872761Y-108262077D01*
X88870707Y-108265342D01*
X88775469Y-108455819D01*
X88768463Y-108474127D01*
X88768208Y-108477710D01*
X88766833Y-108481031D01*
X88764912Y-108500540D01*
X88012531Y-108500540D01*
X88012531Y-107929111D01*
X88010610Y-107909602D01*
X88009234Y-107906281D01*
X88008980Y-107902698D01*
X88001974Y-107884390D01*
X87906736Y-107693914D01*
X87901449Y-107685515D01*
X87900440Y-107683078D01*
X87898188Y-107680334D01*
X87896293Y-107677323D01*
X87894295Y-107675590D01*
X87888004Y-107667924D01*
X87792766Y-107572686D01*
X87785099Y-107566394D01*
X87783367Y-107564397D01*
X87780355Y-107562501D01*
X87777612Y-107560250D01*
X87775175Y-107559240D01*
X87766777Y-107553954D01*
X87576299Y-107458716D01*
X87557991Y-107451710D01*
X87554407Y-107451455D01*
X87551087Y-107450080D01*
X87531578Y-107448159D01*
X87245864Y-107448159D01*
X87226355Y-107450080D01*
X87223034Y-107451455D01*
X87219451Y-107451710D01*
X87201143Y-107458716D01*
X87010667Y-107553954D01*
X86994076Y-107564397D01*
X86968512Y-107593874D01*
X86956173Y-107630890D01*
X86958939Y-107669810D01*
X86976388Y-107704709D01*
X87005865Y-107730273D01*
X87042881Y-107742612D01*
X87081801Y-107739846D01*
X87100109Y-107732840D01*
X87269472Y-107648159D01*
X87507971Y-107648159D01*
X87662818Y-107725582D01*
X87735107Y-107797871D01*
X87812531Y-107952718D01*
X87812531Y-108148259D01*
X87766777Y-108125382D01*
X87748468Y-108118376D01*
X87744884Y-108118121D01*
X87741564Y-108116746D01*
X87722055Y-108114825D01*
X87341102Y-108114825D01*
X87321593Y-108116746D01*
X87318272Y-108118121D01*
X87314689Y-108118376D01*
X87296380Y-108125383D01*
X87105904Y-108220621D01*
X87097505Y-108225907D01*
X87095069Y-108226917D01*
X87092325Y-108229168D01*
X87089314Y-108231064D01*
X87087581Y-108233061D01*
X87079915Y-108239353D01*
X86984677Y-108334591D01*
X86978385Y-108342257D01*
X86976388Y-108343990D01*
X86974492Y-108347001D01*
X86972241Y-108349745D01*
X86971231Y-108352181D01*
X86965945Y-108360580D01*
X86870707Y-108551057D01*
X86863701Y-108569365D01*
X86863446Y-108572948D01*
X86862071Y-108576269D01*
X86860150Y-108595778D01*
X86203007Y-108595778D01*
X86203007Y-108214825D01*
X86201086Y-108195316D01*
X86186154Y-108159268D01*
X86158564Y-108131678D01*
X86122516Y-108116746D01*
X86083498Y-108116746D01*
X86047450Y-108131678D01*
X86019860Y-108159268D01*
X86004928Y-108195316D01*
X86004785Y-108196767D01*
X85862015Y-108125382D01*
X85843706Y-108118376D01*
X85840122Y-108118121D01*
X85836802Y-108116746D01*
X85817293Y-108114825D01*
X85531578Y-108114825D01*
X85512069Y-108116746D01*
X85508748Y-108118121D01*
X85505165Y-108118376D01*
X85486856Y-108125383D01*
X85296380Y-108220621D01*
X85293115Y-108222675D01*
X85291579Y-108223188D01*
X85289664Y-108224847D01*
X85279790Y-108231064D01*
X85271574Y-108240536D01*
X85262102Y-108248752D01*
X85255885Y-108258626D01*
X85254226Y-108260541D01*
X85253713Y-108262077D01*
X85251659Y-108265342D01*
X85156421Y-108455819D01*
X85149415Y-108474127D01*
X85149160Y-108477710D01*
X85147785Y-108481031D01*
X85145864Y-108500540D01*
X84393483Y-108500540D01*
X84393483Y-108214825D01*
X84391562Y-108195316D01*
X84376630Y-108159268D01*
X84349040Y-108131678D01*
X84312992Y-108116746D01*
X84273974Y-108116746D01*
X84237926Y-108131678D01*
X84212057Y-108157546D01*
X84147729Y-108125382D01*
X84129420Y-108118376D01*
X84125836Y-108118121D01*
X84122516Y-108116746D01*
X84103007Y-108114825D01*
X83626816Y-108114825D01*
X83607307Y-108116746D01*
X83603986Y-108118121D01*
X83600403Y-108118376D01*
X83582094Y-108125383D01*
X83391618Y-108220621D01*
X83388353Y-108222675D01*
X83386817Y-108223188D01*
X83384902Y-108224847D01*
X83375028Y-108231064D01*
X83366812Y-108240536D01*
X83357340Y-108248752D01*
X83351123Y-108258626D01*
X83349464Y-108260541D01*
X83348951Y-108262077D01*
X83346897Y-108265342D01*
X83251659Y-108455819D01*
X83244653Y-108474127D01*
X83244398Y-108477710D01*
X83243023Y-108481031D01*
X83241102Y-108500540D01*
X81119571Y-108500540D01*
X81049592Y-108360581D01*
X81044305Y-108352182D01*
X81043296Y-108349745D01*
X81041044Y-108347001D01*
X81039149Y-108343990D01*
X81037151Y-108342257D01*
X81030860Y-108334591D01*
X80935622Y-108239353D01*
X80927955Y-108233061D01*
X80926223Y-108231064D01*
X80923211Y-108229168D01*
X80920468Y-108226917D01*
X80918031Y-108225907D01*
X80909633Y-108220621D01*
X80719157Y-108125382D01*
X80700848Y-108118376D01*
X80697264Y-108118121D01*
X80693944Y-108116746D01*
X80674435Y-108114825D01*
X80293482Y-108114825D01*
X80273973Y-108116746D01*
X80270652Y-108118121D01*
X80267069Y-108118376D01*
X80248760Y-108125383D01*
X80058284Y-108220621D01*
X80049885Y-108225907D01*
X80047449Y-108226917D01*
X80044705Y-108229168D01*
X80041694Y-108231064D01*
X80039961Y-108233061D01*
X80032295Y-108239353D01*
X79937057Y-108334591D01*
X79930765Y-108342257D01*
X79928768Y-108343990D01*
X79926872Y-108347001D01*
X79924621Y-108349745D01*
X79923611Y-108352181D01*
X79918325Y-108360580D01*
X79823087Y-108551057D01*
X79816081Y-108569365D01*
X79815826Y-108572948D01*
X79814451Y-108576269D01*
X79812530Y-108595778D01*
X79590308Y-108595778D01*
X79590308Y-105852080D01*
X79812530Y-105852080D01*
X79812530Y-106137795D01*
X79812865Y-106141197D01*
X79812648Y-106142656D01*
X79813727Y-106149953D01*
X79814451Y-106157304D01*
X79815015Y-106158667D01*
X79815516Y-106162049D01*
X79910754Y-106543000D01*
X79911267Y-106544437D01*
X79911319Y-106545160D01*
X79914427Y-106553284D01*
X79917349Y-106561461D01*
X79917779Y-106562041D01*
X79918325Y-106563468D01*
X80013563Y-106753945D01*
X80018849Y-106762343D01*
X80019859Y-106764780D01*
X80022110Y-106767523D01*
X80024006Y-106770535D01*
X80026003Y-106772267D01*
X80032295Y-106779934D01*
X80222772Y-106970410D01*
X80237925Y-106982846D01*
X80241243Y-106984220D01*
X80243959Y-106986576D01*
X80261859Y-106994567D01*
X80547574Y-107089805D01*
X80557245Y-107092004D01*
X80559688Y-107093016D01*
X80563226Y-107093364D01*
X80566690Y-107094152D01*
X80569323Y-107093964D01*
X80579197Y-107094937D01*
X80769673Y-107094937D01*
X80779546Y-107093964D01*
X80782180Y-107094152D01*
X80785643Y-107093364D01*
X80789182Y-107093016D01*
X80791624Y-107092004D01*
X80801296Y-107089805D01*
X81087010Y-106994567D01*
X81104910Y-106986576D01*
X81107625Y-106984220D01*
X81110944Y-106982846D01*
X81126098Y-106970410D01*
X81221336Y-106875172D01*
X81233772Y-106860018D01*
X81248704Y-106823970D01*
X81248704Y-106784952D01*
X81233772Y-106748904D01*
X81206182Y-106721314D01*
X81170134Y-106706382D01*
X81131116Y-106706382D01*
X81095068Y-106721314D01*
X81079914Y-106733750D01*
X81001367Y-106812296D01*
X80753446Y-106894937D01*
X80595424Y-106894937D01*
X80347500Y-106812296D01*
X80185191Y-106649986D01*
X80102119Y-106483843D01*
X80012530Y-106125485D01*
X80012530Y-105864390D01*
X80102119Y-105506032D01*
X80185191Y-105339888D01*
X80347500Y-105177578D01*
X80595424Y-105094937D01*
X80753446Y-105094937D01*
X81001367Y-105177578D01*
X81079914Y-105256125D01*
X81095068Y-105268561D01*
X81131116Y-105283493D01*
X81170134Y-105283493D01*
X81206182Y-105268561D01*
X81233772Y-105240971D01*
X81248704Y-105204923D01*
X81248704Y-105165905D01*
X81233772Y-105129857D01*
X81221336Y-105114703D01*
X81126098Y-105019465D01*
X81110944Y-105007029D01*
X81107625Y-105005654D01*
X81104910Y-105003299D01*
X81087010Y-104995308D01*
X81085897Y-104994937D01*
X81907768Y-104994937D01*
X81907768Y-106994937D01*
X81909689Y-107014446D01*
X81924621Y-107050494D01*
X81952211Y-107078084D01*
X81988259Y-107093016D01*
X82007768Y-107094937D01*
X82769673Y-107094937D01*
X82789182Y-107093016D01*
X82792502Y-107091640D01*
X82796086Y-107091386D01*
X82814394Y-107084380D01*
X83004871Y-106989142D01*
X83013269Y-106983855D01*
X83015706Y-106982846D01*
X83018449Y-106980594D01*
X83021461Y-106978699D01*
X83023193Y-106976701D01*
X83024744Y-106975428D01*
X83719213Y-106975428D01*
X83719213Y-107014446D01*
X83734145Y-107050494D01*
X83761735Y-107078084D01*
X83797783Y-107093016D01*
X83817292Y-107094937D01*
X85150625Y-107094937D01*
X85170134Y-107093016D01*
X85170707Y-107092778D01*
X85171329Y-107092771D01*
X85188750Y-107085304D01*
X85206182Y-107078084D01*
X85206619Y-107077646D01*
X85207192Y-107077401D01*
X85220413Y-107063852D01*
X85233772Y-107050494D01*
X85234009Y-107049919D01*
X85234443Y-107049476D01*
X85241456Y-107031943D01*
X85248704Y-107014446D01*
X85248704Y-107013823D01*
X85248934Y-107013249D01*
X85248704Y-106994357D01*
X85248704Y-106975428D01*
X85248466Y-106974854D01*
X85248459Y-106974233D01*
X85242539Y-106955545D01*
X84728810Y-105756842D01*
X85717292Y-105756842D01*
X85717292Y-106233033D01*
X85717627Y-106236435D01*
X85717410Y-106237894D01*
X85718489Y-106245191D01*
X85719213Y-106252542D01*
X85719777Y-106253905D01*
X85720278Y-106257287D01*
X85815516Y-106638238D01*
X85816029Y-106639675D01*
X85816081Y-106640398D01*
X85819189Y-106648522D01*
X85822111Y-106656699D01*
X85822541Y-106657279D01*
X85823087Y-106658706D01*
X85918325Y-106849183D01*
X85923611Y-106857581D01*
X85924621Y-106860018D01*
X85926872Y-106862761D01*
X85928768Y-106865773D01*
X85930765Y-106867505D01*
X85937057Y-106875172D01*
X86032295Y-106970410D01*
X86039961Y-106976701D01*
X86041694Y-106978699D01*
X86044705Y-106980594D01*
X86047449Y-106982846D01*
X86049886Y-106983855D01*
X86058285Y-106989142D01*
X86248761Y-107084380D01*
X86267069Y-107091386D01*
X86270652Y-107091640D01*
X86273973Y-107093016D01*
X86293482Y-107094937D01*
X86483959Y-107094937D01*
X86503468Y-107093016D01*
X86506788Y-107091640D01*
X86510372Y-107091386D01*
X86528680Y-107084380D01*
X86719157Y-106989142D01*
X86727555Y-106983855D01*
X86729992Y-106982846D01*
X86732735Y-106980594D01*
X86735747Y-106978699D01*
X86737479Y-106976701D01*
X86739030Y-106975428D01*
X89052547Y-106975428D01*
X89052547Y-107014446D01*
X89067479Y-107050494D01*
X89095069Y-107078084D01*
X89131117Y-107093016D01*
X89150626Y-107094937D01*
X90483959Y-107094937D01*
X90503468Y-107093016D01*
X90504041Y-107092778D01*
X90504663Y-107092771D01*
X90522084Y-107085304D01*
X90539516Y-107078084D01*
X90539953Y-107077646D01*
X90540526Y-107077401D01*
X90553747Y-107063852D01*
X90567106Y-107050494D01*
X90567343Y-107049919D01*
X90567777Y-107049476D01*
X90574790Y-107031943D01*
X90582038Y-107014446D01*
X90582038Y-107013823D01*
X90582268Y-107013249D01*
X90582038Y-106994357D01*
X90582038Y-106975428D01*
X90581800Y-106974854D01*
X90581793Y-106974233D01*
X90575873Y-106955545D01*
X89727252Y-104975428D01*
X90957309Y-104975428D01*
X90957309Y-105014446D01*
X90972241Y-105050494D01*
X90984677Y-105065648D01*
X92110842Y-106191813D01*
X92193483Y-106439736D01*
X92193483Y-106590377D01*
X92116059Y-106745224D01*
X92043770Y-106817514D01*
X91888924Y-106894937D01*
X91459948Y-106894937D01*
X91305100Y-106817513D01*
X91221337Y-106733750D01*
X91206183Y-106721314D01*
X91170135Y-106706382D01*
X91131117Y-106706382D01*
X91095069Y-106721314D01*
X91067479Y-106748904D01*
X91052547Y-106784952D01*
X91052547Y-106823970D01*
X91067479Y-106860018D01*
X91079915Y-106875172D01*
X91175153Y-106970410D01*
X91182819Y-106976701D01*
X91184552Y-106978699D01*
X91187563Y-106980594D01*
X91190307Y-106982846D01*
X91192744Y-106983855D01*
X91201143Y-106989142D01*
X91391619Y-107084380D01*
X91409927Y-107091386D01*
X91413510Y-107091640D01*
X91416831Y-107093016D01*
X91436340Y-107094937D01*
X91912531Y-107094937D01*
X91932040Y-107093016D01*
X91935360Y-107091640D01*
X91938944Y-107091386D01*
X91957252Y-107084380D01*
X92147729Y-106989142D01*
X92156127Y-106983855D01*
X92158564Y-106982846D01*
X92161307Y-106980594D01*
X92164319Y-106978699D01*
X92166051Y-106976701D01*
X92173718Y-106970410D01*
X92268956Y-106875172D01*
X92275247Y-106867505D01*
X92277245Y-106865773D01*
X92279140Y-106862761D01*
X92281392Y-106860018D01*
X92282401Y-106857580D01*
X92287688Y-106849182D01*
X92382926Y-106658706D01*
X92389932Y-106640398D01*
X92390186Y-106636814D01*
X92391562Y-106633494D01*
X92393483Y-106613985D01*
X92393483Y-106423509D01*
X92392510Y-106413635D01*
X92392698Y-106411002D01*
X92391910Y-106407538D01*
X92391562Y-106404000D01*
X92390550Y-106401557D01*
X92388351Y-106391886D01*
X92293113Y-106106172D01*
X92285122Y-106088272D01*
X92282768Y-106085558D01*
X92281393Y-106082238D01*
X92268956Y-106067085D01*
X91577762Y-105375890D01*
X94479198Y-105375890D01*
X94479198Y-105947318D01*
X94481119Y-105966827D01*
X94482494Y-105970147D01*
X94482749Y-105973731D01*
X94489755Y-105992039D01*
X94584993Y-106182517D01*
X94590279Y-106190915D01*
X94591289Y-106193352D01*
X94593540Y-106196095D01*
X94595436Y-106199107D01*
X94597433Y-106200839D01*
X94603725Y-106208506D01*
X94698963Y-106303744D01*
X94706629Y-106310035D01*
X94708362Y-106312033D01*
X94711373Y-106313928D01*
X94714117Y-106316180D01*
X94716554Y-106317189D01*
X94724953Y-106322476D01*
X94915429Y-106417714D01*
X94933737Y-106424720D01*
X94937320Y-106424974D01*
X94940641Y-106426350D01*
X94960150Y-106428271D01*
X95341103Y-106428271D01*
X95360612Y-106426350D01*
X95363932Y-106424974D01*
X95367516Y-106424720D01*
X95385824Y-106417714D01*
X95576301Y-106322476D01*
X95592891Y-106312033D01*
X95618455Y-106282556D01*
X95630794Y-106245540D01*
X95628029Y-106206620D01*
X95610579Y-106171721D01*
X95581102Y-106146157D01*
X95544087Y-106133818D01*
X95505166Y-106136584D01*
X95486858Y-106143590D01*
X95317496Y-106228271D01*
X94983758Y-106228271D01*
X94828910Y-106150847D01*
X94756621Y-106078558D01*
X94679198Y-105923711D01*
X94679198Y-105399497D01*
X94756621Y-105244651D01*
X94828910Y-105172361D01*
X94983758Y-105094937D01*
X95317495Y-105094937D01*
X95486857Y-105179618D01*
X95505166Y-105186625D01*
X95544086Y-105189391D01*
X95581102Y-105177052D01*
X95610578Y-105151488D01*
X95628028Y-105116589D01*
X95630794Y-105077669D01*
X95618455Y-105040653D01*
X95592891Y-105011176D01*
X95576301Y-105000733D01*
X95564709Y-104994937D01*
X96288722Y-104994937D01*
X96288722Y-106994937D01*
X96290643Y-107014446D01*
X96305575Y-107050494D01*
X96333165Y-107078084D01*
X96369213Y-107093016D01*
X96408231Y-107093016D01*
X96444279Y-107078084D01*
X96471869Y-107050494D01*
X96486801Y-107014446D01*
X96488722Y-106994937D01*
X96488722Y-106347217D01*
X96629715Y-106417714D01*
X96648023Y-106424720D01*
X96651606Y-106424974D01*
X96654927Y-106426350D01*
X96674436Y-106428271D01*
X96960151Y-106428271D01*
X96979660Y-106426350D01*
X96982980Y-106424974D01*
X96986564Y-106424720D01*
X97004872Y-106417714D01*
X97195349Y-106322476D01*
X97198613Y-106320421D01*
X97200150Y-106319909D01*
X97202063Y-106318249D01*
X97211939Y-106312033D01*
X97220156Y-106302557D01*
X97229627Y-106294344D01*
X97235840Y-106284472D01*
X97237503Y-106282556D01*
X97238016Y-106281017D01*
X97240070Y-106277754D01*
X97335308Y-106087277D01*
X97342314Y-106068968D01*
X97342568Y-106065385D01*
X97343944Y-106062065D01*
X97345865Y-106042556D01*
X97345865Y-105280652D01*
X98003008Y-105280652D01*
X98003008Y-105471128D01*
X98004929Y-105490637D01*
X98006304Y-105493957D01*
X98006559Y-105497541D01*
X98013565Y-105515849D01*
X98108803Y-105706326D01*
X98110857Y-105709590D01*
X98111370Y-105711127D01*
X98113029Y-105713041D01*
X98119246Y-105722916D01*
X98128718Y-105731131D01*
X98136934Y-105740604D01*
X98146807Y-105746818D01*
X98148723Y-105748480D01*
X98150261Y-105748992D01*
X98153525Y-105751047D01*
X98344001Y-105846285D01*
X98362309Y-105853291D01*
X98365892Y-105853545D01*
X98369213Y-105854921D01*
X98388722Y-105856842D01*
X98841306Y-105856842D01*
X98955389Y-105913883D01*
X98955389Y-106018948D01*
X98885615Y-106158497D01*
X98746068Y-106228271D01*
X98412330Y-106228271D01*
X98242967Y-106143590D01*
X98224659Y-106136584D01*
X98185739Y-106133818D01*
X98148723Y-106146157D01*
X98119246Y-106171721D01*
X98101797Y-106206620D01*
X98099031Y-106245540D01*
X98111370Y-106282556D01*
X98136934Y-106312033D01*
X98153525Y-106322476D01*
X98344001Y-106417714D01*
X98362309Y-106424720D01*
X98365892Y-106424974D01*
X98369213Y-106426350D01*
X98388722Y-106428271D01*
X98769675Y-106428271D01*
X98789184Y-106426350D01*
X98792504Y-106424974D01*
X98796088Y-106424720D01*
X98814396Y-106417714D01*
X99004873Y-106322476D01*
X99008137Y-106320421D01*
X99009674Y-106319909D01*
X99011587Y-106318249D01*
X99021463Y-106312033D01*
X99029680Y-106302557D01*
X99039151Y-106294344D01*
X99045364Y-106284472D01*
X99047027Y-106282556D01*
X99047540Y-106281017D01*
X99049594Y-106277754D01*
X99144832Y-106087277D01*
X99151838Y-106068968D01*
X99152092Y-106065385D01*
X99153468Y-106062065D01*
X99155389Y-106042556D01*
X99155389Y-104994937D01*
X99907770Y-104994937D01*
X99907770Y-106328271D01*
X99909691Y-106347780D01*
X99924623Y-106383828D01*
X99952213Y-106411418D01*
X99988261Y-106426350D01*
X100027279Y-106426350D01*
X100063327Y-106411418D01*
X100090917Y-106383828D01*
X100105849Y-106347780D01*
X100105991Y-106346328D01*
X100248763Y-106417714D01*
X100267071Y-106424720D01*
X100270654Y-106424974D01*
X100273975Y-106426350D01*
X100293484Y-106428271D01*
X100579199Y-106428271D01*
X100598708Y-106426350D01*
X100602028Y-106424974D01*
X100605612Y-106424720D01*
X100623920Y-106417714D01*
X100814397Y-106322476D01*
X100817661Y-106320421D01*
X100819198Y-106319909D01*
X100821111Y-106318249D01*
X100830987Y-106312033D01*
X100839204Y-106302557D01*
X100848675Y-106294344D01*
X100854888Y-106284472D01*
X100856551Y-106282556D01*
X100857064Y-106281017D01*
X100859118Y-106277754D01*
X100954356Y-106087277D01*
X100961362Y-106068968D01*
X100961616Y-106065385D01*
X100962992Y-106062065D01*
X100964913Y-106042556D01*
X100964913Y-104994937D01*
X101717294Y-104994937D01*
X101717294Y-106328271D01*
X101719215Y-106347780D01*
X101734147Y-106383828D01*
X101761737Y-106411418D01*
X101797785Y-106426350D01*
X101836803Y-106426350D01*
X101872851Y-106411418D01*
X101900441Y-106383828D01*
X101915373Y-106347780D01*
X101915515Y-106346328D01*
X102058287Y-106417714D01*
X102076595Y-106424720D01*
X102080178Y-106424974D01*
X102083499Y-106426350D01*
X102103008Y-106428271D01*
X102388723Y-106428271D01*
X102408232Y-106426350D01*
X102411552Y-106424974D01*
X102415136Y-106424720D01*
X102433444Y-106417714D01*
X102623921Y-106322476D01*
X102627185Y-106320421D01*
X102628722Y-106319909D01*
X102630635Y-106318249D01*
X102640511Y-106312033D01*
X102648728Y-106302557D01*
X102658199Y-106294344D01*
X102664412Y-106284472D01*
X102666075Y-106282556D01*
X102666588Y-106281017D01*
X102668642Y-106277754D01*
X102763880Y-106087277D01*
X102770886Y-106068968D01*
X102771140Y-106065385D01*
X102772516Y-106062065D01*
X102774437Y-106042556D01*
X102774437Y-105280652D01*
X103431580Y-105280652D01*
X103431580Y-106042556D01*
X103433501Y-106062065D01*
X103434876Y-106065385D01*
X103435131Y-106068969D01*
X103442137Y-106087277D01*
X103537375Y-106277755D01*
X103539429Y-106281019D01*
X103539942Y-106282556D01*
X103541601Y-106284470D01*
X103547818Y-106294345D01*
X103557290Y-106302560D01*
X103565506Y-106312033D01*
X103575379Y-106318247D01*
X103577295Y-106319909D01*
X103578833Y-106320421D01*
X103582097Y-106322476D01*
X103772573Y-106417714D01*
X103790881Y-106424720D01*
X103794464Y-106424974D01*
X103797785Y-106426350D01*
X103817294Y-106428271D01*
X104198247Y-106428271D01*
X104217756Y-106426350D01*
X104221076Y-106424974D01*
X104224660Y-106424720D01*
X104242968Y-106417714D01*
X104433445Y-106322476D01*
X104436709Y-106320421D01*
X104438246Y-106319909D01*
X104440159Y-106318249D01*
X104450035Y-106312033D01*
X104458252Y-106302557D01*
X104467723Y-106294344D01*
X104473936Y-106284472D01*
X104475599Y-106282556D01*
X104476112Y-106281017D01*
X104478166Y-106277754D01*
X104573404Y-106087277D01*
X104580410Y-106068968D01*
X104580664Y-106065385D01*
X104582040Y-106062065D01*
X104583961Y-106042556D01*
X104583961Y-105852190D01*
X104583962Y-105852185D01*
X104583961Y-105852179D01*
X104583961Y-105852080D01*
X104582040Y-105832571D01*
X104578290Y-105823519D01*
X104576389Y-105813908D01*
X104570896Y-105805669D01*
X104567108Y-105796523D01*
X104560181Y-105789596D01*
X104554746Y-105781443D01*
X104546517Y-105775932D01*
X104539518Y-105768933D01*
X104530466Y-105765183D01*
X104522326Y-105759732D01*
X104503573Y-105754022D01*
X104503471Y-105754001D01*
X104503470Y-105754001D01*
X104503468Y-105754001D01*
X103631580Y-105579623D01*
X103631580Y-105304259D01*
X103643383Y-105280652D01*
X105241104Y-105280652D01*
X105241104Y-106994937D01*
X105243025Y-107014446D01*
X105257957Y-107050494D01*
X105285547Y-107078084D01*
X105321595Y-107093016D01*
X105360613Y-107093016D01*
X105396661Y-107078084D01*
X105424251Y-107050494D01*
X105439183Y-107014446D01*
X105441104Y-106994937D01*
X105441104Y-105304259D01*
X105510877Y-105164712D01*
X105671540Y-105084380D01*
X105688130Y-105073937D01*
X105713694Y-105044460D01*
X105726033Y-105007444D01*
X105723267Y-104968524D01*
X105705817Y-104933625D01*
X105676341Y-104908061D01*
X105639325Y-104895722D01*
X105600405Y-104898488D01*
X105582096Y-104905495D01*
X105391620Y-105000733D01*
X105388355Y-105002787D01*
X105386819Y-105003300D01*
X105384904Y-105004959D01*
X105375030Y-105011176D01*
X105366814Y-105020648D01*
X105357342Y-105028864D01*
X105351125Y-105038738D01*
X105349466Y-105040653D01*
X105348953Y-105042189D01*
X105346899Y-105045454D01*
X105251661Y-105235931D01*
X105244655Y-105254239D01*
X105244400Y-105257822D01*
X105243025Y-105261143D01*
X105241104Y-105280652D01*
X103643383Y-105280652D01*
X103701353Y-105164712D01*
X103840902Y-105094937D01*
X104174639Y-105094937D01*
X104344001Y-105179618D01*
X104362310Y-105186625D01*
X104401230Y-105189391D01*
X104438246Y-105177052D01*
X104467722Y-105151488D01*
X104485172Y-105116589D01*
X104487938Y-105077669D01*
X104475599Y-105040653D01*
X104450035Y-105011176D01*
X104433445Y-105000733D01*
X104242969Y-104905494D01*
X104224660Y-104898488D01*
X104221076Y-104898233D01*
X104217756Y-104896858D01*
X104198247Y-104894937D01*
X103817294Y-104894937D01*
X103797785Y-104896858D01*
X103794464Y-104898233D01*
X103790881Y-104898488D01*
X103772572Y-104905495D01*
X103582096Y-105000733D01*
X103578831Y-105002787D01*
X103577295Y-105003300D01*
X103575380Y-105004959D01*
X103565506Y-105011176D01*
X103557290Y-105020648D01*
X103547818Y-105028864D01*
X103541601Y-105038738D01*
X103539942Y-105040653D01*
X103539429Y-105042189D01*
X103537375Y-105045454D01*
X103442137Y-105235931D01*
X103435131Y-105254239D01*
X103434876Y-105257822D01*
X103433501Y-105261143D01*
X103431580Y-105280652D01*
X102774437Y-105280652D01*
X102774437Y-104994937D01*
X102772516Y-104975428D01*
X102757584Y-104939380D01*
X102729994Y-104911790D01*
X102693946Y-104896858D01*
X102654928Y-104896858D01*
X102618880Y-104911790D01*
X102591290Y-104939380D01*
X102576358Y-104975428D01*
X102574437Y-104994937D01*
X102574437Y-106018948D01*
X102504663Y-106158497D01*
X102365116Y-106228271D01*
X102126616Y-106228271D01*
X101971768Y-106150847D01*
X101917294Y-106096373D01*
X101917294Y-104994937D01*
X101915373Y-104975428D01*
X101900441Y-104939380D01*
X101872851Y-104911790D01*
X101836803Y-104896858D01*
X101797785Y-104896858D01*
X101761737Y-104911790D01*
X101734147Y-104939380D01*
X101719215Y-104975428D01*
X101717294Y-104994937D01*
X100964913Y-104994937D01*
X100962992Y-104975428D01*
X100948060Y-104939380D01*
X100920470Y-104911790D01*
X100884422Y-104896858D01*
X100845404Y-104896858D01*
X100809356Y-104911790D01*
X100781766Y-104939380D01*
X100766834Y-104975428D01*
X100764913Y-104994937D01*
X100764913Y-106018948D01*
X100695139Y-106158497D01*
X100555592Y-106228271D01*
X100317092Y-106228271D01*
X100162244Y-106150847D01*
X100107770Y-106096373D01*
X100107770Y-104994937D01*
X100105849Y-104975428D01*
X100090917Y-104939380D01*
X100063327Y-104911790D01*
X100027279Y-104896858D01*
X99988261Y-104896858D01*
X99952213Y-104911790D01*
X99924623Y-104939380D01*
X99909691Y-104975428D01*
X99907770Y-104994937D01*
X99155389Y-104994937D01*
X99153468Y-104975428D01*
X99138536Y-104939380D01*
X99110946Y-104911790D01*
X99074898Y-104896858D01*
X99035880Y-104896858D01*
X98999832Y-104911790D01*
X98973963Y-104937658D01*
X98909635Y-104905494D01*
X98891326Y-104898488D01*
X98887742Y-104898233D01*
X98884422Y-104896858D01*
X98864913Y-104894937D01*
X98388722Y-104894937D01*
X98369213Y-104896858D01*
X98365892Y-104898233D01*
X98362309Y-104898488D01*
X98344000Y-104905495D01*
X98153524Y-105000733D01*
X98150259Y-105002787D01*
X98148723Y-105003300D01*
X98146808Y-105004959D01*
X98136934Y-105011176D01*
X98128718Y-105020648D01*
X98119246Y-105028864D01*
X98113029Y-105038738D01*
X98111370Y-105040653D01*
X98110857Y-105042189D01*
X98108803Y-105045454D01*
X98013565Y-105235931D01*
X98006559Y-105254239D01*
X98006304Y-105257822D01*
X98004929Y-105261143D01*
X98003008Y-105280652D01*
X97345865Y-105280652D01*
X97345865Y-104994937D01*
X97343944Y-104975428D01*
X97329012Y-104939380D01*
X97301422Y-104911790D01*
X97265374Y-104896858D01*
X97226356Y-104896858D01*
X97190308Y-104911790D01*
X97162718Y-104939380D01*
X97147786Y-104975428D01*
X97145865Y-104994937D01*
X97145865Y-106018948D01*
X97076091Y-106158497D01*
X96936544Y-106228271D01*
X96698044Y-106228271D01*
X96543196Y-106150847D01*
X96488722Y-106096373D01*
X96488722Y-104994937D01*
X96486801Y-104975428D01*
X96471869Y-104939380D01*
X96444279Y-104911790D01*
X96408231Y-104896858D01*
X96369213Y-104896858D01*
X96333165Y-104911790D01*
X96305575Y-104939380D01*
X96290643Y-104975428D01*
X96288722Y-104994937D01*
X95564709Y-104994937D01*
X95385825Y-104905494D01*
X95367516Y-104898488D01*
X95363932Y-104898233D01*
X95360612Y-104896858D01*
X95341103Y-104894937D01*
X94960150Y-104894937D01*
X94940641Y-104896858D01*
X94937320Y-104898233D01*
X94933737Y-104898488D01*
X94915428Y-104905495D01*
X94724952Y-105000733D01*
X94716553Y-105006019D01*
X94714117Y-105007029D01*
X94711373Y-105009280D01*
X94708362Y-105011176D01*
X94706629Y-105013173D01*
X94698963Y-105019465D01*
X94603725Y-105114703D01*
X94597433Y-105122369D01*
X94595436Y-105124102D01*
X94593540Y-105127113D01*
X94591289Y-105129857D01*
X94590279Y-105132293D01*
X94584993Y-105140692D01*
X94489755Y-105331169D01*
X94482749Y-105349477D01*
X94482494Y-105353060D01*
X94481119Y-105356381D01*
X94479198Y-105375890D01*
X91577762Y-105375890D01*
X91296810Y-105094937D01*
X92293483Y-105094937D01*
X92312992Y-105093016D01*
X92349040Y-105078084D01*
X92376630Y-105050494D01*
X92391562Y-105014446D01*
X92391562Y-104975428D01*
X92376630Y-104939380D01*
X92349040Y-104911790D01*
X92312992Y-104896858D01*
X92293483Y-104894937D01*
X91055388Y-104894937D01*
X91035879Y-104896858D01*
X90999831Y-104911790D01*
X90972241Y-104939380D01*
X90957309Y-104975428D01*
X89727252Y-104975428D01*
X89718731Y-104955545D01*
X89709280Y-104938370D01*
X89681355Y-104911119D01*
X89645128Y-104896628D01*
X89606112Y-104897103D01*
X89570249Y-104912473D01*
X89542998Y-104940398D01*
X89528507Y-104976625D01*
X89528982Y-105015641D01*
X89534901Y-105034329D01*
X90332305Y-106894937D01*
X89150626Y-106894937D01*
X89131117Y-106896858D01*
X89095069Y-106911790D01*
X89067479Y-106939380D01*
X89052547Y-106975428D01*
X86739030Y-106975428D01*
X86745146Y-106970410D01*
X86840384Y-106875172D01*
X86846675Y-106867505D01*
X86848673Y-106865773D01*
X86850568Y-106862761D01*
X86852820Y-106860018D01*
X86853829Y-106857580D01*
X86859116Y-106849182D01*
X86954354Y-106658706D01*
X86954899Y-106657279D01*
X86955330Y-106656699D01*
X86958253Y-106648516D01*
X86961360Y-106640398D01*
X86961411Y-106639677D01*
X86961925Y-106638239D01*
X87057163Y-106257287D01*
X87057663Y-106253905D01*
X87058228Y-106252542D01*
X87058951Y-106245191D01*
X87060031Y-106237894D01*
X87059813Y-106236435D01*
X87060149Y-106233033D01*
X87060149Y-105756842D01*
X87059813Y-105753439D01*
X87060031Y-105751981D01*
X87058951Y-105744683D01*
X87058228Y-105737333D01*
X87057663Y-105735969D01*
X87057163Y-105732588D01*
X86961925Y-105351636D01*
X86961411Y-105350197D01*
X86961360Y-105349477D01*
X86958253Y-105341358D01*
X86955330Y-105333176D01*
X86954899Y-105332595D01*
X86954354Y-105331169D01*
X86859116Y-105140693D01*
X86853829Y-105132294D01*
X86852820Y-105129857D01*
X86850568Y-105127113D01*
X86848673Y-105124102D01*
X86846675Y-105122369D01*
X86840384Y-105114703D01*
X86745146Y-105019465D01*
X86737479Y-105013173D01*
X86735747Y-105011176D01*
X86732735Y-105009280D01*
X86729992Y-105007029D01*
X86727555Y-105006019D01*
X86719157Y-105000733D01*
X86528681Y-104905494D01*
X86510372Y-104898488D01*
X86506788Y-104898233D01*
X86503468Y-104896858D01*
X86483959Y-104894937D01*
X86293482Y-104894937D01*
X86273973Y-104896858D01*
X86270652Y-104898233D01*
X86267069Y-104898488D01*
X86248760Y-104905495D01*
X86058284Y-105000733D01*
X86049885Y-105006019D01*
X86047449Y-105007029D01*
X86044705Y-105009280D01*
X86041694Y-105011176D01*
X86039961Y-105013173D01*
X86032295Y-105019465D01*
X85937057Y-105114703D01*
X85930765Y-105122369D01*
X85928768Y-105124102D01*
X85926872Y-105127113D01*
X85924621Y-105129857D01*
X85923611Y-105132293D01*
X85918325Y-105140692D01*
X85823087Y-105331169D01*
X85822541Y-105332595D01*
X85822111Y-105333176D01*
X85819189Y-105341352D01*
X85816081Y-105349477D01*
X85816029Y-105350199D01*
X85815516Y-105351637D01*
X85720278Y-105732588D01*
X85719777Y-105735969D01*
X85719213Y-105737333D01*
X85718489Y-105744683D01*
X85717410Y-105751981D01*
X85717627Y-105753439D01*
X85717292Y-105756842D01*
X84728810Y-105756842D01*
X84385397Y-104955545D01*
X84375946Y-104938370D01*
X84348021Y-104911119D01*
X84311794Y-104896628D01*
X84272778Y-104897103D01*
X84236915Y-104912473D01*
X84209664Y-104940398D01*
X84195173Y-104976625D01*
X84195648Y-105015641D01*
X84201567Y-105034329D01*
X84998971Y-106894937D01*
X83817292Y-106894937D01*
X83797783Y-106896858D01*
X83761735Y-106911790D01*
X83734145Y-106939380D01*
X83719213Y-106975428D01*
X83024744Y-106975428D01*
X83030860Y-106970410D01*
X83126098Y-106875172D01*
X83132389Y-106867505D01*
X83134387Y-106865773D01*
X83136282Y-106862761D01*
X83138534Y-106860018D01*
X83139543Y-106857580D01*
X83144830Y-106849182D01*
X83240068Y-106658706D01*
X83247074Y-106640398D01*
X83247328Y-106636814D01*
X83248704Y-106633494D01*
X83250625Y-106613985D01*
X83250625Y-106328271D01*
X83248704Y-106308762D01*
X83247328Y-106305441D01*
X83247074Y-106301858D01*
X83240068Y-106283550D01*
X83144830Y-106093074D01*
X83139546Y-106084679D01*
X83138535Y-106082238D01*
X83136280Y-106079490D01*
X83134387Y-106076483D01*
X83132390Y-106074751D01*
X83126098Y-106067085D01*
X83030860Y-105971846D01*
X83023193Y-105965553D01*
X83021461Y-105963556D01*
X83018451Y-105961661D01*
X83015707Y-105959409D01*
X83013268Y-105958398D01*
X83004871Y-105953113D01*
X82814394Y-105857875D01*
X82796086Y-105850869D01*
X82792502Y-105850614D01*
X82789182Y-105849239D01*
X82769673Y-105847318D01*
X82107768Y-105847318D01*
X82107768Y-104994937D01*
X82105847Y-104975428D01*
X82090915Y-104939380D01*
X82063325Y-104911790D01*
X82027277Y-104896858D01*
X81988259Y-104896858D01*
X81952211Y-104911790D01*
X81924621Y-104939380D01*
X81909689Y-104975428D01*
X81907768Y-104994937D01*
X81085897Y-104994937D01*
X80801296Y-104900069D01*
X80791623Y-104897869D01*
X80789182Y-104896858D01*
X80785644Y-104896509D01*
X80782181Y-104895722D01*
X80779546Y-104895909D01*
X80769673Y-104894937D01*
X80579197Y-104894937D01*
X80569323Y-104895909D01*
X80566689Y-104895722D01*
X80563225Y-104896509D01*
X80559688Y-104896858D01*
X80557246Y-104897869D01*
X80547574Y-104900069D01*
X80261859Y-104995308D01*
X80243959Y-105003299D01*
X80241243Y-105005654D01*
X80237925Y-105007029D01*
X80222772Y-105019465D01*
X80032295Y-105209941D01*
X80026003Y-105217607D01*
X80024006Y-105219340D01*
X80022110Y-105222351D01*
X80019859Y-105225095D01*
X80018849Y-105227531D01*
X80013563Y-105235930D01*
X79918325Y-105426407D01*
X79917779Y-105427833D01*
X79917349Y-105428414D01*
X79914427Y-105436590D01*
X79911319Y-105444715D01*
X79911267Y-105445437D01*
X79910754Y-105446875D01*
X79815516Y-105827826D01*
X79815015Y-105831207D01*
X79814451Y-105832571D01*
X79813727Y-105839921D01*
X79812648Y-105847219D01*
X79812865Y-105848677D01*
X79812530Y-105852080D01*
X79590308Y-105852080D01*
X79590308Y-101775049D01*
X79907768Y-101775049D01*
X79907768Y-103775049D01*
X79909689Y-103794558D01*
X79924621Y-103830606D01*
X79952211Y-103858196D01*
X79988259Y-103873128D01*
X80007768Y-103875049D01*
X80769673Y-103875049D01*
X80789182Y-103873128D01*
X80792502Y-103871752D01*
X80796086Y-103871498D01*
X80814394Y-103864492D01*
X81004871Y-103769254D01*
X81013269Y-103763967D01*
X81015706Y-103762958D01*
X81018449Y-103760706D01*
X81021461Y-103758811D01*
X81023193Y-103756813D01*
X81030860Y-103750522D01*
X81126098Y-103655284D01*
X81132389Y-103647617D01*
X81134387Y-103645885D01*
X81136282Y-103642873D01*
X81138534Y-103640130D01*
X81139543Y-103637692D01*
X81144830Y-103629294D01*
X81240068Y-103438818D01*
X81247074Y-103420510D01*
X81247328Y-103416926D01*
X81248704Y-103413606D01*
X81250625Y-103394097D01*
X81250625Y-103108383D01*
X81248704Y-103088874D01*
X81247328Y-103085553D01*
X81247074Y-103081970D01*
X81240068Y-103063662D01*
X81144830Y-102873186D01*
X81139546Y-102864791D01*
X81138535Y-102862350D01*
X81136280Y-102859602D01*
X81134387Y-102856595D01*
X81132390Y-102854863D01*
X81126098Y-102847197D01*
X81030860Y-102751958D01*
X81023193Y-102745665D01*
X81021461Y-102743668D01*
X81018451Y-102741773D01*
X81015707Y-102739521D01*
X81013268Y-102738510D01*
X81004871Y-102733225D01*
X80814394Y-102637987D01*
X80796086Y-102630981D01*
X80792502Y-102630726D01*
X80789182Y-102629351D01*
X80769673Y-102627430D01*
X80107768Y-102627430D01*
X80107768Y-102441716D01*
X81812530Y-102441716D01*
X81812530Y-103108383D01*
X81812865Y-103111785D01*
X81812648Y-103113244D01*
X81813727Y-103120541D01*
X81814451Y-103127892D01*
X81815015Y-103129255D01*
X81815516Y-103132637D01*
X81910754Y-103513588D01*
X81917349Y-103532049D01*
X81921775Y-103538023D01*
X81924621Y-103544892D01*
X81937057Y-103560046D01*
X82127534Y-103750522D01*
X82135198Y-103756812D01*
X82136932Y-103758811D01*
X82139944Y-103760706D01*
X82142687Y-103762958D01*
X82145124Y-103763967D01*
X82153523Y-103769254D01*
X82343999Y-103864492D01*
X82362307Y-103871498D01*
X82365890Y-103871752D01*
X82369211Y-103873128D01*
X82388720Y-103875049D01*
X82769673Y-103875049D01*
X82789182Y-103873128D01*
X82792502Y-103871752D01*
X82796086Y-103871498D01*
X82814394Y-103864492D01*
X83004871Y-103769254D01*
X83013269Y-103763967D01*
X83015706Y-103762958D01*
X83018449Y-103760706D01*
X83021461Y-103758811D01*
X83023193Y-103756813D01*
X83030860Y-103750522D01*
X83221336Y-103560045D01*
X83233772Y-103544892D01*
X83236617Y-103538023D01*
X83241044Y-103532049D01*
X83247639Y-103513589D01*
X83342877Y-103132637D01*
X83343377Y-103129255D01*
X83343942Y-103127892D01*
X83344665Y-103120541D01*
X83345745Y-103113244D01*
X83345527Y-103111785D01*
X83345863Y-103108383D01*
X83345863Y-102441716D01*
X83345527Y-102438313D01*
X83345745Y-102436855D01*
X83344665Y-102429557D01*
X83343942Y-102422207D01*
X83343377Y-102420843D01*
X83342877Y-102417462D01*
X83247639Y-102036510D01*
X83241044Y-102018050D01*
X83236617Y-102012075D01*
X83233772Y-102005207D01*
X83221336Y-101990054D01*
X83030860Y-101799577D01*
X83023193Y-101793285D01*
X83021461Y-101791288D01*
X83018449Y-101789392D01*
X83015706Y-101787141D01*
X83013269Y-101786131D01*
X83004871Y-101780845D01*
X82993279Y-101775049D01*
X84003006Y-101775049D01*
X84003006Y-103775049D01*
X84004268Y-103787872D01*
X84004165Y-103790232D01*
X84004625Y-103791499D01*
X84004927Y-103794558D01*
X84011571Y-103810599D01*
X84017500Y-103826901D01*
X84019005Y-103828544D01*
X84019859Y-103830606D01*
X84032132Y-103842879D01*
X84043851Y-103855676D01*
X84045872Y-103856619D01*
X84047449Y-103858196D01*
X84063478Y-103864835D01*
X84079209Y-103872177D01*
X84081437Y-103872274D01*
X84083497Y-103873128D01*
X84100849Y-103873128D01*
X84118189Y-103873890D01*
X84120284Y-103873128D01*
X84122515Y-103873128D01*
X84138556Y-103866483D01*
X84154858Y-103860555D01*
X84156501Y-103859049D01*
X84158563Y-103858196D01*
X84170836Y-103845922D01*
X84183633Y-103834204D01*
X84185199Y-103831559D01*
X84186153Y-103830606D01*
X84187056Y-103828424D01*
X84193624Y-103817338D01*
X84769672Y-102582947D01*
X85345721Y-103817337D01*
X85352289Y-103828427D01*
X85353192Y-103830606D01*
X85354143Y-103831557D01*
X85355711Y-103834204D01*
X85368514Y-103845928D01*
X85380782Y-103858196D01*
X85382843Y-103859049D01*
X85384487Y-103860555D01*
X85400779Y-103866479D01*
X85416830Y-103873128D01*
X85419063Y-103873128D01*
X85421156Y-103873889D01*
X85438473Y-103873128D01*
X85455848Y-103873128D01*
X85457910Y-103872273D01*
X85460136Y-103872176D01*
X85475856Y-103864840D01*
X85491896Y-103858196D01*
X85493472Y-103856619D01*
X85495494Y-103855676D01*
X85507212Y-103842879D01*
X85519486Y-103830606D01*
X85520339Y-103828544D01*
X85521845Y-103826901D01*
X85527773Y-103810599D01*
X85534418Y-103794558D01*
X85534719Y-103791499D01*
X85535180Y-103790232D01*
X85535076Y-103787872D01*
X85536339Y-103775049D01*
X85536339Y-102517445D01*
X87814451Y-102517445D01*
X87814451Y-102556463D01*
X87829383Y-102592511D01*
X87856973Y-102620101D01*
X87893021Y-102635033D01*
X87912530Y-102636954D01*
X88574435Y-102636954D01*
X88574435Y-103298859D01*
X88576356Y-103318368D01*
X88591288Y-103354416D01*
X88618878Y-103382006D01*
X88654926Y-103396938D01*
X88693944Y-103396938D01*
X88729992Y-103382006D01*
X88757582Y-103354416D01*
X88772514Y-103318368D01*
X88774435Y-103298859D01*
X88774435Y-102636954D01*
X89436340Y-102636954D01*
X89455849Y-102635033D01*
X89491897Y-102620101D01*
X89519487Y-102592511D01*
X89534419Y-102556463D01*
X89534419Y-102517445D01*
X89519487Y-102481397D01*
X89491897Y-102453807D01*
X89455849Y-102438875D01*
X89436340Y-102436954D01*
X88774435Y-102436954D01*
X88774435Y-101775049D01*
X91812530Y-101775049D01*
X91812530Y-103775049D01*
X91814451Y-103794558D01*
X91829383Y-103830606D01*
X91856973Y-103858196D01*
X91893021Y-103873128D01*
X91912530Y-103875049D01*
X92579197Y-103875049D01*
X92598706Y-103873128D01*
X92602026Y-103871752D01*
X92605610Y-103871498D01*
X92623918Y-103864492D01*
X92814395Y-103769254D01*
X92822793Y-103763967D01*
X92825230Y-103762958D01*
X92827973Y-103760706D01*
X92830985Y-103758811D01*
X92832717Y-103756813D01*
X92840384Y-103750522D01*
X92935622Y-103655284D01*
X92941913Y-103647617D01*
X92943911Y-103645885D01*
X92945806Y-103642873D01*
X92948058Y-103640130D01*
X92949067Y-103637692D01*
X92954354Y-103629294D01*
X93049592Y-103438818D01*
X93056598Y-103420510D01*
X93056852Y-103416926D01*
X93058228Y-103413606D01*
X93060149Y-103394097D01*
X93060149Y-103203621D01*
X93058228Y-103184112D01*
X93056852Y-103180791D01*
X93056598Y-103177208D01*
X93049592Y-103158900D01*
X93017026Y-103093768D01*
X95146937Y-103093768D01*
X95148875Y-103132738D01*
X95165578Y-103168000D01*
X95194504Y-103194187D01*
X95231249Y-103207310D01*
X95270219Y-103205372D01*
X95305481Y-103188669D01*
X95331668Y-103159743D01*
X95340038Y-103142017D01*
X95722053Y-102072369D01*
X96104071Y-103142017D01*
X96112442Y-103159743D01*
X96138628Y-103188669D01*
X96173890Y-103205372D01*
X96212860Y-103207310D01*
X96249605Y-103194187D01*
X96278531Y-103168000D01*
X96295234Y-103132738D01*
X96297172Y-103093768D01*
X96292419Y-103074749D01*
X95930281Y-102060764D01*
X96764912Y-102060764D01*
X96764912Y-102251240D01*
X96766833Y-102270749D01*
X96768208Y-102274069D01*
X96768463Y-102277653D01*
X96775469Y-102295961D01*
X96870707Y-102486438D01*
X96872761Y-102489702D01*
X96873274Y-102491239D01*
X96874933Y-102493153D01*
X96881150Y-102503028D01*
X96890622Y-102511243D01*
X96898838Y-102520716D01*
X96908711Y-102526930D01*
X96910627Y-102528592D01*
X96912165Y-102529104D01*
X96915429Y-102531159D01*
X97105905Y-102626397D01*
X97124213Y-102633403D01*
X97127796Y-102633657D01*
X97131117Y-102635033D01*
X97150626Y-102636954D01*
X97603210Y-102636954D01*
X97717293Y-102693995D01*
X97717293Y-102799060D01*
X97647519Y-102938609D01*
X97507972Y-103008383D01*
X97174234Y-103008383D01*
X97004871Y-102923702D01*
X96986563Y-102916696D01*
X96947643Y-102913930D01*
X96910627Y-102926269D01*
X96881150Y-102951833D01*
X96863701Y-102986732D01*
X96860935Y-103025652D01*
X96873274Y-103062668D01*
X96898838Y-103092145D01*
X96915429Y-103102588D01*
X97105905Y-103197826D01*
X97124213Y-103204832D01*
X97127796Y-103205086D01*
X97131117Y-103206462D01*
X97150626Y-103208383D01*
X97531579Y-103208383D01*
X97551088Y-103206462D01*
X97554408Y-103205086D01*
X97557992Y-103204832D01*
X97576300Y-103197826D01*
X97766777Y-103102588D01*
X97770041Y-103100533D01*
X97771578Y-103100021D01*
X97773491Y-103098361D01*
X97783367Y-103092145D01*
X97791584Y-103082669D01*
X97801055Y-103074456D01*
X97807268Y-103064584D01*
X97808931Y-103062668D01*
X97809444Y-103061129D01*
X97811498Y-103057866D01*
X97906736Y-102867389D01*
X97913742Y-102849080D01*
X97913996Y-102845497D01*
X97915372Y-102842177D01*
X97917293Y-102822668D01*
X97917293Y-101775049D01*
X98669674Y-101775049D01*
X98669674Y-103108383D01*
X98671595Y-103127892D01*
X98686527Y-103163940D01*
X98714117Y-103191530D01*
X98750165Y-103206462D01*
X98789183Y-103206462D01*
X98825231Y-103191530D01*
X98852821Y-103163940D01*
X98867753Y-103127892D01*
X98867895Y-103126440D01*
X99010667Y-103197826D01*
X99028975Y-103204832D01*
X99032558Y-103205086D01*
X99035879Y-103206462D01*
X99055388Y-103208383D01*
X99341103Y-103208383D01*
X99360612Y-103206462D01*
X99363932Y-103205086D01*
X99367516Y-103204832D01*
X99385824Y-103197826D01*
X99576301Y-103102588D01*
X99579565Y-103100533D01*
X99581102Y-103100021D01*
X99583015Y-103098361D01*
X99592891Y-103092145D01*
X99601108Y-103082669D01*
X99610579Y-103074456D01*
X99616792Y-103064584D01*
X99618455Y-103062668D01*
X99618968Y-103061129D01*
X99621022Y-103057866D01*
X99716260Y-102867389D01*
X99723266Y-102849080D01*
X99723520Y-102845497D01*
X99724896Y-102842177D01*
X99726817Y-102822668D01*
X99726817Y-101775049D01*
X102003008Y-101775049D01*
X102003008Y-103775049D01*
X102004929Y-103794558D01*
X102019861Y-103830606D01*
X102047451Y-103858196D01*
X102083499Y-103873128D01*
X102103008Y-103875049D01*
X102579198Y-103875049D01*
X102589071Y-103874076D01*
X102591705Y-103874264D01*
X102595168Y-103873476D01*
X102598707Y-103873128D01*
X102601149Y-103872116D01*
X102610821Y-103869917D01*
X102896536Y-103774679D01*
X102914436Y-103766688D01*
X102917151Y-103764332D01*
X102920470Y-103762958D01*
X102935624Y-103750522D01*
X103126100Y-103560045D01*
X103132390Y-103552380D01*
X103134389Y-103550647D01*
X103136284Y-103547634D01*
X103138536Y-103544892D01*
X103139545Y-103542454D01*
X103144832Y-103534056D01*
X103240070Y-103343580D01*
X103240615Y-103342153D01*
X103241046Y-103341573D01*
X103243969Y-103333390D01*
X103247076Y-103325272D01*
X103247127Y-103324551D01*
X103247641Y-103323113D01*
X103342879Y-102942161D01*
X103343379Y-102938779D01*
X103343944Y-102937416D01*
X103344667Y-102930065D01*
X103345747Y-102922768D01*
X103345529Y-102921309D01*
X103345865Y-102917907D01*
X103345865Y-102632192D01*
X103345529Y-102628789D01*
X103345747Y-102627331D01*
X103344667Y-102620033D01*
X103343944Y-102612683D01*
X103343379Y-102611319D01*
X103342879Y-102607938D01*
X103247641Y-102226986D01*
X103247127Y-102225547D01*
X103247076Y-102224827D01*
X103243969Y-102216708D01*
X103241046Y-102208526D01*
X103240615Y-102207945D01*
X103240070Y-102206519D01*
X103214811Y-102156002D01*
X103907770Y-102156002D01*
X103907770Y-102727430D01*
X103909691Y-102746939D01*
X103911066Y-102750259D01*
X103911321Y-102753843D01*
X103918327Y-102772151D01*
X104013565Y-102962629D01*
X104018851Y-102971027D01*
X104019861Y-102973464D01*
X104022112Y-102976207D01*
X104024008Y-102979219D01*
X104026005Y-102980951D01*
X104032297Y-102988618D01*
X104127535Y-103083856D01*
X104135201Y-103090147D01*
X104136934Y-103092145D01*
X104139945Y-103094040D01*
X104142689Y-103096292D01*
X104145126Y-103097301D01*
X104153525Y-103102588D01*
X104344001Y-103197826D01*
X104362309Y-103204832D01*
X104365892Y-103205086D01*
X104369213Y-103206462D01*
X104388722Y-103208383D01*
X104674437Y-103208383D01*
X104693946Y-103206462D01*
X104697266Y-103205086D01*
X104700850Y-103204832D01*
X104719158Y-103197826D01*
X104909635Y-103102588D01*
X104918033Y-103097301D01*
X104920470Y-103096292D01*
X104923213Y-103094040D01*
X104926225Y-103092145D01*
X104927957Y-103090147D01*
X104935624Y-103083856D01*
X105030862Y-102988618D01*
X105037156Y-102980947D01*
X105039151Y-102979218D01*
X105041044Y-102976210D01*
X105043298Y-102973464D01*
X105044308Y-102971024D01*
X105049594Y-102962628D01*
X105144832Y-102772151D01*
X105151838Y-102753842D01*
X105152092Y-102750259D01*
X105153468Y-102746939D01*
X105155389Y-102727430D01*
X105155389Y-102156002D01*
X105153468Y-102136493D01*
X105152092Y-102133172D01*
X105151838Y-102129589D01*
X105144832Y-102111281D01*
X105049594Y-101920805D01*
X105044307Y-101912406D01*
X105043298Y-101909969D01*
X105041046Y-101907225D01*
X105039151Y-101904214D01*
X105037153Y-101902481D01*
X105030862Y-101894815D01*
X104935624Y-101799577D01*
X104927957Y-101793285D01*
X104926225Y-101791288D01*
X104923213Y-101789392D01*
X104920470Y-101787141D01*
X104918033Y-101786131D01*
X104909635Y-101780845D01*
X104898043Y-101775049D01*
X105812532Y-101775049D01*
X105812532Y-103108383D01*
X105814453Y-103127892D01*
X105829385Y-103163940D01*
X105856975Y-103191530D01*
X105893023Y-103206462D01*
X105932041Y-103206462D01*
X105968089Y-103191530D01*
X105995679Y-103163940D01*
X106010611Y-103127892D01*
X106010753Y-103126440D01*
X106153525Y-103197826D01*
X106171833Y-103204832D01*
X106175416Y-103205086D01*
X106178737Y-103206462D01*
X106198246Y-103208383D01*
X106483961Y-103208383D01*
X106503470Y-103206462D01*
X106506790Y-103205086D01*
X106510374Y-103204832D01*
X106528682Y-103197826D01*
X106719159Y-103102588D01*
X106722423Y-103100533D01*
X106723960Y-103100021D01*
X106725873Y-103098361D01*
X106735749Y-103092145D01*
X106743966Y-103082669D01*
X106753437Y-103074456D01*
X106759650Y-103064584D01*
X106761313Y-103062668D01*
X106761826Y-103061129D01*
X106763880Y-103057866D01*
X106859118Y-102867389D01*
X106866124Y-102849080D01*
X106866378Y-102845497D01*
X106867754Y-102842177D01*
X106869675Y-102822668D01*
X106869675Y-102156002D01*
X107526818Y-102156002D01*
X107526818Y-102727430D01*
X107528739Y-102746939D01*
X107530114Y-102750259D01*
X107530369Y-102753843D01*
X107537375Y-102772151D01*
X107632613Y-102962629D01*
X107637899Y-102971027D01*
X107638909Y-102973464D01*
X107641160Y-102976207D01*
X107643056Y-102979219D01*
X107645053Y-102980951D01*
X107651345Y-102988618D01*
X107746583Y-103083856D01*
X107754249Y-103090147D01*
X107755982Y-103092145D01*
X107758993Y-103094040D01*
X107761737Y-103096292D01*
X107764174Y-103097301D01*
X107772573Y-103102588D01*
X107963049Y-103197826D01*
X107981357Y-103204832D01*
X107984940Y-103205086D01*
X107988261Y-103206462D01*
X108007770Y-103208383D01*
X108388723Y-103208383D01*
X108408232Y-103206462D01*
X108411552Y-103205086D01*
X108415136Y-103204832D01*
X108433444Y-103197826D01*
X108497773Y-103165661D01*
X108523642Y-103191530D01*
X108559690Y-103206462D01*
X108598708Y-103206462D01*
X108634756Y-103191530D01*
X108662346Y-103163940D01*
X108677278Y-103127892D01*
X108679199Y-103108383D01*
X108679199Y-102060764D01*
X109336342Y-102060764D01*
X109336342Y-102822668D01*
X109338263Y-102842177D01*
X109339638Y-102845497D01*
X109339893Y-102849081D01*
X109346899Y-102867389D01*
X109442137Y-103057867D01*
X109444191Y-103061131D01*
X109444704Y-103062668D01*
X109446363Y-103064582D01*
X109452580Y-103074457D01*
X109462052Y-103082672D01*
X109470268Y-103092145D01*
X109480141Y-103098359D01*
X109482057Y-103100021D01*
X109483595Y-103100533D01*
X109486859Y-103102588D01*
X109677335Y-103197826D01*
X109695643Y-103204832D01*
X109699226Y-103205086D01*
X109702547Y-103206462D01*
X109722056Y-103208383D01*
X110103009Y-103208383D01*
X110122518Y-103206462D01*
X110125838Y-103205086D01*
X110129422Y-103204832D01*
X110147730Y-103197826D01*
X110338207Y-103102588D01*
X110341471Y-103100533D01*
X110343008Y-103100021D01*
X110344921Y-103098361D01*
X110354797Y-103092145D01*
X110363014Y-103082669D01*
X110372485Y-103074456D01*
X110378698Y-103064584D01*
X110380361Y-103062668D01*
X110380874Y-103061129D01*
X110382928Y-103057866D01*
X110478166Y-102867389D01*
X110485172Y-102849080D01*
X110485426Y-102845497D01*
X110486802Y-102842177D01*
X110488723Y-102822668D01*
X110488723Y-102632302D01*
X110488724Y-102632297D01*
X110488723Y-102632291D01*
X110488723Y-102632192D01*
X110486802Y-102612683D01*
X110483052Y-102603631D01*
X110481151Y-102594020D01*
X110475658Y-102585781D01*
X110471870Y-102576635D01*
X110464943Y-102569708D01*
X110459508Y-102561555D01*
X110451279Y-102556044D01*
X110444280Y-102549045D01*
X110435228Y-102545295D01*
X110427088Y-102539844D01*
X110408335Y-102534134D01*
X110408233Y-102534113D01*
X110408232Y-102534113D01*
X110408230Y-102534113D01*
X109536342Y-102359735D01*
X109536342Y-102084371D01*
X109606115Y-101944824D01*
X109745664Y-101875049D01*
X110079401Y-101875049D01*
X110248763Y-101959730D01*
X110267072Y-101966737D01*
X110305992Y-101969503D01*
X110343008Y-101957164D01*
X110372484Y-101931600D01*
X110389934Y-101896701D01*
X110392700Y-101857781D01*
X110380361Y-101820765D01*
X110354797Y-101791288D01*
X110338207Y-101780845D01*
X110326615Y-101775049D01*
X111145866Y-101775049D01*
X111145866Y-103108383D01*
X111147787Y-103127892D01*
X111162719Y-103163940D01*
X111190309Y-103191530D01*
X111226357Y-103206462D01*
X111265375Y-103206462D01*
X111301423Y-103191530D01*
X111329013Y-103163940D01*
X111343945Y-103127892D01*
X111344087Y-103126440D01*
X111486859Y-103197826D01*
X111505167Y-103204832D01*
X111508750Y-103205086D01*
X111512071Y-103206462D01*
X111531580Y-103208383D01*
X111817295Y-103208383D01*
X111836804Y-103206462D01*
X111840124Y-103205086D01*
X111843708Y-103204832D01*
X111862016Y-103197826D01*
X112052493Y-103102588D01*
X112055757Y-103100533D01*
X112057294Y-103100021D01*
X112059207Y-103098361D01*
X112069083Y-103092145D01*
X112077300Y-103082669D01*
X112086771Y-103074456D01*
X112092984Y-103064584D01*
X112094647Y-103062668D01*
X112095160Y-103061129D01*
X112097214Y-103057866D01*
X112192452Y-102867389D01*
X112199458Y-102849080D01*
X112199712Y-102845497D01*
X112201088Y-102842177D01*
X112203009Y-102822668D01*
X112203009Y-101775049D01*
X112201088Y-101755540D01*
X112186156Y-101719492D01*
X112158566Y-101691902D01*
X112122518Y-101676970D01*
X112083500Y-101676970D01*
X112047452Y-101691902D01*
X112019862Y-101719492D01*
X112004930Y-101755540D01*
X112003009Y-101775049D01*
X112003009Y-102799060D01*
X111933235Y-102938609D01*
X111793688Y-103008383D01*
X111555188Y-103008383D01*
X111400340Y-102930959D01*
X111345866Y-102876485D01*
X111345866Y-101775049D01*
X111343945Y-101755540D01*
X111329013Y-101719492D01*
X111301423Y-101691902D01*
X111265375Y-101676970D01*
X111226357Y-101676970D01*
X111190309Y-101691902D01*
X111162719Y-101719492D01*
X111147787Y-101755540D01*
X111145866Y-101775049D01*
X110326615Y-101775049D01*
X110147731Y-101685606D01*
X110129422Y-101678600D01*
X110125838Y-101678345D01*
X110122518Y-101676970D01*
X110103009Y-101675049D01*
X109722056Y-101675049D01*
X109702547Y-101676970D01*
X109699226Y-101678345D01*
X109695643Y-101678600D01*
X109677334Y-101685607D01*
X109486858Y-101780845D01*
X109483593Y-101782899D01*
X109482057Y-101783412D01*
X109480142Y-101785071D01*
X109470268Y-101791288D01*
X109462052Y-101800760D01*
X109452580Y-101808976D01*
X109446363Y-101818850D01*
X109444704Y-101820765D01*
X109444191Y-101822301D01*
X109442137Y-101825566D01*
X109346899Y-102016043D01*
X109339893Y-102034351D01*
X109339638Y-102037934D01*
X109338263Y-102041255D01*
X109336342Y-102060764D01*
X108679199Y-102060764D01*
X108679199Y-101489335D01*
X108677278Y-101469826D01*
X108675902Y-101466505D01*
X108675648Y-101462922D01*
X108668642Y-101444614D01*
X108573404Y-101254138D01*
X108568117Y-101245739D01*
X108567108Y-101243302D01*
X108564856Y-101240558D01*
X108562961Y-101237547D01*
X108560963Y-101235814D01*
X108554672Y-101228148D01*
X108459434Y-101132910D01*
X108451767Y-101126618D01*
X108450035Y-101124621D01*
X108447023Y-101122725D01*
X108444280Y-101120474D01*
X108441843Y-101119464D01*
X108433445Y-101114178D01*
X108242967Y-101018940D01*
X108224659Y-101011934D01*
X108221075Y-101011679D01*
X108217755Y-101010304D01*
X108198246Y-101008383D01*
X107912532Y-101008383D01*
X107893023Y-101010304D01*
X107889702Y-101011679D01*
X107886119Y-101011934D01*
X107867811Y-101018940D01*
X107677335Y-101114178D01*
X107660744Y-101124621D01*
X107635180Y-101154098D01*
X107622841Y-101191114D01*
X107625607Y-101230034D01*
X107643056Y-101264933D01*
X107672533Y-101290497D01*
X107709549Y-101302836D01*
X107748469Y-101300070D01*
X107766777Y-101293064D01*
X107936140Y-101208383D01*
X108174639Y-101208383D01*
X108329486Y-101285806D01*
X108401775Y-101358095D01*
X108479199Y-101512942D01*
X108479199Y-101708483D01*
X108433445Y-101685606D01*
X108415136Y-101678600D01*
X108411552Y-101678345D01*
X108408232Y-101676970D01*
X108388723Y-101675049D01*
X108007770Y-101675049D01*
X107988261Y-101676970D01*
X107984940Y-101678345D01*
X107981357Y-101678600D01*
X107963048Y-101685607D01*
X107772572Y-101780845D01*
X107764173Y-101786131D01*
X107761737Y-101787141D01*
X107758993Y-101789392D01*
X107755982Y-101791288D01*
X107754249Y-101793285D01*
X107746583Y-101799577D01*
X107651345Y-101894815D01*
X107645053Y-101902481D01*
X107643056Y-101904214D01*
X107641160Y-101907225D01*
X107638909Y-101909969D01*
X107637899Y-101912405D01*
X107632613Y-101920804D01*
X107537375Y-102111281D01*
X107530369Y-102129589D01*
X107530114Y-102133172D01*
X107528739Y-102136493D01*
X107526818Y-102156002D01*
X106869675Y-102156002D01*
X106869675Y-101775049D01*
X106867754Y-101755540D01*
X106852822Y-101719492D01*
X106825232Y-101691902D01*
X106789184Y-101676970D01*
X106750166Y-101676970D01*
X106714118Y-101691902D01*
X106686528Y-101719492D01*
X106671596Y-101755540D01*
X106669675Y-101775049D01*
X106669675Y-102799060D01*
X106599901Y-102938609D01*
X106460354Y-103008383D01*
X106221854Y-103008383D01*
X106067006Y-102930959D01*
X106012532Y-102876485D01*
X106012532Y-101775049D01*
X106010611Y-101755540D01*
X105995679Y-101719492D01*
X105968089Y-101691902D01*
X105932041Y-101676970D01*
X105893023Y-101676970D01*
X105856975Y-101691902D01*
X105829385Y-101719492D01*
X105814453Y-101755540D01*
X105812532Y-101775049D01*
X104898043Y-101775049D01*
X104719159Y-101685606D01*
X104700850Y-101678600D01*
X104697266Y-101678345D01*
X104693946Y-101676970D01*
X104674437Y-101675049D01*
X104388722Y-101675049D01*
X104369213Y-101676970D01*
X104365892Y-101678345D01*
X104362309Y-101678600D01*
X104344000Y-101685607D01*
X104153524Y-101780845D01*
X104145125Y-101786131D01*
X104142689Y-101787141D01*
X104139945Y-101789392D01*
X104136934Y-101791288D01*
X104135201Y-101793285D01*
X104127535Y-101799577D01*
X104032297Y-101894815D01*
X104026005Y-101902481D01*
X104024008Y-101904214D01*
X104022112Y-101907225D01*
X104019861Y-101909969D01*
X104018851Y-101912405D01*
X104013565Y-101920804D01*
X103918327Y-102111281D01*
X103911321Y-102129589D01*
X103911066Y-102133172D01*
X103909691Y-102136493D01*
X103907770Y-102156002D01*
X103214811Y-102156002D01*
X103144832Y-102016043D01*
X103139545Y-102007644D01*
X103138536Y-102005207D01*
X103136284Y-102002464D01*
X103134389Y-101999452D01*
X103132390Y-101997718D01*
X103126100Y-101990054D01*
X102935624Y-101799577D01*
X102920470Y-101787141D01*
X102917151Y-101785766D01*
X102914436Y-101783411D01*
X102896536Y-101775420D01*
X102610821Y-101680181D01*
X102601148Y-101677981D01*
X102598707Y-101676970D01*
X102595169Y-101676621D01*
X102591706Y-101675834D01*
X102589071Y-101676021D01*
X102579198Y-101675049D01*
X102103008Y-101675049D01*
X102083499Y-101676970D01*
X102047451Y-101691902D01*
X102019861Y-101719492D01*
X102004929Y-101755540D01*
X102003008Y-101775049D01*
X99726817Y-101775049D01*
X99724896Y-101755540D01*
X99709964Y-101719492D01*
X99682374Y-101691902D01*
X99646326Y-101676970D01*
X99607308Y-101676970D01*
X99571260Y-101691902D01*
X99543670Y-101719492D01*
X99528738Y-101755540D01*
X99526817Y-101775049D01*
X99526817Y-102799060D01*
X99457043Y-102938609D01*
X99317496Y-103008383D01*
X99078996Y-103008383D01*
X98924148Y-102930959D01*
X98869674Y-102876485D01*
X98869674Y-101775049D01*
X98867753Y-101755540D01*
X98852821Y-101719492D01*
X98825231Y-101691902D01*
X98789183Y-101676970D01*
X98750165Y-101676970D01*
X98714117Y-101691902D01*
X98686527Y-101719492D01*
X98671595Y-101755540D01*
X98669674Y-101775049D01*
X97917293Y-101775049D01*
X97915372Y-101755540D01*
X97900440Y-101719492D01*
X97872850Y-101691902D01*
X97836802Y-101676970D01*
X97797784Y-101676970D01*
X97761736Y-101691902D01*
X97735867Y-101717770D01*
X97671539Y-101685606D01*
X97653230Y-101678600D01*
X97649646Y-101678345D01*
X97646326Y-101676970D01*
X97626817Y-101675049D01*
X97150626Y-101675049D01*
X97131117Y-101676970D01*
X97127796Y-101678345D01*
X97124213Y-101678600D01*
X97105904Y-101685607D01*
X96915428Y-101780845D01*
X96912163Y-101782899D01*
X96910627Y-101783412D01*
X96908712Y-101785071D01*
X96898838Y-101791288D01*
X96890622Y-101800760D01*
X96881150Y-101808976D01*
X96874933Y-101818850D01*
X96873274Y-101820765D01*
X96872761Y-101822301D01*
X96870707Y-101825566D01*
X96775469Y-102016043D01*
X96768463Y-102034351D01*
X96768208Y-102037934D01*
X96766833Y-102041255D01*
X96764912Y-102060764D01*
X95930281Y-102060764D01*
X95816228Y-101741415D01*
X95807858Y-101723689D01*
X95804488Y-101719967D01*
X95802340Y-101715431D01*
X95791488Y-101705607D01*
X95781671Y-101694763D01*
X95777136Y-101692615D01*
X95773414Y-101689245D01*
X95759627Y-101684321D01*
X95746409Y-101678060D01*
X95741397Y-101677810D01*
X95736669Y-101676122D01*
X95722054Y-101676848D01*
X95707439Y-101676122D01*
X95702710Y-101677810D01*
X95697699Y-101678060D01*
X95684480Y-101684321D01*
X95670694Y-101689245D01*
X95666971Y-101692615D01*
X95662437Y-101694763D01*
X95652618Y-101705609D01*
X95641768Y-101715432D01*
X95639619Y-101719968D01*
X95636251Y-101723689D01*
X95627880Y-101741415D01*
X95151690Y-103074749D01*
X95146937Y-103093768D01*
X93017026Y-103093768D01*
X92954354Y-102968424D01*
X92949067Y-102960025D01*
X92948058Y-102957588D01*
X92945806Y-102954844D01*
X92943911Y-102951833D01*
X92941913Y-102950100D01*
X92935622Y-102942434D01*
X92840384Y-102847196D01*
X92835027Y-102842800D01*
X92896534Y-102822298D01*
X92914434Y-102814307D01*
X92917149Y-102811951D01*
X92920468Y-102810577D01*
X92935622Y-102798141D01*
X93030860Y-102702903D01*
X93037151Y-102695236D01*
X93039149Y-102693504D01*
X93041044Y-102690492D01*
X93043296Y-102687749D01*
X93044305Y-102685311D01*
X93049592Y-102676913D01*
X93144830Y-102486437D01*
X93151836Y-102468129D01*
X93152090Y-102464545D01*
X93153466Y-102461225D01*
X93155387Y-102441716D01*
X93155387Y-102156002D01*
X93153466Y-102136493D01*
X93152090Y-102133172D01*
X93151836Y-102129589D01*
X93144830Y-102111281D01*
X93049592Y-101920805D01*
X93044305Y-101912406D01*
X93043296Y-101909969D01*
X93041044Y-101907225D01*
X93039149Y-101904214D01*
X93037151Y-101902481D01*
X93030860Y-101894815D01*
X92935622Y-101799577D01*
X92927955Y-101793285D01*
X92926223Y-101791288D01*
X92923211Y-101789392D01*
X92920468Y-101787141D01*
X92918031Y-101786131D01*
X92909633Y-101780845D01*
X92719157Y-101685606D01*
X92700848Y-101678600D01*
X92697264Y-101678345D01*
X92693944Y-101676970D01*
X92674435Y-101675049D01*
X91912530Y-101675049D01*
X91893021Y-101676970D01*
X91856973Y-101691902D01*
X91829383Y-101719492D01*
X91814451Y-101755540D01*
X91812530Y-101775049D01*
X88774435Y-101775049D01*
X88772514Y-101755540D01*
X88757582Y-101719492D01*
X88729992Y-101691902D01*
X88693944Y-101676970D01*
X88654926Y-101676970D01*
X88618878Y-101691902D01*
X88591288Y-101719492D01*
X88576356Y-101755540D01*
X88574435Y-101775049D01*
X88574435Y-102436954D01*
X87912530Y-102436954D01*
X87893021Y-102438875D01*
X87856973Y-102453807D01*
X87829383Y-102481397D01*
X87814451Y-102517445D01*
X85536339Y-102517445D01*
X85536339Y-101775049D01*
X85534418Y-101755540D01*
X85519486Y-101719492D01*
X85491896Y-101691902D01*
X85455848Y-101676970D01*
X85416830Y-101676970D01*
X85380782Y-101691902D01*
X85353192Y-101719492D01*
X85338260Y-101755540D01*
X85336339Y-101775049D01*
X85336339Y-103324292D01*
X84860291Y-102304189D01*
X84856060Y-102297047D01*
X84855180Y-102294626D01*
X84853611Y-102292913D01*
X84850300Y-102287323D01*
X84839097Y-102277064D01*
X84828828Y-102265850D01*
X84824798Y-102263969D01*
X84821525Y-102260972D01*
X84807255Y-102255782D01*
X84793471Y-102249350D01*
X84789029Y-102249154D01*
X84784856Y-102247637D01*
X84769673Y-102248304D01*
X84754490Y-102247637D01*
X84750315Y-102249154D01*
X84745876Y-102249350D01*
X84732103Y-102255777D01*
X84717821Y-102260971D01*
X84714543Y-102263972D01*
X84710518Y-102265851D01*
X84700256Y-102277056D01*
X84689046Y-102287323D01*
X84685732Y-102292916D01*
X84684167Y-102294626D01*
X84683287Y-102297043D01*
X84679055Y-102304189D01*
X84203006Y-103324293D01*
X84203006Y-101775049D01*
X84201085Y-101755540D01*
X84186153Y-101719492D01*
X84158563Y-101691902D01*
X84122515Y-101676970D01*
X84083497Y-101676970D01*
X84047449Y-101691902D01*
X84019859Y-101719492D01*
X84004927Y-101755540D01*
X84003006Y-101775049D01*
X82993279Y-101775049D01*
X82814395Y-101685606D01*
X82796086Y-101678600D01*
X82792502Y-101678345D01*
X82789182Y-101676970D01*
X82769673Y-101675049D01*
X82388720Y-101675049D01*
X82369211Y-101676970D01*
X82365890Y-101678345D01*
X82362307Y-101678600D01*
X82343998Y-101685607D01*
X82153522Y-101780845D01*
X82145123Y-101786131D01*
X82142687Y-101787141D01*
X82139944Y-101789391D01*
X82136932Y-101791288D01*
X82135198Y-101793286D01*
X82127534Y-101799577D01*
X81937057Y-101990053D01*
X81924621Y-102005207D01*
X81921775Y-102012075D01*
X81917349Y-102018050D01*
X81910754Y-102036511D01*
X81815516Y-102417462D01*
X81815015Y-102420843D01*
X81814451Y-102422207D01*
X81813727Y-102429557D01*
X81812648Y-102436855D01*
X81812865Y-102438313D01*
X81812530Y-102441716D01*
X80107768Y-102441716D01*
X80107768Y-101775049D01*
X80105847Y-101755540D01*
X80090915Y-101719492D01*
X80063325Y-101691902D01*
X80027277Y-101676970D01*
X79988259Y-101676970D01*
X79952211Y-101691902D01*
X79924621Y-101719492D01*
X79909689Y-101755540D01*
X79907768Y-101775049D01*
X79590308Y-101775049D01*
X79590308Y-98555161D01*
X79907768Y-98555161D01*
X79907768Y-100555161D01*
X79909689Y-100574670D01*
X79924621Y-100610718D01*
X79952211Y-100638308D01*
X79988259Y-100653240D01*
X80027277Y-100653240D01*
X80063325Y-100638308D01*
X80090915Y-100610718D01*
X80105847Y-100574670D01*
X80107768Y-100555161D01*
X80107768Y-99653726D01*
X81079914Y-100625872D01*
X81095068Y-100638308D01*
X81131116Y-100653240D01*
X81170134Y-100653240D01*
X81206182Y-100638308D01*
X81233772Y-100610718D01*
X81248704Y-100574670D01*
X81248704Y-100535652D01*
X81233772Y-100499604D01*
X81221336Y-100484450D01*
X81177300Y-100440414D01*
X83052546Y-100440414D01*
X83052546Y-100479432D01*
X83067478Y-100515480D01*
X83079914Y-100530634D01*
X83175152Y-100625872D01*
X83190306Y-100638308D01*
X83226354Y-100653240D01*
X83265372Y-100653240D01*
X83301420Y-100638308D01*
X83316574Y-100625872D01*
X83411812Y-100530634D01*
X83424248Y-100515480D01*
X83439180Y-100479432D01*
X83439180Y-100440414D01*
X83424248Y-100404366D01*
X83411812Y-100389212D01*
X83316574Y-100293974D01*
X83301420Y-100281538D01*
X83265372Y-100266606D01*
X83226354Y-100266606D01*
X83190306Y-100281538D01*
X83175152Y-100293974D01*
X83079914Y-100389212D01*
X83067478Y-100404366D01*
X83052546Y-100440414D01*
X81177300Y-100440414D01*
X80425520Y-99688634D01*
X81230625Y-98615161D01*
X81240793Y-98598401D01*
X81250477Y-98560604D01*
X81249699Y-98555161D01*
X81907768Y-98555161D01*
X81907768Y-99888495D01*
X81909689Y-99908004D01*
X81924621Y-99944052D01*
X81952211Y-99971642D01*
X81988259Y-99986574D01*
X82027277Y-99986574D01*
X82063325Y-99971642D01*
X82090915Y-99944052D01*
X82105847Y-99908004D01*
X82107768Y-99888495D01*
X82107768Y-99844203D01*
X82127533Y-99863968D01*
X82135199Y-99870259D01*
X82136932Y-99872257D01*
X82139943Y-99874152D01*
X82142687Y-99876404D01*
X82145124Y-99877413D01*
X82153523Y-99882700D01*
X82343999Y-99977938D01*
X82362307Y-99984944D01*
X82365890Y-99985198D01*
X82369211Y-99986574D01*
X82388720Y-99988495D01*
X82579197Y-99988495D01*
X82598706Y-99986574D01*
X82634754Y-99971642D01*
X82662344Y-99944052D01*
X82677276Y-99908004D01*
X82677276Y-99868986D01*
X82662344Y-99832938D01*
X82634754Y-99805348D01*
X82598706Y-99790416D01*
X82579197Y-99788495D01*
X82412328Y-99788495D01*
X82257480Y-99711071D01*
X82185191Y-99638782D01*
X82107768Y-99483935D01*
X82107768Y-98555161D01*
X83145863Y-98555161D01*
X83145863Y-99888495D01*
X83147784Y-99908004D01*
X83162716Y-99944052D01*
X83190306Y-99971642D01*
X83226354Y-99986574D01*
X83265372Y-99986574D01*
X83301420Y-99971642D01*
X83329010Y-99944052D01*
X83343942Y-99908004D01*
X83345863Y-99888495D01*
X83345863Y-99507542D01*
X84003006Y-99507542D01*
X84003006Y-99602780D01*
X84004927Y-99622289D01*
X84006302Y-99625609D01*
X84006557Y-99629193D01*
X84013563Y-99647501D01*
X84108801Y-99837979D01*
X84110855Y-99841243D01*
X84111368Y-99842780D01*
X84113027Y-99844694D01*
X84119244Y-99854569D01*
X84128716Y-99862784D01*
X84136932Y-99872257D01*
X84146805Y-99878471D01*
X84148721Y-99880133D01*
X84150259Y-99880645D01*
X84153523Y-99882700D01*
X84343999Y-99977938D01*
X84362307Y-99984944D01*
X84365890Y-99985198D01*
X84369211Y-99986574D01*
X84388720Y-99988495D01*
X84674434Y-99988495D01*
X84693943Y-99986574D01*
X84697263Y-99985198D01*
X84700847Y-99984944D01*
X84719155Y-99977938D01*
X84909633Y-99882700D01*
X84926223Y-99872257D01*
X84951787Y-99842780D01*
X84964126Y-99805764D01*
X84961361Y-99766844D01*
X84943911Y-99731945D01*
X84914435Y-99706381D01*
X84877419Y-99694042D01*
X84838499Y-99696808D01*
X84820190Y-99703814D01*
X84650827Y-99788495D01*
X84412328Y-99788495D01*
X84272779Y-99718721D01*
X84203006Y-99579173D01*
X84203006Y-99531149D01*
X84272779Y-99391601D01*
X84412328Y-99321828D01*
X84674434Y-99321828D01*
X84693943Y-99319907D01*
X84697263Y-99318531D01*
X84700847Y-99318277D01*
X84719155Y-99311271D01*
X84909633Y-99216033D01*
X84912897Y-99213978D01*
X84914434Y-99213466D01*
X84916348Y-99211806D01*
X84926223Y-99205590D01*
X84934438Y-99196117D01*
X84943911Y-99187902D01*
X84950125Y-99178028D01*
X84951787Y-99176113D01*
X84952299Y-99174574D01*
X84954354Y-99171311D01*
X85049592Y-98980835D01*
X85056598Y-98962527D01*
X85056852Y-98958943D01*
X85058228Y-98955623D01*
X85060149Y-98936114D01*
X85060149Y-98840876D01*
X85058228Y-98821367D01*
X85056852Y-98818046D01*
X85056598Y-98814463D01*
X85049592Y-98796155D01*
X84954354Y-98605679D01*
X84952299Y-98602415D01*
X84951787Y-98600877D01*
X84950125Y-98598961D01*
X84943911Y-98589088D01*
X84934438Y-98580872D01*
X84926223Y-98571400D01*
X84920295Y-98567668D01*
X86956173Y-98567668D01*
X86960520Y-98586784D01*
X87627186Y-100586784D01*
X87635177Y-100604684D01*
X87639860Y-100610084D01*
X87643055Y-100616472D01*
X87652527Y-100624687D01*
X87660743Y-100634160D01*
X87667130Y-100637354D01*
X87672531Y-100642038D01*
X87684429Y-100646003D01*
X87695641Y-100651610D01*
X87702768Y-100652116D01*
X87709547Y-100654376D01*
X87722054Y-100653487D01*
X87734561Y-100654376D01*
X87741339Y-100652116D01*
X87748467Y-100651610D01*
X87759678Y-100646003D01*
X87771577Y-100642038D01*
X87776977Y-100637353D01*
X87783365Y-100634160D01*
X87791578Y-100624690D01*
X87801053Y-100616473D01*
X87804247Y-100610083D01*
X87808931Y-100604684D01*
X87816922Y-100586784D01*
X88483589Y-98586784D01*
X88487936Y-98567669D01*
X88487047Y-98555161D01*
X88955388Y-98555161D01*
X88955388Y-99888495D01*
X88957309Y-99908004D01*
X88972241Y-99944052D01*
X88999831Y-99971642D01*
X89035879Y-99986574D01*
X89074897Y-99986574D01*
X89110945Y-99971642D01*
X89138535Y-99944052D01*
X89153467Y-99908004D01*
X89153609Y-99906552D01*
X89296381Y-99977938D01*
X89314689Y-99984944D01*
X89318272Y-99985198D01*
X89321593Y-99986574D01*
X89341102Y-99988495D01*
X89626817Y-99988495D01*
X89646326Y-99986574D01*
X89649646Y-99985198D01*
X89653230Y-99984944D01*
X89671538Y-99977938D01*
X89862015Y-99882700D01*
X89865279Y-99880645D01*
X89866816Y-99880133D01*
X89868729Y-99878473D01*
X89878605Y-99872257D01*
X89886822Y-99862781D01*
X89896293Y-99854568D01*
X89902506Y-99844696D01*
X89904169Y-99842780D01*
X89904682Y-99841241D01*
X89906736Y-99837978D01*
X90001974Y-99647501D01*
X90008980Y-99629192D01*
X90009234Y-99625609D01*
X90010610Y-99622289D01*
X90012531Y-99602780D01*
X90012531Y-98936114D01*
X90669674Y-98936114D01*
X90669674Y-99507542D01*
X90671595Y-99527051D01*
X90672970Y-99530371D01*
X90673225Y-99533955D01*
X90680231Y-99552263D01*
X90775469Y-99742741D01*
X90780755Y-99751139D01*
X90781765Y-99753576D01*
X90784016Y-99756319D01*
X90785912Y-99759331D01*
X90787909Y-99761063D01*
X90794201Y-99768730D01*
X90889439Y-99863968D01*
X90897105Y-99870259D01*
X90898838Y-99872257D01*
X90901849Y-99874152D01*
X90904593Y-99876404D01*
X90907030Y-99877413D01*
X90915429Y-99882700D01*
X91105905Y-99977938D01*
X91124213Y-99984944D01*
X91127796Y-99985198D01*
X91131117Y-99986574D01*
X91150626Y-99988495D01*
X91531579Y-99988495D01*
X91551088Y-99986574D01*
X91554408Y-99985198D01*
X91557992Y-99984944D01*
X91576300Y-99977938D01*
X91640629Y-99945773D01*
X91666498Y-99971642D01*
X91702546Y-99986574D01*
X91741564Y-99986574D01*
X91777612Y-99971642D01*
X91805202Y-99944052D01*
X91820134Y-99908004D01*
X91822055Y-99888495D01*
X91822055Y-98840876D01*
X92479198Y-98840876D01*
X92479198Y-99602780D01*
X92481119Y-99622289D01*
X92482494Y-99625609D01*
X92482749Y-99629193D01*
X92489755Y-99647501D01*
X92584993Y-99837979D01*
X92587047Y-99841243D01*
X92587560Y-99842780D01*
X92589219Y-99844694D01*
X92595436Y-99854569D01*
X92604908Y-99862784D01*
X92613124Y-99872257D01*
X92622997Y-99878471D01*
X92624913Y-99880133D01*
X92626451Y-99880645D01*
X92629715Y-99882700D01*
X92820191Y-99977938D01*
X92838499Y-99984944D01*
X92842082Y-99985198D01*
X92845403Y-99986574D01*
X92864912Y-99988495D01*
X93245865Y-99988495D01*
X93265374Y-99986574D01*
X93268694Y-99985198D01*
X93272278Y-99984944D01*
X93290586Y-99977938D01*
X93481063Y-99882700D01*
X93484327Y-99880645D01*
X93485864Y-99880133D01*
X93487777Y-99878473D01*
X93497653Y-99872257D01*
X93505870Y-99862781D01*
X93515341Y-99854568D01*
X93521554Y-99844696D01*
X93523217Y-99842780D01*
X93523730Y-99841241D01*
X93525784Y-99837978D01*
X93621022Y-99647501D01*
X93628028Y-99629192D01*
X93628282Y-99625609D01*
X93629658Y-99622289D01*
X93631579Y-99602780D01*
X93631579Y-99412414D01*
X93631580Y-99412409D01*
X93631579Y-99412403D01*
X93631579Y-99412304D01*
X93629658Y-99392795D01*
X93625908Y-99383743D01*
X93624007Y-99374132D01*
X93618514Y-99365893D01*
X93614726Y-99356747D01*
X93607799Y-99349820D01*
X93602364Y-99341667D01*
X93594135Y-99336156D01*
X93587136Y-99329157D01*
X93578084Y-99325407D01*
X93569944Y-99319956D01*
X93551191Y-99314246D01*
X93551089Y-99314225D01*
X93551088Y-99314225D01*
X93551086Y-99314225D01*
X92679198Y-99139847D01*
X92679198Y-98864483D01*
X92691001Y-98840876D01*
X94288722Y-98840876D01*
X94288722Y-100555161D01*
X94290643Y-100574670D01*
X94305575Y-100610718D01*
X94333165Y-100638308D01*
X94369213Y-100653240D01*
X94408231Y-100653240D01*
X94444279Y-100638308D01*
X94471869Y-100610718D01*
X94486801Y-100574670D01*
X94488722Y-100555161D01*
X94488722Y-98936114D01*
X95241103Y-98936114D01*
X95241103Y-99507542D01*
X95243024Y-99527051D01*
X95244399Y-99530371D01*
X95244654Y-99533955D01*
X95251660Y-99552263D01*
X95346898Y-99742741D01*
X95352184Y-99751139D01*
X95353194Y-99753576D01*
X95355445Y-99756319D01*
X95357341Y-99759331D01*
X95359338Y-99761063D01*
X95365630Y-99768730D01*
X95460868Y-99863968D01*
X95468534Y-99870259D01*
X95470267Y-99872257D01*
X95473278Y-99874152D01*
X95476022Y-99876404D01*
X95478459Y-99877413D01*
X95486858Y-99882700D01*
X95677334Y-99977938D01*
X95695642Y-99984944D01*
X95699225Y-99985198D01*
X95702546Y-99986574D01*
X95722055Y-99988495D01*
X96007770Y-99988495D01*
X96027279Y-99986574D01*
X96030599Y-99985198D01*
X96034183Y-99984944D01*
X96052491Y-99977938D01*
X96242968Y-99882700D01*
X96251366Y-99877413D01*
X96253803Y-99876404D01*
X96256546Y-99874152D01*
X96256978Y-99873880D01*
X96956462Y-99873880D01*
X96958400Y-99912850D01*
X96975103Y-99948112D01*
X97004029Y-99974299D01*
X97040774Y-99987422D01*
X97079744Y-99985484D01*
X97115006Y-99968781D01*
X97141193Y-99939855D01*
X97149563Y-99922129D01*
X97531578Y-98852481D01*
X97913596Y-99922129D01*
X97921967Y-99939855D01*
X97948153Y-99968781D01*
X97983415Y-99985484D01*
X98022385Y-99987422D01*
X98059130Y-99974299D01*
X98088056Y-99948112D01*
X98104759Y-99912850D01*
X98106697Y-99873880D01*
X98101944Y-99854861D01*
X97625753Y-98521527D01*
X97617383Y-98503801D01*
X97614013Y-98500079D01*
X97611865Y-98495543D01*
X97601013Y-98485719D01*
X97591196Y-98474875D01*
X97586661Y-98472727D01*
X97582939Y-98469357D01*
X97569152Y-98464433D01*
X97555934Y-98458172D01*
X97550922Y-98457922D01*
X97546194Y-98456234D01*
X97531579Y-98456960D01*
X97516964Y-98456234D01*
X97512235Y-98457922D01*
X97507224Y-98458172D01*
X97494005Y-98464433D01*
X97480219Y-98469357D01*
X97476496Y-98472727D01*
X97471962Y-98474875D01*
X97462143Y-98485721D01*
X97451293Y-98495544D01*
X97449144Y-98500080D01*
X97445776Y-98503801D01*
X97437405Y-98521527D01*
X96961215Y-99854861D01*
X96956462Y-99873880D01*
X96256978Y-99873880D01*
X96259558Y-99872257D01*
X96261290Y-99870259D01*
X96268957Y-99863968D01*
X96364195Y-99768730D01*
X96370489Y-99761059D01*
X96372484Y-99759330D01*
X96374377Y-99756322D01*
X96376631Y-99753576D01*
X96377641Y-99751136D01*
X96382927Y-99742740D01*
X96478165Y-99552263D01*
X96485171Y-99533954D01*
X96485425Y-99530371D01*
X96486801Y-99527051D01*
X96488722Y-99507542D01*
X96488722Y-98936114D01*
X96486801Y-98916605D01*
X96485425Y-98913284D01*
X96485171Y-98909701D01*
X96478165Y-98891393D01*
X96382927Y-98700917D01*
X96377640Y-98692518D01*
X96376631Y-98690081D01*
X96374379Y-98687337D01*
X96372484Y-98684326D01*
X96370486Y-98682593D01*
X96364195Y-98674927D01*
X96268957Y-98579689D01*
X96261290Y-98573397D01*
X96259558Y-98571400D01*
X96256546Y-98569504D01*
X96253803Y-98567253D01*
X96251366Y-98566243D01*
X96242968Y-98560957D01*
X96052492Y-98465718D01*
X96034183Y-98458712D01*
X96030599Y-98458457D01*
X96027279Y-98457082D01*
X96007770Y-98455161D01*
X95722055Y-98455161D01*
X95702546Y-98457082D01*
X95699225Y-98458457D01*
X95695642Y-98458712D01*
X95677333Y-98465719D01*
X95486857Y-98560957D01*
X95478458Y-98566243D01*
X95476022Y-98567253D01*
X95473278Y-98569504D01*
X95470267Y-98571400D01*
X95468534Y-98573397D01*
X95460868Y-98579689D01*
X95365630Y-98674927D01*
X95359338Y-98682593D01*
X95357341Y-98684326D01*
X95355445Y-98687337D01*
X95353194Y-98690081D01*
X95352184Y-98692517D01*
X95346898Y-98700916D01*
X95251660Y-98891393D01*
X95244654Y-98909701D01*
X95244399Y-98913284D01*
X95243024Y-98916605D01*
X95241103Y-98936114D01*
X94488722Y-98936114D01*
X94488722Y-98864483D01*
X94558495Y-98724936D01*
X94719158Y-98644604D01*
X94735748Y-98634161D01*
X94761312Y-98604684D01*
X94773651Y-98567668D01*
X94770885Y-98528748D01*
X94753435Y-98493849D01*
X94723959Y-98468285D01*
X94686943Y-98455946D01*
X94648023Y-98458712D01*
X94629714Y-98465719D01*
X94439238Y-98560957D01*
X94435973Y-98563011D01*
X94434437Y-98563524D01*
X94432522Y-98565183D01*
X94422648Y-98571400D01*
X94414432Y-98580872D01*
X94404960Y-98589088D01*
X94398743Y-98598962D01*
X94397084Y-98600877D01*
X94396571Y-98602413D01*
X94394517Y-98605678D01*
X94299279Y-98796155D01*
X94292273Y-98814463D01*
X94292018Y-98818046D01*
X94290643Y-98821367D01*
X94288722Y-98840876D01*
X92691001Y-98840876D01*
X92748971Y-98724936D01*
X92888520Y-98655161D01*
X93222257Y-98655161D01*
X93391619Y-98739842D01*
X93409928Y-98746849D01*
X93448848Y-98749615D01*
X93485864Y-98737276D01*
X93515340Y-98711712D01*
X93532790Y-98676813D01*
X93535556Y-98637893D01*
X93523217Y-98600877D01*
X93497653Y-98571400D01*
X93481063Y-98560957D01*
X93290587Y-98465718D01*
X93272278Y-98458712D01*
X93268694Y-98458457D01*
X93265374Y-98457082D01*
X93245865Y-98455161D01*
X92864912Y-98455161D01*
X92845403Y-98457082D01*
X92842082Y-98458457D01*
X92838499Y-98458712D01*
X92820190Y-98465719D01*
X92629714Y-98560957D01*
X92626449Y-98563011D01*
X92624913Y-98563524D01*
X92622998Y-98565183D01*
X92613124Y-98571400D01*
X92604908Y-98580872D01*
X92595436Y-98589088D01*
X92589219Y-98598962D01*
X92587560Y-98600877D01*
X92587047Y-98602413D01*
X92584993Y-98605678D01*
X92489755Y-98796155D01*
X92482749Y-98814463D01*
X92482494Y-98818046D01*
X92481119Y-98821367D01*
X92479198Y-98840876D01*
X91822055Y-98840876D01*
X91822055Y-98269447D01*
X91820134Y-98249938D01*
X91818758Y-98246617D01*
X91818504Y-98243034D01*
X91811498Y-98224726D01*
X91716260Y-98034250D01*
X91710973Y-98025851D01*
X91709964Y-98023414D01*
X91707712Y-98020670D01*
X91705817Y-98017659D01*
X91703819Y-98015926D01*
X91697528Y-98008260D01*
X91602290Y-97913022D01*
X91594623Y-97906730D01*
X91592891Y-97904733D01*
X91589879Y-97902837D01*
X91587136Y-97900586D01*
X91584699Y-97899576D01*
X91576301Y-97894290D01*
X91385823Y-97799052D01*
X91367515Y-97792046D01*
X91363931Y-97791791D01*
X91360611Y-97790416D01*
X91341102Y-97788495D01*
X91055388Y-97788495D01*
X91035879Y-97790416D01*
X91032558Y-97791791D01*
X91028975Y-97792046D01*
X91010667Y-97799052D01*
X90820191Y-97894290D01*
X90803600Y-97904733D01*
X90778036Y-97934210D01*
X90765697Y-97971226D01*
X90768463Y-98010146D01*
X90785912Y-98045045D01*
X90815389Y-98070609D01*
X90852405Y-98082948D01*
X90891325Y-98080182D01*
X90909633Y-98073176D01*
X91078996Y-97988495D01*
X91317495Y-97988495D01*
X91472342Y-98065918D01*
X91544631Y-98138207D01*
X91622055Y-98293054D01*
X91622055Y-98488595D01*
X91576301Y-98465718D01*
X91557992Y-98458712D01*
X91554408Y-98458457D01*
X91551088Y-98457082D01*
X91531579Y-98455161D01*
X91150626Y-98455161D01*
X91131117Y-98457082D01*
X91127796Y-98458457D01*
X91124213Y-98458712D01*
X91105904Y-98465719D01*
X90915428Y-98560957D01*
X90907029Y-98566243D01*
X90904593Y-98567253D01*
X90901849Y-98569504D01*
X90898838Y-98571400D01*
X90897105Y-98573397D01*
X90889439Y-98579689D01*
X90794201Y-98674927D01*
X90787909Y-98682593D01*
X90785912Y-98684326D01*
X90784016Y-98687337D01*
X90781765Y-98690081D01*
X90780755Y-98692517D01*
X90775469Y-98700916D01*
X90680231Y-98891393D01*
X90673225Y-98909701D01*
X90672970Y-98913284D01*
X90671595Y-98916605D01*
X90669674Y-98936114D01*
X90012531Y-98936114D01*
X90012531Y-98555161D01*
X90010610Y-98535652D01*
X89995678Y-98499604D01*
X89968088Y-98472014D01*
X89932040Y-98457082D01*
X89893022Y-98457082D01*
X89856974Y-98472014D01*
X89829384Y-98499604D01*
X89814452Y-98535652D01*
X89812531Y-98555161D01*
X89812531Y-99579172D01*
X89742757Y-99718721D01*
X89603210Y-99788495D01*
X89364710Y-99788495D01*
X89209862Y-99711071D01*
X89155388Y-99656597D01*
X89155388Y-98555161D01*
X89153467Y-98535652D01*
X89138535Y-98499604D01*
X89110945Y-98472014D01*
X89074897Y-98457082D01*
X89035879Y-98457082D01*
X88999831Y-98472014D01*
X88972241Y-98499604D01*
X88957309Y-98535652D01*
X88955388Y-98555161D01*
X88487047Y-98555161D01*
X88485170Y-98528749D01*
X88467720Y-98493850D01*
X88438244Y-98468285D01*
X88401228Y-98455946D01*
X88362308Y-98458712D01*
X88327409Y-98476162D01*
X88301844Y-98505638D01*
X88293853Y-98523538D01*
X88126169Y-99026590D01*
X87317940Y-99026590D01*
X87150256Y-98523538D01*
X87142265Y-98505638D01*
X87116700Y-98476162D01*
X87081801Y-98458712D01*
X87042881Y-98455946D01*
X87005865Y-98468284D01*
X86976389Y-98493849D01*
X86958939Y-98528748D01*
X86956173Y-98567668D01*
X84920295Y-98567668D01*
X84916348Y-98565183D01*
X84914434Y-98563524D01*
X84912897Y-98563011D01*
X84909633Y-98560957D01*
X84719156Y-98465718D01*
X84700847Y-98458712D01*
X84697263Y-98458457D01*
X84693943Y-98457082D01*
X84674434Y-98455161D01*
X84293482Y-98455161D01*
X84273973Y-98457082D01*
X84270652Y-98458457D01*
X84267069Y-98458712D01*
X84248760Y-98465719D01*
X84058284Y-98560957D01*
X84041694Y-98571400D01*
X84016130Y-98600877D01*
X84003791Y-98637893D01*
X84006557Y-98676813D01*
X84024006Y-98711712D01*
X84053483Y-98737276D01*
X84090499Y-98749615D01*
X84129419Y-98746849D01*
X84147728Y-98739843D01*
X84317090Y-98655161D01*
X84650826Y-98655161D01*
X84790375Y-98724936D01*
X84860149Y-98864483D01*
X84860149Y-98912506D01*
X84790375Y-99052054D01*
X84650827Y-99121828D01*
X84388720Y-99121828D01*
X84369211Y-99123749D01*
X84365890Y-99125124D01*
X84362307Y-99125379D01*
X84343999Y-99132385D01*
X84153523Y-99227623D01*
X84150259Y-99229677D01*
X84148721Y-99230190D01*
X84146805Y-99231851D01*
X84136932Y-99238066D01*
X84128716Y-99247538D01*
X84119244Y-99255754D01*
X84113027Y-99265628D01*
X84111368Y-99267543D01*
X84110855Y-99269079D01*
X84108801Y-99272344D01*
X84013563Y-99462821D01*
X84006557Y-99481129D01*
X84006302Y-99484712D01*
X84004927Y-99488033D01*
X84003006Y-99507542D01*
X83345863Y-99507542D01*
X83345863Y-98555161D01*
X83343942Y-98535652D01*
X83329010Y-98499604D01*
X83301420Y-98472014D01*
X83265372Y-98457082D01*
X83226354Y-98457082D01*
X83190306Y-98472014D01*
X83162716Y-98499604D01*
X83147784Y-98535652D01*
X83145863Y-98555161D01*
X82107768Y-98555161D01*
X82105847Y-98535652D01*
X82090915Y-98499604D01*
X82063325Y-98472014D01*
X82027277Y-98457082D01*
X81988259Y-98457082D01*
X81952211Y-98472014D01*
X81924621Y-98499604D01*
X81909689Y-98535652D01*
X81907768Y-98555161D01*
X81249699Y-98555161D01*
X81244959Y-98521978D01*
X81225079Y-98488403D01*
X81193865Y-98464993D01*
X81156067Y-98455309D01*
X81117441Y-98460827D01*
X81083867Y-98480707D01*
X81070625Y-98495161D01*
X80282663Y-99545777D01*
X80107768Y-99370882D01*
X80107768Y-98555161D01*
X80105847Y-98535652D01*
X80090915Y-98499604D01*
X80063325Y-98472014D01*
X80027277Y-98457082D01*
X79988259Y-98457082D01*
X79952211Y-98472014D01*
X79924621Y-98499604D01*
X79909689Y-98535652D01*
X79907768Y-98555161D01*
X79590308Y-98555161D01*
X79590308Y-97566273D01*
X120804265Y-97566273D01*
X120804265Y-113756935D01*
G37*
M02*
