%TF.GenerationSoftware,KiCad,Pcbnew,9.99.0-unknown-b0b07bbc41~182~ubuntu22.04.1*%
%TF.CreationDate,2025-08-06T14:03:12+02:00*%
%TF.ProjectId,CP70_pa_ba,43503730-5f70-4615-9f62-612e6b696361,rev?*%
%TF.SameCoordinates,Original*%
%TF.FileFunction,Profile,NP*%
%FSLAX46Y46*%
G04 Gerber Fmt 4.6, Leading zero omitted, Abs format (unit mm)*
G04 Created by KiCad (PCBNEW 9.99.0-unknown-b0b07bbc41~182~ubuntu22.04.1) date 2025-08-06 14:03:12*
%MOMM*%
%LPD*%
G01*
G04 APERTURE LIST*
%TA.AperFunction,Profile*%
%ADD10C,0.200000*%
%TD*%
G04 APERTURE END LIST*
D10*
X201600000Y-126000000D02*
G75*
G02*
X198400000Y-126000000I-1600000J0D01*
G01*
X198400000Y-126000000D02*
G75*
G02*
X201600000Y-126000000I1600000J0D01*
G01*
X111600000Y-78500000D02*
G75*
G02*
X108400000Y-78500000I-1600000J0D01*
G01*
X108400000Y-78500000D02*
G75*
G02*
X111600000Y-78500000I1600000J0D01*
G01*
X156600000Y-126000000D02*
G75*
G02*
X153400000Y-126000000I-1600000J0D01*
G01*
X153400000Y-126000000D02*
G75*
G02*
X156600000Y-126000000I1600000J0D01*
G01*
X61500000Y-74500000D02*
X61500000Y-129500000D01*
X201600000Y-78500000D02*
G75*
G02*
X198400000Y-78500000I-1600000J0D01*
G01*
X198400000Y-78500000D02*
G75*
G02*
X201600000Y-78500000I1600000J0D01*
G01*
X189600000Y-78500000D02*
G75*
G02*
X186400000Y-78500000I-1600000J0D01*
G01*
X186400000Y-78500000D02*
G75*
G02*
X189600000Y-78500000I1600000J0D01*
G01*
X156600000Y-78500000D02*
G75*
G02*
X153400000Y-78500000I-1600000J0D01*
G01*
X153400000Y-78500000D02*
G75*
G02*
X156600000Y-78500000I1600000J0D01*
G01*
X99600000Y-126000000D02*
G75*
G02*
X96400000Y-126000000I-1600000J0D01*
G01*
X96400000Y-126000000D02*
G75*
G02*
X99600000Y-126000000I1600000J0D01*
G01*
X99600000Y-78500000D02*
G75*
G02*
X96400000Y-78500000I-1600000J0D01*
G01*
X96400000Y-78500000D02*
G75*
G02*
X99600000Y-78500000I1600000J0D01*
G01*
X236500000Y-74500000D02*
X61500000Y-74500000D01*
X144600000Y-78500000D02*
G75*
G02*
X141400000Y-78500000I-1600000J0D01*
G01*
X141400000Y-78500000D02*
G75*
G02*
X144600000Y-78500000I1600000J0D01*
G01*
X144600000Y-126000000D02*
G75*
G02*
X141400000Y-126000000I-1600000J0D01*
G01*
X141400000Y-126000000D02*
G75*
G02*
X144600000Y-126000000I1600000J0D01*
G01*
X61500000Y-129500000D02*
X236500000Y-129500000D01*
X236500000Y-129500000D02*
X236500000Y-74500000D01*
X189600000Y-126000000D02*
G75*
G02*
X186400000Y-126000000I-1600000J0D01*
G01*
X186400000Y-126000000D02*
G75*
G02*
X189600000Y-126000000I1600000J0D01*
G01*
X111600000Y-126000000D02*
G75*
G02*
X108400000Y-126000000I-1600000J0D01*
G01*
X108400000Y-126000000D02*
G75*
G02*
X111600000Y-126000000I1600000J0D01*
G01*
M02*
