M48
; DRILL file {KiCad 9.99.0-unknown-b0b07bbc41~182~ubuntu22.04.1} date 2025-08-06T14:03:16+0200
; FORMAT={-:-/ absolute / inch / decimal}
; #@! TF.CreationDate,2025-08-06T14:03:16+02:00
; #@! TF.GenerationSoftware,Kicad,Pcbnew,9.99.0-unknown-b0b07bbc41~182~ubuntu22.04.1
; #@! TF.FileFunction,Plated,1,2,PTH
FMAT,2
INCH
; #@! TA.AperFunction,Plated,PTH,ViaDrill
T1C0.0157
; #@! TA.AperFunction,Plated,PTH,ComponentDrill
T2C0.0197
; #@! TA.AperFunction,Plated,PTH,ComponentDrill
T3C0.0354
; #@! TA.AperFunction,Plated,PTH,ComponentDrill
T4C0.0394
; #@! TA.AperFunction,Plated,PTH,ComponentDrill
T5C0.1260
%
G90
G05
T1
X2.5787Y-4.6299
X2.8031Y-4.7126
X2.8701Y-4.9213
X3.0183Y-3.9542
X3.1654Y-3.8465
X3.1659Y-4.1018
X3.2938Y-4.0172
X3.3346Y-3.8071
X3.4252Y-3.9449
X3.4843Y-4.2165
X3.5236Y-3.7717
X3.5827Y-3.8583
X3.6299Y-4.0
X3.7677Y-4.1299
X3.8228Y-4.0
X3.8504Y-3.4016
X3.8543Y-3.7795
X3.8583Y-3.6614
X3.8622Y-3.5118
X3.8898Y-3.8937
X4.0039Y-4.2165
X4.3425Y-3.4291
X4.3504Y-3.5276
X4.3622Y-3.6575
X4.4094Y-3.7795
X4.5787Y-4.2165
X4.7953Y-3.7795
X4.7953Y-3.8937
X4.7992Y-4.0
X4.8031Y-4.1299
X4.815Y-4.3701
X4.874Y-4.2165
X5.0157Y-4.2126
X5.063Y-3.9173
X5.122Y-4.185
X5.1575Y-4.3386
X5.1693Y-3.8189
X5.2677Y-4.3386
X5.3268Y-4.1811
X5.3307Y-3.8307
X5.3661Y-4.3425
X5.3937Y-4.0394
X5.4685Y-4.3386
X5.5039Y-3.9094
X5.5315Y-4.1772
X5.5669Y-4.3386
X5.6181Y-3.7205
X5.6299Y-3.5512
X5.6339Y-3.4055
X5.6654Y-4.3386
X5.6929Y-4.0669
X5.7638Y-4.3307
X5.8661Y-4.252
X5.8701Y-4.3268
X5.9198Y-4.0419
X5.9827Y-4.1865
X5.9843Y-4.3346
X6.0734Y-3.8883
X6.0827Y-4.3307
X6.099Y-3.9848
X6.1575Y-3.5315
X6.1654Y-3.3307
X6.1654Y-3.7165
X6.1693Y-4.1102
X6.1732Y-4.3268
X6.2677Y-4.3346
X6.2756Y-4.0039
X6.2835Y-4.1732
X6.3637Y-3.8268
X6.3701Y-4.3268
X6.4055Y-4.0276
X6.4724Y-4.3307
X6.5709Y-4.3307
X6.6417Y-3.811
X6.8819Y-3.7992
X6.9331Y-3.9961
X7.0236Y-3.8425
X7.0591Y-4.374
X7.063Y-4.2402
X7.1339Y-4.1181
X7.2323Y-3.8661
X7.3701Y-3.5591
X7.3701Y-3.7244
X7.378Y-3.374
X7.5866Y-4.1063
X7.5866Y-4.2402
X7.5945Y-4.378
X7.6181Y-4.0
X7.6732Y-3.8661
X7.9055Y-3.5079
X7.9094Y-3.3543
X7.9213Y-3.7205
X8.1024Y-3.8661
X8.1299Y-3.9961
X8.1654Y-3.815
X8.2598Y-4.1142
X8.2598Y-4.2402
X8.2638Y-4.3661
X8.5118Y-4.0251
X8.6417Y-4.1299
X8.6772Y-4.3386
X8.8346Y-3.8071
X8.8701Y-4.1535
X8.9173Y-4.8976
X9.0354Y-4.7205
X9.1969Y-4.6496
T2
X2.4646Y-3.0906
X2.4646Y-4.9606
X2.4922Y-3.0237
X2.4922Y-3.1574
X2.4922Y-4.8938
X2.4922Y-5.0274
X2.5591Y-2.9961
X2.5591Y-3.185
X2.5591Y-4.8661
X2.5591Y-5.0551
X2.6259Y-3.0237
X2.6259Y-3.1574
X2.6259Y-4.8938
X2.6259Y-5.0274
X2.6535Y-3.0906
X2.6535Y-4.9606
X3.7638Y-3.0906
X3.7638Y-4.9606
X3.7915Y-3.0237
X3.7915Y-3.1574
X3.7915Y-4.8938
X3.7915Y-5.0274
X3.8583Y-2.9961
X3.8583Y-3.185
X3.8583Y-4.8661
X3.8583Y-5.0551
X3.9251Y-3.0237
X3.9251Y-3.1574
X3.9251Y-4.8938
X3.9251Y-5.0274
X3.9528Y-3.0906
X3.9528Y-4.9606
X4.2362Y-3.0906
X4.2362Y-4.9606
X4.2639Y-3.0237
X4.2639Y-3.1574
X4.2639Y-4.8938
X4.2639Y-5.0274
X4.3307Y-2.9961
X4.3307Y-3.185
X4.3307Y-4.8661
X4.3307Y-5.0551
X4.3975Y-3.0237
X4.3975Y-3.1574
X4.3975Y-4.8938
X4.3975Y-5.0274
X4.4252Y-3.0906
X4.4252Y-4.9606
X5.5354Y-3.0906
X5.5354Y-4.9606
X5.5631Y-3.0237
X5.5631Y-3.1574
X5.5631Y-4.8938
X5.5631Y-5.0274
X5.6299Y-2.9961
X5.6299Y-3.185
X5.6299Y-4.8661
X5.6299Y-5.0551
X5.6967Y-3.0237
X5.6967Y-3.1574
X5.6967Y-4.8938
X5.6967Y-5.0274
X5.7244Y-3.0906
X5.7244Y-4.9606
X6.0079Y-3.0906
X6.0079Y-4.9606
X6.0355Y-3.0237
X6.0355Y-3.1574
X6.0355Y-4.8938
X6.0355Y-5.0274
X6.1024Y-2.9961
X6.1024Y-3.185
X6.1024Y-4.8661
X6.1024Y-5.0551
X6.1692Y-3.0237
X6.1692Y-3.1574
X6.1692Y-4.8938
X6.1692Y-5.0274
X6.1969Y-3.0906
X6.1969Y-4.9606
X7.3071Y-3.0906
X7.3071Y-4.9606
X7.3348Y-3.0237
X7.3348Y-3.1574
X7.3348Y-4.8938
X7.3348Y-5.0274
X7.4016Y-2.9961
X7.4016Y-3.185
X7.4016Y-4.8661
X7.4016Y-5.0551
X7.4684Y-3.0237
X7.4684Y-3.1574
X7.4684Y-4.8938
X7.4684Y-5.0274
X7.4961Y-3.0906
X7.4961Y-4.9606
X7.7795Y-3.0906
X7.7795Y-4.9606
X7.8072Y-3.0237
X7.8072Y-3.1574
X7.8072Y-4.8938
X7.8072Y-5.0274
X7.874Y-2.9961
X7.874Y-3.185
X7.874Y-4.8661
X7.874Y-5.0551
X7.9408Y-3.0237
X7.9408Y-3.1574
X7.9408Y-4.8938
X7.9408Y-5.0274
X7.9685Y-3.0906
X7.9685Y-4.9606
X9.0787Y-3.0906
X9.0787Y-4.9606
X9.1064Y-3.0237
X9.1064Y-3.1574
X9.1064Y-4.8938
X9.1064Y-5.0274
X9.1732Y-2.9961
X9.1732Y-3.185
X9.1732Y-4.8661
X9.1732Y-5.0551
X9.24Y-3.0237
X9.24Y-3.1574
X9.24Y-4.8938
X9.24Y-5.0274
X9.2677Y-3.0906
X9.2677Y-4.9606
T3
X2.9256Y-3.463
X2.9256Y-3.663
X3.0256Y-3.463
X3.0256Y-3.663
X3.1256Y-3.463
X3.1256Y-3.663
X3.2256Y-3.463
X3.2256Y-3.663
X3.3256Y-3.463
X3.3256Y-3.663
X3.4256Y-3.463
X3.4256Y-3.663
X3.5256Y-3.463
X3.5256Y-3.663
X3.6256Y-3.463
X3.6256Y-3.663
X4.71Y-3.463
X4.71Y-3.663
X4.81Y-3.463
X4.81Y-3.663
X4.91Y-3.463
X4.91Y-3.663
X5.01Y-3.463
X5.01Y-3.663
X5.11Y-3.463
X5.11Y-3.663
X5.21Y-3.463
X5.21Y-3.663
X5.31Y-3.463
X5.31Y-3.663
X5.41Y-3.463
X5.41Y-3.663
X6.4822Y-3.463
X6.4822Y-3.663
X6.5822Y-3.463
X6.5822Y-3.663
X6.6822Y-3.463
X6.6822Y-3.663
X6.7822Y-3.463
X6.7822Y-3.663
X6.8822Y-3.463
X6.8822Y-3.663
X6.9822Y-3.463
X6.9822Y-3.663
X7.0822Y-3.463
X7.0822Y-3.663
X7.1822Y-3.463
X7.1822Y-3.663
X8.2327Y-3.463
X8.2327Y-3.663
X8.3327Y-3.463
X8.3327Y-3.663
X8.4327Y-3.463
X8.4327Y-3.663
X8.5327Y-3.463
X8.5327Y-3.663
X8.6327Y-3.463
X8.6327Y-3.663
X8.7327Y-3.463
X8.7327Y-3.663
X8.8327Y-3.463
X8.8327Y-3.663
X8.9327Y-3.463
X8.9327Y-3.663
T4
X4.9181Y-4.4038
X4.9181Y-4.5038
X5.0181Y-4.4038
X5.0181Y-4.5038
X5.1181Y-4.4038
X5.1181Y-4.5038
X5.2181Y-4.4038
X5.2181Y-4.5038
X5.3181Y-4.4038
X5.3181Y-4.5038
X5.4181Y-4.4038
X5.4181Y-4.5038
X5.5181Y-4.4038
X5.5181Y-4.5038
X5.6181Y-4.4038
X5.6181Y-4.5038
X5.7181Y-4.4038
X5.7181Y-4.5038
X5.8181Y-4.4038
X5.8181Y-4.5038
X5.9181Y-4.4038
X5.9181Y-4.5038
X6.0181Y-4.4038
X6.0181Y-4.5038
X6.1181Y-4.4038
X6.1181Y-4.5038
X6.2181Y-4.4038
X6.2181Y-4.5038
X6.3181Y-4.4038
X6.3181Y-4.5038
X6.4181Y-4.4038
X6.4181Y-4.5038
X6.5181Y-4.4038
X6.5181Y-4.5038
X6.6181Y-4.4038
X6.6181Y-4.5038
X6.7181Y-4.4038
X6.7181Y-4.5038
X6.8181Y-4.4038
X6.8181Y-4.5038
T5
X2.5591Y-3.0906
X2.5591Y-4.9606
X3.8583Y-3.0906
X3.8583Y-4.9606
X4.3307Y-3.0906
X4.3307Y-4.9606
X5.6299Y-3.0906
X5.6299Y-4.9606
X6.1024Y-3.0906
X6.1024Y-4.9606
X7.4016Y-3.0906
X7.4016Y-4.9606
X7.874Y-3.0906
X7.874Y-4.9606
X9.1732Y-3.0906
X9.1732Y-4.9606
M30
